<svg xmlns="http://www.w3.org/2000/svg" viewBox="0 0 15 15"><defs><style>.cls-1{fill:none;opacity:0.18;}.cls-2{fill:#fff;opacity:0.05;}</style></defs><title>アートボード 28</title><g id="filter"><path class="cls-1" d="M13.56,7.5A1.43,1.43,0,0,1,15,6.06V0H8.94A1.44,1.44,0,1,1,6.06,0H0V6.06A1.44,1.44,0,0,1,0,8.94V15H6.06a1.44,1.44,0,0,1,2.88,0H15V8.94A1.43,1.43,0,0,1,13.56,7.5Z"/><path class="cls-2" d="M7.5,1.44A1.43,1.43,0,0,0,8.94,0H6.06A1.43,1.43,0,0,0,7.5,1.44Z"/><path class="cls-2" d="M7.5,13.56A1.43,1.43,0,0,0,6.06,15H8.94A1.44,1.44,0,0,0,7.5,13.56Z"/><path class="cls-2" d="M13.56,7.5A1.43,1.43,0,0,0,15,8.94V6.06A1.43,1.43,0,0,0,13.56,7.5Z"/><path class="cls-2" d="M1.44,7.5A1.43,1.43,0,0,0,0,6.06V8.94A1.43,1.43,0,0,0,1.44,7.5Z"/></g></svg>