<svg xmlns="http://www.w3.org/2000/svg" viewBox="0 0 127 14" preserveAspectRatio="none"><defs><style>.cls-1{fill:#fff;}.cls-2{fill:none;opacity:0.1;}</style></defs><title>アートボード 40</title><g id="letter"><path class="cls-1" d="M2.89,13.31a2.69,2.69,0,0,1-1.84-.68A9.1,9.1,0,0,1,.7,9.71c.08-.23.33-.25.41-.06.22,1.18.94,2.83,1.86,2.83s1.17-.92,1.17-1.82A3.61,3.61,0,0,0,2.67,7.8,4.37,4.37,0,0,1,1,4.29C1,2.26,2,.85,3.54.85a2.78,2.78,0,0,1,1.24.29,1.48,1.48,0,0,0,.36.14,13.9,13.9,0,0,1,.2,2.58.23.23,0,0,1-.42.05C4.73,3,4.27,1.68,3.49,1.68s-1.1.77-1.1,1.67a2.82,2.82,0,0,0,1,2.06L4.08,6A4.49,4.49,0,0,1,5.61,9.65C5.61,11.87,4.52,13.31,2.89,13.31Z"/><path class="cls-1" d="M14.07,2.49c0-.43,0-.52-.26-.52h-.67c-.78,0-1,.72-1.33,2a.24.24,0,0,1-.4-.16c.22-1.24.28-2.36.35-3.06a.24.24,0,0,1,.15-.09.18.18,0,0,1,.15.07c.06.31.09.38.91.38h4c.71,0,.88,0,1-.4a.19.19,0,0,1,.31.07,21,21,0,0,0-.17,3.1c-.05.16-.34.2-.4.06-.18-1.16-.33-2-1.14-2h-.65c-.26,0-.29.05-.29.52v7.94c0,1.67.06,1.82.55,1.93l.43.09a.86.86,0,0,1,0,.63c-.7,0-1.24-.06-1.73-.06s-1.08,0-1.83.06a.77.77,0,0,1,0-.63l.48-.09c.49-.09.55-.26.55-1.93Z"/><path class="cls-1" d="M25.9,9c-.26,0-.29,0-.36.36l-.42,2.09a3.69,3.69,0,0,0-.07.65c0,.11.14.22.44.31l.32.09c.07.12.09.54,0,.63-.38,0-.77,0-1.22-.06s-.62.06-1.11.06a.7.7,0,0,1,0-.63l.29-.06c.26-.05.47-.2.66-.9s.38-1.58.68-2.88l1-4.39a10.2,10.2,0,0,0,.4-2.29c.52-.2.92-1.08.94-1.08s.2.09.25.36c.08.52.21,1.19.48,2.47l1.47,7.06c.23,1.08.33,1.49.73,1.6l.41.11a.91.91,0,0,1,0,.63C30.19,13,29.6,13,29,13s-1,0-1.46.06a.62.62,0,0,1,0-.63l.35-.09c.25-.08.29-.2.29-.31s-.08-.56-.2-1.22l-.3-1.55C27.65,9,27.56,9,27.18,9ZM27.13,8c.25,0,.3-.06.22-.52L27.07,6c-.16-.78-.35-1.75-.45-2.13-.08.42-.3,1.39-.46,2.22l-.27,1.35c-.1.48,0,.54.23.54Z"/><path class="cls-1" d="M38.6,6c0,.49,0,.54.3.54h.84c.57,0,.69-.12.79-1l.06-.44a.24.24,0,0,1,.41,0c0,.58,0,1.24,0,1.93s0,1.33,0,1.87a.24.24,0,0,1-.41,0l-.06-.43c-.1-.87-.22-1-.79-1H38.9c-.29,0-.3,0-.3.54v2.43c0,1.67.07,1.82.55,1.93l.4.09a.86.86,0,0,1,0,.63c-.67,0-1.2-.06-1.72-.06s-1,0-1.68.06a.77.77,0,0,1,0-.63l.36-.09c.48-.13.55-.26.55-1.93V3.73c0-1.67-.07-1.83-.55-2l-.22-.05c-.1-.11-.1-.56,0-.64.47,0,1,.06,1.52.06H40.1a10.59,10.59,0,0,0,1.46-.06c0,.31,0,1.61,0,2.81a.23.23,0,0,1-.41.08,6.68,6.68,0,0,0-.31-1.41A1,1,0,0,0,39.8,2H39c-.36,0-.36,0-.36.74Z"/><path class="cls-1" d="M49.92,6c0,.49,0,.54.3.54h.83c.58,0,.69-.12.8-1l.06-.44a.24.24,0,0,1,.41,0c0,.58,0,1.24,0,1.93s0,1.33,0,1.87a.24.24,0,0,1-.41,0l-.06-.43c-.11-.87-.22-1-.8-1h-.83c-.29,0-.3,0-.3.54v2.43c0,1.67.06,1.82.55,1.93l.4.09a.86.86,0,0,1,0,.63c-.67,0-1.2-.06-1.72-.06s-1,0-1.68.06a.77.77,0,0,1,0-.63l.35-.09c.49-.13.55-.26.55-1.93V3.73c0-1.67-.06-1.83-.55-2l-.21-.05c-.1-.11-.1-.56,0-.64.46,0,1,.06,1.52.06h2.27a10.59,10.59,0,0,0,1.46-.06c0,.31,0,1.61,0,2.81a.23.23,0,0,1-.41.08,6.68,6.68,0,0,0-.31-1.41A1.06,1.06,0,0,0,51.12,2h-.84c-.36,0-.36,0-.36.74Z"/><path class="cls-1" d="M67.64,13.31h-1L68.93.85h1Z"/><path class="cls-1" d="M90.46,1.32c0,.32,0,1.76.13,2.81,0,.21-.33.29-.41.12-.29-1.67-1-2.57-2-2.57C87,1.68,85.67,3.39,85.67,7s1.24,5.51,2.54,5.51,1.91-1.56,2.2-2.79c.09-.14.35-.09.41.13a12.94,12.94,0,0,1-.41,2.83,5.43,5.43,0,0,1-2.19.66,3.66,3.66,0,0,1-2.91-1.37,7.37,7.37,0,0,1-1.37-4.71,8,8,0,0,1,1.31-4.78,3.66,3.66,0,0,1,3-1.6A8.06,8.06,0,0,1,90.46,1.32Z"/><path class="cls-1" d="M98.56,9c-.26,0-.29,0-.35.36l-.43,2.09a3.69,3.69,0,0,0-.07.65c0,.11.14.22.44.31l.33.09c.06.12.08.54,0,.63-.37,0-.76,0-1.22-.06s-.61.06-1.11.06a.7.7,0,0,1,0-.63l.29-.06c.26-.05.47-.2.66-.9s.39-1.58.68-2.88l1-4.39a10.2,10.2,0,0,0,.4-2.29c.52-.2.92-1.08.94-1.08s.21.09.25.36c.09.52.22,1.19.49,2.47l1.47,7.06c.22,1.08.32,1.49.72,1.6l.41.11a.86.86,0,0,1,0,.63c-.52,0-1.1-.06-1.66-.06s-1,0-1.46.06a.59.59,0,0,1,0-.63l.34-.09c.25-.08.29-.2.29-.31a10.68,10.68,0,0,0-.2-1.22l-.29-1.55c-.06-.29-.14-.33-.52-.33ZM99.79,8c.25,0,.31-.06.22-.52L99.73,6c-.15-.78-.35-1.75-.44-2.13-.09.42-.31,1.39-.47,2.22l-.27,1.35c-.1.48,0,.54.23.54Z"/><path class="cls-1" d="M110.92,13.31a2.69,2.69,0,0,1-1.84-.68,9.4,9.4,0,0,1-.35-2.92c.08-.23.33-.25.42-.06.21,1.18.94,2.83,1.85,2.83s1.17-.92,1.17-1.82A3.61,3.61,0,0,0,110.7,7.8a4.37,4.37,0,0,1-1.63-3.51c0-2,.94-3.44,2.51-3.44a2.74,2.74,0,0,1,1.23.29,1.65,1.65,0,0,0,.36.14,13.9,13.9,0,0,1,.2,2.58.23.23,0,0,1-.42.05c-.19-.92-.65-2.23-1.43-2.23s-1.1.77-1.1,1.67a2.82,2.82,0,0,0,1,2.06l.72.63a4.48,4.48,0,0,1,1.52,3.61C113.64,11.87,112.55,13.31,110.92,13.31Z"/><path class="cls-1" d="M122.11,2.49c0-.43,0-.52-.26-.52h-.67c-.79,0-1,.72-1.34,2a.24.24,0,0,1-.4-.16c.22-1.24.28-2.36.35-3.06A.24.24,0,0,1,120,.69a.21.21,0,0,1,.15.07c.05.31.08.38.9.38h4c.72,0,.88,0,1-.4a.25.25,0,0,1,.15-.05.22.22,0,0,1,.16.12,19.87,19.87,0,0,0-.16,3.1c-.06.16-.35.2-.4.06-.19-1.16-.34-2-1.15-2h-.65c-.26,0-.29.05-.29.52v7.94c0,1.67.07,1.82.55,1.93l.43.09a.86.86,0,0,1,0,.63c-.7,0-1.24-.06-1.72-.06s-1.09,0-1.84.06a.77.77,0,0,1,0-.63l.48-.09c.49-.09.56-.26.56-1.93Z"/><rect class="cls-2" width="127" height="14"/></g></svg>