<svg xmlns="http://www.w3.org/2000/svg" viewBox="0 0 159 38"><defs><style>.cls-1{fill:#fff;}.cls-2{fill:none;opacity:0.1;}</style></defs><title>アートボード 15</title><g id="letter"><path class="cls-1" d="M4.18,5.54C6.31,2.49,9,1,12.06,1a13.26,13.26,0,0,1,5.16,1.28,1.35,1.35,0,0,0,.82.22c0,1.23.17,4.6.41,7.86a.44.44,0,0,1-.79.11c-.44-3.64-1.75-7.81-6-7.81-4.47,0-8.26,5.18-8.26,16.26S7.3,36.34,12.09,36.34c3.76,0,5.43-4.49,6.1-7.65a.45.45,0,0,1,.76.22,32.19,32.19,0,0,1-1.41,7.32,4.35,4.35,0,0,0-1,.54A10.21,10.21,0,0,1,11.91,38a9,9,0,0,1-7.27-3.58C2.31,31.48.5,26.61.5,19.71.5,13.77,2,8.69,4.18,5.54Z"/><path class="cls-1" d="M55,13.47c.21,1.17.32,1.33,1.2,1.33h4.41c.73,0,.9-.16,1.11-1.28l1-5.62a36.49,36.49,0,0,0,.64-4.43c0-.65-.15-1-.85-1.07l-1-.16A1.38,1.38,0,0,1,61.64.9c.76.11,1.66.11,3,.16,1,0,2-.11,2.81-.16a1.77,1.77,0,0,1,0,1.34l-1,.16c-.7.1-1.34.69-1.75,2.62-.53,2.46-1.34,5.93-2.57,11.92l-3,14.44a13.45,13.45,0,0,0-.49,3.8,4.47,4.47,0,0,0-1.52,2c-.17,0-.38-.1-.44-.48-.38-2.35-.84-4.81-1.28-7.16l-4-21.5c-.85-4.6-1.23-5.41-2.48-5.67l-.79-.16a1.82,1.82,0,0,1,0-1.34c1.2.11,2.22.16,3.53.16S54.31,1,55.16.9a1.47,1.47,0,0,1,.06,1.34l-.85.16c-.61.1-1,.42-1,1a19.29,19.29,0,0,0,.38,2.83Zm5.78,4.76c.24-1.23.21-1.29-.61-1.29H56.59c-.85,0-.91.22-.64,1.66l1.57,8.72c.24,1.28.5,2.73.67,3.37h.06c.09-.27.38-1.55.7-3.16Z"/><path class="cls-1" d="M102.61,37.91a6.3,6.3,0,0,1-4.55-2,43.54,43.54,0,0,1-.79-7.49c.15-.38.59-.48.7-.16.44,2.72,1.64,8,5,8,2.45,0,3.65-2.95,3.65-6.15a10.7,10.7,0,0,0-2.39-7.49l-2.77-3.32a14.21,14.21,0,0,1-3.16-9.2c0-5.08,2.16-9.2,6-9.2a6.56,6.56,0,0,1,2.71.7,2.43,2.43,0,0,0,1,.32,41.91,41.91,0,0,1,.53,6.52c-.12.33-.59.49-.73.17-.38-2.57-1.17-6-4-6S100.37,6,100.37,8.5a10,10,0,0,0,2.48,6.58l2.33,2.67A14.68,14.68,0,0,1,108.83,28C108.83,33.9,106.41,37.91,102.61,37.91Z"/><path class="cls-1" d="M150.27,29c0,5.61.06,6.41,1.75,6.68l.93.16a1.77,1.77,0,0,1,0,1.34c-1.67-.11-2.66-.16-3.83-.16s-2.19,0-4,.16a1.5,1.5,0,0,1,0-1.34l1-.16c1.66-.27,1.81-1.07,1.81-6.68V5.13c0-1.66,0-1.71-.88-1.71h-1.61c-1.25,0-2.85.1-3.58,1.33a12.61,12.61,0,0,0-1.32,3.69c-.23.33-.64.06-.76-.37.47-2.41.91-5.83,1.11-8,.09-.11.47-.16.56,0,.17,1.71,1.14,1.66,2.48,1.66H155.7c1.57,0,1.84-.11,2.27-1.5a.37.37,0,0,1,.53.16,58.5,58.5,0,0,0-.44,8.13.4.4,0,0,1-.76.11c-.08-1.34-.29-3.32-.73-3.91a3.91,3.91,0,0,0-3.38-1.33h-2.07c-.88,0-.85.05-.85,1.82Z"/><rect class="cls-2" width="159" height="38"/></g></svg>