<svg id="letter" xmlns="http://www.w3.org/2000/svg" viewBox="0 0 380.17 475.55"><defs><style>.cls-1,.cls-2,.cls-3,.cls-4{fill:none;}.cls-1{opacity:0.11;}.cls-2,.cls-3,.cls-4{stroke:#000;}.cls-2{stroke-width:0.5px;}.cls-3{stroke-width:0.4px;}.cls-4{stroke-width:0.44px;}.cls-5{fill:#fff;}</style></defs><title>アートボード 29</title><rect class="cls-1" width="380.17" height="475.55"/><path d="M38.61,53.82l.58-1.35c.31-.74.42-.74.5-.74S42.5,54.48,42.5,55c0,.36-.64.84-.93,1v6.13c0,.81,0,1.14-.45,1.18l-1.91.18c-.43,0-.43,0-.43-1.18H35.56V84.06c0,.52,0,.92-.38,1l-2,.22c-.43,0-.48-.11-.48-.85V52.76c.79.22,2.29.77,3,1.06Zm-3,.41v3.63h3.22V54.23Zm0,4.07V62h3.22V58.3Zm7.42,16c-.29,1.87-1.12,7.67-7.16,9.39l0-.14c1.79-1.36,3.79-4.08,4.36-9.25h-4L36,73.9h4.18c0-.48.14-1.91.14-4.08h-3.7l-.12-.44h6c.24-.95,1.07-5.76,1.12-6.09-.29,0-.31-.18-.31-.66V52.76a18,18,0,0,1,3,1.06h2.91l.71-1.57c.27-.55.39-.7.53-.7s2.88,3.05,2.88,3.6-.52.77-1,1V81.57c0,1.5,0,3.63-3,3.63-.74,0-.81-.22-.81-1.5a3.8,3.8,0,0,0-.93-3.12,7.62,7.62,0,0,0-.41,1.65c-.14,1-.19,1.43-.5,1.43s-1.26-1.28-1.43-1.54c-1.43-2.2-1.91-4.44-2.1-7.78ZM38,63.48c1.57.51,3.74,1.32,3.74,3.56,0,1-.57,2.23-1.74,2.23-.74,0-.84-.4-.91-1.5A11,11,0,0,0,38,63.55Zm5.46,10.86a7.31,7.31,0,0,0,5.1,4.59V79a3.81,3.81,0,0,0-.69.95c.14,0,.79.07.86.07.69,0,.69-.4.69-1.39V62.37H46.1c-.05.67-.28.67-.5.7l-1.55.19c1.34.84,1.48.88,2.58,1.54.21.11.33.22.33.36s-.38.3-.64.3a36.13,36.13,0,0,1-3.06,3.92H45.2l1-2.09c.17-.33.24-.44.31-.44s2.17,2.24,2.17,2.72c0,.22-.12.25-.24.25H43.24A34.84,34.84,0,0,1,43,73.9h2l1.12-2.31c.14-.33.24-.48.31-.48a13.9,13.9,0,0,1,2.31,3,.23.23,0,0,1-.26.26ZM46.1,54.23v3.63h3.27V54.23Zm0,4.07V62h3.27V58.3Z"/><path d="M69.66,61.94a11.34,11.34,0,0,1-.23,1.13c.45,0,4.22.44,4.22,3.82,0,2.24-1.29,2.49-1.79,2.49-.65,0-.72-.47-.84-1.21a9.54,9.54,0,0,0-1.67-4.69,11.61,11.61,0,0,1-3,5.68c.43.15,2.6,1,3.08,1.11h8.2l.79-1.69c.19-.41.21-.48.36-.48s2.93,2.9,2.93,3.45c0,.37-.1.44-1,.92v11.7c0,.77,0,1.07-.5,1.1l-1.82.19c-.52,0-.57,0-.57-.88V83.29H69.16v1.07c0,.73,0,.88-.45.91l-1.93.19c-.55,0-.55-.08-.55-.77V69.24a12.35,12.35,0,0,1-3.91,2.53l0-.07a15,15,0,0,0,4.63-9.76H62.44l-.12-.41H67c.26-2.57.26-5.17.26-5.39h-.57A20.73,20.73,0,0,1,63,61.49l0-.07c.42-1.17,1.26-3.48,2.07-10.24.57.19,3,1,3.48,1.25.12.07.27.11.27.29,0,.41-.27.44-.79.48a22.07,22.07,0,0,1-1.12,2.5H70l1.12-2.32c.08-.14.22-.44.34-.44a12.37,12.37,0,0,1,2.34,2.94c0,.26-.12.26-.24.26H70.16a36.16,36.16,0,0,1-.4,5.39h.81l1.22-2.42c.14-.29.26-.51.35-.51a12.17,12.17,0,0,1,2.32,3.08c0,.26-.12.26-.24.26Zm-.5,14.42h8.61V70.71H69.16Zm0,6.49h8.61v-6H69.16ZM80.35,55.44l.79-1.69c.28-.62.4-.62.45-.62a10.76,10.76,0,0,1,2.65,3.37c0,.22-.15.41-.82.7v9.87c0,.77,0,.88-.52.92l-1.84.18c-.54,0-.54,0-.54-.73V66.3H77.63v1.18c0,.77,0,.88-.45.91l-2,.19c-.33,0-.45,0-.45-.7V54.19a26,26,0,0,1,3,1.25Zm-2.72.44v10h2.89v-10Z"/><path d="M110.83,67.88l1.5-3.45c.09-.18.17-.44.29-.44a21,21,0,0,1,3,4.18c0,.26-.17.26-.31.26H93.46l-.12-.55Z"/><path d="M46.24,148.21c.24-.63.33-.82.53-.82s.29.19,1.36,1.77h5.63c.41-1.65.74-2.91,1-4.56-1.48.07-4.24.26-8.72.13l-.08-.25c5.26-1.46,13.9-4.69,17.44-8,.78.7,4.68,4,5.59,4.75.41.38.61.57.61.95,0,.63-.16.63-1.6.63-.2,0-3.17.63-3.78.76-1.85.25-3.09.44-3.79.51a34.52,34.52,0,0,1-1.76,5.06h6.9l2.1-4.43c.17-.32.41-.82.54-.82.33,0,3.94,5,3.94,5.56s-.28.45-.53.45H61.82A15.7,15.7,0,0,0,73.87,158v.13c-1,.7-1.93,1.65-2.34,6.33,0,.57-.13,1.26-.78,1.26-.5,0-2.6-1.26-4.65-3.92v5.88c0,1.27-.5,1.4-.91,1.46l-2.55.38c-.82.12-1.06,0-1.06-1.39v-1.52H57v1.64c0,1-.21,1.08-.66,1.14l-2.79.32c-.87.12-1,.12-1-1.2V159.6a33.36,33.36,0,0,1-3.74,3.92,6.59,6.59,0,0,1,1,3.67,6.09,6.09,0,0,1-1,3.54l4.77,1.71h12l1.57-3c.53-1,.66-1,.78-1,.37,0,4.32,5.38,4.32,6.26,0,.7-.17.83-1.73,1.84V190c0,2.72,0,6-4.85,6-1.11,0-1.2-.44-1.24-1.33-.12-3.35-.2-4.55-2.87-6.39V188c.94.13,3.08.32,3.41.32.94,0,1-.32,1-1.65V173.2H52.61v20.94c0,1.2-.21,1.39-.78,1.45l-3,.32c-.79.06-.79-.07-.79-1.46v-23a2.52,2.52,0,0,1-1.11.25c-1,0-1.15-.57-1.23-1.46-.37-5.56-.45-6.2-1.48-9.93v33.4c0,1,0,1.52-.7,1.59l-3,.31c-1,.13-1.07.07-1.07-1.2V173.13a38.37,38.37,0,0,1-5.92,10l-.13-.13c3.54-8.92,4.94-19.36,5.64-29.73H34.64l-.21-.7h4.94V137.26c.66.07,6,.89,6,1.52s-.78.76-1.19.89v12.9h.33Zm-2.06,5.06V159a14.2,14.2,0,0,1,4,3.55,54.66,54.66,0,0,0,5.35-12.59H48.62a18.08,18.08,0,0,1,1.77,2.91c0,.44-.25.44-.54.44ZM60.26,177l1.23-2c.25-.38.37-.57.5-.57.37,0,3.49,4.17,3.49,4.87,0,.44-.29.7-1.07,1.27v4.68c0,.82,0,1.33-.74,1.45l-2.22.32c-1.15.19-1.15-.32-1.15-2H58.2v3.35c0,1.14,0,1.33-1,1.52l-2.17.38c-.75.12-.91-.51-.91-1.14V175.41A21.46,21.46,0,0,1,58.16,177Zm1.07-19.23,1.4-2.4a37.26,37.26,0,0,1-1.61-5.44H58.37a46.27,46.27,0,0,1-3.75,6.89l2.51.95Zm-4.32.7v7.4h4.57v-7.4Zm1.19,19.29v6.58h2.1v-6.58Z"/><path d="M117.71,142.45l1.56-3.23c.58-1.13.66-1.13.78-1.13s4.94,5.18,4.94,6.51c0,.38,0,.7-1.61,1.52V192c0,1.39,0,1.45-.94,1.58l-3.33.38c-.62.06-.91,0-.91-1.2v-4.81H96v4.62c0,1.07,0,1.39-.83,1.45l-3.37.38c-1,.13-1-.25-1-1.2V140.3a28,28,0,0,1,5.84,2.15Zm-21.71.7v21.13h8.63V143.15ZM96,165v22.14h8.63V165Zm13.69-21.89v21.13h8.51V143.15Zm0,21.89v22.14h8.51V165Z"/><path d="M157.73,163.26c2.59.38,5.38.89,6.08,1.08a.57.57,0,0,1,.45.51c0,.38-.12.44-1.27,1v8.79h4.44l2.3-5.19c.21-.5.33-.76.5-.76.37,0,4.89,5.57,4.89,6.27,0,.44-.25.44-.49.44H163v16.57h8.92l2.51-5.5c.12-.25.33-.76.49-.76s4.77,5.82,4.77,6.58c0,.44-.24.44-.49.44H141.61l-.17-.76h16.29V175.35H146.17l-.21-.76h11.77Zm5.3-20.62A80.65,80.65,0,0,1,154.76,157l13.7-.25a35.76,35.76,0,0,0-4.61-7.4l.08-.19c2.51.57,12.14,2.59,12.14,11.19,0,3.74-2.27,5.45-3.38,5.45-.53,0-.78-.19-1.07-1s-1.85-5.18-2.71-7.15c-6.21,3.42-8.68,4.18-22.95,8.61-.2-1.33-1.39-7.59-1.64-9.05l8.92-.12c1.11-4.62,2.31-11.77,2.68-14.43H143.09l-.17-.76h27.76l2.55-4.55c.41-.7.41-.76.53-.76s4.69,4.87,4.69,5.63c0,.44-.29.44-.49.44Z"/><path d="M32,248.61c1.11-.51,4.52-2.08,5.73-8.51a15.54,15.54,0,0,0-4,1.26,2.76,2.76,0,0,1-.54.31,2.41,2.41,0,0,1-1.28-1.83,2.7,2.7,0,0,1,.28-1c.28,1,.72,1,1,1s4-.29,4.57-.72c.09-.07.44-.61.53-.61s1.25,1.13,1.25,1.63c0,.27-.18.43-.52.75-.64,2.61-2.13,7.29-7,7.83Zm2.5-12.85a3.66,3.66,0,0,0,2.6-.88c.26.08,1.21.54,1.21,1.09,0,.25-.17.68-.31.73s-3.21.45-3.47.45c-1,0-1.21-.83-1.5-1.92A1.76,1.76,0,0,0,34.47,235.76Z"/><path d="M46.13,244.21c0,1.25-.4,2.79-1.43,2.79-.6,0-.68-.81-.68-1,0-.49.18-.67.61-1.07a4.8,4.8,0,0,0,1.28-2.82A10.3,10.3,0,0,1,46.13,244.21Zm.32,1.31a4,4,0,0,0,.95.24c.24,0,.3-.21.33-.8s.09-3.23.09-5a7.88,7.88,0,0,0-2,.64,5.83,5.83,0,0,1-.58.23c-.41,0-1.06-.93-1.06-1.8a1.62,1.62,0,0,1,.17-.78,1.4,1.4,0,0,0,1.31.93,20.26,20.26,0,0,0,2.18-.27,17.13,17.13,0,0,0-.17-2.79.69.69,0,0,0-.73-.38c.21-.42.51-1,.94-1s1.16.56,1.16,1a5.59,5.59,0,0,1-.2.73c0,.26,0,1.78,0,2.25,1.2-.26,1.69-.4,1.95-1a3.06,3.06,0,0,1,1.41.76.7.7,0,0,1,.25.57c0,.19-.07.72-.42.72l-.7-.13a5.05,5.05,0,0,0-.9-.12,11.93,11.93,0,0,0-1.59.2c0,2.85,0,3.65.07,4.93,0,.24.07,1.32.07,1.54,0,1-.46,2.24-1,2.24-.26,0-.29-.19-.41-.85a3.15,3.15,0,0,0-1-2Zm6.13-.08c0,1.38-.73,1.41-.81,1.41-.46,0-.54-.56-.61-1.09a11.28,11.28,0,0,0-1.39-4.06C50.5,242.15,52.58,243.41,52.58,245.44Zm-.72-8.85c0,.48-.2.77-.43.77s-.25-.1-.53-.91a4.6,4.6,0,0,0-.86-1.68A1.88,1.88,0,0,1,51.86,236.59Zm1.26-1.15c0,.37-.13.74-.4.74s-.21-.07-.48-.68a6,6,0,0,0-1-1.5C51.88,234,53.12,234.3,53.12,235.44Z"/><path d="M56.38,248.39a15.87,15.87,0,0,0,4.39-6.69A6.8,6.8,0,0,0,58.21,239a6.88,6.88,0,0,1,3.08,1.06,17.26,17.26,0,0,0,.79-3.57.77.77,0,0,0-.6-.85c.14-.27.35-.69.84-.69.66,0,1.5,1.19,1.5,1.56,0,.16,0,.19-.29.54-.65,2.45-.87,3.11-1.16,4a3.44,3.44,0,0,1,1,2.33c0,1-.46,1.41-.81,1.41s-.42-.18-.57-.56c-.26-.7-.29-.78-.43-1.12a10.24,10.24,0,0,1-5.13,5.35Z"/><path d="M76.64,237.28a17.29,17.29,0,0,1-6.52,10,1.69,1.69,0,0,0-.48.48c0,.05-.14.18-.24.18-.35,0-1.37-1.59-1.37-2.59a1.56,1.56,0,0,1,.34-1c.12.44.24.94.63.94.72,0,4.41-1.81,7.6-8Zm-6.27-.75a2.07,2.07,0,0,1,.94,1.77c0,.77-.4,1.33-.78,1.33s-.4-.21-.72-1a7.57,7.57,0,0,0-1.6-2.48A3.88,3.88,0,0,1,70.37,236.53Z"/><path d="M84.09,236.62c.08.16.13.16.48.2s.5.2.5.7c0,.75-.55,1.15-1.73,1.79-.17,1.83-.22,2.23-.3,2.74.17-.29.87-1.6,1-1.84,1.27-2.07,2.22-2.26,2.82-2.26a1.81,1.81,0,0,1,1.94,1.79c0,.47-.22.92-.55.92a.28.28,0,0,1-.19-.07c-.42-.22-.52-.29-.71-.29-.39,0-.67.21-1.34.74V241a2.47,2.47,0,0,0,.65-1.22c0-.16-.08-.62-.76-.62-.83,0-2.11.88-3.11,4.77a27.47,27.47,0,0,0-.73,3.74c-.1.88-.61.93-.79.93-.45,0-.57-1.18-.57-1.57a2.28,2.28,0,0,1,.3-1.07,27.47,27.47,0,0,0,1.26-6.07,1.8,1.8,0,0,1-.74.19c-1.09,0-1.17-1.76-1.17-2.09a.89.89,0,0,0,.75.48,4.62,4.62,0,0,0,1.36-.5c.05-.57.15-1.65.15-2.17s0-.79-.5-.9a.92.92,0,0,1,.82-.67c.47,0,.84.68.84,1.1,0,.18-.14,1-.17,1.15,0,.4,0,.47-.09.87.39-.27.46-.35.51-.71Zm.65,8.41c0,.7.27,1.39,1.12,1.39a5.85,5.85,0,0,0,1.35-.21c.05,0,.69-.19.73-.19.41,0,.66.67.66,1.21,0,.92-.76,1.14-1.84,1.14-1.23,0-2.36-.14-2.36-2.37a7.52,7.52,0,0,1,.6-2.85A8.75,8.75,0,0,0,84.74,245Z"/><path d="M97.4,236.41a2,2,0,0,0,1,.28c.3,0,.68,0,.68.77a1,1,0,0,1-.68,1,14.65,14.65,0,0,1-2.42,1c-.21,1.38-.48,2.67-.79,4,1.18-1.48,1.91-1.7,2.41-1.7,1.09,0,2.39,1.2,2.39,3.7,0,2.35-1.35,3.5-5.58,3.34v-.06c4-.51,4.27-2.46,4.27-3.87,0-1.24-.45-2.47-1.29-2.47s-1.54,1.23-2.29,2.88c-.08.18-.38,1-.47,1.11a.73.73,0,0,1-.59.4c-.69,0-.69-1.62-.69-1.68a1.34,1.34,0,0,1,.32-.87A17,17,0,0,0,95,239.65a3.84,3.84,0,0,1-.55.06c-.32,0-1.12,0-1.12-1.52a5.41,5.41,0,0,1,.1-1.05c.23.88.4,1,1.13,1a2.4,2.4,0,0,0,.67-.08,21.64,21.64,0,0,0,.22-2.39c0-.57-.16-.64-.46-.72.11-.24.31-.65.67-.65a1.35,1.35,0,0,1,1.11,1.29c0,.2,0,.23-.18.58a7.09,7.09,0,0,0-.3,1.49c.13-.06,1.16-.58,1.16-1.06a.32.32,0,0,0,0-.16Z"/><path d="M106.28,245.59c.21.3.67.85,1,.85,1.34,0,1.77-4.41,1.77-6,0-.4,0-1.43-.58-1.43-.17,0-.42.18-1,.56a67.23,67.23,0,0,1-2.17,8.25c-.2.38-.4.57-.66.57s-.54-.65-.54-1.72c0-.26,0-.29.23-.55a11.28,11.28,0,0,0,1-2.26c.39-1.2.55-1.82.94-3.42a2.72,2.72,0,0,1-1.17.51c-.42,0-.77-.53-.77-1.15a3.92,3.92,0,0,1,.49-1.59c0,.68.05,1,.45,1a4.78,4.78,0,0,0,1.37-.28,27.67,27.67,0,0,0,.59-3.29c0-.38-.2-.46-.29-.46a.26.26,0,0,0-.13,0c0-.81.57-.86.78-.86a1.05,1.05,0,0,1,.95,1,3.82,3.82,0,0,1-.23.94c-.11.44-.27,1.08-.55,2.26a3,3,0,0,1,.66-.13c.25,0,1.71.15,1.71,3.4,0,2.16-.79,6.64-2.5,6.64a1,1,0,0,1-1-.91,7,7,0,0,0-.4-1.89Zm4.9-7.51c1.38,0,2,1.52,2,2.9,0,1.65-.72,1.84-.88,1.84-.5,0-.5-.77-.5-1,0-2.18-.13-3.44-1.42-3.63A3.2,3.2,0,0,1,111.18,238.08Z"/><path d="M118.23,248.72a5.75,5.75,0,0,0,2.87-1.23,4.06,4.06,0,0,0,1.25-3.15c0-1.36-.5-2.4-1.09-2.4-.74,0-1.56,2-2,3.26-.15.43-.33,1-.87,1-.14,0-.9-.08-.84-1.31,0-.1.14-3,.17-4a4.87,4.87,0,0,1,.69-2.77,2.33,2.33,0,0,1,1.85-1.41c.31,0,.49-.11.49-.51s-.33-.94-1-1.82c.18.06,1,.25,1.15.3a1.9,1.9,0,0,1,1.34,2.05c0,.18,0,1.2-.59,1.2-.21,0-.29-.1-.56-.42a1.24,1.24,0,0,0-1-.51c-.93,0-1.32,1.27-1.32,1.84,0,.16.07.83.07,1a13.77,13.77,0,0,1-.22,1.71,9.61,9.61,0,0,0-.12,1.49c0,.22,0,.54.2.54s.24-.12.36-.28c.57-.68,1.5-1.73,2.51-1.73,1.29,0,2.14,1.6,2.14,3.49a3.49,3.49,0,0,1-1.15,3,6.84,6.84,0,0,1-3.58.8,4.9,4.9,0,0,1-.74,0Z"/><path d="M130.68,241.89a28.57,28.57,0,0,0-.54,4.21,3.21,3.21,0,0,0,.22,1.18,2.38,2.38,0,0,1,.07.47.65.65,0,0,1-.63.69c-1.16,0-1.27-3.33-1.27-4.85a35.71,35.71,0,0,1,.61-6.17,12.72,12.72,0,0,0,.22-2,6.88,6.88,0,0,0-.06-.88,4.87,4.87,0,0,1,1.14,2.74,5.31,5.31,0,0,1-.26,1.41,18.34,18.34,0,0,0-.68,5c0,.56.08.64.18.64s.13-.06.24-.36l.72-2Zm4.62-4.48a1.4,1.4,0,0,0,.8.29c.23,0,.4.22.4.56,0,1.05-1.39,1.58-1.7,1.69.07,2.4.17,3.54.24,4.26a2.69,2.69,0,0,1,1.78,2.35c0,.53-.27.9-.56.9s-.29-.11-.67-.67a3.38,3.38,0,0,0-.5-.64c.09,2-1.16,2.11-1.55,2.11-.21,0-1.72-.11-1.94-1.3,0-.19-.22-1.25-.22-1.49,0-1.63,1.66-1.63,2.13-1.63.25,0,.38,0,.53,0,0-1.4-.08-2.48-.1-3.66a3.73,3.73,0,0,1-.5,0c-1.07,0-1.42-1.14-1.69-2a1.47,1.47,0,0,0,1.2.62,2.93,2.93,0,0,0,1-.22c0-.42,0-2.64-.06-2.82a.54.54,0,0,0-.46-.42c.14-.38.37-.7.7-.7a1.26,1.26,0,0,1,1,1.12c0,.13-.07.66-.09.8a11.94,11.94,0,0,0-.18,1.57c.31-.21.51-.35.51-.56a.32.32,0,0,0,0-.14Zm-2.22,7.84c-.21,0-1.06,0-1.06.66s.41.72.77.72c.9,0,1.26-.34,1.25-1.25A4.55,4.55,0,0,0,133.08,245.25Z"/><path d="M141.14,244.72a3.47,3.47,0,0,1,2.29.85,2.38,2.38,0,0,1,.65,1.66c0,.74-.3,1.25-.76,1.25s-.72-.65-.76-.84a4.68,4.68,0,0,0-1.49-2.79Z"/><path d="M150.69,234.43A3.31,3.31,0,0,0,149.6,237a.62.62,0,0,0,0,.19c.09-.38.3-.66.63-.66s.72.45.72,1.12-.29,1.19-.73,1.19c-.23,0-.88-.19-.88-1.62,0-1.1.37-2.5,1.27-3Zm2.51,0a3.31,3.31,0,0,0-1.09,2.58.68.68,0,0,0,0,.19c.09-.34.24-.66.61-.66s.74.45.74,1.12-.29,1.19-.74,1.19c-.24,0-.87-.19-.87-1.62a3.51,3.51,0,0,1,1.26-3Z"/><path d="M157.24,248.55a13.48,13.48,0,0,0,4.49-5.6,5.94,5.94,0,0,0-1.72-2,4.28,4.28,0,0,1,2.24.61,20.48,20.48,0,0,0,.87-3.44l-2.15.54a10.21,10.21,0,0,1-3.48,4.2l0-.05a18.4,18.4,0,0,0,2.91-6.79c0-.45-.29-.51-.55-.57a.91.91,0,0,1,.85-.61c.45,0,1.4.65,1.4,1.15,0,.16,0,.21-.26.62,0,.1-.32.81-.4,1a4.6,4.6,0,0,0,1.76-.38c.09-.08.43-.48.51-.48a3.22,3.22,0,0,1,1.24,1.65c0,.21-.05.24-.55.62a29.2,29.2,0,0,1-1,3.43,2.23,2.23,0,0,1,.59,1.52c0,.27-.06,1.15-.67,1.15-.31,0-.38-.14-.76-.88a9,9,0,0,1-5.24,4.32Zm8.34-11.9c0,.45-.19.73-.41.73s-.24-.08-.39-.45a4.73,4.73,0,0,0-1.37-1.76C164.5,235.09,165.58,235.52,165.58,236.65Zm.9-1.45c0,.38-.16.74-.4.74s-.19-.08-.53-.73a3.73,3.73,0,0,0-1.22-1.26C165,233.92,166.48,233.84,166.48,235.2Z"/><path d="M169.5,247.73a13.84,13.84,0,0,0,2.5-7.86c0-.3,0-1-.74-.94.43-.58.61-.8.92-.8a1.67,1.67,0,0,1,1.27,1.18,1.1,1.1,0,0,1-.13.45c-.3,3.67-1.23,6-3.82,8Zm10.29-10.23a16,16,0,0,1-3.62,7.75,3,3,0,0,0-.67,1c-.1.29-.14.42-.32.42s-1-1.7-1-2c0-.13.11-.69.13-.8.08-.56.08-2,.08-2.57s0-3.33-.09-3.75c-.16-.72-.5-.72-.69-.72.42-.59.56-.82.86-.82.6,0,1.28,1,1.28,1.33,0,.11-.19.56-.21.67-.12.44-.11,5.45-.1,5.49a15.93,15.93,0,0,0,4.36-6Z"/><path d="M183.87,238.62a3.31,3.31,0,0,0,1.09-2.57.72.72,0,0,0,0-.19c-.09.33-.26.65-.62.65s-.74-.45-.74-1.12.3-1.18.74-1.18c.24,0,.88.19.88,1.61a3.45,3.45,0,0,1-1.26,3Zm2.5,0a3.33,3.33,0,0,0,1.1-2.57.76.76,0,0,0,0-.19c-.1.33-.28.65-.63.65s-.73-.45-.73-1.12.29-1.18.74-1.18c.23,0,.87.19.87,1.61a3.49,3.49,0,0,1-1.26,3Z"/><path d="M193.87,234.4a1.34,1.34,0,0,1,1.19,1.44c0,.13-.09,1-.11,1.22,0,.43-.1,1.24-.1,2s0,1.42.53,1.42c.66,0,1.28-1.06,1.45-1.71.08-.31.11-.47.34-.47.49,0,1.11,1,1.11,1.51s-.13.73-1.47,1.3a9.12,9.12,0,0,0-2.57,1.24A3.62,3.62,0,0,0,193,245a1.46,1.46,0,0,0,1.68,1.54,5.05,5.05,0,0,0,1.94-.42,5.63,5.63,0,0,1,.59-.24,1.75,1.75,0,0,1,1.19,1.35c0,.62-.36.77-.48.81a6.59,6.59,0,0,1-2.37.24c-1.8,0-2.25-.25-2.61-.57a2.78,2.78,0,0,1-.77-2,5.29,5.29,0,0,1,2.14-4.1c-.31-.19-.58-.35-.58-1.71,0-.34,0-1.78,0-2.08,0-1.38,0-2.52-.58-2.52a.56.56,0,0,0-.34.15A1.12,1.12,0,0,1,193.87,234.4Z"/><path d="M210.64,242.43l.63-1.24c.07-.12.12-.23.15-.23a7.28,7.28,0,0,1,1.08,1.55c0,.1,0,.12-.07.12h-2.76v4.46c0,1,0,1.94-1.53,1.94-.18,0-.3,0-.3-.39,0-.89,0-1.42-1.08-2v-.05l1.4.09c.19,0,.19-.14.19-.49v-3.6h-2.09v1.92c0,.33,0,.4-.22.41l-.74.08c-.26,0-.26,0-.26-.27v-1h-.7V246c0,.31,0,.42-.19.44l-.83.09c-.21,0-.21-.14-.21-.38V235.5a10.53,10.53,0,0,1,1.32.55H205l.36-.79c.06-.14.12-.24.18-.24a6.44,6.44,0,0,1,1.19,1.46,17.08,17.08,0,0,0,3.7-2.35L212,236a.39.39,0,0,1,.13.27c0,.08,0,.11-.11.11l-.26-.06-2.09.22v5.86Zm-6.3-6.19v7.39h.7v-7.39Zm4,6.19V236.7a13.26,13.26,0,0,1-1.82.08,3.08,3.08,0,0,1-.27.24v5.41Zm-2-4.61a2.94,2.94,0,0,1,1.75,2.55c0,1.2-.73,1.28-.85,1.28-.42,0-.42-.32-.44-1a9.23,9.23,0,0,0-.48-2.83Zm3.52,4.12a30.08,30.08,0,0,0,.6-4.5l1.45.72c.13.06.22.1.22.19s-.06.08-.31.15a10.28,10.28,0,0,1-1.93,3.48Z"/><path d="M219,241.63a28.72,28.72,0,0,0-.67,4.31,3.2,3.2,0,0,0,.14,1,3.57,3.57,0,0,1,.16,1c0,.6-.36.75-.59.75-1,0-1.27-2.8-1.27-4.82a37.1,37.1,0,0,1,.64-6.35,9.85,9.85,0,0,0,.15-1.7,6.19,6.19,0,0,0-.08-1.11c.89.61,1.14,2.37,1.14,2.76a4.32,4.32,0,0,1-.29,1.45,14.9,14.9,0,0,0-.64,4.2c0,.41,0,1.28.15,1.28s.14-.11.21-.27.62-1.65.93-2.47Zm4.87-4.06a1.22,1.22,0,0,0,.63.49.63.63,0,0,1,.4.63,1.2,1.2,0,0,1-.4.93c-.2.12-.26.14-1.47.4,0,.48.09,2.83.15,4.24.74.32,1.92,1.26,1.92,2.24,0,.5-.25,1.06-.59,1.06-.15,0-.28-.12-.49-.41s-.63-.79-.74-.89c0,.75-.06,2.06-1.59,2.06-.86,0-1.82-.48-1.9-1.29a4.38,4.38,0,0,0-.19-1.06,1.49,1.49,0,0,1,0-.37,2.09,2.09,0,0,1,.34-1,2.19,2.19,0,0,1,1.68-.69,2.88,2.88,0,0,1,.64.08c-.05-.59-.07-3.2-.08-3.74a2.57,2.57,0,0,1-.64.08c-.72,0-.93-.19-1.23-.91-.05-.13-.27-.8-.31-.93a1.44,1.44,0,0,0,1.11.35,4.9,4.9,0,0,0,1-.14c0-.88,0-2.39-.06-2.63s-.13-.51-.4-.51a.43.43,0,0,0-.21,0c.13-.31.34-.76.81-.76a1,1,0,0,1,1,1.09c0,.16-.08.88-.09,1,0,.36,0,.84-.08,1.43.25-.1.82-.32.82-.64a.49.49,0,0,0,0-.15Zm-2.71,7.81c-.82,0-1,.29-1,.7,0,.68.82.68,1,.68,1.07,0,1.07-.82,1.07-1.24A5.34,5.34,0,0,0,221.2,245.38Zm3.94-8.82c0,.42-.17.75-.44.75s-.34-.19-.55-1a2.58,2.58,0,0,0-.85-1.41A1.67,1.67,0,0,1,225.14,236.56Zm1-1.41c0,.3-.12.75-.45.75-.17,0-.19-.06-.42-.67a2.94,2.94,0,0,0-1-1.34C226.14,233.73,226.14,235,226.14,235.15Z"/><path d="M239.17,244.23c-.51,2.41-1.07,3.05-2.07,3.05s-1.52-.64-1.52-2c0-.84.29-4.44.29-5.19,0-.93-.15-1.47-.6-1.47s-1.37.77-2.52,2.69c0,1.89,0,3.87.18,5.74,0,.18.11.93.11,1.09,0,.53-.32.72-.49.72s-.79-.43-.79-1.25c0-.19,0-1,0-1.15a13.93,13.93,0,0,0-.18-2.13c-.21.75-.5,1.75-.63,2.24s-.25.67-.47.67c-.62,0-.62-.89-.62-1.2a1.51,1.51,0,0,1,.32-1,19.47,19.47,0,0,0,1-2.3c-.07-.27-.41-1.42-.47-1.66a3.57,3.57,0,0,1-.14-1.05c0-.72,0-1.37,1.52-2.49,0-1.41,0-2.71-.66-2.64.37-.4.54-.58.81-.58s.94.22.94,1.55a10.55,10.55,0,0,1-.16,1.51,1,1,0,0,1,.53.93c0,.17,0,.22-.25.75-.29.69-.34.86-.58,1.52a2,2,0,0,1,0,.3c0-.05,1.77-3.21,3-3.21.65,0,1.37.91,1.37,2.28a20.32,20.32,0,0,1-.22,2.57,18.83,18.83,0,0,0-.17,2.14c0,.53,0,1.07.74,1.07,1,0,1.5-1.13,1.64-1.47Zm-7-5a2.75,2.75,0,0,0-.74.61,1.21,1.21,0,0,0-.36.95,9.94,9.94,0,0,0,.25,1.71,10.89,10.89,0,0,0,.85-2.63Zm-.44,4.85c0,.15.11.53.13.66s.06.34.12.34.11-.36.12-.48,0-1.6,0-1.89Z"/><path d="M247.42,240.58c2.09,0,2.64,2.45,2.64,3.93,0,2.69-1.34,4-3.11,4a2,2,0,0,1-2.11-2.07c0-.86.44-1.78,1.31-1.78.7,0,1.16.6,1.16,1.44a1.3,1.3,0,0,1-.14.68c.47-.11,1.65-.4,1.65-3,0-.9-.17-2.68-1.6-2.68-.88,0-1.63.71-2.43,2.95a11.87,11.87,0,0,0-.49,1.87c-.05.24-.14.64-.54.64-.6,0-.69-1-.69-1.57s.08-.73.69-1.74c.16-.27,2.52-4.44,3.52-6.48a.92.92,0,0,0,.09-.36c0-.06,0-.13-.07-.13a3.09,3.09,0,0,0-.65.68c-.49.64-.65.75-1,.75-.72,0-1.08-1.12-1.14-1.7a.87.87,0,0,0,.55.27c.46,0,1.44-.86,1.93-1.28s.52-.44.68-.44,1.22.24,1.22,1.6c0,.48-.11.59-.48,1a19.1,19.1,0,0,0-2.06,3.65A2.2,2.2,0,0,1,247.42,240.58Zm-1,5.65c0-.26-.12-.6-.43-.6s-.36.34-.36.48a.58.58,0,0,0,.56.58A.54.54,0,0,0,246.38,246.23Z"/><path d="M262.19,243.12l.54-1.09c.1-.17.11-.19.14-.19a7.15,7.15,0,0,1,1,1.36c0,.11-.07.11-.14.11h-2.39c.24.1,1.08.45,1.08.56s-.07.12-.35.18a10.46,10.46,0,0,1-.7,1.73c.52.17,1.93.67,1.93,2.05,0,.72-.37,1.18-.63,1.18s-.17-.06-.35-.33a8.71,8.71,0,0,0-1.61-1.83,6.47,6.47,0,0,1-4.73,2.24V249a8,8,0,0,0,3.72-2.89,8.56,8.56,0,0,0-1-.5,2.8,2.8,0,0,1-.46.87l-.17-.05-.67-.28c-.14,0-.23-.09-.23-.24a1,1,0,0,1,.08-.28c.59-1.43.75-1.81.94-2.36H256.4l0-.19h1.92c.18-.53.34-1.09.5-1.63H257l-.05-.19h2.18v-1.84h-2.35c-.13.83-.87,5-.87,5.25s0,.24.28.8a3.44,3.44,0,0,1,.33,1.42c0,.5-.19,1.52-.92,1.52-.37,0-.47-.25-.49-.62a12.8,12.8,0,0,0-.79-4.52v0c.19.16.5.43.72.64l2-6.9,0,0c0,.38-.09.78-.3,2.22h2.32v-1.64h-1.92l-.06-.18h2v-1.31h-2.63l-.05-.19h2.68v-1.78a13.76,13.76,0,0,1,1.47.17c.05,0,.13,0,.13.13s0,.11-.34.26v1.22h1.7l.59-1.19c.09-.18.1-.19.14-.19a7.2,7.2,0,0,1,1.12,1.46c0,.11-.06.11-.12.11h-3.43v1.31h1.07l.34-.66c.1-.21.12-.22.15-.22a8.7,8.7,0,0,1,1.13,1.26c0,.13-.2.28-.35.39v1h.09l.35-.92c0-.1.07-.2.11-.2a4.72,4.72,0,0,1,.75,1.2c0,.12-.05.12-.1.12h-1.2v2c0,.27,0,.3-.26.33l-.77.1c-.21,0-.21,0-.21-.43h-2.14c.87.3,1,.33,1,.43s0,.1-.35.19c-.18.63-.25.82-.32,1Zm-7.87-7.92a2.64,2.64,0,0,1,2.07,2.51c0,1.25-.72,1.44-.95,1.44s-.25-.05-.29-.67a8.24,8.24,0,0,0-.86-3.23Zm5.25,8.11c-.24.69-.46,1.28-.76,2.09a12.26,12.26,0,0,1,1.3.07,10.3,10.3,0,0,0,.82-2.16Zm1.89-4.05v-1.64h-1.1v1.64Zm0,2v-1.84h-1.1v1.84Z"/><path d="M270.78,249.08a14.35,14.35,0,0,0,1.74-4.39.54.54,0,0,1-.42.19c-.21,0-.38-.14-.38-.49,0-.13.07-.77.09-.92a4.23,4.23,0,0,0,0-.62,7.23,7.23,0,0,1-.76,1.09v3.49c0,.7,0,1.6-1.15,1.6-.23,0-.33-.13-.33-.37,0,0,0-.35,0-.43a1.36,1.36,0,0,0-.83-1.33,7.28,7.28,0,0,1-1.12,2v0a22.19,22.19,0,0,0,.62-6.39v-7.73a8.34,8.34,0,0,1,1.21.45h.4l.41-.82c0-.09.08-.16.14-.16s1.05,1,1.05,1.25-.21.37-.42.48v2c0-.1.06-.13.28-.37a3.6,3.6,0,0,0,.73-2.13l0,0a7.19,7.19,0,0,1,.26,1.22h1.28v-2.51c1,.09,1.41.16,1.43.16s.17,0,.17.16-.28.22-.33.24v1.95h.93l.36-.74c.05-.11.09-.19.16-.19s.11.05.38.43a5.76,5.76,0,0,1,.72,1.22c0,.24-.1.26-.18.26s-.25,0-.36.11a9.16,9.16,0,0,1-1.35,1.1h0a14,14,0,0,0,.34-2h-3.49c0,.11,0,.32,0,.55s0,.49,0,.62c.86.3,1,.35,1.16.43s.16.1.16.16-.19.18-.3.19c-.12.42-.17.55-.54,1.7H273l.37-.69c0-.06.09-.16.15-.16s.11.07.64.72V239.1a8.57,8.57,0,0,1,1.13.44h.43l.31-.6c.09-.19.13-.25.18-.25a.13.13,0,0,1,.09.05s.53.59.63.7c.35.37.39.42.39.58s-.32.38-.41.44v4c0,.77-.17,1.23-1,1.23-.2,0-.34-.08-.34-.33,0-.08,0-.35,0-.42a1.22,1.22,0,0,0-.3-.91v2.26c0,.53,0,.65.39.65s.58,0,.82-.33a11.16,11.16,0,0,0,.84-2h0c0,.21-.22,1.94-.22,2.07s0,.1.1.21a.92.92,0,0,1,.2.64c0,1.12-.38,1.12-1.95,1.12-1.07,0-1.34-.07-1.34-1.38v-6c-.52,5.62-2.73,7.27-3.38,7.75Zm-1.36-6.5a14,14,0,0,1-.63,4.27c.14,0,.74.07.87.07s.27-.08.27-.58v-3.76Zm.51-3.83v-3.34h-.51v3.34Zm0,3.64v-3.45h-.51v3.45Zm1.13,1.26a30.88,30.88,0,0,0,1-4.51.48.48,0,0,1-.42.2c-.26,0-.44-.17-.55-.52Zm1.72-2.9c-.12.32-.35.93-.6,1.44a1.42,1.42,0,0,1,.65.79c.13-.93.17-1.49.21-2.23Zm2.53-1v4.18c.4,0,.45,0,.45-.48v-3.7Z"/><path d="M285.93,248.15c.95-.42,3.39-1.47,3.39-6.45,0-2.31-.68-5.7-3.06-5.68a4.18,4.18,0,0,1,.51,1.87c0,1.61-1.14,9.25-3.31,9.25-.71,0-.82-.67-.95-1.47A5.86,5.86,0,0,0,282,244a4.09,4.09,0,0,1-.41-1.84c0-3.78,2.48-6.72,4.93-6.72,2.2,0,4.16,2.34,4.16,6.66,0,2.86-1,4.61-2.06,5.26a5.74,5.74,0,0,1-2.71.85Zm-3.34-4.92a3.57,3.57,0,0,0,.16,1.3c.13.35.39.7.6.7.82,0,2.77-5,2.8-9.18C283,236.72,282.59,242,282.59,243.23Z"/><path d="M294.59,245a15.85,15.85,0,0,0,2.74-5.52.61.61,0,0,0-.5-.64c.28-.35.4-.48.65-.48.67,0,1.66.9,1.66,1.38,0,.19-.09.28-.32.48a9.8,9.8,0,0,1-4.23,4.85Zm8.49-4.67a4.19,4.19,0,0,1,.9,2.46c0,.82-.42,1.6-.9,1.6s-.48-.43-.59-.94a10.79,10.79,0,0,0-2.61-5.27A7.5,7.5,0,0,1,303.08,240.37Z"/><path d="M310,241.9c0,.65-.31.95-.59.95s-.39-.21-.58-1a4.78,4.78,0,0,0-.87-2A2.1,2.1,0,0,1,310,241.9Zm-1.67,6.54c2.82-1.3,3.84-3.83,4.47-6a16,16,0,0,0,.55-2.55c0-.43-.24-.46-.56-.5.1-.17.32-.54.63-.54a1.77,1.77,0,0,1,1.32,1.33.72.72,0,0,1-.24.46c-.87,3.33-1.89,7.19-6.17,7.81Zm3.65-7.53c0,.58-.3,1.06-.65,1.06s-.37-.21-.5-1a6,6,0,0,0-.9-2.35A2.5,2.5,0,0,1,312,240.91Z"/><path d="M322.33,245.25a3.43,3.43,0,0,0,1.52.56c.48,0,.7-.49.91-1.57a32.15,32.15,0,0,0,.51-4.91,15.9,15.9,0,0,0-2.1.4c-.75,5.1-2,6.75-4.42,8.34v0c1.34-1.6,2.59-3.54,3.19-8-.46.11-.61.14-.75.27-.41.35-.46.4-.6.4-.36,0-1.09-.95-1.09-1.75a1.48,1.48,0,0,1,.31-.84c.11.38.26,1,.9,1a8.79,8.79,0,0,0,1.35-.12c.13-1.2.16-2.22.16-2.48,0-.41,0-.65-.79-.72.31-.59.66-.91,1.06-.91s1.15.64,1.15,1.06a1.61,1.61,0,0,1-.15.57c-.05.9-.11,1.54-.2,2.31,1.74-.23,1.84-.32,2.13-.61s.28-.29.35-.29a3.25,3.25,0,0,1,1.15,1.44c0,.16,0,.23-.39.82-.27,2.51-.61,5.55-1.25,7a1.6,1.6,0,0,1-1.45,1c-.27,0-.28-.14-.34-.76a2.85,2.85,0,0,0-1.16-2.1Z"/><path d="M332.72,241c.44,0,5.26-.18,5.66-.21.13,0,.67-.09.78-.09s1.26.19,1.26.86a.88.88,0,0,1-.49.74,2.67,2.67,0,0,1-1.18.17c-4.77,0-5.3,0-5.73.16a5.32,5.32,0,0,1-.77.36,2.37,2.37,0,0,1-1.19-2.12,1.36,1.36,0,0,1,.3-.89A1.21,1.21,0,0,0,332.72,241Z"/><path d="M347.82,246.05c0,1.33-.69,2.43-1.58,2.43s-1.58-1.1-1.58-2.43.72-2.43,1.58-2.43S347.82,244.69,347.82,246.05Zm-2.74,0c0,1,.52,1.79,1.16,1.79s1.17-.81,1.17-1.79-.52-1.79-1.17-1.79S345.08,245,345.08,246.05Z"/><path d="M34.87,263.82l.44-1c.06-.11.11-.25.16-.25a5.19,5.19,0,0,1,.85,1.34c0,.13-.07.13-.13.13H34.71v1.68a3.12,3.12,0,0,1,1.48,2.42c0,.72-.3,1.2-.71,1.2s-.37-.13-.38-.53a10.15,10.15,0,0,0-.39-2.93v7.75c0,.27,0,.33-.22.35l-.77.08c-.23,0-.26,0-.26-.35v-5.53a9.55,9.55,0,0,1-1.86,2.71v-.05a28.18,28.18,0,0,0,1.72-6.8H31.65l0-.19h1.86v-2.36a15,15,0,0,1-1.61.08v-.06a15.16,15.16,0,0,0,3-2.29c.23.22,1.29,1.26,1.46,1.46s.18.22.18.32a.08.08,0,0,1-.09.08.59.59,0,0,1-.25-.07c-.56.15-.64.16-1.46.32v2.52Zm6.9,8.24a1.83,1.83,0,0,0-.94,1.5c0,.18-.12.26-.22.26-.3,0-.89-.91-1.28-2.19a21.65,21.65,0,0,1-.5-5.35c-.15,2.34-.36,6.05-4,7.65v-.06c2.64-2.61,2.71-5.54,2.71-10.1v-4.63c.19,0,1.64.18,1.64.37s0,.11-.35.19v4.82c0,.91,0,1.2,0,1.76a24.58,24.58,0,0,0,.91-4.3,11.38,11.38,0,0,1,1.67,1.28c0,.12-.23.12-.31.12a21.81,21.81,0,0,1-2.24,3.11A6.89,6.89,0,0,0,41.77,272Zm-5-9.48a10.14,10.14,0,0,1,.45,2.82c0,1.09-.32,1.87-.79,1.87s-.74-.59-.74-1.13a.7.7,0,0,1,.19-.53,5.43,5.43,0,0,0,.87-3Z"/><path d="M45.35,269.31l-.05-.2h4.21v-1.72H48.28V268c0,.22,0,.29-.21.3l-.82.1c-.2,0-.2-.05-.2-.32v-4H45.29l-.06-.2h1.82v-1.44c.51.08,1.17.18,1.46.26.06,0,.11.05.11.1s-.11.14-.34.22v.86h1.11v-1.71c.45.05,1.12.16,1.32.21s.17.05.17.13-.19.19-.29.22v1.15h1.18v-1.6c1,.1,1.52.16,1.52.34s-.26.19-.32.21v1.05h.32l.5-.94c.05-.11.1-.19.14-.19a4.6,4.6,0,0,1,.9,1.21c0,.12,0,.12-.12.12H53v2c0,.22,0,.33-.19.35l-.8.08c-.2,0-.21,0-.21-.27v-.33H50.59v.33c0,.25,0,.36-.16.38l-.85.1c-.19,0-.19,0-.19-.36v-2.25H48.28v3.13H52.8l.49-1c.07-.16.1-.19.13-.19a5.63,5.63,0,0,1,.95,1.25c0,.13,0,.13-.1.13H50.72v1.72h2.34l.55-1.12c.06-.11.09-.2.13-.2a5.34,5.34,0,0,1,1,1.4c0,.12-.06.12-.11.12h-3.9a5.44,5.44,0,0,0,3.89,2.27l0,.05a2.26,2.26,0,0,0-.57,1.42c0,.43-.1.55-.22.55a4.15,4.15,0,0,1-1.42-.84,7.48,7.48,0,0,1-1.73-3.45h0v4.29c0,.24,0,.33-.22.36l-.74.1c-.24,0-.25,0-.25-.4v-3.43a8.77,8.77,0,0,1-4.15,3.41l0,0a14.11,14.11,0,0,0,3-4.29Zm5.42-8.39v-1.76a3.52,3.52,0,0,1,1.59.38c0,.08-.12.16-.32.24v1.14h1l.52-1.09c.05-.1.09-.21.13-.21a5.2,5.2,0,0,1,1,1.36c0,.1,0,.12-.1.12H52v.72c0,.22,0,.36-.21.38l-.83.08c-.16,0-.23,0-.23-.35v-.83H49.24v.8c0,.19,0,.33-.21.35l-.85.09c-.16,0-.21,0-.21-.32v-.92H45.45l-.05-.18H48v-1.71c.16,0,1.58.14,1.58.33s-.07.15-.31.24v1.14Zm-.18,3.14v1.61h1.18v-1.61Z"/><path d="M65,267.58v4.53c0,.7,0,1.07-.25,1.39a2.21,2.21,0,0,1-1.24.51c-.23,0-.26-.14-.26-.33,0-1-.07-1.53-1.08-2v0c.2,0,1.11.09,1.3.09s.29-.11.29-.58v-3.61h-.9c0,.46,0,.61-.25.64l-.71.09c-.27,0-.27,0-.27-.28v-5.8c.47.19,1.24.59,1.31.63h.24c.06-.53.15-1.46.18-2H60.89V265c0,3.88-.41,6.93-2.41,8.87l0,0c1-2,1.14-4.66,1.14-7.66V260c.46.17,1.1.48,1.38.62H66.3l.58-1.26c.05-.13.09-.21.13-.21a8.3,8.3,0,0,1,1.2,1.53c0,.13-.06.13-.12.13h-3a16.06,16.06,0,0,1-1.24,2h1.91l.36-.8c.12-.29.15-.33.19-.33a6,6,0,0,1,1.29,1.57c0,.08-.07.15-.13.21s-.31.23-.36.27v4c0,.32,0,.44-.28.47l-.77.09c-.18,0-.22,0-.22-.22v-.51Zm-5.37,5.76a15,15,0,0,0,2.51-4.66,10.79,10.79,0,0,1,1.35,1.19s0,.08-.1.08a1.08,1.08,0,0,1-.27-.07,8.14,8.14,0,0,1-3.48,3.51Zm3.24-10.29v2.06h3v-2.06Zm3,4.34V265.3h-3v2.09ZM65.36,269c1,.23,2.63.74,2.63,2.6,0,.86-.42,1.33-.78,1.33-.21,0-.25-.15-.3-.34a9.39,9.39,0,0,0-1.56-3.55Z"/><path d="M72.27,262.23l0-.19h4.14v-3c.14,0,1.3.2,1.48.24s.18,0,.18.11-.15.19-.33.3V262h2.22l.64-1.43c0-.11.08-.19.12-.19a11,11,0,0,1,1.22,1.7c0,.11-.07.11-.14.11H79.29c.42.21,1,.5,1,.51a.17.17,0,0,1,.08.15c0,.19-.23.21-.35.21a20.64,20.64,0,0,1-2.16,6.56,7.15,7.15,0,0,0,4.25,1.81v0c-.56.42-.6.8-.69,1.63,0,.34-.11.66-.36.66A6.8,6.8,0,0,1,77,271a8.53,8.53,0,0,1-4.76,3l0-.05a11,11,0,0,0,4.09-4.05c-1.22-2.27-1.54-5.54-1.62-7.65Zm2.54,0c.23,1.71.79,4.58,2.17,6.4a20.19,20.19,0,0,0,1.71-6.4Z"/><path d="M88.44,273.48c0,.34,0,.42-.24.44l-.86.08c-.23,0-.25-.05-.25-.4v-7.67a9.17,9.17,0,0,1-1.52,2.22v0a41.64,41.64,0,0,0,2.21-9l1.62.73c.07,0,.11.07.11.15s0,.13-.3.14c-.18.63-.44,1.57-1,3.17.52.13.57.15.57.27s-.16.2-.32.28ZM91.78,271c0,.4,0,.55.13.63a5.45,5.45,0,0,0,1.17.09c.94,0,1-.09,1.23-.58a24,24,0,0,0,.81-2.78c-.05.77-.18,2.22-.18,2.62,0,.24,0,.26.23.5a1,1,0,0,1,.27.75c0,1.48-1.22,1.48-2.65,1.48-2,0-2.34-.24-2.34-1.94v-12.6c.42.05,1.12.15,1.5.24.06,0,.15.08.15.16s-.21.21-.32.24v6a21.6,21.6,0,0,0,1.91-4.32A17.75,17.75,0,0,1,95,262.7c.21.19.23.2.23.3s0,.11-.31.13a11.1,11.1,0,0,1-3.16,3Z"/><path d="M102,266.55c-.07.31-.34,1.65-.37,1.86a12.71,12.71,0,0,0-.21,2,5,5,0,0,0,.15,1.3,3.57,3.57,0,0,1,.17.9c0,.33-.29.81-.57.81-.66,0-1.17-1.9-1.17-4.58a53.44,53.44,0,0,1,.5-6.08,16.3,16.3,0,0,0,.09-1.73,4.3,4.3,0,0,0-.23-1.5,5.67,5.67,0,0,1,1.27,3.42,20.11,20.11,0,0,1-.5,3.37,12.41,12.41,0,0,0-.24,2.4c0,.43,0,.56.09.56s.2-.42.27-.61l.71-2.18Zm1.81,2.79c0,1.53.84,1.53,1.14,1.53a5.78,5.78,0,0,0,1.84-.4,2.37,2.37,0,0,1,.75-.19c.28,0,.66.16.66.88a1.37,1.37,0,0,1-.51,1.17,3.41,3.41,0,0,1-2,.58,1.8,1.8,0,0,1-1.78-.91,3.5,3.5,0,0,1-.48-1.75,4.1,4.1,0,0,1,.44-1.79A4.87,4.87,0,0,0,103.77,269.34Zm1.07-7.83a2.43,2.43,0,0,0,1-.32c.82-.48.85-.5,1-.5a1,1,0,0,1,.83,1c0,1.17-1.64,1.32-2,1.32s-1.16,0-1.54-2.05C104.29,261.29,104.5,261.51,104.84,261.51Z"/><path d="M118.06,268.84c.34,1.3.49,1.81.87,2.08s.57.4.57.82a2,2,0,0,1-.48,1.2,3.44,3.44,0,0,1-2.39.75c-1,0-2.42-.19-2.42-3.42,0,0,0-.56,0-1.64-.55-.09-1.82-.38-1.82-1.61a3.78,3.78,0,0,1,1.12-2.1,2.36,2.36,0,0,0-.38,1.15c0,.71.66.82,1.16.9,0-.23.14-2.42.15-2.5a1.74,1.74,0,0,1-1.65-1,2.78,2.78,0,0,1-.33-1.44c.15.34.4,1,1.63,1a2.34,2.34,0,0,0,.42,0c0-.77,0-.86,0-1.19,0-1.37-.22-1.44-.52-1.44a.69.69,0,0,0-.23,0c.19-.64.44-.88.83-.88.58,0,1.06.59,1.06,1.45,0,.31-.11,1.46-.15,1.84a2.24,2.24,0,0,0,.85-.4c.62.34.92.52.92,1.09s-.3,1-1.92,1.06c-.06.51-.21,2.13-.24,2.51a2.84,2.84,0,0,0,1.8-.61,1.41,1.41,0,0,0,.69.15c.14,0,.67,0,.67.85s-.43.88-.89,1a9,9,0,0,1-2.38.27c0,.95,0,1.43,0,1.52,0,1.08.18,1.65,1,1.65.06,0,1.57,0,1.94-.57a2.11,2.11,0,0,0,.15-.9c0-.24,0-.74-.09-1.51Z"/><path d="M129.27,264.94v-1.8h-1.73l-.05-.17h1.78v-1.65H127.8a13.19,13.19,0,0,1-1.51,2.86l0,0a24.07,24.07,0,0,0,.44-4.13c.29.07,1.61.37,1.61.55s-.09.14-.31.19c-.07.22-.09.27-.13.37h1.4v-2c.24,0,1.29.13,1.5.17s.13,0,.13.12,0,.09-.36.27v1.41h.59l.58-1.16c.09-.17.1-.19.14-.19a8.69,8.69,0,0,1,1.15,1.41c0,.13-.07.13-.13.13h-2.33V263h.31l.51-1c.08-.16.09-.18.14-.18a8.1,8.1,0,0,1,1,1.28c0,.11-.07.13-.14.11h-1.85v1.8h.81l.56-1.14c.09-.18.11-.19.14-.19a8,8,0,0,1,1.09,1.39c0,.11-.06.13-.14.11h-6.8V266a4.24,4.24,0,0,1,1,1.21,2.78,2.78,0,0,1,.35,1.36c0,.59-.14,1.23-.74,1.23-.3,0-.35-.17-.35-.51a9.94,9.94,0,0,0-.29-3v7.14c0,.43-.07.47-.24.48l-.8.1c-.15,0-.15,0-.15-.37v-4.8a10.63,10.63,0,0,1-1.82,3.06v0a29.5,29.5,0,0,0,1.62-6.77h-1.41l0-.17H125v-5.73c.12,0,1.18.11,1.39.14.06,0,.13,0,.13.1s-.28.24-.33.25v5.24h.34l.48-1c.06-.12.1-.21.13-.21a6.19,6.19,0,0,1,.93,1.17Zm-5.7-4.76a3.8,3.8,0,0,1,1.32,2.76c0,1-.48,1.1-.76,1.1s-.36-.18-.36-.5a14.26,14.26,0,0,0-.23-3.33Zm7.5,6.34.35-.78c.08-.16.1-.23.16-.23a4.4,4.4,0,0,1,1.24,1.49c0,.23-.18.31-.44.42v4.94c0,1.09-.13,1.64-1.31,1.64-.28,0-.28-.13-.28-.29,0-.77,0-1.54-.95-1.89v-.06c1.29,0,1.29,0,1.29-.52V270H129v3.52c0,.27,0,.37-.21.39l-.84.09c-.21,0-.21-.16-.21-.4v-7.47c.54.14,1.07.29,1.33.38Zm-2.09.18v1.44h2.15V266.7Zm0,1.61v1.51h2.15v-1.51Z"/><path d="M137,266.23l-.05-.17H138l.38-.87c.08-.19.12-.21.14-.21a6.2,6.2,0,0,1,1.23,1.57c0,.08,0,.15-.31.35v3.4a1.85,1.85,0,0,0,.46,1.36c.32.27.72.32,2,.32a17.13,17.13,0,0,0,4.87-.45v.05a2.54,2.54,0,0,0-.58,1.82c0,.16-.07.21-.14.24a24.71,24.71,0,0,1-2.54.08c-2.25,0-3.62,0-4.22-2.69a19.11,19.11,0,0,1-1.77,3c-.09-.35-.57-2.33-.63-2.62l1.28-.2v-5Zm.29-6.83c.56.16,2.33.78,2.33,2.43,0,.59-.28,1.17-.84,1.17-.17,0-.24-.05-.32-.38a9.87,9.87,0,0,0-1.17-3.16Zm6.34,11.43c0,.3,0,.43-.25.46l-.71.1c-.24,0-.24-.07-.24-.47v-3.23h-.92V271c0,.31,0,.4-.22.44l-.78.09c-.22,0-.22,0-.22-.38v-8.23c.22.1,1.22.45,1.41.53h.77c0-.08-.12-.47-.15-.55a4.82,4.82,0,0,0-1.15-1.88V261a2.45,2.45,0,0,1,2.17.77,15.66,15.66,0,0,0,.87-1.46h-4.08l0-.19h4l.34-.59c.1-.16.11-.18.16-.18a16.3,16.3,0,0,1,1.52,1.35.35.35,0,0,1,.12.25c0,.21-.22.21-.26.21a2.07,2.07,0,0,1-.37-.05,14.29,14.29,0,0,1-2.16.9,1.26,1.26,0,0,1,.15.62,1.23,1.23,0,0,1-.32.87h1.25l.4-.74c.08-.16.11-.19.16-.19a5.87,5.87,0,0,1,1.15,1.6c0,.18-.1.26-.33.43v5.62c0,.42,0,1.36-1.13,1.36-.32,0-.37,0-.37-.22,0-.4,0-1.41-.81-1.7Zm-1.2-7.19h-.92v1.81h.92Zm0,2h-.92v1.86h.92Zm1.2-.19h1.07v-1.81h-1.07Zm0,2.05h1.07v-1.86h-1.07Zm0,2c.08,0,.85.08.87.08.2,0,.2-.08.2-.46v-1.46h-1.07Z"/><path d="M157.75,266.33c-.32,4.59-1.62,7-4.11,7-1.92,0-2.16-1.9-2.16-4.94,0-1.09.19-5.81.19-6.77,0-.51,0-.87-.78-.85.18-.4.43-.93,1.13-.93a1.11,1.11,0,0,1,1.1,1c0,.22-.22,1.18-.25,1.37-.14,1.2-.32,4.61-.32,7,0,1.14,0,2.16,1.19,2.16,1.92,0,3.15-2.07,4-5.09Z"/><path d="M162.51,262a15.56,15.56,0,0,0,1.5-.43c1.24-.35,2.47-.64,3.72-.88.35-.06.36-.08.78-.38.06-.05.1-.08.15-.08s1.43.53,1.43,1.45c0,.31-.14.72-.47.72a1.62,1.62,0,0,1-.6-.16,3.86,3.86,0,0,0-1-.16,2,2,0,0,0-1.85,1.52,14.89,14.89,0,0,0-.62,4.52c0,2.8.87,3.1,2,3.52.4.14.76.29.76,1.17,0,.19,0,1-.58,1a3.32,3.32,0,0,1-1.35-.44c-1.19-.67-1.77-1.84-1.77-4.48,0-2.83.79-5.49,2-6.64a8.92,8.92,0,0,0-3.09,1.33c-.45.3-.53.33-.7.33-.67,0-1.11-.91-1.11-1.84a2.32,2.32,0,0,1,.15-.92C161.92,261.57,162,262,162.51,262Z"/><path d="M177.26,266.55a36,36,0,0,0-.56,4.23,2.77,2.77,0,0,0,.18,1,1.7,1.7,0,0,1,.19.66.8.8,0,0,1-.73.86c-.8,0-1.92-1.52-1.92-5.49,0-1,0-1.33.29-4.53,0-.27.12-1.33.12-1.95a6.83,6.83,0,0,0-.17-1.57,4.79,4.79,0,0,1,1.51,3.39,4.35,4.35,0,0,1-.17,1.22,13.36,13.36,0,0,0-.56,3.74c0,1.24.18,2,.38,2s.31-.39.34-.47c.18-.48.88-2.54,1.07-3.13Zm2.72-2.78c1.39,0,2.91,1.25,2.91,4.06,0,.24,0,2-.85,2-.47,0-.71-.5-.72-1.06a8,8,0,0,0-.66-3.78,2.18,2.18,0,0,0-1.09-1.17Z"/><path d="M191.56,265.58c2.1,0,2.64,2.45,2.64,3.93,0,2.69-1.33,4-3.1,4a2,2,0,0,1-2.12-2.07c0-.86.44-1.78,1.31-1.78.7,0,1.16.6,1.16,1.44a1.3,1.3,0,0,1-.14.68c.47-.11,1.65-.4,1.65-3,0-.9-.17-2.68-1.59-2.68-.89,0-1.64.71-2.44,3a11.87,11.87,0,0,0-.49,1.87c-.05.24-.14.64-.54.64-.6,0-.69-1-.69-1.57s.08-.73.69-1.74c.16-.27,2.52-4.44,3.52-6.48a.92.92,0,0,0,.09-.36c0-.06,0-.13-.07-.13a3.09,3.09,0,0,0-.65.68c-.49.64-.65.75-1,.75-.72,0-1.09-1.12-1.15-1.7a.87.87,0,0,0,.55.27c.46,0,1.44-.86,1.93-1.28s.52-.44.68-.44,1.22.24,1.22,1.6c0,.48-.11.59-.48,1a19.66,19.66,0,0,0-2.06,3.65A2.2,2.2,0,0,1,191.56,265.58Zm-1,5.65c0-.26-.12-.6-.43-.6s-.36.34-.36.48a.58.58,0,0,0,.56.58A.54.54,0,0,0,190.52,271.23Z"/><path d="M202,271.05c0,1.33-.7,2.43-1.58,2.43s-1.58-1.1-1.58-2.43.72-2.43,1.58-2.43S202,269.69,202,271.05Zm-2.75,0c0,1,.53,1.79,1.17,1.79s1.17-.81,1.17-1.79-.52-1.79-1.17-1.79S199.2,270,199.2,271.05Z"/><line class="cls-2" x1="17.43" y1="21.4" x2="17.43" y2="321.79"/><path d="M17.43,13.27a4.07,4.07,0,1,1-4.07,4.07A4.07,4.07,0,0,1,17.43,13.27Z"/><path class="cls-2" d="M17.43,11.4a5.94,5.94,0,1,1-5.94,5.94A5.94,5.94,0,0,1,17.43,11.4Z"/><polygon class="cls-2" points="17.43 5.09 22.74 14.29 28.04 23.45 17.43 23.45 6.81 23.45 12.12 14.29 17.43 5.09"/><path d="M8.72,76.29c0,1.69,0,2.1.22,2.1a.63.63,0,0,0,.42-.14,1,1,0,0,1,0,.77,4.62,4.62,0,0,0-1.76.65c-.06,0-.14-.11-.16-.25l0-.56c0-.14-.05-.2-.09-.14-.34.39-.69.77-1,.77-1.12,0-1.87-1.6-1.87-3.55,0-2.54,1-4.16,2.33-4.16a1.57,1.57,0,0,1,.55.09.45.45,0,0,0,.1-.34v-2.3c0-.72,0-.92-.2-1.14l-.16-.18a.68.68,0,0,1,0-.54,7.27,7.27,0,0,0,1.49-1,.19.19,0,0,1,.17.13c0,.74,0,1.5,0,2.63Zm-1.27-2.4a2.15,2.15,0,0,0-.07-.61c-.12-.38-.33-.67-.56-.67-.49,0-1,1-1,2.85,0,1.19.29,2.82,1.09,2.82a.55.55,0,0,0,.4-.21,1.13,1.13,0,0,0,.12-.69Z"/><path d="M5.93,250.47c-.23,0-.25,0-.25.33,0,1.35.47,2.66,1.38,2.66.27,0,.64-.11.91-.94.1,0,.25.11.25.42C7.82,254.47,7.1,255,6.51,255c-1.31,0-2-1.71-2-3.67,0-2.27.89-4,2.11-4,1,0,1.56,1.21,1.56,2.6,0,.34-.05.59-.35.59Zm.64-.79a.53.53,0,0,0,.4-.16A.86.86,0,0,0,7,249.1c0-.59-.19-1-.52-1s-.76.72-.76,1.3c0,.25.14.27.45.27Z"/><line class="cls-3" x1="20.49" y1="44.65" x2="13.96" y2="44.65"/><line class="cls-3" x1="20.49" y1="75.87" x2="13.96" y2="75.87"/><line class="cls-3" x1="20.49" y1="111.06" x2="13.96" y2="111.06"/><line class="cls-3" x1="20.49" y1="146.24" x2="13.96" y2="146.24"/><line class="cls-3" x1="20.49" y1="181.42" x2="13.96" y2="181.42"/><line class="cls-3" x1="20.49" y1="216.6" x2="13.96" y2="216.6"/><line class="cls-3" x1="20.49" y1="251.79" x2="13.96" y2="251.79"/><line class="cls-3" x1="20.49" y1="251.79" x2="13.96" y2="251.79"/><line class="cls-3" x1="20.49" y1="251.79" x2="13.96" y2="251.79"/><line class="cls-3" x1="20.47" y1="286.6" x2="13.94" y2="286.6"/><line class="cls-3" x1="20.47" y1="321.78" x2="13.94" y2="321.78"/><line class="cls-4" x1="94.75" y1="321.79" x2="32.11" y2="321.79"/><line class="cls-4" x1="103.03" y1="41.74" x2="33.24" y2="41.74"/><circle cx="8.18" cy="44.65" r="1.68"/><path d="M35.43,309.45l-.26,1.76h.57l-.07.77h-.61l-.33,2.18h-.39l.31-2.18H34l-.32,2.18h-.39l.32-2.18H33l.07-.77h.68l.25-1.76h-.64l.07-.78h.68l.28-1.95h.42l-.29,1.95h.62l.28-1.95h.42l-.29,1.95h.59l-.06.78Zm-1,0-.26,1.76h.63l.26-1.76Z"/><path d="M41.39,310.45c0,1.93-.45,3.92-1.5,3.92s-1.5-2-1.5-3.92.45-3.92,1.5-3.92S41.39,308.59,41.39,310.45Zm-1.5,3.37c.5,0,.55-2.31.55-3.37s0-3.37-.55-3.37-.55,2.3-.55,3.37S39.4,313.82,39.89,313.82Z"/><path d="M45.38,311.09a1.38,1.38,0,0,1,0,1l-1.56.26a1.1,1.1,0,0,1-.09-.48,1.19,1.19,0,0,1,.09-.49Z"/><path d="M49.05,310.05c-.08,0-.09,0-.09.28v1.8c0,.67,0,1.41.45,1.41a.43.43,0,0,0,.28-.18.37.37,0,0,1,.09.31,1.17,1.17,0,0,1-.94.7c-.54,0-.73-.58-.73-1.37v-2.67c0-.26,0-.28-.12-.28h-.2a.4.4,0,0,1,0-.37,2.76,2.76,0,0,0,.54-.54,3.59,3.59,0,0,0,.48-.94.14.14,0,0,1,.2.06v.9c0,.23,0,.24.12.24h.58a.44.44,0,0,1,0,.23.77.77,0,0,1-.09.42Z"/><path d="M54.07,312.56c0,.81.17,1,.3,1s.14,0,.24-.15a.3.3,0,0,1,.08.28c-.08.19-.38.65-.75.65s-.37-.14-.55-.42c0-.07-.07-.1-.1-.1s-.07,0-.14.13-.31.39-.55.39-.73-.42-.73-1.26a1.26,1.26,0,0,1,.68-1.25c.24-.14.43-.24.61-.33a.26.26,0,0,0,.15-.24c0-.14,0-.27,0-.41,0-.46-.1-1-.38-1s-.29.17-.34.68a.66.66,0,0,1-.11.38.78.78,0,0,1-.47.28c-.11,0-.15-.13-.15-.3a1.78,1.78,0,0,1,.32-.92,1.48,1.48,0,0,1,1.09-.73c.54,0,.86.5.83,1.73Zm-.78-.31c0-.2,0-.23,0-.22-.29.07-.55.28-.55.84,0,.38.15.72.33.72s.24-.22.25-.59Z"/><path d="M57,307.53c0-.48,0-.61-.13-.75l-.11-.12a.45.45,0,0,1,0-.36,6.18,6.18,0,0,0,1-.67.12.12,0,0,1,.11.08c0,.49,0,1,0,1.75v3.77c0,.13,0,.16.09.16s.25-.06.38-.33l.27-.59a1.32,1.32,0,0,0,.16-.48c0-.06-.07-.11-.13-.12l-.16-.05a.51.51,0,0,1,0-.42h.16a5.69,5.69,0,0,0,1.23-.16.57.57,0,0,1,0,.41l-.21.09a1.09,1.09,0,0,0-.44.42,5.1,5.1,0,0,0-.43.7.26.26,0,0,0,0,.15.68.68,0,0,0,0,.2c.12.39.69,2,.85,2.3a.68.68,0,0,0,.39.27l.1,0a.55.55,0,0,1,0,.42,5.65,5.65,0,0,0-.82,0,5.18,5.18,0,0,0-.8,0,.54.54,0,0,1,0-.42l.09,0c.06,0,.1,0,.1-.09a1.59,1.59,0,0,0-.11-.39L58.07,312c0-.14-.1-.18-.16-.18s-.08.06-.08.28v.7c0,.84,0,.93.25,1l.11,0a.56.56,0,0,1,0,.42,5.85,5.85,0,0,0-.78,0,6.21,6.21,0,0,0-.79,0,.56.56,0,0,1,0-.42l.13,0c.23-.05.26-.14.26-1Z"/><path d="M63.07,311.36c-.15,0-.16,0-.16.21,0,.9.31,1.78.91,1.78.19,0,.43-.07.61-.62.07,0,.17.07.17.27-.27,1-.75,1.37-1.14,1.37-.88,0-1.35-1.14-1.35-2.45,0-1.51.59-2.68,1.4-2.68s1,.8,1,1.72c0,.23,0,.4-.23.4Zm.43-.53a.34.34,0,0,0,.27-.11.56.56,0,0,0,0-.27c0-.4-.12-.66-.34-.66s-.51.48-.51.86c0,.17.09.18.3.18Z"/><path d="M73.28,310.45c0,1.93-.45,3.92-1.5,3.92s-1.5-2-1.5-3.92.45-3.92,1.5-3.92S73.28,308.59,73.28,310.45Zm-1.5,3.37c.49,0,.55-2.31.55-3.37s-.06-3.37-.55-3.37-.55,2.3-.55,3.37S71.29,313.82,71.78,313.82Z"/><path d="M78.61,310.45c0,1.93-.45,3.92-1.5,3.92s-1.5-2-1.5-3.92.45-3.92,1.5-3.92S78.61,308.59,78.61,310.45Zm-1.5,3.37c.49,0,.55-2.31.55-3.37s-.06-3.37-.55-3.37-.55,2.3-.55,3.37S76.62,313.82,77.11,313.82Z"/><path d="M81.33,308.28c-.09,0-.18-.09-.18-.23.26-1,.78-1.52,1.36-1.52s1,.57,1,1.37a1.79,1.79,0,0,1-.81,1.55.09.09,0,0,0,0,.16c.59,0,1.1.71,1.1,1.86a4.09,4.09,0,0,1-.75,2.44,2,2,0,0,1-1.5,1c-.35,0-.71-.24-.71-.85,0-.32.14-.66.39-.66s.38.48.44.64.19.27.28.27c.28,0,.87-.68.87-2.16,0-1.06-.3-1.83-.76-1.83-.27,0-.48.23-.64.5-.13,0-.21-.3-.15-.57a4.39,4.39,0,0,0,1-1,2,2,0,0,0,.28-1.08c0-.45-.22-.88-.54-.88S81.53,307.74,81.33,308.28Z"/><path d="M36,31.89a1,1,0,0,1,.14.63c0,.36-.09.68-.17.68a.13.13,0,0,1-.11-.06c-.18-.48-.43-.9-.67-.9-.42,0-.65.89-.65,1.72s.34,1.9.93,1.9c.24,0,.44-.14.58-.58.08,0,.17.07.17.26-.14.6-.53,1.28-1.15,1.28-.82,0-1.38-1-1.38-2.42,0-1.7.75-2.71,1.63-2.71A1.35,1.35,0,0,1,36,31.89Z"/><path d="M38.7,30c0-.48,0-.62-.13-.76l-.12-.12a.55.55,0,0,1,0-.36,6.21,6.21,0,0,0,1-.67.12.12,0,0,1,.11.08c0,.49,0,1,0,1.75v2.21c0,.11,0,.14.05.14l.1-.09a1.09,1.09,0,0,1,.75-.48c.54,0,.82.68.82,1.51v2.06c0,.84,0,.94.26,1l.1,0a.56.56,0,0,1,0,.42c-.2,0-.47,0-.78,0a6.07,6.07,0,0,0-.71,0,.61.61,0,0,1,0-.42l.12,0c.14,0,.17-.13.17-.79V33.37c0-.42-.14-.81-.45-.81a.43.43,0,0,0-.37.29,1.22,1.22,0,0,0-.05.45v2.14c0,.66,0,.75.18.79l.11,0a.61.61,0,0,1,0,.42,6.78,6.78,0,0,0-.73,0c-.26,0-.53,0-.76,0a.61.61,0,0,1,0-.42l.11,0c.22,0,.25-.15.25-1Z"/><path d="M46.09,35c0,.82.16,1,.29,1a.32.32,0,0,0,.25-.14c.06,0,.1.17.08.27s-.38.65-.76.65c-.22,0-.37-.14-.54-.42,0-.07-.07-.09-.1-.09s-.08,0-.14.13-.31.38-.55.38-.73-.42-.73-1.26a1.25,1.25,0,0,1,.67-1.24c.25-.15.43-.24.62-.34a.25.25,0,0,0,.15-.24c0-.13,0-.26,0-.41,0-.45-.09-1-.37-1s-.3.17-.34.68a.7.7,0,0,1-.11.39.82.82,0,0,1-.47.27c-.11,0-.15-.13-.15-.3a1.9,1.9,0,0,1,.31-.92,1.51,1.51,0,0,1,1.1-.73c.54,0,.86.5.83,1.74Zm-.78-.31c0-.19,0-.23,0-.22-.3.08-.55.28-.55.84,0,.39.15.72.33.72s.24-.21.25-.59Z"/><path d="M49.06,33.48c0-.48,0-.63-.13-.77l-.09-.11a.55.55,0,0,1,0-.36,3.84,3.84,0,0,0,.95-.72c.05,0,.09,0,.12.11q0,.36,0,.51c0,.09,0,.12.07.15.17-.21.36-.6.63-.6s.36.25.36.71-.21.78-.41.78-.17-.08-.26-.22-.21-.24-.25-.24-.12.26-.12.72v1.85c0,.84,0,.93.24,1l.21,0a.55.55,0,0,1,0,.42c-.31,0-.57,0-.87,0s-.56,0-.77,0a.55.55,0,0,1,0-.42l.13,0c.21,0,.24-.14.24-1Z"/><path d="M55.28,35c0,.82.17,1,.3,1s.14,0,.24-.14.1.17.08.27-.38.65-.75.65-.37-.14-.55-.42c-.05-.07-.07-.09-.1-.09s-.08,0-.14.13-.31.38-.55.38-.73-.42-.73-1.26a1.25,1.25,0,0,1,.67-1.24c.25-.15.43-.24.62-.34a.25.25,0,0,0,.15-.24c0-.13,0-.26,0-.41,0-.45-.1-1-.38-1s-.29.17-.34.68a.7.7,0,0,1-.11.39.82.82,0,0,1-.47.27c-.11,0-.15-.13-.15-.3a1.9,1.9,0,0,1,.31-.92,1.51,1.51,0,0,1,1.1-.73c.54,0,.86.5.83,1.74Zm-.78-.31c0-.19,0-.23,0-.22-.3.08-.55.28-.55.84,0,.39.15.72.33.72s.24-.21.25-.59Z"/><path d="M60.21,31.89a1.12,1.12,0,0,1,.14.63c0,.36-.1.68-.17.68a.13.13,0,0,1-.11-.06c-.18-.48-.43-.9-.67-.9-.42,0-.65.89-.65,1.72s.33,1.9.93,1.9c.24,0,.44-.14.58-.58.08,0,.17.07.17.26-.14.6-.53,1.28-1.15,1.28-.82,0-1.38-1-1.38-2.42,0-1.7.75-2.71,1.63-2.71A1.35,1.35,0,0,1,60.21,31.89Z"/><path d="M63.79,32.5c-.08,0-.09,0-.09.28v1.8c0,.67,0,1.41.46,1.41a.41.41,0,0,0,.27-.18.38.38,0,0,1,.09.32,1.14,1.14,0,0,1-.94.69c-.54,0-.73-.57-.73-1.37V32.78c0-.25,0-.28-.12-.28h-.2c-.07,0-.09-.28,0-.37a2.76,2.76,0,0,0,.54-.54,3.31,3.31,0,0,0,.48-.93.13.13,0,0,1,.2.06v.9c0,.22,0,.24.12.24h.58a.4.4,0,0,1,0,.22.85.85,0,0,1-.08.42Z"/><path d="M67.57,33.81c-.15,0-.16,0-.16.22,0,.9.31,1.77.92,1.77.18,0,.43-.07.6-.62.07,0,.17.07.17.27-.27,1-.75,1.37-1.14,1.37-.87,0-1.35-1.14-1.35-2.44,0-1.52.59-2.69,1.41-2.69s1,.8,1,1.73c0,.22,0,.39-.24.39Zm.43-.53a.35.35,0,0,0,.27-.1.6.6,0,0,0,0-.28c0-.4-.13-.66-.35-.66s-.51.48-.51.86c0,.17.09.18.3.18Z"/><path d="M71.63,33.48c0-.48,0-.63-.12-.77l-.1-.11a.55.55,0,0,1,0-.36,3.84,3.84,0,0,0,1-.72c.06,0,.09,0,.12.11,0,.24,0,.41,0,.51s0,.12.07.15c.18-.21.36-.6.64-.6s.35.25.35.71-.2.78-.41.78-.17-.08-.25-.22-.21-.24-.25-.24-.13.26-.13.72v1.85c0,.84,0,.93.24,1l.21,0a.51.51,0,0,1,0,.42c-.32,0-.58,0-.88,0s-.55,0-.77,0a.51.51,0,0,1,0-.42l.12,0c.21,0,.24-.14.24-1Z"/><path d="M78.92,32.24c-.06-.08-.06-.37,0-.42.24,0,.46,0,.81,0s.48,0,.72,0a.61.61,0,0,1,0,.42l-.1,0c-.08,0-.11.05-.11.12a2.4,2.4,0,0,0,.06.42c.13.66.27,1.28.41,1.86.14-.6.3-1.24.44-2a2.27,2.27,0,0,0,0-.3c0-.06,0-.1-.16-.14l-.09,0a.48.48,0,0,1,0-.42,4.91,4.91,0,0,0,.53,0c.21,0,.36,0,.5,0a.51.51,0,0,1,0,.42l-.11,0c-.19.06-.25.2-.37.66-.34,1.23-.63,2.51-.93,3.8a.19.19,0,0,1-.15.08.21.21,0,0,1-.16-.08c-.34-1.51-.47-2.09-.88-3.68-.16-.59-.2-.69-.36-.76Z"/><path d="M84.08,34.35c0-1.71.72-2.66,1.49-2.66S87,32.55,87,34.24s-.7,2.58-1.5,2.58S84.08,36,84.08,34.35Zm.93-.26c0,1.26.22,2.18.59,2.18s.5-.78.49-1.86-.19-2.17-.56-2.17S85,32.78,85,34.09Z"/><path d="M90.57,35.26c0,.84,0,1,.24,1l.12,0a.51.51,0,0,1,0,.42c-.23,0-.48,0-.78,0s-.57,0-.78,0a.56.56,0,0,1,0-.42l.12,0c.22,0,.24-.15.24-1V33.45c0-.48,0-.62-.12-.77l-.09-.1a.45.45,0,0,1,0-.36,4,4,0,0,0,1-.7s.09,0,.12.11c0,.36,0,.89,0,1.43Zm.05-5.42c0,.58-.24.88-.49.88s-.45-.36-.45-.85.23-.88.49-.88S90.62,29.36,90.62,29.84Z"/><path d="M95.5,31.89a1.13,1.13,0,0,1,.13.63c0,.36-.09.68-.17.68s-.09,0-.1-.06c-.18-.48-.44-.9-.67-.9-.42,0-.65.89-.65,1.72s.33,1.9.93,1.9c.24,0,.44-.14.58-.58.08,0,.17.07.17.26-.14.6-.53,1.28-1.15,1.28-.82,0-1.38-1-1.38-2.42,0-1.7.75-2.71,1.62-2.71A1.36,1.36,0,0,1,95.5,31.89Z"/><path d="M98.81,33.81c-.15,0-.16,0-.16.22,0,.9.31,1.77.92,1.77.18,0,.43-.07.6-.62.07,0,.17.07.17.27-.27,1-.75,1.37-1.14,1.37-.88,0-1.35-1.14-1.35-2.44,0-1.52.59-2.69,1.4-2.69s1,.8,1,1.73c0,.22,0,.39-.23.39Zm.43-.53a.35.35,0,0,0,.27-.1.63.63,0,0,0,0-.28c0-.4-.12-.66-.34-.66s-.51.48-.51.86c0,.17.09.18.3.18Z"/><rect x="32.87" y="294.71" width="17.75" height="3.94"/><rect x="32.67" y="94.18" width="125.42" height="11.94"/><path class="cls-5" d="M40.86,103.4c0,1.93,0,2.21.6,2.3l.32,0a.6.6,0,0,1,0,.46c-.57,0-.91,0-1.3,0s-.75,0-1.39,0a.53.53,0,0,1,0-.46l.36,0c.57-.09.62-.37.62-2.3V95.2c0-.57,0-.59-.3-.59H39.2a1.33,1.33,0,0,0-1.22.46,4.27,4.27,0,0,0-.45,1.27c-.08.11-.22,0-.26-.13.16-.83.31-2,.38-2.74,0,0,.16,0,.19,0,.06.59.39.57.84.57h4c.54,0,.63,0,.78-.51a.12.12,0,0,1,.18,0,20.2,20.2,0,0,0-.15,2.79.14.14,0,0,1-.26,0A3.71,3.71,0,0,0,43,95.07a1.32,1.32,0,0,0-1.15-.46h-.71c-.3,0-.29,0-.29.62Z"/><path class="cls-5" d="M47.21,100.23c0-3.67,1.49-6.48,3.54-6.48,2.3,0,3.45,3.06,3.45,6.29,0,3.71-1.53,6.41-3.45,6.41C48.54,106.45,47.21,103.53,47.21,100.23Zm6,.38c0-3-.73-6.29-2.63-6.29-1,0-2.38,1.3-2.38,5.32,0,2.72.72,6.24,2.68,6.24C52.07,105.88,53.21,104.23,53.21,100.61Z"/><path class="cls-5" d="M61.51,101.26c.23.86.45,1.7.69,2.51h0c.26-.86.51-1.82.76-2.75l.94-3.51A17.57,17.57,0,0,0,64.67,94a4.55,4.55,0,0,0,.75.05c.25,0,.58,0,.88-.05a.66.66,0,0,1,0,.46l-.2,0c-.63.11-.71.46-.7,1.75,0,1.94,0,5.34.11,8,0,.92,0,1.41.49,1.49l.31,0a.56.56,0,0,1,0,.46c-.4,0-.81,0-1.17,0s-.8,0-1.2,0a.56.56,0,0,1,0-.46l.29,0c.48-.09.48-.39.48-1.56l0-7.66h0c-.07.21-.44,1.67-.64,2.39l-.89,3.21c-.45,1.62-.89,3.34-1.07,4.19a.1.1,0,0,1-.1.07.11.11,0,0,1-.09-.07c-.17-1-.65-2.78-.88-3.67l-.89-3.55c-.21-.84-.42-1.8-.64-2.64h0c0,1.14-.07,2.2-.1,3.27s-.07,2.75-.07,4.31c0,1.36.06,1.65.45,1.71l.38,0a.52.52,0,0,1,0,.46c-.34,0-.73,0-1.11,0s-.67,0-1,0a.61.61,0,0,1,0-.46l.22,0c.41-.11.55-.22.61-1.51s.11-2.22.17-4c0-1.52.09-3.08.11-4.09,0-1.16-.06-1.43-.66-1.58l-.16,0a.56.56,0,0,1,0-.46A7.43,7.43,0,0,0,59,94a5.21,5.21,0,0,0,.83-.05,12.08,12.08,0,0,0,.51,3Z"/><path class="cls-5" d="M70.15,100.23c0-3.67,1.49-6.48,3.54-6.48,2.3,0,3.45,3.06,3.45,6.29,0,3.71-1.53,6.41-3.45,6.41C71.48,106.45,70.15,103.53,70.15,100.23Zm6,.38c0-3-.73-6.29-2.63-6.29-1,0-2.38,1.3-2.38,5.32,0,2.72.72,6.24,2.68,6.24C75,105.88,76.15,104.23,76.15,100.61Z"/><path class="cls-5" d="M81.85,96.8c0-1.93,0-2.23-.59-2.32l-.25,0A.6.6,0,0,1,81,94c.49,0,.8.05,1.25.05S83,94,83.44,94a.6.6,0,0,1,0,.46l-.19,0c-.58.11-.6.39-.6,2.32v2.11c0,.34,0,.69.13.69s.21-.11.28-.2.4-.7.51-.88l1.07-2c.19-.33.68-1.27.78-1.53a.84.84,0,0,0,.07-.29c0-.07,0-.13-.17-.18l-.27-.11a.49.49,0,0,1,0-.46c.35,0,.74.05,1.09.05s.69,0,1-.05a.56.56,0,0,1,0,.46,1.74,1.74,0,0,0-.93.51,15,15,0,0,0-1.39,2.13L84,98.65a1.34,1.34,0,0,0-.22.57,1.78,1.78,0,0,0,.18.57c.95,2,1.72,3.65,2.49,5.15.24.45.46.68.8.76l.27,0a.52.52,0,0,1,0,.46,10.45,10.45,0,0,0-1.12,0c-.41,0-.75,0-1.21,0-.07,0-.1-.35,0-.46l.23-.07c.14,0,.24-.09.24-.18a1.41,1.41,0,0,0-.14-.43c-.19-.44-.45-.93-.83-1.72l-.79-1.65c-.57-1.18-.73-1.55-1-1.55s-.17.24-.17.89v2.36c0,1.93,0,2.19.58,2.3l.27,0a.6.6,0,0,1,0,.46c-.49,0-.83,0-1.22,0s-.74,0-1.15,0a.59.59,0,0,1,0-.46l.2,0c.52-.15.54-.37.54-2.3Z"/><path class="cls-5" d="M94.33,101.9c-.07-.41-.11-.46-.41-.46h-1.5c-.25,0-.31,0-.38.44l-.35,1.93a11.93,11.93,0,0,0-.22,1.52c0,.22,0,.33.29.37l.33,0a.47.47,0,0,1,0,.46c-.26,0-.57,0-1,0s-.68,0-1,0a.61.61,0,0,1,0-.46l.33,0c.24,0,.46-.24.59-.9.18-.85.46-2,.88-4.1l1-5a4.54,4.54,0,0,0,.17-1.3,1.52,1.52,0,0,0,.52-.7c.06,0,.13,0,.15.16.13.81.29,1.66.44,2.46l1.36,7.38c.29,1.58.42,1.86.85,2l.27,0a.61.61,0,0,1,0,.46c-.41,0-.76,0-1.21,0s-.85,0-1.14,0a.5.5,0,0,1,0-.46l.29,0c.21,0,.34-.15.34-.33a7.68,7.68,0,0,0-.12-1Zm-2-1.64c-.08.43-.07.44.21.44h1.22c.29,0,.31-.07.22-.56l-.54-3c-.08-.44-.17-.93-.23-1.15h0c0,.09-.13.53-.24,1.08Z"/><path class="cls-5" d="M103,97.86c.52-1.36.8-2.06,1-2.61a1.79,1.79,0,0,0,.12-.49c0-.09-.1-.15-.36-.15H102.2c-.79,0-1.24.13-1.48.61a6.7,6.7,0,0,0-.44,1.24c-.09.08-.21,0-.25-.12.12-.65.29-1.75.41-2.76a.11.11,0,0,1,.17,0c0,.44.18.46,1,.46h2.62a6.61,6.61,0,0,0,1.15-.05s.06.09.06.16a42.22,42.22,0,0,0-1.64,3.93l-1.64,4.37c-.11.29-1,2.57-1,2.84s.1.22.28.26a13.19,13.19,0,0,0,1.47,0,2.84,2.84,0,0,0,1.84-.42,4.14,4.14,0,0,0,.7-1.69c.09-.06.21,0,.24.13a16.15,16.15,0,0,1-.44,2.6c-.55,0-1.12,0-1.81,0h-2.56c-.53,0-.89,0-1.11,0,0,0,0-.13,0-.22.2-.37.77-1.67,1.08-2.5Z"/><path class="cls-5" d="M114.83,98.65a23.94,23.94,0,0,0-.19-3.8.55.55,0,0,0-.49-.39l-.25,0a.55.55,0,0,1,0-.44c.38,0,.74.05,1.13.05s.69,0,1-.05a.52.52,0,0,1,0,.44l-.24,0a.6.6,0,0,0-.5.44,30,30,0,0,0-.14,3.75v2.07a10.67,10.67,0,0,1-.69,4.39,2.21,2.21,0,0,1-1.91,1.34,2.08,2.08,0,0,1-1.86-1c-.52-.81-.77-2.15-.77-4.33V96.78c0-1.91,0-2.22-.6-2.32l-.25,0a.56.56,0,0,1,0-.44c.5,0,.84.05,1.24.05s.73,0,1.22-.05a.56.56,0,0,1,0,.44l-.24,0c-.58.1-.6.41-.6,2.32v4c0,3,.5,4.9,2,4.9s2-2.09,2-4.88Z"/><path class="cls-5" d="M126.92,106.45a2.16,2.16,0,0,1-1.56-.68,14.86,14.86,0,0,1-.27-2.57c0-.13.2-.16.24,0,.15.93.56,2.73,1.71,2.73.84,0,1.25-1,1.25-2.11a3.67,3.67,0,0,0-.82-2.57l-.94-1.14a4.88,4.88,0,0,1-1.08-3.16c0-1.74.74-3.15,2-3.15a2.25,2.25,0,0,1,.93.24.86.86,0,0,0,.35.11,14.52,14.52,0,0,1,.17,2.24c0,.11-.19.16-.24,0-.13-.88-.4-2.07-1.36-2.07s-1.18,1.19-1.18,2a3.42,3.42,0,0,0,.85,2.26l.79.92a5,5,0,0,1,1.24,3.52C129,105.07,128.21,106.45,126.92,106.45Z"/><path class="cls-5" d="M133.81,96.8c0-1.91,0-2.19-.61-2.32l-.16,0a.6.6,0,0,1,0-.46c.43,0,.77.05,1.17.05h1.87a8.08,8.08,0,0,0,1.35-.05c.06.31.12,1.63.16,2.44a.14.14,0,0,1-.25,0c-.15-.86-.24-1.5-.76-1.74a2.67,2.67,0,0,0-1-.11h-.72c-.3,0-.3,0-.3.74V99c0,.51,0,.51.33.51h.58a2.09,2.09,0,0,0,.84-.11c.12-.07.19-.18.24-.64l.08-.75a.14.14,0,0,1,.26,0c0,.44,0,1.16,0,1.86s0,1.36,0,1.76a.14.14,0,0,1-.26,0l-.09-.72c0-.33-.11-.6-.31-.7a1.89,1.89,0,0,0-.76-.09H135c-.3,0-.33,0-.33.5v2.59a5.21,5.21,0,0,0,.19,1.91c.12.22.33.42,1.21.42s1-.08,1.27-.28a5.25,5.25,0,0,0,.71-1.78c.06-.09.2,0,.24.13-.07.64-.31,2.06-.44,2.55-.9,0-1.78,0-2.67,0h-.9c-.42,0-.76,0-1.35,0a.6.6,0,0,1,0-.46l.33,0c.57-.09.62-.37.62-2.3Z"/><path class="cls-5" d="M142.6,96.8c0-1.93,0-2.23-.6-2.32l-.25,0a.6.6,0,0,1,0-.46c.49,0,.81.05,1.26.05s.72,0,1.15-.05a.6.6,0,0,1,0,.46l-.19,0c-.58.11-.6.39-.6,2.32v2.11c0,.34,0,.69.13.69s.21-.11.28-.2.4-.7.51-.88l1.07-2c.19-.33.68-1.27.78-1.53a.84.84,0,0,0,.07-.29c0-.07,0-.13-.17-.18l-.27-.11a.49.49,0,0,1,0-.46c.35,0,.75.05,1.1.05s.68,0,1-.05a.56.56,0,0,1,0,.46A1.74,1.74,0,0,0,147,95a16,16,0,0,0-1.39,2.13l-.89,1.56a1.39,1.39,0,0,0-.23.57,1.63,1.63,0,0,0,.19.57c.94,2,1.71,3.65,2.48,5.15.24.45.46.68.8.76l.27,0a.52.52,0,0,1,0,.46,10.45,10.45,0,0,0-1.12,0c-.4,0-.75,0-1.21,0-.07,0-.1-.35,0-.46l.23-.07c.14,0,.24-.09.24-.18a1.41,1.41,0,0,0-.14-.43c-.19-.44-.45-.93-.83-1.72l-.79-1.65c-.57-1.18-.73-1.55-1-1.55s-.17.24-.17.89v2.36c0,1.93,0,2.19.58,2.3l.27,0a.6.6,0,0,1,0,.46c-.49,0-.83,0-1.21,0s-.75,0-1.16,0a.59.59,0,0,1,0-.46l.2,0c.53-.15.55-.37.55-2.3Z"/><path class="cls-5" d="M152.29,96.83c0-1.94,0-2.26-.6-2.35l-.25,0a.6.6,0,0,1,0-.46c.5,0,.83.05,1.25.05s.74,0,1.24-.05a.66.66,0,0,1,0,.46l-.25,0c-.59.09-.61.41-.61,2.35v6.54c0,1.94,0,2.2.61,2.33l.25,0a.66.66,0,0,1,0,.46c-.5,0-.84,0-1.24,0s-.75,0-1.25,0a.6.6,0,0,1,0-.46l.25,0c.58-.13.6-.39.6-2.33Z"/><rect x="33.24" y="207.38" width="120.48" height="12.36"/><path class="cls-5" d="M38.2,210c0-1.94,0-2.25-.61-2.35l-.25,0a.6.6,0,0,1,0-.46c.5,0,.84.05,1.25.05s.74,0,1.24-.05a.6.6,0,0,1,0,.46l-.25,0c-.59.1-.61.41-.61,2.35v6.54c0,1.94,0,2.2.61,2.33l.25,0a.6.6,0,0,1,0,.46c-.5,0-.84,0-1.24,0s-.75,0-1.25,0a.6.6,0,0,1,0-.46l.25,0c.59-.13.61-.39.61-2.33Z"/><path class="cls-5" d="M46.93,216.6c0,1.93,0,2.21.6,2.3l.31,0a.6.6,0,0,1,0,.46c-.56,0-.9,0-1.3,0s-.75,0-1.38,0a.53.53,0,0,1,0-.46l.36,0c.56-.09.61-.37.61-2.3v-8.2c0-.57,0-.59-.3-.59h-.54a1.34,1.34,0,0,0-1.23.46,4,4,0,0,0-.44,1.27c-.08.11-.22,0-.26-.13.16-.83.31-2,.38-2.74,0,0,.15,0,.18,0,.06.59.39.57.85.57h4c.54,0,.63,0,.78-.51a.11.11,0,0,1,.17.05,21.9,21.9,0,0,0-.15,2.79.13.13,0,0,1-.25,0,3.71,3.71,0,0,0-.25-1.34,1.34,1.34,0,0,0-1.16-.46h-.7c-.3,0-.29,0-.29.63Z"/><path class="cls-5" d="M56.86,215.1c-.07-.4-.11-.46-.4-.46H55c-.25,0-.31.06-.37.44L54.23,217a11.93,11.93,0,0,0-.22,1.52c0,.22.05.33.29.37l.32,0a.5.5,0,0,1,0,.46c-.26,0-.57,0-1,0s-.69,0-1,0a.6.6,0,0,1,0-.46l.32,0c.24,0,.46-.24.6-.9.18-.85.46-2,.88-4.09l1-5a4.54,4.54,0,0,0,.17-1.3,1.52,1.52,0,0,0,.52-.7c.06,0,.13,0,.15.16.13.81.29,1.66.43,2.46L58.05,217c.29,1.58.42,1.86.84,2l.27,0a.61.61,0,0,1,0,.46c-.41,0-.75,0-1.2,0s-.86,0-1.15,0a.5.5,0,0,1,0-.46l.29,0c.21,0,.35-.15.35-.33a6.5,6.5,0,0,0-.13-1Zm-2-1.63c-.08.42-.07.44.21.44h1.23c.28,0,.3-.08.22-.57l-.54-3c-.08-.45-.17-.94-.23-1.16h0c0,.09-.13.53-.24,1.08Z"/><path class="cls-5" d="M63.27,210c0-1.74,0-2-.44-2.14l-.32-.08a.5.5,0,0,1,0-.46,13.93,13.93,0,0,1,2.22-.14,2.18,2.18,0,0,1,1.66.55,3.45,3.45,0,0,1,.83,2.57A3.68,3.68,0,0,1,66,213.37a.7.7,0,0,0,0,.44,23.8,23.8,0,0,0,2,4.89,1,1,0,0,0,.69.51.24.24,0,0,1,0,.26,1,1,0,0,1-.44.09c-.84,0-1.35-.46-2.06-2.31-.26-.68-.67-1.95-1-2.77-.15-.41-.31-.59-.71-.59s-.47,0-.47.4v2.31c0,1.93,0,2.15.6,2.3l.21,0a.6.6,0,0,1,0,.46c-.45,0-.79,0-1.19,0s-.77,0-1.24,0a.59.59,0,0,1,0-.46l.25,0c.58-.13.6-.37.6-2.3Zm.81,2.63a2.68,2.68,0,0,0,0,.61c0,.05.18.09.69.09a1.14,1.14,0,0,0,1-.48,3.89,3.89,0,0,0,.5-2.28c0-1.45-.49-2.82-1.59-2.82-.62,0-.65.07-.65.58Z"/><path class="cls-5" d="M77.41,211.85a23.94,23.94,0,0,0-.19-3.8.58.58,0,0,0-.5-.39l-.25,0a.55.55,0,0,1,0-.44c.38,0,.75.05,1.14.05s.69,0,1-.05a.52.52,0,0,1,0,.44l-.24,0a.6.6,0,0,0-.49.45,29.75,29.75,0,0,0-.14,3.74v2.07a10.5,10.5,0,0,1-.7,4.39,2.2,2.2,0,0,1-1.9,1.34,2.08,2.08,0,0,1-1.86-1c-.53-.81-.78-2.15-.78-4.33V210c0-1.91,0-2.22-.59-2.32l-.25,0a.56.56,0,0,1,0-.44c.5,0,.83.05,1.23.05s.74,0,1.23-.05a.56.56,0,0,1,0,.44l-.24,0c-.58.1-.6.41-.6,2.32v4c0,3,.5,4.9,2,4.9s2-2.09,2-4.88Z"/><path class="cls-5" d="M89.85,213.43c-.48,0-.5,0-.5.59v2.58c0,1.93.05,2.19.61,2.3l.29,0a.6.6,0,0,1,0,.46c-.54,0-.88,0-1.27,0s-.76,0-1.15,0a.6.6,0,0,1,0-.46l.17,0c.56-.18.58-.37.58-2.3V210c0-1.93-.07-2.24-.59-2.32l-.26,0a.6.6,0,0,1,0-.46c.49,0,.83.05,1.25.05s.73,0,1.16-.05a.6.6,0,0,1,0,.46l-.19,0c-.58.11-.6.39-.6,2.32v2.11c0,.57,0,.58.5.58H92.7c.47,0,.49,0,.49-.58V210c0-1.93,0-2.21-.6-2.32l-.19,0a.6.6,0,0,1,0-.46c.45,0,.79.05,1.2.05s.73,0,1.17-.05a.6.6,0,0,1,0,.46l-.2,0c-.58.11-.6.39-.6,2.32v6.6c0,1.93,0,2.17.6,2.3l.23,0a.6.6,0,0,1,0,.46c-.47,0-.81,0-1.2,0s-.77,0-1.2,0a.6.6,0,0,1,0-.46l.19,0c.6-.18.6-.37.6-2.3V214c0-.55,0-.59-.49-.59Z"/><path class="cls-5" d="M102.31,215.1c-.07-.4-.11-.46-.41-.46h-1.5c-.25,0-.31.06-.38.44L99.68,217a11.93,11.93,0,0,0-.22,1.52c0,.22.05.33.29.37l.32,0a.47.47,0,0,1,0,.46c-.26,0-.56,0-1,0s-.69,0-1,0a.6.6,0,0,1,0-.46l.33,0c.24,0,.46-.24.6-.9.18-.85.46-2,.87-4.09l1-5a4.54,4.54,0,0,0,.17-1.3,1.52,1.52,0,0,0,.52-.7c.06,0,.13,0,.14.16.13.81.29,1.66.44,2.46L103.5,217c.28,1.58.41,1.86.84,2l.27,0a.61.61,0,0,1,0,.46c-.41,0-.76,0-1.2,0s-.86,0-1.15,0a.5.5,0,0,1,0-.46l.29,0c.21,0,.35-.15.35-.33a6.5,6.5,0,0,0-.13-1Zm-2-1.63c-.08.42-.07.44.21.44h1.22c.29,0,.31-.08.22-.57l-.53-3c-.08-.45-.17-.94-.23-1.16h0c0,.09-.13.53-.24,1.08Z"/><path class="cls-5" d="M109.67,219.65a2.13,2.13,0,0,1-1.55-.68,14.75,14.75,0,0,1-.27-2.57c.05-.13.2-.16.24-.05.15.93.55,2.73,1.71,2.73.83,0,1.24-1,1.24-2.11a3.71,3.71,0,0,0-.81-2.57l-1-1.14a4.87,4.87,0,0,1-1.07-3.15c0-1.75.73-3.16,2-3.16a2.2,2.2,0,0,1,.92.24.86.86,0,0,0,.35.11,14.35,14.35,0,0,1,.18,2.24c0,.11-.2.16-.25.05-.13-.88-.4-2.07-1.35-2.07s-1.19,1.19-1.19,2a3.41,3.41,0,0,0,.85,2.25l.8.92a5.1,5.1,0,0,1,1.24,3.53C111.79,218.28,111,219.65,109.67,219.65Z"/><path class="cls-5" d="M117.87,213.43c-.47,0-.49,0-.49.59v2.58c0,1.93.05,2.19.6,2.3l.29,0a.6.6,0,0,1,0,.46c-.54,0-.87,0-1.26,0s-.77,0-1.16,0a.64.64,0,0,1,0-.46l.17,0c.56-.18.58-.37.58-2.3V210c0-1.93-.07-2.24-.59-2.32l-.25,0a.6.6,0,0,1,0-.46c.48,0,.82.05,1.25.05s.72,0,1.15-.05a.6.6,0,0,1,0,.46l-.19,0c-.57.11-.59.39-.59,2.32v2.11c0,.57,0,.58.49.58h2.85c.48,0,.5,0,.5-.58V210c0-1.93,0-2.21-.61-2.32l-.19,0a.6.6,0,0,1,0-.46c.46,0,.8.05,1.2.05s.73,0,1.18-.05a.6.6,0,0,1,0,.46l-.21,0c-.58.11-.6.39-.6,2.32v6.6c0,1.93,0,2.17.6,2.3l.24,0a.6.6,0,0,1,0,.46c-.48,0-.82,0-1.21,0s-.76,0-1.2,0a.6.6,0,0,1,0-.46l.19,0c.61-.18.61-.37.61-2.3V214c0-.55,0-.59-.5-.59Z"/><path class="cls-5" d="M127.56,210c0-1.94,0-2.25-.61-2.35l-.25,0a.6.6,0,0,1,0-.46c.5,0,.84.05,1.26.05s.73,0,1.23-.05a.6.6,0,0,1,0,.46l-.25,0c-.58.1-.6.41-.6,2.35v6.54c0,1.94,0,2.2.6,2.33l.25,0a.6.6,0,0,1,0,.46c-.5,0-.83,0-1.23,0s-.76,0-1.26,0a.6.6,0,0,1,0-.46l.25,0c.59-.13.61-.39.61-2.33Z"/><path class="cls-5" d="M133.9,209.63c0-1.29-.05-1.67-.46-1.78l-.22-.06a.43.43,0,0,1,0-.46,23.13,23.13,0,0,1,2.5-.14,3.65,3.65,0,0,1,2.18.55c1.35.9,2,3,2,5.41a7.77,7.77,0,0,1-1.74,5.47,3.06,3.06,0,0,1-2.23.88c-.63,0-1.27-.14-1.62-.14s-.77,0-1.24,0a.6.6,0,0,1,0-.46l.23,0c.57-.15.59-.37.59-2.3Zm.82,6.55a5.89,5.89,0,0,0,.2,2,1.12,1.12,0,0,0,1.22.76c1.93,0,2.8-2.34,2.8-5.75,0-2-.53-5.43-3.13-5.43-.59,0-.91.14-1,.25a4.32,4.32,0,0,0-.1,1.4Z"/><path class="cls-5" d="M147.42,215.1c-.07-.4-.11-.46-.41-.46h-1.5c-.25,0-.31.06-.38.44l-.35,1.93a13.19,13.19,0,0,0-.21,1.52c0,.22.05.33.28.37l.33,0a.47.47,0,0,1,0,.46c-.26,0-.56,0-1,0s-.69,0-1,0a.6.6,0,0,1,0-.46l.33,0c.24,0,.46-.24.6-.9.18-.85.46-2,.87-4.09l1-5a4.54,4.54,0,0,0,.17-1.3,1.44,1.44,0,0,0,.51-.7c.06,0,.13,0,.15.16.13.81.29,1.66.44,2.46L148.6,217c.29,1.58.42,1.86.85,2l.27,0a.61.61,0,0,1,0,.46c-.41,0-.76,0-1.2,0s-.86,0-1.15,0a.5.5,0,0,1,0-.46l.29,0c.21,0,.35-.15.35-.33a6.5,6.5,0,0,0-.13-1Zm-2-1.63c-.08.42-.07.44.21.44h1.22c.29,0,.31-.08.22-.57l-.54-3c-.07-.45-.16-.94-.22-1.16h0c0,.09-.13.53-.24,1.08Z"/></svg>