<svg xmlns="http://www.w3.org/2000/svg" viewBox="0 0 380.17 475.55"><defs><style>.cls-1,.cls-2,.cls-3,.cls-4,.cls-6{fill:none;}.cls-1,.cls-2,.cls-3,.cls-4{stroke:#000;}.cls-1{stroke-width:0.55px;}.cls-2{stroke-width:0.5px;}.cls-3{stroke-width:0.4px;}.cls-4{stroke-width:0.44px;}.cls-5{fill:#fff;}.cls-6{opacity:0.12;}</style></defs><title>アートボード 35</title><g id="letter_ol"><path d="M45.23,70.92v-5.5c-.21,1.43-1.12,1.8-1.6,1.8-.78,0-.83-.63-1-1.69a22.05,22.05,0,0,0-.93-4.92H40.32v4a6.28,6.28,0,0,1,3.07,5.06c0,1.73-1,2.35-1.59,2.35-.74,0-.89-.77-.91-1.69a23,23,0,0,0-.57-5.1V85.6c0,.77-.17.77-.5.81L38,86.63c-.52.07-.54-.18-.54-.92v-13a19.07,19.07,0,0,1-3.68,5.91l0,0c1.35-3,3-10,3.53-18H34.21l-.12-.4h3.37V52.54c.52.07,2.74.33,3.19.4s.46,0,.46.29-.34.41-.79.55v6.43h.59l1-2.5c.07-.22.23-.66.35-.66a11.88,11.88,0,0,1,2.2,3.3c0,.26-.17.26-.31.26H42.42a5.36,5.36,0,0,1,2.81,3.78V52.54c.65.07,2.2.22,3,.36.41.08.46.08.46.26s-.29.37-.74.55V69.16c0,5,0,13.69-7.16,17.4v-.08c1.79-2.2,4.22-6,4.44-14a34,34,0,0,1-3.51,6.46c-.28-1.06-.86-4.66-.93-5.21Zm6.49-3.3c3.65,1.58,4,4.29,4,5.43,0,2.2-1.31,2.94-1.93,2.94s-.74-.48-.81-1.29a24.33,24.33,0,0,0-1.29-6.35V80.24c0,1,0,1.21,1.38,1.21,1.1,0,1.36-.11,3.08-5.9l.09,0c0,.52-.33,5-.33,5.29a6.16,6.16,0,0,0,.31.84A3.53,3.53,0,0,1,56.44,83c0,2.9-1.72,2.9-4.67,2.9s-2.87-1.29-2.87-3.6V52.5c.89.07,2.51.29,3,.4s.55.11.55.3-.36.36-.76.48V65.53a54.67,54.67,0,0,0,1.41-7.38c.47.33,2.48,2.06,2.88,2.39s.41.36.41.47a.2.2,0,0,1-.22.22,1.68,1.68,0,0,1-.43-.07,18.49,18.49,0,0,1-4.05,5.43Z"/><path d="M78.38,61V52.72c.76.07,3.2.37,3.48.44.1,0,.27.07.27.29,0,.41-.65.59-.7.59v7h1.08l1.24-2.53c.21-.4.21-.47.31-.47a12.35,12.35,0,0,1,2.45,3.15c0,.29-.16.29-.31.29H81.43v9.8h1.29l1.55-3.08c.19-.4.22-.44.29-.44a18,18,0,0,1,2.76,3.67c0,.26-.16.26-.31.26H81.43V85.31c0,.58,0,.88-.43.91l-2.14.23c-.26,0-.48,0-.48-.81v-14H74.06a17.44,17.44,0,0,1-2.81,9.79A12.72,12.72,0,0,1,65.34,86v-.11c4.19-3.56,5.55-8,5.72-14.27h-5.8l-.12-.41h5.92v-9.8H66.17L66.05,61h5V52.65c.29,0,3.29.47,3.51.55s.28.07.28.29-.21.4-.74.62V61Zm-4.27.44v6.76c0,1,0,1.5,0,3h4.32v-9.8Z"/><path d="M102.59,70.22a65.4,65.4,0,0,0-1.24,9.66,7.41,7.41,0,0,0,.5,2.71,4.93,4.93,0,0,1,.16,1.07,1.48,1.48,0,0,1-1.45,1.57c-2.65,0-2.91-7.63-2.91-11.11A81.83,81.83,0,0,1,99.06,60a30.18,30.18,0,0,0,.5-4.66,15.31,15.31,0,0,0-.14-2A11.19,11.19,0,0,1,102,59.58a12.17,12.17,0,0,1-.6,3.23,42.52,42.52,0,0,0-1.57,11.41c0,1.29.19,1.47.43,1.47s.28-.14.55-.84c.54-1.54,1.59-4.51,1.64-4.63ZM113.18,60a3.05,3.05,0,0,0,1.83.66c.53.07.91.51.91,1.28,0,2.43-3.17,3.64-3.89,3.89.14,5.51.38,8.11.55,9.77a6.16,6.16,0,0,1,4.08,5.39c0,1.21-.62,2.06-1.29,2.06-.5,0-.67-.26-1.53-1.55A8.22,8.22,0,0,0,112.7,80c.19,4.62-2.67,4.84-3.55,4.84-.48,0-4-.26-4.46-3-.08-.44-.5-2.86-.5-3.41,0-3.75,3.81-3.75,4.88-3.75a9,9,0,0,1,1.22.08c-.12-3.23-.19-5.69-.24-8.41a6.25,6.25,0,0,1-1.14.11c-2.46,0-3.25-2.6-3.87-4.7a3.36,3.36,0,0,0,2.75,1.44A6.48,6.48,0,0,0,110,62.7c0-1-.07-6.05-.14-6.46a1.21,1.21,0,0,0-1-1c.33-.88.85-1.61,1.59-1.61a2.89,2.89,0,0,1,2.25,2.56c0,.3-.17,1.51-.22,1.84a28.44,28.44,0,0,0-.4,3.6c.71-.48,1.16-.81,1.16-1.29a.78.78,0,0,0-.07-.33Zm-5.11,18c-.47,0-2.41,0-2.41,1.51s.93,1.65,1.77,1.65c2,0,2.88-.77,2.86-2.87A10.58,10.58,0,0,0,108.07,77.93Z"/><path d="M136.36,67.22c4.79,0,6,5.61,6,9,0,6.17-3,9.18-7.11,9.18a4.5,4.5,0,0,1-4.84-4.74c0-2,1-4.07,3-4.07,1.59,0,2.64,1.36,2.64,3.3a3,3,0,0,1-.31,1.54c1.08-.25,3.77-.91,3.77-6.78,0-2.06-.38-6.13-3.65-6.13-2,0-3.74,1.61-5.58,6.75a28.62,28.62,0,0,0-1.12,4.29c-.12.55-.33,1.47-1.24,1.47-1.38,0-1.57-2.27-1.57-3.6s.16-1.68,1.57-4c.36-.62,5.77-10.16,8.06-14.86a2,2,0,0,0,.22-.81c0-.14-.05-.29-.17-.29A6.56,6.56,0,0,0,134.59,59c-1.12,1.47-1.5,1.73-2.31,1.73-1.65,0-2.48-2.57-2.63-3.89a2.09,2.09,0,0,0,1.27.62c1.05,0,3.29-2,4.41-2.94s1.19-1,1.58-1c.64,0,2.79.55,2.79,3.67,0,1.1-.27,1.35-1.1,2.24-1.69,1.76-4.49,7.78-4.72,8.36A5.12,5.12,0,0,1,136.36,67.22Zm-2.39,13c0-.59-.28-1.36-1-1.36s-.81.77-.81,1.1a1.31,1.31,0,0,0,1.29,1.32A1.25,1.25,0,0,0,134,80.17Z"/><path d="M153.5,73.12c0,5.62,2.56,5.95,6.49,5.95a10,10,0,0,0,4.7-.85,2.87,2.87,0,0,1,1.05-.33c.45,0,2.27.92,2.27,2.43,0,2.38-1.51,3.52-6.71,3.52-3.55,0-8.32-.26-8.32-7.52a28.35,28.35,0,0,1,.57-4.77C153.53,72.32,153.5,72.61,153.5,73.12Zm3.39-10.05A27.68,27.68,0,0,1,159.8,60c-.55,0-.83.07-1.29.07-2.76,0-3.36-1.9-3.84-5.76a2.62,2.62,0,0,0,2.6,2,18.91,18.91,0,0,0,4.8-1.14,5.53,5.53,0,0,1,1.9-.48c1.89,0,2.15,2.06,2.15,2.9,0,1.87-1,2-3,2.28a12.87,12.87,0,0,0-6.25,3.41Z"/><path d="M34.5,194.5c10.15-6.72,19.3-16.32,22.5-41.72-1.66.44-14.31,2.49-15.89,3.83s-1.66,1.48-2.12,1.48c-1.5,0-3.78-4.93-3.78-8A15.71,15.71,0,0,1,36,146c1.62,3.46,2.66,4.35,4.9,4.35,3.41,0,14.6-1.21,15.64-2a21.39,21.39,0,0,0,1.58-2c.34-.45.75-1,1.25-1,1.08,0,5.2,5.89,5.2,7.61,0,.64-1.33,2.18-1.87,2.82-4,17.73-8,33.47-28.2,39Z"/><path d="M91.53,171.4c0,.51-.58,2.75-.62,3.2-.17,1.85-.63,9.85-.84,11.52,5-.52,5.2-.58,6.24-.84a3.74,3.74,0,0,0,2.08-1.47c.54.52,3.12,2.18,3.62,2.63a3.25,3.25,0,0,1,1.38,2.62c0,.32-.09,2.18-1.38,2.18a12.75,12.75,0,0,1-3.12-.77,15.31,15.31,0,0,0-5.57-1c-3.83,0-13,1.41-14,2.44-.83.83-1.12,1.08-1.41,1.08-1,0-4-3.32-4-6.52a7.47,7.47,0,0,1,.79-3.07c.63,3.32,2.13,3.64,3.75,3.64,2.37,0,5.41-.32,8.32-.57,0-1.73.21-7.94.21-11.59,0-2.24,0-3.77-1-5.69a11,11,0,0,0-3.29,1.09,6.74,6.74,0,0,1-1.49.76c-1,0-3.25-2.88-3.25-4.8a7,7,0,0,1,1-3.39c.54,2.11,1.54,3.2,2.74,3.2a99.91,99.91,0,0,0,11-1.66,5,5,0,0,0,2.32-1.6c.59.45,3.12,2.17,3.62,2.62a2.47,2.47,0,0,1,.71,1.79c0,1.41-.83,1.54-1.25,1.54-.87,0-4.7-.32-5.45-.32a30.11,30.11,0,0,0-3.12.19C89.83,168.77,91.53,169.93,91.53,171.4Z"/><path d="M114.37,182.79c12.56-12,22.55-34.49,22.55-37.82,0-.64,0-1.6-2.33-3.39a6.45,6.45,0,0,1,2.83-1c2.49,0,5.86,4.42,5.86,7.23,0,.84-.08,1-1,1.86-1.29,1.28-5.36,9.54-6.24,11.07.58.51,1.92,1.54,1.92,2.69a11,11,0,0,1-.25,1.79c-.34,1.79-.42,2.24-.42,6.91,0,3.2.58,19.07.58,19.9,0,3.46-1.49,4.74-2.37,4.74-2.54,0-3.2-6.08-3.2-7.36,0-.9.46-4.86.5-5.63.12-1.86.29-5.25.29-12,0-2.05,0-4.1-.08-6.15-6.58,9.6-13.69,15.17-18.6,17.48Z"/><path d="M162.17,144.65c1.08,0,4.91,2.17,4.91,3.9,0,.39-.38,1.79-.42,2-.12.7-.21,8-.21,9.21,0,1.41.25,7.56.25,8.77,0,2.5-.25,6.47-2.45,6.47-2,0-2.75-3.91-2.75-5.32,0-.51.21-2.75.25-3.2.17-2.62.25-10,.25-12.54,0-2.3,0-6.08-3.12-5.82C159.63,146.12,161,144.65,162.17,144.65Zm-.79,52.09c11.23-8.26,12.89-17.34,12.89-41,0-10.17,0-11.52-2-11.52a6.13,6.13,0,0,0-1.42.26c.5-1.54,1.21-3.84,4.33-3.84,2.54,0,4.82,2.75,4.82,4.35,0,.58-.49,2.88-.54,3.39,0,.77-.08,10.56-.12,15.87-.08,18.05-3.12,27.52-18,32.64Z"/><path d="M192.08,194.12c15.85-15.49,20.34-30.4,22.92-43.65-1.58.39-7.78,2.05-10.36,3.78a13.77,13.77,0,0,1-2.49,1.85c-1.21,0-4.91-4.09-4.91-7.74a5.35,5.35,0,0,1,1.29-3.71c.25,4,3.12,4,3.91,4,1.29,0,10.94-.7,13-2.5.21-.19.91-1.08,1.29-1.53a.93.93,0,0,1,.75-.45c1,0,5.24,4.48,5.24,6.34,0,1.53-1,1.79-2,2.11a94.05,94.05,0,0,1-6.65,18.81c5.57,2.63,12.51,8.32,12.51,15.81,0,4.29-2.2,5.76-3.16,5.76-1.16,0-1.62-1.47-2.53-4.42-2-6.46-4.29-11.84-7.32-16.19-4.29,8.32-10.82,16.7-21.47,22Z"/><path d="M246.7,168.13c0,3.08-1.62,5.51-3.58,5.51s-3.57-2.43-3.57-5.51,1.62-5.5,3.57-5.5S246.7,165.06,246.7,168.13Z"/><path d="M37.78,243.09A6,6,0,0,0,42,244.75c.7,0,20.84-2.37,21-2.37.83-.19,1-.38,2.83-2.17a20.65,20.65,0,0,1,4.41,3.58c1.16,1.22,1.66,1.86,1.66,3.14,0,.7-.37,3.26-1.66,3.26-.54,0-.75-.06-2.83-.83a18.2,18.2,0,0,0-7.11-1.47c-7.49,0-15.1,1.73-17.06,2.69a16,16,0,0,1-2.87,1.53c-1.41,0-5.41-4.67-5.41-7.93a6.9,6.9,0,0,1,1.46-4.42A4.65,4.65,0,0,0,37.78,243.09Zm7.7-25.54a30.68,30.68,0,0,0,7.15-1c3.5-.83,4.87-1.73,5.91-2.94,5.16,2.49,5.66,2.68,5.66,4.54,0,3.33-1.17,3.26-3.41,3.39-2,.07-10.49,1.15-12.44,1.6a9.35,9.35,0,0,1-2.66.51c-1.33,0-4.24-2.11-4.24-6.72a8.83,8.83,0,0,1,.33-2.24C42.65,216.66,43.86,217.55,45.48,217.55Z"/><path d="M103.89,241.49a80.6,80.6,0,0,0,3.41-12c-4.21,2.11-6.53,3.39-8.16,4.29,1,6.14,2.67,15.93,3.62,20.09a14.64,14.64,0,0,1,.46,3.46c0,3.58-1.71,4.73-2.7,4.73-1.46,0-1.63-1.91-1.83-3.83-.84-8.07-1.54-14.92-2.79-22.59-1.08.7-4.33,2.81-5.41,4.28-.75,1-.83,1.09-1.29,1.09-1.08,0-3.12-2.18-3.41-2.5a3.83,3.83,0,0,1-1.21-3,12.6,12.6,0,0,1,.63-3.78c.66,2.63,1.79,3,2.33,3s5.16-1.86,7.78-2.88c-1.63-9.54-2.25-11.65-4.62-11.2.42-2.11,1.75-3.14,3.12-3.14,1,0,4,1,4,2.95,0,.45-.12,2.24-.12,2.62a74,74,0,0,0,.91,7.49c3.37-1.41,8.16-3.39,9.57-4.93,1-1,1.21-1.34,1.54-1.34.91,0,4.2,4.86,4.2,6a1,1,0,0,1-.83,1.16,5.58,5.58,0,0,0-1.17.44,61.68,61.68,0,0,1-8,9.73Z"/><path d="M160.75,216.59c-3,10.82-8.78,27.52-26,39.87a6.47,6.47,0,0,0-1.91,1.92c-.17.2-.58.71-1,.71-1.41,0-5.49-6.34-5.49-10.37a6.22,6.22,0,0,1,1.37-4c.46,1.79,1,3.77,2.5,3.77,2.87,0,17.64-7.23,30.37-32Zm-25-3a8.33,8.33,0,0,1,3.74,7.1c0,3.07-1.58,5.31-3.12,5.31-1.24,0-1.58-.83-2.87-4.16a30,30,0,0,0-6.4-9.92C131.68,212,133.71,212.37,135.71,213.59Z"/><path d="M174.44,243.09a6,6,0,0,0,4.2,1.66c.71,0,20.84-2.37,21-2.37.83-.19,1-.38,2.83-2.17a20.37,20.37,0,0,1,4.4,3.58c1.17,1.22,1.67,1.86,1.67,3.14,0,.7-.38,3.26-1.67,3.26-.54,0-.74-.06-2.82-.83a18.29,18.29,0,0,0-7.12-1.47c-7.48,0-15.1,1.73-17.05,2.69a16,16,0,0,1-2.87,1.53c-1.42,0-5.41-4.67-5.41-7.93a6.9,6.9,0,0,1,1.46-4.42A4.61,4.61,0,0,0,174.44,243.09Zm7.7-25.54a30.76,30.76,0,0,0,7.15-1c3.49-.83,4.87-1.73,5.91-2.94,5.16,2.49,5.65,2.68,5.65,4.54,0,3.33-1.16,3.26-3.41,3.39-1.95.07-10.48,1.15-12.43,1.6a9.39,9.39,0,0,1-2.67.51c-1.33,0-4.24-2.11-4.24-6.72a9.31,9.31,0,0,1,.33-2.24C179.31,216.66,180.51,217.55,182.14,217.55Z"/><path d="M240.54,241.49a78.26,78.26,0,0,0,3.41-12c-4.2,2.11-6.53,3.39-8.15,4.29,1,6.14,2.66,15.93,3.62,20.09a14.64,14.64,0,0,1,.46,3.46c0,3.58-1.71,4.73-2.71,4.73-1.45,0-1.62-1.91-1.83-3.83-.83-8.07-1.54-14.92-2.78-22.59-1.09.7-4.33,2.81-5.41,4.28-.75,1-.83,1.09-1.29,1.09-1.08,0-3.12-2.18-3.41-2.5a3.83,3.83,0,0,1-1.21-3,12.6,12.6,0,0,1,.63-3.78c.66,2.63,1.78,3,2.33,3s5.15-1.86,7.77-2.88c-1.62-9.54-2.24-11.65-4.61-11.2.41-2.11,1.74-3.14,3.12-3.14,1,0,4,1,4,2.95,0,.45-.13,2.24-.13,2.62a74.09,74.09,0,0,0,.92,7.49c3.37-1.41,8.15-3.39,9.57-4.93.95-1,1.2-1.34,1.54-1.34.91,0,4.2,4.86,4.2,6a1,1,0,0,1-.84,1.16,5.42,5.42,0,0,0-1.16.44,61.69,61.69,0,0,1-8,9.73Z"/><path d="M297.41,216.59c-3,10.82-8.78,27.52-26,39.87a6.47,6.47,0,0,0-1.91,1.92c-.17.2-.59.71-1,.71-1.41,0-5.49-6.34-5.49-10.37a6.16,6.16,0,0,1,1.37-4c.46,1.79,1,3.77,2.5,3.77,2.87,0,17.63-7.23,30.36-32Zm-25-3a8.33,8.33,0,0,1,3.74,7.1c0,3.07-1.58,5.31-3.12,5.31-1.25,0-1.58-.83-2.87-4.16a30.16,30.16,0,0,0-6.4-9.92C268.33,212,270.37,212.37,272.37,213.59Z"/><path d="M36.34,306.48l.45-1c.05-.11.1-.25.16-.25a5.19,5.19,0,0,1,.85,1.34c0,.13-.07.13-.14.13H36.19v1.68a3.14,3.14,0,0,1,1.47,2.42c0,.72-.3,1.2-.7,1.2s-.38-.13-.39-.53a9.77,9.77,0,0,0-.38-2.93v7.75c0,.27,0,.33-.22.35l-.77.08c-.23,0-.26,0-.26-.35v-5.53a9.51,9.51,0,0,1-1.87,2.71v0a28.18,28.18,0,0,0,1.72-6.8H33.13l-.06-.19h1.87v-2.36a15.14,15.14,0,0,1-1.62.08v-.06a14.87,14.87,0,0,0,3-2.29c.23.22,1.29,1.26,1.47,1.46a.53.53,0,0,1,.18.32c0,.06-.06.08-.1.08a.68.68,0,0,1-.25-.07c-.56.15-.63.16-1.45.32v2.52Zm6.9,8.24a1.83,1.83,0,0,0-.94,1.5c0,.18-.11.26-.21.26-.31,0-.9-.91-1.28-2.19a21.18,21.18,0,0,1-.5-5.35c-.16,2.34-.37,6.05-4,7.65v-.06c2.65-2.61,2.72-5.54,2.72-10.1V301.8c.18,0,1.63.18,1.63.37s0,.11-.34.19v4.82c0,.91,0,1.2,0,1.76a24.58,24.58,0,0,0,.91-4.3A11.81,11.81,0,0,1,43,305.92c0,.12-.23.12-.3.12a21.24,21.24,0,0,1-2.25,3.11,7,7,0,0,0,2.83,5.52Zm-5-9.48a10.14,10.14,0,0,1,.44,2.82c0,1.09-.32,1.87-.79,1.87s-.73-.59-.73-1.13a.74.74,0,0,1,.18-.53,5.51,5.51,0,0,0,.88-3Z"/><path d="M46.82,312l0-.2H51v-1.72H49.76v.62c0,.22,0,.29-.21.3l-.82.1c-.2,0-.2-.05-.2-.32v-4H46.76l0-.2h1.82v-1.44c.51.08,1.17.18,1.46.26.06,0,.1.05.1.1s-.1.14-.33.22v.86h1.1v-1.71c.46.05,1.12.16,1.32.21s.18.05.18.13-.2.19-.29.22v1.15h1.17v-1.6c1,.1,1.52.16,1.52.34s-.26.19-.32.21v1h.32l.5-.94c.05-.11.11-.19.15-.19a4.81,4.81,0,0,1,.89,1.21c0,.12,0,.12-.11.12H54.44v2c0,.23,0,.34-.19.36l-.8.08c-.2,0-.21,0-.21-.28v-.32H52.07v.32c0,.26,0,.37-.17.39l-.84.1c-.2,0-.2,0-.2-.36v-2.25h-1.1v3.13h4.51l.49-1c.08-.16.11-.19.14-.19a6,6,0,0,1,1,1.25c0,.13-.06.13-.11.13H52.19v1.72h2.34l.56-1.12c.06-.11.09-.2.12-.2a5.34,5.34,0,0,1,1,1.4c0,.12,0,.12-.1.12h-3.9a5.44,5.44,0,0,0,3.89,2.27l0,.05a2.2,2.2,0,0,0-.57,1.42c0,.43-.11.55-.22.55a4.07,4.07,0,0,1-1.43-.84A7.48,7.48,0,0,1,52.22,312h0v4.29c0,.24,0,.33-.22.36l-.73.1c-.24,0-.25,0-.25-.4v-3.43a8.79,8.79,0,0,1-4.16,3.41l0,0a13.94,13.94,0,0,0,3-4.29Zm5.42-8.39v-1.76a3.58,3.58,0,0,1,1.6.38c0,.08-.13.16-.33.24v1.14h1l.52-1.09c.06-.1.1-.21.14-.21a5.43,5.43,0,0,1,1,1.36c0,.1,0,.12-.11.12H53.51v.71c0,.23,0,.37-.2.39l-.84.08c-.15,0-.23,0-.23-.35v-.83H50.72v.79c0,.2,0,.34-.21.36l-.86.09c-.15,0-.2,0-.2-.32v-.92H46.93l0-.18h2.57v-1.71c.15,0,1.58.14,1.58.33s-.08.15-.31.24v1.14Zm-.17,3.14v1.61h1.17v-1.61Z"/><path d="M66.45,310.24v4.53c0,.7,0,1.07-.25,1.39a2.16,2.16,0,0,1-1.24.51c-.23,0-.26-.14-.26-.33,0-1-.07-1.53-1.08-2v0c.21,0,1.11.09,1.3.09s.29-.11.29-.58v-3.61h-.89c0,.46,0,.61-.25.64l-.72.09c-.27,0-.27,0-.27-.28v-5.8a14.26,14.26,0,0,1,1.31.63h.24c.06-.53.16-1.46.19-2H62.36v4.21c0,3.88-.4,6.93-2.4,8.87l0-.05c1-1.95,1.13-4.66,1.13-7.67v-6.17c.47.17,1.1.48,1.39.62h5.31l.59-1.26c0-.13.09-.21.12-.21a8.33,8.33,0,0,1,1.21,1.53c0,.13-.06.13-.13.13h-3a16,16,0,0,1-1.23,2h1.9l.37-.8c.12-.29.14-.33.18-.33A5.77,5.77,0,0,1,69,306a.33.33,0,0,1-.12.21c0,.05-.31.23-.37.27v4c0,.32,0,.44-.28.47l-.77.09c-.17,0-.22,0-.22-.22v-.51ZM61.08,316a14.79,14.79,0,0,0,2.51-4.66,10.12,10.12,0,0,1,1.35,1.19s0,.08-.09.08a1,1,0,0,1-.27-.07,8.16,8.16,0,0,1-3.49,3.51Zm3.25-10.29v2.06h3v-2.06Zm3,4.34V308h-3v2.09Zm-.44,1.64c1,.23,2.63.74,2.63,2.6,0,.86-.43,1.33-.78,1.33s-.25-.15-.3-.34a9.39,9.39,0,0,0-1.56-3.55Z"/><path d="M78.36,315.81c1-.42,3.38-1.47,3.38-6.45,0-2.31-.68-5.7-3.06-5.68a4.05,4.05,0,0,1,.51,1.87c0,1.61-1.13,9.25-3.31,9.25-.71,0-.81-.67-.95-1.47a5.56,5.56,0,0,0-.48-1.67,4,4,0,0,1-.41-1.84c0-3.78,2.48-6.72,4.92-6.72,2.21,0,4.16,2.34,4.16,6.66,0,2.86-1,4.61-2.06,5.26a5.71,5.71,0,0,1-2.7.85ZM75,310.89a3.66,3.66,0,0,0,.15,1.3c.14.35.4.7.61.7.82,0,2.77-5,2.8-9.18C75.39,304.38,75,309.64,75,310.89Z"/><path d="M87,316.05a16,16,0,0,0,4.39-6.69,6.8,6.8,0,0,0-2.56-2.68,7,7,0,0,1,3.08,1.06,17.26,17.26,0,0,0,.79-3.57.77.77,0,0,0-.6-.85,1,1,0,0,1,.84-.69c.66,0,1.5,1.19,1.5,1.56,0,.16,0,.19-.29.54-.66,2.45-.88,3.11-1.17,3.95A3.45,3.45,0,0,1,94,311c0,1-.47,1.41-.81,1.41s-.43-.18-.57-.56c-.26-.7-.29-.78-.43-1.12A10.28,10.28,0,0,1,87,316.1Z"/><path d="M98.23,312.91c3.14-3,5.64-8.63,5.64-9.46,0-.16,0-.4-.58-.85a1.6,1.6,0,0,1,.71-.25c.62,0,1.46,1.1,1.46,1.8,0,.21,0,.24-.25.47a27.75,27.75,0,0,0-1.56,2.77c.15.13.48.38.48.67a2.85,2.85,0,0,1-.06.45,7.25,7.25,0,0,0-.11,1.73c0,.8.15,4.77.15,5,0,.86-.37,1.18-.59,1.18-.64,0-.8-1.52-.8-1.84s.11-1.22.12-1.41c0-.46.07-1.31.07-3,0-.51,0-1,0-1.54A12.59,12.59,0,0,1,98.24,313Z"/><path d="M115.39,309.79c0,.69-.28,1.17-.69,1.17s-.44-.29-.81-1.11a6.13,6.13,0,0,0-1.73-2.16c0,1.68,0,2.88,0,3.62,0,.56.2,3,.2,3.5s-.11,1.69-.69,1.69-.78-1.3-.87-2.24a43.7,43.7,0,0,0,.31-6.07c0-.53,0-4-.1-4.48,0-.34-.23-.61-.56-.61a.69.69,0,0,0-.32.08c.22-.56.6-1.07,1-1.07s1.3.22,1.3,1c0,.19-.17,1-.19,1.14-.06.57-.09,2.4-.09,3.12C113.93,307.5,115.39,308.33,115.39,309.79Zm.33-4.19c0,.43-.18.73-.43.73s-.26-.09-.48-.62a5,5,0,0,0-1.06-1.65C114.93,304.09,115.72,304.68,115.72,305.6Zm-.7-3.17a2,2,0,0,1,1.54.62,1.22,1.22,0,0,1,.22.71c0,.36-.16.68-.42.68s-.22-.06-.53-.64a3.51,3.51,0,0,0-1.18-1.34A2.05,2.05,0,0,1,115,302.43Z"/><path d="M125.73,302.86c0-.08.07-.19.12-.19a9.83,9.83,0,0,1,.78,1.12h1.49l.33-.79c.07-.16.11-.29.18-.29s.3.28.74.77.41.5.41.67-.07.23-.42.45a29,29,0,0,1-.34,4.73c-.14.56-.39,1.12-1.23,1.12-.32,0-.32-.12-.32-.61a1.59,1.59,0,0,0-.48-1.38A5.82,5.82,0,0,1,125.7,310c.36.08,1,.21,1,.33s-.19.18-.32.2c-.06.49-.08.64-.12.91h1.84l.55-1.12c.06-.1.1-.19.13-.19a6.5,6.5,0,0,1,1,1.39c0,.11-.07.11-.13.11h-3.35a4.18,4.18,0,0,0,3.44,2.79v.06a1.86,1.86,0,0,0-.73,1.41c-.07.49-.1.67-.27.67a3.21,3.21,0,0,1-1-.78,6.42,6.42,0,0,1-1.5-4,6.85,6.85,0,0,1-1.08,2.92,5.2,5.2,0,0,1-3.45,2v-.05a5.94,5.94,0,0,0,2.58-2.72,7.16,7.16,0,0,0,.63-2.26h-1.61v.5c0,.35,0,.35-.21.38l-.64.1c-.26,0-.29,0-.29-.37v-1.06h-.48v2.21c0,.38,0,.37-.22.4l-.69.1c-.25,0-.25,0-.25-.37v-10a9,9,0,0,1,1.11.54H122l.39-.78c.06-.13.13-.22.19-.22s.12.08.61.72h.84l0-1.92c.59.09.83.14,1.36.25,0,0,.11.05.11.1s-.21.16-.29.19l0,1.38h.14Zm-4.09,1.41V311h.48v-6.72Zm1.72-.31c.27.37.3.42.3.51s-.27.33-.4.39v3.31l.86-.05,0-2h-.68l0-.17h.72l0-2Zm1.54,7.48c0-.55.07-.9.09-1.59a5,5,0,0,0,.6.13,5.71,5.71,0,0,0,.73-1.82,14,14,0,0,1-2.67,2.25c-.06-.27-.33-1.44-.39-1.69v2.72Zm.36-5.49h0l.39-.95c0-.09.06-.17.11-.17a7,7,0,0,1,.85,1.17c0-.6.06-1.2.06-1.89V304h-1.49Zm1.11,2.05a15.21,15.21,0,0,0,.27-1.92.09.09,0,0,1-.08,0h-1.3l0,1.94Zm1.53-4a11.44,11.44,0,0,1-.88,4.44c.06,0,.59.11.7.11s.31,0,.39-1.47c.08-1.17.07-1.91.07-3.08Z"/><path d="M139.49,303.77v-1.94c.43.07,1,.15,1.44.2.06,0,.16,0,.16.14s0,.14-.3.24v1.36h.6l.59-1.3c.07-.16.09-.2.13-.2a6.83,6.83,0,0,1,1.2,1.57c0,.12-.05.12-.1.12h-2.42v1.54c0,.22,0,.34-.2.35l-.91.1c-.19,0-.19-.13-.19-.37V304h-2.21v1.51c0,.25,0,.32-.19.33l-.9.1c-.2,0-.2-.11-.2-.29V304h-2.28l-.05-.19H136v-1.95c.48.06,1,.13,1.45.22.09,0,.15,0,.15.15s-.09.16-.31.22v1.36Zm4.09,5.32a2.16,2.16,0,0,0-.69,1.47c-.06.57-.06.64-.22.64-.35,0-2.95-1.27-3.8-5.14a13.56,13.56,0,0,1-5.2,5.28v-.06a20.31,20.31,0,0,0,3.92-6.36l1.52.68s.16.08.16.17,0,.11-.31.15a5.81,5.81,0,0,0,4.62,3.12ZM134,316a19.64,19.64,0,0,0,2-4.5c.21.15,1.15.8,1.34.92s.16.12.16.19a.11.11,0,0,1-.13.11,1.08,1.08,0,0,1-.19,0A9.45,9.45,0,0,1,134,316Zm5.8-5.07.42-1.12c0-.12.08-.2.13-.2a6.36,6.36,0,0,1,1,1.38c0,.13-.06.13-.11.13h-2.25v5.17c0,.29,0,.38-.23.4l-.83.08c-.21,0-.21-.05-.21-.35v-5.3H135l-.06-.19h2.81v-2.37l1.39.3c.09,0,.14.07.14.13s0,.11-.26.21v1.73Zm-.19,1.07c.87.22,2.8.75,2.8,2.69,0,1.15-.67,1.31-.84,1.31s-.24-.11-.33-.49a8.54,8.54,0,0,0-1.63-3.48Z"/><path d="M149.83,309.21c-.07.31-.34,1.65-.37,1.86a12.71,12.71,0,0,0-.21,2,4.69,4.69,0,0,0,.15,1.3,4.11,4.11,0,0,1,.17.9c0,.33-.29.81-.57.81-.66,0-1.17-1.9-1.17-4.58a53.44,53.44,0,0,1,.5-6.08,16.3,16.3,0,0,0,.09-1.73,4.3,4.3,0,0,0-.23-1.5,5.67,5.67,0,0,1,1.27,3.42A20.11,20.11,0,0,1,149,309a12.41,12.41,0,0,0-.24,2.4c0,.43,0,.56.09.56s.2-.42.27-.61l.71-2.18Zm1.81,2.79c0,1.53.84,1.53,1.14,1.53a5.78,5.78,0,0,0,1.84-.4,2.37,2.37,0,0,1,.75-.19c.28,0,.66.16.66.88a1.37,1.37,0,0,1-.51,1.17,3.41,3.41,0,0,1-2,.58,1.8,1.8,0,0,1-1.78-.91,3.5,3.5,0,0,1-.48-1.75,4.1,4.1,0,0,1,.44-1.79A4.87,4.87,0,0,0,151.64,312Zm1.07-7.83a2.43,2.43,0,0,0,1-.32c.82-.48.85-.5,1-.5a1,1,0,0,1,.83,1c0,1.17-1.64,1.32-2,1.32s-1.16,0-1.54-2C152.16,304,152.36,304.17,152.71,304.17Z"/><path d="M163.16,303.8v-1.92c.37,0,.43,0,1.28.13a.12.12,0,0,1,.13.13c0,.06,0,.13-.28.25v1.41h.14l.44-.88c0-.11.09-.19.12-.19a4.52,4.52,0,0,1,.85,1.15c0,.11-.07.11-.13.11h-1.42v1.16c0,.19,0,.32-.18.35l-.74.1c-.21,0-.21-.2-.21-.36V304h-.59v1.35c0,.21,0,.29-.2.3l-.75.1c-.18,0-.22-.1-.22-.38V304h-1.22l-.05-.19h1.27v-2l1.28.19q.18,0,.18.15c0,.14-.11.17-.29.24v1.42Zm2.15,2.42c.37.51.4.56.4.69s0,.22-.43.49v1.49c0,.24,0,.32-.2.34l-.78.08c-.19,0-.19-.13-.19-.32h-.62v1.42h.62l.4-.89c.07-.16.1-.21.13-.21a5.08,5.08,0,0,1,.89,1.17c0,.11-.07.11-.13.11h-1.91v1.54H164l.4-.9c0-.1.08-.19.11-.19a4.86,4.86,0,0,1,.84,1.15c0,.13-.06.13-.12.13h-1.72v1.55l1.64-.16v.05a25.05,25.05,0,0,1-4.2,2.75c-.13-.46-.34-1.28-.55-2.33l1.94-.2v-1.66h-1.89l-.05-.19h1.94v-1.54h-2l0-.18h2V309h-.58v.37c0,.2,0,.28-.19.32l-.74.09c-.22,0-.22-.06-.22-.33v-3.59a10.45,10.45,0,0,1,1.27.39H164l.29-.64c.09-.18.13-.28.19-.28s.54.56.67.72h1V302l1.39.16s.18,0,.18.15-.1.19-.3.27V306h.51l.39-.78c.07-.14.16-.3.22-.3a5.31,5.31,0,0,1,1.22,1.6c0,.25-.34.38-.43.43,0,3.22-.16,7.59-.57,8.61a1.47,1.47,0,0,1-1.51,1c-.22,0-.26-.05-.26-.29,0-.08,0-.43,0-.5,0-.88-.38-1.12-.95-1.48v-.08a8,8,0,0,1-2.36,2.43v-.05c2.33-2.85,2.46-6.43,2.46-10.42Zm-3,2.58v-2.39h-.58v2.39Zm1.17-2.39v2.39h.62v-2.39Zm3.94-.19c0,2.45-.12,5.84-1.36,8,.15,0,1,.13,1.13.13.35,0,.5,0,.6-.61a63.79,63.79,0,0,0,.27-7.54Z"/><path d="M177.06,316.37c2-.56,4-1.87,4-6a8.27,8.27,0,0,0-.58-3.2,1.84,1.84,0,0,0-1.29-1.12,30.34,30.34,0,0,1-1,4.88,2.72,2.72,0,0,1,.45,1.55c0,.28,0,.8-.29.8a1.35,1.35,0,0,1-.85-.6c-.73,1.69-1.37,2.38-2,2.38-.12,0-.49,0-.73-.65-.06-.16-.25-1-.32-1.17a4.08,4.08,0,0,1-.49-2,6.92,6.92,0,0,1,1.62-4.16c-.07-.64-.12-1.09-.24-2.28a2.73,2.73,0,0,0-.54-1.76,1.11,1.11,0,0,1,1,.79,9.33,9.33,0,0,1,.55,2.53,4.53,4.53,0,0,1,2.07-.85,17.12,17.12,0,0,0,.19-2.47c0-.72-.12-.89-.26-1.07a.51.51,0,0,1,.2-.06c.31,0,.88.52.88,1.74,0,.21,0,.82-.13,1.89,3,.66,3.18,4.67,3.18,5.51,0,1.1-.21,3.57-2.09,4.54a7.09,7.09,0,0,1-3.25.79Zm-1.34-8a7.65,7.65,0,0,0-1,3.6c0,.46,0,1.54.36,1.54s.94-.45,1.65-2A12.76,12.76,0,0,1,175.72,308.35Zm.71-1.06a7.91,7.91,0,0,0,1,2.63,26.79,26.79,0,0,0,.89-3.88A3.52,3.52,0,0,0,176.43,307.29Z"/><path d="M191.13,308.24c2.09,0,2.63,2.45,2.63,3.93,0,2.69-1.33,4-3.1,4a2,2,0,0,1-2.11-2.07c0-.86.43-1.78,1.31-1.78.69,0,1.15.6,1.15,1.44a1.43,1.43,0,0,1-.13.68c.46-.11,1.64-.4,1.64-3,0-.9-.17-2.68-1.59-2.68-.89,0-1.64.71-2.44,2.95a13.15,13.15,0,0,0-.49,1.87c-.05.24-.14.64-.54.64-.6,0-.68-1-.68-1.57s.07-.73.68-1.74c.16-.27,2.52-4.44,3.52-6.49a.85.85,0,0,0,.09-.35c0-.06,0-.13-.07-.13a2.93,2.93,0,0,0-.64.68c-.49.64-.66.75-1,.75-.72,0-1.09-1.12-1.15-1.7a.9.9,0,0,0,.55.27c.46,0,1.44-.86,1.93-1.28s.52-.44.68-.44,1.22.24,1.22,1.6c0,.48-.11.59-.48,1a19.66,19.66,0,0,0-2.06,3.65A2.21,2.21,0,0,1,191.13,308.24Zm-1,5.65c0-.26-.13-.6-.44-.6s-.36.34-.36.48a.58.58,0,0,0,.57.58A.56.56,0,0,0,190.09,313.89Z"/><path d="M204.11,313.28c0,.88-.41,1.41-.79,1.41s-.42-.23-.83-1.28a7.14,7.14,0,0,0-2.55-3.64,5.79,5.79,0,0,1,2.5.87,31.84,31.84,0,0,0,2.33-4.42,16.06,16.06,0,0,0-4.9,1.49l-.27.27a.29.29,0,0,1-.17.06,2.28,2.28,0,0,1-1.32-1.79,1.66,1.66,0,0,1,.47-1.17c0,.79.15,1,1.13,1s4.82-.56,5.16-.9c.06-.06.31-.42.36-.48a.16.16,0,0,1,.15-.08,3.61,3.61,0,0,1,1.5,2c0,.32-.19.36-.66.48a25.65,25.65,0,0,1-3.62,3.63A3.24,3.24,0,0,1,204.11,313.28Z"/><path d="M210.67,312.91c3.15-3,5.65-8.63,5.65-9.46,0-.16,0-.4-.59-.85a1.65,1.65,0,0,1,.71-.25c.62,0,1.47,1.1,1.47,1.8,0,.21,0,.24-.25.47a25.9,25.9,0,0,0-1.56,2.77c.14.13.48.38.48.67a2.46,2.46,0,0,1-.07.45,7.48,7.48,0,0,0-.1,1.73c0,.8.14,4.77.14,5,0,.86-.37,1.18-.59,1.18-.63,0-.8-1.52-.8-1.84s.11-1.22.12-1.41c0-.46.08-1.31.08-3,0-.51,0-1,0-1.54a12.74,12.74,0,0,1-4.65,4.37Z"/><path d="M223.17,308.22c.31,0,.9-.72,2.4-2.56.26-.32.39-.42.51-.42s.4.26.79.77a23.78,23.78,0,0,0,4.28,4.56,2.73,2.73,0,0,1,.75,1.83c0,.54-.29,1-.59,1-.88,0-3.59-4.16-4.87-6.16-.27-.43-.3-.48-.4-.48-.33,0-2,3.12-2.1,3.52s-.18.54-.35.54-.24,0-.74-.78a3.06,3.06,0,0,1-.52-1.59,2.91,2.91,0,0,1,.25-1.07C222.74,308,223,308.22,223.17,308.22Zm8-4c0,.94-.5,1.69-1.11,1.69s-1.11-.75-1.11-1.69.5-1.72,1.11-1.72S231.17,303.23,231.17,304.19Zm-1.84,0c0,.62.33,1.12.73,1.12s.73-.5.73-1.12-.33-1.14-.73-1.14S229.33,303.55,229.33,304.19Z"/><path d="M237.6,308.62c.44,0,5.26-.18,5.66-.21.13,0,.67-.09.78-.09s1.26.19,1.26.86a.88.88,0,0,1-.49.74,2.67,2.67,0,0,1-1.18.17c-4.77,0-5.3,0-5.73.16a5.32,5.32,0,0,1-.77.36,2.37,2.37,0,0,1-1.19-2.12,1.36,1.36,0,0,1,.3-.89A1.21,1.21,0,0,0,237.6,308.62Z"/><path d="M249,315.74a19.18,19.18,0,0,0,5.73-10.91,10.6,10.6,0,0,0-2.59.94c-.11.08-.53.47-.63.47a2.43,2.43,0,0,1-1.22-1.94,1.34,1.34,0,0,1,.32-.93c.06,1,.78,1,1,1s2.73-.18,3.25-.62c.06-.05.23-.28.33-.39a.23.23,0,0,1,.18-.11,3,3,0,0,1,1.32,1.58c0,.39-.25.45-.5.53a24.12,24.12,0,0,1-1.67,4.71c1.4.65,3.13,2.08,3.13,3.95,0,1.07-.55,1.44-.79,1.44s-.4-.37-.63-1.1a14.49,14.49,0,0,0-1.83-4.05,12.07,12.07,0,0,1-5.37,5.49Z"/><path d="M265.05,303.1a.69.69,0,0,0-.47-.75.78.78,0,0,1,.75-.56,1,1,0,0,1,.86,1,3.39,3.39,0,0,1-.27,1,1.52,1.52,0,0,0,.35-.26c.18-.17.2-.19.34-.19a.93.93,0,0,1,.92,1,.57.57,0,0,1-.2.48,12,12,0,0,1-2,1l-.51,1.56a1.41,1.41,0,0,1,.9-.43c.78,0,.91,1.51.93,2,.28-.88,1.11-2.56,2.3-2.56.86,0,1.54.85,1.54,2.1a1.46,1.46,0,0,1-1.06,1.6,16.71,16.71,0,0,0-2.79,1.29c0,.24,0,1.32,0,1.54s0,.78-.56.78-.7-.91-.66-1.55a1.88,1.88,0,0,0-.82,1.47c0,.74.52.84,1.07.84a5.74,5.74,0,0,0,1.77-.34.94.94,0,0,1,.27-.06,1.09,1.09,0,0,1,.94,1.07c0,1-1,1.18-2,1.18a3.45,3.45,0,0,1-2.36-.75,1.85,1.85,0,0,1-.39-1.26c0-.82.31-1.62,1.6-2.6a16.85,16.85,0,0,0,.2-2.41c0-.56,0-1.75-.52-1.75-.31,0-.44.32-1.16,2.15-.48,1.2-1.19,2.46-1.72,2.46-.26,0-.51-.33-.51-1a1.64,1.64,0,0,1,.62-1.39,9,9,0,0,0,1.94-3.47,1.8,1.8,0,0,1-.54.14c-.81,0-1-1.36-1.1-2.21a1.55,1.55,0,0,0,1,.64,3,3,0,0,0,1.15-.38A5.79,5.79,0,0,0,265.05,303.1Zm3.78,5.73a1.49,1.49,0,0,0,.36-.95c0-.36-.31-.94-.78-.94-.2,0-.46.05-1,.77s-.58,1.31-.82,3.14A12.58,12.58,0,0,0,268.83,308.83Z"/><path d="M277.18,313.23v.42c0-.07.05-.08.11-.2.23.13,1.25.76,1.47.87,0,0,.14.06.14.18s0,.14-.36.16a9.77,9.77,0,0,1-4,2v-.05a14.92,14.92,0,0,0,2.62-2.94l-1,.09c-.3,0-.31,0-.31-.33v-5.72a8.5,8.5,0,0,1,1.38.52h4.12l.26-.69.13-.34-.44.05c-.25,0-.25,0-.25-.45h-3.73c0,.45,0,.48-.23.51l-.76.1c-.24,0-.26,0-.26-.34v-2.16h-1.6l0-.17h1.65v-2.37a6.36,6.36,0,0,1,1.34.45H281l.27-.56c.19-.39.21-.44.31-.44a4.24,4.24,0,0,1,1.13,1.35c0,.16-.05.22-.39.46v1.11h.21l.5-1c.1-.18.11-.21.14-.21a6.68,6.68,0,0,1,.88,1.25c0,.11-.05.11-.1.11h-1.63v1.83c0,.37,0,.4-.33.43.21.22.65.7,1,1.06a.53.53,0,0,1,.15.32c0,.17-.15.3-.39.46v4.15c0,.41,0,.44-.24.48l-.79.09c-.24,0-.24,0-.24-.51Zm4.3-3.47v-1.35h-4.3v1.35Zm0,1.6V310h-4.3v1.41Zm0,1.68v-1.51h-4.3V313Zm-4.11-10v1.73h1.23V303Zm0,1.9v1.7h1.23v-1.7Zm2.33,8.79c1.54.13,3.71.29,3.71,2,0,.76-.5,1-.75,1s-.24-.06-.61-.61a7.83,7.83,0,0,0-2.35-2.3Zm.11-10.69v1.73h1.29V303Zm0,1.9v1.7h1.29v-1.7Z"/><path d="M292.55,301.79c.65,0,1.11,1.15,1.11,2,0,.62-.19.82-.76,1.38-1,1-2.11,2.05-3.15,3.12a1.4,1.4,0,0,0-.47.82c0,.31.08.36.85.89a7.2,7.2,0,0,1,3.4,4.4,3.45,3.45,0,0,1,.13.95c0,.64-.34,1.37-.78,1.37-.28,0-.31-.11-.62-1.16a8.67,8.67,0,0,0-3.13-4.9,1.73,1.73,0,0,1-.69-1.35c0-.91.37-1.34,1.07-2.16,1.63-1.92,2.84-3.41,2.84-4.27a.6.6,0,0,0-.52-.66A1,1,0,0,1,292.55,301.79Z"/><path d="M305.7,306.3l.65-1.36c0-.11.09-.18.13-.18a7.9,7.9,0,0,1,1.23,1.6c0,.12-.07.12-.13.12h-2.79c.29.16,1.27.65,1.27.83s-.26.17-.36.17a24,24,0,0,1-1.33,4.49c1,.65,2.28,1.77,2.28,3.2,0,.77-.38,1.34-.79,1.34-.24,0-.29-.08-.49-.51a12,12,0,0,0-1.61-2.83,7.29,7.29,0,0,1-5.48,3.34v-.05a9.35,9.35,0,0,0,4.53-4.35,18.48,18.48,0,0,0-1.7-1.44c-.08.26-.38,1.33-.43,1.39s-.1.08-.22.05l-1-.24c-.05,0-.14,0-.14-.16a2.69,2.69,0,0,1,.14-.51c.66-2.24.95-3.27,1.34-4.72H298.1l-.06-.18h2.78c.49-1.92.69-2.71,1-4.48l1.23.51c.3.13.37.19.37.29s-.11.17-.34.22c-.27,1.15-.55,2.31-.83,3.46Zm-3.5.18c-.73,2.86-.81,3.18-1.05,4l.12.05c1.13.43,1.35.51,1.88.75a21.17,21.17,0,0,0,1.19-4.83Z"/><path d="M316.18,315.81c.95-.42,3.39-1.47,3.39-6.45,0-2.31-.68-5.7-3.06-5.68a4.18,4.18,0,0,1,.51,1.87c0,1.61-1.14,9.25-3.31,9.25-.71,0-.81-.67-.95-1.47a5.56,5.56,0,0,0-.49-1.67,4.07,4.07,0,0,1-.4-1.84c0-3.78,2.47-6.72,4.92-6.72,2.2,0,4.16,2.34,4.16,6.66,0,2.86-1,4.61-2.06,5.26a5.74,5.74,0,0,1-2.71.85Zm-3.34-4.92a3.57,3.57,0,0,0,.16,1.3c.14.35.4.7.6.7.83,0,2.77-5,2.8-9.18C313.22,304.38,312.84,309.64,312.84,310.89Z"/><path d="M330.64,308.75h2.08l.65-1.41c.05-.11.09-.19.12-.19a8.76,8.76,0,0,1,1.24,1.66c0,.1-.06.12-.13.12h-4v5.52c0,1.09,0,2-1.5,2-.33,0-.5-.06-.5-.46a3.08,3.08,0,0,0-.09-1.09c-.17-.41-.35-.46-1-.85V314c.23,0,1.26.08,1.47.08s.29,0,.29-.6v-4.56h-4.15l-.05-.18h4.2v-2.64l1.17.17a20.61,20.61,0,0,0,1.35-3.18h-5.69l-.06-.19h5.72l.45-.69c.08-.11.14-.21.2-.21a7.73,7.73,0,0,1,1.34,2.14c0,.34-.46.37-.9.4a13.93,13.93,0,0,1-2.21,1.77c.08,0,.21,0,.21.14s-.16.16-.26.18Z"/><path d="M342.14,313.71c0,1.33-.69,2.43-1.58,2.43S339,315,339,313.71s.72-2.43,1.58-2.43S342.14,312.35,342.14,313.71Zm-2.75,0c0,1,.53,1.79,1.17,1.79s1.17-.81,1.17-1.79-.52-1.79-1.17-1.79S339.39,312.7,339.39,313.71Z"/><path d="M35.75,330.07l.5-1.16c.06-.14.08-.17.12-.17a7.21,7.21,0,0,1,1.11,1.39c0,.13-.07.13-.13.13H33.24l-.05-.19Zm4.16-1.89-.31,2.48h.75l.41-.78c.08-.15.13-.24.19-.24a6.54,6.54,0,0,1,1.14,1.63c0,.13-.24.24-.43.33v2.6L42,333s.07-.19.12-.19a5.29,5.29,0,0,1,.88,1.43c0,.09,0,.09-.1.09H33.6l-.05-.17h2l.45-1c.06-.13.09-.19.13-.19a7.74,7.74,0,0,1,1,1.22h.71l.44-3.36H37l-.05-.18h1.3l.33-2.48h-5l-.05-.19h2l.49-1c.08-.18.09-.2.13-.2a7.77,7.77,0,0,1,1,1.24h3.74l.47-1.06c0-.08.08-.19.13-.19a5.66,5.66,0,0,1,1.07,1.33c0,.11-.07.11-.12.11Zm-4.43,3.94L36,331c0-.07.08-.19.13-.19a6.06,6.06,0,0,1,1.07,1.34c0,.11-.07.11-.13.11H33.6l-.05-.17Zm.08,4.17.37-.72c.06-.11.12-.22.17-.22a9.42,9.42,0,0,1,1,1.28.25.25,0,0,1,0,.13A.49.49,0,0,1,37,337a1.68,1.68,0,0,1-.21.18v3.73c0,.29-.1.32-.24.34l-.74.09c-.17,0-.24,0-.24-.3v-.91h-.79v.92c0,.31,0,.45-.24.48l-.75.08c-.15,0-.24,0-.24-.33V335.8a8.36,8.36,0,0,1,1.27.49Zm-.78.2v3.45h.79v-3.45Zm5.83-.36.38-.83c.08-.14.14-.3.18-.3a7.42,7.42,0,0,1,1.23,1.6c0,.24-.29.33-.42.38v4.16c0,.31,0,.39-.25.4l-.83.08c-.21,0-.21-.19-.21-.4v-.65h-2v.59c0,.27,0,.37-.2.38l-.87.08c-.16,0-.2,0-.2-.27v-5.79c.46.16,1.19.48,1.39.57Zm-1.91.2v4.06h2v-4.06Zm.87-5.49-.43,3.36h1.27v-3.36Z"/><path d="M53.3,335l.48-1.22c.08-.19.09-.22.13-.22a6.79,6.79,0,0,1,1.17,1.26c0,.12-.06.12-.13.13l-2.89.42v2l1.94-.32.48-1.33c0-.11.07-.2.12-.2a6.46,6.46,0,0,1,1.22,1.32c0,.12-.06.12-.12.13l-3.64.59v1.3c0,.45,0,.58.14.64a4.08,4.08,0,0,0,.93.08c.46,0,1.57,0,1.83-.29a2.14,2.14,0,0,0,.36-.69c.2-.48.37-.91.52-1.24h0c0,.31-.11,1.28-.11,1.54a1.09,1.09,0,0,0,.17.53,1.7,1.7,0,0,1,.19.75c0,1.22-.83,1.22-2.55,1.22-2.81,0-2.81-.05-2.81-2.23v-1.41l-2.16.35-.06-.17,2.22-.35v-2.08l-1.85.25-.06-.17,1.91-.28v-1.55a13.84,13.84,0,0,1-1.94.31c-.06,2.78-.17,5.49-2.43,7.71v0c.77-1.6,1.13-3.36,1.13-8v-6.29a11.41,11.41,0,0,1,1.42.54h5.2l.37-.89c0-.08.08-.2.12-.2s.65.72.75.82c.52.61.57.67.57.77s-.27.35-.43.45v2.29c0,.24,0,.32-.22.33l-.86.08c-.21,0-.23-.09-.23-.33v-.39H48.83v1.51c0,1,0,1.21,0,1.5a15.94,15.94,0,0,0,4.28-2.88c1.24,1.18,1.64,1.57,1.64,1.68s-.09.08-.12.08l-.23,0c-.56.19-1.19.41-2.33.7v1.67Zm-4.47-6.79v2.55H54.2v-2.55Z"/><path d="M62.87,334.21c-.06.31-.33,1.65-.36,1.86a11.65,11.65,0,0,0-.21,2,4.69,4.69,0,0,0,.15,1.3,3.73,3.73,0,0,1,.16.9c0,.33-.28.81-.56.81-.67,0-1.18-1.9-1.18-4.58a56.25,56.25,0,0,1,.5-6.08,14.69,14.69,0,0,0,.1-1.73,4.55,4.55,0,0,0-.23-1.5,5.67,5.67,0,0,1,1.27,3.42A20.11,20.11,0,0,1,62,334a12.41,12.41,0,0,0-.24,2.4c0,.43,0,.56.08.56s.21-.42.27-.61c.21-.61.51-1.57.72-2.18ZM64.68,337c0,1.53.85,1.53,1.15,1.53a5.78,5.78,0,0,0,1.84-.4,2.31,2.31,0,0,1,.75-.19c.28,0,.65.16.65.88a1.37,1.37,0,0,1-.51,1.17,3.36,3.36,0,0,1-2,.58,1.8,1.8,0,0,1-1.78-.91,3.5,3.5,0,0,1-.48-1.75,4.1,4.1,0,0,1,.44-1.79A4,4,0,0,0,64.68,337Zm1.07-7.83a2.37,2.37,0,0,0,1-.32c.82-.48.86-.5,1-.5a1,1,0,0,1,.83,1c0,1.17-1.63,1.32-2,1.32s-1.15,0-1.54-2C65.2,329,65.41,329.17,65.75,329.17Z"/><path d="M73.84,326.88h3.85v.64H74.25v14.09h-.41Z"/><path d="M82.37,336.57a1.53,1.53,0,0,0,1,.41c.18,0,5.22-.59,5.25-.59.2-.05.25-.1.7-.54a5.16,5.16,0,0,1,1.11.89c.29.31.41.47.41.79s-.09.81-.41.81c-.14,0-.19,0-.71-.21a4.63,4.63,0,0,0-1.78-.36,13.17,13.17,0,0,0-4.27.67,4.09,4.09,0,0,1-.71.38,2.64,2.64,0,0,1-1.36-2,1.72,1.72,0,0,1,.37-1.11A1.15,1.15,0,0,0,82.37,336.57Zm1.93-6.39a7.52,7.52,0,0,0,1.79-.26,2.43,2.43,0,0,0,1.47-.73c1.29.62,1.42.67,1.42,1.13,0,.84-.29.82-.85.85s-2.63.29-3.12.4a2.31,2.31,0,0,1-.66.13c-.34,0-1.06-.53-1.06-1.68a2.26,2.26,0,0,1,.08-.56A1,1,0,0,0,84.3,330.18Z"/><path d="M99.94,336.17a19.52,19.52,0,0,0,.85-3c-1.05.53-1.63.85-2,1.08.24,1.53.67,4,.91,5a3.86,3.86,0,0,1,.11.87c0,.89-.42,1.18-.67,1.18s-.41-.48-.46-1c-.21-2-.39-3.73-.7-5.65a6.65,6.65,0,0,0-1.35,1.07c-.19.26-.21.27-.32.27-.27,0-.78-.54-.86-.62a1,1,0,0,1-.3-.75,2.93,2.93,0,0,1,.16-.95c.16.66.44.75.58.75a19.55,19.55,0,0,0,2-.72c-.41-2.38-.57-2.91-1.16-2.8a.85.85,0,0,1,.78-.78c.26,0,1,.26,1,.74,0,.11,0,.56,0,.65a16.42,16.42,0,0,0,.23,1.87,9.19,9.19,0,0,0,2.39-1.23c.24-.25.3-.33.39-.33s1,1.21,1,1.5a.26.26,0,0,1-.21.29,1,1,0,0,0-.29.11,14.82,14.82,0,0,1-2,2.43Z"/><path d="M115.2,329.94a17.29,17.29,0,0,1-6.52,10,1.54,1.54,0,0,0-.47.48c0,.05-.15.18-.24.18-.36,0-1.38-1.59-1.38-2.6a1.49,1.49,0,0,1,.35-1c.11.44.24.94.62.94.72,0,4.41-1.81,7.6-8Zm-6.27-.75a2.07,2.07,0,0,1,.94,1.77c0,.77-.4,1.33-.78,1.33s-.4-.21-.72-1a7.39,7.39,0,0,0-1.6-2.48A3.88,3.88,0,0,1,108.93,329.19Z"/><path d="M122.6,341.61h-3.85V341h3.43V326.88h.42Z"/><path d="M130.6,328.1a.69.69,0,0,0-.47-.75.78.78,0,0,1,.75-.56,1,1,0,0,1,.86,1,3.39,3.39,0,0,1-.27,1,1.28,1.28,0,0,0,.34-.26c.19-.17.21-.19.35-.19a.93.93,0,0,1,.92,1,.57.57,0,0,1-.2.48,12,12,0,0,1-2,1l-.51,1.56a1.41,1.41,0,0,1,.9-.43c.78,0,.91,1.51.93,2,.28-.88,1.11-2.56,2.3-2.56.86,0,1.54.85,1.54,2.1a1.46,1.46,0,0,1-1.06,1.6,16.71,16.71,0,0,0-2.79,1.29c0,.24,0,1.32,0,1.54s0,.78-.56.78-.7-.91-.66-1.55a1.88,1.88,0,0,0-.82,1.47c0,.74.52.84,1.07.84a5.74,5.74,0,0,0,1.77-.34.94.94,0,0,1,.27-.06,1.09,1.09,0,0,1,.94,1.07c0,1-1,1.18-2,1.18a3.49,3.49,0,0,1-2.37-.75,1.84,1.84,0,0,1-.38-1.26c0-.82.31-1.62,1.6-2.6a16.85,16.85,0,0,0,.2-2.41c0-.56,0-1.75-.52-1.75-.31,0-.44.32-1.17,2.15-.47,1.2-1.18,2.46-1.71,2.46-.26,0-.51-.33-.51-1a1.61,1.61,0,0,1,.62-1.39,9,9,0,0,0,1.94-3.47,1.8,1.8,0,0,1-.54.14c-.82,0-1-1.36-1.1-2.21a1.55,1.55,0,0,0,1,.64,3,3,0,0,0,1.15-.38A6.39,6.39,0,0,0,130.6,328.1Zm3.77,5.73a1.44,1.44,0,0,0,.37-.95c0-.36-.31-.94-.78-.94-.2,0-.46.05-1,.77s-.58,1.31-.82,3.14A12.14,12.14,0,0,0,134.37,333.83Z"/><path d="M144.2,340a6.85,6.85,0,0,0,3.14-2.63,5.34,5.34,0,0,0,.73-2.91c0-.48-.09-3.47-1.88-3.47-1.06,0-2.92,1.61-3.9,2.73-.47.53-.7.79-1.15.79-.63,0-1.12-.71-1.12-1.86a3.57,3.57,0,0,1,.12-.94.83.83,0,0,0,.7.67c.24,0,.25,0,2-1.14s2.73-1.53,3.6-1.53c1.42,0,3.11,1.76,3.11,5s-1.61,4.18-2.08,4.43a7.78,7.78,0,0,1-3.25.87Z"/><path d="M157.29,341.62a4.11,4.11,0,0,0,2.42-2.91,26.57,26.57,0,0,0,.25-5.17,3.75,3.75,0,0,1-1.07.24c-.47,0-.68-.16-1.06-.62s-.42-.53-.56-.53c-.37,0-.73,1.05-1,1.95a11.6,11.6,0,0,0-.63,3.36,5.22,5.22,0,0,0,.06.85c0,.21.2,1.1.2,1.3,0,.35-.18,1-.59,1-.26,0-.44-.13-.65-.93a18.59,18.59,0,0,1-.62-4.62,31,31,0,0,1,.71-5.8,9.2,9.2,0,0,0,.11-1.26,3.73,3.73,0,0,0-.18-1.3,3.72,3.72,0,0,1,1.32,2.74,6.78,6.78,0,0,1-.25,1.68,17.87,17.87,0,0,0-.78,4.32c0,.26,0,1.09.19,1.09s.27-.55.34-.77c.84-2.67,1.23-4,1.79-4,.15,0,.74.14.87.14a5.7,5.7,0,0,0,1.75-.43c0-1-.08-2.8-.1-3,0-.68-.27-.76-.53-.79.2-.83.75-.83.78-.83a1.36,1.36,0,0,1,1.06,1.09c0,.19-.11,1-.12,1.13,0,.57,0,1.27,0,1.8.1-.1.51-.64.61-.64a1.51,1.51,0,0,1,.91,1.25c0,.6-.2.68-1.47,1.18.08,2.59.09,2.88.09,3.27,0,1.52-.07,3.15-1.44,4.3a4.17,4.17,0,0,1-2.43,1Z"/><path d="M167.49,329.68a15.56,15.56,0,0,0,1.5-.43c1.24-.35,2.47-.64,3.72-.88.35-.06.36-.08.78-.38.06-.05.1-.08.15-.08s1.43.52,1.43,1.45c0,.31-.15.72-.47.72a1.62,1.62,0,0,1-.6-.16,3.86,3.86,0,0,0-1-.16,2,2,0,0,0-1.85,1.52,14.58,14.58,0,0,0-.62,4.52c0,2.8.87,3.1,2,3.52.4.14.76.29.76,1.17,0,.19,0,1-.58,1a3.32,3.32,0,0,1-1.35-.44c-1.19-.67-1.77-1.84-1.77-4.48,0-2.83.79-5.49,2-6.64a8.92,8.92,0,0,0-3.09,1.33c-.46.3-.53.33-.71.33-.66,0-1.1-.91-1.1-1.84a2.32,2.32,0,0,1,.15-.92C166.9,329.23,167,329.68,167.49,329.68Z"/><path d="M189,331.14c-.5.5-.58.85-.7,1.86,0,.11-.05.32-.29.32-.68,0-3.13-1.88-3.83-5.64-1.92,4.29-4.17,5.6-5.21,6.08v-.06a20,20,0,0,0,3.86-7.14,17.12,17.12,0,0,1,1.67.79.17.17,0,0,1,.1.17c0,.18-.21.16-.35.15a6,6,0,0,0,4.77,3.42ZM184,335.85a16.88,16.88,0,0,1-2.14,3.41l3.83-.2a12.77,12.77,0,0,0-1.06-2.14v-.08c.55.24,2.93,1.37,2.93,3.41,0,.89-.49,1.25-.87,1.25s-.38-.18-.42-.37a12,12,0,0,0-.5-1.86,18,18,0,0,1-5.66,2.23c-.08-.39-.15-.69-.42-2.13l1.79-.08c.17-.74.56-3.06.6-3.44h-2.85l-.06-.18h7.42l.58-1.28c.06-.14.08-.19.13-.19a9.28,9.28,0,0,1,1.21,1.53c0,.12-.07.12-.14.12Zm.49-2.74.54-1.19c.09-.17.1-.19.13-.19a6.69,6.69,0,0,1,1.15,1.46c0,.11-.07.11-.13.11h-5.32l0-.19Z"/><path d="M195.18,330.16l.49-1.12c.06-.14.08-.19.12-.19a6.32,6.32,0,0,1,1.11,1.38c0,.13-.08.13-.14.13h-4.17l0-.2Zm5.18,1.76.61-1.26c.05-.11.08-.18.12-.18a7.73,7.73,0,0,1,1.17,1.52c0,.12-.08.12-.14.12H199.8v3.49h.35l.38-.87c.08-.19.11-.26.16-.26a8,8,0,0,1,1.26,1.57c0,.21-.21.34-.47.47v4.69c0,.27,0,.27-.2.29l-.92.09c-.14,0-.15-.06-.15-.29v-.7h-2v.66c0,.24,0,.32-.18.33l-.87.08c-.16,0-.22,0-.22-.27v-6.31a11.61,11.61,0,0,1,1.32.52h.21v-3.49h-2.06a.38.38,0,0,1,.09.19c0,.11-.07.11-.13.11H193l-.05-.18h1.86l.5-1.13c.06-.15.08-.19.12-.19a9.07,9.07,0,0,1,.86,1h2.2v-2.86a14.5,14.5,0,0,1-2.21.17v0a15.3,15.3,0,0,0,4.14-2.44c1.15,1.06,1.33,1.22,1.45,1.36s.12.16.12.24-.08.13-.13.13a.75.75,0,0,1-.24-.08,10.11,10.11,0,0,1-1.85.47v3.05Zm-5.52-3.82.5-1.06c.07-.14.09-.17.13-.17a5.94,5.94,0,0,1,1,1.31c0,.11-.07.11-.13.11H193l-.05-.19Zm-.09,6.18.5-1.16c.05-.11.09-.17.13-.17a6.5,6.5,0,0,1,1.15,1.39c0,.13-.07.13-.13.13H193l-.05-.19Zm.35,2.16.37-.74c.16-.3.16-.3.2-.3a6.8,6.8,0,0,1,1.09,1.44c0,.17,0,.21-.42.46V341c0,.18,0,.22-.14.24l-.81.1c-.15,0-.2,0-.2-.26v-1h-1v1c0,.23,0,.32-.13.34l-.9.08c-.17,0-.17,0-.17-.21V336c.12,0,1.23.42,1.32.47Zm-.87.17v3.3h1v-3.3Zm4-.81v4.61h2V335.8Z"/><path d="M213.17,329.27a2.79,2.79,0,0,0,1.09.41c.68.16,1,.55,1,1,0,.23-.2.79-.47.79a9.38,9.38,0,0,1-1.2-.4,2.72,2.72,0,0,0-.86-.15,8.24,8.24,0,0,0-1.1.12c0,1.07,0,1.58,0,2.22a7,7,0,0,1,.43,1.25,10.14,10.14,0,0,1,.27,2.43c0,4.26-3.15,4.84-4.35,4.79v-.07a3.67,3.67,0,0,0,2.84-3.33.77.77,0,0,1-.64.37c-.68,0-.76-1-.81-1.57a12.43,12.43,0,0,0-.2-1.31,4.76,4.76,0,0,1-.15-1.06c0-1.16.71-2.12,1.4-2.12l.22,0c0-.16,0-.29,0-1.41a11.42,11.42,0,0,0-2.9,1.1c-.4.24-.41.26-.5.26-.24,0-.51-.3-.67-.7a5.29,5.29,0,0,1-.32-1.59,1.51,1.51,0,0,0,1,.42,9.89,9.89,0,0,0,1.46-.21c.31-.06,1.66-.37,2-.42,0-2.3,0-2.59-.49-2.65.06-.26.16-.64.57-.64a1.29,1.29,0,0,1,1.17,1.36c0,.14-.16,1.45-.18,1.73.08,0,1.42-.23,1.44-.23a.13.13,0,0,0,.13-.14c0-.05,0-.08-.12-.18Zm-3.72,5.82c0,.64.4,1.88.83,1.88s.54-.63.54-1.67c0-.51,0-1.44-.55-1.44A1.33,1.33,0,0,0,209.45,335.09Z"/><path d="M223.78,333.24c2.09,0,2.63,2.45,2.63,3.93,0,2.69-1.33,4-3.1,4a2,2,0,0,1-2.11-2.07c0-.86.44-1.78,1.31-1.78.7,0,1.16.6,1.16,1.44a1.41,1.41,0,0,1-.14.68c.47-.11,1.65-.4,1.65-3,0-.9-.17-2.68-1.6-2.68-.88,0-1.63.71-2.43,2.95a11.87,11.87,0,0,0-.49,1.87c0,.24-.15.64-.54.64-.61,0-.69-1-.69-1.57s.07-.73.69-1.74c.15-.27,2.52-4.44,3.52-6.49a.85.85,0,0,0,.09-.35c0-.06,0-.13-.07-.13a2.65,2.65,0,0,0-.65.68c-.49.64-.65.75-1,.75-.72,0-1.08-1.12-1.14-1.7a.85.85,0,0,0,.55.27c.46,0,1.43-.86,1.92-1.28s.52-.44.69-.44,1.22.24,1.22,1.6c0,.48-.12.59-.48,1a19.1,19.1,0,0,0-2.06,3.65A2.2,2.2,0,0,1,223.78,333.24Zm-1,5.65c0-.26-.12-.6-.44-.6s-.35.34-.35.48a.57.57,0,0,0,.56.58A.54.54,0,0,0,222.74,338.89Z"/><path d="M234.17,338.71c0,1.33-.7,2.43-1.58,2.43S231,340,231,338.71s.71-2.43,1.58-2.43S234.17,337.35,234.17,338.71Zm-2.75,0c0,1,.52,1.79,1.17,1.79s1.16-.81,1.16-1.79-.52-1.79-1.16-1.79S231.42,337.7,231.42,338.71Z"/><line class="cls-1" x1="18.9" y1="22.54" x2="18.9" y2="389.45"/><path d="M18.9,14.41a4.07,4.07,0,1,1-4.07,4.06A4.07,4.07,0,0,1,18.9,14.41Z"/><path class="cls-2" d="M18.9,12.53A5.94,5.94,0,1,1,13,18.47,5.94,5.94,0,0,1,18.9,12.53Z"/><polygon class="cls-2" points="18.9 6.23 24.21 15.43 29.52 24.59 18.9 24.59 8.29 24.59 13.6 15.43 18.9 6.23"/><path d="M10.19,77.42c0,1.69,0,2.11.22,2.11a.62.62,0,0,0,.42-.15,1,1,0,0,1,0,.78,4.44,4.44,0,0,0-1.75.65c-.07,0-.15-.11-.17-.26L9,80c0-.15,0-.2-.09-.15-.34.4-.69.78-1,.78C6.7,80.63,6,79,6,77.08c0-2.54,1-4.16,2.32-4.16a1.53,1.53,0,0,1,.55.09.46.46,0,0,0,.1-.34V70.36c0-.72,0-.92-.19-1.13l-.17-.18a.68.68,0,0,1,0-.54,7,7,0,0,0,1.49-1,.19.19,0,0,1,.17.13c0,.73,0,1.49,0,2.62ZM8.92,75a2.29,2.29,0,0,0-.07-.62c-.11-.37-.33-.66-.55-.66-.5,0-1,1-1,2.84,0,1.19.3,2.83,1.1,2.83a.51.51,0,0,0,.39-.22,1.1,1.1,0,0,0,.12-.68Z"/><path d="M7.4,321.73c-.22,0-.24,0-.24.32,0,1.36.47,2.67,1.37,2.67.27,0,.65-.11.91-.94.11,0,.25.11.25.42-.4,1.53-1.12,2.05-1.7,2.05-1.32,0-2-1.71-2-3.67,0-2.27.88-4,2.1-4,1,0,1.56,1.21,1.56,2.6,0,.34,0,.59-.35.59Zm.64-.79a.51.51,0,0,0,.4-.16.86.86,0,0,0,.07-.42c0-.59-.18-1-.51-1s-.77.72-.77,1.3c0,.25.14.27.45.27Z"/><line class="cls-3" x1="21.96" y1="45.78" x2="15.43" y2="45.78"/><line class="cls-3" x1="21.96" y1="77.01" x2="15.43" y2="77.01"/><line class="cls-3" x1="21.96" y1="112.19" x2="15.43" y2="112.19"/><line class="cls-3" x1="21.96" y1="147.37" x2="15.43" y2="147.37"/><line class="cls-3" x1="21.96" y1="182.56" x2="15.43" y2="182.56"/><line class="cls-3" x1="21.96" y1="217.74" x2="15.43" y2="217.74"/><line class="cls-3" x1="21.96" y1="252.92" x2="15.43" y2="252.92"/><line class="cls-3" x1="21.96" y1="252.92" x2="15.43" y2="252.92"/><line class="cls-3" x1="21.96" y1="252.92" x2="15.43" y2="252.92"/><line class="cls-3" x1="21.94" y1="287.73" x2="15.41" y2="287.73"/><line class="cls-3" x1="21.94" y1="322.91" x2="15.41" y2="322.91"/><line class="cls-3" x1="21.94" y1="358.1" x2="15.41" y2="358.1"/><line class="cls-3" x1="21.94" y1="322.91" x2="15.41" y2="322.91"/><line class="cls-4" x1="104.5" y1="42.88" x2="34.72" y2="42.88"/><circle cx="9.65" cy="45.78" r="1.68"/><path d="M36.9,377l-.26,1.76h.57l-.07.76h-.61l-.32,2.19h-.39l.31-2.19H35.5l-.33,2.19h-.38l.31-2.19h-.64l.08-.76h.67l.26-1.76h-.65l.08-.79h.68l.28-1.95h.41L36,376.24h.61l.28-1.95h.42L37,376.24h.58l-.05.79Zm-1,0-.26,1.76h.63l.25-1.76Z"/><path d="M42.87,378c0,1.93-.45,3.92-1.5,3.92s-1.5-2-1.5-3.92.44-3.92,1.5-3.92S42.87,376.16,42.87,378Zm-1.5,3.37c.49,0,.55-2.3.55-3.37s-.06-3.37-.55-3.37-.56,2.3-.56,3.37S40.87,381.39,41.37,381.39Z"/><path d="M46.85,378.67a1.18,1.18,0,0,1,.09.5,1.36,1.36,0,0,1-.08.47l-1.56.26a1,1,0,0,1-.1-.48,1.2,1.2,0,0,1,.1-.49Z"/><path d="M50.53,377.63c-.09,0-.1,0-.1.27v1.8c0,.67,0,1.42.46,1.42.09,0,.19-.09.27-.19a.33.33,0,0,1,.09.32,1.14,1.14,0,0,1-.93.69c-.54,0-.73-.57-.73-1.37V377.9c0-.25,0-.27-.12-.27h-.21a.39.39,0,0,1,0-.38,2.47,2.47,0,0,0,.53-.54,3.71,3.71,0,0,0,.49-.93.12.12,0,0,1,.19.06v.9c0,.23,0,.24.12.24h.58a.36.36,0,0,1,0,.23.79.79,0,0,1-.08.42Z"/><path d="M55.55,380.13c0,.82.16,1,.29,1a.32.32,0,0,0,.25-.14c.06,0,.1.17.08.28s-.39.64-.76.64c-.22,0-.37-.14-.54-.42,0-.07-.07-.09-.11-.09s-.07,0-.13.13a.8.8,0,0,1-.56.38c-.37,0-.72-.42-.72-1.26a1.25,1.25,0,0,1,.67-1.24c.25-.15.43-.24.61-.34a.26.26,0,0,0,.16-.24c0-.13,0-.26,0-.41,0-.45-.1-1-.37-1s-.3.17-.34.68a.91.91,0,0,1-.11.39.82.82,0,0,1-.47.27c-.11,0-.15-.13-.15-.3a1.81,1.81,0,0,1,.31-.92,1.51,1.51,0,0,1,1.09-.73c.55,0,.87.5.83,1.74Zm-.78-.31c0-.19,0-.23-.05-.22-.29.08-.54.28-.54.84,0,.39.15.72.33.72s.24-.21.25-.59Z"/><path d="M58.46,375.11c0-.48,0-.62-.13-.76l-.11-.12a.55.55,0,0,1,0-.36,6.21,6.21,0,0,0,1-.67.13.13,0,0,1,.11.08c0,.49,0,1,0,1.75v3.77c0,.13,0,.17.09.17s.24-.06.37-.34l.28-.58a1.4,1.4,0,0,0,.15-.49c0-.06-.06-.1-.12-.12l-.16,0a.5.5,0,0,1,0-.42h.16a5.32,5.32,0,0,0,1.23-.17.55.55,0,0,1,0,.42l-.21.08a1.08,1.08,0,0,0-.43.42,5.49,5.49,0,0,0-.44.7.41.41,0,0,0,0,.15,1,1,0,0,0,.05.21c.12.38.69,2,.85,2.29a.59.59,0,0,0,.38.27l.1,0a.51.51,0,0,1,0,.42,7.55,7.55,0,0,0-.81,0,6.76,6.76,0,0,0-.8,0,.5.5,0,0,1,0-.42l.08,0c.07,0,.11,0,.11-.09a2.19,2.19,0,0,0-.11-.38l-.46-1.3c0-.13-.1-.18-.17-.18s-.07.06-.07.29v.69c0,.84,0,.94.25,1l.1,0a.51.51,0,0,1,0,.42c-.21,0-.48,0-.78,0s-.57,0-.8,0a.61.61,0,0,1,0-.42l.12,0c.24-.05.26-.15.26-1Z"/><path d="M64.55,378.93c-.15,0-.17,0-.17.22,0,.9.31,1.77.92,1.77.18,0,.43-.07.6-.62.08,0,.17.07.17.27-.26,1-.74,1.37-1.13,1.37-.88,0-1.36-1.14-1.36-2.44,0-1.52.59-2.69,1.41-2.69s1,.8,1,1.73c0,.22,0,.39-.24.39Zm.42-.53a.34.34,0,0,0,.27-.1.6.6,0,0,0,.05-.28c0-.39-.13-.66-.35-.66s-.51.48-.51.86c0,.17.1.18.3.18Z"/><path d="M74.76,378c0,1.93-.45,3.92-1.5,3.92s-1.51-2-1.51-3.92.45-3.92,1.51-3.92S74.76,376.16,74.76,378Zm-1.5,3.37c.49,0,.55-2.3.55-3.37s-.06-3.37-.55-3.37S72.7,377,72.7,378,72.76,381.39,73.26,381.39Z"/><path d="M80.09,378c0,1.93-.45,3.92-1.5,3.92s-1.51-2-1.51-3.92.45-3.92,1.51-3.92S80.09,376.16,80.09,378Zm-1.5,3.37c.49,0,.55-2.3.55-3.37s-.06-3.37-.55-3.37S78,377,78,378,78.09,381.39,78.59,381.39Z"/><path d="M84.57,374.27a8.09,8.09,0,0,0,.94,0s.07.12.06.19c-.16.45-.37,1.09-.64,2l-1.87,6.12c-.11,0-.3-.11-.32-.37l1.71-5.49a3.42,3.42,0,0,0,.22-.94c0-.16-.09-.19-.19-.19H83.1c-.37,0-.44.08-.59.58-.05.11-.19.05-.22-.08.11-.59.2-1.34.25-1.8a6.63,6.63,0,0,0,.78,0Z"/><path d="M37.51,32.94a1.12,1.12,0,0,1,.13.62c0,.36-.09.69-.17.69a.13.13,0,0,1-.1-.06c-.18-.48-.44-.9-.67-.9-.42,0-.65.89-.65,1.71s.33,1.91.93,1.91c.24,0,.43-.14.58-.59.08,0,.17.07.17.27-.15.6-.54,1.28-1.15,1.28-.82,0-1.38-1-1.38-2.42,0-1.71.75-2.71,1.62-2.71A1.38,1.38,0,0,1,37.51,32.94Z"/><path d="M40.17,31c0-.48,0-.61-.13-.75l-.11-.12a.45.45,0,0,1,0-.36,6.18,6.18,0,0,0,1-.67.11.11,0,0,1,.11.08c0,.49,0,1,0,1.75v2.21c0,.11,0,.14,0,.14s0,0,.1-.09a1.13,1.13,0,0,1,.75-.48c.55,0,.82.68.82,1.51v2.06c0,.84,0,.94.26,1l.11,0a.56.56,0,0,1,0,.42,5.82,5.82,0,0,0-.79,0,4.23,4.23,0,0,0-.7,0,.56.56,0,0,1,0-.42l.12,0c.15-.05.18-.13.18-.79V34.42c0-.42-.14-.81-.46-.81a.42.42,0,0,0-.36.29,1.16,1.16,0,0,0,0,.44v2.15c0,.66,0,.74.17.79l.12,0a.56.56,0,0,1,0,.42,4.75,4.75,0,0,0-.72,0,5.92,5.92,0,0,0-.76,0,.56.56,0,0,1,0-.42l.12,0c.21,0,.24-.14.24-1Z"/><path d="M47.57,36.06c0,.82.16,1,.29,1s.14,0,.25-.14.09.16.07.27-.38.65-.75.65-.37-.14-.55-.42c0-.07-.07-.1-.1-.1s-.07,0-.14.14-.31.38-.55.38-.73-.42-.73-1.26A1.28,1.28,0,0,1,46,35.36l.61-.33a.27.27,0,0,0,.16-.24c0-.13,0-.27,0-.41,0-.46-.1-1-.38-1s-.29.17-.34.68a.72.72,0,0,1-.11.39.8.8,0,0,1-.46.27c-.11,0-.15-.13-.15-.3a1.81,1.81,0,0,1,.31-.92,1.48,1.48,0,0,1,1.09-.73c.55,0,.87.5.83,1.74Zm-.78-.31c0-.19,0-.23,0-.22-.29.07-.54.28-.54.84,0,.39.14.72.33.72s.24-.21.24-.59Z"/><path d="M50.53,34.52c0-.48,0-.62-.12-.76l-.09-.11a.45.45,0,0,1,0-.36,4,4,0,0,0,1-.72s.09,0,.11.11c0,.24,0,.41,0,.51s0,.12.06.15c.18-.21.37-.6.64-.6s.36.25.36.7-.21.78-.42.78-.17-.07-.25-.21-.21-.24-.25-.24-.12.26-.12.72v1.85c0,.84,0,.93.24,1l.2,0a.51.51,0,0,1,0,.42c-.31,0-.57,0-.88,0s-.55,0-.77,0a.51.51,0,0,1,0-.42l.12,0c.22,0,.24-.14.24-1Z"/><path d="M56.76,36.06c0,.82.16,1,.29,1s.14,0,.25-.14.09.16.08.27-.39.65-.76.65-.37-.14-.55-.42c0-.07-.07-.1-.1-.1s-.07,0-.14.14-.31.38-.55.38-.73-.42-.73-1.26a1.28,1.28,0,0,1,.68-1.25l.61-.33a.27.27,0,0,0,.16-.24c0-.13,0-.27,0-.41,0-.46-.1-1-.38-1s-.29.17-.33.68a.81.81,0,0,1-.12.39.8.8,0,0,1-.46.27c-.11,0-.15-.13-.15-.3a1.81,1.81,0,0,1,.31-.92A1.48,1.48,0,0,1,56,32.74c.55,0,.87.5.83,1.74ZM56,35.75c0-.19,0-.23,0-.22-.29.07-.54.28-.54.84,0,.39.15.72.33.72s.24-.21.24-.59Z"/><path d="M61.68,32.94a1,1,0,0,1,.14.62c0,.36-.09.69-.17.69a.13.13,0,0,1-.1-.06c-.18-.48-.44-.9-.67-.9-.42,0-.65.89-.65,1.71s.33,1.91.93,1.91c.24,0,.43-.14.58-.59.07,0,.17.07.17.27-.15.6-.54,1.28-1.15,1.28-.82,0-1.38-1-1.38-2.42,0-1.71.74-2.71,1.62-2.71A1.32,1.32,0,0,1,61.68,32.94Z"/><path d="M65.27,33.55c-.09,0-.09,0-.09.28v1.8c0,.67,0,1.41.45,1.41a.41.41,0,0,0,.27-.18.33.33,0,0,1,.09.32,1.16,1.16,0,0,1-.93.69c-.54,0-.73-.58-.73-1.37V33.83c0-.25,0-.28-.12-.28H64c-.07,0-.09-.29,0-.37a2.76,2.76,0,0,0,.54-.54,4.21,4.21,0,0,0,.48-.93.12.12,0,0,1,.19.06v.9c0,.22,0,.23.12.23h.58a.35.35,0,0,1,.06.23.77.77,0,0,1-.09.42Z"/><path d="M69.05,34.86c-.15,0-.16,0-.16.22,0,.89.31,1.77.91,1.77.19,0,.43-.07.61-.62.07,0,.17.07.17.27-.27,1-.75,1.37-1.14,1.37-.88,0-1.35-1.14-1.35-2.45,0-1.51.59-2.68,1.4-2.68s1,.8,1,1.72c0,.23,0,.4-.23.4Zm.43-.53a.31.31,0,0,0,.26-.11s.05-.15.05-.27c0-.4-.12-.66-.34-.66s-.51.48-.51.86c0,.17.09.18.3.18Z"/><path d="M73.1,34.52c0-.48,0-.62-.12-.76l-.09-.11a.45.45,0,0,1,0-.36,3.84,3.84,0,0,0,1-.72s.09,0,.12.11q0,.36,0,.51c0,.09,0,.12.07.15.17-.21.36-.6.63-.6s.36.25.36.7-.21.78-.42.78-.16-.07-.25-.21-.21-.24-.25-.24S74,34,74,34.49v1.85c0,.84,0,.93.24,1l.21,0a.56.56,0,0,1,0,.42c-.31,0-.57,0-.88,0s-.55,0-.76,0a.56.56,0,0,1,0-.42l.12,0c.22,0,.24-.14.24-1Z"/><path d="M80.4,33.29c-.06-.08-.07-.37,0-.42s.46,0,.8,0l.72,0a.61.61,0,0,1,0,.42l-.11.05c-.07,0-.11,0-.11.12a4.08,4.08,0,0,0,.06.42c.13.66.27,1.28.41,1.86.14-.6.31-1.24.44-2a1.3,1.3,0,0,0,0-.3c0-.06,0-.1-.15-.15l-.09,0a.51.51,0,0,1,0-.42,5.13,5.13,0,0,0,.53,0c.21,0,.36,0,.51,0s.05.35,0,.42l-.11,0c-.2.07-.25.21-.38.66-.34,1.24-.63,2.52-.93,3.81a.19.19,0,0,1-.15.08.2.2,0,0,1-.15-.08c-.34-1.51-.48-2.09-.89-3.69-.15-.58-.19-.68-.36-.75Z"/><path d="M85.55,35.4c0-1.72.73-2.66,1.5-2.66s1.45.86,1.45,2.55-.69,2.58-1.49,2.58S85.56,37.05,85.55,35.4Zm.94-.26c0,1.25.21,2.18.59,2.18s.49-.78.49-1.86-.19-2.17-.56-2.17S86.49,33.83,86.49,35.14Z"/><path d="M92.05,36.31c0,.84,0,.95.24,1l.12,0a.56.56,0,0,1,0,.42,5.94,5.94,0,0,0-.78,0,6,6,0,0,0-.78,0,.51.51,0,0,1,0-.42l.12,0c.21,0,.24-.14.24-1V34.5c0-.48,0-.62-.12-.77L91,33.62a.45.45,0,0,1,0-.36,4.06,4.06,0,0,0,1-.69s.09,0,.11.11c0,.36,0,.88,0,1.42Zm0-5.42c0,.58-.24.88-.49.88s-.46-.36-.46-.86.23-.87.49-.87S92.1,30.41,92.1,30.89Z"/><path d="M97,32.94a1,1,0,0,1,.14.62c0,.36-.09.69-.17.69a.13.13,0,0,1-.1-.06c-.19-.48-.44-.9-.67-.9-.43,0-.65.89-.65,1.71s.33,1.91.93,1.91c.24,0,.43-.14.57-.59.08,0,.17.07.17.27-.14.6-.53,1.28-1.15,1.28-.82,0-1.38-1-1.38-2.42,0-1.71.75-2.71,1.63-2.71A1.32,1.32,0,0,1,97,32.94Z"/><path d="M100.29,34.86c-.15,0-.17,0-.17.22,0,.89.32,1.77.92,1.77.18,0,.43-.07.61-.62.07,0,.16.07.16.27-.26,1-.74,1.37-1.13,1.37-.88,0-1.36-1.14-1.36-2.45,0-1.51.6-2.68,1.41-2.68s1,.8,1,1.72c0,.23,0,.4-.24.4Zm.43-.53a.31.31,0,0,0,.26-.11.53.53,0,0,0,0-.27c0-.4-.13-.66-.35-.66s-.5.48-.5.86c0,.17.09.18.3.18Z"/><rect x="34.35" y="362.37" width="17.75" height="3.94"/><rect x="34.15" y="95.31" width="124.03" height="11.94"/><path class="cls-5" d="M41.26,101.36c-.47,0-.49,0-.49.59v2.59c0,1.93,0,2.18.6,2.29l.29.06a.61.61,0,0,1,0,.46c-.53,0-.87-.06-1.26-.06s-.77,0-1.15.06a.6.6,0,0,1,0-.46l.16-.06c.56-.18.58-.36.58-2.29V97.93c0-1.93-.07-2.24-.59-2.31l-.25,0a.61.61,0,0,1,0-.46c.48,0,.82.06,1.25.06s.73,0,1.15-.06a.61.61,0,0,1,0,.46l-.19,0c-.57.11-.59.38-.59,2.31V100c0,.57,0,.59.49.59h2.85c.48,0,.5,0,.5-.59V97.93c0-1.93,0-2.2-.61-2.31l-.19,0a.61.61,0,0,1,0-.46c.46,0,.8.06,1.21.06s.72,0,1.17-.06a.61.61,0,0,1,0,.46l-.21,0c-.58.11-.6.38-.6,2.31v6.61c0,1.93,0,2.16.6,2.29l.24.06a.61.61,0,0,1,0,.46c-.48,0-.82-.06-1.2-.06s-.77,0-1.21.06a.6.6,0,0,1,0-.46l.19-.06c.61-.18.61-.36.61-2.29V102c0-.55,0-.59-.5-.59Z"/><path class="cls-5" d="M53.73,103c-.07-.4-.11-.46-.41-.46h-1.5c-.25,0-.31.06-.38.44l-.35,1.93a12,12,0,0,0-.22,1.53c0,.22.05.33.29.36l.33.06a.47.47,0,0,1,0,.46c-.26,0-.57,0-1-.06s-.68,0-1,.06a.61.61,0,0,1,0-.46l.33-.06c.24,0,.45-.24.59-.9.18-.84.46-2,.88-4.09l1-5a4.54,4.54,0,0,0,.17-1.3,1.52,1.52,0,0,0,.52-.7c.06,0,.13,0,.15.17.13.81.29,1.65.44,2.46l1.36,7.38c.29,1.58.42,1.85.85,1.94l.26.06a.61.61,0,0,1,0,.46,11.33,11.33,0,0,0-1.2-.06c-.48,0-.85,0-1.14.06a.5.5,0,0,1,0-.46l.29-.06c.2,0,.34-.14.34-.33a6.5,6.5,0,0,0-.13-1Zm-2-1.63c-.08.42-.07.44.21.44h1.22c.29,0,.31-.07.22-.57l-.54-3c-.08-.44-.17-.94-.23-1.16h0c0,.09-.13.53-.24,1.09Z"/><path class="cls-5" d="M60.13,98c0-1.75,0-2.06-.44-2.15l-.32-.07a.5.5,0,0,1,0-.46,13.82,13.82,0,0,1,2.22-.15,2.17,2.17,0,0,1,1.66.55,3.47,3.47,0,0,1,.83,2.57,3.7,3.7,0,0,1-1.25,3.07.78.78,0,0,0,0,.44,23.66,23.66,0,0,0,2,4.88,1,1,0,0,0,.69.51.24.24,0,0,1,0,.26.85.85,0,0,1-.44.09c-.84,0-1.35-.46-2.06-2.31-.25-.68-.66-2-1-2.77-.15-.41-.31-.59-.71-.59s-.46,0-.46.4v2.32c0,1.93,0,2.15.59,2.29l.21.06a.6.6,0,0,1,0,.46c-.45,0-.78-.06-1.18-.06s-.78,0-1.25.06a.59.59,0,0,1,0-.46l.25-.06c.58-.13.6-.36.6-2.29Zm.82,2.62a4,4,0,0,0,0,.61s.18.09.69.09a1.14,1.14,0,0,0,1-.48,4,4,0,0,0,.49-2.27c0-1.45-.48-2.83-1.59-2.83-.62,0-.64.07-.64.59Z"/><path class="cls-5" d="M74.27,99.78a24,24,0,0,0-.19-3.8.57.57,0,0,0-.49-.38l-.25,0a.55.55,0,0,1,0-.44,10.55,10.55,0,0,0,1.13.06,8.5,8.5,0,0,0,1.05-.06.52.52,0,0,1,0,.44l-.24,0a.59.59,0,0,0-.5.44,29.83,29.83,0,0,0-.14,3.74v2.08a10.55,10.55,0,0,1-.7,4.39,2.19,2.19,0,0,1-1.9,1.34,2.08,2.08,0,0,1-1.86-1c-.52-.81-.77-2.15-.77-4.34V97.91c0-1.91,0-2.22-.6-2.31l-.25,0a.56.56,0,0,1,0-.44c.5,0,.84.06,1.24.06s.73,0,1.22-.06a.56.56,0,0,1,0,.44l-.24,0c-.58.09-.6.4-.6,2.31v4c0,3,.5,4.9,2,4.9s2-2.1,2-4.89Z"/><path class="cls-5" d="M79.93,97.93c0-1.93,0-2.22-.6-2.31l-.25,0a.61.61,0,0,1,0-.46c.49,0,.81.06,1.26.06s.72,0,1.15-.06a.61.61,0,0,1,0,.46l-.19,0c-.58.11-.59.38-.59,2.31V100c0,.35,0,.7.12.7s.21-.11.28-.2.4-.7.51-.89l1.08-2c.18-.33.67-1.27.77-1.52a.84.84,0,0,0,.07-.3c0-.07,0-.12-.17-.18l-.27-.11a.49.49,0,0,1,0-.46,10.14,10.14,0,0,0,1.1.06,7.47,7.47,0,0,0,1-.06.56.56,0,0,1,0,.46,1.79,1.79,0,0,0-.92.51,15.47,15.47,0,0,0-1.4,2.13l-.89,1.56a1.44,1.44,0,0,0-.23.57,1.57,1.57,0,0,0,.19.57c.94,2,1.71,3.65,2.49,5.16.23.44.45.68.79.75l.27.06a.53.53,0,0,1,0,.46,8,8,0,0,0-1.11-.06c-.41,0-.76,0-1.22.06-.07,0-.1-.35,0-.46l.23-.08c.14,0,.24-.09.24-.18a1.28,1.28,0,0,0-.14-.42c-.19-.44-.45-.94-.82-1.73l-.8-1.65c-.57-1.17-.73-1.54-1-1.54s-.16.24-.16.88v2.37c0,1.93,0,2.18.57,2.29l.27.06a.61.61,0,0,1,0,.46c-.49,0-.82-.06-1.21-.06a11.27,11.27,0,0,0-1.16.06.59.59,0,0,1,0-.46l.2-.06c.53-.14.55-.36.55-2.29Z"/><path class="cls-5" d="M88.81,101.36c0-3.67,1.49-6.48,3.54-6.48,2.3,0,3.45,3.07,3.45,6.3,0,3.71-1.53,6.41-3.45,6.41C90.14,107.59,88.81,104.67,88.81,101.36Zm6,.39c0-3-.73-6.3-2.63-6.3-1,0-2.38,1.31-2.38,5.32,0,2.72.72,6.25,2.68,6.25C93.68,107,94.81,105.36,94.81,101.75Z"/><path class="cls-5" d="M108.58,102.39c.23.86.45,1.71.69,2.51h0c.27-.86.52-1.81.76-2.75l.94-3.5a17.12,17.12,0,0,0,.76-3.53,3.67,3.67,0,0,0,.74.06,7.38,7.38,0,0,0,.89-.06.66.66,0,0,1,0,.46l-.21,0c-.63.11-.71.46-.7,1.74,0,2,0,5.34.11,8,0,.91,0,1.41.49,1.48l.32.06a.56.56,0,0,1,0,.46c-.41,0-.82-.06-1.18-.06s-.79,0-1.2.06a.57.57,0,0,1,0-.46l.29-.06c.49-.09.49-.38.49-1.56l0-7.65h0c-.07.2-.45,1.67-.65,2.38l-.89,3.22c-.44,1.61-.89,3.34-1.07,4.18a.09.09,0,0,1-.1.07.1.1,0,0,1-.09-.07c-.17-1-.65-2.77-.88-3.67l-.89-3.54c-.21-.85-.42-1.8-.64-2.65h0c0,1.14-.07,2.21-.1,3.27s-.07,2.75-.07,4.32c0,1.35.06,1.65.45,1.7l.38.06a.52.52,0,0,1,0,.46,9.79,9.79,0,0,0-1.11-.06,9,9,0,0,0-1,.06.61.61,0,0,1,0-.46l.22-.06c.42-.11.56-.22.62-1.5s.11-2.22.16-4c.05-1.53.09-3.08.11-4.09,0-1.16-.06-1.44-.66-1.58l-.16,0a.56.56,0,0,1,0-.46,5.77,5.77,0,0,0,.78.06,4.36,4.36,0,0,0,.83-.06,11.66,11.66,0,0,0,.52,3Z"/><path class="cls-5" d="M117.22,101.36c0-3.67,1.49-6.48,3.54-6.48,2.3,0,3.46,3.07,3.46,6.3,0,3.71-1.54,6.41-3.46,6.41C118.55,107.59,117.22,104.67,117.22,101.36Zm6,.39c0-3-.73-6.3-2.63-6.3-1,0-2.37,1.31-2.37,5.32,0,2.72.71,6.25,2.67,6.25C122.09,107,123.22,105.36,123.22,101.75Z"/><path class="cls-5" d="M131.52,102.39c.23.86.45,1.71.69,2.51h0c.27-.86.52-1.81.77-2.75l.93-3.5a17.12,17.12,0,0,0,.76-3.53,3.77,3.77,0,0,0,.74.06,7.38,7.38,0,0,0,.89-.06.66.66,0,0,1,0,.46l-.21,0c-.63.11-.71.46-.7,1.74,0,2,0,5.34.11,8,0,.91,0,1.41.49,1.48l.32.06a.56.56,0,0,1,0,.46c-.41,0-.82-.06-1.17-.06s-.8,0-1.21.06a.57.57,0,0,1,0-.46l.29-.06c.49-.09.49-.38.49-1.56l0-7.65h0c-.07.2-.45,1.67-.65,2.38l-.88,3.22c-.45,1.61-.9,3.34-1.08,4.18a.09.09,0,0,1-.1.07.1.1,0,0,1-.09-.07c-.17-1-.64-2.77-.87-3.67l-.9-3.54c-.21-.85-.42-1.8-.64-2.65h0c0,1.14-.07,2.21-.1,3.27s-.07,2.75-.07,4.32c0,1.35.06,1.65.44,1.7l.38.06a.52.52,0,0,1,0,.46,9.61,9.61,0,0,0-1.1-.06,9,9,0,0,0-1,.06.61.61,0,0,1,0-.46l.22-.06c.42-.11.56-.22.62-1.5s.11-2.22.17-4c.05-1.53.09-3.08.11-4.09,0-1.16-.06-1.44-.67-1.58l-.16,0a.56.56,0,0,1,0-.46,5.79,5.79,0,0,0,.79.06,4.26,4.26,0,0,0,.82-.06,11.66,11.66,0,0,0,.52,3Z"/><path class="cls-5" d="M140.16,101.36c0-3.67,1.5-6.48,3.55-6.48,2.29,0,3.45,3.07,3.45,6.3,0,3.71-1.53,6.41-3.45,6.41C141.5,107.59,140.16,104.67,140.16,101.36Zm6,.39c0-3-.72-6.3-2.62-6.3-1,0-2.38,1.31-2.38,5.32,0,2.72.72,6.25,2.68,6.25C145,107,146.16,105.36,146.16,101.75Z"/><path class="cls-5" d="M151.87,98c0-2,0-2.26-.61-2.35l-.25,0a.61.61,0,0,1,0-.46c.5,0,.84.06,1.26.06s.73,0,1.23-.06a.61.61,0,0,1,0,.46l-.25,0c-.58.09-.6.4-.6,2.35v6.53c0,2,0,2.2.6,2.33l.25.06a.61.61,0,0,1,0,.46c-.5,0-.83-.06-1.23-.06s-.76,0-1.26.06a.6.6,0,0,1,0-.46l.25-.06c.59-.13.61-.38.61-2.33Z"/><rect x="34.72" y="275.04" width="136.09" height="12.36"/><path class="cls-5" d="M40.49,280.08c0,.49,0,.49.33.49h.67a2.24,2.24,0,0,0,.85-.1c.11-.08.19-.17.25-.65l.09-.73a.14.14,0,0,1,.25,0c0,.44,0,1.17,0,1.85s0,1.36,0,1.78c0,.11-.18.11-.25,0l-.1-.71c0-.33-.13-.59-.32-.7a2,2,0,0,0-.77-.09h-.67c-.3,0-.33,0-.33.49v2.55c0,1.93,0,2.21.6,2.3l.34.05a.6.6,0,0,1,0,.46c-.58,0-.92-.05-1.32-.05s-.78,0-1.24.05a.6.6,0,0,1,0-.46l.24-.05c.58-.13.6-.37.6-2.3v-6.6c0-1.93,0-2.19-.6-2.32l-.15,0a.6.6,0,0,1,0-.46c.41,0,.75,0,1.15,0h1.83a8,8,0,0,0,1.34,0c0,.84,0,1.72,0,2.42,0,.11-.17.17-.24.06-.08-.83-.19-1.51-.69-1.75a2.39,2.39,0,0,0-1-.11h-.6c-.3,0-.3,0-.3.74Z"/><path class="cls-5" d="M50.78,282.76c-.07-.4-.11-.46-.41-.46h-1.5c-.25,0-.31.06-.38.44l-.35,1.93a13.19,13.19,0,0,0-.21,1.52c0,.22,0,.33.28.37l.33.05a.47.47,0,0,1,0,.46c-.26,0-.56,0-1-.05s-.69,0-1,.05a.6.6,0,0,1,0-.46l.33-.05c.24,0,.46-.24.6-.9.18-.85.46-2,.87-4.09l1-5a4.54,4.54,0,0,0,.17-1.3,1.44,1.44,0,0,0,.51-.7c.06,0,.13,0,.15.16.13.81.29,1.66.44,2.46L52,284.61c.29,1.58.42,1.86.85,1.95l.27.05a.61.61,0,0,1,0,.46c-.41,0-.76-.05-1.2-.05s-.86,0-1.15.05a.5.5,0,0,1,0-.46l.29-.05c.21,0,.35-.15.35-.33a6.5,6.5,0,0,0-.13-1Zm-2-1.63c-.08.42-.07.44.21.44h1.22c.29,0,.31-.08.22-.57l-.53-3c-.08-.45-.17-.94-.23-1.16h0c0,.09-.13.53-.24,1.08Z"/><path class="cls-5" d="M57.18,277.67c0-1.74,0-2.05-.43-2.14l-.32-.08a.5.5,0,0,1,0-.46,13.85,13.85,0,0,1,2.22-.14,2.2,2.2,0,0,1,1.66.55,3.45,3.45,0,0,1,.82,2.57A3.68,3.68,0,0,1,59.9,281a.7.7,0,0,0,.05.44,23.24,23.24,0,0,0,2,4.89,1,1,0,0,0,.69.51.24.24,0,0,1,0,.26,1,1,0,0,1-.44.09c-.85,0-1.36-.46-2.06-2.31-.26-.68-.67-2-1-2.77-.15-.41-.31-.59-.7-.59s-.47,0-.47.4v2.31c0,1.93,0,2.15.6,2.3l.21.05a.65.65,0,0,1,0,.46c-.45,0-.79-.05-1.19-.05s-.77,0-1.24.05a.59.59,0,0,1,0-.46l.25-.05c.57-.13.59-.37.59-2.3ZM58,280.3a2.68,2.68,0,0,0,0,.61s.18.09.69.09a1.16,1.16,0,0,0,1-.48,3.89,3.89,0,0,0,.5-2.28c0-1.45-.49-2.82-1.59-2.82-.62,0-.65.07-.65.58Z"/><path class="cls-5" d="M66.58,277.69c0-1.94,0-2.26-.61-2.35l-.24,0a.6.6,0,0,1,0-.46c.49,0,.83,0,1.25,0s.74,0,1.23,0a.6.6,0,0,1,0,.46l-.25,0c-.58.09-.6.41-.6,2.35v6.54c0,1.94,0,2.2.6,2.33l.25.05a.6.6,0,0,1,0,.46c-.49,0-.83-.05-1.23-.05s-.76,0-1.25.05a.6.6,0,0,1,0-.46l.24-.05c.59-.13.61-.39.61-2.33Z"/><path class="cls-5" d="M73.88,287.31a2.15,2.15,0,0,1-1.55-.68,14.75,14.75,0,0,1-.27-2.57c0-.13.2-.16.24-.05.15.93.56,2.73,1.71,2.73.84,0,1.24-1,1.24-2.11a3.71,3.71,0,0,0-.81-2.57l-1-1.14a4.92,4.92,0,0,1-1.07-3.15c0-1.75.74-3.16,2-3.16a2.2,2.2,0,0,1,.92.24.86.86,0,0,0,.35.11,14.35,14.35,0,0,1,.18,2.24c0,.11-.2.16-.25.05-.13-.88-.4-2.07-1.35-2.07s-1.18,1.19-1.18,2a3.41,3.41,0,0,0,.84,2.25l.8.92A5.1,5.1,0,0,1,76,283.92C76,285.93,75.18,287.31,73.88,287.31Z"/><path class="cls-5" d="M91.6,283.9c0,.55,0,2.73,0,3.21,0,.11-.08.2-.19.2-.12-.31-.41-.95-1.28-2.77l-2.31-4.85c-.26-.57-.94-2.07-1.15-2.47h0a8.42,8.42,0,0,0-.05,1.19v4a26.09,26.09,0,0,0,.18,3.8.57.57,0,0,0,.51.35l.31.05a.55.55,0,0,1,0,.46c-.45,0-.8-.05-1.17-.05s-.68,0-1,.05a.56.56,0,0,1,0-.46l.27-.05a.53.53,0,0,0,.43-.37,32.3,32.3,0,0,0,.13-3.78v-5.3a2.77,2.77,0,0,0-.22-1.33.93.93,0,0,0-.61-.44l-.17,0a.52.52,0,0,1,0-.46,10.4,10.4,0,0,0,1.12,0,2.16,2.16,0,0,0,.46,0,29.55,29.55,0,0,0,1.7,4l1,2c.68,1.41,1.17,2.44,1.64,3.32h0a3.33,3.33,0,0,0,0-.77v-3.93a23.38,23.38,0,0,0-.2-3.8c-.06-.16-.22-.28-.62-.37l-.17,0c-.07-.11-.06-.41,0-.46.46,0,.8,0,1.18,0s.68,0,1,0a.53.53,0,0,1,0,.46l-.14,0c-.32.09-.52.24-.56.39a28.63,28.63,0,0,0-.14,3.78Z"/><path class="cls-5" d="M99.08,284.23c0,2,.06,2.26.6,2.33l.38.05a.6.6,0,0,1,0,.46c-.62,0-1-.05-1.36-.05s-.77,0-1.3.05a.6.6,0,0,1,0-.46l.31-.05c.58-.11.6-.37.6-2.33v-.94A6.26,6.26,0,0,0,98,281l-1.18-4.22c-.33-1.21-.48-1.3-.78-1.39l-.28-.09a.55.55,0,0,1,0-.46c.32,0,.68,0,1.15,0a9.42,9.42,0,0,0,1.07,0c.09,0,.09.35,0,.46l-.13,0c-.35.09-.42.19-.42.33a14.42,14.42,0,0,0,.31,1.42c.37,1.36.74,2.81,1.12,4.07.31-1,.64-2,.94-3.1a24.44,24.44,0,0,0,.65-2.42c0-.11-.18-.24-.42-.3l-.18,0a.49.49,0,0,1,0-.46c.36,0,.64,0,.95,0s.59,0,.93,0a.5.5,0,0,1,0,.46l-.28.09c-.52.16-.82,1.32-1.31,2.9l-.63,2a7,7,0,0,0-.47,3Z"/><path class="cls-5" d="M108.48,282.76c-.07-.4-.11-.46-.41-.46h-1.5c-.25,0-.31.06-.38.44l-.35,1.93a11.93,11.93,0,0,0-.22,1.52c0,.22,0,.33.29.37l.33.05a.47.47,0,0,1,0,.46c-.26,0-.57,0-1-.05s-.69,0-1,.05a.6.6,0,0,1,0-.46l.33-.05c.24,0,.46-.24.6-.9.18-.85.45-2,.87-4.09l1-5a4.54,4.54,0,0,0,.17-1.3,1.5,1.5,0,0,0,.51-.7c.06,0,.13,0,.15.16.13.81.29,1.66.44,2.46l1.36,7.38c.29,1.58.42,1.86.85,1.95l.27.05a.61.61,0,0,1,0,.46c-.41,0-.76-.05-1.21-.05s-.85,0-1.14.05a.5.5,0,0,1,0-.46l.29-.05c.21,0,.35-.15.35-.33a6.5,6.5,0,0,0-.13-1Zm-2-1.63c-.08.42-.07.44.21.44h1.22c.29,0,.31-.08.22-.57l-.54-3c-.08-.45-.16-.94-.22-1.16h0c0,.09-.13.53-.24,1.08Z"/><path class="cls-5" d="M120.24,283.9c0,.55,0,2.73,0,3.21,0,.11-.08.2-.19.2-.12-.31-.41-.95-1.28-2.77l-2.31-4.85c-.26-.57-.94-2.07-1.15-2.47h0a8.42,8.42,0,0,0,0,1.19v4a26.09,26.09,0,0,0,.18,3.8.57.57,0,0,0,.51.35l.31.05a.55.55,0,0,1,0,.46c-.45,0-.8-.05-1.17-.05s-.68,0-1,.05a.56.56,0,0,1,0-.46l.27-.05a.52.52,0,0,0,.43-.37,32.3,32.3,0,0,0,.13-3.78v-5.3a2.77,2.77,0,0,0-.22-1.33.9.9,0,0,0-.61-.44l-.17,0a.52.52,0,0,1,0-.46,10.4,10.4,0,0,0,1.12,0,2.16,2.16,0,0,0,.46,0,29.55,29.55,0,0,0,1.7,4l1,2c.68,1.41,1.17,2.44,1.64,3.32h0a3.33,3.33,0,0,0,0-.77v-3.93a23.38,23.38,0,0,0-.2-3.8c-.06-.16-.22-.28-.62-.37l-.17,0c-.07-.11-.06-.41,0-.46.46,0,.8,0,1.18,0s.68,0,1,0a.53.53,0,0,1,0,.46l-.14,0c-.32.09-.52.24-.56.39a28.63,28.63,0,0,0-.14,3.78Z"/><path class="cls-5" d="M127.1,282.48a1,1,0,0,1,.14.59,1.17,1.17,0,0,1-.07.46l-2.32.4a1.09,1.09,0,0,1-.15-.58,1.15,1.15,0,0,1,.08-.46Z"/><path class="cls-5" d="M137.17,283.9c0,.55,0,2.73,0,3.21,0,.11-.08.2-.19.2-.12-.31-.41-.95-1.27-2.77l-2.31-4.85c-.27-.57-.94-2.07-1.15-2.47h0a8.42,8.42,0,0,0,0,1.19v4a26.09,26.09,0,0,0,.18,3.8.56.56,0,0,0,.5.35l.31.05a.55.55,0,0,1,0,.46c-.45,0-.79-.05-1.16-.05s-.69,0-1,.05a.56.56,0,0,1,0-.46l.27-.05a.53.53,0,0,0,.44-.37,32.3,32.3,0,0,0,.13-3.78v-5.3a2.77,2.77,0,0,0-.22-1.33.94.94,0,0,0-.62-.44l-.17,0a.52.52,0,0,1,0-.46,10.57,10.57,0,0,0,1.13,0,2.16,2.16,0,0,0,.46,0,28.35,28.35,0,0,0,1.7,4l1,2c.69,1.41,1.18,2.44,1.64,3.32h0a3.33,3.33,0,0,0,0-.77v-3.93a23.38,23.38,0,0,0-.2-3.8c-.06-.16-.21-.28-.61-.37l-.17,0c-.07-.11-.06-.41,0-.46.46,0,.79,0,1.17,0a10.29,10.29,0,0,0,1,0,.53.53,0,0,1,0,.46l-.14,0c-.32.09-.52.24-.56.39a27,27,0,0,0-.15,3.78Z"/><path class="cls-5" d="M144.66,284.23c0,2,.06,2.26.59,2.33l.38.05a.6.6,0,0,1,0,.46c-.61,0-1-.05-1.35-.05s-.78,0-1.3.05a.6.6,0,0,1,0-.46l.31-.05c.57-.11.59-.37.59-2.33v-.94a6.26,6.26,0,0,0-.32-2.28l-1.17-4.22c-.34-1.21-.49-1.3-.79-1.39l-.27-.09a.55.55,0,0,1,0-.46c.31,0,.67,0,1.15,0a9.09,9.09,0,0,0,1.06,0c.09,0,.09.35,0,.46l-.13,0c-.34.09-.41.19-.41.33s.26,1.23.3,1.42c.37,1.36.74,2.81,1.13,4.07.31-1,.64-2,.93-3.1a24.44,24.44,0,0,0,.65-2.42c0-.11-.18-.24-.42-.3l-.18,0a.49.49,0,0,1,0-.46c.36,0,.65,0,1,0s.59,0,.92,0a.5.5,0,0,1,0,.46l-.27.09c-.52.16-.82,1.32-1.32,2.9l-.62,2a7,7,0,0,0-.47,3Z"/><path class="cls-5" d="M154.06,282.76c-.07-.4-.11-.46-.41-.46h-1.5c-.25,0-.31.06-.38.44l-.35,1.93a11.93,11.93,0,0,0-.22,1.52c0,.22.05.33.29.37l.33.05a.47.47,0,0,1,0,.46c-.26,0-.57,0-1-.05s-.68,0-.95.05a.6.6,0,0,1,0-.46l.33-.05c.23,0,.45-.24.59-.9.18-.85.46-2,.88-4.09l1-5a4.54,4.54,0,0,0,.17-1.3,1.52,1.52,0,0,0,.52-.7c.06,0,.13,0,.15.16.13.81.29,1.66.44,2.46l1.36,7.38c.29,1.58.42,1.86.85,1.95l.26.05a.61.61,0,0,1,0,.46c-.4,0-.75-.05-1.2-.05s-.86,0-1.14.05a.5.5,0,0,1,0-.46l.28-.05c.21,0,.35-.15.35-.33a6.5,6.5,0,0,0-.13-1Zm-2-1.63c-.08.42-.07.44.2.44h1.23c.29,0,.31-.08.22-.57l-.54-3c-.08-.45-.17-.94-.23-1.16h0c0,.09-.13.53-.24,1.08Z"/><path class="cls-5" d="M165.81,283.9c0,.55,0,2.73,0,3.21,0,.11-.08.2-.19.2-.12-.31-.41-.95-1.27-2.77l-2.31-4.85c-.27-.57-.94-2.07-1.15-2.47h0a8.42,8.42,0,0,0-.05,1.19v4a26.09,26.09,0,0,0,.18,3.8.56.56,0,0,0,.5.35l.31.05a.55.55,0,0,1,0,.46c-.45,0-.79-.05-1.16-.05s-.69,0-1,.05a.56.56,0,0,1,0-.46l.27-.05a.53.53,0,0,0,.44-.37,32.3,32.3,0,0,0,.13-3.78v-5.3a2.77,2.77,0,0,0-.22-1.33.94.94,0,0,0-.62-.44l-.17,0a.52.52,0,0,1,0-.46,10.57,10.57,0,0,0,1.13,0,2.16,2.16,0,0,0,.46,0,29.55,29.55,0,0,0,1.7,4l1,2c.69,1.41,1.18,2.44,1.64,3.32h0a3.33,3.33,0,0,0,0-.77v-3.93a23.38,23.38,0,0,0-.2-3.8c0-.16-.21-.28-.61-.37l-.17,0c-.07-.11-.06-.41,0-.46.46,0,.79,0,1.17,0a10.29,10.29,0,0,0,1,0,.53.53,0,0,1,0,.46l-.14,0c-.32.09-.52.24-.56.39a27,27,0,0,0-.15,3.78Z"/><rect class="cls-6" width="380.17" height="475.55"/></g></svg>