<svg xmlns="http://www.w3.org/2000/svg" viewBox="0 0 410 38"><defs><style>.cls-1{fill:#fff;}.cls-2{fill:none;opacity:0.1;}</style></defs><title>アートボード 16</title><g id="letter"><path class="cls-1" d="M4.19,5.54C6.33,2.49,9.05,1,12.1,1a13.36,13.36,0,0,1,5.18,1.28,1.34,1.34,0,0,0,.82.22c0,1.23.17,4.6.41,7.86a.44.44,0,0,1-.79.11c-.44-3.64-1.76-7.81-6-7.81-4.48,0-8.28,5.18-8.28,16.26s3.89,17.43,8.69,17.43c3.78,0,5.45-4.49,6.12-7.65a.45.45,0,0,1,.77.22,32.19,32.19,0,0,1-1.41,7.32,4.62,4.62,0,0,0-1,.54A10.26,10.26,0,0,1,12,38a9,9,0,0,1-7.29-3.58C2.32,31.48.5,26.61.5,19.71.5,13.77,2,8.69,4.19,5.54Z"/><path class="cls-1" d="M56.48,19.87c-1.4,0-1.46.11-1.46,1.71v7.54c0,5.62.14,6.37,1.78,6.69l.85.16a1.7,1.7,0,0,1-.06,1.33c-1.58-.1-2.57-.16-3.72-.16s-2.25.11-3.39.16A1.67,1.67,0,0,1,50.42,36l.5-.16c1.64-.54,1.7-1.07,1.7-6.69V9.87c0-5.62-.21-6.53-1.73-6.74L50.13,3a1.72,1.72,0,0,1,.06-1.34c1.43.06,2.43.16,3.68.16s2.14-.05,3.4-.16A1.72,1.72,0,0,1,57.33,3l-.56.11C55.08,3.45,55,4.25,55,9.87V16c0,1.66.06,1.71,1.46,1.71h8.37c1.41,0,1.47-.05,1.47-1.71V9.87c0-5.62-.06-6.42-1.79-6.74L64,3A1.77,1.77,0,0,1,64,1.68c1.35.11,2.35.16,3.55.16s2.14-.05,3.45-.16A1.72,1.72,0,0,1,71.09,3l-.61.11c-1.7.32-1.76,1.12-1.76,6.74V29.12c0,5.62.06,6.31,1.76,6.69l.7.16a1.7,1.7,0,0,1-.06,1.33c-1.4-.1-2.4-.16-3.54-.16s-2.26.06-3.55.16A1.72,1.72,0,0,1,64,36l.55-.16c1.79-.54,1.79-1.07,1.79-6.69V21.58c0-1.6-.06-1.71-1.47-1.71Z"/><path class="cls-1" d="M108.07,13.47c.2,1.17.32,1.33,1.2,1.33h4.42c.73,0,.91-.16,1.11-1.28l1-5.62a34.43,34.43,0,0,0,.64-4.43c0-.65-.14-1-.85-1.07l-1-.16a1.36,1.36,0,0,1,0-1.34c.77.11,1.67.11,3.05.16,1,0,2-.11,2.81-.16a1.77,1.77,0,0,1,.06,1.34l-1,.16c-.7.1-1.34.69-1.75,2.62-.53,2.46-1.35,5.93-2.58,11.92l-3,14.44a13.08,13.08,0,0,0-.49,3.8,4.42,4.42,0,0,0-1.53,2c-.17,0-.38-.1-.44-.48-.38-2.35-.85-4.81-1.28-7.16l-4-21.5c-.85-4.6-1.23-5.41-2.49-5.67l-.79-.16a1.82,1.82,0,0,1,0-1.34c1.21.11,2.23.16,3.55.16S107.37,1,108.21.9a1.41,1.41,0,0,1,.06,1.34l-.85.16c-.61.1-1,.42-1,1a19.29,19.29,0,0,0,.38,2.83Zm5.8,4.76c.23-1.23.2-1.29-.62-1.29h-3.6c-.85,0-.91.22-.64,1.66l1.58,8.72c.23,1.28.49,2.73.67,3.37h.06c.09-.27.38-1.55.7-3.16Z"/><path class="cls-1" d="M153,9.84c0-5.09-.09-6-1.29-6.26l-.93-.22a1.39,1.39,0,0,1,0-1.33,40,40,0,0,1,6.53-.43,6.5,6.5,0,0,1,4.88,1.6c1.41,1.34,2.44,3.75,2.44,7.49,0,5.08-2.2,7.86-3.66,8.93a2.07,2.07,0,0,0,.14,1.29c2.34,6.9,3.9,11.17,5.89,14.22a3,3,0,0,0,2,1.5.71.71,0,0,1,0,.75,2.7,2.7,0,0,1-1.29.27c-2.49,0-4-1.34-6.06-6.74-.76-2-2-5.67-2.87-8.08-.44-1.17-.91-1.71-2.08-1.71s-1.38.05-1.38,1.18V29c0,5.61.06,6.25,1.76,6.68l.61.16a1.76,1.76,0,0,1-.05,1.34c-1.32-.11-2.32-.16-3.49-.16s-2.28,0-3.66.16a1.76,1.76,0,0,1-.06-1.34l.74-.16C153,35.35,153,34.65,153,29Zm2.4,7.64a7.4,7.4,0,0,0,.09,1.77c.09.16.53.27,2,.27a3.41,3.41,0,0,0,3-1.39c.79-1.13,1.46-3,1.46-6.64,0-4.22-1.43-8.23-4.68-8.23-1.82,0-1.91.21-1.91,1.71Z"/><path class="cls-1" d="M203.75,13.47c.2,1.17.32,1.33,1.2,1.33h4.42c.73,0,.91-.16,1.11-1.28l1-5.62a34.43,34.43,0,0,0,.64-4.43c0-.65-.14-1-.85-1.07l-1-.16A1.33,1.33,0,0,1,210.4.9c.76.11,1.67.11,3,.16,1,0,2-.11,2.81-.16a1.72,1.72,0,0,1,.06,1.34l-1,.16c-.71.1-1.35.69-1.76,2.62-.53,2.46-1.35,5.93-2.58,11.92l-3,14.44a13.45,13.45,0,0,0-.49,3.8,4.49,4.49,0,0,0-1.53,2c-.17,0-.38-.1-.43-.48-.38-2.35-.85-4.81-1.29-7.16l-4-21.5c-.85-4.6-1.23-5.41-2.49-5.67L197,2.24A1.73,1.73,0,0,1,197,.9c1.2.11,2.22.16,3.54.16S203.05,1,203.9.9a1.44,1.44,0,0,1,0,1.34l-.84.16c-.62.1-1,.42-1,1a19.29,19.29,0,0,0,.38,2.83Zm5.8,4.76c.23-1.23.2-1.29-.62-1.29h-3.6c-.85,0-.91.22-.64,1.66l1.58,8.72c.23,1.28.5,2.73.67,3.37H207c.09-.27.38-1.55.7-3.16Z"/><path class="cls-1" d="M249.92,5.45C252.06,2.4,254.78.9,257.83.9A13.15,13.15,0,0,1,263,2.19a1.33,1.33,0,0,0,.82.21c0,1.23.18,4.6.41,7.86a.43.43,0,0,1-.79.11c-.44-3.64-1.76-7.81-6-7.81-4.48,0-8.29,5.19-8.29,16.26,0,11.23,3.9,17.44,8.7,17.44,3.78,0,5.44-4.5,6.12-7.65a.44.44,0,0,1,.76.21,32.42,32.42,0,0,1-1.41,7.33,4.31,4.31,0,0,0-1,.53,10.31,10.31,0,0,1-4.63,1.23,9,9,0,0,1-7.29-3.58c-2.34-2.94-4.16-7.81-4.16-14.71C246.23,13.69,247.7,8.61,249.92,5.45Z"/><path class="cls-1" d="M305.38,29c0,5.61.06,6.41,1.75,6.68l.94.16a1.72,1.72,0,0,1-.06,1.34c-1.67-.11-2.66-.16-3.83-.16s-2.2,0-4.07.16a1.5,1.5,0,0,1,0-1.34l1.05-.16c1.67-.27,1.82-1.07,1.82-6.68V5.13c0-1.66,0-1.71-.88-1.71h-1.61c-1.26,0-2.87.1-3.6,1.33a12.33,12.33,0,0,0-1.32,3.69c-.24.33-.65.06-.76-.37.47-2.41.9-5.83,1.11-8,.09-.11.47-.16.56,0,.17,1.71,1.14,1.66,2.48,1.66h11.86c1.58,0,1.85-.11,2.29-1.5a.36.36,0,0,1,.52.16,60.08,60.08,0,0,0-.44,8.13.4.4,0,0,1-.76.11c-.08-1.34-.29-3.32-.73-3.91a3.92,3.92,0,0,0-3.39-1.33h-2.08c-.88,0-.85.05-.85,1.82Z"/><path class="cls-1" d="M347,9.78c0-5.56-.06-6.36-1.78-6.74l-.47-.1a1.72,1.72,0,0,1,.06-1.34c1.25.11,2.25.16,3.45.16h5.51a21.64,21.64,0,0,0,3.95-.16c.17.91.35,4.76.47,7.11-.12.32-.59.43-.73.11-.44-2.51-.71-4.39-2.23-5.08a7.78,7.78,0,0,0-2.84-.32h-2.11c-.88,0-.88.1-.88,2.14V16.25c0,1.5.09,1.5,1,1.5H352a6.24,6.24,0,0,0,2.49-.32c.35-.21.55-.53.7-1.87l.23-2.2a.41.41,0,0,1,.76.06c0,1.28-.11,3.37-.11,5.4s.11,4,.11,5.14a.41.41,0,0,1-.76.05l-.26-2.09c-.12-1-.32-1.76-.91-2a5.54,5.54,0,0,0-2.25-.27h-1.7c-.88,0-1,.06-1,1.45v7.54c0,2.83.09,4.65.56,5.56.35.64,1,1.23,3.54,1.23,2.26,0,3.11-.21,3.75-.8s1.32-2.41,2.08-5.19c.2-.27.61-.11.73.38a75.13,75.13,0,0,1-1.32,7.43q-3.94-.16-7.84-.16h-2.64c-1.26,0-2.25,0-4,.16a1.69,1.69,0,0,1-.06-1.34l1-.16c1.67-.27,1.81-1.07,1.81-6.68Z"/><path class="cls-1" d="M393.33,9.84c0-5.09-.09-6-1.29-6.26l-.94-.22a1.45,1.45,0,0,1,0-1.33,40,40,0,0,1,6.53-.43,6.51,6.51,0,0,1,4.89,1.6C404,4.54,405,7,405,10.69c0,5.08-2.19,7.86-3.66,8.93a2.08,2.08,0,0,0,.15,1.29c2.34,6.9,3.89,11.17,5.88,14.22a3,3,0,0,0,2,1.5.67.67,0,0,1,0,.75,2.62,2.62,0,0,1-1.28.27c-2.49,0-4-1.34-6.07-6.74-.76-2-2-5.67-2.87-8.08-.43-1.17-.9-1.71-2.07-1.71-1.32,0-1.38.05-1.38,1.18V29c0,5.61.06,6.25,1.76,6.68l.61.16a1.71,1.71,0,0,1-.06,1.34c-1.31-.11-2.31-.16-3.48-.16s-2.29,0-3.66.16a1.67,1.67,0,0,1-.06-1.34l.73-.16c1.7-.37,1.76-1.07,1.76-6.68Zm2.4,7.64a7.4,7.4,0,0,0,.09,1.77c.09.16.52.27,2,.27a3.4,3.4,0,0,0,3-1.39c.79-1.13,1.47-3,1.47-6.64,0-4.22-1.44-8.23-4.69-8.23-1.81,0-1.9.21-1.9,1.71Z"/><rect class="cls-2" width="410" height="38"/></g></svg>