<svg xmlns="http://www.w3.org/2000/svg" viewBox="0 0 380.17 475.55"><defs><style>.cls-1,.cls-2,.cls-3,.cls-5{fill:none;}.cls-1,.cls-2,.cls-3{stroke:#000;}.cls-1{stroke-width:0.5px;}.cls-2{stroke-width:0.4px;}.cls-3{stroke-width:0.44px;}.cls-4{fill:#fff;}.cls-5{opacity:0.12;}</style></defs><title>アートボード 34</title><g id="letter_ol"><path d="M30.93,79.07a75.37,75.37,0,0,0,3.65-18c1.08.33,3.53,1.21,4.11,1.47.21.11.28.18.28.36,0,.37-.38.44-.81.48C36.61,69.49,34.37,75.22,31,79.14Zm13.31,2.64c0,2.72-.14,4.81-3.67,4.81-.79,0-.81-.18-.86-1.21a4.49,4.49,0,0,0-2.84-4.44v-.15c.57,0,3.13.18,3.65.18s.6-.33.6-1.28V52.54a27.47,27.47,0,0,1,3.53.58c.14,0,.31.11.31.33s-.41.52-.72.66Zm2-20.33c4.48,2.5,7.08,7.16,7.08,11.16,0,3.45-1.67,4.07-2.29,4.07-1,0-1-.81-1.14-1.72-.77-6.5-2.13-10.9-3.68-13.4Z"/><path d="M76,61.45V52.54c.52,0,2.36.25,3,.33.48,0,.57.11.57.29s-.14.29-.69.52v7.77H80l1.45-3.11c.1-.22.22-.41.29-.41a23.85,23.85,0,0,1,2.74,3.67c0,.26-.07.29-.16.29h-5c.54,5.88,3.26,11.64,6.17,14.68v.08a4.88,4.88,0,0,0-1.95,3.41c-.17,1-.24,1.06-.5,1.06s-.53-.29-.7-.58c-2.26-3.93-3.17-8-3.26-18.65h-.22V85.38c0,.48,0,.81-.43.85l-1.83.22c-.34,0-.67,0-.67-1V72.06a30.14,30.14,0,0,1-6.15,9.54l0-.07c3.91-8.08,4.82-14.2,5.63-19.64h-5.8V65c3.49,1.84,3.56,4.08,3.56,5.18,0,2.2-1.15,3.23-2.1,3.23-.55,0-.55-.48-.57-1.62a23.07,23.07,0,0,0-.89-6V85.27c0,.74,0,.92-.42,1l-1.89.22c-.4,0-.6,0-.6-.74V73a25.83,25.83,0,0,1-5,8.22l-.05,0c2.63-6.09,3.75-11.89,4.63-19.27H62.49l-.12-.44h4.38v-9c.55.08,2.84.3,3.25.3.09,0,.31.07.31.25s-.14.33-.65.48v8h.41l1.24-2.75c.1-.18.19-.4.29-.4a21.92,21.92,0,0,1,2.19,3.15Z"/><path d="M99.38,85.75a13.67,13.67,0,0,0,4.84-5.58c-1.81-1.43-2.77-3.52-2.77-10.24,0-1.69,0-2.16.29-6.64A25.52,25.52,0,0,0,98.5,75.11a10.69,10.69,0,0,0,.86,4.4,2.11,2.11,0,0,1,.23.88c0,.92-.5,1.87-1.45,1.87-.55,0-1.1-.25-1.79-1.47s-2-3.74-2-8.73a103.57,103.57,0,0,1,1.1-11.6,22.4,22.4,0,0,0,.19-2.78A15.21,15.21,0,0,0,95,53.53a10.23,10.23,0,0,1,3.22,7.37,15.31,15.31,0,0,1-.52,3.53,49.8,49.8,0,0,0-1.15,8.11c0,.22,0,1.65.38,1.65.12,0,.15-.15.48-1.51.67-2.56,3.17-12.33,8.4-13.61-.08-1.51-.2-3.52-1.53-3.52-.36,0-.57.18-.88.51.24-.81.88-2.83,2.1-2.83A2.54,2.54,0,0,1,108,55.88c0,.51-.1,2.68-.1,3.12,1.41.25,6,1.1,6,11.34,0,11.52-6.75,10.93-7.25,10.86-2,3.3-5.63,4.33-7.34,4.69ZM106,66.26c0-.81,0-4-.14-6.53a6.67,6.67,0,0,0-3.7,3c-.05,1.32-.07,2.68-.07,4,0,4.19.12,9.1,3.27,10.31C106,74.12,106,68.32,106,66.26ZM108.4,72a32.63,32.63,0,0,1-.31,4.88c1-.48,3.14-1.5,3.14-8.33,0-5.36-1.74-7.85-3.24-8.55C108.25,66.15,108.4,69.05,108.4,72Z"/><path d="M126.92,86.34c5-3,5.32-8.48,5.32-14a40,40,0,0,0-.4-6.38c-.15-.63-.36-.88-.74-.88-.76,0-1.69,1.58-2.48,3.12-1.43,2.82-1.62,3.15-2.41,3.15-.6,0-2.22-.18-2.22-2.75A11,11,0,0,1,125.76,63a10.65,10.65,0,0,0-.38,2.46c0,1.14.35,1.17.54,1.17.36,0,.72-.22,2.1-1.25,2.15-1.57,2.51-1.83,3.39-1.83,2.74,0,3.86,3.71,3.86,9.94,0,4.78-.43,11.49-8.32,13Zm1.34-27.16c.24-.29,1.43-1.54,1.67-1.8a1.86,1.86,0,0,0,.67-1.28c0-.52-.29-.85-1.19-1.47a2.35,2.35,0,0,1-1.15-2.09,4.77,4.77,0,0,0,2,.58,4.18,4.18,0,0,1,3.84,4.19c0,1.25-.48,3-1.53,3-.19,0-.29-.08-1.1-.85a2.09,2.09,0,0,0-1.52-.62,3.6,3.6,0,0,0-1.65.48Z"/><path d="M32.08,152.76c6.21,2.15,7.4,6.51,7.4,9,0,1.58-.74,4.49-3.37,4.49-1.28,0-1.57-.56-1.65-2.91-.12-2.72-.86-7.4-2.47-10.31Zm25.82,5.63a2.43,2.43,0,0,1-.12.88c.61.13.86.26.86.64s-.29.57-1,.82c1.44,3.67,6.17,8.73,13.16,9.62v.19c-1.19,1-2.42,2.34-2.79,6.2-.17,1.64-.21,2.08-.87,2.08a4.83,4.83,0,0,1-2.34-1.32,32.32,32.32,0,0,1-4.9,4.68c2.39.63,7.82,2,7.82,7.71,0,2.79-1.44,4.69-2.8,4.69-.82,0-1.07-.57-1.85-2.91a26.33,26.33,0,0,0-5.14-9.18v8c0,4-.7,6.58-4.89,6.58-1.24,0-1.32-.26-1.36-2.41,0-1.71-.41-4.24-3.13-5.5a49.63,49.63,0,0,1-4.4,4.55c-.94-3.79-1.19-4.74-1.93-8.47l10.94-2.79V169.08c1.77.25,4.61.57,5.39.76.16.06.45.13.45.44,0,.51-.62.7-1.07.82v10.63a2.28,2.28,0,0,1,.66.13c.25-1.2,1.31-6.52,1.56-7.66.29.07,1.81.64,2.26.76-.45-.56-4.07-5.37-5.1-14a35.61,35.61,0,0,1-9.7,12.59c.86.44,3.91,2.09,3.91,5.57a3.53,3.53,0,0,1-3.42,3.85c-.94,0-1.15-.69-1.15-2a32.55,32.55,0,0,0-.57-6.51,26.33,26.33,0,0,1-5.19,3L41,177.3c6.09-5.81,9.42-14,11.23-19.29l.9.19v-6.45c-3,5.5-6.7,9.61-11.1,12.21-.25,2.21-.74,6.39-1.61,12.65-.16,1.14-.78,5.57-.78,6.45,0,1.14.17,1.65,1.11,3.8a10.38,10.38,0,0,1,.87,4.36c0,3.86-1.48,5.7-3.42,5.7-2.26,0-2.3-1.77-2.34-4.49a43.08,43.08,0,0,0-3.17-15.69l0-.13c1.07.89,2.14,2,3.13,3,1.81-6.07,6.17-23.34,7.65-31l.16.07c-.41,4.43-.74,7.78-1.52,14.48a59.15,59.15,0,0,0,7.57-16.57H43.47l-.21-.76h9.87v-7.59c1.19.13,4.44.57,5.43.69.25,0,.57.13.57.45,0,.57-.78.76-1.23.82v5.63h5l2-4.18c.29-.63.41-.82.58-.82s4,4.56,4,5.32c0,.44-.25.44-.5.44H57.9v1.52c5.88,1.45,11.6,4.36,11.6,10.63,0,2.65-1.24,4.74-2.92,4.74-.7,0-.91-.38-1.44-2.28a32.13,32.13,0,0,0-7.24-12.71ZM34.34,138.46c2.42.57,8.3,2.4,8.3,8.29,0,3.29-2.09,4.81-3.49,4.81-1,0-1.11-.45-1.48-3.1a23,23,0,0,0-3.37-9.81Zm18.79,44.29a42.77,42.77,0,0,1-4.4,6.19,19.1,19.1,0,0,0,3.17.32c1.23,0,1.23-.44,1.23-2.28Z"/><path d="M110.17,171.49v17.9c0,2.78,0,4.24-1,5.5-1.27,1.52-4.44,2-4.89,2-.9,0-1-.57-1-1.33-.12-4.11-.29-6-4.27-7.72l0-.19c.82,0,4.4.38,5.14.38,1.15,0,1.15-.44,1.15-2.28V171.49h-3.54c0,1.83,0,2.4-1,2.53L98,174.4c-1.07.12-1.07-.2-1.07-1.14V150.35c1.89.76,4.93,2.35,5.18,2.47h1c.24-2.09.61-5.75.74-8H94v16.64c0,15.31-1.6,27.39-9.5,35l-.08-.19c4-7.71,4.48-18.41,4.48-30.3V141.56c1.85.7,4.36,1.9,5.47,2.47h21l2.31-5c.2-.51.37-.82.49-.82s4.77,5.38,4.77,6.07c0,.51-.25.51-.49.51h-12a62.26,62.26,0,0,1-4.89,8h7.52l1.44-3.16c.49-1.14.58-1.27.74-1.27.49,0,5.1,5.32,5.1,6.2a1.35,1.35,0,0,1-.49.83c-.21.18-1.24.88-1.44,1.07v15.69c0,1.27,0,1.71-1.11,1.84l-3.05.38c-.69.06-.86.12-.86-.89v-2ZM89,194.26c4.65-5.88,6.91-10.31,9.91-18.41.58.44,5.35,4.24,5.35,4.68,0,.13,0,.32-.37.32a3.75,3.75,0,0,1-1.07-.25c-3.7,6.19-7.4,10.69-13.78,13.85Zm12.83-40.68v8.16h11.68v-8.16Zm11.68,17.15V162.5H101.78v8.23Zm-1.77,6.51c3.83.89,10.41,2.91,10.41,10.25,0,3.42-1.69,5.25-3.09,5.25-.86,0-1-.57-1.19-1.33a37.34,37.34,0,0,0-6.17-14Z"/><path d="M157,163.58c8.27,0,10.41,9.68,10.41,15.56,0,10.63-5.27,15.81-12.26,15.81-5.84,0-8.35-4-8.35-8.16,0-3.41,1.73-7,5.19-7,2.75,0,4.56,2.34,4.56,5.7a5.3,5.3,0,0,1-.54,2.65c1.86-.44,6.5-1.58,6.5-11.7,0-3.54-.66-10.57-6.29-10.57-3.49,0-6.46,2.79-9.62,11.65a46.72,46.72,0,0,0-1.93,7.4c-.21.95-.58,2.53-2.14,2.53-2.39,0-2.72-3.92-2.72-6.2,0-2.47.29-2.91,2.72-6.9.61-1.07,10-17.52,13.9-25.62a3.35,3.35,0,0,0,.37-1.39c0-.25-.09-.51-.29-.51a11,11,0,0,0-2.55,2.66c-1.93,2.53-2.59,3-4,3-2.84,0-4.28-4.42-4.52-6.7a3.56,3.56,0,0,0,2.18,1.07c1.81,0,5.67-3.41,7.6-5.06S157.3,140,158,140c1.11,0,4.81,1,4.81,6.33,0,1.89-.45,2.34-1.89,3.86-2.92,3-7.73,13.41-8.14,14.42A8.69,8.69,0,0,1,157,163.58Zm-4.11,22.33c0-1-.49-2.34-1.73-2.34s-1.4,1.33-1.4,1.9a2.28,2.28,0,0,0,2.23,2.27A2.18,2.18,0,0,0,152.9,185.91Z"/><path d="M193.25,183.38c.82,1.2,2.63,3.35,4.07,3.35,5.26,0,7-17.4,7-23.66,0-1.58,0-5.63-2.31-5.63-.65,0-1.64.7-3.74,2.21-3,13-6.5,28.41-8.59,32.59-.78,1.51-1.57,2.27-2.59,2.27-1.52,0-2.14-2.59-2.14-6.83,0-1,.08-1.14.9-2.15a44.29,44.29,0,0,0,3.75-8.92c1.56-4.75,2.17-7.21,3.74-13.54-1.2.76-3.17,2-4.65,2-1.64,0-3-2.09-3-4.56s1.44-5.31,1.93-6.26c.12,2.65.21,3.79,1.81,3.79a18.31,18.31,0,0,0,5.39-1.14,111.37,111.37,0,0,0,2.34-13c0-1.52-.78-1.84-1.15-1.84a.8.8,0,0,0-.49.13c0-3.23,2.22-3.42,3.08-3.42a4.14,4.14,0,0,1,3.74,3.92c0,.64-.12,1-.9,3.74-.46,1.7-1.07,4.23-2.18,8.92a10.62,10.62,0,0,1,2.59-.51c1,0,6.78.57,6.78,13.41,0,8.54-3.12,26.26-9.91,26.26a3.75,3.75,0,0,1-3.9-3.61,27.77,27.77,0,0,0-1.57-7.46Zm19.36-29.67c5.43,0,8,6,8,11.45,0,6.52-2.88,7.27-3.49,7.27-2,0-2-3-2-4,0-8.6-.49-13.6-5.59-14.36A13,13,0,0,1,212.61,153.71Z"/><path d="M34,236.44a3,3,0,0,0,1.28-.57c.57-.39.63-.43.81-.43.55,0,1.14.8,1.14,1.49a.6.6,0,0,1-.3.6,1.58,1.58,0,0,0-.47.58,40.65,40.65,0,0,1-3.12,4.42c-.12.13-.12.16-.12.19a.09.09,0,0,0,.08.1l1.76-.84a17,17,0,0,0,2.37-1.15.82.82,0,0,1,.47-.19c.34,0,1.48.54,1.48,1.29s-.44.81-.64.81-1-.13-1.15-.13c-1.89,0-2.65,2.35-2.65,3.36,0,1.46.77,1.73,1.93,2.16a.87.87,0,0,1,.69.93c0,1-.45,1-.78,1a2.78,2.78,0,0,1-1.83-.77,3.23,3.23,0,0,1-.81-2.57,6.75,6.75,0,0,1,1-3.43,1.29,1.29,0,0,0,.19-.46.09.09,0,0,0-.1-.1,8.75,8.75,0,0,0-2.47,1.73c-.55.54-.62.61-.82.61-.42,0-.6-.85-.6-1.31,0-.66.16-.74.72-1,1.28-.68,3.59-5,3.59-5.38,0,0,0-.07,0-.07a9.19,9.19,0,0,0-.84.74c-.34.3-.54.37-.62.37a.93.93,0,0,1-.6-.5,2,2,0,0,1-.24-1.13c0-.23,0-.6,0-.84A.75.75,0,0,0,34,236.44Z"/><path d="M48.05,249.28c1-.41,3.38-1.47,3.38-6.45,0-2.3-.68-5.7-3.06-5.68a4.08,4.08,0,0,1,.51,1.87c0,1.62-1.13,9.25-3.31,9.25-.71,0-.81-.67-1-1.47a5.41,5.41,0,0,0-.48-1.66,4,4,0,0,1-.41-1.84c0-3.78,2.48-6.73,4.92-6.73,2.21,0,4.16,2.34,4.16,6.66,0,2.87-1,4.61-2.06,5.27a5.82,5.82,0,0,1-2.7.85Zm-3.34-4.91a3.59,3.59,0,0,0,.15,1.29c.14.36.4.71.61.71.82,0,2.77-5,2.8-9.19C45.08,237.85,44.71,243.12,44.71,244.37Z"/><path d="M60.24,249.06v.61c0,.19,0,.3-.22.32l-.84.09c-.14,0-.21,0-.21-.3v-4.61a6.12,6.12,0,0,1-2.09,1.26v0a19.71,19.71,0,0,0,4.18-6.61c.23.11,1.2.67,1.4.78s.16.08.16.18,0,.14-.33.18l0,.06a5.54,5.54,0,0,0,4.44,2.85v0a2.19,2.19,0,0,0-.54,1.71c0,.27,0,.43-.22.43a3,3,0,0,1-1.09-.45l-.23.18v3.91c0,.22,0,.3-.21.32l-.82.09c-.16,0-.23,0-.23-.35v-.67Zm4.36-11.65.46-.85c.08-.15.1-.2.14-.2a10.31,10.31,0,0,1,1.35,1.86.34.34,0,0,1,0,.1c0,.22-.06.24-.57.3a5.94,5.94,0,0,1-1.27.82,2.12,2.12,0,0,1,.9,1.76c0,.85-.46,1.14-.69,1.14s-.25-.12-.4-.42a8,8,0,0,0-2.27-3.25v0a5.25,5.25,0,0,1,2.18.61c.1-.47.22-1.19.27-1.65h-6a8.91,8.91,0,0,1,.07,1.05c0,1.24-.42,2.07-1,2.07s-.68-.53-.68-1c0-.35.07-.41.33-.76a5.54,5.54,0,0,0,1-2.53l0,0a9.89,9.89,0,0,1,.19,1H61.1v-2.09l1.48.23c.05,0,.12,0,.12.09s-.09.17-.27.23v1.54Zm-7.07,5.25a17.58,17.58,0,0,0,2.16-4.53c.43.2,1.18.54,1.56.76a.14.14,0,0,1,.08.12c0,.14-.22.17-.33.17a9.88,9.88,0,0,1-3.47,3.51Zm5.74,2.12.25-.48a8.79,8.79,0,0,1-1.33-3.2,14.24,14.24,0,0,1-2.58,3.48c.28.06.48.11.78.2Zm-3,.2v3.9h3.12V245Z"/><path d="M77.28,244.22c.23.12.92.48.92.64s0,.1-.32.1a8.18,8.18,0,0,1-.68,1.78c.85.35,2.07,1,2.07,2.22,0,.8-.44,1.25-.73,1.25-.07,0-.14,0-.28-.19a9,9,0,0,0-1.83-2.08,4.9,4.9,0,0,1-2.53,1.68,11,11,0,0,1-3.29.53v-.05c.78-.26,3.38-1.09,4.73-2.95a13.31,13.31,0,0,0-1.57-.7c-.42.82-.58,1-.81.93l-.73-.37c-.12-.06-.2-.1-.2-.21a.61.61,0,0,1,.08-.25c.77-1.43,1-1.86,1.19-2.33H70.54l0-.17h2.87a13.64,13.64,0,0,0,.53-1.43,5.42,5.42,0,0,1-1,.32v0a6.39,6.39,0,0,0,2.83-5.41h-.37a11.11,11.11,0,0,1-1.94,2.88l0,0a22.07,22.07,0,0,0,1.15-5.05l1.49.64c.14.05.24.08.24.16s-.36.14-.4.14a10.69,10.69,0,0,1-.44,1.11H78.1l.44-.79c.09-.14.15-.25.22-.25a6.48,6.48,0,0,1,1.31,2c0,.18-.1.19-.25.19h-.39a16.79,16.79,0,0,1-1.56,1.11l0,0a12.27,12.27,0,0,0,.35-2.07H77.06a3.35,3.35,0,0,0,3,3.44V241c-.17.1-.58.31-.72,1.41-.07.46-.1.5-.15.56a6.48,6.48,0,0,1,.87,1.17c0,.08,0,.09-.08.09Zm-3.35-7.42a21.13,21.13,0,0,1-.77,2.57,13.23,13.23,0,0,0-.59,1.83,2.76,2.76,0,0,0,.07.45,3.25,3.25,0,0,1,.12.88c0,.72-.35,1.07-.81,1.07s-.47-.21-.47-.5,0-.65,0-.76a3.62,3.62,0,0,0-.65-2.17v-.06a2.31,2.31,0,0,1,.89.35,38.94,38.94,0,0,0,2.17-3.69Zm-2.79-1.11c.39,0,2,.2,2,1.7,0,.78-.47,1.14-.82,1.14s-.23-.1-.32-.55a7,7,0,0,0-.88-2.24Zm3.65,8.53c-.12.28-.58,1.3-.93,2a12.81,12.81,0,0,1,2,.15,9.47,9.47,0,0,0,.74-2.17ZM78.86,243a3.17,3.17,0,0,1-1.15-1.36,8.19,8.19,0,0,1-.72-3.41,5.09,5.09,0,0,1-2.58,4.18c.3.08,1.19.34,1.19.46s-.25.15-.31.16c-.13.31-.24.6-.42,1h3.44Z"/><path d="M88.85,242.83a1.68,1.68,0,0,0,1.33.83,2.38,2.38,0,0,0,2.21-2.56c0-1.33-.67-2-1.21-2-.76,0-2.06,1.33-3.44,2.82.64,1.39,1.9,4.23,1.9,5.92,0,1.19-.43,1.89-.93,1.89s-.4-.35-.42-1a19.3,19.3,0,0,0-1.24-6c-.18.21-.79.93-1,1.09a1.11,1.11,0,0,1-.71.4c-.69,0-1.17-.83-1.17-1.73a4.41,4.41,0,0,1,.25-1.23c.08.48.17,1,.59,1,.27,0,.39-.1,1.43-.87-.12-.24-.71-1.28-.83-1.5a1.59,1.59,0,0,1-.21-.82c0-1,.55-1.53,1-1.53.12,0,.25.08.64.28a3.41,3.41,0,0,0,1.15.47c.21,0,.35-.08.35-.55a1.8,1.8,0,0,0-.9-1.44,3.36,3.36,0,0,1,1.44.27,2.19,2.19,0,0,1,.83,1.7,1.86,1.86,0,0,1-.17.77,2.75,2.75,0,0,1,1.51-.61c1.14,0,2.27,1.39,2.27,3.3,0,2.54-1.59,3.41-2.62,3.41-1.18,0-1.59-.93-2.08-2.31Zm-.52-3.68a2,2,0,0,0-1.47-1c-.3,0-.36.36-.36.57,0,.43,0,.53.76,2.15l1.42-1.08Z"/><path d="M105.15,249.11l.62-1.38c.08-.18.09-.21.14-.21a7.38,7.38,0,0,1,1.23,1.65c0,.11-.07.11-.13.11H97.54l-.05-.17h5a85.51,85.51,0,0,0,1.15-9.58,17.41,17.41,0,0,1,1.84.71.14.14,0,0,1,.09.14c0,.11-.06.15-.33.15a55.46,55.46,0,0,1-2.46,8.58Zm-.39-10.34.63-1.44c0-.07.08-.2.12-.2a6.92,6.92,0,0,1,1.27,1.72c0,.11-.07.11-.14.11H97.93l-.05-.19h3.73v-3.38c.21,0,1.66.22,1.66.45s-.22.19-.32.22v2.71Zm-5.14,1.07a12.75,12.75,0,0,1,2.27,6.21c0,.43-.07,1.94-1,1.94-.42,0-.42-.31-.43-.77a37.78,37.78,0,0,0-.82-7.35Z"/><path d="M115.48,237.55a1.88,1.88,0,0,0,1,.27c.3,0,.68,0,.68.77a1,1,0,0,1-.68,1,14,14,0,0,1-2.42,1c-.21,1.38-.48,2.68-.8,4,1.19-1.47,1.92-1.69,2.42-1.69,1.09,0,2.39,1.2,2.39,3.69s-1.35,3.51-5.59,3.35v-.07c4-.51,4.28-2.46,4.28-3.87,0-1.23-.45-2.46-1.29-2.46s-1.54,1.23-2.29,2.88c-.08.17-.38,1-.47,1.1a.7.7,0,0,1-.59.4c-.69,0-.69-1.61-.69-1.68a1.3,1.3,0,0,1,.32-.86,17.09,17.09,0,0,0,1.32-4.6,5,5,0,0,1-.55.07c-.32,0-1.12,0-1.12-1.52a5.51,5.51,0,0,1,.1-1.06c.22.88.4,1,1.13,1a2.4,2.4,0,0,0,.67-.08,21,21,0,0,0,.21-2.38c0-.58-.15-.64-.45-.72.11-.24.31-.66.67-.66a1.37,1.37,0,0,1,1.11,1.3c0,.19,0,.22-.18.58a6.86,6.86,0,0,0-.3,1.48c.13-.06,1.16-.57,1.16-1.05a.32.32,0,0,0,0-.16Z"/><path d="M125.68,236a6.38,6.38,0,0,1,1.38.51h2.79l.48-1.13c0-.07.09-.2.13-.2a7.63,7.63,0,0,1,1.06,1.41c0,.11-.07.11-.13.11H127v5h2.9l.56-1.19c.08-.17.09-.19.13-.19a8.56,8.56,0,0,1,1.13,1.44c0,.13-.08.13-.14.13h-2.48a10.09,10.09,0,0,0,.53,2.66c0-.18.34-1.24.52-2.28.24.13,1.58.88,1.58,1.06s0,.11-.39.13a7.48,7.48,0,0,1-1.6,1.39,5.32,5.32,0,0,0,2.19,2.71v.06a3.22,3.22,0,0,0-.63,1.7c-.05.41-.05.46-.15.46s-1.1-.82-1.59-2.62A18.23,18.23,0,0,1,126.7,250c-.13-.6-.38-1.85-.48-2.44l1-.15v-5.44H127c0,3.66-.42,6-2.59,8.29v0c.74-1.35,1.32-3.39,1.32-7.46v-3.33h-1.11v2.71l1.05-.23v.06a13.13,13.13,0,0,1-1.06,1.14v5a3.17,3.17,0,0,1-.14,1.3,1.21,1.21,0,0,1-1.2.7c-.16,0-.17-.06-.18-.73a1.55,1.55,0,0,0-1-1.49v-.06l1,.09c.23,0,.23-.13.23-.49v-3.17c-.54.49-.73.62-1,.81-.06-.3-.12-.59-.42-2.41l1.39-.29v-3H122l-.05-.18h1.35v-3.92c.18,0,1.26.19,1.45.24,0,0,.13,0,.13.11s-.1.17-.32.26v3.31h.07l.46-1c.08-.17.08-.21.13-.21s.42.55.45.6Zm3.65,3.07.56-1.18c.08-.18.09-.19.12-.19a6.65,6.65,0,0,1,1.14,1.44c0,.13-.08.13-.14.13h-3.88l0-.2Zm.17,8a21.69,21.69,0,0,1-.54-5.14h-.43v5.27Z"/><path d="M140.13,241.71c2.09,0,2.63,2.45,2.63,3.94,0,2.69-1.33,4-3.1,4a2,2,0,0,1-2.11-2.06c0-.87.44-1.78,1.31-1.78.7,0,1.16.59,1.16,1.44a1.36,1.36,0,0,1-.14.67c.47-.11,1.64-.4,1.64-3,0-.9-.16-2.67-1.59-2.67-.88,0-1.63.7-2.43,2.94a11.77,11.77,0,0,0-.49,1.88c0,.24-.15.64-.54.64-.61,0-.69-1-.69-1.57s.07-.74.69-1.75c.15-.27,2.51-4.43,3.51-6.48a.8.8,0,0,0,.1-.35c0-.07,0-.13-.07-.13a2.72,2.72,0,0,0-.65.67c-.49.64-.66.75-1,.75-.72,0-1.08-1.12-1.14-1.69a.9.9,0,0,0,.55.27c.46,0,1.43-.87,1.92-1.28s.52-.45.69-.45,1.22.24,1.22,1.6c0,.48-.12.59-.48,1a18.8,18.8,0,0,0-2.06,3.65A2.18,2.18,0,0,1,140.13,241.71Zm-1,5.65c0-.25-.13-.59-.44-.59s-.35.34-.35.48a.58.58,0,0,0,.56.58A.56.56,0,0,0,139.09,247.36Z"/><path d="M149,241.87V239.6H148a14.44,14.44,0,0,1-1,1.17v0a24.74,24.74,0,0,0,1.48-5.41c.88.37,1.28.55,1.55.69a.17.17,0,0,1,.1.13c0,.16-.09.16-.31.16-.06.13-.28.61-.43.91h5.08L155,236c.06-.09.1-.21.14-.21a7.8,7.8,0,0,1,1.13,1.52c0,.12-.07.12-.13.12H154.7v2h.37l.48-.95c0-.11.1-.19.14-.19a5.59,5.59,0,0,1,.9,1.22c0,.11-.08.11-.14.11H154.7v2.27h.07l.46-1c0-.1.1-.19.14-.19a5.88,5.88,0,0,1,.93,1.26c0,.11-.08.11-.13.11H149a6,6,0,0,1,1.3.55c0,.11-.15.14-.34.17-.13.31-.22.53-.4.9h.56l.44-.58s.08-.11.11-.11a8,8,0,0,1,1,1.78c0,.09-.07.14-.44.24a7.74,7.74,0,0,1-4.08,5.26l0-.06a11.51,11.51,0,0,0,2-2.93,2,2,0,0,1-.42.1c-.15,0-.19-.1-.19-.26s0-.48,0-.56a7.1,7.1,0,0,0-.08-1,8.74,8.74,0,0,1-1.47,1.7l0-.05a22,22,0,0,0,1.68-5.14h-.94l-.05-.19Zm0-2.46v-1.54a9.24,9.24,0,0,1-.94,1.54Zm.41,4.45a12.83,12.83,0,0,1-.68,1.21,1.43,1.43,0,0,1,1,.75,9.8,9.8,0,0,0,.49-2Zm.8-6.45v2h.38v-2Zm0,2.19v2.27h.38V239.6Zm3.26,4.14v-1.55l1.46.27s.1,0,.1.1,0,.11-.32.22v1H155l.45-.89c.06-.13.09-.21.13-.21a5,5,0,0,1,.74,1.17c0,.11-.07.11-.13.11h-1.42v2.93H155l.5-1c0-.08.11-.19.14-.19a6.39,6.39,0,0,1,.93,1.28c0,.12-.08.12-.14.12h-1.7v2.65c0,.23,0,.34-.17.35l-.88.08c-.19,0-.19,0-.19-.32V247H150.8l-.05-.18h1v-3.59c.59.18.94.29,1.46.48Zm-1.84-6.33v2h.42v-2Zm0,2.19v2.27h.42V239.6Zm1.29,4.32v2.93h.55v-2.93Zm.18-6.51v2h.37v-2Zm0,2.19v2.27h.37V239.6Z"/><path d="M163.7,242.69a33.92,33.92,0,0,0-.57,4.22,2.74,2.74,0,0,0,.18,1c.17.44.19.48.19.66a.79.79,0,0,1-.73.86c-.8,0-1.91-1.52-1.91-5.49,0-1,0-1.32.29-4.53,0-.27.11-1.32.11-1.95a6.44,6.44,0,0,0-.17-1.57,4.81,4.81,0,0,1,1.51,3.4,4.69,4.69,0,0,1-.16,1.21,13.09,13.09,0,0,0-.57,3.75c0,1.23.18,2,.38,2s.31-.38.34-.46c.18-.48.89-2.55,1.07-3.14Zm2.71-2.79c1.4,0,2.92,1.25,2.92,4.07,0,.24,0,1.95-.86,1.95-.47,0-.71-.49-.72-1.06a8,8,0,0,0-.66-3.77,2.1,2.1,0,0,0-1.08-1.17Z"/><path d="M175.75,246.72c.21.31.66.85,1,.85,1.33,0,1.77-4.4,1.77-6,0-.4,0-1.42-.58-1.42-.17,0-.42.17-.95.56a66,66,0,0,1-2.18,8.24c-.19.39-.39.58-.65.58s-.54-.66-.54-1.73c0-.26,0-.29.23-.54a11.78,11.78,0,0,0,.94-2.26c.4-1.2.55-1.83,1-3.43a2.61,2.61,0,0,1-1.18.52c-.41,0-.77-.53-.77-1.16a4,4,0,0,1,.49-1.58c0,.67.05,1,.46,1a4.66,4.66,0,0,0,1.36-.29,28,28,0,0,0,.6-3.28c0-.39-.2-.46-.29-.46a.22.22,0,0,0-.13,0c0-.82.56-.87.78-.87a1.05,1.05,0,0,1,.95,1,3.94,3.94,0,0,1-.23.95c-.12.43-.27,1.07-.55,2.26a2.31,2.31,0,0,1,.65-.13c.25,0,1.72.14,1.72,3.39,0,2.16-.79,6.64-2.51,6.64a1,1,0,0,1-1-.91,6.93,6.93,0,0,0-.39-1.89Zm4.9-7.51c1.37,0,2,1.52,2,2.9,0,1.65-.73,1.84-.89,1.84-.49,0-.49-.77-.49-1,0-2.17-.13-3.44-1.42-3.63A3.2,3.2,0,0,1,180.65,239.21Z"/><path d="M187.7,249.86a5.88,5.88,0,0,0,2.87-1.23,4.13,4.13,0,0,0,1.25-3.16c0-1.36-.5-2.4-1.09-2.4s-1.56,2-2,3.27c-.16.43-.33,1-.88,1-.13,0-.89-.08-.84-1.32,0-.09.15-3,.18-4a4.9,4.9,0,0,1,.68-2.77,2.3,2.3,0,0,1,1.86-1.41c.31,0,.49-.11.49-.51,0-.55-.34-1-1-1.83.17.06,1,.26,1.14.31a1.87,1.87,0,0,1,1.34,2c0,.18,0,1.2-.58,1.2-.22,0-.29-.09-.56-.41a1.24,1.24,0,0,0-1-.51c-.94,0-1.32,1.26-1.32,1.84,0,.16.06.83.06,1a12,12,0,0,1-.22,1.72,10.49,10.49,0,0,0-.11,1.48c0,.23,0,.55.2.55s.24-.13.36-.29c.56-.67,1.5-1.73,2.51-1.73,1.29,0,2.13,1.6,2.13,3.49a3.47,3.47,0,0,1-1.14,3,6.84,6.84,0,0,1-3.58.8,5.94,5.94,0,0,1-.74,0Z"/><path d="M197.67,245.86a3.38,3.38,0,0,1,2.29.85,2.36,2.36,0,0,1,.64,1.66c0,.74-.3,1.25-.76,1.25s-.71-.66-.75-.85A4.7,4.7,0,0,0,197.6,246Z"/><path d="M206.3,238.46a7.6,7.6,0,0,1,.64,2.79c0,1.07-.37,1.45-.75,1.45a.75.75,0,0,1-.67-.77,5.77,5.77,0,0,1,.4-1.13,7.09,7.09,0,0,0,.36-2.34Zm5.37,1.22v-4.39c1.07.18,1.2.21,1.41.26s.19.06.19.14,0,.12-.31.21v3.78h.38l.57-1.23c.06-.13.09-.2.12-.2a7.73,7.73,0,0,1,1.17,1.51c0,.11-.06.11-.13.11H213v3.81h.18l.56-1.18c.09-.2.09-.21.14-.21a7.89,7.89,0,0,1,1.1,1.45c0,.13-.06.13-.13.13H213v5.3h.53l.61-1.3c.08-.17.09-.19.12-.19a8.34,8.34,0,0,1,1.19,1.55c0,.12-.08.12-.14.12h-6.62l-.05-.18h3.07v-5.3h-2.12l-.05-.19h2.17v-3.81h-1a14.46,14.46,0,0,1-1.77,4h0a23.35,23.35,0,0,0,.61-3.23.69.69,0,0,1-.59.4c-.3,0-.33-.23-.33-.43a5.3,5.3,0,0,0-.23-2v11.21c0,.21,0,.29-.19.3l-.87.1c-.1,0-.22,0-.22-.32V235.32c.23,0,1.29.18,1.42.18s.19,0,.19.14,0,.13-.33.25v2.44a2.08,2.08,0,0,1,1.26,1.41c.18-1.69.2-2.64.21-3.12.23.06,1.08.27,1.58.45,0,0,.16.06.16.18s-.24.19-.31.19c-.1.51-.2,1.09-.51,2.24Z"/><path d="M223.19,242.32c.12-.24.13-.29.2-.29a5.11,5.11,0,0,1,1.16,1.49c0,.21-.14.3-.43.5-.14,4.19-.55,6.11-2.32,6.11-.08,0-.18,0-.18-.22,0-1.11,0-1.51-.71-2v-.07a5.57,5.57,0,0,0,1.14.15c.26,0,.47-.1.56-.75a34.06,34.06,0,0,0,.32-4h-1c-.46,3.84-1.27,5.41-2.69,6.87l0,0a22.27,22.27,0,0,0,1.6-8.08l-.69.05c-.25,0-.26,0-.26-.27V235.9a14.51,14.51,0,0,1,1.44.5h1.64l.28-.61c.11-.24.16-.31.22-.31s1.16,1.16,1.16,1.48c0,.14-.17.3-.38.51v3.81c0,.27,0,.46-.19.48l-.85.09c-.16,0-.18-.06-.18-.39v-.77H221.1v.19c.58.16.7.19,1.13.34a.2.2,0,0,1,.16.19c0,.06,0,.16-.3.25-.12,1-.13,1.12-.17,1.35h1Zm-2.09-5.73v3.9H223v-3.9Zm5.21,9.25c0,.24,0,.48-.23.5l-.77.06c-.21,0-.23-.05-.23-.35v-9.3l1.35.19c.1,0,.16,0,.16.1s-.14.14-.28.21Zm2.05,2.42c0,.75,0,1.82-1.59,1.82-.28,0-.28,0-.3-.53a1.63,1.63,0,0,0-1-1.71v-.06c.27,0,.92.06,1.35.06.27,0,.28-.09.28-.51v-12l1.37.22c.07,0,.16,0,.16.13s-.08.14-.23.22Z"/><path d="M236.26,236.57a.7.7,0,0,0-.47-.75.78.78,0,0,1,.75-.56,1,1,0,0,1,.86,1,3.53,3.53,0,0,1-.27,1,1.9,1.9,0,0,0,.34-.26c.19-.18.21-.19.35-.19a.93.93,0,0,1,.92,1,.56.56,0,0,1-.21.48,10.9,10.9,0,0,1-2,1c-.08.26-.44,1.34-.51,1.57a1.36,1.36,0,0,1,.9-.43c.78,0,.91,1.5.93,2,.28-.88,1.11-2.57,2.3-2.57.86,0,1.54.85,1.54,2.1a1.45,1.45,0,0,1-1.06,1.6,16.55,16.55,0,0,0-2.79,1.3c0,.24,0,1.31,0,1.54s0,.78-.56.78-.7-.91-.66-1.55a1.85,1.85,0,0,0-.82,1.47c0,.74.52.83,1.07.83a5.75,5.75,0,0,0,1.77-.33.72.72,0,0,1,.27-.07,1.09,1.09,0,0,1,.94,1.07c0,1-1,1.19-2,1.19a3.47,3.47,0,0,1-2.37-.75,1.87,1.87,0,0,1-.38-1.27,3.13,3.13,0,0,1,1.6-2.59,17.09,17.09,0,0,0,.2-2.42c0-.56,0-1.74-.52-1.74-.31,0-.44.32-1.17,2.14-.48,1.2-1.18,2.47-1.71,2.47-.26,0-.51-.34-.51-1a1.59,1.59,0,0,1,.62-1.39,9.08,9.08,0,0,0,1.94-3.48,1.56,1.56,0,0,1-.54.15c-.82,0-1-1.36-1.1-2.21a1.55,1.55,0,0,0,1,.64,2.89,2.89,0,0,0,1.15-.39A6.3,6.3,0,0,0,236.26,236.57ZM240,242.3a1.39,1.39,0,0,0,.37-.94c0-.37-.31-1-.78-1-.2,0-.46.05-1,.77s-.58,1.32-.82,3.14A11.46,11.46,0,0,0,240,242.3Z"/><path d="M251.85,239.74h-1.33l-.05-.19h1.38v-4c.3,0,1.13.12,1.4.19.1,0,.17,0,.17.14s-.12.2-.31.24v3.46h.53l.36-.8c.05-.13.12-.26.19-.26a5.32,5.32,0,0,1,1.18,1.56c0,.22-.13.3-.42.44a61.56,61.56,0,0,1-.22,6.41c-.19,1.89-.52,3.31-1.64,3.31-.38,0-.45-.13-.45-.4s0-.64,0-.75c0-.51-.13-.69-.7-1.15a8,8,0,0,1-1.94,2.36l-.05,0a9.74,9.74,0,0,0,.88-1.73h-3.43v1c0,.25,0,.32-.2.33l-.8.08c-.2,0-.2-.17-.2-.32v-6.26h-.6l0-.19h1v-5.23h-.88l-.05-.19h.93v-2.42c.25,0,1.14.19,1.37.22s.16.07.16.15-.21.22-.29.25v1.8H249v-2.42l1.35.22c.08,0,.19,0,.19.16s-.06.18-.31.26v1.78l.41-1c.05-.12.08-.2.13-.2a5.4,5.4,0,0,1,.73,1.24c0,.11-.07.11-.13.11h-1.14v4.91l.35-.78c0-.1.09-.2.13-.2a5.93,5.93,0,0,1,.87,1.37c0,.12-.07.12-.14.12h-1.4v1.59c0,.32,0,.34.31.34s.26-.05.33-.26.35-1,.42-1.35h0c0,.52-.06.9-.06,1.09a1.13,1.13,0,0,0,.12.52,1.13,1.13,0,0,1,.14.57c0,1.06-.65,1.06-1.07,1.06-.93,0-1.22,0-1.22-1.36v-2.2h-1.11l.71.08c.2,0,.29.07.29.16s-.07.15-.17.18a4.91,4.91,0,0,1-1.34,3.81v.75h1.94l.45-1c0-.09.09-.19.12-.19a8.88,8.88,0,0,1,1,1.15c.8-2.25.91-4.73.91-8.05Zm-4.42,7.45a12.24,12.24,0,0,0,.38-3.85h-.38Zm.44-9.27v1.53H249v-1.53Zm0,1.73v1.61H249v-1.61Zm0,1.79v1.71H249v-1.71Zm5.24-1.7c0,1.36,0,5.64-1.05,8a2.69,2.69,0,0,0,.71.12c.5,0,.71-.44.86-3.41.07-1.51.11-3.17.09-4.68Z"/><path d="M259.22,242.26l-.06-.2h1.25l.29-.67c.1-.22.15-.35.21-.35a6.7,6.7,0,0,1,1.31,1.57c0,.19-.36.33-.41.35v3.39c0,1.52.64,1.64,2.75,1.64a28.79,28.79,0,0,0,4.45-.42v.06a2,2,0,0,0-.43,1.3c0,.61,0,.66-.15.74a18.64,18.64,0,0,1-2.88.14c-2.07,0-2.76-.37-3.32-1a2.82,2.82,0,0,1-.68-1.59,19.3,19.3,0,0,1-1.71,2.91,23.48,23.48,0,0,1-.61-2.4l1.3-.51v-4.94Zm.27-6.41c1.11.21,2.3,1,2.3,2.21a1.19,1.19,0,0,1-.89,1.3c-.2,0-.25-.16-.32-.5a9.91,9.91,0,0,0-1.12-3Zm6.56,1.06.35-.62c.1-.2.21-.4.26-.4a10,10,0,0,1,.8.91c.25.3.28.33.28.45s0,.19-.39.43l-.07,1.17h.27l.43-.93c0-.08.07-.18.1-.18a4.31,4.31,0,0,1,.69,1.17c0,.11-.07.11-.12.11h-6.9l-.06-.17h1.86l.15-1.75h-1.3l0-.19h1.37l.15-1.59a9,9,0,0,1,1.61.42c0,.11-.19.18-.33.24l-.09.93Zm-1.91,5.36c0,.24,0,.29-.2.31l-.81.09c-.26,0-.27,0-.27-.41v-2.73a9.88,9.88,0,0,1,1.4.47h2l.27-.53c.07-.13.16-.35.21-.35s1.11,1,1.11,1.25-.08.2-.28.35v1.54a.5.5,0,0,1,0,.16,4.66,4.66,0,0,1,.82,1.13c0,.11-.08.11-.14.11h-2.07v1.94h.88l.53-1.14c0-.08.09-.19.13-.19a7.06,7.06,0,0,1,1,1.41c0,.11-.08.11-.14.11h-2.44v1.46c0,.22,0,.37-.17.38l-.86.08c-.15,0-.22,0-.22-.22v-1.7H262.1l-.05-.19h.7v-2.67c.18.09,1.1.45,1.3.54h.89v-1.2Zm-.18,1.39v1.94h1v-1.94Zm2.42-1.58v-1.91h-2.24v1.91Zm-1.33-5-.15,1.75H266l.08-1.75Zm1.14,5.17v1.2H267l.41-.88a.39.39,0,0,0,0-.09h-.09l-.84.08c-.16,0-.16-.09-.16-.32Z"/><path d="M275.91,242.69a33.89,33.89,0,0,0-.56,4.22,2.74,2.74,0,0,0,.18,1,1.65,1.65,0,0,1,.18.66.79.79,0,0,1-.73.86c-.8,0-1.91-1.52-1.91-5.49,0-1,0-1.32.29-4.53,0-.27.12-1.32.12-1.95a7,7,0,0,0-.17-1.57,4.81,4.81,0,0,1,1.51,3.4,4.33,4.33,0,0,1-.17,1.21,13.43,13.43,0,0,0-.56,3.75c0,1.23.18,2,.37,2s.32-.38.35-.46c.17-.48.88-2.55,1.07-3.14Zm2.72-2.79c1.39,0,2.91,1.25,2.91,4.07,0,.24,0,1.95-.85,1.95-.47,0-.71-.49-.72-1.06a7.88,7.88,0,0,0-.67-3.77,2.07,2.07,0,0,0-1.08-1.17Z"/><path d="M290.84,238.09a.76.76,0,0,0,.36.12c.09,0,.51-.07.59-.07a.7.7,0,0,1,.77.79c0,.75-.15.86-1.7,1.5.14.48.8,2.58.93,3a5.62,5.62,0,0,1,.44,1.89c0,.75-.33,1.54-.87,1.54-.18,0-.28-.07-.6-.56-.79-1.29-1.63-2-2.44-2s-1.18,1-1.18,1.79c0,1.38.6,1.63,1.25,1.63a3.14,3.14,0,0,0,.72-.08l.83-.19a1.14,1.14,0,0,1,.77,1.17c0,.56,0,.94-1.77.94a2.52,2.52,0,0,1-2.4-1.1,3.39,3.39,0,0,1-.51-1.89c0-2.27,1.57-2.56,2.17-2.56a3.43,3.43,0,0,1,1.5.38c.35.16.76.37.79.37.22,0,.28-.37.28-.56a25.53,25.53,0,0,0-.77-3.47,9.35,9.35,0,0,1-2.16.61c-.39,0-.86,0-1.84-2.58.65.83,1.1,1,1.6,1a5.91,5.91,0,0,0,2-.58c-.14-.46-.71-2.3-.82-2.48a.59.59,0,0,0-.45-.18c0-.33.11-1,1-1a.76.76,0,0,1,.78.86c0,.1-.07.55-.07.64a9.33,9.33,0,0,0,.39,1.83c.3-.18.48-.28.48-.52a.49.49,0,0,0-.05-.2Z"/><path d="M306.3,245.36c-.51,2.42-1.07,3.06-2.07,3.06s-1.52-.64-1.52-2c0-.83.29-4.43.29-5.18,0-.93-.14-1.48-.6-1.48s-1.36.77-2.52,2.69c0,1.89,0,3.88.19,5.75,0,.17.1.93.1,1.09,0,.52-.32.72-.49.72s-.79-.44-.79-1.25c0-.19.05-1,.05-1.15a13.93,13.93,0,0,0-.18-2.13c-.21.75-.5,1.74-.64,2.24s-.25.67-.47.67c-.62,0-.62-.9-.62-1.2a1.48,1.48,0,0,1,.32-1,19.69,19.69,0,0,0,1-2.31c-.06-.27-.4-1.42-.47-1.66a3.82,3.82,0,0,1-.13-1c0-.72,0-1.38,1.52-2.5,0-1.41,0-2.7-.67-2.64.38-.4.54-.58.81-.58s.94.23.94,1.56a9.15,9.15,0,0,1-.16,1.5,1,1,0,0,1,.53.93c0,.18,0,.22-.24.75-.3.69-.35.87-.59,1.52a2.2,2.2,0,0,1,0,.31c0-.05,1.77-3.22,3-3.22.66,0,1.37.91,1.37,2.29a21.25,21.25,0,0,1-.21,2.56,18.83,18.83,0,0,0-.17,2.14c0,.53,0,1.08.74,1.08,1,0,1.5-1.14,1.63-1.47Zm-7-5a2.43,2.43,0,0,0-.74.61,1.19,1.19,0,0,0-.37.94,9.8,9.8,0,0,0,.25,1.71,10.48,10.48,0,0,0,.86-2.62Zm-.45,4.85c0,.14.12.53.14.65s.06.34.11.34.12-.35.12-.48,0-1.6,0-1.89Z"/><path d="M314.56,241.71c2.09,0,2.63,2.45,2.63,3.94,0,2.69-1.33,4-3.1,4a2,2,0,0,1-2.11-2.06c0-.87.43-1.78,1.31-1.78.7,0,1.15.59,1.15,1.44a1.39,1.39,0,0,1-.13.67c.47-.11,1.64-.4,1.64-3,0-.9-.16-2.67-1.59-2.67-.88,0-1.63.7-2.43,2.94a11.77,11.77,0,0,0-.49,1.88c-.06.24-.15.64-.54.64-.61,0-.69-1-.69-1.57s.07-.74.69-1.75c.15-.27,2.51-4.43,3.51-6.48a.8.8,0,0,0,.1-.35c0-.07,0-.13-.08-.13a3,3,0,0,0-.64.67c-.49.64-.66.75-1,.75-.72,0-1.08-1.12-1.15-1.69a1,1,0,0,0,.56.27c.45,0,1.43-.87,1.92-1.28s.52-.45.69-.45,1.22.24,1.22,1.6c0,.48-.12.59-.48,1a18.8,18.8,0,0,0-2.06,3.65A2.18,2.18,0,0,1,314.56,241.71Zm-1,5.65c0-.25-.13-.59-.44-.59s-.35.34-.35.48a.42.42,0,1,0,.79.11Z"/><path d="M322,244.29c0,2.45,1.12,2.59,2.83,2.59a4.36,4.36,0,0,0,2.05-.37,1.22,1.22,0,0,1,.46-.14c.2,0,1,.4,1,1.06,0,1-.66,1.53-2.92,1.53-1.55,0-3.64-.11-3.64-3.28a12.61,12.61,0,0,1,.25-2.08C322,243.94,322,244.06,322,244.29Zm1.48-4.39a12,12,0,0,1,1.27-1.36c-.24,0-.36,0-.56,0-1.21,0-1.47-.83-1.68-2.51a1.16,1.16,0,0,0,1.14.85,8,8,0,0,0,2.09-.5,2.31,2.31,0,0,1,.83-.2c.82,0,.94.89.94,1.26,0,.82-.42.86-1.3,1a5.66,5.66,0,0,0-2.73,1.49Z"/><path d="M334.61,235.53a1.34,1.34,0,0,1,1.18,1.44c0,.13-.08,1-.1,1.22,0,.43-.1,1.25-.1,2s0,1.43.53,1.43,1.28-1.06,1.44-1.72c.09-.3.12-.46.35-.46.49,0,1.11,1,1.11,1.5s-.13.74-1.48,1.3a8.89,8.89,0,0,0-2.57,1.25,3.6,3.6,0,0,0-1.27,2.61,1.46,1.46,0,0,0,1.69,1.53,5.22,5.22,0,0,0,1.93-.41c.08,0,.54-.24.6-.24a1.74,1.74,0,0,1,1.18,1.34c0,.63-.35.77-.48.82a6.79,6.79,0,0,1-2.37.24c-1.8,0-2.25-.26-2.6-.58a2.73,2.73,0,0,1-.77-2.05,5.29,5.29,0,0,1,2.13-4.09c-.31-.2-.57-.36-.57-1.72,0-.33,0-1.77,0-2.08,0-1.37,0-2.51-.57-2.51a.59.59,0,0,0-.34.14A1.13,1.13,0,0,1,334.61,235.53Z"/><path d="M349.27,245c.35,1.29.49,1.81.88,2.08s.57.4.57.81a2,2,0,0,1-.49,1.2,3.38,3.38,0,0,1-2.38.76c-1,0-2.43-.2-2.43-3.43,0,0,0-.56.05-1.63-.56-.1-1.83-.39-1.83-1.62a3.68,3.68,0,0,1,1.13-2.09,2.36,2.36,0,0,0-.39,1.15c0,.7.67.81,1.17.89,0-.22.13-2.41.14-2.49a1.75,1.75,0,0,1-1.64-1,2.78,2.78,0,0,1-.33-1.44c.14.33.39,1,1.63,1a2.3,2.3,0,0,0,.42,0c0-.76,0-.86,0-1.18,0-1.38-.22-1.44-.52-1.44a.86.86,0,0,0-.23,0c.19-.64.44-.88.82-.88.58,0,1.06.59,1.06,1.46,0,.3-.1,1.45-.14,1.84a2.49,2.49,0,0,0,.85-.4c.62.33.92.51.92,1.09s-.3,1-1.93,1.05c-.05.52-.21,2.13-.24,2.52a2.82,2.82,0,0,0,1.8-.61,1.43,1.43,0,0,0,.7.14c.13,0,.67,0,.67.85s-.43.88-.89,1a8.68,8.68,0,0,1-2.38.28c0,.94,0,1.42,0,1.52,0,1.07.17,1.65,1,1.65.07,0,1.58,0,1.95-.58a2.06,2.06,0,0,0,.15-.9c0-.24,0-.73-.1-1.5Z"/><path d="M34.54,275.07c2.06-.9,3.42-1.88,3.42-5.37,0-.75,0-3-1.47-3.48a5.57,5.57,0,0,1-.05,1.1A11.41,11.41,0,0,1,35.2,271a5.18,5.18,0,0,1,.21,1.17,1,1,0,0,1-.69.93c-.3,0-.43-.51-.49-.77-.41.48-1.36,1.48-1.92,1.48s-.54-.37-.66-.79c-.06-.16-.33-.85-.37-1a2.35,2.35,0,0,1-.08-.67,6.34,6.34,0,0,1,.63-2.61A5.28,5.28,0,0,1,34,266.38v-1.62a2,2,0,0,1-.86.26c-1,0-1.43-1.43-1.65-2.18.2.29.4.59.78.59a11.11,11.11,0,0,0,1.73-.5c0-1.64,0-1.93-.41-1.93a.36.36,0,0,0-.17,0c.08-.22.26-.82.86-.82a1,1,0,0,1,.86.9c0,.18-.11,1.23-.13,1.46.58-.21.64-.24.64-.5a.76.76,0,0,0,0-.16l0,0c.14.22.2.24.7.3a.93.93,0,0,1,.87,1.06c0,.38-.06.59-.49.65a5.82,5.82,0,0,0-1.85.5c0,.48,0,1.12-.05,1.59a3.84,3.84,0,0,1,1.08-.23,3.1,3.1,0,0,0-.24-1.07,1.58,1.58,0,0,1,.82,1.09c1.85.19,2.82,2.33,2.82,4.43,0,.74-.11,3.23-1.69,4.13a6.77,6.77,0,0,1-3,.78Zm-2.31-3.83c0,.32.06.55.32.55s1.07-.68,1.49-1.16C34,269.05,34,268.31,34,267A7.31,7.31,0,0,0,32.23,271.24Zm2.56-4.86a22.1,22.1,0,0,0,.14,3,7.4,7.4,0,0,0,1-3.26A2,2,0,0,0,34.79,266.38Z"/><path d="M47.79,266.71c2.09,0,2.63,2.45,2.63,3.94,0,2.69-1.33,4-3.1,4a2,2,0,0,1-2.11-2.06c0-.87.44-1.78,1.31-1.78.7,0,1.15.59,1.15,1.44a1.39,1.39,0,0,1-.13.67c.47-.11,1.64-.4,1.64-3,0-.9-.16-2.67-1.59-2.67-.88,0-1.63.7-2.43,2.94a11.77,11.77,0,0,0-.49,1.88c-.06.24-.15.64-.54.64-.61,0-.69-1-.69-1.57s.07-.74.69-1.75c.15-.27,2.51-4.43,3.51-6.48a.8.8,0,0,0,.1-.35c0-.07,0-.13-.08-.13a3,3,0,0,0-.64.67c-.49.64-.66.75-1,.75-.72,0-1.08-1.12-1.15-1.69a1,1,0,0,0,.56.27c.45,0,1.43-.87,1.92-1.28s.52-.45.69-.45,1.22.24,1.22,1.6c0,.48-.12.59-.48,1A18.8,18.8,0,0,0,46.71,267,2.18,2.18,0,0,1,47.79,266.71Zm-1,5.65c0-.25-.13-.59-.44-.59s-.35.34-.35.48a.42.42,0,1,0,.79.11Z"/><path d="M59.65,269.51c-.33,1.59-1.06,4.74-5,5.64l0,0a8,8,0,0,0,3.67-5.59H54.89l0-.17h3.45a19.36,19.36,0,0,0,.24-2.34c.27.08,1.46.37,1.58.42s.12,0,.12.11,0,.08-.31.27c-.1.77-.18,1.22-.24,1.54h2.26l.32-.77c.12-.32.13-.35.22-.35a4.16,4.16,0,0,1,1.28,1.61c0,.18-.14.31-.42.45-.13,3.86-.42,4.83-2,4.83-.29,0-.28-.06-.29-.49a1.88,1.88,0,0,0-1.07-1.87l0,0c.3.05,1.15.2,1.38.2s.51,0,.62-1.17c.06-.72.09-1.49.1-2.23Zm2.16-8.08.36-.8c.13-.27.14-.31.19-.31a6.73,6.73,0,0,1,1,1.11c.19.22.24.27.24.42s-.25.38-.46.49v5.16c0,.2,0,.28-.25.32l-.81.09c-.2,0-.23,0-.23-.32v-.67H57.11v.64c0,.26,0,.37-.17.38L56,268c-.22,0-.22,0-.22-.32v-6.86a13.85,13.85,0,0,1,1.5.59Zm-4.7.19v2.43h1.72v-2.43Zm0,2.61v2.51h1.72v-2.51Zm3-2.61v2.43h1.77v-2.43Zm0,2.61v2.51h1.77v-2.51Z"/><path d="M72.78,274.28c1-.41,3.38-1.47,3.38-6.45,0-2.3-.68-5.7-3.06-5.68a4.08,4.08,0,0,1,.51,1.87c0,1.62-1.13,9.25-3.31,9.25-.7,0-.81-.67-.94-1.47a5.7,5.7,0,0,0-.49-1.66,4,4,0,0,1-.41-1.84c0-3.78,2.48-6.73,4.92-6.73,2.21,0,4.17,2.34,4.17,6.66,0,2.87-1,4.61-2.07,5.27a5.82,5.82,0,0,1-2.7.85Zm-3.34-4.91a3.28,3.28,0,0,0,.16,1.29c.13.36.39.71.6.71.82,0,2.77-5,2.8-9.19C69.81,262.85,69.44,268.12,69.44,269.37Z"/><path d="M81.87,275.15a15.78,15.78,0,0,0,1.91-4.87,4.2,4.2,0,0,0-.52-.75c-.13,1-.13,1-.32,1h-.85c-.2,0-.24-.1-.24-.26s.25-2,.29-2.4c.31-2.8.34-3.19.36-3.54h-.84l0-.17h.91c.09-.87.15-1.88.25-3.65.32.06,1.1.24,1.5.35.09,0,.14.08.14.13s0,.13-.36.19c0,.48-.19,2.37-.24,3h.51l.38-.8c.06-.13.12-.31.16-.31a6.73,6.73,0,0,1,1.19,1.54c0,.22-.18.29-.48.4a26.21,26.21,0,0,1-.61,5.17,2.36,2.36,0,0,1,.72,1.65,1.83,1.83,0,0,1-.23.89l.62-.09V262.29a11.6,11.6,0,0,1,1.35.63h.18v-2.56c.19,0,.33.06,1.47.27.06,0,.16,0,.16.11s0,.1-.34.24v1.94h.38l.4-1c0-.13.1-.23.14-.23a7.86,7.86,0,0,1,1.29,1.67c0,.16-.1.24-.45.46v4c0,.13,0,.27-.21.29l-.42.05c.2.09,1.06.59,1.23.7,0,0,.12.06.12.14s0,.12-.37.13a8.26,8.26,0,0,1-1.88,1.62,6.41,6.41,0,0,0,2.47,2.06v.07c-.26.13-.72.35-.87,1.52,0,.3,0,.4-.14.4a4.75,4.75,0,0,1-2-2.56,16.21,16.21,0,0,1-2.86,2.88c-.3-1-.33-1.09-.62-2.11a.55.55,0,0,1-.29.09c-.27,0-.31-.16-.35-.48s-.08-.61-.11-.77a10.67,10.67,0,0,1-2.49,3.27Zm1.92-10.81c-.29,3.3-.3,3.43-.51,5a4.93,4.93,0,0,1,.65.21,41.15,41.15,0,0,0,.44-5.22Zm3.56-1.23v2.05h2v-2.05Zm0,2.24v2.21h2v-2.21Zm1.23,6.85a14.55,14.55,0,0,1-.64-4.46h-.59v4.65ZM88,267.74a7.85,7.85,0,0,0,.94,2.83,13.71,13.71,0,0,0,.79-2.34l-.17,0c-.23.05-.23,0-.23-.52Z"/><path d="M98.74,272.19c0,1.32-.7,2.43-1.58,2.43s-1.59-1.11-1.59-2.43.72-2.44,1.59-2.44S98.74,270.82,98.74,272.19Zm-2.75,0c0,1,.52,1.79,1.17,1.79s1.16-.82,1.16-1.79-.52-1.8-1.16-1.8S96,271.18,96,272.19Z"/><path d="M103.52,267.37l0-.18h1.1l.37-.86c.09-.19.13-.21.15-.21a6,6,0,0,1,1.23,1.57c0,.08,0,.14-.31.35v3.39a1.85,1.85,0,0,0,.45,1.36c.33.28.73.32,2,.32a17.64,17.64,0,0,0,4.87-.44v0a2.59,2.59,0,0,0-.58,1.83c0,.16-.07.21-.15.24a24.33,24.33,0,0,1-2.53.08c-2.25,0-3.63,0-4.22-2.69a19.58,19.58,0,0,1-1.77,3c-.09-.36-.57-2.34-.63-2.63l1.28-.19v-5Zm.29-6.84c.56.16,2.33.79,2.33,2.44,0,.59-.28,1.16-.84,1.16-.17,0-.24,0-.32-.38a9.82,9.82,0,0,0-1.17-3.15ZM110.15,272c0,.31,0,.43-.25.47l-.71.09c-.24,0-.24-.06-.24-.46v-3.24H108v3.32c0,.3,0,.4-.21.43l-.78.1c-.22,0-.22-.05-.22-.39v-8.23c.22.1,1.21.45,1.41.53H109c0-.08-.12-.46-.15-.54a4.88,4.88,0,0,0-1.15-1.89v-.06c1.16,0,1.79.25,2.17.76a15.82,15.82,0,0,0,.87-1.45h-4.08l0-.19h4l.34-.6c.09-.16.11-.17.16-.17a15.73,15.73,0,0,1,1.52,1.34.35.35,0,0,1,.12.26c0,.21-.22.21-.26.21a3.69,3.69,0,0,1-.37-.05,13.39,13.39,0,0,1-2.16.89,1.33,1.33,0,0,1,.15.63,1.22,1.22,0,0,1-.32.86h1.24l.41-.73c.08-.16.1-.2.16-.2a6,6,0,0,1,1.15,1.6c0,.18-.1.26-.33.44v5.62c0,.41,0,1.36-1.14,1.36-.31,0-.36-.05-.36-.23,0-.4,0-1.41-.81-1.7Zm-1.2-7.19H108v1.81H109Zm0,2H108v1.85H109Zm1.2-.2h1.07v-1.81h-1.07Zm0,2.05h1.07v-1.85h-1.07Zm0,2c.08,0,.85.08.87.08.2,0,.2-.08.2-.46v-1.46h-1.07Z"/><path d="M120.08,265l.48-1.12c0-.1.08-.19.12-.19a8.7,8.7,0,0,1,1,1.28,35.39,35.39,0,0,0,.76-4.66c.56.18.74.24,1.28.45s.48.18.48.29-.18.17-.3.21a24.39,24.39,0,0,1-1.06,3h2l.6-1.29c0-.08.08-.2.11-.2a10.33,10.33,0,0,1,1.23,1.56c0,.11,0,.11-.08.11h-2.12v9.06c0,.7,0,1-.23,1.28a1.51,1.51,0,0,1-1.1.45c-.16,0-.34,0-.34-.44,0-.73,0-1.16-1.21-1.84v0c.24,0,1.15.17,1.42.17s.21-.09.21-.62v-8h-.63a13.48,13.48,0,0,1-1.76,2.9v0a16.33,16.33,0,0,0,.64-2.08H120v1.41a2.73,2.73,0,0,1,1.44,2.24c0,1-.61,1.28-.88,1.28s-.21-.17-.22-.62a11.77,11.77,0,0,0-.34-2.52v7.62c0,.21,0,.4-.23.44l-.78.09c-.22,0-.24-.05-.24-.38v-5a10.16,10.16,0,0,1-1.85,2.95v0a32.14,32.14,0,0,0,1.75-7.48H117l0-.19h1.77v-2.46l-1.77.12,0,0a14,14,0,0,0,3.53-2.34c.46.54.9,1.17,1.28,1.7a.45.45,0,0,1,.09.2.09.09,0,0,1-.09.1.56.56,0,0,1-.24-.1,13.83,13.83,0,0,1-1.53.23V265Zm.35,8.6a26.71,26.71,0,0,0,1.39-6.85c.21.11,1.18.52,1.37.62a.16.16,0,0,1,.12.16c0,.14-.17.16-.22.16a14.51,14.51,0,0,1-2.64,5.92Zm4.25-7.17a8.38,8.38,0,0,1,2,5c0,1.51-.8,1.59-.95,1.59-.36,0-.35-.23-.36-1a22.92,22.92,0,0,0-.73-5.58Z"/><path d="M133.33,268a28.74,28.74,0,0,0-.54,4.21,3.45,3.45,0,0,0,.21,1.19,1.88,1.88,0,0,1,.08.46.65.65,0,0,1-.64.69c-1.15,0-1.27-3.33-1.27-4.85a35.69,35.69,0,0,1,.62-6.16,14.14,14.14,0,0,0,.22-2,6.83,6.83,0,0,0-.07-.88,4.88,4.88,0,0,1,1.15,2.74,5.68,5.68,0,0,1-.26,1.41,18.32,18.32,0,0,0-.69,5c0,.56.08.64.19.64s.12-.06.24-.37l.72-2Zm4.62-4.48a1.31,1.31,0,0,0,.8.29c.23,0,.4.22.4.56,0,1.06-1.39,1.59-1.7,1.7.06,2.4.16,3.53.24,4.26a2.7,2.7,0,0,1,1.78,2.35c0,.53-.27.89-.56.89s-.3-.11-.67-.67a3.75,3.75,0,0,0-.5-.64c.08,2-1.17,2.11-1.55,2.11-.21,0-1.73-.11-1.95-1.29,0-.19-.22-1.25-.22-1.49,0-1.63,1.67-1.63,2.14-1.63a3.7,3.7,0,0,1,.53,0c-.05-1.41-.08-2.48-.11-3.67a2.45,2.45,0,0,1-.49.05c-1.08,0-1.42-1.14-1.69-2.05a1.46,1.46,0,0,0,1.2.63,2.65,2.65,0,0,0,1-.23c0-.41,0-2.64-.06-2.81a.52.52,0,0,0-.46-.42c.15-.38.38-.7.7-.7a1.27,1.27,0,0,1,1,1.12c0,.12-.07.65-.09.8a12,12,0,0,0-.18,1.56c.31-.2.51-.35.51-.56a.39.39,0,0,0,0-.14Zm-2.23,7.85c-.21,0-1.05,0-1.05.65s.41.72.77.72c.89,0,1.26-.33,1.25-1.25A4.49,4.49,0,0,0,135.72,271.39Z"/><path d="M145,260.56a3.34,3.34,0,0,0-1.09,2.58.58.58,0,0,0,0,.19c.09-.38.3-.65.62-.65s.73.45.73,1.12S145,265,144.56,265c-.23,0-.87-.19-.87-1.61,0-1.11.36-2.5,1.27-3Zm2.51,0a3.36,3.36,0,0,0-1.1,2.58.65.65,0,0,0,0,.19c.1-.33.24-.65.62-.65s.74.45.74,1.12-.29,1.18-.74,1.18c-.24,0-.88-.19-.88-1.61a3.5,3.5,0,0,1,1.26-3Z"/><path d="M151.46,273.87A13.86,13.86,0,0,0,154,266c0-.31,0-1-.74-.95.43-.57.61-.8.92-.8a1.68,1.68,0,0,1,1.27,1.19,1.06,1.06,0,0,1-.13.44c-.3,3.67-1.23,6-3.82,8Zm10.29-10.23a16,16,0,0,1-3.62,7.75,3,3,0,0,0-.67,1c-.1.29-.14.42-.32.42s-1-1.7-1-2c0-.13.11-.69.13-.8.08-.56.08-2,.08-2.58s0-3.33-.09-3.75c-.16-.72-.5-.72-.69-.72.42-.59.56-.81.85-.81.61,0,1.29.94,1.29,1.33,0,.11-.19.56-.21.67-.12.43-.11,5.44-.1,5.49a16.09,16.09,0,0,0,4.36-6Z"/><path d="M168.87,271.39a3.59,3.59,0,0,0,1.52.56c.48,0,.7-.5.91-1.57a32.14,32.14,0,0,0,.51-4.92,15.9,15.9,0,0,0-2.1.4c-.75,5.11-2,6.76-4.42,8.34v-.05c1.34-1.6,2.6-3.53,3.19-8a1.74,1.74,0,0,0-.75.27c-.41.36-.46.4-.59.4-.37,0-1.1-.94-1.1-1.74a1.48,1.48,0,0,1,.32-.85c.1.38.26,1,.89,1a10.24,10.24,0,0,0,1.35-.11c.13-1.2.16-2.23.16-2.48,0-.42,0-.66-.79-.72.31-.59.66-.91,1.06-.91s1.16.63,1.16,1a1.69,1.69,0,0,1-.16.58c-.05.89-.1,1.53-.2,2.3,1.74-.22,1.84-.32,2.13-.61s.29-.28.35-.28a3.13,3.13,0,0,1,1.15,1.44c0,.16,0,.22-.39.81-.27,2.52-.61,5.56-1.25,7a1.61,1.61,0,0,1-1.45,1.06c-.27,0-.28-.15-.34-.77a2.87,2.87,0,0,0-1.16-2.1Z"/><path d="M183.06,267.22h2.08l.65-1.41c.05-.11.09-.19.12-.19a8.53,8.53,0,0,1,1.24,1.67c0,.09-.06.11-.13.11h-4v5.52c0,1.09,0,2-1.5,2-.33,0-.5-.07-.5-.47a3,3,0,0,0-.09-1.08c-.17-.42-.35-.47-1-.85v-.05c.23,0,1.26.08,1.47.08s.29-.05.29-.61V267.4h-4.15l-.05-.18h4.2v-2.64l1.17.18a20.84,20.84,0,0,0,1.35-3.19h-5.69l-.06-.19h5.72l.46-.69c.07-.11.13-.21.19-.21a7.65,7.65,0,0,1,1.35,2.15c0,.34-.47.37-.91.4a14.48,14.48,0,0,1-2.21,1.76c.08,0,.21,0,.21.14s-.17.16-.26.18Z"/><path d="M191.51,264.76a3.33,3.33,0,0,0,1.1-2.58.49.49,0,0,0,0-.19c-.08.34-.26.66-.61.66s-.74-.45-.74-1.13.29-1.18.74-1.18c.24,0,.88.19.88,1.62a3.45,3.45,0,0,1-1.26,3Zm2.51,0a3.31,3.31,0,0,0,1.09-2.58.8.8,0,0,0,0-.19c-.09.34-.27.66-.62.66s-.73-.45-.73-1.13.29-1.18.74-1.18c.23,0,.87.19.87,1.62a3.48,3.48,0,0,1-1.27,3Z"/><path d="M202.88,272.19c0,1.32-.69,2.43-1.58,2.43s-1.58-1.11-1.58-2.43.72-2.44,1.58-2.44S202.88,270.82,202.88,272.19Zm-2.74,0c0,1,.52,1.79,1.16,1.79s1.17-.82,1.17-1.79-.52-1.8-1.17-1.8S200.14,271.18,200.14,272.19Z"/><line class="cls-1" x1="16.79" y1="22.54" x2="16.79" y2="322.92"/><path d="M16.79,14.41a4.07,4.07,0,1,1-4.07,4.06A4.06,4.06,0,0,1,16.79,14.41Z"/><path class="cls-1" d="M16.79,12.53a5.94,5.94,0,1,1-5.95,5.94A5.94,5.94,0,0,1,16.79,12.53Z"/><polygon class="cls-1" points="16.79 6.23 22.09 15.43 27.4 24.59 16.79 24.59 6.17 24.59 11.48 15.43 16.79 6.23"/><path d="M8.07,77.42c0,1.69,0,2.11.23,2.11a.66.66,0,0,0,.42-.15,1.1,1.1,0,0,1,0,.78A4.62,4.62,0,0,0,7,80.81c-.07,0-.14-.11-.16-.26l0-.55c0-.15,0-.2-.09-.15-.34.4-.69.78-1.06.78-1.11,0-1.86-1.61-1.86-3.55,0-2.54,1-4.16,2.32-4.16a1.59,1.59,0,0,1,.56.09.46.46,0,0,0,.1-.34V70.36c0-.72,0-.92-.2-1.13l-.17-.18a.77.77,0,0,1,0-.54,7.31,7.31,0,0,0,1.5-1c.07,0,.12,0,.16.13,0,.73,0,1.49,0,2.62ZM6.81,75a2.29,2.29,0,0,0-.07-.62c-.12-.37-.33-.66-.56-.66-.49,0-1,1-1,2.84,0,1.19.29,2.83,1.09,2.83a.53.53,0,0,0,.4-.22,1.1,1.1,0,0,0,.12-.68Z"/><path d="M5.28,251.61c-.22,0-.24,0-.24.32,0,1.35.47,2.67,1.38,2.67.27,0,.64-.11.9-.94.11,0,.26.11.26.41-.4,1.53-1.13,2.06-1.71,2.06-1.32,0-2-1.71-2-3.68,0-2.27.89-4,2.11-4,1,0,1.56,1.21,1.56,2.59,0,.34,0,.6-.35.6Zm.65-.8a.51.51,0,0,0,.4-.16.79.79,0,0,0,.07-.41c0-.6-.19-1-.52-1s-.76.72-.76,1.29c0,.26.14.27.45.27Z"/><line class="cls-2" x1="19.84" y1="45.78" x2="13.32" y2="45.78"/><line class="cls-2" x1="19.84" y1="77.01" x2="13.32" y2="77.01"/><line class="cls-2" x1="19.84" y1="112.19" x2="13.32" y2="112.19"/><line class="cls-2" x1="19.84" y1="147.37" x2="13.32" y2="147.37"/><line class="cls-2" x1="19.84" y1="182.56" x2="13.32" y2="182.56"/><line class="cls-2" x1="19.84" y1="217.74" x2="13.32" y2="217.74"/><line class="cls-2" x1="19.84" y1="252.92" x2="13.32" y2="252.92"/><line class="cls-2" x1="19.84" y1="252.92" x2="13.32" y2="252.92"/><line class="cls-2" x1="19.84" y1="252.92" x2="13.32" y2="252.92"/><line class="cls-2" x1="19.82" y1="287.73" x2="13.3" y2="287.73"/><line class="cls-2" x1="19.82" y1="322.91" x2="13.3" y2="322.91"/><line class="cls-3" x1="94.11" y1="322.92" x2="31.47" y2="322.92"/><line class="cls-3" x1="102.38" y1="42.88" x2="32.6" y2="42.88"/><circle cx="7.53" cy="45.78" r="1.68"/><path d="M34.79,310.5l-.26,1.76h.57L35,313h-.61l-.33,2.18H33.7L34,313h-.63l-.32,2.18h-.39L33,313h-.63l.07-.77h.68l.25-1.76h-.64l.07-.78h.68l.28-2h.42l-.29,2h.62l.28-2h.42l-.29,2h.59l-.06.78Zm-1,0-.26,1.76h.63l.26-1.76Z"/><path d="M40.75,311.5c0,1.93-.45,3.92-1.5,3.92s-1.5-2-1.5-3.92.45-3.93,1.5-3.93S40.75,309.64,40.75,311.5Zm-1.5,3.37c.5,0,.55-2.31.55-3.37s0-3.37-.55-3.37-.55,2.3-.55,3.37S38.76,314.87,39.25,314.87Z"/><path d="M44.74,312.14a1.2,1.2,0,0,1,.09.51,1.14,1.14,0,0,1-.09.46l-1.56.27a1.13,1.13,0,0,1-.09-.48,1.19,1.19,0,0,1,.09-.49Z"/><path d="M48.41,311.1c-.09,0-.09,0-.09.28v1.79c0,.68,0,1.42.45,1.42a.43.43,0,0,0,.28-.18.37.37,0,0,1,.09.31,1.17,1.17,0,0,1-.94.7c-.54,0-.73-.58-.73-1.37v-2.67c0-.26,0-.28-.12-.28h-.2a.4.4,0,0,1,0-.37,2.76,2.76,0,0,0,.54-.54,3.59,3.59,0,0,0,.48-.94.12.12,0,0,1,.19.06v.9c0,.23,0,.24.13.24H49a.44.44,0,0,1,0,.23.77.77,0,0,1-.09.42Z"/><path d="M53.43,313.61c0,.81.17,1,.3,1s.14,0,.24-.15a.3.3,0,0,1,.08.28c-.08.19-.38.65-.75.65s-.37-.15-.55-.42c0-.07-.07-.1-.1-.1s-.07.05-.14.13-.31.39-.55.39-.73-.42-.73-1.26a1.25,1.25,0,0,1,.68-1.25l.61-.34a.24.24,0,0,0,.15-.23c0-.14,0-.27,0-.41,0-.46-.1-1-.38-1s-.29.16-.34.68a.66.66,0,0,1-.11.38.78.78,0,0,1-.47.28c-.11,0-.15-.13-.15-.3a1.78,1.78,0,0,1,.32-.92,1.5,1.5,0,0,1,1.09-.74c.54,0,.86.51.83,1.74Zm-.78-.32c0-.19,0-.22,0-.21-.29.07-.55.27-.55.84,0,.38.15.72.33.72s.24-.22.25-.59Z"/><path d="M56.35,308.58c0-.48,0-.61-.13-.75l-.11-.12a.45.45,0,0,1,0-.36,5.69,5.69,0,0,0,1-.68s.08,0,.11.09c0,.49,0,1,0,1.75v3.76c0,.14,0,.17.09.17s.25-.06.38-.33l.27-.59a1.32,1.32,0,0,0,.16-.48c0-.06-.07-.11-.13-.12l-.16-.05a.5.5,0,0,1,0-.42H58a5.18,5.18,0,0,0,1.23-.17.6.6,0,0,1,0,.42l-.21.09a1.09,1.09,0,0,0-.44.42,5.93,5.93,0,0,0-.43.69.3.3,0,0,0,0,.16.68.68,0,0,0,0,.2c.12.39.69,2,.85,2.29a.65.65,0,0,0,.39.28l.1,0a.55.55,0,0,1,0,.42,5.65,5.65,0,0,0-.82,0,5.18,5.18,0,0,0-.8,0,.54.54,0,0,1,0-.42l.09,0c.06,0,.1-.05.1-.1a2.47,2.47,0,0,0-.11-.38l-.46-1.29c0-.14-.1-.19-.16-.19s-.08.06-.08.29v.7c0,.84,0,.93.25,1l.11,0a.56.56,0,0,1,0,.42,5.85,5.85,0,0,0-.78,0,6.21,6.21,0,0,0-.79,0,.56.56,0,0,1,0-.42l.13,0c.23,0,.26-.14.26-1Z"/><path d="M62.43,312.41c-.15,0-.16,0-.16.21,0,.9.31,1.78.91,1.78.19,0,.43-.07.61-.63.07,0,.17.08.17.28-.27,1-.75,1.37-1.14,1.37-.88,0-1.35-1.14-1.35-2.45,0-1.51.59-2.69,1.4-2.69s1,.81,1,1.73c0,.23,0,.4-.23.4Zm.43-.53a.38.38,0,0,0,.27-.11.56.56,0,0,0,0-.27c0-.4-.12-.66-.34-.66s-.51.48-.51.86c0,.17.09.18.3.18Z"/><path d="M72.64,311.5c0,1.93-.45,3.92-1.5,3.92s-1.5-2-1.5-3.92.45-3.93,1.5-3.93S72.64,309.64,72.64,311.5Zm-1.5,3.37c.49,0,.55-2.31.55-3.37s-.06-3.37-.55-3.37-.55,2.3-.55,3.37S70.65,314.87,71.14,314.87Z"/><path d="M78,311.5c0,1.93-.45,3.92-1.5,3.92s-1.5-2-1.5-3.92.45-3.93,1.5-3.93S78,309.64,78,311.5Zm-1.5,3.37c.49,0,.55-2.31.55-3.37s-.06-3.37-.55-3.37-.55,2.3-.55,3.37S76,314.87,76.47,314.87Z"/><path d="M81.15,308.58a3,3,0,0,1,2.07-1.64.46.46,0,0,1,0,.42A2.8,2.8,0,0,0,81.73,309a8.3,8.3,0,0,0-.48,3.06c0,1.27.22,2.77.71,2.77s.5-.8.5-1.36c0-.82-.19-2.28-.75-2.28a.4.4,0,0,0-.15,0,.33.33,0,0,1,0-.21.94.94,0,0,1,.65-.53c.81,0,1.17,1.12,1.17,2.27,0,1.57-.59,2.65-1.49,2.65s-1.55-1.33-1.55-3.22A7.71,7.71,0,0,1,81.15,308.58Z"/><path d="M35.39,32.94a1.1,1.1,0,0,1,.14.62c0,.36-.09.69-.17.69a.15.15,0,0,1-.11-.06c-.18-.48-.43-.9-.67-.9-.42,0-.65.89-.65,1.71s.34,1.91.93,1.91c.24,0,.44-.14.58-.59.08,0,.17.07.17.27-.14.6-.53,1.28-1.15,1.28-.82,0-1.38-1-1.38-2.42,0-1.71.75-2.71,1.63-2.71A1.35,1.35,0,0,1,35.39,32.94Z"/><path d="M38.05,31c0-.48,0-.61-.13-.75l-.11-.12a.55.55,0,0,1,0-.36,6.21,6.21,0,0,0,1-.67.12.12,0,0,1,.11.08c0,.49,0,1,0,1.75v2.21c0,.11,0,.14.05.14l.1-.09a1.09,1.09,0,0,1,.75-.48c.54,0,.82.68.82,1.51v2.06c0,.84,0,.94.26,1l.1,0a.56.56,0,0,1,0,.42,5.66,5.66,0,0,0-.78,0,4.45,4.45,0,0,0-.71,0,.61.61,0,0,1,0-.42l.12,0c.14-.05.17-.13.17-.79V34.42c0-.42-.14-.81-.45-.81a.43.43,0,0,0-.37.29,1.16,1.16,0,0,0-.05.44v2.15c0,.66,0,.74.18.79l.11,0a.61.61,0,0,1,0,.42,4.9,4.9,0,0,0-.73,0,6,6,0,0,0-.76,0,.61.61,0,0,1,0-.42l.11,0c.22,0,.24-.14.24-1Z"/><path d="M45.45,36.06c0,.82.16,1,.29,1A.32.32,0,0,0,46,37c.06,0,.1.16.08.27s-.38.65-.76.65c-.22,0-.37-.14-.54-.42-.05-.07-.07-.1-.1-.1s-.08,0-.14.14-.31.38-.55.38-.73-.42-.73-1.26a1.27,1.27,0,0,1,.67-1.25c.25-.14.43-.24.62-.33a.28.28,0,0,0,.15-.24c0-.13,0-.27,0-.41,0-.46-.09-1-.37-1s-.3.17-.34.68a.72.72,0,0,1-.11.39.82.82,0,0,1-.47.27c-.11,0-.15-.13-.15-.3a1.9,1.9,0,0,1,.31-.92,1.48,1.48,0,0,1,1.1-.73c.54,0,.86.5.83,1.74Zm-.78-.31c0-.19,0-.23,0-.22-.3.07-.55.28-.55.84,0,.39.15.72.33.72s.24-.21.25-.59Z"/><path d="M48.42,34.52c0-.48,0-.62-.13-.76l-.09-.11a.55.55,0,0,1,0-.36,3.84,3.84,0,0,0,.95-.72c.05,0,.09,0,.12.11q0,.36,0,.51c0,.09,0,.12.07.15.17-.21.36-.6.63-.6s.36.25.36.7-.21.78-.42.78-.16-.07-.25-.21-.21-.24-.25-.24-.12.26-.12.72v1.85c0,.84,0,.93.24,1l.21,0a.56.56,0,0,1,0,.42c-.31,0-.57,0-.87,0s-.56,0-.77,0a.56.56,0,0,1,0-.42l.13,0c.21,0,.24-.14.24-1Z"/><path d="M54.64,36.06c0,.82.16,1,.29,1a.32.32,0,0,0,.25-.14c.06,0,.1.16.08.27s-.38.65-.75.65-.37-.14-.55-.42c-.05-.07-.07-.1-.1-.1s-.08,0-.14.14-.31.38-.55.38-.73-.42-.73-1.26a1.27,1.27,0,0,1,.67-1.25c.25-.14.43-.24.62-.33a.26.26,0,0,0,.15-.24c0-.13,0-.27,0-.41,0-.46-.09-1-.37-1s-.29.17-.34.68a.72.72,0,0,1-.11.39.82.82,0,0,1-.47.27c-.11,0-.15-.13-.15-.3a1.9,1.9,0,0,1,.31-.92,1.48,1.48,0,0,1,1.1-.73c.54,0,.86.5.83,1.74Zm-.78-.31c0-.19,0-.23,0-.22-.3.07-.55.28-.55.84,0,.39.15.72.33.72s.24-.21.25-.59Z"/><path d="M59.57,32.94a1.1,1.1,0,0,1,.14.62c0,.36-.1.69-.17.69a.15.15,0,0,1-.11-.06c-.18-.48-.43-.9-.67-.9-.42,0-.65.89-.65,1.71s.33,1.91.93,1.91c.24,0,.44-.14.58-.59.08,0,.17.07.17.27-.14.6-.53,1.28-1.15,1.28-.82,0-1.38-1-1.38-2.42,0-1.71.75-2.71,1.63-2.71A1.35,1.35,0,0,1,59.57,32.94Z"/><path d="M63.15,33.55c-.08,0-.09,0-.09.28v1.8c0,.67,0,1.41.45,1.41a.4.4,0,0,0,.28-.18.38.38,0,0,1,.09.32,1.16,1.16,0,0,1-.94.69c-.54,0-.73-.58-.73-1.37V33.83c0-.25,0-.28-.12-.28h-.2c-.07,0-.09-.28,0-.37a2.76,2.76,0,0,0,.54-.54,3.47,3.47,0,0,0,.48-.93.13.13,0,0,1,.2.06v.9c0,.22,0,.23.12.23h.58a.44.44,0,0,1,0,.23.85.85,0,0,1-.08.42Z"/><path d="M66.93,34.86c-.15,0-.16,0-.16.22,0,.9.31,1.77.92,1.77.18,0,.43-.07.6-.62.07,0,.17.07.17.27-.27,1-.75,1.37-1.14,1.37-.87,0-1.35-1.14-1.35-2.45,0-1.51.59-2.68,1.41-2.68s1,.8,1,1.72c0,.23,0,.4-.24.4Zm.43-.53a.33.33,0,0,0,.27-.11.56.56,0,0,0,0-.27c0-.4-.12-.66-.34-.66s-.51.48-.51.86c0,.17.09.18.3.18Z"/><path d="M71,34.52c0-.48,0-.62-.12-.76l-.1-.11a.55.55,0,0,1,0-.36,3.84,3.84,0,0,0,1-.72c.06,0,.09,0,.12.11,0,.24,0,.41,0,.51s0,.12.07.15c.18-.21.36-.6.64-.6s.35.25.35.7-.2.78-.41.78-.17-.07-.25-.21-.21-.24-.25-.24-.13.26-.13.72v1.85c0,.84,0,.93.24,1l.21,0a.51.51,0,0,1,0,.42c-.32,0-.58,0-.88,0s-.55,0-.77,0a.51.51,0,0,1,0-.42l.12,0c.21,0,.24-.14.24-1Z"/><path d="M78.28,33.29c-.06-.08-.06-.37,0-.42.24,0,.46,0,.81,0l.72,0a.61.61,0,0,1,0,.42l-.1.05c-.08,0-.11,0-.11.12a2.4,2.4,0,0,0,.06.42c.13.66.27,1.28.41,1.86.14-.6.3-1.24.44-2a2.27,2.27,0,0,0,0-.3c0-.06,0-.1-.16-.15l-.09,0a.48.48,0,0,1,0-.42,4.84,4.84,0,0,0,.53,0c.21,0,.36,0,.5,0a.51.51,0,0,1,0,.42l-.11,0c-.19.07-.25.21-.37.66-.34,1.24-.64,2.52-.93,3.81a.22.22,0,0,1-.15.08.25.25,0,0,1-.16-.08c-.34-1.51-.47-2.09-.88-3.69-.16-.58-.2-.68-.36-.75Z"/><path d="M83.44,35.4c0-1.72.72-2.66,1.49-2.66s1.46.86,1.46,2.55-.7,2.58-1.5,2.58S83.44,37.06,83.44,35.4Zm.93-.26c0,1.25.22,2.18.59,2.18s.5-.78.49-1.86-.19-2.17-.56-2.17S84.37,33.83,84.37,35.14Z"/><path d="M89.93,36.31c0,.84,0,.95.24,1l.12,0a.51.51,0,0,1,0,.42,6,6,0,0,0-.78,0,5.85,5.85,0,0,0-.78,0,.56.56,0,0,1,0-.42l.12,0c.22,0,.24-.14.24-1V34.5c0-.48,0-.62-.12-.77l-.09-.11a.43.43,0,0,1,0-.35,4,4,0,0,0,1-.7s.09,0,.12.11c0,.36,0,.88,0,1.42Zm0-5.42c0,.58-.24.88-.49.88s-.45-.36-.45-.86.23-.87.49-.87S90,30.41,90,30.89Z"/><path d="M94.86,32.94a1.12,1.12,0,0,1,.13.62c0,.36-.09.69-.17.69a.13.13,0,0,1-.1-.06c-.18-.48-.44-.9-.67-.9-.42,0-.65.89-.65,1.71s.33,1.91.93,1.91c.24,0,.44-.14.58-.59.08,0,.17.07.17.27-.15.6-.54,1.28-1.15,1.28-.82,0-1.38-1-1.38-2.42,0-1.71.75-2.71,1.62-2.71A1.36,1.36,0,0,1,94.86,32.94Z"/><path d="M98.17,34.86c-.15,0-.16,0-.16.22,0,.9.31,1.77.92,1.77.18,0,.42-.07.6-.62.07,0,.17.07.17.27-.27,1-.75,1.37-1.14,1.37-.88,0-1.35-1.14-1.35-2.45,0-1.51.59-2.68,1.4-2.68s1,.8,1,1.72c0,.23,0,.4-.23.4Zm.43-.53a.33.33,0,0,0,.27-.11.56.56,0,0,0,0-.27c0-.4-.12-.66-.34-.66s-.51.48-.51.86c0,.17.09.18.3.18Z"/><rect x="32.23" y="295.85" width="17.75" height="3.94"/><rect x="32.03" y="95.31" width="123.03" height="11.94"/><path class="cls-4" d="M39.9,104.5c0,2,.06,2.26.6,2.33l.38.06a.6.6,0,0,1,0,.46c-.62,0-1-.06-1.35-.06s-.78,0-1.31.06a.6.6,0,0,1,0-.46l.31-.06c.58-.11.6-.36.6-2.33v-.94a6.24,6.24,0,0,0-.32-2.27L37.6,97.07c-.34-1.21-.49-1.31-.79-1.4l-.28-.09a.55.55,0,0,1,0-.46,9.24,9.24,0,0,0,1.16.06,7.2,7.2,0,0,0,1.06-.06c.09.06.09.35,0,.46l-.13,0c-.35.09-.42.18-.42.33a14.24,14.24,0,0,0,.31,1.41c.37,1.36.74,2.81,1.13,4.08.3-1,.63-2,.93-3.11a24.44,24.44,0,0,0,.65-2.42c0-.11-.18-.24-.42-.29l-.18,0a.49.49,0,0,1,0-.46,8.37,8.37,0,0,0,1,.06,7.59,7.59,0,0,0,.92-.06.5.5,0,0,1,0,.46l-.28.09c-.52.17-.81,1.32-1.31,2.9l-.63,2a7,7,0,0,0-.47,3Z"/><path class="cls-4" d="M45.71,101.36c0-3.67,1.49-6.48,3.54-6.48,2.3,0,3.46,3.07,3.46,6.3,0,3.71-1.54,6.41-3.46,6.41C47,107.59,45.71,104.67,45.71,101.36Zm6,.39c0-3-.73-6.3-2.63-6.3-1,0-2.37,1.31-2.37,5.32,0,2.72.71,6.25,2.67,6.25C50.58,107,51.71,105.36,51.71,101.75Z"/><path class="cls-4" d="M62.16,99.78A24,24,0,0,0,62,96a.57.57,0,0,0-.49-.38l-.25,0a.55.55,0,0,1,0-.44,10.55,10.55,0,0,0,1.13.06,8.5,8.5,0,0,0,1-.06.52.52,0,0,1,0,.44l-.24,0a.59.59,0,0,0-.5.44,29.83,29.83,0,0,0-.14,3.74v2.08a10.55,10.55,0,0,1-.7,4.39,2.19,2.19,0,0,1-1.9,1.34,2.08,2.08,0,0,1-1.86-1c-.52-.81-.77-2.15-.77-4.34V97.91c0-1.91,0-2.22-.6-2.31l-.25,0a.56.56,0,0,1,0-.44c.5,0,.84.06,1.23.06s.74,0,1.23-.06a.56.56,0,0,1,0,.44l-.24,0c-.58.09-.6.4-.6,2.31v4c0,3,.5,4.9,2,4.9s2-2.1,2-4.89Z"/><path class="cls-4" d="M73.29,97.93c0-1.93,0-2.22-.6-2.31l-.25,0a.61.61,0,0,1,0-.46c.49,0,.81.06,1.26.06s.72,0,1.15-.06a.61.61,0,0,1,0,.46l-.19,0c-.58.11-.6.38-.6,2.31V100c0,.35,0,.7.13.7s.21-.11.28-.2.4-.7.51-.89l1.07-2c.19-.33.68-1.27.78-1.52a.84.84,0,0,0,.07-.3c0-.07,0-.12-.17-.18l-.27-.11a.49.49,0,0,1,0-.46,10.14,10.14,0,0,0,1.1.06,7.59,7.59,0,0,0,1-.06.56.56,0,0,1,0,.46,1.75,1.75,0,0,0-.92.51,15.47,15.47,0,0,0-1.4,2.13l-.89,1.56a1.44,1.44,0,0,0-.23.57,1.57,1.57,0,0,0,.19.57c.94,2,1.71,3.65,2.49,5.16.23.44.45.68.79.75l.27.06a.53.53,0,0,1,0,.46,8,8,0,0,0-1.11-.06c-.41,0-.76,0-1.22.06-.07,0-.1-.35,0-.46l.23-.08c.14,0,.24-.09.24-.18a1.28,1.28,0,0,0-.14-.42c-.19-.44-.45-.94-.83-1.73l-.79-1.65c-.57-1.17-.73-1.54-1-1.54s-.17.24-.17.88v2.37c0,1.93,0,2.18.58,2.29l.27.06a.61.61,0,0,1,0,.46c-.49,0-.83-.06-1.21-.06a11.27,11.27,0,0,0-1.16.06.59.59,0,0,1,0-.46l.2-.06c.53-.14.55-.36.55-2.29Z"/><path class="cls-4" d="M82.17,101.36c0-3.67,1.49-6.48,3.54-6.48,2.3,0,3.45,3.07,3.45,6.3,0,3.71-1.53,6.41-3.45,6.41C83.5,107.59,82.17,104.67,82.17,101.36Zm6,.39c0-3-.73-6.3-2.63-6.3-1,0-2.38,1.31-2.38,5.32,0,2.72.72,6.25,2.68,6.25C87,107,88.17,105.36,88.17,101.75Z"/><path class="cls-4" d="M93.88,97.56c0-1.36,0-1.7-.49-1.78l-.32,0a.47.47,0,0,1,0-.46,12.89,12.89,0,0,1,2.14-.15,2.3,2.3,0,0,1,1.67.52,3.7,3.7,0,0,1-.26,4.8.25.25,0,0,0,.19.28c.54.18,1.33,1.1,1.33,3.07s-.85,3.56-2.64,3.56c-.29,0-.78-.06-1.2-.06s-.77,0-1.14.06a.6.6,0,0,1,0-.46l.18-.06c.53-.16.55-.36.55-2.29Zm.81,2.44c0,.52,0,.56.52.52,1-.08,1.56-.63,1.56-2.35s-.73-2.48-1.48-2.48a.75.75,0,0,0-.46.11c-.1.06-.14.15-.14.48Zm0,4.26a6.23,6.23,0,0,0,.21,2,.78.78,0,0,0,.79.52c.88,0,1.56-.74,1.56-2.57,0-1.45-.4-3.14-2-3.14-.54,0-.58.11-.58.48Z"/><path class="cls-4" d="M105.65,103c-.07-.4-.11-.46-.41-.46h-1.5c-.25,0-.31.06-.38.44l-.35,1.93a13.25,13.25,0,0,0-.21,1.53c0,.22,0,.33.28.36l.33.06a.47.47,0,0,1,0,.46c-.26,0-.56,0-1-.06s-.69,0-1,.06a.61.61,0,0,1,0-.46l.33-.06c.24,0,.46-.24.6-.9.18-.84.46-2,.87-4.09l1-5a4.54,4.54,0,0,0,.17-1.3,1.44,1.44,0,0,0,.51-.7c.06,0,.13,0,.15.17.13.81.29,1.65.44,2.46l1.36,7.38c.29,1.58.42,1.85.85,1.94l.27.06a.61.61,0,0,1,0,.46,11.61,11.61,0,0,0-1.2-.06c-.48,0-.86,0-1.15.06a.5.5,0,0,1,0-.46l.29-.06c.21,0,.35-.14.35-.33a6.5,6.5,0,0,0-.13-1Zm-2-1.63c-.08.42-.07.44.21.44h1.22c.29,0,.31-.07.22-.57l-.54-3c-.07-.44-.16-.94-.22-1.16h0c0,.09-.13.53-.24,1.09Z"/><path class="cls-4" d="M114.12,104.5c0,2,.06,2.26.6,2.33l.38.06a.6.6,0,0,1,0,.46c-.62,0-1-.06-1.35-.06s-.78,0-1.31.06a.6.6,0,0,1,0-.46l.31-.06c.58-.11.6-.36.6-2.33v-.94a6.24,6.24,0,0,0-.32-2.27l-1.18-4.22c-.33-1.21-.48-1.31-.78-1.4l-.28-.09a.55.55,0,0,1,0-.46,9.18,9.18,0,0,0,1.15.06,7.26,7.26,0,0,0,1.07-.06c.09.06.09.35,0,.46l-.13,0c-.35.09-.42.18-.42.33a14.24,14.24,0,0,0,.31,1.41c.37,1.36.74,2.81,1.12,4.08.31-1,.64-2,.94-3.11a24.44,24.44,0,0,0,.65-2.42c0-.11-.18-.24-.42-.29l-.18,0a.49.49,0,0,1,0-.46,8.34,8.34,0,0,0,1,.06,7.62,7.62,0,0,0,.93-.06.5.5,0,0,1,0,.46l-.28.09c-.52.17-.82,1.32-1.31,2.9l-.63,2a7,7,0,0,0-.47,3Z"/><path class="cls-4" d="M123.52,103c-.07-.4-.11-.46-.41-.46h-1.5c-.25,0-.31.06-.38.44l-.35,1.93a13.25,13.25,0,0,0-.21,1.53c0,.22,0,.33.28.36l.33.06a.47.47,0,0,1,0,.46c-.26,0-.56,0-1-.06s-.69,0-1,.06a.61.61,0,0,1,0-.46l.33-.06c.24,0,.46-.24.6-.9.18-.84.46-2,.87-4.09l1-5a4.54,4.54,0,0,0,.17-1.3,1.44,1.44,0,0,0,.51-.7c.06,0,.13,0,.15.17.13.81.29,1.65.44,2.46l1.36,7.38c.29,1.58.42,1.85.85,1.94l.27.06a.61.61,0,0,1,0,.46,11.61,11.61,0,0,0-1.2-.06c-.48,0-.86,0-1.15.06a.5.5,0,0,1,0-.46l.29-.06c.21,0,.35-.14.35-.33a6.5,6.5,0,0,0-.13-1Zm-2-1.63c-.08.42-.07.44.21.44H123c.29,0,.31-.07.22-.57l-.53-3c-.08-.44-.17-.94-.23-1.16h0c0,.09-.13.53-.24,1.09Z"/><path class="cls-4" d="M130.88,107.59a2.13,2.13,0,0,1-1.55-.68,15,15,0,0,1-.27-2.57c.05-.13.2-.17.24-.06.15.94.55,2.74,1.71,2.74.83,0,1.24-1,1.24-2.12a3.7,3.7,0,0,0-.81-2.56l-.95-1.14A4.9,4.9,0,0,1,129.42,98c0-1.74.73-3.16,2-3.16a2.24,2.24,0,0,1,.92.24.86.86,0,0,0,.35.11,14.35,14.35,0,0,1,.18,2.24c0,.11-.2.17-.25.06-.13-.89-.4-2.08-1.35-2.08s-1.19,1.19-1.19,2a3.46,3.46,0,0,0,.85,2.26l.79.91a5.07,5.07,0,0,1,1.25,3.53C133,106.21,132.17,107.59,130.88,107.59Z"/><path class="cls-4" d="M139.08,101.36c-.47,0-.49,0-.49.59v2.59c0,1.93,0,2.18.6,2.29l.29.06a.61.61,0,0,1,0,.46c-.54,0-.87-.06-1.26-.06s-.77,0-1.16.06a.6.6,0,0,1,0-.46l.17-.06c.56-.18.58-.36.58-2.29V97.93c0-1.93-.07-2.24-.59-2.31l-.26,0a.61.61,0,0,1,0-.46c.49,0,.83.06,1.26.06s.72,0,1.15-.06a.61.61,0,0,1,0,.46l-.19,0c-.57.11-.59.38-.59,2.31V100c0,.57,0,.59.49.59h2.85c.48,0,.5,0,.5-.59V97.93c0-1.93,0-2.2-.61-2.31l-.19,0a.61.61,0,0,1,0-.46c.46,0,.8.06,1.2.06s.73,0,1.18-.06a.61.61,0,0,1,0,.46l-.21,0c-.58.11-.6.38-.6,2.31v6.61c0,1.93,0,2.16.6,2.29l.24.06a.61.61,0,0,1,0,.46c-.48,0-.82-.06-1.21-.06s-.76,0-1.2.06a.6.6,0,0,1,0-.46l.19-.06c.61-.18.61-.36.61-2.29V102c0-.55,0-.59-.5-.59Z"/><path class="cls-4" d="M148.77,98c0-2,0-2.26-.61-2.35l-.25,0a.61.61,0,0,1,0-.46c.5,0,.84.06,1.26.06s.73,0,1.23-.06a.61.61,0,0,1,0,.46l-.25,0c-.58.09-.6.4-.6,2.35v6.53c0,2,0,2.2.6,2.33l.25.06a.61.61,0,0,1,0,.46c-.5,0-.83-.06-1.23-.06s-.76,0-1.26.06a.6.6,0,0,1,0-.46l.25-.06c.59-.13.61-.38.61-2.33Z"/><rect x="32.6" y="208.51" width="140.02" height="11.94"/><path class="cls-4" d="M37.56,211.13c0-1.93,0-2.22-.65-2.31l-.25,0a.61.61,0,0,1,0-.46c.56,0,.9.06,1.29.06s.73,0,1.23-.06a.61.61,0,0,1,0,.46l-.24,0c-.59.09-.61.38-.61,2.31v6.39a4.62,4.62,0,0,0,.21,2c.11.2.3.42,1.09.42s1-.07,1.21-.24a4.8,4.8,0,0,0,.66-1.81c.05-.09.24,0,.24.11a24.62,24.62,0,0,1-.41,2.57c-.51,0-1.46-.06-2.48-.06H38c-.41,0-.73,0-1.29.06a.6.6,0,0,1,0-.46L37,220c.58-.11.6-.36.6-2.29Z"/><path class="cls-4" d="M50.78,213a25.55,25.55,0,0,0-.18-3.8.58.58,0,0,0-.5-.38l-.25,0a.55.55,0,0,1,0-.44,10.69,10.69,0,0,0,1.13.06,8.5,8.5,0,0,0,1-.06.52.52,0,0,1,0,.44l-.24,0a.59.59,0,0,0-.5.44,29.91,29.91,0,0,0-.14,3.74v2.08a10.67,10.67,0,0,1-.69,4.39,2.21,2.21,0,0,1-1.9,1.34,2.09,2.09,0,0,1-1.87-1c-.52-.81-.77-2.15-.77-4.34v-4.33c0-1.91,0-2.22-.6-2.31l-.25,0a.56.56,0,0,1,0-.44c.5,0,.84.06,1.24.06s.73,0,1.22-.06a.56.56,0,0,1,0,.44l-.24,0c-.58.09-.6.4-.6,2.31v4c0,2.95.5,4.9,2,4.9s2-2.09,2-4.88Z"/><path class="cls-4" d="M56.44,211.13c0-1.93,0-2.22-.6-2.31l-.24,0a.61.61,0,0,1,0-.46c.48,0,.8.06,1.25.06s.72,0,1.15-.06a.61.61,0,0,1,0,.46l-.19,0c-.57.11-.59.38-.59,2.31v2.11c0,.35,0,.7.13.7s.2-.11.27-.2.4-.7.51-.88l1.08-2c.19-.33.67-1.26.77-1.52a.84.84,0,0,0,.07-.3c0-.07,0-.12-.17-.18l-.27-.11a.52.52,0,0,1,0-.46,10.14,10.14,0,0,0,1.1.06,7.37,7.37,0,0,0,1-.06.56.56,0,0,1,0,.46,1.74,1.74,0,0,0-.92.52,13.94,13.94,0,0,0-1.39,2.12l-.9,1.56a1.44,1.44,0,0,0-.23.57,1.57,1.57,0,0,0,.19.57c.95,2,1.71,3.66,2.49,5.16.24.44.45.68.79.75l.27.06a.53.53,0,0,1,0,.46,7.89,7.89,0,0,0-1.11-.06c-.41,0-.76,0-1.22.06-.07,0-.1-.35,0-.46l.23-.07c.14,0,.24-.1.24-.19a1.28,1.28,0,0,0-.14-.42c-.19-.44-.45-.94-.82-1.73l-.8-1.65c-.57-1.17-.73-1.54-1-1.54s-.17.24-.17.88v2.37c0,1.93,0,2.18.57,2.29l.27.06a.61.61,0,0,1,0,.46c-.49,0-.82-.06-1.21-.06a11.27,11.27,0,0,0-1.16.06.64.64,0,0,1,0-.46l.2-.06c.53-.14.55-.36.55-2.29Z"/><path class="cls-4" d="M68.91,216.23c-.07-.4-.11-.46-.41-.46H67c-.25,0-.31.06-.38.45l-.34,1.92a12,12,0,0,0-.22,1.53c0,.22,0,.33.29.36l.32.06a.47.47,0,0,1,0,.46c-.25,0-.56,0-1-.06s-.69,0-1,.06a.66.66,0,0,1,0-.46L65,220c.24,0,.46-.23.6-.9.18-.84.46-2,.88-4.09l1-5a4.54,4.54,0,0,0,.17-1.3,1.52,1.52,0,0,0,.52-.7c.06,0,.13,0,.15.17.12.81.28,1.65.43,2.46l1.37,7.38c.28,1.58.41,1.85.84,1.94l.27.06a.61.61,0,0,1,0,.46,11.61,11.61,0,0,0-1.2-.06c-.48,0-.86,0-1.15.06a.5.5,0,0,1,0-.46l.29-.06c.21,0,.35-.14.35-.33a6.5,6.5,0,0,0-.13-1Zm-2-1.63c-.08.42-.07.44.21.44h1.23c.28,0,.3-.07.21-.57l-.53-3c-.08-.44-.17-.94-.23-1.16h0c0,.1-.13.54-.24,1.09Z"/><path class="cls-4" d="M85.53,213a24.08,24.08,0,0,0-.19-3.8.58.58,0,0,0-.5-.38l-.24,0a.55.55,0,0,1,0-.44,10.42,10.42,0,0,0,1.13.06,8.22,8.22,0,0,0,1-.06.52.52,0,0,1,0,.44l-.23,0a.59.59,0,0,0-.5.44,29.91,29.91,0,0,0-.14,3.74v2.08a10.5,10.5,0,0,1-.7,4.39,2.2,2.2,0,0,1-1.9,1.34,2.08,2.08,0,0,1-1.86-1c-.53-.81-.77-2.15-.77-4.34v-4.33c0-1.91,0-2.22-.6-2.31l-.25,0a.56.56,0,0,1,0-.44c.5,0,.84.06,1.23.06s.74,0,1.23-.06a.56.56,0,0,1,0,.44l-.24,0c-.58.09-.6.4-.6,2.31v4c0,2.95.5,4.9,2,4.9s2-2.09,2-4.88Z"/><path class="cls-4" d="M91.19,211.15c0-1.74,0-2.06-.44-2.15l-.32-.07a.5.5,0,0,1,0-.46,13.82,13.82,0,0,1,2.22-.15,2.18,2.18,0,0,1,1.66.55,3.47,3.47,0,0,1,.83,2.57,3.7,3.7,0,0,1-1.25,3.07.7.7,0,0,0,0,.44,23.42,23.42,0,0,0,2,4.88,1,1,0,0,0,.69.52s.06.18,0,.25a.85.85,0,0,1-.44.09c-.84,0-1.35-.45-2.06-2.31-.26-.68-.66-1.94-1-2.77-.15-.4-.31-.59-.71-.59s-.47,0-.47.41v2.31c0,1.93,0,2.15.6,2.29l.21.06a.6.6,0,0,1,0,.46c-.45,0-.79-.06-1.18-.06s-.78,0-1.25.06a.59.59,0,0,1,0-.46l.25-.06c.58-.13.6-.36.6-2.29Zm.81,2.62a2.63,2.63,0,0,0,0,.61c0,.05.18.09.69.09a1.12,1.12,0,0,0,1-.48,3.83,3.83,0,0,0,.5-2.27c0-1.45-.49-2.83-1.59-2.83-.62,0-.65.08-.65.59Z"/><path class="cls-4" d="M105.33,213a24.08,24.08,0,0,0-.19-3.8.58.58,0,0,0-.49-.38l-.25,0a.55.55,0,0,1,0-.44,10.42,10.42,0,0,0,1.13.06,8.22,8.22,0,0,0,1-.06.52.52,0,0,1,0,.44l-.23,0a.59.59,0,0,0-.5.44,29.91,29.91,0,0,0-.14,3.74v2.08a10.5,10.5,0,0,1-.7,4.39,2.19,2.19,0,0,1-1.9,1.34,2.08,2.08,0,0,1-1.86-1c-.53-.81-.77-2.15-.77-4.34v-4.33c0-1.91,0-2.22-.6-2.31l-.25,0a.56.56,0,0,1,0-.44c.5,0,.84.06,1.23.06s.74,0,1.23-.06a.56.56,0,0,1,0,.44l-.24,0c-.58.09-.6.4-.6,2.31v4c0,2.95.5,4.9,2,4.9s2-2.09,2-4.88Z"/><path class="cls-4" d="M111.94,220.79a2.15,2.15,0,0,1-1.55-.68,15,15,0,0,1-.27-2.57c0-.13.2-.17.24-.06.15.94.56,2.74,1.71,2.74.84,0,1.25-1,1.25-2.11a3.67,3.67,0,0,0-.82-2.57l-.94-1.14a4.9,4.9,0,0,1-1.08-3.16c0-1.74.74-3.16,2-3.16a2.25,2.25,0,0,1,.93.24.67.67,0,0,0,.34.11,14.35,14.35,0,0,1,.18,2.24c0,.11-.2.17-.25.06-.12-.88-.39-2.08-1.35-2.08s-1.18,1.2-1.18,2A3.42,3.42,0,0,0,112,213l.8.92a5,5,0,0,1,1.24,3.52C114.06,219.41,113.24,220.79,111.94,220.79Z"/><path class="cls-4" d="M120.15,214.56c-.48,0-.5,0-.5.59v2.59c0,1.93,0,2.18.61,2.29l.29.06a.61.61,0,0,1,0,.46c-.54,0-.88-.06-1.27-.06s-.76,0-1.15.06a.6.6,0,0,1,0-.46l.17-.06c.55-.18.57-.36.57-2.29v-6.61c0-1.93-.07-2.24-.58-2.31l-.26,0a.61.61,0,0,1,0-.46c.49,0,.82.06,1.25.06s.73,0,1.16-.06a.61.61,0,0,1,0,.46l-.19,0c-.58.11-.6.38-.6,2.31v2.11c0,.57,0,.59.5.59H123c.48,0,.5,0,.5-.59v-2.11c0-1.93,0-2.2-.61-2.31l-.19,0a.61.61,0,0,1,0-.46c.46,0,.8.06,1.21.06s.72,0,1.17-.06a.61.61,0,0,1,0,.46l-.21,0c-.57.11-.59.38-.59,2.31v6.61c0,1.93,0,2.16.59,2.29l.24.06a.61.61,0,0,1,0,.46c-.48,0-.81-.06-1.2-.06s-.77,0-1.21.06a.6.6,0,0,1,0-.46l.19-.06c.61-.18.61-.36.61-2.29v-2.59c0-.55,0-.59-.5-.59Z"/><path class="cls-4" d="M129.83,211.17c0-1.95,0-2.26-.6-2.35l-.25,0a.61.61,0,0,1,0-.46c.5,0,.83.06,1.25.06s.74,0,1.23-.06a.61.61,0,0,1,0,.46l-.24,0c-.59.09-.61.4-.61,2.35v6.53c0,2,0,2.2.61,2.33l.24.06a.61.61,0,0,1,0,.46c-.49,0-.83-.06-1.23-.06s-.75,0-1.25.06a.6.6,0,0,1,0-.46l.25-.06c.58-.13.6-.38.6-2.33Z"/><path class="cls-4" d="M136.18,210.76c0-1.35,0-1.7-.49-1.78l-.32,0a.47.47,0,0,1,0-.46,13,13,0,0,1,2.14-.15,2.27,2.27,0,0,1,1.67.52,3.72,3.72,0,0,1-.26,4.81.24.24,0,0,0,.19.27c.54.18,1.34,1.1,1.34,3.07,0,2.13-.86,3.56-2.65,3.56-.29,0-.78-.06-1.19-.06s-.78,0-1.15.06a.6.6,0,0,1,0-.46l.18-.06c.53-.16.55-.36.55-2.29Zm.81,2.45c0,.51,0,.55.52.51,1-.07,1.56-.62,1.56-2.35s-.72-2.48-1.48-2.48a.75.75,0,0,0-.46.11c-.1.06-.14.15-.14.48Zm0,4.25a6.23,6.23,0,0,0,.21,2,.78.78,0,0,0,.79.52c.88,0,1.56-.74,1.56-2.57,0-1.45-.4-3.14-2-3.14-.54,0-.58.11-.58.48Z"/><path class="cls-4" d="M148,216.23c-.07-.4-.11-.46-.4-.46H146c-.25,0-.3.06-.37.45l-.35,1.92a12,12,0,0,0-.22,1.53c0,.22.05.33.29.36l.33.06a.47.47,0,0,1,0,.46c-.26,0-.57,0-1-.06s-.69,0-.95.06a.61.61,0,0,1,0-.46L144,220c.24,0,.46-.23.6-.9.18-.84.46-2,.88-4.09l1-5a4.54,4.54,0,0,0,.17-1.3,1.52,1.52,0,0,0,.52-.7c.06,0,.13,0,.15.17.13.81.29,1.65.43,2.46l1.37,7.38c.29,1.58.42,1.85.84,1.94l.27.06a.61.61,0,0,1,0,.46,11.47,11.47,0,0,0-1.2-.06c-.48,0-.86,0-1.15.06a.5.5,0,0,1,0-.46l.29-.06c.21,0,.35-.14.35-.33a6.5,6.5,0,0,0-.13-1Zm-2-1.63c-.08.42-.07.44.21.44h1.23c.29,0,.31-.07.22-.57l-.54-3c-.08-.44-.17-.94-.23-1.16h0c0,.1-.13.54-.24,1.09Z"/><path class="cls-4" d="M154.36,211.15c0-1.74,0-2.06-.44-2.15l-.32-.07a.5.5,0,0,1,0-.46,13.72,13.72,0,0,1,2.22-.15,2.18,2.18,0,0,1,1.66.55,3.47,3.47,0,0,1,.83,2.57,3.7,3.7,0,0,1-1.25,3.07.7.7,0,0,0,.05.44,23.42,23.42,0,0,0,2,4.88,1,1,0,0,0,.69.52c.05,0,.06.18,0,.25a.85.85,0,0,1-.44.09c-.84,0-1.35-.45-2.06-2.31-.26-.68-.66-1.94-1-2.77-.15-.4-.31-.59-.71-.59s-.47,0-.47.41v2.31c0,1.93,0,2.15.6,2.29l.21.06a.6.6,0,0,1,0,.46c-.45,0-.79-.06-1.19-.06s-.77,0-1.24.06a.59.59,0,0,1,0-.46l.25-.06c.58-.13.6-.36.6-2.29Zm.81,2.62a2.63,2.63,0,0,0,0,.61c0,.05.18.09.69.09a1.12,1.12,0,0,0,1-.48,3.83,3.83,0,0,0,.5-2.27c0-1.45-.49-2.83-1.59-2.83-.62,0-.65.08-.65.59Z"/><path class="cls-4" d="M166.53,216.23c-.07-.4-.11-.46-.41-.46h-1.5c-.25,0-.31.06-.38.45l-.35,1.92a13.25,13.25,0,0,0-.21,1.53c0,.22,0,.33.28.36l.33.06a.47.47,0,0,1,0,.46c-.26,0-.56,0-1-.06s-.69,0-1,.06a.61.61,0,0,1,0-.46l.33-.06c.24,0,.46-.23.6-.9.18-.84.46-2,.87-4.09l1-5a4.54,4.54,0,0,0,.17-1.3,1.52,1.52,0,0,0,.52-.7s.12,0,.14.17c.13.81.29,1.65.44,2.46l1.36,7.38c.29,1.58.42,1.85.85,1.94l.27.06a.61.61,0,0,1,0,.46,11.61,11.61,0,0,0-1.2-.06c-.48,0-.86,0-1.15.06a.5.5,0,0,1,0-.46l.29-.06c.21,0,.35-.14.35-.33a6.5,6.5,0,0,0-.13-1Zm-2-1.63c-.08.42-.07.44.21.44H166c.29,0,.31-.07.22-.57l-.53-3c-.08-.44-.17-.94-.23-1.16h0c0,.1-.13.54-.24,1.09Z"/><rect class="cls-5" width="380.17" height="475.55"/></g></svg>