<svg xmlns="http://www.w3.org/2000/svg" viewBox="0 0 380.17 475.55"><defs><style>.cls-1,.cls-2,.cls-3,.cls-5{fill:none;}.cls-1,.cls-2,.cls-3{stroke:#000;}.cls-1{stroke-width:0.5px;}.cls-2{stroke-width:0.4px;}.cls-3{stroke-width:0.44px;}.cls-4{fill:#fff;}.cls-5{opacity:0.12;}</style></defs><title>アートボード 33</title><g id="letter_ol"><path d="M34.54,74c1.65-2.35,4.63-9.47,5.75-14.79.24.15,3.36,2.09,3.36,2.46s-.26.22-.83.26A37.29,37.29,0,0,1,40.55,67c.77.18.86.22.86.44s-.38.4-.74.51V84.22c0,.55,0,.84-.5.92l-1.93.22c-.41,0-.41-.08-.41-.77V71.08a12.14,12.14,0,0,1-3.26,3ZM35,63.19a48.1,48.1,0,0,0,4.34-12c1,.59,2,1.25,3.1,2,.48.33.53.36.53.58s-.1.29-.95.29c-1,2.1-3.32,6.61-7,9.22Zm17,6.68c.08-.11.2-.33.29-.33s.48.48.67.74a15.44,15.44,0,0,1,2,3.34c0,.51-.14.58-1.38.95a28,28,0,0,1-2.12,3.74,13.21,13.21,0,0,0,6.1,1.87v.08c-1.24.8-1.47,2.6-1.62,3.85-.09.7-.28,1-.59,1s-3.46-.48-5.87-4.29a15.28,15.28,0,0,1-8.25,4.4v-.07a22.8,22.8,0,0,0,7-6.86,18.89,18.89,0,0,1-1.12-5A26.45,26.45,0,0,1,41,82.06L41,82c2.12-3.37,3.79-9.5,4.39-12.36-1.62.51-2.22.69-3.08.95-.11-.7-.54-3.78-.64-4.4l5.22-.33a88,88,0,0,0,6-12.15c.5.44,2.21,2,3,2.82a1,1,0,0,1,.29.55.26.26,0,0,1-.29.26,3.75,3.75,0,0,1-.6-.14c-.47.69-1.28,1.87-3.1,4.1,4.15,1.25,4.65,4.08,4.65,5.33,0,1.72-.85,2.75-1.71,2.75-.38,0-.55-.26-.65-.77-.33-1.62-.35-1.73-.57-2.54a31.2,31.2,0,0,1-5.94,2.72c.36.18.86.37,1.22.59a.44.44,0,0,1,.21.33c0,.4-.71.4-.88.4-.31.85-.43,1.1-.57,1.47h3.17ZM43.2,56.11a9.48,9.48,0,0,1,3,1.28,51.5,51.5,0,0,0,1.5-6.09c3.7,1.84,3.7,1.88,3.7,2.09s-.38.33-.84.37A40.94,40.94,0,0,1,46.94,58a4.65,4.65,0,0,1,1.25,3.19c0,1.43-.72,2.72-1.67,2.72-.65,0-.67-.19-.91-1.51a15.36,15.36,0,0,0-2.43-6.24ZM47.71,72c-.1.22-.15.37-.46,1a10.5,10.5,0,0,0,2.06,3.48,19.74,19.74,0,0,0,2-4.51Zm6-6.57a16.51,16.51,0,0,0-1.74-3.89,37.75,37.75,0,0,1-4,4.26Z"/><path d="M82.07,64.44a45.45,45.45,0,0,0,1.2-5.36c1.19.63,1.52.77,2.79,1.47.12.07.26.15.26.33s-.62.3-.79.3a25.86,25.86,0,0,1-3.15,3.26h2.08l1-2c0-.11.21-.44.31-.44a10.28,10.28,0,0,1,1.88,2.57c0,.25-.17.25-.31.25H81.88a8.82,8.82,0,0,0,2,3.16h.89l1-2c.14-.3.22-.48.31-.48a12.89,12.89,0,0,1,2,2.61c0,.29-.17.29-.31.29H84.27a9.3,9.3,0,0,0,4.36,2.42l0,.08a4.32,4.32,0,0,0-1.39,2.9c-.09.66-.16,1.17-.52,1.17s-1.17-.92-1.36-1.17A10.53,10.53,0,0,1,82,76.77V77c1.86.48,4.68,1.14,4.68,4,0,.81-.36,2.49-1.84,2.49-.38,0-.4-.14-.64-1.21a14.65,14.65,0,0,0-2.2-5v4.48c0,1.54,0,3.71-2.52,3.71-.6,0-.6-.33-.65-1.76,0-1.1-.43-1.4-1.67-2.35-.64.92-1,1.36-1.38,1.83-.48-2.09-.53-2.31-.88-4.47.93-.3,4.36-1.54,4.48-1.62v-7c1,.15,2,.37,3,.55.26.07.43.11.43.29s-.28.41-.79.52v4.58a26.5,26.5,0,0,0,1.13-3.92,12.89,12.89,0,0,1,1.5.66,15,15,0,0,1-2.2-4.37H79.55a15.56,15.56,0,0,1-2.22,3.63,3.65,3.65,0,0,1,1.74,2.79c0,.66-.31,2-1.62,2-.79,0-.81-.33-.84-1.4a13,13,0,0,0-.21-2.27,7.49,7.49,0,0,1-1.86,1.47v7.7c0,.92,0,3-2.51,3-.88,0-1-.25-1-1A5.66,5.66,0,0,0,70.84,82a4.92,4.92,0,0,0-1.67-1.4v-.14l2.19.11c.51,0,.51-.15.51-1.54v-5.4H70.44c-.24,4.07-1,8.11-4.46,11.41L66,85c.86-1.87,1.74-4.4,1.74-12.22V59.41a18.24,18.24,0,0,1,2.94,1.07h1.05l.9-1.69c-.14-.11-.16-.29-.16-.66v-2.5h-6l-.11-.4h6.13V51.45c3.29.48,3.64.51,3.64.77s-.33.4-.76.55v2.46h3.46V51.41c3,.41,3.62.48,3.62.77s-.52.41-.74.48v2.57h2.1L85,52.4c.12-.29.22-.47.31-.47a16.45,16.45,0,0,1,2.65,3.45c0,.25-.17.25-.31.25h-6v2.28c0,.48,0,.7-.5.73l-1.69.19c.36.11,3.08,1,3.08,1.24s-.07.22-.77.41a39.34,39.34,0,0,1-.85,4Zm-10.2,8.81V67.19H70.48v4.08c0,1,0,1.24,0,2Zm0-6.5V60.92H70.48v5.83Zm6.46-2.31a37.43,37.43,0,0,0,.74-5.58c-.31,0-.31-.22-.31-.81V55.63H75.3V57.8c0,.62-.07.81-.45.84l-1.58.19c1.22,1.39,1.36,1.57,1.72,2a1,1,0,0,1,.26.67c0,.36-.21.58-.71,1V68H77.4a25.29,25.29,0,0,0,.83-3.16H75.06l-.12-.4Zm-3.79,9.8a23.13,23.13,0,0,0,2.72-5.8H74.54ZM75,59.16c2,.4,3.22,1.68,3.22,3.15a1.69,1.69,0,0,1-1.48,1.84c-.53,0-.57-.26-.81-1.84a8,8,0,0,0-1-3Zm4.36,18.46a35.19,35.19,0,0,1-2,3.33,7.19,7.19,0,0,0,1.14.08c.76,0,.81,0,.81-1.21Zm1.46-12.78A25.63,25.63,0,0,1,79.71,68h2.56a17.6,17.6,0,0,1-.63-3.16Z"/><path d="M96.88,59.93c1.36.47,4.39,1.61,4.39,5.13,0,1.77-1.1,2.65-1.88,2.65-.58,0-.62-.37-.79-1.36-.5-3-.91-4.84-1.74-6.35Zm7.85-3.64c-.84,6.06-1.24,8.55-2.31,13.55-1,4.62-1.13,5.54-1.13,6.49a4.07,4.07,0,0,0,.36,1.8,8.55,8.55,0,0,1,1,3.93c0,2.71-1.31,3.3-2.05,3.3s-1.14-.55-1.21-1.62a28.8,28.8,0,0,0-2.1-10.12l0-.08c.31.26,1.47,1.21,1.59,1.29,4.7-14.9,5.37-17,5.7-18.57Zm-6.15-4.55c1.62.52,4.67,1.47,4.67,5,0,1.58-.88,2.61-2,2.61-.5,0-.64-.15-.78-1.21a19.27,19.27,0,0,0-1.89-6.35Zm3.65,33.69a21.71,21.71,0,0,0,10-10.82,3.17,3.17,0,0,1-2.58,1.06c-.43,0-.55-.22-.55-.92,0-1,0-2.57-2.45-4.22l0-.11c.43,0,2,.15,2.27.15.9,0,.9-.48.9-1.8V59c-.09.15-.26.19-.59.22-1.72,6.13-4.2,10.76-6.28,13l0,0a81.72,81.72,0,0,0,3.12-15,33.45,33.45,0,0,1,3.79,1.61V51.34c1.1.07,2.2.26,3.29.37.2,0,.46,0,.46.29s-.12.29-.77.48V72.37a7.24,7.24,0,0,1,0,.91,38.72,38.72,0,0,0,1.62-5.39c.4.29,3.5,2.46,3.5,2.86,0,.22-.16.26-.73.15-3,7.85-6.3,13.47-14.89,14.64ZM113.6,57.06a13.17,13.17,0,0,1,3.91,3.12A6.81,6.81,0,0,1,119.25,65c0,2.83-1.33,3.53-1.9,3.53s-.74-.48-.86-1.18c-.91-5.94-2.1-8.44-2.91-10.12Z"/><path d="M136.16,64.7l-.12-.41h4V58h-3.36l-.1-.44H140V51.41c.69.08,2.65.33,3.22.48.19,0,.38.11.38.29,0,.37-.55.48-.69.52v4.84H143l1-2.38c.05-.11.19-.41.26-.41s.24.22,1.19,1.87c.31-1,.53-1.72.91-3.23.38.19,3.27,1.69,3.39,1.77a.38.38,0,0,1,.21.33c0,.14-.17.36-.76.25a46.77,46.77,0,0,1-4.1,8.55h1.14l1.27-2.57c.09-.18.23-.51.3-.51a18,18,0,0,1,2.53,3.27c0,.22-.14.22-.24.22h-5.27a35,35,0,0,1-3.55,4.77c.26.11.33.15.52.22h3.63l.93-2c.07-.15.21-.4.31-.4s2.81,2.9,2.81,3.52-.5.81-.93,1.06V84.44c0,.59,0,.66-.4.7l-2.1.22c-.36,0-.41,0-.41-.63V83h-4.22v1.58c0,.51,0,.7-.4.73l-2,.23c-.47,0-.47-.15-.47-.81V72.15a19.23,19.23,0,0,1-2.06,1.61,6.87,6.87,0,0,1,1.53,4c0,1.76-.88,2.83-1.76,2.83s-.77-.55-.82-1.65a31.19,31.19,0,0,0-1-7.16V84.44c0,.62-.05.77-.48.81l-1.88.22c-.41,0-.46-.22-.46-.7V74.94a34.48,34.48,0,0,1-3.77,8.36l0,0c.47-2.65,1-7.71,1.12-10.06a20.77,20.77,0,0,1,2.69.74V70.31a31.8,31.8,0,0,1-2.86,1.84c-.31-1.69-.62-4.3-.69-4.85l2.55-.18a80.93,80.93,0,0,0,3.72-10.24c1.24.81,2.36,1.58,3.05,2.09.36.26.41.26.41.44s-.41.26-.74.26a35.73,35.73,0,0,1-5.91,7.41l4-.25a9.84,9.84,0,0,0-.79-2.68l0-.08c1.07.59,3.51,2.21,3.51,4.85,0,1.54-.81,2.57-1.62,2.57-.62,0-.67-.44-.72-1.07-.1-1.1-.12-1.28-.31-2.86-.29.26-.36.33-.76.66v3.3a14.75,14.75,0,0,1,1.83,2c.89-1.07,1.39-1.69,2.25-2.9v-2c.64.18.81.22,1.14.33.88-1.4,1.43-2.35,2.41-4.22Zm-7.72-7.78a9.64,9.64,0,0,1,2.19,1.43c.43-1.87,1-4.7,1.24-7.05.55.22,2.93,1.32,3.41,1.51.17.07.33.14.33.37s-.59.33-.76.33A32.73,32.73,0,0,1,131,58.72a4.7,4.7,0,0,1,1.19,3.12c0,1.5-.74,2.64-1.67,2.64-.69,0-.72-.3-.91-1.87A22.62,22.62,0,0,0,128.41,57Zm13,13.21v5.8h4.22v-5.8Zm0,6.2v6.2h4.22v-6.2Zm1.48-13.21A50.3,50.3,0,0,0,145,58h-2.1Z"/><path d="M175.56,54.28l.79-1.44c.45-.8.52-.88.67-.88s2.81,2.87,2.81,3.38-.41.81-1,1.14V69.62c0,.69,0,.91-.46.95l-1.93.22c-.52.07-.64,0-.64-.88v-.77h-4.3v6.57h3.84l1.24-2.87c.08-.14.22-.44.31-.44a16.67,16.67,0,0,1,2.77,3.45c0,.3-.17.3-.31.3h-7.85v7.59h5.23l1.4-3c.22-.47.24-.55.34-.55a16.69,16.69,0,0,1,2.79,3.71c0,.26-.14.26-.29.26H159.15l-.12-.41h9.59V76.15h-7.89l-.12-.44h8V69.14H164.4v1.58c0,.73,0,1-.55,1.06L162,72c-.62.08-.62-.07-.62-.73V53.1c.93.26,2.8,1,3.25,1.18Zm-11.16.4v6.71h4.22V54.68Zm0,7.16v6.89h4.22V61.84Zm7.15-7.16v6.71h4.3V54.68Zm0,7.16v6.89h4.3V61.84Z"/><path d="M47.3,148.21c.16-.38.33-.7.49-.7s1.6,1.9,2,2.41V139.79c3,.89,3.86,1.21,5,1.65H66.34l1.68-3.1c.21-.38.5-1,.7-1s4.4,4.55,4.4,5.31c0,1-1.27,1.65-1.72,1.9v43.84c0,2,0,4.37-1.4,5.63a6.93,6.93,0,0,1-4.24,1.58c-1,0-1-.5-1-3.73,0-2.85-2.88-4.62-4.31-5.25v-.25a40.3,40.3,0,0,0,5.47.5c.78,0,.78-.5.78-2.46V160.67a2.47,2.47,0,0,1-1.24.76v16.2c0,1.07-.16,1.32-.82,1.39l-2.47.31c-.74.13-.82-.12-.82-1.13v-2.66H59.76v4.93c0,1.14-.13,1.4-.87,1.52l-2.26.32c-.74.12-.94.06-.94-1.39V157.19c1.11.32,3.86,1.33,4.44,1.58H61l1.32-2.4c.37-.7.57-1,.78-1s3.29,3.86,3.54,4.24v-8.42H54.41V193.5c0,1.4-.08,1.65-.9,1.71l-2.76.32c-.94.13-1-.13-1-1.39V171.3c-.21.38-.87,2-2.23,2-1.1,0-1.23-1.07-1.23-2.27,0-3-.08-7.47-1.07-11V193.5c0,1.27,0,1.59-1.07,1.71l-2.75.32c-.87.13-1.11-.19-1.11-1.27V173.83a39.32,39.32,0,0,1-6.58,9.81v-.13c3.29-7.85,5.92-21.32,6.33-30.49H34.88l-.21-.76h5.64V136.88c1,.13,4.81.51,5.71.7.25.06.58.13.58.51s-.16.5-1.36.95v13.22h.25ZM45.24,153v5.88c3.37,2.47,4.11,4.55,4.53,5.88V153Zm9.17-10.82v8.22h7l1.69-3.86c.12-.31.37-.82.53-.82a37.34,37.34,0,0,1,3,4.18V142.2Zm6.91,32.64V159.53H59.76v15.31Z"/><path d="M105.69,154.35V137.26c.66,0,6.54.45,6.54,1.4,0,.5-.28.63-1.23,1.07v14.62h6.5l2.18-5.07c.2-.5.33-.75.49-.75s4.69,5.37,4.69,6.07c0,.44-.25.44-.5.44H111v16.07h3.82l2.47-5.19c.33-.69.37-.76.49-.76s4.82,5.57,4.82,6.27c0,.44-.25.44-.54.44H111v20.5h7.57L121,187c.29-.63.37-.76.54-.76.33,0,4.89,5.82,4.89,6.39s-.25.51-.49.51H88.71l-.2-.76h17.18v-20.5H94.92l-.2-.76h11V155H98.58c-1.11,4-4.28,14.42-9.7,21.13l-.09-.06c3.29-9.37,5.6-22,6.79-35.49,1,.25,6.87,2,6.87,2.65,0,.45-.54.57-1.24.7-.82,4.43-1.56,7.4-2.38,10.38Z"/><path d="M149.62,181.49v5.63c0,1.83,0,2-.83,2l-3.16.32c-1,.12-1-.07-1-1.65V154.53a31.21,31.21,0,0,1,5.88,1.71h3.33l1.36-3-1.85.19c-1.15.13-1.15,0-1.15-1.46v-6.38H141.85l-.21-.76h10.53v-7.6c.9.13,4.77.38,5.55.51.29.06.7.19.7.57,0,.63-.62.7-1.24.82v5.7h6.62V137.2a46.22,46.22,0,0,1,5.76.63.63.63,0,0,1,.54.57c0,.38-.13.51-1.28.76v5.7h3.33l2.55-5.19c.33-.7.37-.76.49-.76.29,0,4.69,5.63,4.69,6.26,0,.45-.24.45-.49.45H168.82v6.13c0,1.39,0,1.52-.82,1.58l-3.09.32c-1.11.13-1.11-.19-1.11-1.84v-6.19h-6.62v5.75c0,1.08,0,1.2-.24,1.58,1.64,1.84,1.81,2,3.16,3.67.62.76.7,1,.7,1.46,0,.95-.61,1.39-1.77,2.21v23.16c0,1,0,1.77-.86,1.83l-3,.32c-.86.06-1.07.12-1.07-1.58v-2.53Zm4.48-13.16V156.94h-4.48v11.39Zm0,12.46V169h-4.48v11.77Zm17.64-25.37,1.19-2.4c.58-1.14.83-1.71,1.07-1.71.45,0,3.09,3.29,3.66,4.05,1,1.26,1.15,1.45,1.15,2,0,.76-.16.88-1.72,2.09V189c0,2,0,6.65-5.23,6.65-1.23,0-1.27-.45-1.52-2.91-.28-2.79-.74-3.17-4-5.95v-.25a23.14,23.14,0,0,0,4.53.5c1.23,0,1.23-.25,1.23-2.59v-8.23h-5.38c-.42,6.14-1.9,11.83-6.21,15.76a16.54,16.54,0,0,1-6.09,3.73c6.13-6.64,7.32-13,7.32-23.15V153.78c2.3.57,2.67.63,6,1.64Zm-4.93.76v8.92h5.34v-8.92Zm0,9.62v9.68h5.34V165.8Z"/><path d="M210,158.84l1.07-2.66c.49-1.27.57-1.33.82-1.33s.33.06,1.93,1.9c3,3.42,3,3.48,3,4.11s-1.31,1.52-2,1.9V189c0,4.11,0,6.64-4.52,6.64-1.2,0-1.2-.44-1.32-4.3-.12-3.1-3.41-4.3-3.86-4.43v-.25l3.45.06c1.44,0,1.44-.19,1.44-2.47v-7.08h-5.72V193.5c0,1.71,0,2.09-.57,2.16l-3.5.31c-.45.07-.7,0-.7-.88V164.34a53.72,53.72,0,0,1-4.89,8l-.17-.12a163.78,163.78,0,0,0,5.68-22.65h-4.85l-.21-.7h5.18c.54-3.16,1.07-6.58,1.65-11.89,2.14.57,5,1.58,6,2,.66.25,1,.38,1,.76,0,.63-.83.69-1.32.76-.37,1.83-.82,4.3-2,8.41H210l2.51-5.12c.33-.7.37-.76.49-.76.33,0,4.36,5.63,4.36,6.2,0,.38-.29.38-.54.38H205.3a63.7,63.7,0,0,1-2.92,8.54c.82.25,1.44.44,2.26.76Zm0,8.54V159.6h-5.72v7.78Zm-5.72.69v8.35H210v-8.35Zm21.92-26.63,1.61-3.16c.36-.7.57-.95.9-.95,1,0,4.81,6.07,4.81,6.77a1.32,1.32,0,0,1-.78,1.07c-.21.13-1.32.7-1.56.82a73.25,73.25,0,0,1-7,12.85,32.68,32.68,0,0,1,5.26,5.94c2.3,3.55,3.37,9,3.37,12.85,0,8.66-3.87,11.07-6.37,11.07-1.32,0-1.32-.83-1.36-4,0-1.27-.66-4.49-2.55-5.76V194c0,1.52,0,1.64-.78,1.71l-3.33.31c-.58.07-.82.07-.82-.76V139.73c.86.32,4.77,1.52,5.18,1.71Zm-3.7.76v36.31a15.18,15.18,0,0,0,2.18.32c2.43,0,2.71-3.35,2.71-5.13,0-4.74-1.56-11.64-3.82-14.42a156.54,156.54,0,0,0,2.71-17.08Z"/><path d="M40.7,236.45l.56-1.09c.05-.1.09-.19.12-.19a9.17,9.17,0,0,1,1.16,1.34c0,.11-.06.11-.12.11H41.17v3.85h.21l.6-1.27c.05-.11.09-.19.12-.19a7.43,7.43,0,0,1,.94,1.54c0,.11-.08.11-.14.11H41.17v3.84h.08l.55-1.17c0-.1.09-.19.12-.19a5.6,5.6,0,0,1,.89,1.44c0,.11-.06.11-.13.11H33.56l0-.19H35v-3.84H33.38l0-.19H35v-2a11.59,11.59,0,0,1-1.39,1.87h0A32.24,32.24,0,0,0,35.33,234c.19.06,1.62.53,1.62.74s-.16.17-.37.16c-.24.7-.39,1.07-.59,1.52l0,0ZM35.33,245c0,.32,0,.6,0,1,0,.83-.06,2.93-1.08,2.93-.48,0-.77-.6-.77-1.06a.77.77,0,0,1,.37-.67,4.55,4.55,0,0,0,1.41-2.2Zm.8-8.34v3.85h.52v-3.85Zm0,4v3.84h.52v-3.84Zm.22,4.45A3,3,0,0,1,38,247.59c0,.77-.46,1.28-.86,1.28s-.37-.26-.39-.75a9.31,9.31,0,0,0-.45-3Zm2-4.64v-3.85H37.8v3.85Zm0,4v-3.84H37.8v3.84Zm0,.64a2.63,2.63,0,0,1,2,2.43c0,.79-.38,1.23-.83,1.23-.27,0-.31-.14-.35-.52a7.28,7.28,0,0,0-.78-3.11Zm1.11-8.52v3.85H40v-3.85Zm0,4v3.84H40v-3.84Zm1,4.48c1.06.3,2.35,1.17,2.35,2.46,0,1-.61,1.3-.86,1.3s-.28-.18-.35-.56a8.37,8.37,0,0,0-1.14-3.17Z"/><path d="M54.33,236.16l.41-.94c0-.1.1-.24.17-.24a7.57,7.57,0,0,1,1.35,1.66c0,.21-.33.34-.47.4v10.47c0,.24,0,.29-.21.3l-.94.1c-.17,0-.21,0-.21-.31v-1.15H49v1c0,.27,0,.32-.23.33l-.88.1c-.24,0-.24-.13-.24-.42v-12a8.17,8.17,0,0,1,1.48.66Zm-5.31.19v9.91h5.41v-9.91Z"/><path d="M62.71,245.52c.21.31.67.85,1,.85,1.33,0,1.77-4.4,1.77-6,0-.4,0-1.43-.58-1.43-.17,0-.42.18-1,.56a66,66,0,0,1-2.18,8.24c-.19.39-.39.58-.65.58s-.54-.66-.54-1.73c0-.25,0-.29.23-.54a11.48,11.48,0,0,0,.94-2.26c.4-1.2.55-1.82.95-3.42a2.71,2.71,0,0,1-1.18.51c-.41,0-.77-.53-.77-1.15a4.08,4.08,0,0,1,.49-1.59c0,.67.06,1,.46,1a4.36,4.36,0,0,0,1.36-.29,28,28,0,0,0,.6-3.28c0-.38-.2-.46-.29-.46a.22.22,0,0,0-.13,0c0-.82.56-.86.78-.86a1,1,0,0,1,1,1,3.82,3.82,0,0,1-.23.94c-.11.43-.27,1.07-.55,2.26a2.84,2.84,0,0,1,.65-.13c.25,0,1.72.15,1.72,3.39,0,2.17-.79,6.65-2.51,6.65a1,1,0,0,1-1-.92,6.86,6.86,0,0,0-.39-1.88Zm4.9-7.5c1.37,0,2,1.52,2,2.89,0,1.65-.73,1.85-.88,1.85-.5,0-.5-.77-.5-1,0-2.18-.13-3.45-1.42-3.64A3.25,3.25,0,0,1,67.61,238Z"/><path d="M77.71,247.24a7,7,0,0,0,3.14-2.63,5.34,5.34,0,0,0,.73-2.91c0-.48-.1-3.48-1.89-3.48-1.06,0-2.91,1.62-3.9,2.74-.47.53-.7.79-1.14.79-.64,0-1.13-.71-1.13-1.86a3.4,3.4,0,0,1,.13-.94.82.82,0,0,0,.7.67c.23,0,.25,0,2-1.14s2.74-1.54,3.6-1.54c1.43,0,3.12,1.77,3.12,5.05s-1.62,4.17-2.09,4.43a7.6,7.6,0,0,1-3.24.86Z"/><path d="M89.5,244.15c0,1.25-.4,2.78-1.43,2.78-.6,0-.68-.8-.68-1,0-.5.18-.67.61-1.07a4.8,4.8,0,0,0,1.28-2.82A10.21,10.21,0,0,1,89.5,244.15Zm.32,1.31a4,4,0,0,0,1,.24c.24,0,.3-.21.33-.8s.09-3.23.09-5a7.5,7.5,0,0,0-2,.64,5.77,5.77,0,0,1-.58.22c-.41,0-1.06-.92-1.06-1.79a1.62,1.62,0,0,1,.17-.78,1.41,1.41,0,0,0,1.31.93,19.33,19.33,0,0,0,2.18-.28,17.07,17.07,0,0,0-.17-2.78.7.7,0,0,0-.73-.39c.21-.41.51-1,.94-1s1.16.56,1.16,1a6.05,6.05,0,0,1-.2.73c0,.26,0,1.78,0,2.24,1.2-.25,1.69-.4,1.95-1a3.13,3.13,0,0,1,1.41.75.73.73,0,0,1,.25.58c0,.19-.07.72-.42.72l-.7-.13a5.3,5.3,0,0,0-.9-.13,10.48,10.48,0,0,0-1.59.21c0,2.85,0,3.65.07,4.93,0,.24.07,1.31.07,1.54,0,1-.46,2.24-1,2.24-.26,0-.29-.19-.41-.85a3.19,3.19,0,0,0-1.05-2Zm6.13-.08c0,1.38-.73,1.41-.81,1.41-.46,0-.54-.56-.61-1.09a11.33,11.33,0,0,0-1.39-4.07C93.87,242.08,96,243.35,96,245.38Zm.46-9.86c0,.94-.49,1.7-1.1,1.7s-1.11-.76-1.11-1.7.5-1.71,1.11-1.71S96.41,234.56,96.41,235.52Zm-1.83,0c0,.62.32,1.12.73,1.12s.72-.5.72-1.12-.33-1.14-.72-1.14S94.58,234.9,94.58,235.52Z"/><path d="M101.75,240.9c.44,0,5.26-.18,5.66-.21.13,0,.67-.1.78-.1s1.26.2,1.26.87a.85.85,0,0,1-.49.73,2.53,2.53,0,0,1-1.18.18c-4.77,0-5.3,0-5.73.16a5.25,5.25,0,0,1-.77.35,2.35,2.35,0,0,1-1.19-2.11,1.41,1.41,0,0,1,.3-.9A1.21,1.21,0,0,0,101.75,240.9Z"/><path d="M116.85,245.19a3.43,3.43,0,0,0,1.52.56c.48,0,.7-.5.91-1.57a32.14,32.14,0,0,0,.51-4.92,16.65,16.65,0,0,0-2.1.41c-.75,5.1-2,6.75-4.42,8.34v0c1.33-1.6,2.59-3.54,3.19-8-.46.12-.61.15-.75.28-.41.35-.46.4-.6.4-.36,0-1.09-.95-1.09-1.75a1.54,1.54,0,0,1,.31-.85c.11.39.26,1,.9,1a8.78,8.78,0,0,0,1.35-.11c.13-1.2.16-2.22.16-2.48,0-.42,0-.66-.79-.72.31-.59.66-.91,1.06-.91s1.15.64,1.15,1a1.61,1.61,0,0,1-.15.58c0,.9-.11,1.54-.2,2.31,1.74-.23,1.84-.32,2.13-.61s.28-.29.35-.29a3.2,3.2,0,0,1,1.15,1.44c0,.16,0,.22-.39.82-.27,2.51-.61,5.55-1.25,7a1.59,1.59,0,0,1-1.45,1.06c-.27,0-.28-.14-.34-.77a2.87,2.87,0,0,0-1.16-2.09Z"/><path d="M127.24,240.9c.44,0,5.26-.18,5.66-.21.13,0,.67-.1.78-.1s1.26.2,1.26.87a.85.85,0,0,1-.49.73,2.53,2.53,0,0,1-1.18.18c-4.77,0-5.3,0-5.73.16a5.25,5.25,0,0,1-.77.35,2.35,2.35,0,0,1-1.19-2.11,1.41,1.41,0,0,1,.3-.9A1.21,1.21,0,0,0,127.24,240.9Z"/><path d="M138.88,248.12c2.54-1.68,4.83-4.08,5.63-10.44a24.52,24.52,0,0,0-4,1c-.39.35-.41.37-.53.37-.37,0-.94-1.23-.94-2a4.13,4.13,0,0,1,.19-1c.41.87.67,1.09,1.23,1.09a18.06,18.06,0,0,0,3.91-.51,4,4,0,0,0,.4-.5c.08-.11.19-.25.31-.25a3.87,3.87,0,0,1,1.3,1.9c0,.16-.33.55-.47.71-1,4.43-2,8.37-7.05,9.76Z"/><path d="M155,242.34c0,.13-.15.69-.16.8,0,.46-.15,2.46-.2,2.88a9.09,9.09,0,0,0,1.56-.21,1,1,0,0,0,.52-.37c.13.13.78.55.9.66a.82.82,0,0,1,.35.66c0,.08,0,.54-.35.54a3.1,3.1,0,0,1-.78-.19,3.85,3.85,0,0,0-1.39-.26,10.93,10.93,0,0,0-3.5.61c-.21.21-.28.27-.35.27a2,2,0,0,1-1-1.63,1.77,1.77,0,0,1,.2-.77c.15.83.53.91.93.91.6,0,1.36-.08,2.08-.14,0-.43.06-2,.06-2.9a2.81,2.81,0,0,0-.24-1.42,2.89,2.89,0,0,0-.83.27,1.4,1.4,0,0,1-.37.19c-.25,0-.81-.72-.81-1.2a1.71,1.71,0,0,1,.24-.85c.13.53.38.8.68.8a25.75,25.75,0,0,0,2.76-.41,1.39,1.39,0,0,0,.59-.4c.14.11.78.54.9.65a.65.65,0,0,1,.18.45c0,.35-.21.39-.32.39s-1.17-.08-1.36-.08-.65,0-.78,0C154.58,241.68,155,242,155,242.34Z"/><path d="M161.76,245.19c3.14-3,5.64-8.63,5.64-9.46,0-.16,0-.4-.59-.85a1.65,1.65,0,0,1,.71-.26c.63,0,1.47,1.11,1.47,1.81,0,.21,0,.24-.25.47a27.75,27.75,0,0,0-1.56,2.77c.14.12.48.38.48.67a2.85,2.85,0,0,1-.06.45,6.62,6.62,0,0,0-.11,1.72c0,.8.15,4.77.15,5,0,.87-.38,1.19-.6,1.19-.63,0-.8-1.52-.8-1.84s.12-1.22.13-1.41c0-.47.07-1.31.07-3,0-.51,0-1,0-1.54a12.75,12.75,0,0,1-4.65,4.37Z"/><path d="M173.19,248a19.18,19.18,0,0,0,5.73-10.92,11.12,11.12,0,0,0-2.59,1,3.15,3.15,0,0,1-.63.46,2.4,2.4,0,0,1-1.22-1.93,1.3,1.3,0,0,1,.32-.93c.06,1,.78,1,1,1s2.74-.18,3.25-.63c.06-.05.23-.27.33-.38a.21.21,0,0,1,.19-.11,3,3,0,0,1,1.31,1.58c0,.39-.25.45-.5.53a23.63,23.63,0,0,1-1.67,4.7c1.4.66,3.13,2.09,3.13,4,0,1.07-.55,1.44-.79,1.44s-.4-.37-.63-1.11a14.63,14.63,0,0,0-1.83-4,12.09,12.09,0,0,1-5.37,5.5Z"/><path d="M189.65,236.56c.08.16.12.16.48.19s.49.21.49.71c0,.75-.54,1.15-1.72,1.79-.16,1.82-.23,2.22-.3,2.74.17-.29.87-1.6,1-1.84,1.28-2.07,2.23-2.26,2.83-2.26a1.81,1.81,0,0,1,1.94,1.79c0,.47-.23.91-.55.91a.3.3,0,0,1-.2-.06c-.41-.22-.51-.29-.7-.29-.39,0-.67.21-1.34.74v-.07a2.46,2.46,0,0,0,.64-1.21c0-.16-.08-.63-.75-.63-.83,0-2.12.88-3.12,4.77a27.59,27.59,0,0,0-.72,3.75c-.1.88-.61.93-.79.93-.44,0-.57-1.19-.57-1.57a2.23,2.23,0,0,1,.3-1.07,26.88,26.88,0,0,0,1.26-6.07,1.8,1.8,0,0,1-.74.19c-1.1,0-1.18-1.76-1.18-2.1a.9.9,0,0,0,.76.49,4.73,4.73,0,0,0,1.36-.5c0-.58.15-1.65.15-2.18,0-.38,0-.78-.49-.89a.91.91,0,0,1,.8-.68c.49,0,.85.69.85,1.11,0,.17-.14,1-.17,1.15-.05.4-.06.46-.1.86.41-.27.47-.35.52-.7Zm.65,8.4c0,.71.27,1.4,1.12,1.4a6.39,6.39,0,0,0,1.34-.21c.06,0,.7-.19.74-.19.41,0,.65.67.65,1.21,0,.92-.75,1.14-1.83,1.14-1.24,0-2.36-.14-2.36-2.37a7.52,7.52,0,0,1,.6-2.85A8.7,8.7,0,0,0,190.3,245Zm1.89-9.73a1.43,1.43,0,0,1,1.57,1.38c0,.16,0,.73-.41.73-.19,0-.22,0-.43-.59a2.78,2.78,0,0,0-1.07-1.49Zm1.48-1.22a1.22,1.22,0,0,1,1.36,1.25c0,.53-.24.69-.37.69s-.21-.06-.51-.67a2.26,2.26,0,0,0-1-1.19A2.22,2.22,0,0,1,193.67,234Z"/><path d="M201,245.59c.2.3.66.85,1,.85,1.33,0,1.77-4.41,1.77-6,0-.4,0-1.42-.59-1.42-.16,0-.41.17-.94.56a67,67,0,0,1-2.18,8.24c-.2.38-.39.58-.65.58s-.55-.66-.55-1.73c0-.26,0-.29.23-.55a10.78,10.78,0,0,0,.95-2.25c.4-1.2.55-1.83,1-3.43a2.71,2.71,0,0,1-1.18.51c-.42,0-.77-.53-.77-1.15a4.14,4.14,0,0,1,.49-1.59c0,.68.05,1,.46,1a4.73,4.73,0,0,0,1.36-.29,27.93,27.93,0,0,0,.59-3.28c0-.39-.19-.47-.29-.47a.21.21,0,0,0-.12,0c0-.81.56-.86.78-.86a1.05,1.05,0,0,1,.95,1,3.94,3.94,0,0,1-.23.95c-.12.43-.27,1.07-.55,2.25a2.8,2.8,0,0,1,.65-.12c.25,0,1.72.14,1.72,3.39,0,2.16-.79,6.64-2.51,6.64a1,1,0,0,1-1-.91,6.93,6.93,0,0,0-.39-1.89Zm4.78-10a1.3,1.3,0,0,1,1.27,1.31c0,.31-.12.72-.43.72s-.22,0-.73-.92a1.87,1.87,0,0,0-1-.88A1.93,1.93,0,0,1,205.75,235.55Zm.12,2.53c1.37,0,2,1.52,2,2.9,0,1.65-.73,1.84-.89,1.84-.5,0-.5-.77-.5-1,0-2.18-.12-3.44-1.41-3.63A3.2,3.2,0,0,1,205.87,238.08Zm.72-4c.67,0,1.36.35,1.36,1.12,0,.22-.12.75-.39.75-.12,0-.18-.1-.42-.48a3.9,3.9,0,0,0-1.27-1.26A2.1,2.1,0,0,1,206.59,234.05Z"/><path d="M212.12,244.66a3.4,3.4,0,0,1,2.29.85,2.38,2.38,0,0,1,.65,1.66c0,.74-.3,1.25-.76,1.25s-.72-.66-.76-.85a4.65,4.65,0,0,0-1.49-2.78Z"/><path d="M220.16,238.05l0-.18h1.39v-3.69c.87.11,1.31.16,1.43.2s.13.05.13.13-.18.15-.32.18v3.18h0l.39-.91c0-.11.08-.19.13-.19a4.08,4.08,0,0,1,.63.7,27.57,27.57,0,0,0,.54-3.36l1.46.58a.16.16,0,0,1,.14.14c0,.1-.06.11-.3.11-.22.71-.3,1-.46,1.43l.08.06h.89a22,22,0,0,0,.21-2.27c.24.08,1.33.4,1.55.5,0,0,.14.06.14.12s-.2.12-.28.12c-.15.17-.76,1-.9,1.18a3.3,3.3,0,0,1-.31.35h1.21l.51-1c.05-.09.08-.17.13-.17a5.3,5.3,0,0,1,.92,1.28c0,.11-.07.11-.14.11h-1.9v1.45h.33l.47-.88c.06-.12.1-.17.13-.17a4.78,4.78,0,0,1,.89,1.12c0,.13-.07.13-.14.13h-1.68v1.45h.33l.44-.92c.05-.12.08-.18.12-.18a5.37,5.37,0,0,1,.89,1.18c0,.12-.07.12-.13.12h-1.65v1.6h.6l.55-1.08c.06-.12.09-.17.13-.17a5.82,5.82,0,0,1,1,1.33c0,.11-.08.11-.14.11h-4.27v.46c0,.26,0,.35-.16.37l-.86.1c-.19,0-.19-.1-.19-.31V239a9.78,9.78,0,0,1-.94,1.28v0c.18-.53.38-1.15.66-2.24h-1.07v2.74l1.19-.32v.06c-.41.48-.49.56-1.19,1.28v5.52c0,.68,0,1.64-1.27,1.64-.18,0-.22-.12-.22-.33,0-.94,0-1.36-1.14-1.87v-.05c.18,0,1,.07,1.12.07s.27-.23.27-.66V243a8.61,8.61,0,0,1-1.11.88c-.17-1.1-.24-1.47-.33-2.35l1.44-.39v-3.07Zm5.8,5.12c-.22,2-.66,4.34-3.1,5.75v0c.36-.42,1.54-1.76,1.78-5.7h-1.21l0-.18h3.11l.32-.65c0-.1.13-.24.16-.24a7.33,7.33,0,0,1,1.1,1.41c0,.14-.1.21-.38.33l-.13.53h.5l.42-.82c.08-.17.11-.22.16-.22a3.79,3.79,0,0,1,1,1.38c0,.21-.27.35-.4.41a10.06,10.06,0,0,1-.62,3.3,1.3,1.3,0,0,1-1.19.55c-.2,0-.25-.12-.25-.31s0-.48,0-.61a1.5,1.5,0,0,0-.92-1.31v0c.29,0,1.06.09,1.2.09s.36-.19.54-2.25h-.54c0,.22-.29,1.26-.33,1.34s-.09.08-.17.07l-.86-.15c-.11,0-.17-.05-.17-.14s.16-.66.18-.75c.14-.58.29-1.32.36-1.75Zm-.65-6.56v1.45h.91v-1.45Zm0,1.65v1.45h.91v-1.45Zm0,1.65v1.6h.91v-1.6Z"/><path d="M237.8,236.26v-2.17a9.42,9.42,0,0,1,.95.15c.38.08.55.14.55.21s-.15.17-.29.22v1.59h1v-2.1l1.37.21c.06,0,.15,0,.15.14s-.19.19-.32.23v1.52h.27l.49-1a1.17,1.17,0,0,1,.15-.25,9.65,9.65,0,0,1,1.06,1.26c0,.1,0,.16-.1.16h-1.87v2.95c0,.25,0,.32-.15.33l-.84.1c-.2,0-.21,0-.21-.3v-.6h-3.1v.39c0,.29,0,.41-.18.43l-.82.08c-.14,0-.2,0-.2-.26v-3.12H233.8l-.06-.17h1.92v-2.08a12.79,12.79,0,0,1,1.38.22c.07,0,.17.06.17.14s-.08.16-.35.24v1.48Zm3.67,4.19.34-.64c.08-.16.15-.27.24-.27a6.22,6.22,0,0,1,1.21,1.82c0,.27-.23.26-.58.23a6.77,6.77,0,0,1-1.21.67c.16.19.59.67.59.89a.68.68,0,0,1-.36.49v3a1.87,1.87,0,0,1-.1.77,1.31,1.31,0,0,1-1.17.58c-.3,0-.3-.12-.3-.69a1.53,1.53,0,0,0-.89-1.59v0a8.74,8.74,0,0,0,1,.1c.14,0,.2-.1.2-.4v-2.69h-1.35v5.81c0,.27,0,.32-.25.34l-.84.09c-.18,0-.19,0-.19-.3v-5.94h-1.13v4.91c0,.23,0,.33-.19.34l-.87.08c-.19,0-.21,0-.21-.29V242.1a11.9,11.9,0,0,1,1.35.41h1.05v-1.88h-2.58c0,.24.07.62.07,1,0,.8-.25,1.71-.89,1.71-.43,0-.66-.46-.66-1a.8.8,0,0,1,.21-.58,4.47,4.47,0,0,0,1-2.48h0c.15.71.18.91.22,1.17Zm-4.61-4v2.31h.94v-2.31Zm2.15,0v2.31h1v-2.31Zm.07,4.2v1.88h1.29l.18-.38c.18-.38.23-.5.29-.5s.26.2.35.29c.17-.62.27-1.07.31-1.29Z"/><path d="M251.3,236.91v-1.37h-3.47l-.06-.2h6.89l.53-1.15c.05-.1.09-.19.13-.19a7.16,7.16,0,0,1,1.16,1.41c0,.13-.07.13-.13.13h-3.73v1.37h2.53l.34-.67c0-.06.08-.16.14-.16a5.85,5.85,0,0,1,1.3,1.84c0,.26-.37.27-.73.3a6.79,6.79,0,0,1-1.4,1.3l0,0a16.69,16.69,0,0,0,.44-2.4h-2.59v3.34c0,.23,0,.44-.21.45l-.95.08c-.16,0-.16-.06-.16-.33v-3.54h-2.71a9,9,0,0,1,.12,1.41c0,.86-.26,1.73-.89,1.73-.44,0-.66-.56-.66-1.11a.81.81,0,0,1,.19-.54,4.76,4.76,0,0,0,1-2.52h0c.07.42.09.53.15.85Zm2.91,4.44.33-.74c.06-.14.09-.21.15-.21a5.18,5.18,0,0,1,1.23,1.52c0,.19-.14.29-.41.43v3.09c0,.2,0,.45-.21.47l-.82.08c-.23,0-.23,0-.23-.55H252.5v1c0,.41.14.43.67.43h1.62c.48,0,.59,0,.87-.43a11.44,11.44,0,0,0,1-2.16h0c0,.12-.31,2-.31,2.05s0,.11.16.29a1.11,1.11,0,0,1,.2.69c0,1.29-1,1.29-1.73,1.29h-2.1c-1.23,0-1.67-.14-1.67-1.66v-1.54h-1.57v1.16c0,.27,0,.43-.22.46l-.81.1c-.22,0-.22-.15-.22-.36v-6c.41.14.94.34,1.36.5Zm-3.39-1.7v.18h-1.9l0-.18Zm0-1.43v.18h-1.69l0-.18Zm-1.14,3.32v1.73h1.57v-1.73Zm0,1.92v1.79h1.57v-1.79Zm4.57-.19v-1.73H252.5v1.73Zm0,2v-1.79H252.5v1.79Zm.51-7v.18h-1.62l0-.18Zm.27,1.43v.18h-1.89l0-.18Z"/><path d="M263.32,237.44l.49-1.12c.07-.14.09-.19.13-.19a6.35,6.35,0,0,1,1.1,1.38c0,.12-.07.12-.13.12h-4.18l0-.19Zm5.19,1.76.6-1.26c.05-.12.08-.18.12-.18a7.36,7.36,0,0,1,1.17,1.52c0,.11-.07.11-.13.11h-2.33v3.49h.36l.37-.86c.09-.19.12-.26.17-.26a8.1,8.1,0,0,1,1.26,1.57c0,.21-.22.34-.48.47v4.68c0,.28,0,.28-.2.29l-.91.1c-.15,0-.16-.07-.16-.29v-.7h-2v.65c0,.24,0,.32-.17.34l-.88.08c-.15,0-.21,0-.21-.27v-6.31a10.93,10.93,0,0,1,1.32.51h.2v-3.49H264.6a.38.38,0,0,1,.1.2c0,.11-.07.11-.14.11h-3.39l0-.18H263l.5-1.13c.06-.15.08-.2.12-.2a9.24,9.24,0,0,1,.87,1h2.19v-2.86a14.37,14.37,0,0,1-2.2.17v0a15.22,15.22,0,0,0,4.13-2.43c1.16,1.06,1.33,1.22,1.46,1.36a.34.34,0,0,1,.11.24c0,.13-.07.13-.12.13a.68.68,0,0,1-.24-.08,9.83,9.83,0,0,1-1.86.46v3.06ZM263,235.38l.5-1.06c.07-.14.09-.18.14-.18a5.79,5.79,0,0,1,1,1.32c0,.11-.08.11-.14.11h-3.35l0-.19Zm-.08,6.17.5-1.15c.05-.11.08-.17.12-.17a6.53,6.53,0,0,1,1.16,1.39c0,.13-.08.13-.14.13h-3.37l0-.2Zm.34,2.17.38-.74c.15-.3.15-.3.19-.3a6.52,6.52,0,0,1,1.1,1.44c0,.17-.05.2-.42.46v3.7c0,.17,0,.22-.15.24l-.81.09c-.14,0-.2,0-.2-.25v-1h-.95v1c0,.22,0,.32-.14.34l-.89.08c-.18,0-.18,0-.18-.21v-5.3c.13,0,1.24.42,1.32.47Zm-.86.17v3.3h.95v-3.3Zm4-.82v4.61h2v-4.61Z"/><path d="M278.85,248.09c.95-.42,3.38-1.48,3.38-6.46,0-2.3-.67-5.69-3.05-5.68a4.25,4.25,0,0,1,.51,1.87c0,1.62-1.14,9.26-3.31,9.26-.71,0-.82-.68-.95-1.48a5.7,5.7,0,0,0-.49-1.66,4.09,4.09,0,0,1-.41-1.84c0-3.78,2.48-6.72,4.93-6.72,2.2,0,4.16,2.33,4.16,6.65,0,2.87-1,4.61-2.06,5.27a5.89,5.89,0,0,1-2.71.85Zm-3.34-4.92a3.61,3.61,0,0,0,.16,1.3c.13.35.39.7.6.7.82,0,2.77-5,2.8-9.19C275.89,236.66,275.51,241.92,275.51,243.17Z"/><path d="M33.12,273.33a15.91,15.91,0,0,0,4.39-6.7A6.82,6.82,0,0,0,35,264,6.93,6.93,0,0,1,38,265a17.4,17.4,0,0,0,.79-3.57.77.77,0,0,0-.6-.85,1,1,0,0,1,.84-.69c.66,0,1.5,1.19,1.5,1.55,0,.16,0,.2-.29.55-.66,2.45-.88,3.1-1.17,3.95a3.45,3.45,0,0,1,1,2.34c0,1-.47,1.41-.81,1.41s-.43-.18-.57-.56c-.26-.71-.29-.79-.43-1.12a10.19,10.19,0,0,1-5.13,5.34Z"/><path d="M46.33,265.9c.44,0,5.25-.18,5.66-.21.12,0,.67-.1.78-.1s1.26.2,1.26.87a.87.87,0,0,1-.49.73,2.55,2.55,0,0,1-1.19.18c-4.76,0-5.29,0-5.72.16a5.25,5.25,0,0,1-.77.35,2.36,2.36,0,0,1-1.2-2.11,1.41,1.41,0,0,1,.31-.9A1.21,1.21,0,0,0,46.33,265.9Z"/><path d="M57.54,272.67a13.84,13.84,0,0,0,2.5-7.86c0-.3,0-1-.74-.94.42-.58.61-.81.91-.81a1.68,1.68,0,0,1,1.27,1.19,1.08,1.08,0,0,1-.12.45c-.3,3.66-1.23,6-3.82,8Zm10.29-10.23a16,16,0,0,1-3.62,7.75,3.13,3.13,0,0,0-.68,1c-.09.28-.13.41-.31.41s-1-1.69-1-2c0-.13.11-.69.13-.8.08-.56.08-2,.08-2.58s0-3.33-.1-3.74c-.15-.72-.49-.72-.68-.72.41-.6.56-.82.85-.82.61,0,1.28.94,1.28,1.33,0,.11-.19.56-.21.67-.11.43-.1,5.44-.09,5.49a16,16,0,0,0,4.36-6Z"/><path d="M72.49,262a14.79,14.79,0,0,0,1.5-.43c1.24-.35,2.47-.64,3.72-.88a1.39,1.39,0,0,0,.78-.39c.06,0,.1-.08.15-.08s1.43.53,1.43,1.46c0,.3-.14.72-.47.72a1.89,1.89,0,0,1-.6-.16,3.43,3.43,0,0,0-1-.16,2,2,0,0,0-1.85,1.52,14.82,14.82,0,0,0-.61,4.51c0,2.81.86,3.13,2,3.53a1,1,0,0,1,.76,1.07c0,.81-.25,1.1-.59,1.1a3.07,3.07,0,0,1-1.34-.43c-1.19-.67-1.77-1.84-1.77-4.48,0-2.83.79-5.49,2-6.64a8.73,8.73,0,0,0-3.09,1.33c-.45.3-.53.33-.7.33-.67,0-1.11-.91-1.11-1.84a2.39,2.39,0,0,1,.15-.93C71.9,261.51,72,262,72.49,262Zm6.89,4.58c0,.4-.17.75-.41.75s-.33-.19-.53-.8a3.91,3.91,0,0,0-1-1.55A1.81,1.81,0,0,1,79.38,266.54Zm-.5-3.15c1,0,1.56.57,1.56,1.32,0,.45-.25.69-.41.69s-.2-.06-.51-.65a3,3,0,0,0-1.25-1.3A4.34,4.34,0,0,1,78.88,263.39Z"/><path d="M86.93,266.83a28.57,28.57,0,0,0-.54,4.21,3.24,3.24,0,0,0,.22,1.18,2.31,2.31,0,0,1,.07.46.64.64,0,0,1-.63.69c-1.16,0-1.27-3.33-1.27-4.85a35.52,35.52,0,0,1,.61-6.16,12.72,12.72,0,0,0,.22-2,6.75,6.75,0,0,0-.06-.88,4.88,4.88,0,0,1,1.14,2.73,5.18,5.18,0,0,1-.26,1.41,18.39,18.39,0,0,0-.69,5c0,.56.09.64.19.64s.13-.06.24-.37c.24-.67.7-2,.72-2Zm4.62-4.49a1.27,1.27,0,0,0,.8.29.5.5,0,0,1,.4.56c0,1.06-1.39,1.59-1.7,1.7.06,2.4.17,3.54.24,4.26a2.68,2.68,0,0,1,1.78,2.35c0,.53-.27.9-.56.9s-.29-.12-.67-.68a3.75,3.75,0,0,0-.5-.64c.09,2-1.16,2.12-1.55,2.12-.21,0-1.73-.11-1.94-1.3,0-.19-.22-1.25-.22-1.49,0-1.63,1.66-1.63,2.13-1.63.25,0,.38,0,.53,0-.05-1.41-.08-2.48-.1-3.66a4.16,4.16,0,0,1-.5,0c-1.07,0-1.42-1.13-1.69-2.05a1.45,1.45,0,0,0,1.2.63,2.93,2.93,0,0,0,1-.22c0-.42,0-2.65-.06-2.82a.53.53,0,0,0-.46-.42c.14-.38.37-.7.69-.7a1.25,1.25,0,0,1,1,1.12c0,.13-.07.65-.09.8a11.94,11.94,0,0,0-.18,1.57c.31-.21.51-.36.51-.56a.4.4,0,0,0,0-.15Zm-2.23,7.85c-.2,0-1,0-1,.65s.41.72.77.72c.9,0,1.26-.33,1.25-1.24A4.56,4.56,0,0,0,89.32,270.19Z"/><path d="M100.91,269.21l0-.19h4l.51-.95c.06-.11.12-.19.15-.19a7,7,0,0,1,1.08,1.24c0,.09-.08.09-.13.09h-1.55v2.19c0,.39,0,.45.32.45s.56,0,.71-.29a12.45,12.45,0,0,0,.68-1.72h0c0,.13-.13,1.6-.13,1.73a.65.65,0,0,0,.1.37,1.61,1.61,0,0,1,.18.72c0,.75-.39,1-1.53,1-1.44,0-1.61-.13-1.61-1.38v-3.07h-.33c-.46,3.7-2.65,4.43-3.55,4.74v-.05a6.12,6.12,0,0,0,1.35-1.68l-.1,0h-2.1v1.31c0,.19,0,.22-.19.24l-.81.1c-.2,0-.2-.05-.2-.31v-9a7.7,7.7,0,0,1-.78,1l0,0a35.26,35.26,0,0,0,1.54-6.46,7.76,7.76,0,0,1,1.56.71c0,.06-.08.13-.25.16l-.06.19c.57.11,1.72.61,1.72,1.75a.8.8,0,0,1-.67.89c-.26,0-.3-.17-.38-.53a11.38,11.38,0,0,0-.73-1.92,24,24,0,0,1-1.15,2.88h.71l.48-.94c0-.11.09-.19.13-.19a6.22,6.22,0,0,1,.86,1.21c0,.1-.08.1-.14.1H98.39c-.1.19-.22.42-.48.85a4,4,0,0,1,1.08.42h.63l.28-.56c.07-.15.11-.24.19-.24a8.92,8.92,0,0,1,.77.86c.17.22.22.27.24.38h.46v-1.44l1.13.15c.21.05.24.05.24.13s0,.09-.21.19v1h0l.35-.7c.07-.11.1-.19.13-.19a4.77,4.77,0,0,1,.58,1,.12.12,0,0,1,0,.08h.4v-1.62c.13,0,1.42.15,1.42.32s-.06.12-.21.16v1.14l.43-.91c0-.08.08-.21.12-.21a6.53,6.53,0,0,1,.77,1.22c0,.09-.09.09-.14.09h-1.18v2.1h.09l.46-.9c0-.09.09-.19.12-.19a5.32,5.32,0,0,1,.73,1.19c0,.09-.08.09-.14.09h-3.4l0-.19h1v-2.1h-.64l0-.17h-.78v1.45l1.34-.14v.06c-1.88,1.47-2.09,1.65-2.71,2.05-.3-1-.4-1.52-.47-1.84a3.93,3.93,0,0,0,.67,0v-1.56H101a1.8,1.8,0,0,1-.2.19v3.26c0,.21,0,.29-.09.31l-.86.08c-.18,0-.18,0-.18-.56h-.75v1.71h.89l.36-.77c0-.11.09-.19.12-.19a6.81,6.81,0,0,1,.85,1.06c0,.09-.09.09-.13.09H98.91V272h.83l.4-.81c.06-.11.09-.19.12-.19a4.69,4.69,0,0,1,.9,1.08,9,9,0,0,0,.72-2.91Zm-2-4.35v1.65h.75v-1.65Zm.75,1.82h-.75v1.73h.75Zm5.17-3.46.52-1.15c.05-.11.11-.21.14-.21a7.73,7.73,0,0,1,1.08,1.44c0,.1-.08.1-.13.1h-5.27l0-.18h1.69v-2h-1.35l0-.19h1.4v-1.88c.16,0,1.53.12,1.53.28s0,.09-.23.19V261h.39l.55-1.14c0-.06.09-.21.13-.21a7.33,7.33,0,0,1,1,1.43c0,.11-.08.11-.13.11h-2v2Z"/><path d="M117.38,267.87l.42-.9c.13-.27.17-.27.2-.27a5.23,5.23,0,0,1,1.3,1.53c0,.24-.36.41-.49.45v4.69c0,.31,0,.42-.27.45l-.75.1c-.29,0-.3,0-.3-.28v-.84h-4.07v.62c0,.32,0,.37-.25.4l-.77.1c-.29,0-.3-.07-.3-.37v-6.29l1.41.61h1.24v-3.36h-4l0-.18h4.07v-2.45a32.55,32.55,0,0,1-4,.24v-.05a19.53,19.53,0,0,0,6.55-3,22.39,22.39,0,0,1,1.57,1.94c0,.11-.12.11-.15.11a1,1,0,0,1-.31,0,17.31,17.31,0,0,1-2.37.57v2.66h2.25L119,263c.09-.18.1-.21.12-.21a7.16,7.16,0,0,1,1.16,1.58c0,.12-.07.12-.13.12h-4.06v3.36Zm-4,.19v4.56h4.07v-4.56Z"/><path d="M126.79,266.49c-.06.3-.33,1.65-.36,1.86a11.56,11.56,0,0,0-.21,2,4.69,4.69,0,0,0,.15,1.3,3.69,3.69,0,0,1,.16.89c0,.34-.28.82-.56.82-.66,0-1.17-1.91-1.17-4.58a53.44,53.44,0,0,1,.5-6.08,16.3,16.3,0,0,0,.09-1.73,4.3,4.3,0,0,0-.23-1.5,5.64,5.64,0,0,1,1.27,3.42,20.07,20.07,0,0,1-.5,3.36,12.54,12.54,0,0,0-.24,2.4c0,.44,0,.56.08.56s.21-.41.27-.6c.21-.61.51-1.57.72-2.18Zm1.81,2.79c0,1.53.85,1.53,1.15,1.53a6.11,6.11,0,0,0,1.84-.4,2.37,2.37,0,0,1,.75-.19c.28,0,.66.16.66.88a1.38,1.38,0,0,1-.51,1.17,3.38,3.38,0,0,1-2,.57,1.8,1.8,0,0,1-1.78-.91,3.43,3.43,0,0,1-.48-1.74,4.13,4.13,0,0,1,.44-1.8A5,5,0,0,0,128.6,269.28Zm1.08-7.83a2.38,2.38,0,0,0,.95-.32c.83-.48.86-.5,1-.5a1,1,0,0,1,.84,1c0,1.17-1.64,1.31-2,1.31s-1.16,0-1.54-2A1,1,0,0,0,129.68,261.45Z"/><path d="M141.16,260.62a.5.5,0,0,0,.3.11l.39-.05c.35,0,.52.46.52.77,0,.7-1.32,1.6-2,2-.15.58-.39,1.54-.49,2,.72-1.16,1.95-3,3.8-3a2.31,2.31,0,0,1,2,2c0,.4-.21,1.09-.61,1.09-.19,0-.35-.16-.66-.47a1,1,0,0,0-.78-.38c-.61,0-.84.48-.84,1.25,0,.49.12,1.78.35,3.73a3,3,0,0,1,2.05,2.43c0,.3-.1,1.19-.6,1.19-.22,0-.27-.08-.77-.85a3.48,3.48,0,0,0-.56-.69c0,.86-.12,2-1.45,2-.51,0-2-.09-2-2.16s1.55-2.16,2.21-2.14c0-.5,0-1.11,0-1.65,0-2.72,1.18-3.22,1.42-3.31.44-.2.58-.24.58-.52a1.19,1.19,0,0,0-1.2-.83c-.2,0-1.66.08-2.88,3a36.5,36.5,0,0,0-1.43,4.4c-.11.4-.42.74-.66.74s-.54-.77-.54-1.6c0-.26,0-.31.29-.75a16.82,16.82,0,0,0,1.69-4.92,2.25,2.25,0,0,1-.85.19c-1,0-1.16-1.92-1.21-2.59.27.61.51.88,1.08.88a3.07,3.07,0,0,0,1.33-.37,12,12,0,0,0,.18-1.84c0-.46-.12-.69-.64-.72.29-.3.52-.54.86-.54s.91.3.91,1.21a6.18,6.18,0,0,1-.16,1.3c.22-.14.53-.35.53-.54s-.06-.18-.16-.28Zm.08,10.21c-.24,0-.87,0-.87.53s.76.8.94.8c.82,0,.8-.76.79-1.27A5,5,0,0,0,141.24,270.83Z"/><path d="M154.19,265.51c2.09,0,2.63,2.45,2.63,3.94,0,2.69-1.33,4-3.1,4a2,2,0,0,1-2.11-2.06c0-.87.44-1.78,1.31-1.78.7,0,1.15.59,1.15,1.44a1.39,1.39,0,0,1-.13.67c.47-.11,1.64-.4,1.64-3,0-.89-.16-2.67-1.59-2.67-.88,0-1.63.7-2.43,3a11.56,11.56,0,0,0-.49,1.87c0,.24-.15.64-.54.64-.61,0-.69-1-.69-1.57s.07-.74.69-1.75c.15-.27,2.51-4.43,3.51-6.48a.77.77,0,0,0,.1-.35c0-.06,0-.13-.08-.13a3,3,0,0,0-.64.67c-.49.64-.66.76-1,.76-.72,0-1.08-1.12-1.15-1.7a1,1,0,0,0,.56.27c.45,0,1.43-.86,1.92-1.28s.52-.45.69-.45,1.22.24,1.22,1.6c0,.48-.12.6-.48,1a18.8,18.8,0,0,0-2.06,3.65A2.18,2.18,0,0,1,154.19,265.51Zm-1,5.65c0-.25-.13-.59-.44-.59s-.35.34-.35.48a.57.57,0,0,0,.56.58A.58.58,0,0,0,153.15,271.16Z"/><path d="M164.58,271c0,1.33-.7,2.43-1.58,2.43s-1.59-1.1-1.59-2.43.72-2.44,1.59-2.44S164.58,269.63,164.58,271Zm-2.75,0c0,1,.52,1.79,1.17,1.79s1.16-.82,1.16-1.79-.52-1.79-1.16-1.79S161.83,270,161.83,271Z"/><path d="M177,262.7l.61-1.33c.06-.13.09-.19.12-.19a9.92,9.92,0,0,1,1.2,1.58c0,.13-.07.13-.13.13h-4v1.63h1.41l.41-.86c.08-.18.1-.19.13-.19A6.69,6.69,0,0,1,178,265c0,.14-.05.17-.42.48V269c0,.25,0,.3-.21.32l-.91.08c-.18,0-.18-.07-.18-.42h-1.49v1.87h1.56l.52-1.25c0-.12.08-.19.13-.19a7.58,7.58,0,0,1,1.15,1.52c0,.11-.07.11-.13.11h-3.23v2.23h2.3l.6-1.41c0-.08.09-.19.13-.19a14.26,14.26,0,0,1,1.21,1.66c0,.12-.08.12-.14.12h-9.44l0-.18h4.1V271h-3.17l-.06-.19h3.23v-1.87h-1.4v.64c0,.19,0,.24-.17.26l-.93.08c-.2,0-.21,0-.21-.32v-5.67l1.42.59h1.29v-1.63h-3.89l0-.19h3.93v-1.51l-3.77.15v-.07A22,22,0,0,0,176,259a13.72,13.72,0,0,1,1.59,1.71c0,.13-.11.13-.15.13l-.25-.05-.88.16c-.5.08-1,.13-1.59.18v1.6Zm-3.48,3.89v-1.88h-1.4v1.88Zm0,2.16v-2h-1.4v2Zm1.28-4v1.88h1.49v-1.88Zm0,2.05v2h1.49v-2Z"/><path d="M190.47,261.18l.62-1.2c0-.1.09-.2.13-.2a8.47,8.47,0,0,1,1.19,1.46c0,.11-.07.11-.13.11H190v2.29h.63l.59-1.18c0-.1.09-.21.12-.21a8.12,8.12,0,0,1,1.12,1.47c0,.11-.07.11-.13.11H190v2.64c0,.24,0,.45-.24.48L189,267c-.21,0-.28,0-.28-.3v-.61h-1.4v.58c0,.24,0,.41-.2.43l-.77.08c-.19,0-.27,0-.27-.24v-3.14H185v2.23a18.94,18.94,0,0,1-.31,4.11,6.41,6.41,0,0,1-2,3.72v-.05c.79-1.57,1.06-3.33,1.06-7.61v-5.57l1.42.52h2v-2.1a13.14,13.14,0,0,1,1.49.26.11.11,0,0,1,.09.12c0,.1-.11.16-.29.24v1.48ZM185.2,268l0-.17h4.23l.39-.63c.08-.14.11-.19.16-.19a8.6,8.6,0,0,1,1,1.28c.22.32.26.37.26.5s-.08.24-.69.29a9.19,9.19,0,0,1-1.42,2,7.51,7.51,0,0,0,3.46.53v0a2.55,2.55,0,0,0-.64,1.62c0,.32,0,.53-.29.53A5.46,5.46,0,0,1,188,272.2a8.06,8.06,0,0,1-4.38,1.73l0,0a10.15,10.15,0,0,0,3.7-2.61,8,8,0,0,1-1.13-3.24Zm-.21-6.69v2.29h1.13v-2.29Zm1.32,6.69a5.38,5.38,0,0,0,1.69,2.44,14.19,14.19,0,0,0,1-1.54l.46-.9Zm1.05-6.69v2.29h1.4v-2.29Zm0,2.48v2.1h1.4v-2.1Z"/><path d="M201,273.09c.95-.42,3.38-1.48,3.38-6.46,0-2.3-.67-5.69-3.06-5.68a4.11,4.11,0,0,1,.51,1.87c0,1.62-1.13,9.26-3.31,9.26-.7,0-.81-.68-.94-1.48a5.7,5.7,0,0,0-.49-1.66,4,4,0,0,1-.41-1.84c0-3.78,2.48-6.72,4.92-6.72,2.21,0,4.17,2.33,4.17,6.65,0,2.87-1,4.61-2.06,5.27a5.89,5.89,0,0,1-2.71.85Zm-3.34-4.92a3.38,3.38,0,0,0,.16,1.3c.13.35.39.7.6.7.82,0,2.77-5,2.8-9.19C198.05,261.66,197.68,266.92,197.68,268.17Z"/><path d="M209.93,263.05l-.05-.18h1.38v-3.69c.88.11,1.31.16,1.44.2s.12.05.12.13-.18.15-.31.18v3.18h0l.4-.91c.05-.11.08-.19.12-.19a4.55,4.55,0,0,1,.64.7,29.67,29.67,0,0,0,.54-3.36l1.45.58c.07,0,.15.06.15.14s-.06.11-.3.11c-.22.71-.3,1-.46,1.43l.07.06h.9c.08-.51.19-1.66.21-2.27.24.08,1.33.4,1.55.5,0,0,.13.06.13.12s-.19.12-.28.12c-.14.17-.76,1-.89,1.18a3.13,3.13,0,0,1-.32.35h1.21l.51-1c0-.09.09-.17.14-.17a5.27,5.27,0,0,1,.91,1.28c0,.11-.06.11-.13.11h-1.91v1.45h.34l.46-.88c.07-.12.11-.17.14-.17a5,5,0,0,1,.88,1.12c0,.13-.07.13-.13.13h-1.69v1.45h.34l.43-.92c.06-.12.09-.18.13-.18a5.34,5.34,0,0,1,.88,1.18c0,.12-.06.12-.12.12h-1.66v1.6h.61l.55-1.08c.06-.12.08-.17.12-.17a5.54,5.54,0,0,1,1,1.33c0,.11-.07.11-.13.11h-4.27v.46c0,.26,0,.35-.17.37l-.85.1c-.2,0-.2-.1-.2-.31V264a9.5,9.5,0,0,1-.93,1.28v0c.17-.53.38-1.15.65-2.24h-1.06v2.74l1.19-.32v.06c-.41.48-.49.56-1.19,1.28v5.52c0,.68,0,1.64-1.27,1.64-.19,0-.23-.12-.23-.33,0-.94,0-1.36-1.13-1.87v0c.17,0,1,.07,1.12.07s.26-.23.26-.66V268a8.09,8.09,0,0,1-1.1.88c-.18-1.1-.24-1.47-.34-2.35l1.44-.39v-3.07Zm5.8,5.12c-.22,1.95-.66,4.34-3.11,5.75v-.05c.37-.42,1.54-1.76,1.78-5.7h-1.2l-.06-.18h3.12l.32-.65c.05-.1.12-.24.16-.24a7.33,7.33,0,0,1,1.1,1.41c0,.14-.11.21-.39.33l-.12.53h.5l.41-.82c.09-.17.12-.22.17-.22a3.91,3.91,0,0,1,1,1.38c0,.21-.27.35-.41.41a10,10,0,0,1-.61,3.3,1.31,1.31,0,0,1-1.2.55c-.19,0-.25-.12-.25-.31s0-.48,0-.61a1.49,1.49,0,0,0-.91-1.31v0c.29,0,1.06.09,1.2.09s.36-.19.54-2.25h-.54c-.05.22-.3,1.26-.34,1.34s-.08.08-.16.07l-.87-.15c-.1,0-.16-.05-.16-.14s.15-.66.17-.75c.15-.58.29-1.32.37-1.75Zm-.65-6.56v1.45H216v-1.45Zm0,1.65v1.45H216v-1.45Zm0,1.65v1.6H216v-1.6Z"/><path d="M227.57,261.26v-2.17c.36.05.59.07,1,.15s.55.14.55.21-.16.17-.29.22v1.59h.94v-2.1l1.38.21a.15.15,0,0,1,.14.14c0,.11-.18.19-.31.23v1.52h.26l.5-1a.84.84,0,0,1,.15-.25,9.65,9.65,0,0,1,1.06,1.26c0,.1,0,.16-.11.16h-1.86v2.95c0,.25,0,.32-.15.33l-.85.1c-.2,0-.21,0-.21-.3v-.6h-3.1v.39c0,.29,0,.41-.17.43l-.83.08c-.13,0-.19,0-.19-.26v-3.12h-1.87l-.05-.17h1.92v-2.08a12.79,12.79,0,0,1,1.38.22c.06,0,.17.06.17.14s-.09.16-.36.24v1.48Zm3.66,4.19.35-.64c.08-.16.14-.27.24-.27a6.4,6.4,0,0,1,1.2,1.82c0,.27-.23.26-.57.23a6.89,6.89,0,0,1-1.22.67c.17.19.6.67.6.89a.67.67,0,0,1-.37.49v3a2.11,2.11,0,0,1-.09.77,1.32,1.32,0,0,1-1.18.58c-.29,0-.29-.12-.29-.69a1.53,1.53,0,0,0-.89-1.59v-.05a8.57,8.57,0,0,0,1,.1c.15,0,.2-.1.2-.4v-2.69h-1.34v5.81c0,.27,0,.32-.25.34l-.84.09c-.18,0-.19,0-.19-.3v-5.94h-1.13v4.91c0,.23,0,.33-.19.34l-.88.08c-.18,0-.2,0-.2-.29V267.1a11.9,11.9,0,0,1,1.35.41h1v-1.88H225c0,.24.06.62.06,1,0,.8-.25,1.71-.88,1.71-.43,0-.66-.46-.66-1a.76.76,0,0,1,.21-.58,4.62,4.62,0,0,0,1-2.48h0c.15.71.18.91.22,1.17Zm-4.61-4v2.31h.95v-2.31Zm2.16,0v2.31h.94v-2.31Zm.07,4.2v1.88h1.29l.18-.38c.17-.38.23-.5.29-.5s.26.2.34.29a13,13,0,0,0,.31-1.29Z"/><path d="M241.07,261.91v-1.37h-3.48l-.05-.2h6.89l.53-1.15c0-.1.08-.19.13-.19a7.12,7.12,0,0,1,1.15,1.41c0,.13-.06.13-.12.13h-3.73v1.37h2.53l.33-.67c0-.06.09-.16.15-.16a6,6,0,0,1,1.3,1.84c0,.26-.38.27-.73.3a7.05,7.05,0,0,1-1.4,1.3l0,0a15.42,15.42,0,0,0,.44-2.4h-2.58v3.34c0,.23,0,.44-.22.45l-.94.08c-.16,0-.16-.06-.16-.33v-3.54h-2.72a7.77,7.77,0,0,1,.13,1.41c0,.86-.26,1.73-.9,1.73-.43,0-.65-.56-.65-1.11a.86.86,0,0,1,.18-.54,4.76,4.76,0,0,0,1-2.52h0c.07.42.09.53.14.85Zm2.9,4.44.34-.74c.06-.14.09-.21.14-.21a5,5,0,0,1,1.24,1.52c0,.19-.15.29-.42.43v3.09c0,.2,0,.45-.2.47l-.83.08c-.23,0-.23,0-.23-.55h-1.74v1c0,.41.13.43.66.43h1.63c.47,0,.59,0,.87-.43a12.1,12.1,0,0,0,1-2.16h0c0,.12-.31,2-.31,2.05s0,.11.15.29a1,1,0,0,1,.2.69c0,1.29-1,1.29-1.73,1.29h-2.1c-1.23,0-1.66-.14-1.66-1.66v-1.54h-1.57v1.16c0,.27,0,.43-.22.46l-.81.1c-.22,0-.22-.15-.22-.36v-5.95l1.36.5Zm-3.38-1.7v.18h-1.9l-.06-.18Zm0-1.43v.18h-1.7l0-.18Zm-1.14,3.32v1.73H241v-1.73Zm0,1.92v1.79H241v-1.79Zm4.56-.19v-1.73h-1.74v1.73Zm0,2v-1.79h-1.74v1.79Zm.51-7v.18h-1.61l0-.18Zm.28,1.43v.18h-1.89l0-.18Z"/><path d="M253.09,262.44l.49-1.12c.06-.14.08-.19.12-.19a6.09,6.09,0,0,1,1.11,1.38c0,.12-.08.12-.14.12H250.5l0-.19Zm5.18,1.76.61-1.26c.05-.12.08-.18.12-.18a7.73,7.73,0,0,1,1.17,1.52c0,.11-.08.11-.14.11h-2.32v3.49h.35l.38-.86c.08-.19.11-.26.17-.26a8.1,8.1,0,0,1,1.26,1.57c0,.21-.22.34-.48.47v4.68c0,.28,0,.28-.2.29l-.92.1c-.14,0-.15-.07-.15-.29v-.7h-1.95v.65c0,.24,0,.32-.18.34l-.87.08c-.16,0-.22,0-.22-.27v-6.31a10.32,10.32,0,0,1,1.32.51h.21v-3.49h-2.06a.46.46,0,0,1,.09.2c0,.11-.07.11-.13.11h-3.39l-.05-.18h1.86l.5-1.13c.06-.15.08-.2.12-.2a10.49,10.49,0,0,1,.87,1h2.19v-2.86a14.47,14.47,0,0,1-2.2.17v-.05a15.37,15.37,0,0,0,4.13-2.43c1.15,1.06,1.33,1.22,1.45,1.36s.12.16.12.24-.08.13-.13.13a.85.85,0,0,1-.24-.08,9.62,9.62,0,0,1-1.85.46v3.06Zm-5.52-3.82.5-1.06c.07-.14.09-.18.13-.18a5.79,5.79,0,0,1,1,1.32c0,.11-.07.11-.13.11h-3.35l-.05-.19Zm-.09,6.17.5-1.15c.06-.11.09-.17.13-.17a6.5,6.5,0,0,1,1.15,1.39c0,.13-.07.13-.13.13h-3.37l-.05-.2Zm.35,2.17.37-.74c.16-.3.16-.3.2-.3a6.8,6.8,0,0,1,1.09,1.44c0,.17,0,.2-.41.46v3.7c0,.17,0,.22-.15.24l-.81.09c-.15,0-.2,0-.2-.25v-1h-1v1c0,.22,0,.32-.13.34l-.9.08c-.17,0-.17,0-.17-.21v-5.3c.12,0,1.24.42,1.32.47Zm-.87.17v3.3h1v-3.3Zm4-.82v4.61h1.95v-4.61Z"/><path d="M266.87,262.51l-.05-.18h2.41v-3.19c.58.07.67.08,1.5.21.08,0,.15,0,.15.11s-.28.21-.34.21v2.66h1.25l.63-1.33c.05-.11.09-.19.12-.19a8.64,8.64,0,0,1,1.17,1.58c0,.12-.07.12-.14.12h-3.1a16.46,16.46,0,0,0,.56,4.14,27.25,27.25,0,0,0,1.21-3.06c.42.4,1.06,1,1.27,1.19a.34.34,0,0,1,.13.22c0,.1-.1.1-.15.1h-.18a7.69,7.69,0,0,1-2.2,1.81,9.2,9.2,0,0,0,2.72,4.38v.07a2.37,2.37,0,0,0-.66,1.61c-.09.53-.09.59-.2.59-.28,0-1.13-1.18-1.79-3a15.06,15.06,0,0,1-3.81,3.09c-.2-.65-.33-1.18-.61-2.32l1.21-.24v-3.52a11.54,11.54,0,0,1-1.45,1.54v4.43c0,.16,0,.29-.19.31l-.86.09c-.17,0-.23,0-.23-.26v-8.08a9.78,9.78,0,0,1-1.44,2.28l0-.05a43.75,43.75,0,0,0,2-8.68l1.57.61c.08,0,.16.1.16.14s0,.15-.34.18a27.39,27.39,0,0,1-.9,3.14l.51.11a.17.17,0,0,1,.14.14c0,.15-.26.23-.37.24V269a25.24,25.24,0,0,0,2.45-6.46Zm4.28,8a18,18,0,0,1-.83-6.06c0-.48,0-1,.07-1.68a16.59,16.59,0,0,1-1.19,2.91v5.22Z"/><path d="M285.31,261.61l.53-1.33c0-.08.1-.19.14-.19a11.14,11.14,0,0,1,1.16,1.58c0,.08-.05.11-.13.11h-5.39a19.57,19.57,0,0,1-.89,3c.06,0,.17.05.17.18s-.13.19-.31.24v8.18c0,.27,0,.38-.18.39l-.85.1c-.24,0-.25,0-.25-.35v-6.08a7.59,7.59,0,0,1-2,1.95v0a15.89,15.89,0,0,0,2-4V264.3a1.69,1.69,0,0,1,.32.11,20.75,20.75,0,0,0,.6-2.63H277.6l-.05-.17h2.73c.13-.87.2-1.46.28-2.52,1.7.5,1.82.57,1.82.68s-.23.19-.43.21c-.12.8-.2,1.16-.29,1.63Zm0,6.42.62-1.27c.06-.14.09-.17.12-.17a9.62,9.62,0,0,1,1.09,1.52c0,.11-.05.11-.1.11h-2.38v3.94c0,.8,0,1.77-1.45,1.77-.31,0-.32,0-.32-.64,0-1-.06-1.13-.95-1.61v-.05c.3,0,.77.05,1.08.05s.35-.13.35-.64v-2.82h-2.55l-.05-.19h2.6v-2c.12,0,.74.08.9.1a11.6,11.6,0,0,0,.56-2.34h-3.21l-.05-.17h3.2l.42-.85c.07-.15.11-.21.16-.21a6.22,6.22,0,0,1,1.39,1.95c0,.18-.06.2-.7.31a12.07,12.07,0,0,1-1.46,1.34c.22,0,.37.07.37.16s-.13.15-.29.19V268Z"/><path d="M298.58,261.4l.62-1.3c.08-.17.09-.19.13-.19a8.66,8.66,0,0,1,1.15,1.55c0,.12-.08.12-.14.12h-6.51v4.59c0,3.7-.5,5.79-2.5,7.68h0a8.56,8.56,0,0,0,.94-2.76,20.59,20.59,0,0,0,.3-3.12v-.65a18.46,18.46,0,0,1-1.15,2.16c-.07-.4-.38-2.16-.46-2.52l1.61-.46V264c-.05,1.13-.63,1.13-.71,1.13-.27,0-.33-.21-.34-.64a9.86,9.86,0,0,0-.38-2.94v0a2.7,2.7,0,0,1,1.42,2.28v-2.93a10.41,10.41,0,0,1,1.34.51h1.53v-2.29a13.37,13.37,0,0,1,1.5.26c.06,0,.13,0,.13.13s-.13.19-.32.22v1.68Zm-.82,2.88V268h.5l.56-1.17c.07-.16.1-.21.14-.21A8.7,8.7,0,0,1,300.1,268c0,.11-.07.11-.13.11h-2.21v5.14h1l.58-1.32c.06-.11.09-.19.13-.19a7.68,7.68,0,0,1,1.16,1.59c0,.09-.07.09-.13.09h-8l-.05-.17h1.94v-6.85c.25,0,1.14.19,1.47.28.09,0,.16.07.16.15s0,.13-.32.24v6.18h.68v-9H294l0-.19h4.61l.58-1.19c.09-.19.09-.2.13-.2a7.74,7.74,0,0,1,1.15,1.47c0,.11-.09.11-.14.11Z"/><path d="M308.1,271c0,1.33-.7,2.43-1.58,2.43s-1.59-1.1-1.59-2.43.72-2.44,1.59-2.44S308.1,269.63,308.1,271Zm-2.75,0c0,1,.52,1.79,1.17,1.79s1.16-.82,1.16-1.79-.52-1.79-1.16-1.79S305.35,270,305.35,271Z"/><line class="cls-1" x1="19.08" y1="21.34" x2="19.08" y2="321.72"/><path d="M19.08,13.21A4.07,4.07,0,1,1,15,17.27,4.07,4.07,0,0,1,19.08,13.21Z"/><path class="cls-1" d="M19.08,11.33a5.95,5.95,0,1,1-5.94,5.94A5.94,5.94,0,0,1,19.08,11.33Z"/><polygon class="cls-1" points="19.08 5.03 24.39 14.23 29.7 23.39 19.08 23.39 8.47 23.39 13.78 14.23 19.08 5.03"/><path d="M10.37,76.22c0,1.7,0,2.11.23,2.11a.7.7,0,0,0,.42-.14A1,1,0,0,1,11,79a4.61,4.61,0,0,0-1.75.65c-.07,0-.15-.11-.17-.25l0-.56c0-.15-.05-.2-.08-.15-.35.4-.7.78-1.06.78-1.11,0-1.86-1.6-1.86-3.55,0-2.54,1-4.16,2.32-4.16a1.63,1.63,0,0,1,.56.09.51.51,0,0,0,.09-.34v-2.3c0-.73,0-.92-.19-1.14l-.17-.18a.68.68,0,0,1,0-.54,7,7,0,0,0,1.49-1,.19.19,0,0,1,.17.13c0,.74,0,1.49,0,2.63ZM9.1,73.83A2.73,2.73,0,0,0,9,73.22c-.12-.38-.34-.67-.56-.67-.5,0-1,1-1,2.84,0,1.19.3,2.83,1.1,2.83A.57.57,0,0,0,9,78a1.23,1.23,0,0,0,.11-.69Z"/><path d="M7.58,250.41c-.22,0-.24,0-.24.32,0,1.35.47,2.67,1.37,2.67.28,0,.65-.11.91-.94.11,0,.25.11.25.42-.4,1.53-1.12,2.05-1.7,2.05-1.32,0-2-1.71-2-3.67,0-2.27.89-4,2.11-4,1,0,1.56,1.21,1.56,2.59,0,.35-.05.6-.36.6Zm.65-.79a.52.52,0,0,0,.4-.17.94.94,0,0,0,.06-.41c0-.59-.18-1-.51-1s-.76.72-.76,1.3c0,.25.13.27.45.27Z"/><line class="cls-2" x1="22.14" y1="44.58" x2="15.61" y2="44.58"/><line class="cls-2" x1="22.14" y1="75.81" x2="15.61" y2="75.81"/><line class="cls-2" x1="22.14" y1="110.99" x2="15.61" y2="110.99"/><line class="cls-2" x1="22.14" y1="146.18" x2="15.61" y2="146.18"/><line class="cls-2" x1="22.14" y1="181.36" x2="15.61" y2="181.36"/><line class="cls-2" x1="22.14" y1="216.54" x2="15.61" y2="216.54"/><line class="cls-2" x1="22.14" y1="251.72" x2="15.61" y2="251.72"/><line class="cls-2" x1="22.14" y1="251.72" x2="15.61" y2="251.72"/><line class="cls-2" x1="22.14" y1="251.72" x2="15.61" y2="251.72"/><line class="cls-2" x1="22.12" y1="286.53" x2="15.59" y2="286.53"/><line class="cls-2" x1="22.12" y1="321.72" x2="15.59" y2="321.72"/><line class="cls-3" x1="96.41" y1="321.72" x2="33.76" y2="321.72"/><line class="cls-3" x1="104.68" y1="41.68" x2="34.9" y2="41.68"/><circle cx="9.83" cy="44.58" r="1.68"/><path d="M37.08,309.3l-.26,1.77h.57l-.07.76h-.61L36.39,314H36l.31-2.19h-.63L35.35,314H35l.31-2.19h-.64l.08-.76h.67l.26-1.77H35l.08-.78h.68l.28-1.95h.41l-.28,1.95h.61l.28-1.95h.42l-.28,1.95h.58l-.05.78Zm-1,0-.26,1.77h.63l.25-1.77Z"/><path d="M43.05,310.3c0,1.93-.45,3.92-1.5,3.92s-1.5-2-1.5-3.92.44-3.92,1.5-3.92S43.05,308.44,43.05,310.3Zm-1.5,3.37c.49,0,.55-2.3.55-3.37s-.06-3.37-.55-3.37-.55,2.3-.55,3.37S41.05,313.67,41.55,313.67Z"/><path d="M47,311a1.18,1.18,0,0,1,.09.5,1.36,1.36,0,0,1-.08.47l-1.56.26a1,1,0,0,1-.1-.48,1.16,1.16,0,0,1,.1-.49Z"/><path d="M50.71,309.9c-.09,0-.1,0-.1.28V312c0,.67,0,1.41.46,1.41a.39.39,0,0,0,.27-.18.32.32,0,0,1,.09.31,1.15,1.15,0,0,1-.93.7c-.54,0-.73-.58-.73-1.37v-2.67c0-.25,0-.28-.12-.28h-.21a.37.37,0,0,1,0-.37,2.47,2.47,0,0,0,.53-.54,3.65,3.65,0,0,0,.49-.94.13.13,0,0,1,.19.07V309c0,.23,0,.24.12.24h.58a.44.44,0,0,1,0,.23.88.88,0,0,1-.08.42Z"/><path d="M55.73,312.41c0,.81.16,1,.29,1a.36.36,0,0,0,.25-.14c.06,0,.1.16.08.27s-.39.65-.76.65-.37-.14-.54-.42c0-.07-.07-.1-.11-.1s-.07.05-.13.14-.31.38-.56.38-.72-.42-.72-1.26a1.27,1.27,0,0,1,.67-1.25l.61-.33a.27.27,0,0,0,.16-.24c0-.13,0-.27,0-.41,0-.46-.1-1-.38-1s-.29.17-.33.68a.63.63,0,0,1-.58.66c-.11,0-.15-.13-.15-.3a1.81,1.81,0,0,1,.31-.92,1.48,1.48,0,0,1,1.09-.73c.55,0,.87.5.83,1.74ZM55,312.1c0-.19,0-.23-.05-.22-.29.07-.54.28-.54.84,0,.38.15.72.33.72s.24-.22.25-.59Z"/><path d="M58.64,307.38c0-.48,0-.61-.13-.75l-.11-.12a.56.56,0,0,1,0-.36,6.21,6.21,0,0,0,1-.67.12.12,0,0,1,.11.08c0,.49,0,1,0,1.75v3.77c0,.13,0,.17.09.17s.25-.06.37-.34l.28-.59a1.37,1.37,0,0,0,.15-.48.14.14,0,0,0-.12-.12l-.16-.05a.51.51,0,0,1,0-.42h.16a5.85,5.85,0,0,0,1.23-.16.55.55,0,0,1,0,.42l-.21.08a1.08,1.08,0,0,0-.43.42,5.49,5.49,0,0,0-.44.7.41.41,0,0,0,0,.15,1,1,0,0,0,.05.21c.12.38.69,2,.85,2.29a.66.66,0,0,0,.38.27l.1,0a.55.55,0,0,1,0,.42,5.83,5.83,0,0,0-.82,0,5.09,5.09,0,0,0-.8,0,.5.5,0,0,1,0-.42l.08,0c.07,0,.11-.05.11-.09a2.51,2.51,0,0,0-.11-.39l-.46-1.29c0-.14-.1-.18-.17-.18s-.07.06-.07.29v.69c0,.84,0,.94.25,1l.11,0a.56.56,0,0,1,0,.42,5.85,5.85,0,0,0-.78,0,6.11,6.11,0,0,0-.79,0,.56.56,0,0,1,0-.42l.12,0c.24,0,.26-.14.26-1Z"/><path d="M64.73,311.21c-.15,0-.17,0-.17.22,0,.89.31,1.77.92,1.77.18,0,.43-.07.6-.62.08,0,.17.07.17.27-.26,1-.74,1.37-1.13,1.37-.88,0-1.36-1.14-1.36-2.45,0-1.51.59-2.68,1.41-2.68.67,0,1,.8,1,1.72,0,.23,0,.4-.24.4Zm.42-.53a.32.32,0,0,0,.27-.11.53.53,0,0,0,0-.27c0-.4-.13-.66-.35-.66s-.51.48-.51.86c0,.17.1.18.3.18Z"/><path d="M74.94,310.3c0,1.93-.45,3.92-1.5,3.92s-1.51-2-1.51-3.92.45-3.92,1.51-3.92S74.94,308.44,74.94,310.3Zm-1.5,3.37c.49,0,.55-2.3.55-3.37s-.06-3.37-.55-3.37-.56,2.3-.56,3.37S72.94,313.67,73.44,313.67Z"/><path d="M80.27,310.3c0,1.93-.45,3.92-1.5,3.92s-1.51-2-1.51-3.92.45-3.92,1.51-3.92S80.27,308.44,80.27,310.3Zm-1.5,3.37c.49,0,.55-2.3.55-3.37s-.06-3.37-.55-3.37-.56,2.3-.56,3.37S78.27,313.67,78.77,313.67Z"/><path d="M85.2,306.21s.07.06.07.14a3.64,3.64,0,0,1-.36,1.24l-1.47.3c-.09,0-.12.14-.14.35l0,.27c0,.28,0,.33.17.35a2.93,2.93,0,0,1,1.33.59,2.69,2.69,0,0,1,.69,2,3.46,3.46,0,0,1-.94,2.59,2.67,2.67,0,0,1-1.76.79.61.61,0,0,1,0-.56,2,2,0,0,0,1.3-.54,2.36,2.36,0,0,0,.6-1.62c0-1.72-1-1.9-1.62-2-.21,0-.23-.13-.19-.41l.39-2.76c0-.31.08-.31.29-.36Z"/><path d="M37.69,31.74a1.16,1.16,0,0,1,.13.63c0,.36-.09.68-.17.68s-.09,0-.1-.06c-.18-.48-.44-.9-.67-.9-.42,0-.65.89-.65,1.72s.33,1.9.93,1.9c.24,0,.44-.14.58-.58.08,0,.17.07.17.26-.15.6-.54,1.28-1.15,1.28-.82,0-1.38-1-1.38-2.42,0-1.7.75-2.71,1.62-2.71A1.38,1.38,0,0,1,37.69,31.74Z"/><path d="M40.35,29.84c0-.48,0-.62-.13-.76L40.11,29a.45.45,0,0,1,0-.36,6.18,6.18,0,0,0,1-.67.13.13,0,0,1,.12.08c0,.5,0,1,0,1.75V32c0,.11,0,.15,0,.15l.11-.1a1.09,1.09,0,0,1,.74-.48c.55,0,.82.68.82,1.51v2.06c0,.84,0,.94.26,1l.11,0a.56.56,0,0,1,0,.42c-.2,0-.48,0-.79,0a6.16,6.16,0,0,0-.7,0,.56.56,0,0,1,0-.42l.12,0c.15-.05.18-.14.18-.8V33.22c0-.42-.14-.8-.46-.8a.41.41,0,0,0-.36.28,1.22,1.22,0,0,0,0,.45v2.14c0,.66,0,.75.17.8l.12,0a.56.56,0,0,1,0,.42,7,7,0,0,0-.72,0c-.27,0-.54,0-.76,0a.56.56,0,0,1,0-.42l.12,0c.21-.05.24-.15.24-1Z"/><path d="M47.75,34.86c0,.82.16,1,.29,1s.14,0,.25-.14.09.17.07.28-.38.64-.75.64-.37-.14-.55-.42c0-.07-.07-.09-.1-.09s-.07.05-.14.13a.76.76,0,0,1-.55.38c-.38,0-.73-.42-.73-1.26a1.26,1.26,0,0,1,.68-1.24c.25-.15.43-.24.61-.34a.26.26,0,0,0,.16-.24c0-.13,0-.26,0-.41,0-.45-.1-1-.38-1s-.29.17-.34.69a.66.66,0,0,1-.11.38.8.8,0,0,1-.46.27c-.11,0-.15-.13-.15-.3a1.81,1.81,0,0,1,.31-.92A1.51,1.51,0,0,1,47,31.54c.55,0,.87.5.83,1.74ZM47,34.55c0-.19,0-.23,0-.22-.29.08-.54.28-.54.84,0,.39.14.72.33.72s.24-.21.24-.58Z"/><path d="M50.71,33.33c0-.48,0-.63-.12-.77l-.09-.11a.45.45,0,0,1,0-.36,3.78,3.78,0,0,0,1-.72s.09,0,.11.11c0,.24,0,.41,0,.52s0,.12.06.14c.18-.2.37-.6.64-.6s.36.25.36.71-.21.78-.42.78-.17-.07-.25-.22-.21-.24-.25-.24-.12.27-.12.72v1.85c0,.84,0,.93.24,1l.21,0a.53.53,0,0,1,0,.41c-.31,0-.57,0-.88,0s-.55,0-.77,0a.58.58,0,0,1,0-.41l.12,0c.22,0,.24-.14.24-1Z"/><path d="M56.94,34.86c0,.82.16,1,.29,1s.14,0,.25-.14.1.17.08.28-.39.64-.76.64-.37-.14-.54-.42c0-.07-.08-.09-.11-.09s-.07.05-.13.13a.8.8,0,0,1-.56.38c-.37,0-.73-.42-.73-1.26a1.26,1.26,0,0,1,.68-1.24c.25-.15.43-.24.61-.34a.26.26,0,0,0,.16-.24c0-.13,0-.26,0-.41,0-.45-.1-1-.38-1s-.29.17-.33.69a.73.73,0,0,1-.12.38.8.8,0,0,1-.46.27c-.11,0-.15-.13-.15-.3a1.81,1.81,0,0,1,.31-.92,1.51,1.51,0,0,1,1.09-.73c.55,0,.87.5.83,1.74Zm-.78-.31c0-.19,0-.23,0-.22-.29.08-.54.28-.54.84,0,.39.15.72.33.72s.24-.21.24-.58Z"/><path d="M61.86,31.74a1.06,1.06,0,0,1,.14.63c0,.36-.09.68-.17.68s-.09,0-.1-.06c-.18-.48-.44-.9-.67-.9-.42,0-.65.89-.65,1.72s.33,1.9.93,1.9c.24,0,.43-.14.58-.58.08,0,.17.07.17.26-.15.6-.54,1.28-1.15,1.28-.82,0-1.38-1-1.38-2.42,0-1.7.75-2.71,1.62-2.71A1.32,1.32,0,0,1,61.86,31.74Z"/><path d="M65.45,32.36c-.09,0-.1,0-.1.27v1.8c0,.67,0,1.42.46,1.42a.42.42,0,0,0,.27-.18c.07,0,.11.16.09.31a1.14,1.14,0,0,1-.93.69c-.54,0-.73-.57-.73-1.36V32.63c0-.25,0-.27-.12-.27h-.2a.37.37,0,0,1,0-.38,2.51,2.51,0,0,0,.54-.54,3.61,3.61,0,0,0,.48-.93.12.12,0,0,1,.19.06v.9c0,.23,0,.24.13.24h.57a.35.35,0,0,1,.06.23.79.79,0,0,1-.09.42Z"/><path d="M69.23,33.66c-.15,0-.16,0-.16.22,0,.9.31,1.77.91,1.77.19,0,.43-.07.61-.62.07,0,.17.07.17.28-.27,1-.75,1.36-1.14,1.36-.88,0-1.35-1.14-1.35-2.44,0-1.51.59-2.69,1.4-2.69s1,.8,1,1.73c0,.22,0,.39-.23.39Zm.43-.52a.38.38,0,0,0,.27-.11.63.63,0,0,0,0-.28c0-.39-.12-.66-.34-.66s-.51.48-.51.87c0,.16.09.18.3.18Z"/><path d="M73.28,33.33c0-.48,0-.63-.12-.77l-.09-.11a.45.45,0,0,1,0-.36,3.61,3.61,0,0,0,1-.72s.09,0,.12.11c0,.24,0,.41,0,.52s0,.12.07.14c.17-.2.36-.6.63-.6s.36.25.36.71S75,33,74.75,33s-.16-.07-.25-.22-.21-.24-.25-.24-.12.27-.12.72v1.85c0,.84,0,.93.24,1l.21,0a.53.53,0,0,1,0,.41c-.31,0-.57,0-.88,0s-.55,0-.76,0a.53.53,0,0,1,0-.41l.12,0c.22,0,.24-.14.24-1Z"/><path d="M80.58,32.09c-.06-.08-.07-.37,0-.42a6.07,6.07,0,0,0,.8,0c.24,0,.48,0,.72,0a.61.61,0,0,1,0,.42l-.11,0c-.07,0-.11,0-.11.12a4.08,4.08,0,0,0,.06.42c.13.66.28,1.28.41,1.86.14-.6.31-1.24.44-2a1.3,1.3,0,0,0,0-.3c0-.06,0-.09-.15-.14l-.09,0a.51.51,0,0,1,0-.42,3.44,3.44,0,0,0,.54,0c.2,0,.35,0,.5,0s0,.35,0,.42l-.11,0c-.2.06-.25.2-.38.66-.34,1.23-.63,2.52-.93,3.8a.16.16,0,0,1-.15.08.19.19,0,0,1-.15-.08c-.34-1.51-.48-2.09-.89-3.68-.15-.59-.19-.69-.36-.76Z"/><path d="M85.73,34.2c0-1.71.73-2.66,1.5-2.66s1.45.86,1.45,2.55-.69,2.58-1.49,2.58S85.74,35.86,85.73,34.2Zm.94-.26c0,1.26.21,2.18.59,2.18s.49-.78.49-1.86-.19-2.17-.56-2.17S86.67,32.63,86.67,33.94Z"/><path d="M92.23,35.11c0,.84,0,1,.24,1l.12,0a.56.56,0,0,1,0,.42c-.23,0-.48,0-.78,0s-.56,0-.78,0a.51.51,0,0,1,0-.42l.12,0c.21,0,.24-.15.24-1V33.3c0-.48,0-.62-.12-.76l-.09-.11a.45.45,0,0,1,0-.36,4.4,4.4,0,0,0,1-.7c.05,0,.09,0,.12.11,0,.36,0,.89,0,1.43Zm0-5.42c0,.58-.24.88-.49.88s-.45-.36-.45-.85.22-.88.48-.88S92.28,29.21,92.28,29.69Z"/><path d="M97.15,31.74a1.06,1.06,0,0,1,.14.63c0,.36-.09.68-.17.68S97,33,97,33c-.19-.48-.44-.9-.67-.9-.43,0-.65.89-.65,1.72s.33,1.9.93,1.9c.24,0,.43-.14.57-.58.08,0,.17.07.17.26-.14.6-.53,1.28-1.15,1.28-.82,0-1.37-1-1.37-2.42,0-1.7.74-2.71,1.62-2.71A1.32,1.32,0,0,1,97.15,31.74Z"/><path d="M100.47,33.66c-.15,0-.17,0-.17.22,0,.9.32,1.77.92,1.77.18,0,.43-.07.61-.62.07,0,.17.07.17.28-.27,1-.75,1.36-1.14,1.36-.88,0-1.35-1.14-1.35-2.44,0-1.51.59-2.69,1.4-2.69s1,.8,1,1.73c0,.22,0,.39-.23.39Zm.43-.52a.34.34,0,0,0,.26-.11.6.6,0,0,0,0-.28c0-.39-.12-.66-.35-.66s-.5.48-.5.87c0,.16.09.18.3.18Z"/><rect x="34.53" y="294.65" width="17.75" height="3.94"/><rect x="34.33" y="94.12" width="96.1" height="11.94"/><path class="cls-4" d="M41.09,106.39a2.16,2.16,0,0,1-1.56-.68,16.25,16.25,0,0,1-.26-2.57c0-.13.2-.17.24-.06.14.94.55,2.74,1.71,2.74.83,0,1.24-1,1.24-2.11a3.67,3.67,0,0,0-.82-2.57L40.7,100a4.9,4.9,0,0,1-1.08-3.16c0-1.74.74-3.16,2-3.16a2.41,2.41,0,0,1,.93.24.73.73,0,0,0,.35.11,14.35,14.35,0,0,1,.18,2.24c0,.11-.2.17-.25.06-.13-.88-.4-2.08-1.35-2.08s-1.19,1.2-1.19,2a3.42,3.42,0,0,0,.85,2.26l.79.92A5,5,0,0,1,43.21,103C43.21,105,42.38,106.39,41.09,106.39Z"/><path class="cls-4" d="M50.75,101.84c-.07-.41-.11-.46-.4-.46H48.84c-.24,0-.31.05-.37.44l-.35,1.92a12.23,12.23,0,0,0-.22,1.53c0,.22.05.33.29.37l.33,0a.47.47,0,0,1,0,.46c-.26,0-.57,0-1-.06s-.69,0-1,.06a.61.61,0,0,1,0-.46l.32,0c.24,0,.46-.24.6-.9.18-.85.46-2,.88-4.1l1-5a4.6,4.6,0,0,0,.17-1.31,1.52,1.52,0,0,0,.52-.7c.06,0,.13,0,.15.17.13.81.29,1.65.43,2.46l1.37,7.38c.29,1.58.41,1.85.84,2l.27,0a.61.61,0,0,1,0,.46,11.47,11.47,0,0,0-1.2-.06c-.48,0-.86,0-1.15.06a.5.5,0,0,1,0-.46l.29,0c.21,0,.35-.15.35-.34a6.5,6.5,0,0,0-.13-1Zm-2-1.64c-.08.42-.07.44.21.44h1.23c.29,0,.3-.07.22-.57l-.54-3c-.08-.44-.17-.94-.23-1.15h0c0,.09-.13.53-.24,1.08Z"/><path class="cls-4" d="M56.34,100.17c0-3.68,1.49-6.49,3.54-6.49,2.3,0,3.46,3.07,3.46,6.3,0,3.71-1.54,6.41-3.46,6.41C57.67,106.39,56.34,103.47,56.34,100.17Zm6,.38c0-3-.73-6.3-2.63-6.3-1,0-2.37,1.31-2.37,5.33,0,2.71.71,6.24,2.67,6.24C61.21,105.82,62.34,104.17,62.34,100.55Z"/><path class="cls-4" d="M68.05,96.75c0-1.74,0-2.06-.44-2.15l-.32-.07a.5.5,0,0,1,0-.46,13.72,13.72,0,0,1,2.22-.15,2.22,2.22,0,0,1,1.66.55A3.47,3.47,0,0,1,72,97a3.7,3.7,0,0,1-1.25,3.07.7.7,0,0,0,0,.44,23.42,23.42,0,0,0,2,4.88,1,1,0,0,0,.69.52s.06.18,0,.25a.84.84,0,0,1-.44.1c-.85,0-1.35-.46-2.06-2.32-.26-.68-.66-1.94-1-2.77-.15-.4-.31-.59-.71-.59s-.47,0-.47.41v2.31c0,1.93,0,2.15.6,2.3l.21,0a.6.6,0,0,1,0,.46c-.45,0-.79-.06-1.19-.06s-.77,0-1.24.06a.59.59,0,0,1,0-.46l.25,0c.58-.13.6-.37.6-2.3Zm.81,2.63a2.52,2.52,0,0,0,0,.6c0,.06.18.09.69.09a1.14,1.14,0,0,0,1-.47,3.89,3.89,0,0,0,.5-2.28c0-1.45-.49-2.83-1.59-2.83-.62,0-.65.08-.65.59Z"/><path class="cls-4" d="M77.44,96.77c0-2,0-2.26-.6-2.35l-.25,0a.61.61,0,0,1,0-.46c.5,0,.83.06,1.25.06s.74,0,1.24-.06a.61.61,0,0,1,0,.46l-.25,0c-.59.09-.61.4-.61,2.35v6.53c0,2,0,2.21.61,2.34l.25,0a.61.61,0,0,1,0,.46c-.5,0-.84-.06-1.24-.06s-.75,0-1.25.06a.6.6,0,0,1,0-.46l.25,0c.58-.13.6-.39.6-2.34Z"/><path class="cls-4" d="M94.43,104.22c0,.74.06,1.18.24,1.3a.27.27,0,0,1,0,.23,1.37,1.37,0,0,0-.49.16,4.47,4.47,0,0,1-1.78.48,3.37,3.37,0,0,1-3-2,8.8,8.8,0,0,1-.92-4.17,9.81,9.81,0,0,1,.9-4.35,3.46,3.46,0,0,1,3.15-2.15,3.51,3.51,0,0,1,1.27.28,1.66,1.66,0,0,0,.61.17c0,.6.06,1.56.15,2.66a.15.15,0,0,1-.27,0c-.27-2-1-2.6-2-2.6-1.93,0-2.77,2.53-2.77,5.28,0,3.53,1,6.3,3,6.3.62,0,1-.24,1.1-.55a3.58,3.58,0,0,0,.1-1v-.73c0-1.54,0-1.65-.65-1.78l-.44-.09a.5.5,0,0,1,0-.46c.29,0,.84,0,1.42,0,.39,0,.73,0,1.06,0a.53.53,0,0,1,0,.46l-.16,0c-.42.09-.43.61-.43,1.54Z"/><path class="cls-4" d="M98.85,100.17c0-3.68,1.5-6.49,3.55-6.49,2.29,0,3.45,3.07,3.45,6.3,0,3.71-1.53,6.41-3.45,6.41C100.19,106.39,98.85,103.47,98.85,100.17Zm6,.38c0-3-.72-6.3-2.62-6.3-1,0-2.38,1.31-2.38,5.33,0,2.71.72,6.24,2.68,6.24C103.72,105.82,104.85,104.17,104.85,100.55Z"/><path class="cls-4" d="M113,103.34c0,1.93,0,2.2.6,2.3l.31,0a.61.61,0,0,1,0,.46c-.56,0-.9-.06-1.3-.06s-.75,0-1.38.06a.53.53,0,0,1,0-.46l.36,0c.56-.1.61-.37.61-2.3v-8.2c0-.57,0-.59-.3-.59h-.54c-.43,0-1,0-1.23.46a4.19,4.19,0,0,0-.44,1.26c-.08.11-.22,0-.26-.13.16-.82.31-2,.38-2.73,0,0,.15-.06.18,0,.06.59.39.57.85.57h4c.54,0,.63,0,.78-.51a.11.11,0,0,1,.17,0,21.81,21.81,0,0,0-.15,2.79.13.13,0,0,1-.25,0A3.71,3.71,0,0,0,115.1,95a1.31,1.31,0,0,0-1.16-.46h-.7c-.3,0-.29,0-.29.62Z"/><path class="cls-4" d="M119.29,100.17c0-3.68,1.49-6.49,3.54-6.49,2.3,0,3.46,3.07,3.46,6.3,0,3.71-1.54,6.41-3.46,6.41C120.62,106.39,119.29,103.47,119.29,100.17Zm6,.38c0-3-.73-6.3-2.63-6.3-1,0-2.37,1.31-2.37,5.33,0,2.71.71,6.24,2.67,6.24C124.16,105.82,125.29,104.17,125.29,100.55Z"/><rect x="34.9" y="207.32" width="105.16" height="12.36"/><path class="cls-4" d="M42.45,214.39c.23.87.45,1.71.69,2.52h0c.27-.86.52-1.82.77-2.75l.94-3.51a17.57,17.57,0,0,0,.75-3.52,4.55,4.55,0,0,0,.75.05c.25,0,.58,0,.88-.05a.63.63,0,0,1,0,.45l-.21,0c-.62.11-.7.46-.69,1.74,0,1.95,0,5.35.11,8,0,.92,0,1.41.48,1.49l.32,0a.56.56,0,0,1,0,.46c-.4,0-.81,0-1.17,0s-.8,0-1.2,0a.56.56,0,0,1,0-.46l.28,0c.49-.1.49-.39.49-1.56l0-7.66h0c-.07.2-.45,1.67-.64,2.39L44,215.22c-.45,1.62-.9,3.34-1.07,4.19a.1.1,0,0,1-.1.07.11.11,0,0,1-.09-.07c-.17-1-.65-2.78-.88-3.68L41,212.19c-.21-.84-.42-1.8-.64-2.64h0c0,1.14-.07,2.2-.1,3.27s-.07,2.75-.07,4.31c0,1.36.06,1.65.45,1.71l.38,0a.52.52,0,0,1,0,.46,9.86,9.86,0,0,0-1.11,0,8.75,8.75,0,0,0-1,0,.61.61,0,0,1,0-.46l.22,0c.41-.11.55-.22.61-1.51s.11-2.22.17-4c0-1.52.09-3.08.11-4.09s-.06-1.43-.67-1.58l-.15,0a.54.54,0,0,1,0-.45,7.43,7.43,0,0,0,.78.05,5.21,5.21,0,0,0,.83-.05,12,12,0,0,0,.51,3Z"/><path class="cls-4" d="M51.09,213.37c0-3.68,1.49-6.48,3.54-6.48,2.3,0,3.45,3.06,3.45,6.29,0,3.71-1.53,6.41-3.45,6.41C52.42,219.59,51.09,216.67,51.09,213.37Zm6,.38c0-3-.73-6.29-2.63-6.29-1,0-2.38,1.3-2.38,5.32,0,2.72.72,6.24,2.68,6.24C56,219,57.09,217.37,57.09,213.75Z"/><path class="cls-4" d="M62.79,209.93c0-1.91,0-2.18-.6-2.31l-.16,0a.58.58,0,0,1,0-.45c.43,0,.76.05,1.17.05h1.87a8.08,8.08,0,0,0,1.35-.05c.06.31.12,1.63.16,2.44a.14.14,0,0,1-.25,0c-.15-.86-.24-1.5-.76-1.74a2.7,2.7,0,0,0-1-.11h-.71c-.3,0-.3,0-.3.73v3.67c0,.52,0,.52.33.52h.58a2.12,2.12,0,0,0,.84-.11c.12-.08.19-.18.24-.64l.08-.76a.14.14,0,0,1,.26,0c0,.44,0,1.16,0,1.86s0,1.35,0,1.76a.14.14,0,0,1-.26,0l-.09-.72c0-.33-.11-.61-.31-.7a1.92,1.92,0,0,0-.76-.09h-.58c-.3,0-.33,0-.33.5v2.58a5.14,5.14,0,0,0,.19,1.91c.12.22.33.43,1.2.43s1.06-.08,1.28-.28a5.42,5.42,0,0,0,.7-1.78c.07-.09.21,0,.25.13-.07.64-.32,2-.45,2.55-.89,0-1.78,0-2.66,0h-.9c-.43,0-.76,0-1.35,0a.6.6,0,0,1,0-.46l.33,0c.56-.1.61-.37.61-2.3Z"/><path class="cls-4" d="M71.59,209.93c0-1.92,0-2.22-.6-2.31l-.25,0a.58.58,0,0,1,0-.45c.49,0,.81.05,1.25.05s.73,0,1.16-.05a.58.58,0,0,1,0,.45l-.19,0c-.58.11-.6.39-.6,2.31V212c0,.35,0,.7.13.7s.21-.11.28-.2.4-.7.51-.88l1.07-2c.19-.33.68-1.26.78-1.52a.84.84,0,0,0,.07-.29c0-.08,0-.13-.17-.19l-.27-.11a.48.48,0,0,1,0-.45c.35,0,.74.05,1.09.05s.69,0,1-.05a.54.54,0,0,1,0,.45,1.77,1.77,0,0,0-.93.52,14.45,14.45,0,0,0-1.39,2.13l-.9,1.56a1.43,1.43,0,0,0-.22.57,1.86,1.86,0,0,0,.18.57c1,2,1.72,3.65,2.49,5.15.24.44.46.68.8.76l.27,0a.52.52,0,0,1,0,.46,8.34,8.34,0,0,0-1.12,0c-.41,0-.75,0-1.21,0-.07,0-.1-.35,0-.46l.23-.07c.14,0,.24-.09.24-.19a1.36,1.36,0,0,0-.14-.42c-.19-.44-.45-.93-.83-1.72l-.79-1.66c-.57-1.17-.73-1.54-1-1.54s-.17.24-.17.88v2.37c0,1.93,0,2.19.58,2.3l.27,0a.6.6,0,0,1,0,.46c-.49,0-.83,0-1.22,0a11.06,11.06,0,0,0-1.15,0,.59.59,0,0,1,0-.46l.2,0c.53-.15.55-.37.55-2.3Z"/><path class="cls-4" d="M84.06,215c-.07-.41-.11-.46-.41-.46h-1.5c-.25,0-.31,0-.38.44L81.42,217a11.93,11.93,0,0,0-.22,1.52c0,.22,0,.33.29.37l.33,0a.47.47,0,0,1,0,.46,8.83,8.83,0,0,0-1,0c-.32,0-.68,0-1,0a.61.61,0,0,1,0-.46l.33,0c.24,0,.46-.24.59-.9.18-.85.46-2,.88-4.1l1-5a4.56,4.56,0,0,0,.17-1.31,1.45,1.45,0,0,0,.52-.69c.06,0,.13,0,.15.16.13.81.29,1.65.44,2.46l1.36,7.38c.29,1.58.42,1.85.85,2l.26,0a.53.53,0,0,1,0,.46,11.43,11.43,0,0,0-1.2,0c-.48,0-.85,0-1.14,0a.5.5,0,0,1,0-.46l.29,0c.21,0,.34-.15.34-.33a7.58,7.58,0,0,0-.12-1Zm-2-1.64c-.08.43-.07.44.21.44h1.22c.29,0,.31-.07.22-.57l-.54-3c-.08-.44-.17-.93-.23-1.15h0c0,.09-.13.53-.24,1.08Z"/><path class="cls-4" d="M95.93,209.93c0-1.92,0-2.22-.6-2.31l-.24,0a.58.58,0,0,1,0-.45c.49,0,.81.05,1.26.05s.72,0,1.15-.05a.58.58,0,0,1,0,.45l-.19,0c-.57.11-.59.39-.59,2.31V212c0,.35,0,.7.13.7s.2-.11.27-.2.4-.7.51-.88l1.08-2c.19-.33.67-1.26.77-1.52a.84.84,0,0,0,.07-.29c0-.08,0-.13-.17-.19l-.27-.11a.48.48,0,0,1,0-.45c.35,0,.75.05,1.1.05s.68,0,1-.05a.54.54,0,0,1,0,.45,1.74,1.74,0,0,0-.92.52,14.28,14.28,0,0,0-1.4,2.13l-.89,1.56a1.34,1.34,0,0,0-.23.57,1.7,1.7,0,0,0,.19.57c.94,2,1.71,3.65,2.49,5.15.24.44.45.68.79.76l.27,0a.52.52,0,0,1,0,.46,8.26,8.26,0,0,0-1.11,0c-.41,0-.76,0-1.22,0-.07,0-.1-.35,0-.46l.23-.07c.14,0,.24-.09.24-.19a1.36,1.36,0,0,0-.14-.42c-.19-.44-.45-.93-.82-1.72l-.8-1.66c-.57-1.17-.73-1.54-1-1.54s-.17.24-.17.88v2.37c0,1.93,0,2.19.57,2.3l.27,0a.6.6,0,0,1,0,.46c-.49,0-.82,0-1.21,0a11.25,11.25,0,0,0-1.16,0,.55.55,0,0,1,0-.46l.19,0c.53-.15.55-.37.55-2.3Z"/><path class="cls-4" d="M105.63,210c0-1.95,0-2.26-.61-2.35l-.25,0a.58.58,0,0,1,0-.45c.5,0,.84.05,1.25.05s.74,0,1.24-.05a.58.58,0,0,1,0,.45l-.25,0c-.59.09-.61.4-.61,2.35v6.54c0,1.94,0,2.2.61,2.33l.25,0a.6.6,0,0,1,0,.46c-.5,0-.84,0-1.24,0s-.75,0-1.25,0a.6.6,0,0,1,0-.46l.25,0c.59-.13.61-.39.61-2.33Z"/><path class="cls-4" d="M112,210c0-1.74,0-2-.44-2.15l-.31-.07a.5.5,0,0,1,0-.46,13.79,13.79,0,0,1,2.21-.14,2.17,2.17,0,0,1,1.66.55,3.45,3.45,0,0,1,.83,2.57,3.7,3.7,0,0,1-1.24,3.06.7.7,0,0,0,0,.44,22.36,22.36,0,0,0,2,4.88,1,1,0,0,0,.68.52s.06.18,0,.26a.92.92,0,0,1-.43.09c-.85,0-1.36-.46-2.06-2.32-.26-.67-.67-1.94-1-2.77-.15-.4-.31-.58-.7-.58s-.47,0-.47.4v2.31c0,1.93,0,2.15.59,2.3l.21,0a.6.6,0,0,1,0,.46c-.44,0-.78,0-1.18,0s-.78,0-1.24,0a.59.59,0,0,1,0-.46l.24,0c.58-.13.6-.37.6-2.3Zm.82,2.63a2.52,2.52,0,0,0,0,.6c0,.06.18.09.68.09a1.16,1.16,0,0,0,1-.47,3.89,3.89,0,0,0,.5-2.28c0-1.45-.49-2.83-1.6-2.83-.61,0-.64.08-.64.59Z"/><path class="cls-4" d="M123.44,216.51c0,2,.06,2.25.6,2.33l.37,0a.6.6,0,0,1,0,.46c-.61,0-1,0-1.35,0s-.77,0-1.3,0a.6.6,0,0,1,0-.46l.31,0c.57-.11.59-.37.59-2.33v-.94a6.26,6.26,0,0,0-.32-2.28l-1.17-4.22c-.34-1.21-.49-1.3-.78-1.39l-.28-.1a.53.53,0,0,1,0-.45c.31,0,.67.05,1.15.05a9.09,9.09,0,0,0,1.06-.05c.09.05.09.34,0,.45l-.12,0c-.35.09-.42.18-.42.33a13.64,13.64,0,0,0,.31,1.41c.36,1.36.73,2.81,1.12,4.08.31-1,.64-2,.94-3.1s.64-2.2.64-2.43-.18-.23-.42-.29l-.18,0a.5.5,0,0,1,0-.45c.35,0,.64.05,1,.05s.59,0,.92-.05a.45.45,0,0,1,0,.45l-.27.1c-.52.16-.82,1.32-1.32,2.9l-.62,2a7,7,0,0,0-.47,3Z"/><path class="cls-4" d="M134.81,211.79a23.94,23.94,0,0,0-.19-3.8.58.58,0,0,0-.5-.39l-.25,0a.55.55,0,0,1,0-.44c.38,0,.75.05,1.13.05s.69,0,1-.05a.52.52,0,0,1,0,.44l-.24,0a.59.59,0,0,0-.5.44,30,30,0,0,0-.14,3.75v2.07a10.5,10.5,0,0,1-.69,4.39,2.21,2.21,0,0,1-1.9,1.34,2.07,2.07,0,0,1-1.86-1c-.53-.81-.78-2.15-.78-4.33v-4.33c0-1.91,0-2.23-.6-2.32l-.24,0a.56.56,0,0,1,0-.44c.49,0,.83.05,1.23.05s.74,0,1.22-.05a.56.56,0,0,1,0,.44l-.24,0c-.57.09-.59.41-.59,2.32v4c0,3,.49,4.9,2,4.9s2-2.09,2-4.88Z"/><rect class="cls-5" width="380.17" height="475.55"/></g></svg>