<svg id="レイヤー_1" data-name="レイヤー 1" xmlns="http://www.w3.org/2000/svg" viewBox="0 0 380.17 475.55"><defs><style>.cls-1,.cls-2,.cls-3,.cls-5{fill:none;}.cls-1,.cls-2,.cls-3{stroke:#000;}.cls-1{stroke-width:0.5px;}.cls-2{stroke-width:0.4px;}.cls-3{stroke-width:0.44px;}.cls-4{fill:#fff;}.cls-5{opacity:0.21;}</style></defs><title>アートボード 2</title><path d="M34.07,76.39a66.71,66.71,0,0,0,5.7-14.93c.5.29,2.5,1.57,3,1.87.69.47.78.55.78.77s-.38.33-.83.33c-.41.92-.86,1.91-1.65,3.34.91.29,1,.33,1,.55s0,.22-.65.48v16c0,.8,0,.91-.47,1L39,86c-.53.07-.58,0-.58-.73V71.84a23.05,23.05,0,0,1-4.36,4.66ZM46.9,56.72V51.88c2.2.29,2.43.29,3.15.4.38.07.52.11.52.37s-.57.51-.71.59v3.48h2.07l1.27-3c.07-.18.19-.48.31-.48s2.76,3.08,2.76,3.6c0,.26-.14.26-.26.26H49.86v3.41c0,.73,0,.92-.53,1l-1.86.19c-.43,0-.57,0-.57-.81V57.13H43.23v3.44c0,.7,0,.85-.6.92l-1.76.19c-.58.07-.6-.19-.6-.88V57.13H34.45l-.12-.41h5.94V51.88c.38.07,3,.51,3.27.51.07,0,.38,0,.38.3s-.55.55-.69.58v3.45Zm1.43,22.9c0,1.07,0,1.21,1.91,1.21,2.6,0,2.7-.22,3.22-1.36.45-1,2-6.16,2.27-6.78,0,.33-.65,6.64-.65,6.78,0,.3.1.37.31.55a2.84,2.84,0,0,1,.81,2.13c0,2.54-1.64,2.94-5.63,2.94-4.36,0-5.19,0-5.19-4.4V62c.5.11,2.74.55,3.19.58.17,0,.48.11.48.37s-.43.44-.72.55V71.8a48.92,48.92,0,0,0,4-8.36c.43.36,2.27,2,2.65,2.35S56,66.81,56,67a.27.27,0,0,1-.28.29,2.39,2.39,0,0,1-.67-.22,23.77,23.77,0,0,1-6.73,5.5Z"/><path d="M65.26,60.32a5.65,5.65,0,0,1,4.25,5.17c0,1.73-1,2.53-1.84,2.53-.69,0-.81-.4-.93-1.9a20.34,20.34,0,0,0-1.48-5.65Zm7-3.38c-.12,1.62-.36,4.44-1.32,11.3-1,7.49-1.14,8.3-1.14,9.14a4.43,4.43,0,0,0,.52,2,8.12,8.12,0,0,1,.7,3.23c0,1.47-.65,3.08-2.13,3.08-1.17,0-1.21-.66-1.24-2.79a21.47,21.47,0,0,0-1.93-8.69v-.15c.29.18,1.5,1.21,1.77,1.39,1-3.7,1.83-6.82,2.72-10.57.5-2.05,1.52-6.31,2-8ZM66.74,52c.58.15,4.73,1.07,4.73,4.7,0,1.87-1,2.68-1.77,2.68-.52,0-.72-.26-1-1.32-.7-3.27-1.08-4.37-2-5.91ZM80.6,64.32H82l.95-2c.12-.22.22-.52.29-.52a23.7,23.7,0,0,1,2.24,2.72c0,.22-.19.22-.31.22H80.6v3.89h3l1.12-2.35a2,2,0,0,1,.29-.51A30.89,30.89,0,0,1,87.4,68.9c0,.19-.19.19-.29.19H81.72c.31.15,2.67,1.28,2.67,1.58s-.14.25-.57.29a23.58,23.58,0,0,1-2.7,3.12h2.29l1.1-2.35c.14-.29.24-.51.29-.51A35,35,0,0,1,87,74.3c0,.22-.2.22-.29.22H80.62v4.22h1.65l1.29-2.61c.24-.47.26-.51.31-.51A37.42,37.42,0,0,1,86.49,79c0,.18-.21.18-.31.18H80.62v6c0,.41,0,.55-.31.59L78.05,86c-.36,0-.38-.18-.38-.55V79.18H72.42l-.12-.44h5.37V74.52H71.54l-.1-.44H76a4.39,4.39,0,0,1-.38-1.51,13.91,13.91,0,0,0-1-3.48H71.25l-.12-.44h6.51V64.76H72.92l-.12-.44h4.84V60.76h-2.1c0,.62,0,.81-.43.84l-1.9.22c-.39,0-.43-.11-.43-.66v-8a16.52,16.52,0,0,1,2.84,1.07h7.51l.69-1.62c.12-.29.21-.55.36-.55a11.78,11.78,0,0,1,2.64,3.08c0,.3-.19.52-.81,1.1v4.7c0,.41,0,.63-.35.66l-2,.22c-.43,0-.43-.07-.43-1.06H80.6Zm-5.46,4.77c1.45.29,3.15,1.28,3.15,3.19a2,2,0,0,1-.81,1.8h2.81c.19-1,.57-4.07.64-5Zm1.36-8.77V54.67h-1v5.65Zm2.43-5.65v5.65h.93V54.67Zm4.29,0h-1v5.65h1Z"/><path d="M113.92,60.76l1.38-3c.14-.29.21-.44.31-.44a20.61,20.61,0,0,1,2.6,3.63c0,.3-.14.3-.31.3h-8.61c1.17,2.9,4.6,5.69,9.92,6v.14a5.24,5.24,0,0,0-1.74,4c-.07.84-.07,1-.38,1a12.27,12.27,0,0,1-6.82-6.86,18.54,18.54,0,0,1-1.15-4.26h-.31V70c0,.63,0,1-.43,1l-1.93.22c-.36,0-.55,0-.55-.7V63.44a26.54,26.54,0,0,1-9.68,9.83l0-.11a36.39,36.39,0,0,0,6.82-12H96.46l-.12-.44h9.56V56.87c-2.76.15-5.58.26-8.34.15l0-.12c4.22-.91,10.52-3.26,13.45-5.17,1,.81,4.1,3.85,4.1,4.26a.17.17,0,0,1-.16.18c-.12,0-.17,0-.53-.18-.88.11-4.79.58-5.58.66v4.11Zm-2.41,11,.64-1.39c.17-.37.22-.48.33-.48a16.17,16.17,0,0,1,1.79,1.54c.65.59,1.24,1.18,1.24,1.55s-.09.47-1,1.06V84.57c0,.56,0,.81-.38.85l-1.93.22c-.48,0-.62,0-.62-.81V83.69h-8.52v1.07c0,.51,0,.84-.38.88l-1.93.18c-.48,0-.57.08-.57-.8V70.92c.64.11,2.33.59,3.5.88Zm-8.4.44v5.22h8.52V72.24Zm8.52,5.66h-8.52v5.35h8.52Z"/><path d="M137,72.47V69.64c.31,0,3.39.4,3.39.66s-.41.44-.57.51v1.66H145l1.34-3.09c.07-.14.19-.44.31-.44a17,17,0,0,1,2.69,3.71c0,.25-.17.25-.28.25h-9c.72,2.94,4.06,6,9.09,7.27v.15a5.39,5.39,0,0,0-1.64,3c-.27,1.36-.31,1.51-.53,1.51a8.69,8.69,0,0,1-3.24-2.28c-1.27-1.39-3.06-4.11-3.87-9.62h0V85.05c0,.66-.17.7-.51.74l-1.78.22c-.46.07-.53-.3-.53-.81v-9a21.74,21.74,0,0,1-9.37,8.59l-.07-.07a36.2,36.2,0,0,0,7-11.79h-7.08l-.1-.43Zm2.89-16.7v-4c.86.11,2.31.3,3.17.48.26,0,.45.15.45.33s-.14.33-.67.48v2.68h2.06l1.26-2.83c.09-.18.21-.44.31-.44a14.42,14.42,0,0,1,2.67,3.41c0,.26-.17.26-.31.26h-6v1.91c.31-.15.48-.26.89-.48,1.05,1,2.1,2.09,3.12,3.2a.9.9,0,0,1,.29.58c0,.26-.15.3-.26.3a1.35,1.35,0,0,1-.53-.15A114.79,114.79,0,0,1,128.63,63v-.26a86.43,86.43,0,0,0,11.26-3.38V56.17h-3.46v3c0,.77-.05.8-.53.84l-1.93.18c-.4,0-.5-.18-.5-.73V56.17H127.8l-.12-.4h5.79V51.88a32,32,0,0,1,3.39.36c.19,0,.24.15.24.22,0,.3-.46.44-.67.48v2.83Zm-10,7.92c1.6.3,4.77,1.25,4.77,4.22,0,1.36-.71,2.94-1.76,2.94-.53,0-.64-.26-1-1.72a15.49,15.49,0,0,0-2-5.29Zm5.85-.77c3.15.26,4.34,2,4.34,3.64s-1.08,2.82-1.81,2.82-.72-.29-.89-1.5a10.35,10.35,0,0,0-1.69-4.81Zm5.46,7.6a56.11,56.11,0,0,0,2.62-7.89c.55.33,2.84,1.76,3.41,2.17.1.07.19.14.19.25,0,.26-.07.26-.81.33a23.49,23.49,0,0,1-5.39,5.21Z"/><path d="M48.37,148.46c.25-.51.41-.83.53-.83.29,0,2.39,3.61,2.76,4.31,1.52-7.34,2.06-12.21,2.34-14.55.74.25,6.46,2.53,6.46,3.22,0,.38-.12.38-1.4.64a70.73,70.73,0,0,1-3,9.17c.74.25,2.63.76,3.25,1h1.6c.7-3.35,1.65-10.25,1.93-13.35a44.17,44.17,0,0,1,5.76,2.6c.82.44.91.44.91.82s-1,.38-1.48.38a81.83,81.83,0,0,1-6.42,9.55h5.35l2.26-4.36c.37-.7.41-.76.53-.76s4.07,4.68,4.07,5.44c0,.44-.28.44-.53.44h-7v12.27h.7l1.89-4.3c.12-.25.37-.76.53-.76s3.46,4.75,3.46,5.38c0,.44-.29.44-.54.44h-6v12.34h.7l2-4.49c.21-.45.33-.83.49-.83s3.66,5,3.66,5.63c0,.45-.28.45-.53.45H66.22v13.47h.7l2.38-4.93c.37-.76.37-.82.49-.82s4.4,5.44,4.4,6.07c0,.44-.28.44-.53.44H57.58v2c0,1.13,0,1.26-.74,1.32l-3.17.38c-.61.07-.94.07-.94-1.2V157.57a46.31,46.31,0,0,1-3.37,5.37A11.58,11.58,0,0,1,52,170.16c0,2.84-1.19,4.42-3,4.42-.91,0-1-.44-1.11-1.89-.29-4.81-.5-8.67-1.9-12.53v33.72c0,1.77,0,2-.7,2l-3.24.38c-.74.07-.74-.06-.74-1.45V174a32.75,32.75,0,0,1-6.46,9.11l0-.12c1.31-3.17,4.44-10.7,6.29-29.74h-5l-.2-.69h5.39V137.45c1.23.19,4.52.57,5.55.69.2.07.45.13.45.45s-.29.57-1.32,1.07v12.85h.46Zm-2.43,4.74v6.58A9.75,9.75,0,0,1,49,162.56a91.93,91.93,0,0,0,2.38-9.36Zm11.64-1v12.27h3.78V152.19Zm0,13v12.34h3.78V165.22Zm3.78,13.1H57.58v13.47h3.78Z"/><path d="M90,163.39c4.44-6.65,8.55-17,11.14-26.83.37.13,4.61,2,5.47,2.34,1.15.51,1.57.7,1.57,1.14s0,.51-1.61.89c-.41.95-.74,1.71-1.93,4.17h10.81l1.36-2.4c.7-1.2.78-1.33,1-1.33.41,0,5.26,5.19,5.76,6.14a1.36,1.36,0,0,1,.16.69c0,1.27-2.22,1.78-3.08,1.9a88.46,88.46,0,0,1-14.52,21.45h12.54L120,168.7c.53-1.2.74-1.64,1.07-1.64s2.38,2.4,3,3c.7.83,2.22,2.6,2.22,3.36s-1.07,1.77-1.81,2.21v17.78c0,.88,0,1.83-1,2l-3.33.38c-.7.06-.94.12-.94-.95v-3.54H104.51v3c0,1.14-.13,1.39-.91,1.46l-3.37.38c-.87.12-.87.06-.87-1.2V177.49a46,46,0,0,1-10.77,5.76l-.12-.19c2.3-1.71,5.43-4.11,10.89-10.44v-3.86c1.32.51,1.73.64,2.43.89a78.77,78.77,0,0,0,5.22-7.21,3.91,3.91,0,0,1-2.3.95c-1.15,0-1.31-.76-1.44-1.52a29,29,0,0,0-2.92-9.55,53.52,53.52,0,0,1-10.28,11.26Zm14.27-17.59a61,61,0,0,1-3.13,5.38,13.9,13.9,0,0,1,4.49,1.83,7.36,7.36,0,0,1,3,5.7,5.58,5.58,0,0,1-.29,1.7,116.61,116.61,0,0,0,7.52-14.61Zm1.15,26.51c-.12.12-.74.76-.9.88v17.34h14.68V172.31Z"/><path d="M162.78,159a2.3,2.3,0,0,0,2,.95c.5,0,2.59-.19,3-.19.65,0,2.26,0,2.26,2.34,0,4.18-2.68,5.88-10.61,7.91.08,2.21.29,7.21.37,9.17,7.73,3.17,10.32,8.54,10.32,10.63,0,2.59-1.11,4.11-2.1,4.11s-1.44-.57-2.3-1.77c-.62-.88-3.45-4.68-5.72-6.07.09,6-.82,8.73-5.67,8.73s-10.16-2.53-10.16-9.11c0-7.85,6.21-7.91,8.31-7.91a17.91,17.91,0,0,1,3.37.32v-7.34a29.42,29.42,0,0,1-5.47.57c-1.27,0-6.13,0-6.13-6a10,10,0,0,1,1.61-5.13,10.28,10.28,0,0,0-.17,1.9c0,2.72,1.36,3.61,4,3.61a21.45,21.45,0,0,0,6.09-1c0-2.91,0-5.57.08-8.42a14.81,14.81,0,0,1-3.74.63c-3.78,0-4.73-3.6-5.68-7.08a6.59,6.59,0,0,0,4.32,2,19.68,19.68,0,0,0,5.14-1.52c0-5.57,0-8.73-2-9.87.29-.88.94-2.91,2.83-2.91a4,4,0,0,1,3.46,3.42,23.88,23.88,0,0,1-.58,2.78c-.2,1.33-.28,3.67-.33,5.06.66-.31,3.46-2.21,4.08-2.21a4,4,0,0,1,2.83,3.79c0,3.11-1.27,3.48-7,5.07,0,2.72,0,3.79,0,8.09,1.81-.76,3.95-1.64,3.95-2.84a3.35,3.35,0,0,0-.49-1.52Zm-11.72,23.92c-1.48,0-5.18,0-5.18,2.59,0,2.85,4.27,3.16,6,3.16,3.58,0,3.83-2.21,4-5.06A13.61,13.61,0,0,0,151.06,182.94Z"/><path d="M197.45,194.83a23.69,23.69,0,0,0,8.35-9.62c-3.13-2.46-4.77-6.07-4.77-17.65,0-2.91,0-3.73.49-11.45a43.9,43.9,0,0,0-5.59,20.37,18.32,18.32,0,0,0,1.48,7.59,3.66,3.66,0,0,1,.41,1.52c0,1.58-.86,3.23-2.51,3.23-.95,0-1.89-.44-3.08-2.53-1.36-2.28-3.42-6.46-3.42-15.06,0-4.93.7-10.25,1.89-20a37.22,37.22,0,0,0,.33-4.81,26.12,26.12,0,0,0-1.15-7.15c3.46,2.85,5.55,8.29,5.55,12.72a25.8,25.8,0,0,1-.9,6.07,87.63,87.63,0,0,0-2,14c0,.38,0,2.85.65,2.85.21,0,.25-.25.83-2.59,1.15-4.43,5.46-21.26,14.47-23.47-.12-2.6-.33-6.08-2.63-6.08-.62,0-1,.32-1.52.89.41-1.39,1.52-4.87,3.62-4.87a4.37,4.37,0,0,1,4.4,4.55c0,.89-.17,4.62-.17,5.38,2.43.44,10.36,1.9,10.36,19.55,0,19.86-11.63,18.85-12.5,18.72-3.37,5.7-9.7,7.47-12.66,8.1Zm11.35-33.59c0-1.4,0-6.9-.25-11.26-2.84.63-5,3.1-6.37,5.12-.08,2.28-.13,4.62-.13,6.9,0,7.21.21,15.68,5.64,17.77C208.8,174.77,208.8,164.78,208.8,161.24ZM213,171a56.09,56.09,0,0,1-.53,8.42c1.73-.83,5.43-2.6,5.43-14.37,0-9.23-3-13.53-5.6-14.74C212.75,161.05,213,166,213,171Z"/><path d="M243.22,196c6.5-2,11.23-5.76,11.23-25.62,0-1.27,0-11.58-1.15-14.93-.25-.7-.62-1.27-1.4-1.27-2.92,0-5.55,11.39-5.55,21.26a20.14,20.14,0,0,0,.41,4.43,6.75,6.75,0,0,1,.12,1.2,2.6,2.6,0,0,1-2.47,2.72c-3.49,0-4.15-8.29-4.15-14.61,0-6.9.78-10.57,3.5-20.69.53-2,1.56-5.88,1.56-7.72s-.91-2-2.06-2.21a3.33,3.33,0,0,1,2.47-1.27c1.4,0,4.19,1,4.19,6.52a12.86,12.86,0,0,1-1.27,6c-2.67,5.76-5.18,11.07-5.18,19.61,0,.38,0,1.58.37,1.58s.24-.12.53-1.58c1-4.74,3.79-12.34,5.47-14.74a4.36,4.36,0,0,1,3.41-2.21c3.05,0,4.57,4.68,4.9,5.69,1.15,3.67,1.44,10.69,1.44,14.11,0,9.87-.66,19-9.95,22.71a16,16,0,0,1-6.42,1.2Z"/><path d="M40.85,235.86l.35-.77c.11-.22.15-.33.23-.33a5.21,5.21,0,0,1,1.28,1.55c0,.21-.18.32-.49.53v10.67c0,.88,0,1.89-1.54,1.89-.22,0-.22-.11-.24-.52a1.85,1.85,0,0,0-1.11-1.77v-.06c.19,0,1.11.11,1.3.11s.32-.11.32-.59V236.05H35.09V249c0,.13,0,.42-.15.43l-.88.08c-.2,0-.26,0-.26-.36v-13.8c.26.09,1.2.46,1.39.54Zm-5.57,4-.05-.19h2.83a33.25,33.25,0,0,0,.51-3.39c.31.09,1.2.4,1.45.48,0,0,.17.06.17.17s0,.13-.34.27a11.32,11.32,0,0,1-1.58,2.47h1.06l.48-1.12c0-.07.08-.19.12-.19a6.53,6.53,0,0,1,.82,1.39c0,.11-.06.11-.12.11H38.57v5.56h.6v-4.53l1.27.16s.21,0,.21.16-.23.22-.28.25v4.42c0,.3,0,.4-.16.42l-.77.09c-.27,0-.27,0-.27-.33v-.45h-2.4v1.21c0,.36,0,.47-.16.48l-.79.1c-.2,0-.24,0-.24-.3v-6.21c.2,0,1.12.11,1.3.14s.18,0,.18.14-.11.18-.29.26v4h.62v-5.56Zm.66-3.41a2.21,2.21,0,0,1,1.79,2c0,.35-.11,1.1-.71,1.1a.39.39,0,0,1-.44-.43,6.52,6.52,0,0,0-.65-2.61Z"/><path d="M54.6,235.93l.4-.79c.06-.1.1-.16.16-.16a5.84,5.84,0,0,1,1.24,1.7c0,.32-.35.43-.48.48a16.81,16.81,0,0,1-1.66,3.62,5.18,5.18,0,0,1,1,1.12,6.41,6.41,0,0,1,1,3.42c0,.58-.11,2.29-1.54,2.29-.24,0-.24-.08-.24-.45,0-1.18-.4-1.45-.74-1.68v3.46c0,.32,0,.43-.24.46l-.71.1c-.27,0-.33.05-.33-.38v-7.5c0,.07,0,.1-.12.1H46.71l-.05-.18h2.89a39,39,0,0,0,.53-4.06H46.93l0-.19h1.91v-2.72c.41.06,1.25.17,1.47.22a.13.13,0,0,1,.13.14c0,.15-.15.19-.31.24v2.12h.5l.47-1.12c.06-.16.07-.2.12-.2a6.47,6.47,0,0,1,1,1.41c0,.1-.07.1-.13.1H50.47c.22.08,1,.46,1.15.56s.15.09.15.16,0,.11-.37.24a28.61,28.61,0,0,1-1.56,3.1h.77l.54-1.36c.06-.12.08-.19.14-.19a7.61,7.61,0,0,1,1.16,1.62V235.4a10.1,10.1,0,0,1,1.41.53Zm-4.25,7.53.4-.83c.1-.21.11-.24.16-.24a5.94,5.94,0,0,1,1.21,1.54c0,.19-.14.3-.45.53v3.85c0,.28,0,.45-.24.48l-.74.09c-.25,0-.25,0-.25-.34v-1H48.63v1.14c0,.29,0,.41-.28.45l-.67.09c-.3,0-.32-.06-.32-.33v-5.94a14.17,14.17,0,0,1,1.4.52Zm-2.78-5.84a3,3,0,0,1,1.64,2.53c0,1.17-.64,1.17-.8,1.17-.39,0-.41-.22-.42-.59a10.9,10.9,0,0,0-.43-3.08Zm1.06,6v3.71h1.81v-3.71Zm5.1-7.52v9.2a2.29,2.29,0,0,0,.6.08c.3,0,.67,0,.67-1.2a8.76,8.76,0,0,0-.87-3.42,44,44,0,0,0,.52-4.66Z"/><path d="M64.84,248.59c1-.42,3.38-1.48,3.38-6.45,0-2.31-.68-5.7-3.06-5.69a4.11,4.11,0,0,1,.51,1.88c0,1.61-1.13,9.25-3.31,9.25-.71,0-.81-.67-.94-1.47a5.86,5.86,0,0,0-.49-1.67,4,4,0,0,1-.41-1.84c0-3.78,2.48-6.72,4.92-6.72,2.21,0,4.17,2.33,4.17,6.66,0,2.86-1,4.61-2.07,5.26a5.71,5.71,0,0,1-2.7.85Zm-3.34-4.92a3.66,3.66,0,0,0,.15,1.3c.14.35.4.7.61.7.82,0,2.77-5,2.8-9.18C61.87,237.16,61.5,242.42,61.5,243.67Z"/><path d="M73.77,238.52a5.74,5.74,0,0,1,1.18.86,40.22,40.22,0,0,0,.73-4.77c.33.15,1.48.63,1.65.72a.12.12,0,0,1,.08.12c0,.11,0,.11-.31.16a15,15,0,0,1-2,3.9,2.76,2.76,0,0,1,.78,1.83c0,1-.58,1.36-.95,1.36s-.3-.16-.32-.42a9.28,9.28,0,0,0-.83-3.73Zm3.36,6.93a7.64,7.64,0,0,0-.49-2.08l0,0A3.25,3.25,0,0,1,78.43,246c0,.83-.44,1.42-.9,1.42-.22,0-.25-.13-.26-.29s-.08-1.13-.1-1.36a21.78,21.78,0,0,1-2.84,2.4c-.09-.36-.48-2-.56-2.35l1-.11a50.38,50.38,0,0,0,2-7.41l1.59.89a.19.19,0,0,1,.09.15.1.1,0,0,1-.11.11.83.83,0,0,1-.22,0A25.85,25.85,0,0,1,75,245.67Zm2.26-6.87H78.1l0-.19h1.33V234.6c.18,0,1.23.2,1.47.25s.17,0,.17.13-.2.19-.33.24v3.17h.91l.31-.72c.08-.19.19-.42.25-.42a5.53,5.53,0,0,1,1.26,1.56c0,.16-.12.28-.44.56a46.44,46.44,0,0,1-.45,7.81c-.12.62-.43,2.21-1.68,2.21-.36,0-.36-.1-.36-.56A1.7,1.7,0,0,0,79.36,247a7.15,7.15,0,0,1-2.68,2.5v0a9.29,9.29,0,0,0,2.52-5.76c.13-1,.2-3.23.2-4.27Zm1.31.61c0,3.65-.33,6.08-1.31,7.75a9.85,9.85,0,0,0,1.33.11c.4,0,.6,0,.76-1.57s.24-3.79.24-6.77v-.13h-1Z"/><path d="M91.34,236.12a.52.52,0,0,0,.3.11l.4,0c.34,0,.52.47.52.77,0,.7-1.33,1.6-2,2-.15.58-.39,1.54-.49,2,.72-1.15,2-3,3.8-3a2.32,2.32,0,0,1,2,2c0,.4-.22,1.09-.62,1.09-.19,0-.35-.16-.65-.46a1,1,0,0,0-.79-.39c-.61,0-.84.48-.84,1.25,0,.5.12,1.78.36,3.73a3,3,0,0,1,2,2.43c0,.31-.11,1.19-.61,1.19-.22,0-.27-.08-.77-.85a3.16,3.16,0,0,0-.56-.69c0,.86-.11,2-1.45,2-.51,0-2-.1-2-2.17s1.55-2.16,2.21-2.14c0-.5,0-1.1,0-1.65,0-2.72,1.18-3.22,1.42-3.31.44-.19.58-.24.58-.51a1.19,1.19,0,0,0-1.2-.84c-.19,0-1.66.08-2.88,3a36.5,36.5,0,0,0-1.43,4.4c-.11.4-.42.74-.66.74s-.54-.77-.54-1.6c0-.26,0-.3.29-.75a16.65,16.65,0,0,0,1.7-4.92,2.4,2.4,0,0,1-.86.2c-1,0-1.16-1.93-1.21-2.6.28.61.51.88,1.08.88a3.07,3.07,0,0,0,1.33-.37,12.36,12.36,0,0,0,.19-1.84c0-.46-.13-.69-.65-.72.29-.3.52-.54.86-.54s.91.3.91,1.22A6.1,6.1,0,0,1,91,237c.22-.14.53-.35.53-.54a.36.36,0,0,0-.16-.27Zm.08,10.21c-.24,0-.87,0-.87.53s.76.8.94.8c.82,0,.81-.75.8-1.27A6.58,6.58,0,0,0,91.42,246.33Z"/><path d="M107,241.77c-.31,4.59-1.61,7-4.1,7-1.92,0-2.16-1.9-2.16-4.94,0-1.09.18-5.81.18-6.77,0-.52,0-.87-.78-.85.19-.4.44-.93,1.14-.93a1.11,1.11,0,0,1,1.1,1c0,.23-.23,1.19-.25,1.38-.14,1.2-.32,4.61-.32,7,0,1.13,0,2.16,1.19,2.16,1.92,0,3.15-2.07,4-5.09Zm-.78-3c0,.32-.11.77-.41.77s-.29-.17-.45-.85a3.86,3.86,0,0,0-.81-1.56A1.64,1.64,0,0,1,106.18,238.73Zm1.3-1.43c0,.45-.2.77-.38.77s-.15-.08-.42-.7a3.56,3.56,0,0,0-1-1.46C107,235.8,107.48,236.58,107.48,237.3Z"/><path d="M114.23,249.21c1.36-.42,2.8-.85,3.29-4.91a5.37,5.37,0,0,0-3.09-.79,29.84,29.84,0,0,0-.94,3.17c-.23.87-.46,1.55-1,1.55-.08,0-.91,0-1.14-1.63a4.83,4.83,0,0,0-.2-.86,2.53,2.53,0,0,1-.17-.87,3.12,3.12,0,0,1,3-2.93c.2-.57,1.61-4.64,1.61-4.73s-.07-.16-.12-.16-.43.59-.55.81c-.4.72-.61.93-1,.93s-1.17-.54-1.17-1.78a4,4,0,0,1,0-.49c.1.27.19.51.54.51.55,0,1.6-1.14,1.76-1.33s.44-.51.81-.51a1.37,1.37,0,0,1,1.19,1.38c0,.35-.05.43-.42.94A27.58,27.58,0,0,0,115,242a8.27,8.27,0,0,1,2.69.76c0-.3,0-.51,0-.59,0-.61-.11-.93-.58-1,.2-.53.39-1,.72-1s1.17,1,1.17,1.53a2.2,2.2,0,0,1-.2.73,3.35,3.35,0,0,0-.13.88c1.54.9,1.61,1.2,1.61,1.78s-.29,1.25-.55,1.25-.32-.13-.7-.63-.44-.51-.51-.59c-.22,1.81-.75,3.12-1.72,3.6a5.89,5.89,0,0,1-2.56.61Zm-2.59-3.54c0,.32.14.66.41.66s.24,0,.6-.82c.1-.24.55-1.49.65-1.76A2.3,2.3,0,0,0,111.64,245.67Z"/><path d="M125.33,237.46a15.56,15.56,0,0,0,1.5-.43c1.24-.35,2.47-.64,3.72-.88.35-.06.36-.08.78-.38.06-.05.1-.08.15-.08s1.43.52,1.43,1.45c0,.31-.15.72-.47.72a1.58,1.58,0,0,1-.6-.16,3.43,3.43,0,0,0-1-.16,2,2,0,0,0-1.85,1.52,14.58,14.58,0,0,0-.62,4.52c0,2.8.87,3.12,2,3.52a1,1,0,0,1,.76,1.07c0,.82-.25,1.11-.59,1.11a3.19,3.19,0,0,1-1.35-.44c-1.18-.67-1.76-1.84-1.76-4.48,0-2.83.79-5.49,2-6.64a8.73,8.73,0,0,0-3.09,1.33c-.46.3-.53.33-.71.33-.66,0-1.1-.91-1.1-1.84a2.39,2.39,0,0,1,.15-.93C124.74,237,124.85,237.46,125.33,237.46Zm6.89,4.58c0,.4-.17.75-.41.75s-.33-.19-.53-.8a4,4,0,0,0-.95-1.55A1.82,1.82,0,0,1,132.22,242Zm-.5-3.15a1.36,1.36,0,0,1,1.55,1.32c0,.45-.25.69-.4.69s-.2-.06-.51-.65a3,3,0,0,0-1.25-1.3A4.2,4.2,0,0,1,131.72,238.89Z"/><path d="M140.48,249.37c2.06-.9,3.42-1.87,3.42-5.36,0-.75,0-3-1.47-3.49a5.46,5.46,0,0,1-.05,1.1,11.47,11.47,0,0,1-1.24,3.67,5.1,5.1,0,0,1,.21,1.17,1,1,0,0,1-.7.93c-.29,0-.42-.52-.48-.77-.41.48-1.36,1.47-1.92,1.47s-.54-.37-.67-.78c-.05-.16-.32-.85-.36-1a2.25,2.25,0,0,1-.08-.67,6.39,6.39,0,0,1,.63-2.61,5.28,5.28,0,0,1,2.13-2.35v-1.62a2,2,0,0,1-.86.26c-1,0-1.43-1.43-1.65-2.18.2.29.4.59.78.59a11,11,0,0,0,1.73-.49c0-1.65,0-1.94-.41-1.94a.36.36,0,0,0-.17,0c.08-.22.26-.81.86-.81a1,1,0,0,1,.86.89c0,.18-.11,1.24-.13,1.46.58-.21.64-.24.64-.5a.76.76,0,0,0,0-.16l0,0c.14.23.2.24.7.31a.92.92,0,0,1,.87,1c0,.39-.06.59-.49.66a5.54,5.54,0,0,0-1.85.49c0,.48,0,1.13-.05,1.59a3.42,3.42,0,0,1,1.08-.22,3.38,3.38,0,0,0-.24-1.08,1.63,1.63,0,0,1,.82,1.09c1.84.19,2.82,2.34,2.82,4.43,0,.74-.11,3.24-1.69,4.13a6.78,6.78,0,0,1-3,.79Zm-2.31-3.83c0,.33.06.55.32.55s1.07-.67,1.49-1.15c-.08-1.59-.08-2.32-.08-3.62A7.34,7.34,0,0,0,138.17,245.54Zm2.56-4.86a22.28,22.28,0,0,0,.14,3,7.46,7.46,0,0,0,1-3.27A2.14,2.14,0,0,0,140.73,240.68Z"/><path d="M150.37,249.4c1.64-.51,2.84-1.45,2.84-6.48a19.09,19.09,0,0,0-.29-3.78c-.07-.17-.16-.32-.36-.32-.74,0-1.4,2.88-1.4,5.38a5.25,5.25,0,0,0,.1,1.12,1.74,1.74,0,0,1,0,.3.65.65,0,0,1-.62.69c-.88,0-1-2.09-1-3.69a17.36,17.36,0,0,1,.88-5.24,10.41,10.41,0,0,0,.4-1.95c0-.47-.23-.51-.52-.56a.8.8,0,0,1,.62-.32c.36,0,1.06.25,1.06,1.65a3.18,3.18,0,0,1-.32,1.52,10.68,10.68,0,0,0-1.31,5c0,.1,0,.4.09.4s.07,0,.14-.4A14.8,14.8,0,0,1,152,239a1.09,1.09,0,0,1,.87-.56c.77,0,1.15,1.19,1.24,1.44a15.29,15.29,0,0,1,.36,3.57c0,2.5-.17,4.8-2.52,5.75a4,4,0,0,1-1.62.3Z"/><path d="M159.13,245.16a3.45,3.45,0,0,1,2.29.85,2.38,2.38,0,0,1,.65,1.66c0,.74-.3,1.25-.76,1.25s-.72-.65-.76-.85a4.65,4.65,0,0,0-1.49-2.78Z"/><path d="M172.44,238.79c.41-.35.52-.41.72-.41.37,0,.71.57.71,1,0,.85-1,1.12-1.34,1.12-.5,0-.76-.24-1.34-.81,0,.52,0,.8.24,5a5.72,5.72,0,0,1,2.26,1.86,2,2,0,0,1,.32,1.12c0,.67-.32,1.1-.61,1.1s-.37-.14-.85-.8a5,5,0,0,0-1.12-1.33c-.05.82-.18,2.42-1.77,2.42a2.39,2.39,0,0,1-2.28-2.55,2.12,2.12,0,0,1,2.26-2.27,3.17,3.17,0,0,1,.65.08c0-.59-.1-2.58-.1-3.92,0-3.94,0-4.07-.12-4.37a.63.63,0,0,0-.56-.43c.31-.39.57-.66.88-.66a1.4,1.4,0,0,1,1.1,1.38c0,.14-.12.77-.14.89a13.42,13.42,0,0,0-.16,2.23A3.08,3.08,0,0,0,172.44,238.79Zm-3.59,6.39c-.69,0-1.09.27-1.09.91,0,1.15,1.2,1.17,1.37,1.17.82,0,1.09-.53,1.16-1.59A2.54,2.54,0,0,0,168.85,245.18Z"/><path d="M183.25,239.19a1.6,1.6,0,0,0,.95.34l.76,0c.19,0,.52,0,.52.56a1.63,1.63,0,0,1-.41,1.05,4.13,4.13,0,0,1-1.49.74c.2.61.35,1.09.56,1.65a4.28,4.28,0,0,1,.41,1.42c0,.8-.18,1.68-.71,1.68-.36,0-.46-.22-.69-.7a2.86,2.86,0,0,0-2.22-1.65c-1,0-1.47.9-1.47,1.78,0,1.1.52,1.15,1.14,1.15.33,0,1.8-.16,2.1-.16.52,0,.79.46.79,1.13,0,.45,0,1-1.78,1-3,0-3.26-1.54-3.26-2.69,0-2.14,1.39-2.5,2.17-2.5a4.79,4.79,0,0,1,1.85.52,1.75,1.75,0,0,0,.5.12c.23,0,.35-.09.35-.36a18.14,18.14,0,0,0-.43-2.15,8.88,8.88,0,0,1-2.17.43c-.35,0-1.28,0-1.28-1.36a2,2,0,0,1,.63-1.55,1.93,1.93,0,0,0-.2.75c0,.56.35.61.63.61a8.88,8.88,0,0,0,2-.43c0-.08-.23-.86-.49-1.68a4.67,4.67,0,0,1-1.68.33c-1.52,0-1.63-1.28-1.68-2,.39.6.61.72,1,.72a4,4,0,0,0,1.81-.67c-.29-.77-.55-1.44-1.36-1.61.1-.77.54-.92,1-.92s.62.18.77.82.16.74.3,1.26a.92.92,0,0,1,.54-.2.89.89,0,0,1,.91.89c0,.55-.47.83-1,1.11.27,1,.3,1.09.5,1.74.36-.14.55-.22.55-.48s-.3-.48-.42-.59Z"/><path d="M195.26,245.35v-2.77h-.77v.85c0,.21,0,.37-.19.39l-.79.09h-.1a25.47,25.47,0,0,1-3.65,2.93c-.06-.33-.35-1.93-.42-2.29l1.33-.3V240.5h-1.1l0-.19h1.15v-4.05H189.4l-.06-.17h2.35l.52-1.13c.06-.12.08-.19.12-.19a13.53,13.53,0,0,1,1,1.12v-.72a9.45,9.45,0,0,1,1.19.55h2.74l.42-.93c.07-.16.07-.18.11-.18a6.57,6.57,0,0,1,1.24,1.52c0,.16-.31.45-.44.56V243c0,.41,0,.48-.21.49l-.87.1c-.16,0-.16-.07-.16-.23v-.8h-.86v2.77h.41l.54-1.18c.06-.15.08-.21.12-.21a8,8,0,0,1,1.14,1.47c0,.1-.07.1-.13.1h-2.08v3.15h.64l.6-1.34c.06-.15.09-.19.14-.19a10.09,10.09,0,0,1,1.21,1.61c0,.1-.07.1-.13.1h-7.66l0-.18h4v-3.15h-2.35l0-.18Zm-3.34-9.09v4.05h0l.42-1.15c0-.15.08-.21.14-.21s.26.32.8,1.25v-3.94Zm0,4.24V244l1.39-.31a.53.53,0,0,1,0-.14v-3h-1.38Zm2.57-4.59V239h.77v-3.06Zm0,3.23v3.27h.77v-3.27Zm2-3.23V239h.86v-3.06Zm0,3.23v3.27h.86v-3.27Z"/><path d="M206.5,239l.27-.64c.14-.34.17-.35.21-.35a8,8,0,0,1,.87,1c.15.17.21.24.21.38s-.13.26-.34.39v1a11.55,11.55,0,0,0,1-4.93h-1l0-.17h3.31l.3-.64c.15-.31.2-.31.24-.31a4,4,0,0,1,1.15,1.43s0,.25-.44.46c-.11,2.82-.41,3.81-1.58,3.81-.28,0-.3-.08-.31-.56a1.19,1.19,0,0,0-.71-1.22v0c.12,0,.69.12.82.12s.44,0,.53-.88c0-.09.09-1.74.1-2h-1c-.15,3.33-1.52,4.6-2.27,5.16v4.4h1.86V243H209a13.7,13.7,0,0,1-1,2.32l0,0a33.19,33.19,0,0,0,.31-4.2c.19,0,1,.24,1.2.27s.19,0,.19.13-.18.21-.24.23c-.09.35-.13.57-.3,1.08h.56v-2.17l1.33.22s.21,0,.21.16-.14.18-.33.24v1.55h.34l.42-.89c.07-.13.09-.19.13-.19a5.76,5.76,0,0,1,.77,1.15c0,.11,0,.13-.08.13h-1.58v2.43h.34l.58-1.12c.08-.16.09-.18.11-.18a5.71,5.71,0,0,1,.81,1.38c0,.09,0,.11-.09.11h-1.75v3.3c0,.14,0,.4-.15.41l-.81.08c-.22,0-.25,0-.25-.31v-3.48h-1.86v2.13c0,.64,0,1.58-1.4,1.58-.26,0-.28-.12-.3-.57a1.41,1.41,0,0,0-1-1.49v0l1.21,0c.35,0,.35-.06.35-.49v-2.11h-1.94c-.11,2-.44,3.52-1.74,4.76v0c.25-.57.66-1.5.66-4.73v-5.11c-.27.42-.48.69-.67.94h0a29,29,0,0,0,1.32-5.92l1.22.51c.17.08.34.14.34.24s-.21.14-.3.16c-.12.35-.16.46-.23.65H206l.3-.56c.11-.22.12-.24.18-.24a4.36,4.36,0,0,1,1.14,1.56c0,.28-.51.32-.57.32a13.84,13.84,0,0,1-1.3,1.82Zm-1.22,0c.26-.91.52-2.1.65-2.7h-.77a17.55,17.55,0,0,1-1.1,2.43c.25.09.51.17.74.27Zm-.15,2.71h-.44v2.09c0,.26,0,.61,0,.66h.46Zm-.44-2.53v2.35h.44v-2.35Zm1.47,0v2.35h.45v-2.35Zm.45,2.53h-.45v2.75h.45Z"/><path d="M216.41,240.2l-.06-.19h3.24v-2.79h-2.22l-.05-.17h2.27v-2.5c.2,0,1.35.16,1.56.21a.15.15,0,0,1,.14.14c0,.16-.24.24-.36.27v1.88H221l.57-1.24c.08-.17.08-.17.11-.17a7.92,7.92,0,0,1,1,1.47c0,.11-.05.11-.1.11h-1.71V240h.36a36.39,36.39,0,0,0,2.59-5.08l1.19,1.3a.38.38,0,0,1,.14.24s0,.13-.1.13a1.17,1.17,0,0,1-.3-.1,27.12,27.12,0,0,1-2,3.51h1.34l.62-1.32c.09-.17.1-.19.13-.19a8.29,8.29,0,0,1,1.28,1.59c0,.11,0,.11-.11.11H222.7a17,17,0,0,1-2,2.43h2.36l.33-.67c.12-.26.15-.29.2-.29a7.31,7.31,0,0,1,1.23,1.31.5.5,0,0,1,0,.12c0,.17-.05.2-.41.52v5.19c0,.16,0,.5-.19.51l-.86.08c-.26,0-.26-.16-.26-.32v-.62h-3.33v.4c0,.11,0,.45-.18.46l-.9.08c-.24,0-.24-.08-.24-.38V244.5a7.18,7.18,0,0,1-2.17,1.12v0a14.69,14.69,0,0,0,2.18-2v-1.5l1,.35a22.33,22.33,0,0,0,1.68-2.24Zm4.14,2.62c-.16.16-.35.34-.73.68v1.89h3.33v-2.57Zm-.73,2.76v2.69h3.33v-2.69Z"/><path d="M233.48,246.49c0,1.33-.69,2.43-1.58,2.43s-1.58-1.1-1.58-2.43.72-2.43,1.58-2.43S233.48,245.13,233.48,246.49Zm-2.74,0c0,1,.52,1.79,1.16,1.79s1.17-.81,1.17-1.79-.52-1.79-1.17-1.79S230.74,245.48,230.74,246.49Z"/><path d="M40.85,260.86l.35-.77c.11-.22.15-.33.23-.33a5.21,5.21,0,0,1,1.28,1.55c0,.21-.18.32-.49.53v10.67c0,.88,0,1.89-1.54,1.89-.22,0-.22-.11-.24-.52a1.85,1.85,0,0,0-1.11-1.77v-.06c.19,0,1.11.11,1.3.11s.32-.11.32-.59V261.05H35.09V274c0,.13,0,.42-.15.43l-.88.08c-.2,0-.26,0-.26-.36v-13.8c.26.09,1.2.46,1.39.54Zm-5.57,4.05-.05-.19h2.83a33.25,33.25,0,0,0,.51-3.39c.31.09,1.2.4,1.45.48,0,0,.17.06.17.17s0,.13-.34.27a11.32,11.32,0,0,1-1.58,2.47h1.06l.48-1.12c0-.07.08-.19.12-.19a6.53,6.53,0,0,1,.82,1.39c0,.11-.06.11-.12.11H38.57v5.56h.6v-4.53l1.27.16s.21,0,.21.16-.23.22-.28.25v4.42c0,.3,0,.4-.16.42l-.77.09c-.27,0-.27,0-.27-.33v-.45h-2.4v1.21c0,.36,0,.47-.16.48l-.79.1c-.2,0-.24,0-.24-.3v-6.21c.2,0,1.12.11,1.3.14s.18,0,.18.14-.11.18-.29.26v4h.62v-5.56Zm.66-3.41a2.21,2.21,0,0,1,1.79,2c0,.35-.11,1.1-.71,1.1a.39.39,0,0,1-.44-.43,6.52,6.52,0,0,0-.65-2.61Z"/><path d="M54.6,260.93l.4-.79c.06-.1.1-.16.16-.16a5.84,5.84,0,0,1,1.24,1.7c0,.32-.35.43-.48.48a16.81,16.81,0,0,1-1.66,3.62,5.18,5.18,0,0,1,1,1.12,6.41,6.41,0,0,1,1,3.42c0,.58-.11,2.29-1.54,2.29-.24,0-.24-.08-.24-.45,0-1.18-.4-1.45-.74-1.68v3.46c0,.32,0,.43-.24.46l-.71.1c-.27,0-.33.05-.33-.38v-7.5c0,.07,0,.1-.12.1H46.71l-.05-.18h2.89a39,39,0,0,0,.53-4.06H46.93l0-.19h1.91v-2.72c.41.06,1.25.17,1.47.22a.13.13,0,0,1,.13.14c0,.15-.15.19-.31.24v2.12h.5l.47-1.12c.06-.16.07-.2.12-.2a6.47,6.47,0,0,1,1,1.41c0,.1-.07.1-.13.1H50.47c.22.08,1,.46,1.15.56s.15.09.15.16,0,.11-.37.24a28.61,28.61,0,0,1-1.56,3.1h.77l.54-1.36c.06-.12.08-.19.14-.19a7.61,7.61,0,0,1,1.16,1.62V260.4a10.1,10.1,0,0,1,1.41.53Zm-4.25,7.53.4-.83c.1-.21.11-.24.16-.24a5.94,5.94,0,0,1,1.21,1.54c0,.19-.14.3-.45.53v3.85c0,.28,0,.45-.24.48l-.74.09c-.25,0-.25,0-.25-.34v-1H48.63v1.14c0,.29,0,.41-.28.45l-.67.09c-.3.05-.32-.06-.32-.33v-5.94a14.17,14.17,0,0,1,1.4.52Zm-2.78-5.84a3,3,0,0,1,1.64,2.53c0,1.17-.64,1.17-.8,1.17-.39,0-.41-.22-.42-.59a10.9,10.9,0,0,0-.43-3.08Zm1.06,6v3.71h1.81v-3.71Zm5.1-7.52v9.2a2.29,2.29,0,0,0,.6.08c.3,0,.67,0,.67-1.2a8.76,8.76,0,0,0-.87-3.42,44,44,0,0,0,.52-4.66Z"/><path d="M62.66,271.09c.21.3.67.85,1,.85,1.34,0,1.77-4.4,1.77-6,0-.4,0-1.42-.58-1.42-.17,0-.42.17-.95.56a67.46,67.46,0,0,1-2.17,8.24c-.2.38-.4.58-.66.58s-.54-.66-.54-1.73c0-.26,0-.29.23-.55a11.1,11.1,0,0,0,1-2.25c.39-1.2.55-1.83.95-3.43a2.82,2.82,0,0,1-1.18.51c-.42,0-.77-.52-.77-1.15a3.87,3.87,0,0,1,.49-1.58c0,.67.05,1,.46,1a4.8,4.8,0,0,0,1.36-.29,27.93,27.93,0,0,0,.59-3.28c0-.39-.2-.47-.29-.47a.17.17,0,0,0-.12,0c0-.82.56-.87.78-.87a1,1,0,0,1,.94,1,4.18,4.18,0,0,1-.22.95c-.12.43-.28,1.07-.56,2.25a3,3,0,0,1,.66-.12c.25,0,1.72.14,1.72,3.39,0,2.16-.79,6.64-2.51,6.64a1,1,0,0,1-1-.91,7,7,0,0,0-.4-1.89Zm4.79-10a1.31,1.31,0,0,1,1.27,1.32c0,.3-.12.72-.44.72s-.21,0-.72-.93a2,2,0,0,0-1-.88A1.86,1.86,0,0,1,67.45,261.05Zm.12,2.53c1.37,0,2,1.52,2,2.9,0,1.65-.73,1.84-.89,1.84-.5,0-.5-.77-.5-1,0-2.18-.12-3.44-1.41-3.63A3.07,3.07,0,0,1,67.57,263.58Zm.71-4c.68,0,1.37.35,1.37,1.12,0,.22-.12.75-.39.75s-.19-.09-.42-.48a4,4,0,0,0-1.27-1.26A2.08,2.08,0,0,1,68.28,259.55Z"/><path d="M79,263.36V268h1.33l.55-1.33c.07-.17.07-.2.12-.2a10.2,10.2,0,0,1,1.25,1.61c0,.11-.07.11-.13.11H79v5.57h2.13l.67-1.36c.1-.19.11-.2.14-.2a10.87,10.87,0,0,1,1.24,1.63c0,.11-.08.11-.14.11H73.56l0-.18h4.13v-5.57H74.48l0-.19h3.2v-4.67H74l0-.18h6.86l.64-1.42c.08-.18.09-.21.14-.21a10.43,10.43,0,0,1,1.23,1.7c0,.11-.06.11-.12.11Zm-2.83-4c.48.05,3,.29,3,2.32,0,1-.54,1.42-1,1.42-.22,0-.24-.08-.46-.81a7,7,0,0,0-1.56-2.88Z"/><path d="M93.47,264.43c.17.11,1.19.77,1.19.91s-.2.12-.29.1a16.75,16.75,0,0,1-1.73,2.21h2.07l.61-1.36c.06-.13.08-.19.13-.19a9.23,9.23,0,0,1,1.23,1.61c0,.11-.07.11-.14.11h-4v2.6h1.75l.57-1.27c.08-.17.09-.19.13-.19a12.57,12.57,0,0,1,1.2,1.52c0,.13-.08.13-.14.13H92.5v3.33c0,.29,0,.34-.23.35l-.88.1c-.22,0-.22-.13-.22-.35v-3.43H87.75l0-.19h3.46v-2.6H87.06l0-.17H90.1c-.13-.11-.13-.19-.19-1a7.81,7.81,0,0,0-.42-2.26h-.91l0-.18h2.64v-1.87c.21,0,1.44.13,1.55.16s.1,0,.1.11-.19.21-.32.24v1.36h1.39l.47-1.08c.07-.18.08-.21.12-.21s.08.08.2.21c.14-.72.19-1,.28-1.51H88.81c0,.16,0,.42,0,.79,0,1.21-.44,2.09-1,2.09-.37,0-.68-.41-.68-1a1,1,0,0,1,.24-.67,5.67,5.67,0,0,0,1.1-2.45h0a6.47,6.47,0,0,1,.23,1h2.39v-1.86c.42.05,1.1.11,1.52.21,0,0,.14,0,.14.13s-.1.17-.33.22v1.3h2.39l.37-.62c.07-.13.13-.21.19-.21a5,5,0,0,1,.7.86,2.5,2.5,0,0,1,.51,1c0,.33-.07.35-.66.46a6.66,6.66,0,0,1-1,.67c.09.1.36.42.43.52a.34.34,0,0,1,.09.19c0,.11-.07.11-.13.11Zm-3.85,0a2.81,2.81,0,0,1,1.57,2.23,1,1,0,0,1-.5,1h1.63a19.92,19.92,0,0,0,.65-3.22Z"/><path d="M107.66,262.05a2.74,2.74,0,0,0,1.08.41c.69.16,1,.55,1,1,0,.23-.2.79-.47.79a10.38,10.38,0,0,1-1.19-.4,2.84,2.84,0,0,0-.87-.15c-.41,0-.94.1-1.1.11,0,1.08,0,1.59,0,2.23a7.2,7.2,0,0,1,.42,1.25,10.14,10.14,0,0,1,.27,2.43c0,4.26-3.15,4.83-4.35,4.79v-.07a3.69,3.69,0,0,0,2.85-3.33.77.77,0,0,1-.65.37c-.68,0-.76-1-.81-1.57a10.28,10.28,0,0,0-.2-1.31,5.26,5.26,0,0,1-.14-1.06c0-1.16.7-2.12,1.39-2.12l.22,0c0-.16,0-.29,0-1.41a11.38,11.38,0,0,0-2.89,1.1c-.41.24-.42.26-.5.26-.24,0-.51-.3-.68-.7a5.09,5.09,0,0,1-.31-1.59,1.46,1.46,0,0,0,1,.42,11.55,11.55,0,0,0,1.45-.21c.32-.07,1.67-.37,1.95-.42,0-2.3,0-2.59-.49-2.65.06-.26.17-.64.57-.64a1.29,1.29,0,0,1,1.18,1.36c0,.14-.17,1.45-.19,1.72.08,0,1.43-.22,1.45-.22a.14.14,0,0,0,.12-.14c0-.05,0-.08-.11-.18Zm-3.73,5.82c0,.64.41,1.88.83,1.88s.55-.63.55-1.67c0-.51,0-1.44-.56-1.44A1.33,1.33,0,0,0,103.93,267.87Z"/><path d="M118.26,266c2.1,0,2.64,2.44,2.64,3.93,0,2.69-1.34,4-3.1,4a2,2,0,0,1-2.12-2.07c0-.86.44-1.78,1.31-1.78.7,0,1.16.6,1.16,1.44a1.3,1.3,0,0,1-.14.68c.47-.12,1.65-.4,1.65-3,0-.89-.17-2.67-1.59-2.67-.89,0-1.64.71-2.44,3a11.87,11.87,0,0,0-.49,1.87c0,.24-.14.64-.54.64-.6,0-.69-1-.69-1.57s.08-.73.69-1.74c.16-.28,2.52-4.44,3.52-6.49a.85.85,0,0,0,.09-.35c0-.06,0-.13-.07-.13a3.09,3.09,0,0,0-.65.68c-.48.64-.65.75-1,.75-.71,0-1.08-1.12-1.14-1.7a.87.87,0,0,0,.55.27c.46,0,1.44-.86,1.93-1.28s.52-.45.68-.45,1.22.25,1.22,1.61c0,.48-.11.59-.48,1a19.66,19.66,0,0,0-2.06,3.65A2.2,2.2,0,0,1,118.26,266Zm-1,5.65c0-.26-.12-.6-.43-.6s-.36.34-.36.48a.58.58,0,0,0,.56.58A.54.54,0,0,0,117.22,271.67Z"/><path d="M126.64,259.87a3.33,3.33,0,0,0-1.1,2.58.44.44,0,0,0,0,.19c.09-.39.3-.66.62-.66s.73.45.73,1.12-.29,1.19-.74,1.19c-.23,0-.87-.2-.87-1.62,0-1.1.36-2.5,1.26-3Zm2.51,0a3.3,3.3,0,0,0-1.1,2.58.68.68,0,0,0,0,.19c.1-.34.24-.66.62-.66s.74.45.74,1.12-.3,1.19-.74,1.19c-.24,0-.88-.2-.88-1.62a3.51,3.51,0,0,1,1.26-3Z"/><path d="M133.71,274.05c1.1-.51,4.51-2.08,5.72-8.51a15.54,15.54,0,0,0-4,1.26,2.37,2.37,0,0,1-.54.3,2.39,2.39,0,0,1-1.28-1.82,2.7,2.7,0,0,1,.28-1c.29,1,.72,1,1,1s4-.28,4.57-.71c.1-.07.44-.61.53-.61s1.25,1.13,1.25,1.63c0,.27-.18.43-.52.75-.63,2.61-2.13,7.28-7,7.83Zm2.49-12.85a3.7,3.7,0,0,0,2.61-.88c.26.08,1.2.54,1.2,1.09,0,.25-.16.68-.31.73s-3.2.45-3.47.45c-1,0-1.21-.83-1.49-1.92A1.72,1.72,0,0,0,136.2,261.2Z"/><path d="M147.86,269.65c0,1.25-.39,2.78-1.42,2.78-.61,0-.69-.8-.69-1,0-.49.19-.67.61-1.07a4.8,4.8,0,0,0,1.28-2.82A9.62,9.62,0,0,1,147.86,269.65Zm.32,1.31a4,4,0,0,0,.95.24c.24,0,.3-.21.33-.8s.09-3.23.09-5a8,8,0,0,0-2,.64,5.65,5.65,0,0,1-.57.23c-.42,0-1.07-.93-1.07-1.8a1.62,1.62,0,0,1,.17-.78,1.41,1.41,0,0,0,1.31.93,19,19,0,0,0,2.18-.28,16,16,0,0,0-.17-2.78.68.68,0,0,0-.73-.38c.21-.42.51-1,.94-1s1.16.56,1.16,1c0,.13-.17.62-.19.73s-.05,1.78-.05,2.24c1.2-.25,1.69-.4,2-1a3.22,3.22,0,0,1,1.42.75.77.77,0,0,1,.25.58c0,.19-.08.72-.43.72l-.7-.13a5.08,5.08,0,0,0-.89-.12,10.63,10.63,0,0,0-1.6.2c0,2.85,0,3.65.07,4.93,0,.24.07,1.32.07,1.54,0,1-.46,2.24-1,2.24-.26,0-.29-.19-.41-.85a3.1,3.1,0,0,0-1-2Zm6.13-.08c0,1.38-.73,1.41-.81,1.41-.46,0-.54-.56-.61-1.09a11.22,11.22,0,0,0-1.39-4.06C152.23,267.58,154.31,268.85,154.31,270.88Zm-.72-8.85c0,.48-.19.77-.43.77s-.25-.1-.53-.91a4.6,4.6,0,0,0-.86-1.68A1.88,1.88,0,0,1,153.59,262Zm1.26-1.15c0,.37-.13.73-.4.73s-.21-.06-.48-.67a6,6,0,0,0-1-1.5C153.62,259.42,154.85,259.74,154.85,260.88Z"/><path d="M158.84,264.06a3.31,3.31,0,0,0,1.09-2.57.79.79,0,0,0,0-.2c-.08.34-.26.66-.61.66s-.74-.45-.74-1.12.29-1.19.74-1.19c.24,0,.87.2.87,1.62a3.43,3.43,0,0,1-1.26,3Zm2.51,0a3.31,3.31,0,0,0,1.09-2.57.87.87,0,0,0,0-.2c-.09.34-.27.66-.62.66s-.73-.45-.73-1.12.29-1.19.74-1.19c.23,0,.87.2.87,1.62a3.47,3.47,0,0,1-1.27,3Z"/><path d="M171.29,273.59c1-.42,3.39-1.48,3.39-6.45,0-2.31-.68-5.7-3.06-5.69a4.25,4.25,0,0,1,.51,1.88c0,1.61-1.14,9.25-3.31,9.25-.71,0-.82-.67-.95-1.47a5.86,5.86,0,0,0-.49-1.67,4.09,4.09,0,0,1-.41-1.84c0-3.78,2.48-6.72,4.93-6.72,2.2,0,4.16,2.33,4.16,6.66,0,2.86-1,4.61-2.06,5.26a5.74,5.74,0,0,1-2.71.85ZM168,268.67a3.57,3.57,0,0,0,.16,1.3c.13.35.39.7.6.7.82,0,2.77-5,2.8-9.18C168.33,262.16,168,267.42,168,268.67Z"/><path d="M180,273.83a16,16,0,0,0,4.4-6.69,6.94,6.94,0,0,0-2.56-2.68,7,7,0,0,1,3.08,1.06,18.31,18.31,0,0,0,.79-3.57.78.78,0,0,0-.61-.85c.14-.27.36-.69.85-.69.65,0,1.49,1.19,1.49,1.56,0,.16,0,.19-.29.54-.65,2.45-.87,3.11-1.16,3.95a3.5,3.5,0,0,1,1,2.34c0,1-.47,1.41-.82,1.41s-.42-.18-.57-.56c-.26-.71-.29-.79-.43-1.12a10.24,10.24,0,0,1-5.13,5.35Z"/><path d="M200.21,262.72a17.29,17.29,0,0,1-6.52,10,1.54,1.54,0,0,0-.47.48c-.05.05-.15.18-.24.18-.36,0-1.38-1.59-1.38-2.6a1.49,1.49,0,0,1,.35-1c.11.44.24.94.62.94.72,0,4.41-1.81,7.6-8Zm-6.27-.75a2.07,2.07,0,0,1,.94,1.77c0,.77-.4,1.33-.78,1.33s-.4-.21-.72-1a7.3,7.3,0,0,0-1.6-2.48A3.88,3.88,0,0,1,193.94,262Z"/><path d="M203.54,270.61a15.94,15.94,0,0,0,2.74-5.52.62.62,0,0,0-.5-.64c.28-.36.39-.48.64-.48.68,0,1.67.89,1.67,1.37,0,.2-.1.29-.32.48a9.85,9.85,0,0,1-4.23,4.85Zm8.48-4.67a4.08,4.08,0,0,1,.91,2.46c0,.82-.42,1.6-.91,1.6s-.48-.43-.58-.94a10.75,10.75,0,0,0-2.61-5.27A7.42,7.42,0,0,1,212,265.94Zm-.1-3c0,.37-.15.78-.42.78s-.36-.3-.52-.67a3.82,3.82,0,0,0-1.12-1.69C211.56,261.37,211.92,262.32,211.92,262.91Zm-.5-2.85c.5,0,1.64.18,1.64,1.31,0,.23-.06.72-.39.72-.15,0-.18-.06-.45-.56a5.44,5.44,0,0,0-1.19-1.44Z"/><path d="M218.66,266.4c.44,0,5.26-.18,5.67-.21.12,0,.66-.09.78-.09s1.25.19,1.25.86a.88.88,0,0,1-.48.74,2.73,2.73,0,0,1-1.19.17c-4.77,0-5.3,0-5.72.16a6.4,6.4,0,0,1-.77.35,2.34,2.34,0,0,1-1.2-2.11,1.36,1.36,0,0,1,.3-.89A1.22,1.22,0,0,0,218.66,266.4Z"/><path d="M234.52,274.64a11.51,11.51,0,0,1,0-15.23l.11.16c-.89,1.36-1.91,3.05-1.91,7.45s1,6.1,1.91,7.46Z"/><path d="M238.82,274.05c1.1-.51,4.51-2.08,5.72-8.51a15.47,15.47,0,0,0-4,1.26,2.89,2.89,0,0,1-.54.3,2.37,2.37,0,0,1-1.28-1.82,2.53,2.53,0,0,1,.28-1c.28,1,.71,1,1,1s4-.28,4.56-.71c.1-.07.44-.61.53-.61s1.25,1.13,1.25,1.63c0,.27-.17.43-.52.75-.63,2.61-2.13,7.28-7,7.83Zm2.5-12.85a3.68,3.68,0,0,0,2.6-.88c.26.08,1.2.54,1.2,1.09,0,.25-.16.68-.31.73s-3.2.45-3.46.45c-1,0-1.22-.83-1.5-1.92A1.73,1.73,0,0,0,241.32,261.2Z"/><path d="M253,269.65c0,1.25-.39,2.78-1.42,2.78-.61,0-.69-.8-.69-1,0-.49.19-.67.61-1.07a4.8,4.8,0,0,0,1.28-2.82A9.62,9.62,0,0,1,253,269.65Zm.33,1.31a3.94,3.94,0,0,0,.94.24c.24,0,.3-.21.34-.8s.08-3.23.08-5a8,8,0,0,0-2,.64,5.65,5.65,0,0,1-.57.23c-.42,0-1.06-.93-1.06-1.8a1.65,1.65,0,0,1,.16-.78,1.41,1.41,0,0,0,1.31.93,19,19,0,0,0,2.18-.28,16,16,0,0,0-.17-2.78.68.68,0,0,0-.73-.38c.21-.42.51-1,.94-1s1.17.56,1.17,1c0,.13-.18.62-.2.73s0,1.78,0,2.24c1.19-.25,1.68-.4,1.94-1a3.22,3.22,0,0,1,1.42.75.73.73,0,0,1,.25.58c0,.19-.07.72-.43.72l-.7-.13a5,5,0,0,0-.89-.12,10.47,10.47,0,0,0-1.59.2c0,2.85,0,3.65.06,4.93,0,.24.07,1.32.07,1.54,0,1-.46,2.24-1,2.24-.26,0-.29-.19-.4-.85a3.2,3.2,0,0,0-1-2Zm6.13-.08c0,1.38-.73,1.41-.82,1.41-.45,0-.54-.56-.61-1.09a11.4,11.4,0,0,0-1.38-4.06C257.34,267.58,259.43,268.85,259.43,270.88Zm-.72-8.85c0,.48-.2.77-.44.77s-.25-.1-.53-.91a4.64,4.64,0,0,0-.85-1.68A1.89,1.89,0,0,1,258.71,262Zm1.26-1.15c0,.37-.14.73-.41.73s-.21-.06-.48-.67a5.69,5.69,0,0,0-1-1.5C258.73,259.42,260,259.74,260,260.88Z"/><path d="M263.23,273.83a16,16,0,0,0,4.39-6.69,6.87,6.87,0,0,0-2.56-2.68,7,7,0,0,1,3.08,1.06,17.4,17.4,0,0,0,.79-3.57.77.77,0,0,0-.6-.85,1,1,0,0,1,.84-.69c.65,0,1.5,1.19,1.5,1.56,0,.16,0,.19-.29.54-.66,2.45-.88,3.11-1.17,3.95a3.45,3.45,0,0,1,1,2.34c0,1-.47,1.41-.81,1.41s-.43-.18-.58-.56c-.26-.71-.29-.79-.42-1.12a10.28,10.28,0,0,1-5.13,5.35Z"/><path d="M283.48,262.72a17.27,17.27,0,0,1-6.51,10,1.69,1.69,0,0,0-.48.48c0,.05-.15.18-.24.18-.36,0-1.37-1.59-1.37-2.6a1.5,1.5,0,0,1,.34-1c.11.44.24.94.62.94.72,0,4.41-1.81,7.6-8Zm-6.26-.75a2.07,2.07,0,0,1,.93,1.77c0,.77-.39,1.33-.78,1.33s-.39-.21-.72-1a7.3,7.3,0,0,0-1.6-2.48A3.89,3.89,0,0,1,277.22,262Z"/><path d="M287.27,259.41a11.51,11.51,0,0,1,0,15.23l-.11-.16c.89-1.36,1.91-3.05,1.91-7.46s-1-6.09-1.91-7.45Z"/><path d="M300,273.59c.95-.42,3.38-1.48,3.38-6.45,0-2.31-.67-5.7-3.05-5.69a4.2,4.2,0,0,1,.5,1.88c0,1.61-1.13,9.25-3.3,9.25-.71,0-.82-.67-.95-1.47a5.86,5.86,0,0,0-.49-1.67,4.09,4.09,0,0,1-.41-1.84c0-3.78,2.48-6.72,4.93-6.72,2.2,0,4.16,2.33,4.16,6.66,0,2.86-1,4.61-2.06,5.26a5.78,5.78,0,0,1-2.71.85Zm-3.34-4.92a3.35,3.35,0,0,0,.16,1.3c.13.35.39.7.6.7.82,0,2.77-5,2.8-9.18C297,262.16,296.64,267.42,296.64,268.67Z"/><path d="M310,264.53c-.44,0-.5-.48-.57-1,0-.21-.12-1.14-.15-1.33.18.37.28.54.52.54a4,4,0,0,0,1.73-1.2c.32-.43.35-.46.5-.46a1.28,1.28,0,0,1,1.1,1.42c0,.4-.06.45-.66.79a5,5,0,0,0-1.08,1.77,11.52,11.52,0,0,0-1.12,4.65c0,2.59,1.4,2.8,1.81,2.8a2.93,2.93,0,0,0,2.39-2.18,19.65,19.65,0,0,0,.8-5.67,8.42,8.42,0,0,0-.45-3.25c-.25-.54-.29-.59-.29-.75a.69.69,0,0,1,.71-.66,1,1,0,0,1,.93,1c0,.19-.12,1-.12,1.19a10,10,0,0,0,1.65,4.56,3.56,3.56,0,0,1,.1.93c0,1.12-.3,1.12-.47,1.12-.85,0-1.25-1.91-1.77-4.45,0,.61.06,3.26.06,3.81a9.06,9.06,0,0,1-.66,4.25,3.06,3.06,0,0,1-2.61,1.77c-2.07,0-2.8-2.36-2.8-4.42a18.24,18.24,0,0,1,1.26-5.78C310.31,264.46,310.23,264.53,310,264.53Z"/><path d="M324,259.84a1.33,1.33,0,0,1,1.18,1.44c0,.13-.08,1-.1,1.21,0,.44-.11,1.25-.11,2s0,1.42.53,1.42c.66,0,1.28-1.06,1.45-1.71.08-.31.11-.47.34-.47.49,0,1.12,1,1.12,1.51s-.14.73-1.48,1.29a9.49,9.49,0,0,0-2.57,1.25,3.6,3.6,0,0,0-1.27,2.61,1.46,1.46,0,0,0,1.69,1.54,5,5,0,0,0,1.93-.42,5.63,5.63,0,0,1,.59-.24,1.73,1.73,0,0,1,1.19,1.35c0,.62-.35.76-.48.81a6.59,6.59,0,0,1-2.37.24c-1.8,0-2.25-.25-2.6-.57a2.74,2.74,0,0,1-.77-2.05,5.31,5.31,0,0,1,2.13-4.1c-.31-.19-.57-.35-.57-1.71,0-.34,0-1.78,0-2.08,0-1.38,0-2.52-.57-2.52a.59.59,0,0,0-.35.15A1.13,1.13,0,0,1,324,259.84Z"/><path d="M334,274.4c1.65-.51,2.84-1.45,2.84-6.48a19.09,19.09,0,0,0-.29-3.78c-.06-.17-.15-.32-.35-.32-.74,0-1.41,2.88-1.41,5.38a4.68,4.68,0,0,0,.11,1.12,1.74,1.74,0,0,1,0,.3.66.66,0,0,1-.63.69c-.88,0-1-2.09-1-3.69a17.11,17.11,0,0,1,.89-5.24,11.22,11.22,0,0,0,.39-1.95c0-.47-.23-.51-.52-.56a.82.82,0,0,1,.63-.32c.35,0,1.06.25,1.06,1.65a3.3,3.3,0,0,1-.32,1.52,10.56,10.56,0,0,0-1.32,5c0,.1,0,.4.1.4s.06,0,.13-.4a14.4,14.4,0,0,1,1.39-3.73,1.09,1.09,0,0,1,.86-.56c.77,0,1.16,1.19,1.24,1.44a15.29,15.29,0,0,1,.36,3.57c0,2.5-.16,4.8-2.52,5.75a4,4,0,0,1-1.62.3Z"/><path d="M346.05,271.49c0,1.33-.69,2.43-1.58,2.43s-1.58-1.1-1.58-2.43.72-2.43,1.58-2.43S346.05,270.13,346.05,271.49Zm-2.74,0c0,1,.52,1.79,1.16,1.79s1.17-.81,1.17-1.79-.52-1.79-1.17-1.79S343.31,270.48,343.31,271.49Z"/><line class="cls-1" x1="18.9" y1="21.84" x2="18.9" y2="322.23"/><path d="M18.9,13.71a4.07,4.07,0,1,1-4.06,4.07A4.07,4.07,0,0,1,18.9,13.71Z"/><path class="cls-1" d="M18.9,11.83a5.95,5.95,0,1,1-5.94,6A6,6,0,0,1,18.9,11.83Z"/><polygon class="cls-1" points="18.9 5.53 24.21 14.73 29.52 23.89 18.9 23.89 8.29 23.89 13.6 14.73 18.9 5.53"/><path d="M10.19,76.72c0,1.7,0,2.11.22,2.11a.61.61,0,0,0,.42-.14,1,1,0,0,1,0,.77,4.61,4.61,0,0,0-1.75.65c-.07,0-.15-.11-.17-.25l0-.56c0-.15,0-.2-.09-.15-.34.4-.69.78-1,.78C6.7,79.93,6,78.33,6,76.38c0-2.54,1-4.16,2.32-4.16a1.63,1.63,0,0,1,.56.09A.51.51,0,0,0,8.92,72v-2.3c0-.72,0-.92-.19-1.14l-.17-.18a.68.68,0,0,1,0-.54,7,7,0,0,0,1.49-1,.19.19,0,0,1,.17.13c0,.74,0,1.49,0,2.63ZM8.92,74.33a2.15,2.15,0,0,0-.07-.61c-.11-.38-.33-.67-.55-.67-.5,0-1,1-1,2.85,0,1.18.3,2.82,1.1,2.82a.57.57,0,0,0,.4-.21,1.23,1.23,0,0,0,.11-.69Z"/><path d="M7.4,250.91c-.22,0-.24,0-.24.32,0,1.35.47,2.67,1.37,2.67.28,0,.65-.11.91-.94.11,0,.25.11.25.42-.4,1.53-1.12,2.05-1.7,2.05-1.32,0-2-1.71-2-3.67,0-2.27.89-4,2.1-4,1,0,1.56,1.21,1.56,2.6,0,.34,0,.59-.35.59Zm.64-.79a.55.55,0,0,0,.41-.16,1,1,0,0,0,.06-.42c0-.59-.18-1-.51-1s-.76.72-.76,1.3c0,.25.13.27.44.27Z"/><line class="cls-2" x1="21.96" y1="45.08" x2="15.43" y2="45.08"/><line class="cls-2" x1="21.96" y1="76.31" x2="15.43" y2="76.31"/><line class="cls-2" x1="21.96" y1="111.49" x2="15.43" y2="111.49"/><line class="cls-2" x1="21.96" y1="146.68" x2="15.43" y2="146.68"/><line class="cls-2" x1="21.96" y1="181.86" x2="15.43" y2="181.86"/><line class="cls-2" x1="21.96" y1="217.04" x2="15.43" y2="217.04"/><line class="cls-2" x1="21.96" y1="252.22" x2="15.43" y2="252.22"/><line class="cls-2" x1="21.96" y1="252.22" x2="15.43" y2="252.22"/><line class="cls-2" x1="21.96" y1="252.22" x2="15.43" y2="252.22"/><line class="cls-2" x1="21.94" y1="287.04" x2="15.41" y2="287.04"/><line class="cls-2" x1="21.94" y1="322.22" x2="15.41" y2="322.22"/><line class="cls-3" x1="96.23" y1="322.23" x2="33.58" y2="322.23"/><line class="cls-3" x1="104.5" y1="42.18" x2="34.72" y2="42.18"/><circle cx="9.65" cy="45.08" r="1.68"/><path d="M36.9,309.8l-.26,1.77h.57l-.07.76h-.61l-.32,2.19h-.39l.31-2.19H35.5l-.33,2.19h-.38l.31-2.19h-.64l.08-.76h.67l.26-1.77h-.65l.08-.78h.68l.28-1.95h.41L36,309h.61l.28-1.95h.42L37,309h.58l-.05.78Zm-1,0-.26,1.77h.63l.25-1.77Z"/><path d="M42.87,310.8c0,1.93-.45,3.92-1.5,3.92s-1.5-2-1.5-3.92.44-3.92,1.5-3.92S42.87,308.94,42.87,310.8Zm-1.5,3.37c.49,0,.55-2.3.55-3.37s-.06-3.37-.55-3.37-.55,2.3-.55,3.37S40.87,314.17,41.37,314.17Z"/><path d="M46.85,311.45a1.18,1.18,0,0,1,.09.5,1.36,1.36,0,0,1-.08.47l-1.56.26a1,1,0,0,1-.1-.48,1.2,1.2,0,0,1,.1-.49Z"/><path d="M50.53,310.4c-.09,0-.1,0-.1.28v1.8c0,.67,0,1.41.46,1.41a.41.41,0,0,0,.27-.18.33.33,0,0,1,.09.32,1.14,1.14,0,0,1-.93.69c-.54,0-.73-.57-.73-1.37v-2.67c0-.25,0-.28-.12-.28h-.21c-.07,0-.09-.28,0-.37a2.47,2.47,0,0,0,.53-.54,3.71,3.71,0,0,0,.49-.93.12.12,0,0,1,.19.06v.9c0,.22,0,.24.12.24h.58a.32.32,0,0,1,.06.22.75.75,0,0,1-.09.42Z"/><path d="M55.55,312.91c0,.82.16,1,.29,1a.32.32,0,0,0,.25-.14c.06,0,.1.17.08.27s-.39.65-.76.65c-.22,0-.37-.14-.54-.42,0-.07-.07-.09-.11-.09s-.07,0-.13.13-.31.38-.56.38-.72-.42-.72-1.26a1.27,1.27,0,0,1,.67-1.25l.61-.33a.26.26,0,0,0,.16-.24c0-.13,0-.26,0-.41,0-.45-.09-1-.37-1s-.3.17-.34.68a.79.79,0,0,1-.11.39.82.82,0,0,1-.47.27c-.11,0-.15-.13-.15-.3a1.9,1.9,0,0,1,.31-.92,1.51,1.51,0,0,1,1.09-.73c.55,0,.87.5.84,1.74Zm-.78-.31c0-.19,0-.23-.05-.22-.29.08-.54.28-.54.84,0,.39.15.72.33.72s.24-.21.25-.59Z"/><path d="M58.46,307.89c0-.48,0-.62-.13-.76l-.11-.12a.55.55,0,0,1,0-.36,6.21,6.21,0,0,0,1-.67.13.13,0,0,1,.11.08c0,.49,0,1,0,1.75v3.77c0,.13,0,.17.09.17s.25-.06.38-.34l.27-.59a1.32,1.32,0,0,0,.15-.48c0-.06-.06-.1-.12-.12l-.16,0c-.06-.11-.05-.38,0-.42h.16a5.32,5.32,0,0,0,1.23-.17.55.55,0,0,1,0,.42l-.21.08a1.08,1.08,0,0,0-.43.42,5.49,5.49,0,0,0-.44.7.41.41,0,0,0,0,.15,1,1,0,0,0,.05.21c.12.38.69,2,.85,2.29a.63.63,0,0,0,.38.27l.1,0a.55.55,0,0,1,0,.42,7.92,7.92,0,0,0-.82,0,6.76,6.76,0,0,0-.8,0,.5.5,0,0,1,0-.42l.09,0c.06,0,.1,0,.1-.09a2.51,2.51,0,0,0-.11-.39l-.46-1.29c0-.13-.1-.18-.17-.18s-.07.06-.07.29v.69c0,.84,0,.94.25,1l.11,0a.56.56,0,0,1,0,.42c-.21,0-.48,0-.78,0s-.57,0-.8,0a.61.61,0,0,1,0-.42l.12,0c.24,0,.26-.15.26-1Z"/><path d="M64.55,311.71c-.15,0-.17,0-.17.22,0,.9.32,1.77.92,1.77.18,0,.43-.07.6-.62.08,0,.17.07.17.27-.26,1-.74,1.37-1.13,1.37-.88,0-1.36-1.14-1.36-2.44,0-1.52.59-2.69,1.41-2.69s1,.8,1,1.73c0,.22,0,.39-.24.39Zm.42-.53a.34.34,0,0,0,.27-.1.6.6,0,0,0,.05-.28c0-.4-.13-.66-.35-.66s-.5.48-.5.86c0,.17.09.18.29.18Z"/><path d="M74.76,310.8c0,1.93-.45,3.92-1.5,3.92s-1.51-2-1.51-3.92.45-3.92,1.51-3.92S74.76,308.94,74.76,310.8Zm-1.5,3.37c.49,0,.55-2.3.55-3.37s-.06-3.37-.55-3.37-.56,2.3-.56,3.37S72.76,314.17,73.26,314.17Z"/><path d="M80.09,310.8c0,1.93-.45,3.92-1.5,3.92s-1.51-2-1.51-3.92.45-3.92,1.51-3.92S80.09,308.94,80.09,310.8Zm-1.5,3.37c.49,0,.55-2.3.55-3.37s-.06-3.37-.55-3.37-.56,2.3-.56,3.37S78.09,314.17,78.59,314.17Z"/><path d="M84.45,313.32c.47,0,.55,0,.74-.66,0-.08.19-.08.22.07a9.2,9.2,0,0,1-.32,1.86c-.26,0-.49,0-.91,0h-1a5.18,5.18,0,0,0-.73,0c-.06,0-.08-.16-.06-.26.24-.42.61-1.06,1-1.85a7,7,0,0,0,.85-3.2c0-.83-.27-1.47-.7-1.47s-.63.45-.84,1.11c-.08.09-.2,0-.22-.17.27-1.21.87-1.87,1.5-1.87s1.23.91,1.23,2a5.42,5.42,0,0,1-1,3l-.32.54a2.06,2.06,0,0,0-.34.75c0,.08,0,.15.12.15Z"/><path d="M37.51,32.24a1.16,1.16,0,0,1,.13.63c0,.36-.09.68-.17.68s-.09,0-.1-.06c-.18-.48-.44-.9-.67-.9-.42,0-.65.89-.65,1.72s.33,1.9.93,1.9c.24,0,.44-.14.58-.58.08,0,.17.07.17.26-.15.6-.54,1.28-1.15,1.28-.82,0-1.38-1-1.38-2.42,0-1.7.75-2.71,1.62-2.71A1.49,1.49,0,0,1,37.51,32.24Z"/><path d="M40.17,30.34c0-.48,0-.61-.13-.76l-.11-.12a.45.45,0,0,1,0-.36,6.18,6.18,0,0,0,1-.67.13.13,0,0,1,.12.09c0,.49,0,1,0,1.75v2.2c0,.11,0,.15,0,.15l.11-.1a1.09,1.09,0,0,1,.74-.48c.55,0,.82.69.82,1.51v2.06c0,.84,0,.94.26,1l.11,0a.56.56,0,0,1,0,.42c-.2,0-.48,0-.79,0a6.16,6.16,0,0,0-.7,0,.56.56,0,0,1,0-.42l.12,0c.15-.05.18-.14.18-.79V33.72c0-.42-.14-.8-.46-.8a.41.41,0,0,0-.36.28,1.22,1.22,0,0,0,0,.45V35.8c0,.65,0,.74.17.79l.12,0a.56.56,0,0,1,0,.42,7,7,0,0,0-.72,0c-.27,0-.54,0-.76,0a.56.56,0,0,1,0-.42l.12,0c.22-.05.24-.15.24-1Z"/><path d="M47.57,35.36c0,.82.16,1,.29,1s.14,0,.25-.15.1.17.08.28-.39.64-.76.64-.37-.14-.54-.42c0-.07-.08-.09-.11-.09s-.07.05-.13.13a.8.8,0,0,1-.56.38c-.37,0-.73-.42-.73-1.26A1.26,1.26,0,0,1,46,34.67c.25-.15.43-.24.61-.34a.26.26,0,0,0,.16-.24c0-.13,0-.26,0-.41,0-.45-.1-1-.38-1s-.29.17-.33.69a.73.73,0,0,1-.12.38.82.82,0,0,1-.46.28c-.11,0-.15-.14-.15-.3a1.81,1.81,0,0,1,.31-.93A1.51,1.51,0,0,1,46.78,32c.55,0,.87.5.83,1.74Zm-.78-.31c0-.19,0-.23,0-.21-.29.07-.54.27-.54.84,0,.38.15.72.33.72s.24-.22.24-.59Z"/><path d="M50.53,33.83c0-.48,0-.63-.12-.77L50.32,33a.45.45,0,0,1,0-.36,3.78,3.78,0,0,0,1-.72s.09,0,.11.11c0,.24,0,.41,0,.52s0,.12.06.14c.18-.2.37-.6.64-.6s.36.25.36.71-.21.78-.42.78-.17-.07-.25-.22-.21-.24-.25-.24-.12.27-.12.72v1.85c0,.84,0,.93.24,1l.21,0a.56.56,0,0,1,0,.42,8.64,8.64,0,0,0-.88,0,6.08,6.08,0,0,0-.77,0,.61.61,0,0,1,0-.42l.12,0c.22,0,.24-.14.24-1Z"/><path d="M56.76,35.36c0,.82.16,1,.29,1s.14,0,.25-.15.1.17.08.28-.39.64-.76.64-.37-.14-.54-.42c0-.07-.08-.09-.11-.09s-.07.05-.13.13a.8.8,0,0,1-.56.38c-.37,0-.73-.42-.73-1.26a1.26,1.26,0,0,1,.68-1.24c.25-.15.43-.24.61-.34a.26.26,0,0,0,.16-.24c0-.13,0-.26,0-.41,0-.45-.1-1-.38-1s-.29.17-.33.69a.86.86,0,0,1-.11.38.87.87,0,0,1-.47.28c-.11,0-.15-.14-.15-.3a1.81,1.81,0,0,1,.31-.93A1.51,1.51,0,0,1,56,32c.55,0,.87.5.83,1.74ZM56,35.05c0-.19,0-.23,0-.21-.29.07-.54.27-.54.84,0,.38.15.72.33.72s.24-.22.25-.59Z"/><path d="M61.69,32.24a1.16,1.16,0,0,1,.13.63c0,.36-.09.68-.17.68s-.09,0-.1-.06c-.18-.48-.44-.9-.67-.9-.42,0-.65.89-.65,1.72s.33,1.9.93,1.9c.24,0,.43-.14.58-.58.08,0,.17.07.17.26-.15.6-.54,1.28-1.15,1.28-.82,0-1.38-1-1.38-2.42,0-1.7.75-2.71,1.62-2.71A1.49,1.49,0,0,1,61.69,32.24Z"/><path d="M65.27,32.86c-.09,0-.09,0-.09.27v1.8c0,.67,0,1.42.45,1.42a.42.42,0,0,0,.27-.18c.07,0,.11.16.09.31a1.14,1.14,0,0,1-.93.69c-.54,0-.73-.57-.73-1.36V33.13c0-.25,0-.27-.12-.27H64a.37.37,0,0,1,0-.38,2.51,2.51,0,0,0,.54-.54A3.61,3.61,0,0,0,65,31a.12.12,0,0,1,.19.06V32c0,.23,0,.24.13.24h.57a.35.35,0,0,1,.06.23.79.79,0,0,1-.09.42Z"/><path d="M69.05,34.16c-.15,0-.16,0-.16.22,0,.9.31,1.77.91,1.77.19,0,.43-.07.61-.62.07,0,.17.07.17.28-.27,1-.75,1.36-1.14,1.36-.88,0-1.35-1.14-1.35-2.44,0-1.51.59-2.69,1.4-2.69s1,.8,1,1.73c0,.23,0,.39-.23.39Zm.43-.52a.38.38,0,0,0,.27-.11.63.63,0,0,0,0-.28c0-.39-.12-.66-.34-.66s-.51.48-.51.87c0,.16.09.18.3.18Z"/><path d="M73.11,33.83c0-.48,0-.63-.13-.77L72.89,33a.55.55,0,0,1,0-.36,3.61,3.61,0,0,0,1-.72s.09,0,.12.11c0,.24,0,.41,0,.52s0,.12.07.14c.17-.2.36-.6.63-.6s.36.25.36.71-.21.78-.42.78-.16-.07-.25-.22-.21-.24-.25-.24-.12.27-.12.72v1.85c0,.84,0,.93.24,1l.21,0a.56.56,0,0,1,0,.42,8.57,8.57,0,0,0-.87,0,6,6,0,0,0-.77,0,.56.56,0,0,1,0-.42l.13,0c.21,0,.24-.14.24-1Z"/><path d="M80.4,32.59c-.06-.08-.07-.37,0-.42a6.07,6.07,0,0,0,.8,0c.24,0,.48,0,.73,0a.67.67,0,0,1,0,.42l-.11,0c-.07,0-.11,0-.11.12a4.08,4.08,0,0,0,.06.42c.13.66.28,1.28.41,1.86.14-.6.31-1.24.44-2a1.3,1.3,0,0,0,0-.3c0-.06,0-.09-.15-.14l-.09,0a.51.51,0,0,1,0-.42,3.44,3.44,0,0,0,.54,0,3.49,3.49,0,0,0,.5,0c.07.06.05.35,0,.42l-.11,0c-.2.06-.25.2-.38.66-.34,1.23-.63,2.52-.93,3.8a.16.16,0,0,1-.15.08.19.19,0,0,1-.15-.08c-.34-1.51-.48-2.09-.89-3.68-.15-.59-.19-.68-.36-.76Z"/><path d="M85.55,34.7c0-1.71.73-2.66,1.5-2.66s1.45.86,1.45,2.56-.69,2.57-1.49,2.57S85.56,36.36,85.55,34.7Zm.94-.26c0,1.26.21,2.18.59,2.18s.49-.78.49-1.86-.19-2.17-.56-2.17S86.49,33.13,86.49,34.44Z"/><path d="M92.05,35.61c0,.84,0,1,.24,1l.12,0a.56.56,0,0,1,0,.42q-.33,0-.78,0c-.29,0-.56,0-.78,0a.51.51,0,0,1,0-.42l.12,0c.21,0,.24-.15.24-1V33.8c0-.48,0-.62-.12-.76L91,32.93a.45.45,0,0,1,0-.36,4.4,4.4,0,0,0,1-.7s.09,0,.12.11c0,.36,0,.89,0,1.43Zm0-5.42c0,.58-.24.88-.49.88s-.45-.36-.45-.85.22-.88.48-.88S92.1,29.71,92.1,30.19Z"/><path d="M97,32.24a1.06,1.06,0,0,1,.14.63c0,.36-.09.68-.17.68s-.09,0-.1-.06c-.19-.48-.44-.9-.67-.9-.43,0-.65.89-.65,1.72s.33,1.9.93,1.9c.24,0,.43-.14.57-.58.08,0,.17.07.17.26-.14.6-.53,1.28-1.15,1.28-.82,0-1.37-1-1.37-2.42,0-1.7.74-2.71,1.62-2.71A1.42,1.42,0,0,1,97,32.24Z"/><path d="M100.29,34.16c-.15,0-.17,0-.17.22,0,.9.32,1.77.92,1.77.18,0,.43-.07.61-.62.07,0,.17.07.17.28-.27,1-.75,1.36-1.14,1.36-.88,0-1.35-1.14-1.35-2.44,0-1.51.59-2.69,1.4-2.69s1,.8,1,1.73c0,.23,0,.39-.23.39Zm.43-.52a.34.34,0,0,0,.26-.11.5.5,0,0,0,0-.28c0-.39-.12-.66-.35-.66s-.5.48-.5.87c0,.16.09.18.3.18Z"/><rect x="34.35" y="295.15" width="17.75" height="3.94"/><rect x="34.15" y="94.62" width="134.36" height="11.94"/><path class="cls-4" d="M40,97.23c0-1.92,0-2.22-.59-2.31l-.25,0a.58.58,0,0,1,0-.45c.48,0,.8,0,1.25,0s.73,0,1.15,0a.58.58,0,0,1,0,.45l-.19,0c-.57.11-.59.39-.59,2.31v2.11c0,.35,0,.7.13.7s.21-.11.28-.2.39-.7.5-.88l1.08-2c.19-.33.67-1.26.77-1.52a.84.84,0,0,0,.07-.29c0-.08,0-.13-.17-.19l-.26-.11a.48.48,0,0,1,0-.45c.34,0,.74,0,1.09,0a9.71,9.71,0,0,0,1,0,.54.54,0,0,1,0,.45,1.78,1.78,0,0,0-.92.52A13.66,13.66,0,0,0,43,97.53l-.9,1.56a1.34,1.34,0,0,0-.23.57,1.7,1.7,0,0,0,.19.57c.95,2,1.71,3.65,2.49,5.15.24.44.46.68.79.76l.27,0a.52.52,0,0,1,0,.46,8.17,8.17,0,0,0-1.11-.05c-.41,0-.76,0-1.21.05-.07,0-.1-.35,0-.46l.22-.07c.14,0,.24-.09.24-.19a1.36,1.36,0,0,0-.14-.42c-.19-.44-.44-.93-.82-1.72l-.8-1.66c-.57-1.17-.72-1.54-1-1.54s-.17.24-.17.88v2.37c0,1.93,0,2.19.57,2.3l.27,0a.6.6,0,0,1,0,.46c-.48,0-.82-.05-1.21-.05a10.94,10.94,0,0,0-1.15.05.59.59,0,0,1,0-.46l.19,0c.53-.15.55-.37.55-2.3Z"/><path class="cls-4" d="M52.42,102.34c-.07-.41-.11-.46-.4-.46H50.51c-.24,0-.3.05-.37.44l-.35,1.93a11.93,11.93,0,0,0-.22,1.52c0,.22,0,.33.29.37l.33,0a.47.47,0,0,1,0,.46,8.83,8.83,0,0,0-1-.05c-.33,0-.69,0-1,.05a.61.61,0,0,1,0-.46l.32,0c.24,0,.46-.24.6-.9.18-.85.46-2,.88-4.1l1-5a4.56,4.56,0,0,0,.17-1.31,1.45,1.45,0,0,0,.52-.69c.06,0,.13,0,.15.16.13.81.29,1.65.44,2.46l1.36,7.38c.29,1.58.42,1.85.84,2l.27,0a.61.61,0,0,1,0,.46,11.55,11.55,0,0,0-1.2-.05c-.48,0-.86,0-1.15.05a.5.5,0,0,1,0-.46l.29,0c.21,0,.35-.15.35-.33a6.43,6.43,0,0,0-.13-1Zm-2-1.64c-.08.43-.07.44.21.44h1.23c.29,0,.31-.07.22-.57l-.54-3c-.08-.44-.17-.93-.23-1.15h0c0,.09-.13.53-.24,1.08Z"/><path class="cls-4" d="M64.18,103.48c0,.54,0,2.73,0,3.21,0,.11-.08.2-.19.2-.12-.31-.41-1-1.27-2.77l-2.31-4.85c-.27-.57-.95-2.07-1.16-2.48h0a11.24,11.24,0,0,0,0,1.2v4a27.7,27.7,0,0,0,.17,3.8.57.57,0,0,0,.51.35l.31,0a.55.55,0,0,1,0,.46c-.45,0-.8-.05-1.16-.05a8.33,8.33,0,0,0-1,.05.56.56,0,0,1,0-.46l.27,0a.53.53,0,0,0,.44-.37,32.3,32.3,0,0,0,.13-3.78V96.68a2.73,2.73,0,0,0-.22-1.32.91.91,0,0,0-.62-.44l-.17,0a.5.5,0,0,1,0-.45,10.57,10.57,0,0,0,1.13,0,2.06,2.06,0,0,0,.45,0,29.41,29.41,0,0,0,1.71,4l1,2c.69,1.42,1.17,2.45,1.64,3.33h0a3.38,3.38,0,0,0,0-.77V99.09a23.38,23.38,0,0,0-.2-3.8c-.06-.17-.22-.28-.61-.37l-.17,0c-.07-.11-.06-.4,0-.45.45,0,.79,0,1.17,0a10.29,10.29,0,0,0,1,0,.58.58,0,0,1,0,.45l-.14,0c-.32.09-.52.24-.56.39a26.89,26.89,0,0,0-.15,3.78Z"/><path class="cls-4" d="M72.37,102.34c-.07-.41-.11-.46-.41-.46h-1.5c-.25,0-.31.05-.38.44l-.34,1.93a11.93,11.93,0,0,0-.22,1.52c0,.22,0,.33.29.37l.32,0a.47.47,0,0,1,0,.46,8.51,8.51,0,0,0-1-.05c-.33,0-.69,0-1,.05a.61.61,0,0,1,0-.46l.33,0c.24,0,.46-.24.6-.9.18-.85.46-2,.88-4.1l1-5a4.56,4.56,0,0,0,.17-1.31,1.45,1.45,0,0,0,.52-.69c.06,0,.13,0,.15.16.13.81.28,1.65.43,2.46l1.37,7.38c.29,1.58.41,1.85.84,2l.27,0a.61.61,0,0,1,0,.46,11.55,11.55,0,0,0-1.2-.05c-.48,0-.86,0-1.15.05a.5.5,0,0,1,0-.46l.29,0c.21,0,.35-.15.35-.33a6.43,6.43,0,0,0-.13-1Zm-2-1.64c-.08.43-.07.44.21.44h1.23c.28,0,.3-.07.21-.57l-.53-3c-.08-.44-.17-.93-.23-1.15h0c0,.09-.13.53-.24,1.08Z"/><path class="cls-4" d="M85.56,100.67c-.48,0-.5,0-.5.58v2.59c0,1.93,0,2.19.61,2.3l.29,0a.6.6,0,0,1,0,.46c-.54,0-.88-.05-1.27-.05s-.76,0-1.15.05a.6.6,0,0,1,0-.46l.17,0c.56-.19.58-.37.58-2.3V97.23c0-1.92-.07-2.24-.59-2.31l-.26,0a.58.58,0,0,1,0-.45c.49,0,.83,0,1.25,0s.73,0,1.16,0a.58.58,0,0,1,0,.45l-.19,0c-.58.11-.6.39-.6,2.31v2.11c0,.57,0,.59.5.59H88.4c.48,0,.5,0,.5-.59V97.23c0-1.92,0-2.2-.6-2.31l-.19,0a.58.58,0,0,1,0-.45c.45,0,.79,0,1.2,0s.73,0,1.17,0a.58.58,0,0,1,0,.45l-.21,0c-.57.11-.59.39-.59,2.31v6.61c0,1.93,0,2.17.59,2.3l.24,0a.6.6,0,0,1,0,.46c-.47,0-.81-.05-1.2-.05s-.77,0-1.2.05a.6.6,0,0,1,0-.46l.19,0c.6-.19.6-.37.6-2.3v-2.59c0-.55,0-.58-.5-.58Z"/><path class="cls-4" d="M98,102.34c-.07-.41-.11-.46-.41-.46h-1.5c-.25,0-.31.05-.38.44l-.35,1.93a13.19,13.19,0,0,0-.21,1.52c0,.22,0,.33.28.37l.33,0a.47.47,0,0,1,0,.46,8.63,8.63,0,0,0-1-.05c-.33,0-.69,0-1,.05a.61.61,0,0,1,0-.46l.33,0c.24,0,.46-.24.6-.9.18-.85.46-2,.87-4.1l1-5a4.56,4.56,0,0,0,.17-1.31,1.37,1.37,0,0,0,.51-.69c.06,0,.13,0,.15.16.13.81.29,1.65.44,2.46l1.36,7.38c.29,1.58.42,1.85.85,2l.27,0a.61.61,0,0,1,0,.46,11.67,11.67,0,0,0-1.2-.05c-.48,0-.86,0-1.15.05a.5.5,0,0,1,0-.46l.29,0c.21,0,.35-.15.35-.33a6.43,6.43,0,0,0-.13-1Zm-2-1.64c-.08.43-.07.44.21.44h1.22c.29,0,.31-.07.22-.57l-.53-3c-.08-.44-.17-.93-.23-1.15h0c0,.09-.13.53-.24,1.08Z"/><path class="cls-4" d="M109.78,103.48c0,.54,0,2.73,0,3.21,0,.11-.08.2-.19.2-.12-.31-.41-1-1.28-2.77L106,99.27c-.27-.57-1-2.07-1.16-2.48h0a8.59,8.59,0,0,0,0,1.2v4a26.09,26.09,0,0,0,.18,3.8.57.57,0,0,0,.51.35l.31,0a.55.55,0,0,1,0,.46c-.45,0-.8-.05-1.17-.05a8.26,8.26,0,0,0-1,.05.56.56,0,0,1,0-.46l.27,0a.52.52,0,0,0,.43-.37,32.3,32.3,0,0,0,.13-3.78V96.68a2.85,2.85,0,0,0-.21-1.32.91.91,0,0,0-.62-.44l-.17,0a.5.5,0,0,1,0-.45,10.4,10.4,0,0,0,1.12,0,2.16,2.16,0,0,0,.46,0,29.41,29.41,0,0,0,1.7,4l1,2c.68,1.42,1.17,2.45,1.64,3.33h0a3.38,3.38,0,0,0,0-.77V99.09a23.38,23.38,0,0,0-.2-3.8c-.06-.17-.22-.28-.62-.37l-.17,0c-.07-.11-.06-.4,0-.45.46,0,.8,0,1.18,0s.68,0,1,0a.51.51,0,0,1,0,.45l-.14,0c-.32.09-.51.24-.55.39a26.89,26.89,0,0,0-.15,3.78Z"/><path class="cls-4" d="M118,102.34c-.07-.41-.11-.46-.41-.46h-1.5c-.25,0-.31.05-.38.44l-.35,1.93a11.93,11.93,0,0,0-.22,1.52c0,.22,0,.33.29.37l.33,0a.47.47,0,0,1,0,.46,8.76,8.76,0,0,0-1-.05c-.33,0-.69,0-1,.05a.61.61,0,0,1,0-.46l.33,0c.24,0,.46-.24.6-.9.18-.85.45-2,.87-4.1l1-5a4.56,4.56,0,0,0,.17-1.31,1.49,1.49,0,0,0,.51-.69c.06,0,.13,0,.15.16.13.81.29,1.65.44,2.46l1.36,7.38c.29,1.58.42,1.85.85,2l.27,0a.61.61,0,0,1,0,.46,11.75,11.75,0,0,0-1.21-.05c-.47,0-.85,0-1.14.05a.5.5,0,0,1,0-.46l.29,0c.21,0,.35-.15.35-.33a6.43,6.43,0,0,0-.13-1Zm-2-1.64c-.08.43-.07.44.21.44h1.22c.29,0,.31-.07.22-.57l-.54-3c-.08-.44-.17-.93-.22-1.15h0c0,.09-.13.53-.24,1.08Z"/><path class="cls-4" d="M126.6,98.3c.52-1.36.81-2.06,1-2.61a1.87,1.87,0,0,0,.12-.49c0-.1-.1-.15-.36-.15h-1.49c-.79,0-1.24.13-1.48.6a7,7,0,0,0-.44,1.25c-.08.08-.2,0-.24-.13.12-.64.28-1.74.4-2.75a.11.11,0,0,1,.17,0c0,.44.18.46,1,.46h2.62a6.61,6.61,0,0,0,1.15,0s.06.09.06.16a40.1,40.1,0,0,0-1.63,3.93l-1.64,4.37c-.11.29-1,2.57-1,2.84s.1.22.28.26a13.19,13.19,0,0,0,1.47,0,2.78,2.78,0,0,0,1.84-.43,4,4,0,0,0,.7-1.68.16.16,0,0,1,.25.12,17.12,17.12,0,0,1-.45,2.61c-.55,0-1.11-.05-1.81-.05h-2.56c-.53,0-.88,0-1.11.05a.34.34,0,0,1,0-.22,26.85,26.85,0,0,0,1.08-2.5Z"/><path class="cls-4" d="M136.51,102.34c-.07-.41-.11-.46-.41-.46h-1.5c-.25,0-.31.05-.38.44l-.35,1.93a11.93,11.93,0,0,0-.22,1.52c0,.22,0,.33.29.37l.33,0a.47.47,0,0,1,0,.46,8.83,8.83,0,0,0-1-.05c-.33,0-.68,0-1,.05a.61.61,0,0,1,0-.46l.33,0c.24,0,.45-.24.59-.9.18-.85.46-2,.88-4.1l1-5a4.56,4.56,0,0,0,.17-1.31,1.45,1.45,0,0,0,.52-.69c.06,0,.13,0,.15.16.13.81.29,1.65.44,2.46l1.36,7.38c.29,1.58.42,1.85.85,2l.26,0a.61.61,0,0,1,0,.46,11.43,11.43,0,0,0-1.2-.05c-.48,0-.85,0-1.14.05a.5.5,0,0,1,0-.46l.29,0c.2,0,.34-.15.34-.33a6.43,6.43,0,0,0-.13-1Zm-2-1.64c-.08.43-.07.44.21.44H136c.29,0,.31-.07.22-.57l-.54-3c-.08-.44-.17-.93-.23-1.15h0c0,.09-.13.53-.24,1.08Z"/><path class="cls-4" d="M141.61,94.87a.48.48,0,0,1,0-.44c.26,0,.71,0,1,0s.79,0,1.13,0c.09,0,.08.31,0,.44l-.22,0c-.21,0-.33.15-.33.31a24.49,24.49,0,0,0,.51,2.46c.56,2.3,1.15,4.59,1.73,6.85.23-.92.5-2,.76-3a5.15,5.15,0,0,0,.16-.76,2.64,2.64,0,0,0-.08-.47c-.35-1.47-.72-2.94-1.09-4.41-.15-.57-.3-1-.64-1l-.24,0a.44.44,0,0,1,0-.44c.29,0,.67,0,1.07,0a9.19,9.19,0,0,0,1.09,0c.07,0,.08.29,0,.44l-.26,0c-.39.06-.4.19-.21,1s.49,2.06.77,3.2c.19-.72.37-1.42.59-2.41.35-1.56.3-1.76,0-1.8l-.3,0c-.07-.19-.05-.39,0-.44a8.14,8.14,0,0,0,.93,0,8.72,8.72,0,0,0,1,0c.07,0,.08.29,0,.44l-.29,0c-.42.06-.6.88-.82,1.64s-.62,2.27-.77,2.91a2.47,2.47,0,0,0-.09.45,2.39,2.39,0,0,0,.07.44c.34,1.41.68,2.79,1,4.18q.47-1.92.9-3.87c.2-.88.72-3.32.79-3.66.13-.66.3-1.45.3-1.67s-.12-.4-.33-.42l-.29,0a.47.47,0,0,1,0-.44c.38,0,.65,0,1,0a7.88,7.88,0,0,0,.93,0c.07,0,.08.29,0,.44l-.19,0c-.5.09-.59.64-1.19,3.2l-.72,3.1c-.44,1.87-.84,3.67-1.25,5.63a.14.14,0,0,1-.12.06.2.2,0,0,1-.14-.06c-.31-1.63-.89-3.92-1.2-5.21-.36,1.34-1,3.69-1.24,5.21a.14.14,0,0,1-.12.06.24.24,0,0,1-.15-.06c-.17-.77-.56-2.42-.69-3-.64-2.55-1.25-5.1-1.9-7.66-.19-.75-.31-1.24-.73-1.32Z"/><path class="cls-4" d="M158.22,102.34c-.07-.41-.11-.46-.41-.46h-1.5c-.25,0-.31.05-.38.44l-.35,1.93a11.93,11.93,0,0,0-.22,1.52c0,.22,0,.33.29.37l.33,0a.47.47,0,0,1,0,.46,8.83,8.83,0,0,0-1-.05c-.33,0-.68,0-.95.05a.61.61,0,0,1,0-.46l.33,0c.23,0,.45-.24.59-.9.18-.85.46-2,.88-4.1l1-5a4.56,4.56,0,0,0,.17-1.31,1.45,1.45,0,0,0,.52-.69c.06,0,.13,0,.15.16.13.81.29,1.65.44,2.46l1.36,7.38c.29,1.58.42,1.85.84,2l.27,0a.61.61,0,0,1,0,.46,11.43,11.43,0,0,0-1.2-.05c-.48,0-.86,0-1.14.05a.5.5,0,0,1,0-.46l.28,0c.21,0,.35-.15.35-.33a6.43,6.43,0,0,0-.13-1Zm-2-1.64c-.08.43-.07.44.2.44h1.23c.29,0,.31-.07.22-.57l-.54-3c-.08-.44-.17-.93-.23-1.15h0c0,.09-.13.53-.24,1.08Z"/><rect x="34.72" y="207.82" width="118" height="12.36"/><path class="cls-4" d="M42.27,214.9c.23.86.45,1.7.69,2.51h0c.26-.86.51-1.82.76-2.75l.94-3.51a17.57,17.57,0,0,0,.75-3.52,4.55,4.55,0,0,0,.75.05c.25,0,.58,0,.88-.05a.66.66,0,0,1,0,.46l-.2,0c-.63.11-.71.46-.7,1.75,0,1.94,0,5.34.11,8,0,.92,0,1.41.49,1.49l.31,0a.56.56,0,0,1,0,.46c-.4,0-.81,0-1.17,0s-.8,0-1.2,0a.56.56,0,0,1,0-.46l.29,0c.48-.09.48-.39.48-1.56l0-7.66h0c-.07.21-.44,1.67-.64,2.39l-.89,3.21c-.45,1.62-.89,3.34-1.07,4.19a.1.1,0,0,1-.1.07.11.11,0,0,1-.09-.07c-.17-1-.65-2.78-.88-3.67l-.89-3.55c-.21-.84-.42-1.8-.64-2.64h0c0,1.14-.07,2.2-.1,3.27s-.07,2.75-.07,4.31c0,1.36.06,1.65.45,1.71l.38,0a.52.52,0,0,1,0,.46c-.34,0-.73,0-1.11,0s-.67,0-1,0a.61.61,0,0,1,0-.46l.22,0c.41-.11.55-.22.61-1.51s.11-2.22.17-4c0-1.52.09-3.08.11-4.09s-.06-1.43-.67-1.58l-.15,0a.56.56,0,0,1,0-.46,7.43,7.43,0,0,0,.78.05,5.21,5.21,0,0,0,.83-.05,12.08,12.08,0,0,0,.51,3Z"/><path class="cls-4" d="M54.5,215.54c-.07-.41-.11-.46-.41-.46h-1.5c-.25,0-.31,0-.38.44l-.35,1.93a13.19,13.19,0,0,0-.21,1.52c0,.22.05.33.28.37l.33,0a.47.47,0,0,1,0,.46c-.26,0-.56,0-1,0s-.69,0-1,0a.61.61,0,0,1,0-.46l.33,0c.24,0,.46-.24.6-.9.18-.85.46-2,.87-4.1l1-5a4.54,4.54,0,0,0,.17-1.3,1.44,1.44,0,0,0,.51-.7c.06,0,.13,0,.15.16.13.81.29,1.66.44,2.46l1.36,7.38c.29,1.58.42,1.86.85,2l.27,0a.61.61,0,0,1,0,.46c-.41,0-.76,0-1.2,0s-.86,0-1.15,0a.5.5,0,0,1,0-.46l.29,0c.21,0,.35-.15.35-.33a6.5,6.5,0,0,0-.13-1Zm-2-1.64c-.08.43-.07.44.21.44H54c.29,0,.31-.07.22-.56l-.53-3c-.08-.44-.17-.93-.23-1.15h0c0,.09-.13.53-.24,1.08Z"/><path class="cls-4" d="M63,217c0,2,.06,2.25.6,2.33l.38,0a.6.6,0,0,1,0,.46c-.62,0-1,0-1.35,0s-.78,0-1.31,0a.6.6,0,0,1,0-.46l.31,0c.58-.11.6-.37.6-2.33v-.94a6.26,6.26,0,0,0-.32-2.28l-1.17-4.22c-.34-1.21-.49-1.3-.79-1.39l-.28-.09a.55.55,0,0,1,0-.46c.32,0,.68.05,1.15.05a9.42,9.42,0,0,0,1.07-.05c.09.05.09.35,0,.46l-.13,0c-.35.09-.42.19-.42.33a14.42,14.42,0,0,0,.31,1.42c.37,1.35.74,2.8,1.12,4.07.31-1,.64-2,.94-3.1s.65-2.2.65-2.42-.18-.24-.42-.3l-.18,0a.49.49,0,0,1,0-.46c.36,0,.65.05.95.05s.59,0,.93-.05a.5.5,0,0,1,0,.46l-.28.09c-.52.16-.82,1.32-1.31,2.9l-.63,2a7,7,0,0,0-.47,3Z"/><path class="cls-4" d="M74.34,212.29a23.94,23.94,0,0,0-.19-3.8.58.58,0,0,0-.5-.39l-.24,0a.55.55,0,0,1,0-.44c.37,0,.74.05,1.13.05s.69,0,1-.05a.52.52,0,0,1,0,.44l-.23,0a.6.6,0,0,0-.5.44,30,30,0,0,0-.14,3.75v2.07a10.5,10.5,0,0,1-.7,4.39,2.2,2.2,0,0,1-1.9,1.34,2.08,2.08,0,0,1-1.86-1c-.53-.81-.77-2.15-.77-4.33v-4.33c0-1.91,0-2.22-.6-2.32l-.25,0a.56.56,0,0,1,0-.44c.5,0,.84.05,1.23.05s.74,0,1.23-.05a.56.56,0,0,1,0,.44l-.24,0c-.58.1-.6.41-.6,2.32v4c0,3,.5,4.9,2,4.9s2-2.09,2-4.88Z"/><path class="cls-4" d="M80,210.45c0-1.74,0-2-.44-2.14l-.32-.08a.5.5,0,0,1,0-.46,14,14,0,0,1,2.22-.14,2.18,2.18,0,0,1,1.66.55,3.45,3.45,0,0,1,.83,2.57,3.68,3.68,0,0,1-1.25,3.06.7.7,0,0,0,.05.44,23.8,23.8,0,0,0,2,4.89,1,1,0,0,0,.69.51.24.24,0,0,1,0,.26A1,1,0,0,1,85,220c-.84,0-1.35-.46-2.06-2.31-.26-.68-.66-1.95-1-2.78-.15-.4-.31-.58-.71-.58s-.47,0-.47.4V217c0,1.93,0,2.15.6,2.3l.21,0a.6.6,0,0,1,0,.46c-.45,0-.79,0-1.18,0s-.78,0-1.25,0a.59.59,0,0,1,0-.46l.25,0c.58-.13.6-.37.6-2.3Zm.81,2.63a2.52,2.52,0,0,0,0,.6c0,.06.18.1.69.1a1.14,1.14,0,0,0,1-.48,3.89,3.89,0,0,0,.5-2.28c0-1.45-.49-2.82-1.59-2.82-.62,0-.65.07-.65.58Z"/><path class="cls-4" d="M89.4,210.47c0-1.94,0-2.26-.61-2.35l-.25,0a.6.6,0,0,1,0-.46c.5,0,.84.05,1.25.05s.74,0,1.24-.05a.6.6,0,0,1,0,.46l-.25,0c-.59.09-.61.41-.61,2.35V217c0,1.94,0,2.2.61,2.33l.25,0a.6.6,0,0,1,0,.46c-.5,0-.84,0-1.24,0s-.75,0-1.25,0a.6.6,0,0,1,0-.46l.25,0c.59-.13.61-.39.61-2.33Z"/><path class="cls-4" d="M102.17,220.09a2.16,2.16,0,0,1-1.56-.68,14.86,14.86,0,0,1-.27-2.57c0-.13.2-.16.24-.05.15.93.56,2.73,1.71,2.73.84,0,1.25-1,1.25-2.11a3.67,3.67,0,0,0-.82-2.57l-.94-1.14a4.88,4.88,0,0,1-1.08-3.16c0-1.74.74-3.15,2-3.15a2.25,2.25,0,0,1,.93.24.86.86,0,0,0,.35.11,14.35,14.35,0,0,1,.18,2.24c0,.11-.2.16-.25.05-.13-.88-.4-2.07-1.36-2.07s-1.18,1.19-1.18,2a3.42,3.42,0,0,0,.85,2.26l.79.92a5,5,0,0,1,1.24,3.52C104.28,218.71,103.46,220.09,102.17,220.09Z"/><path class="cls-4" d="M110.37,213.87c-.48,0-.5,0-.5.59V217c0,1.93,0,2.19.61,2.3l.29,0a.6.6,0,0,1,0,.46c-.54,0-.88,0-1.27,0s-.76,0-1.15,0a.6.6,0,0,1,0-.46l.17,0c.56-.19.58-.37.58-2.3v-6.6c0-1.93-.07-2.24-.59-2.32l-.26,0a.6.6,0,0,1,0-.46c.49,0,.83.05,1.25.05s.73,0,1.16-.05a.6.6,0,0,1,0,.46l-.19,0c-.58.11-.6.39-.6,2.32v2.11c0,.57,0,.58.5.58h2.85c.47,0,.49,0,.49-.58v-2.11c0-1.93,0-2.21-.6-2.32l-.19,0a.6.6,0,0,1,0-.46c.45,0,.79.05,1.2.05s.73,0,1.17-.05a.6.6,0,0,1,0,.46l-.2,0c-.58.11-.6.39-.6,2.32V217c0,1.93,0,2.17.6,2.3l.23,0a.6.6,0,0,1,0,.46c-.47,0-.81,0-1.2,0s-.77,0-1.2,0a.6.6,0,0,1,0-.46l.19,0c.6-.19.6-.37.6-2.3v-2.58c0-.56,0-.59-.49-.59Z"/><path class="cls-4" d="M120.06,210.47c0-1.94,0-2.26-.61-2.35l-.25,0a.6.6,0,0,1,0-.46c.5,0,.84.05,1.25.05s.74,0,1.24-.05a.6.6,0,0,1,0,.46l-.25,0c-.59.09-.61.41-.61,2.35V217c0,1.94,0,2.2.61,2.33l.25,0a.6.6,0,0,1,0,.46c-.5,0-.84,0-1.24,0s-.75,0-1.25,0a.6.6,0,0,1,0-.46l.25,0c.59-.13.61-.39.61-2.33Z"/><path class="cls-4" d="M126.4,210.47c0-1.94,0-2.26-.61-2.35l-.25,0a.6.6,0,0,1,0-.46c.5,0,.84.05,1.26.05s.73,0,1.23-.05a.6.6,0,0,1,0,.46l-.25,0c-.58.09-.6.41-.6,2.35V217c0,1.94,0,2.2.6,2.33l.25,0a.6.6,0,0,1,0,.46c-.5,0-.83,0-1.23,0s-.76,0-1.26,0a.6.6,0,0,1,0-.46l.25,0c.59-.13.61-.39.61-2.33Z"/><path class="cls-4" d="M138.1,216.68c0,.55,0,2.73,0,3.21,0,.11-.08.2-.19.2-.12-.31-.41-1-1.27-2.77l-2.31-4.85c-.27-.57-1-2.07-1.16-2.48h0a8.59,8.59,0,0,0-.05,1.2v4a26.09,26.09,0,0,0,.18,3.8.57.57,0,0,0,.51.35l.31,0a.55.55,0,0,1,0,.46c-.45,0-.8,0-1.17,0s-.68,0-1,0a.56.56,0,0,1,0-.46l.27,0a.53.53,0,0,0,.44-.37,32.3,32.3,0,0,0,.13-3.78v-5.31a2.75,2.75,0,0,0-.22-1.32.94.94,0,0,0-.62-.44l-.17,0a.52.52,0,0,1,0-.46,10.5,10.5,0,0,0,1.12.05,2.16,2.16,0,0,0,.46-.05,29.55,29.55,0,0,0,1.7,4l1,2c.68,1.41,1.17,2.44,1.64,3.32h0a3.33,3.33,0,0,0,0-.77v-3.93a23.38,23.38,0,0,0-.2-3.8c-.06-.17-.22-.28-.62-.37l-.17,0a.55.55,0,0,1,0-.46c.46,0,.8.05,1.18.05a10.08,10.08,0,0,0,1-.05.53.53,0,0,1,0,.46l-.14,0c-.31.09-.51.24-.55.39a26.89,26.89,0,0,0-.15,3.78Z"/><path class="cls-4" d="M146.29,215.54c-.07-.41-.11-.46-.41-.46h-1.5c-.25,0-.31,0-.38.44l-.35,1.93a13.19,13.19,0,0,0-.21,1.52c0,.22.05.33.28.37l.33,0a.47.47,0,0,1,0,.46c-.26,0-.56,0-1,0s-.69,0-1,0a.61.61,0,0,1,0-.46l.33,0c.24,0,.46-.24.6-.9.18-.85.46-2,.87-4.1l1-5a4.54,4.54,0,0,0,.17-1.3,1.44,1.44,0,0,0,.51-.7c.06,0,.13,0,.15.16.13.81.29,1.66.44,2.46l1.36,7.38c.29,1.58.42,1.86.85,2l.27,0a.61.61,0,0,1,0,.46c-.41,0-.76,0-1.2,0s-.86,0-1.15,0a.5.5,0,0,1,0-.46l.29,0c.21,0,.35-.15.35-.33a6.5,6.5,0,0,0-.13-1Zm-2-1.64c-.08.43-.07.44.21.44h1.22c.29,0,.31-.07.22-.56l-.53-3c-.08-.44-.17-.93-.23-1.15h0c0,.09-.13.53-.24,1.08Z"/><g id="letter_ol" data-name="letter ol"><rect class="cls-5" width="380.17" height="475.55"/></g></svg>