<svg xmlns="http://www.w3.org/2000/svg" viewBox="0 0 380.17 475.55"><defs><style>.cls-1,.cls-2,.cls-3,.cls-5{fill:none;}.cls-1,.cls-2,.cls-3{stroke:#000;}.cls-1{stroke-width:0.5px;}.cls-2{stroke-width:0.4px;}.cls-3{stroke-width:0.44px;}.cls-4{fill:#fff;}.cls-5{opacity:0.12;}</style></defs><title>アートボード 29</title><g id="letter_ol"><path d="M44.07,68.51a23.2,23.2,0,0,1-3.29,4.59h6.68l.84-1.94c.14-.33.26-.55.4-.55a16,16,0,0,1,2.84,3.63c0,.44-.43.66-.95,1V84c0,.74,0,1-.55,1l-1.77.22c-.55.07-.59-.11-.59-.92V82.72H37.52v1.39c0,.7,0,.81-.53.88l-1.88.22c-.36,0-.53,0-.53-.73V71.93c.84.29,1.31.47,3.15,1.17h1.86a43.27,43.27,0,0,0,.79-4.59H39.16v.77c0,.63,0,.81-.55.89l-1.74.18c-.57.07-.59,0-.59-.84V59.41c.19.08,2,.74,3,1.1h5.94l.88-1.5c.1-.15.31-.48.41-.48a19,19,0,0,1,1.93,2.39,28.26,28.26,0,0,0,.78-4.33H35.37a20.34,20.34,0,0,1,.14,2.31c0,1.58-.35,5.21-2.12,5.21-1.07,0-1.72-1.43-1.72-2.6a1.42,1.42,0,0,1,.36-1,16.38,16.38,0,0,0,2.72-7.15h.1a21.92,21.92,0,0,1,.47,2.79H41V51.34c1.32.15,3,.4,3.41.48.15,0,.34.07.34.25s-.48.48-.69.59v3.49h5.1l1-1.73c.33-.62.4-.62.47-.62.38,0,3.08,3.92,3.08,4.4s-.14.48-1.5.59a23.76,23.76,0,0,1-3.34,2.57,1.66,1.66,0,0,1,.35.84c0,.52-.5.7-.85.81v6.31c0,.7-.08.81-.53.85L46,70.35c-.53,0-.58,0-.58-.84v-1Zm-6.55,5v8.77H47.68V73.54Zm7.91-5.43V61H39.16v7.16Z"/><path d="M79.68,81.36c0,1.43,0,4-3.46,4-.69,0-.78-.26-.78-.88,0-2.68-.36-3.34-2.32-4.51l0-.11c1.79.18,2.83.25,3,.25.5,0,.54-.44.54-1.1V65.43H73.81v1.65c0,.66,0,.88-.66,1l-1.6.22c-.43.07-.43-.15-.43-.74v-.66h-1v5.07h1L72.41,69c.09-.19.19-.41.28-.41a21.34,21.34,0,0,1,2,3.45c0,.26-.09.26-.19.26H70.09v4.44l4.63-.88,0,.11a68,68,0,0,1-11.18,7.78c-.19-.88-.91-4.77-1.07-5.58l4.81-.88v-5H63l-.12-.4H67.3V66.86h-1v.63c0,.62,0,.91-.4,1L64,68.62c-.4,0-.4-.14-.4-.77V52.92c.4.11,2,.69,3.08,1.06H71l.69-1.32c.31-.59.43-.84.58-.84s1.55,1.69,1.9,2.16H80.3l.84-1.28c.23-.37.45-.7.62-.7s2.6,3.27,2.6,4-.36.66-1.24.88a16.18,16.18,0,0,1-3.63,2.42,3.71,3.71,0,0,1,.69,2.28c0,1.94-1.09,2.9-1.93,2.9s-.91-.7-1.07-1.65a17.25,17.25,0,0,0-2.2-6.5l0-.07A9.31,9.31,0,0,1,79.25,59a25.59,25.59,0,0,0,1.24-4.55h-6a1.28,1.28,0,0,1,.28.74c0,.33-.23.55-.93,1V65H81l1-1.61c.24-.41.43-.66.55-.66a17.88,17.88,0,0,1,2.58,4.66c0,.66-.48.77-1.27.8A13.79,13.79,0,0,1,80,72l0-.11a40.94,40.94,0,0,0,1.29-6.5H79.68ZM66.3,54.42v5.84h1V54.42Zm0,6.28v5.72h1V60.7Zm3.79-6.28v5.84h1V54.42Zm0,6.28v5.72h1V60.7Z"/><path d="M111.19,75.74l1.38-3c.17-.37.26-.52.38-.52a13.26,13.26,0,0,1,2.72,3.71c0,.26-.14.26-.31.26H93.63l-.12-.41Zm-17.3,9.47a36.38,36.38,0,0,0,6.59-8.55c.83.59,1.09.77,3.24,2.46a.54.54,0,0,1,.24.4c0,.26-.19.26-.29.26a2.18,2.18,0,0,1-.52-.11,20.09,20.09,0,0,1-9.26,5.65Zm6.83-12.77v1.07c0,.47,0,.69-.46.73l-2,.22c-.39,0-.53,0-.53-.62V58.35c.5.11,3,.81,3.65,1h1.62V56.07H94.16L94,55.63h9V51.3c.53.08,2.89.3,3.32.3.19,0,.47.07.47.33s-.09.29-.76.62v3.08h4.77l1.27-2.9c.09-.18.26-.55.4-.55a12.25,12.25,0,0,1,2.77,3.6c0,.29-.17.29-.31.29h-8.9v3.27h2.36l.57-1.25c.46-1,.51-1.1.62-1.1a16.69,16.69,0,0,1,2.91,3.52c0,.41-.73.77-1,.88V73c0,.7-.14.85-.53.88l-1.9.19c-.43,0-.5-.15-.5-.74v-.88Zm0-12.7v3.67h7.87V59.74Zm0,4.11v3.86h7.87V63.85ZM108.59,72V68.15h-7.87V72Zm-2.72,5.25c1.86.14,7.8.84,7.8,5.36,0,1.24-.58,2.75-1.7,2.75-.24,0-.45,0-.93-1.1a21.46,21.46,0,0,0-5.17-6.9Z"/><path d="M142.19,66.79l1.38-3.16c.12-.25.22-.44.31-.44A20.83,20.83,0,0,1,146.6,67c0,.26-.14.26-.29.26h-6.24V81.54a4.06,4.06,0,0,1-.65,2.64,4.14,4.14,0,0,1-2.93,1.18c-.69,0-.69-.26-.74-1.84-.07-2.13-.64-2.49-2.31-3.52v-.07c1.4.14,2.79.18,2.93.18.69,0,.69-.44.69-1.87v-11H124.47l-.12-.44h12.71V60.22c3.34.59,3.7.66,3.7.92s-.17.33-.69.48v5.17Zm-.12-9.87,1.22-2c.28-.44.35-.59.45-.59a21.92,21.92,0,0,1,3,4.92c0,.51-.17.51-1.57.59a23.19,23.19,0,0,1-4.15,3.81v-.07a57.15,57.15,0,0,0,1.17-6.24h-13.6a24.64,24.64,0,0,1,.15,2.64c0,3.2-1,4.74-2.27,4.74-1.07,0-1.79-1.18-1.79-2.35a2.63,2.63,0,0,1,.74-1.8A14.34,14.34,0,0,0,128,54.17h0a23.49,23.49,0,0,1,.52,2.75H134V51.41c2.41.33,3.15.41,3.56.52a.31.31,0,0,1,.28.33c0,.29-.31.36-.76.51v4.15ZM127.78,68c3,1.28,5.54,3.26,5.54,6.75,0,2.31-1.15,3.3-2,3.3s-1-.73-1.17-2a27.83,27.83,0,0,0-2.32-8Z"/><path d="M60.24,142l1.39-3c.42-.88.58-1.33.91-1.33.53,0,5.06,5.19,5.06,6.14s-.7,1.27-1.94,2.09v42.19c0,3.48,0,7.47-6.08,7.47-.87,0-.87-.44-.95-2.09-.24-4.87-3.12-6.39-4.4-7v-.25c.74.13,4.4.44,5.14.44,1,0,1.28-.44,1.28-2.34V142.77H37.5v51c0,.51,0,1.65-.62,1.71l-3.46.32c-.82.06-1,.12-1-1.46V139.86c1,.38,4.73,1.83,5.47,2.15Zm-22,16-.21-.75H49.22a134.72,134.72,0,0,0,2-13.42c1.23.38,4.73,1.59,5.72,1.9.2.06.7.25.7.7s-.13.5-1.36,1.07A45.76,45.76,0,0,1,50,157.26h4.19l1.89-4.43c.13-.26.33-.76.5-.76.33,0,3.25,5.06,3.25,5.5s-.25.44-.5.44H51.23v22h2.39V162.06c2.3.32,3.9.51,5,.64.17,0,.83.12.83.63s-.91.88-1.12,1V181.8c0,1.2,0,1.58-.61,1.65l-3,.38c-1.07.12-1.07.12-1.07-1.33v-1.77h-9.5v4.8c0,1.4,0,1.84-.62,1.9l-3.13.38c-.78.06-.94.06-.94-1.2V162.06c.78.13,4.4.45,5.14.57.16,0,.7.07.7.57s-.45.7-1.15,1V180h2.46V158Zm2.59-13.47c2.14.63,7.07,2.59,7.07,7.84,0,1.4-.41,4.37-2.8,4.37A1.55,1.55,0,0,1,43.38,155a26.19,26.19,0,0,0-2.59-10.31Z"/><path d="M114.6,142.26l1.61-3.1c.2-.38.37-.63.61-.63s4.9,5.44,4.9,6.71-1.36,1.7-1.89,1.89c-1.24,3.93-2.43,6.9-6.54,14.3a21.9,21.9,0,0,1,4,4.43,25.59,25.59,0,0,1,3.86,13.54c0,2.27-.45,9-6.08,9-1,0-1-.31-1-1.77,0-4.68-1.6-5.75-2.92-6.64V193.7c0,1.26,0,1.7-1,1.83l-2.83.38c-1.07.13-1.28.19-1.28-1.52V164.78c0,.26,0,.38-.49.38H83.43l-.2-.69H94.66a153.09,153.09,0,0,0,2.1-16.07H84.3l-.21-.76h7.57V136.88c1.6.26,4.93.7,5.8.89a.55.55,0,0,1,.53.57c0,.57-.62.76-1.23.95v8.35h2l1.85-4.43c.25-.63.29-.76.49-.76s4,4.87,4,5.57c0,.38-.28.38-.53.38H98.28c.9.31,3.9,1.83,4.56,2.21.41.26.58.38.58.63s-.17.45-1.44.95a126.54,126.54,0,0,1-6.17,12.28h3l2.14-5.38c.21-.51.29-.76.54-.76.45,0,4.56,5.76,4.6,6.39V140.17a43.34,43.34,0,0,1,5.55,2.09Zm-16.77,29.8,1.56-3.29c.41-.82.45-1,.66-1,.57,0,4.77,5.44,4.77,6.07s-.58,1.21-1.77,2.09v15.25c0,1.07,0,1.77-1,1.9l-2.92.31c-1,.13-1,.13-1-1.33v-4H91v4.49c0,1.14-.08,1.64-1.11,1.77l-2.67.38c-1.2.19-1.24-.25-1.24-1.33V170a55.09,55.09,0,0,1,5.51,2.09ZM86.85,149c1.39.69,6.45,3.86,6.45,10,0,4.62-2.51,4.62-3.16,4.62-1.53,0-1.61-.88-1.65-2.34a43.88,43.88,0,0,0-1.69-12.15ZM91,172.75v14.68h7.11V172.75ZM111.19,143V179.4a9,9,0,0,0,2.34.31c1.2,0,2.68,0,2.68-4.74a34.49,34.49,0,0,0-3.46-13.54A175.62,175.62,0,0,0,114.81,143Z"/><path d="M175.76,156.5c-1.48,1.39-1.61,2.4-2.06,6.13-.08.76-.33,1.71-.95,1.71-2.05,0-9.66-7.15-11.72-22.71-3,8.29-8.14,18.28-14.92,23.15v29c0,1.45-.09,1.39-1,1.52l-3,.38c-.86.12-1-.13-1-1.27V162.32a32.93,32.93,0,0,1-4.77,7.46l-.08-.12a155.32,155.32,0,0,0,6.95-32.52,44.89,44.89,0,0,1,4.94,1.71c1.76.69,2,.82,2,1.26,0,.25-.29.63-1.32.63a72.83,72.83,0,0,1-3.62,12.53c1.73.32,1.94.32,1.94.95,0,.31-.13.38-1.11,1.14v8.54c4.64-7.72,8-18.28,9.78-26.7.7.19,1.81.57,6.25,2.21.54.2.66.38.66.64,0,.44-.12.44-1.48.76,3.46,11.64,12,14.67,14.44,15.43Zm-9.09,8.85.49-1.33c.49-1.39.58-1.58.7-1.58a51.25,51.25,0,0,1,3.91,3.36c.94.88,1.35,1.2,1.35,2,0,.38,0,.63-1.39,1.77V190c0,2.59,0,5.37-4.57,5.37-.82,0-.94-.31-.94-1.33,0-4.11,0-4.55-1.11-6v5c0,.64,0,1.33-.66,1.39l-2.72.32c-.7.06-.78-.06-.78-1.2V177.06H159v16c0,.95,0,1.33-.66,1.39l-2.59.32c-.74.06-.74-.13-.74-1V177.06h-1.85V193.7c0,1,0,1.51-.74,1.58l-3,.38c-.86.12-.91-.13-.91-1.27V163.52a45,45,0,0,1,4.82,1.83Zm-7.28-7.72,2-3.73c.33-.63.41-.76.5-.76s3.66,4,3.66,4.81c0,.44-.29.44-.54.44H153.39l-.21-.76Zm-6.21,8.48V176.3H155V166.11Zm5.84,0V176.3H161V166.11Zm6.09,0V176.3H167V166.11Zm0,10.95v10.37c.37.06,1.06.19,1.31.19.41,0,.58-.31.58-1.52v-9Z"/><path d="M211.21,156.05c.41,16.14,9,27.27,18.38,30.24v.19c-2,1-3,4.75-3.17,5.7-.16,1.2-.29,2.21-1.07,2.21-.61,0-5-2-8.55-8.67-5.22-9.93-5.59-22.07-5.76-27.64-.74,8.66-2,14.61-4.19,20.18,1.4.69,7.48,3.54,7.48,9.55,0,3-1.64,5.51-3.7,5.51-1.48,0-1.6-1.14-1.85-3.48-.66-6.39-1.32-8.8-2.22-10.89a31,31,0,0,1-16.41,16.58l0-.19c10.2-9.81,14.48-21.64,15.5-39.29H190.32l-.21-.76h15.55c0-1.45.08-2.46.08-3.54V137c.7.06,7,.38,7,1.45,0,.45-.49.64-1.28.89v6.39c0,2.47-.08,6.64-.24,9.61h9l2.6-5.37c.2-.38.37-.76.49-.76s4.93,5.75,4.93,6.45c0,.44-.28.44-.49.44Z"/><path d="M258.67,146.63l1.76-3c.25-.44.5-1,.7-1s4.16,5.69,4.16,6.39c0,.44-.17.57-1.65,1.46v18.22c0,1.2-.08,1.58-1.11,1.7l-3,.38c-.9.13-.95.07-.95-1.33v-1.64H252v14.05c2.1-.38,2.68-.45,5.47-1a34,34,0,0,0-3-8l0-.19c2.3,1,9.13,4.18,9.13,12.21,0,2.85-1.36,5.06-3,5.06-1.07,0-1.44-.82-1.69-2.15-.16-.82-.86-4.74-1.07-5.76a95.51,95.51,0,0,1-12.33,11.14c-.17-.76-1.61-8-1.9-10,.74-.06,1-.12,3.42-.5V144.1a30,30,0,0,1,4.89,2.53h.82V136.7c1.44.25,4.45.75,5.84,1.07.25.06.54.19.54.57s-.13.51-1.24,1v7.28Zm-6.63.76v9.11h6.58v-9.11Zm6.58,9.8H252v9.93h6.58Zm16-14.93,1.52-3.1c.21-.38.41-.76.66-.76.66,0,4.73,5.95,4.73,7.15,0,.89-.62,1-1.52,1.2a85,85,0,0,1-6.54,15,22.47,22.47,0,0,1,7.77,17.08c0,3.35-.82,10.06-6.87,10.06-.49,0-1-.07-1.15-.83-.08-.44,0-2.15,0-3,0-2.28-.74-4.24-2.14-5.19v13.92c0,1.46-.2,1.52-1.11,1.65l-2.92.38c-.94.12-1-.13-1-1.46V139.92a26.94,26.94,0,0,1,5.47,2.34Zm-3.54.7v36.37a14.52,14.52,0,0,0,2.88.32c.7,0,2.51,0,2.51-4.3a28.32,28.32,0,0,0-3.58-13.48c.74-5.37,1.28-10.12,1.81-18.91Z"/><path d="M38.69,240.56l.63-1.42c.06-.13.09-.19.13-.19a11.52,11.52,0,0,1,1.22,1.68c0,.12-.07.12-.14.12H36.78a6.94,6.94,0,0,0,4.06,4.76v.06a2,2,0,0,0-.83,1.67c0,.38-.09.51-.23.51a3.9,3.9,0,0,1-1.29-1.12c-1.22-1.49-1.69-4-1.85-5.88h-.12v7.69c0,.19,0,.35-.17.36l-.89.12c-.2,0-.26,0-.26-.29v-5.86A11.17,11.17,0,0,1,31.08,248l0,0a20,20,0,0,0,3.27-7.22H31.14l-.06-.19H35.2v-3.2H31.91l-.06-.19H35.2v-3.06c.87.13,1,.15,1.46.24.05,0,.17.05.17.16s-.08.15-.31.23v2.43h1.64l.62-1.27c.06-.09.1-.19.13-.19A9.49,9.49,0,0,1,40,237.23c0,.13-.07.13-.13.13H36.52v3.2Z"/><path d="M52.25,241.41l.63-1.39c0-.13.08-.19.12-.19a9.07,9.07,0,0,1,1.19,1.64c0,.12-.06.12-.14.12H50.14A5.49,5.49,0,0,0,54.28,246V246c-.52.16-.66.82-.79,1.6,0,.22-.08.43-.33.43-.09,0-2-.81-2.74-4a13.62,13.62,0,0,1-.35-2.43H50v6.83c0,.32,0,.42-.29.45L49,249c-.24,0-.3,0-.3-.34v-4.88a10.12,10.12,0,0,1-4.11,4.47v0A18.42,18.42,0,0,0,48,241.59H44.6l-.05-.18h4.1v-4.66H45.14l0-.19h3.56v-2.48c.26,0,1.36.21,1.52.27s.13.07.13.16,0,.13-.34.23v1.82h1.71l.61-1.34c.08-.16.1-.21.13-.21a10,10,0,0,1,1.22,1.61c0,.13-.08.13-.14.13H50v4.66Zm-6.43-4.16a2.65,2.65,0,0,1,2.11,2.5c0,1.1-.77,1.26-.89,1.26s-.19-.08-.23-.32a13.17,13.17,0,0,0-1-3.39Zm4.36,4.06a34.52,34.52,0,0,0,1-4.09c.18.09,1.47.8,1.58.91a.2.2,0,0,1,.1.17c0,.15,0,.15-.39.13a12.83,12.83,0,0,1-2.31,2.93Z"/><path d="M61.39,245.25a3.43,3.43,0,0,0,1.52.56c.48,0,.7-.49.91-1.57a33.36,33.36,0,0,0,.51-4.91,16.24,16.24,0,0,0-2.11.4c-.74,5.11-2,6.75-4.41,8.34v0c1.33-1.6,2.59-3.54,3.19-8-.46.11-.61.14-.75.27-.41.35-.46.4-.6.4-.36,0-1.09-.94-1.09-1.74a1.48,1.48,0,0,1,.31-.85c.11.38.26,1,.9,1a10.24,10.24,0,0,0,1.35-.11c.13-1.21.16-2.23.16-2.49,0-.41,0-.65-.79-.72.31-.59.66-.91,1.06-.91s1.15.64,1.15,1.06a1.56,1.56,0,0,1-.15.57c-.06.9-.11,1.54-.2,2.31,1.74-.22,1.84-.32,2.13-.61s.28-.29.34-.29A3.2,3.2,0,0,1,66,239.31c0,.16,0,.23-.4.82-.27,2.51-.6,5.55-1.24,7a1.61,1.61,0,0,1-1.45,1.06c-.27,0-.28-.15-.34-.77a2.92,2.92,0,0,0-1.16-2.1Zm2.89-9.91a1.41,1.41,0,0,1,1.56,1.46c0,.42-.14.71-.38.71s-.21-.07-.52-.69a3.69,3.69,0,0,0-1.17-1.43A4.08,4.08,0,0,1,64.28,235.34Zm1.28-1.21A1.26,1.26,0,0,1,67,235.42c0,.4-.19.64-.36.64s-.16-.06-.47-.62a3.37,3.37,0,0,0-1.2-1.23A2.22,2.22,0,0,1,65.56,234.13Z"/><path d="M71.08,239.12A1.92,1.92,0,0,1,73.23,241c0,.62-.35,1.13-.72,1.13s-.4-.21-.72-1a4.38,4.38,0,0,0-1.39-1.87A3.73,3.73,0,0,1,71.08,239.12Zm7.81-1.84a16.06,16.06,0,0,1-5.61,9.64,5.07,5.07,0,0,0-1,.88c-.21.29-.23.32-.33.32-.33,0-1.32-1.56-1.32-2.53a1.56,1.56,0,0,1,.34-1c.12.59.21,1,.57,1A6.79,6.79,0,0,0,74.1,244a18.52,18.52,0,0,0,4.75-6.78Zm-6.58-1.87A1.59,1.59,0,0,1,74.08,237c0,.72-.42,1.12-.74,1.12s-.31-.11-.78-1.09a3.11,3.11,0,0,0-1.36-1.53A4.69,4.69,0,0,1,72.31,235.41ZM78,236.78c0,.26-.09.69-.4.69s-.24-.08-.58-.75a5.43,5.43,0,0,0-.93-1.38C76.84,235.34,78,235.57,78,236.78Zm-.3-2.85A1.17,1.17,0,0,1,79,235.12c0,.32-.11.69-.36.69s-.3-.16-.62-.71A3.31,3.31,0,0,0,76.91,234,4.93,4.93,0,0,1,77.66,233.93Z"/><path d="M87.07,242.34c0,.13-.15.69-.16.8,0,.46-.15,2.46-.2,2.88a9.31,9.31,0,0,0,1.56-.21,1,1,0,0,0,.52-.37c.13.13.78.55.9.66a.82.82,0,0,1,.35.66c0,.08,0,.54-.35.54a3.1,3.1,0,0,1-.78-.19,3.85,3.85,0,0,0-1.39-.26,10.93,10.93,0,0,0-3.5.61c-.21.21-.28.27-.35.27a2,2,0,0,1-1-1.63,1.77,1.77,0,0,1,.2-.77c.15.83.53.91.93.91.6,0,1.36-.08,2.08-.14,0-.43.06-2,.06-2.9a2.81,2.81,0,0,0-.24-1.42,2.89,2.89,0,0,0-.83.27,1.4,1.4,0,0,1-.37.19c-.25,0-.81-.72-.81-1.2a1.71,1.71,0,0,1,.24-.85c.13.53.38.8.68.8a25.75,25.75,0,0,0,2.76-.41,1.28,1.28,0,0,0,.58-.4c.15.11.78.54.91.65a.65.65,0,0,1,.18.45c0,.35-.21.39-.32.39s-1.17-.08-1.36-.08-.66,0-.78,0C86.64,241.68,87.07,242,87.07,242.34Z"/><path d="M96.11,241.84c0,.64-.32.95-.6.95s-.38-.21-.57-1a4.91,4.91,0,0,0-.87-2A2.1,2.1,0,0,1,96.11,241.84Zm-1.67,6.53c2.82-1.29,3.84-3.82,4.46-6a16.15,16.15,0,0,0,.56-2.54c0-.43-.24-.47-.56-.5.1-.17.32-.54.63-.54a1.77,1.77,0,0,1,1.32,1.33.72.72,0,0,1-.24.46c-.87,3.33-1.89,7.19-6.17,7.81Zm3.64-7.52c0,.58-.29,1.06-.64,1.06s-.38-.21-.5-1a6,6,0,0,0-.91-2.36A2.51,2.51,0,0,1,98.08,240.85Z"/><path d="M110.4,242.07c0,.69-.28,1.16-.7,1.16s-.44-.28-.81-1.1a5.85,5.85,0,0,0-1.73-2.16c0,1.68,0,2.88,0,3.62,0,.56.2,3,.2,3.5s-.1,1.68-.69,1.68-.78-1.29-.87-2.24a43.64,43.64,0,0,0,.31-6.06c0-.53,0-4-.09-4.49-.05-.33-.24-.6-.56-.6a.73.73,0,0,0-.33.08c.22-.56.61-1.08,1-1.08s1.3.23,1.3,1c0,.19-.16,1-.18,1.13-.07.58-.1,2.41-.1,3.13C108.93,239.78,110.4,240.61,110.4,242.07Z"/><path d="M121.9,235.39l.6-1.18c.07-.13.1-.18.14-.18a7,7,0,0,1,1.06,1.43c0,.11-.07.11-.13.11h-1.15v4.83h.09l.48-1.28c0-.11.08-.19.12-.19a9.11,9.11,0,0,1,.84,1.55c0,.11,0,.11-.1.11h-1.43v7.91c0,.27,0,.39-.2.4l-.83.08c-.21,0-.24,0-.24-.29v-8.1h-.82c0,5.67-.9,6.95-3.4,8.42v0c1.92-2.11,2.14-3.78,2.14-8.39h-.47c0,.18,0,.26-.38.48v5.37c0,.19,0,.33-.16.35l-.83.08c-.16,0-.24,0-.24-.29v-.93h-.63v2.28c0,.17,0,.33-.15.35l-.89.09c-.17,0-.19-.11-.19-.28v-6.2a11.5,11.5,0,0,1-1.28,2l0,0a25.45,25.45,0,0,0,1.66-8.29h-1.32l-.05-.18h2.66l.56-1.12c.08-.16.1-.19.14-.19a8.87,8.87,0,0,1,1.12,1.31Zm-2.84.18h-2.15a19.12,19.12,0,0,1-.88,4.14s.31.15.37.18h.5l.33-.7c0-.12.09-.2.19-.2s1,1.22,1.1,1.41h.54Zm-2.71,4.5v5.39H117v-5.39Zm4.8.33v-4.83h-.82v4.83Z"/><path d="M133.1,242.47l.35-.79c.05-.09.11-.24.2-.24A4.49,4.49,0,0,1,135,243c0,.16,0,.19-.48.48l-.08,2.73c0,.45,0,.52.23.55a8.92,8.92,0,0,0,.91,0c.36,0,.47,0,.6-.34a19.5,19.5,0,0,0,.71-2.32l0,0c0,.56,0,1.25,0,1.81a1,1,0,0,0,.21.78,1.26,1.26,0,0,1,.19.71c0,1.23-.67,1.23-1.35,1.23-2.73,0-2.87,0-2.82-1.6l.13-4.37-1.18.06c-.21,2.44-.94,5.32-4.3,6.25l0-.05c2.43-1.64,2.84-4.23,3-6.1L128,243l-.06-.17,2.82-.19c.06-.95.07-1.52.06-2.72.19,0,1.61.24,1.61.46s-.2.14-.29.16c0,1,0,1.42-.07,2Zm.89-6.13v1.93c0,.66,0,.66,1.19.66.78,0,1.1,0,1.52-1.57l0,0c0,.16,0,.54,0,.75,0,.42,0,.46.15.67a1.47,1.47,0,0,1,.19.79c0,1.15-.79,1.15-2.09,1.15-2.18,0-2.18-.42-2.18-2v-2.38H131c.15.09.81.54,1,.65s.14.1.14.18-.13.11-.34.13c-.81,2.17-1.76,3.61-3.91,4.56v0a10.32,10.32,0,0,0,2.67-5.49h-1.27a7.91,7.91,0,0,1,.07,1c0,1.34-.5,1.84-.86,1.84s-.77-.51-.77-1.09c0-.16.11-.32.34-.69a5.42,5.42,0,0,0,.92-2.32h0c.07.31.16.61.23,1.07h2.55v-2c.2,0,1.62.13,1.62.36s-.09.12-.29.2v1.44h2.31l.38-.75c.09-.19.13-.22.18-.22a5.8,5.8,0,0,1,1.28,1.76c0,.24-.2.25-.5.25a14.68,14.68,0,0,1-1.73,1v0a8.62,8.62,0,0,0,.45-1.85Z"/><path d="M144.34,238.61l.37-.77c.06-.13.11-.26.15-.26a6.56,6.56,0,0,1,1.07,1.38.28.28,0,0,1,0,.15c0,.14,0,.19-.34.44v3.64c0,.32,0,.49-.24.53l-.81.09c-.22,0-.22-.09-.22-.37v-.56h-1.14c0,3.75-1.19,5.09-2.06,5.83l0,0c.53-1.08.83-2.36.83-5.46V238c.21.09,1.16.49,1.36.59Zm-.27-2.93.54-1.26c0-.08.08-.21.14-.21a8.85,8.85,0,0,1,1.18,1.53c0,.13-.07.13-.13.13h-4.42l-.06-.19Zm-.86,3.12v3.91h1.14V238.8Zm4.26,1.38h1.41l.64-1.38c0-.09.1-.19.14-.19a9.49,9.49,0,0,1,1.2,1.65c0,.11-.08.11-.13.11h-1.12v8.15c0,.19,0,.38-.18.4l-.84.08c-.24,0-.25-.07-.25-.42v-8.21h-.87c0,3.41-.09,6.88-3.38,8.52l0,0c2.13-2.33,2.13-4.94,2.13-8.3v-5.08c.23.08,1,.37,1.26.48a12.72,12.72,0,0,0,1.69-1.74c.16.13.9.83,1.08,1s.46.4.46.51-.06.13-.16.13l-.24,0a11.64,11.64,0,0,1-2.82.43Z"/><path d="M159.34,248.09c.95-.42,3.38-1.48,3.38-6.46,0-2.3-.68-5.69-3.06-5.68a4.11,4.11,0,0,1,.51,1.87c0,1.62-1.13,9.26-3.31,9.26-.71,0-.81-.68-1-1.48a5.41,5.41,0,0,0-.48-1.66,4,4,0,0,1-.41-1.84c0-3.78,2.48-6.72,4.92-6.72,2.21,0,4.16,2.33,4.16,6.65,0,2.87-1,4.61-2.06,5.27a5.82,5.82,0,0,1-2.7.85ZM156,243.17a3.7,3.7,0,0,0,.15,1.3c.14.35.4.7.61.7.82,0,2.77-5,2.8-9.19C156.37,236.66,156,241.92,156,243.17Z"/><path d="M169.16,235.65c.28,0,1.23.54,1.23,1,0,.1-.09.45-.1.52s0,2,0,2.3.06,1.89.06,2.19c0,.63-.06,1.62-.61,1.62s-.69-1-.69-1.33c0-.13.05-.69.06-.8,0-.65.06-2.51.06-3.14s0-1.52-.78-1.45C168.53,236,168.86,235.65,169.16,235.65Zm-.19,13c2.81-2.07,3.22-4.34,3.22-10.25,0-2.54,0-2.88-.49-2.88a1.27,1.27,0,0,0-.35.07c.13-.39.3-1,1.08-1a1.34,1.34,0,0,1,1.21,1.08c0,.15-.12.72-.14.85s0,2.64,0,4c0,4.52-.78,6.88-4.49,8.16Z"/><path d="M179.66,240.9c.44,0,5.25-.18,5.66-.21.12,0,.67-.1.78-.1s1.26.2,1.26.87a.87.87,0,0,1-.49.73,2.55,2.55,0,0,1-1.19.18c-4.76,0-5.29,0-5.72.16a5.77,5.77,0,0,1-.77.35,2.36,2.36,0,0,1-1.2-2.11,1.41,1.41,0,0,1,.31-.9A1.21,1.21,0,0,0,179.66,240.9Z"/><path d="M191,248.48a13.41,13.41,0,0,0,4.49-5.6,5.87,5.87,0,0,0-1.72-1.95,4.28,4.28,0,0,1,2.24.61,21.11,21.11,0,0,0,.87-3.44l-2.15.54a10.21,10.21,0,0,1-3.48,4.2l0-.05a18.4,18.4,0,0,0,2.91-6.79c0-.45-.29-.51-.55-.58a.91.91,0,0,1,.85-.6c.45,0,1.4.65,1.4,1.15,0,.16,0,.21-.26.62-.05.1-.32.8-.39,1a4.8,4.8,0,0,0,1.75-.38c.09-.08.43-.48.51-.48a3.18,3.18,0,0,1,1.24,1.65c0,.2,0,.24-.55.62a27.13,27.13,0,0,1-1.05,3.42,2.21,2.21,0,0,1,.59,1.53c0,.27-.06,1.15-.67,1.15-.3,0-.38-.15-.76-.88a9,9,0,0,1-5.24,4.32Zm8.34-11.89c0,.45-.19.72-.41.72s-.24-.08-.39-.45a4.89,4.89,0,0,0-1.37-1.76C198.23,235,199.31,235.46,199.31,236.59Zm.9-1.45c0,.38-.16.73-.4.73s-.19-.08-.53-.72a3.45,3.45,0,0,0-1.22-1.26C198.71,233.85,200.21,233.78,200.21,235.14Z"/><path d="M205.35,240.9c.43,0,5.25-.18,5.66-.21.12,0,.66-.1.78-.1s1.26.2,1.26.87a.87.87,0,0,1-.49.73,2.55,2.55,0,0,1-1.19.18c-4.76,0-5.3,0-5.72.16a6.4,6.4,0,0,1-.77.35,2.36,2.36,0,0,1-1.2-2.11,1.47,1.47,0,0,1,.3-.9A1.23,1.23,0,0,0,205.35,240.9Z"/><path d="M220.45,246c0,1.33-.7,2.43-1.58,2.43s-1.59-1.1-1.59-2.43.72-2.44,1.59-2.44S220.45,244.63,220.45,246Zm-2.75,0c0,1,.52,1.79,1.17,1.79S220,247,220,246s-.52-1.79-1.16-1.79S217.7,245,217.7,246Z"/><path d="M33.24,259.34a1.33,1.33,0,0,1,1.18,1.44c0,.12-.08,1-.1,1.21,0,.44-.1,1.25-.1,2s0,1.43.53,1.43,1.28-1.06,1.44-1.71c.09-.31.12-.47.35-.47.49,0,1.11,1,1.11,1.51s-.13.73-1.48,1.29a8.89,8.89,0,0,0-2.57,1.25,3.6,3.6,0,0,0-1.27,2.61A1.46,1.46,0,0,0,34,271.44,5,5,0,0,0,36,271a5.77,5.77,0,0,1,.6-.24,1.74,1.74,0,0,1,1.18,1.34c0,.63-.35.77-.47.82a6.65,6.65,0,0,1-2.38.24c-1.8,0-2.25-.25-2.6-.58a2.72,2.72,0,0,1-.77-2,5.31,5.31,0,0,1,2.13-4.1c-.31-.19-.57-.35-.57-1.71,0-.34,0-1.78,0-2.09,0-1.37,0-2.51-.57-2.51a.54.54,0,0,0-.34.15A1.12,1.12,0,0,1,33.24,259.34Z"/><path d="M45.56,273.87C47.62,273,49,272,49,268.51c0-.75,0-3-1.47-3.49a6.46,6.46,0,0,1-.05,1.1,12.07,12.07,0,0,1-1.24,3.67,5.1,5.1,0,0,1,.21,1.17,1,1,0,0,1-.7.92c-.29,0-.43-.51-.49-.76-.41.48-1.35,1.47-1.91,1.47s-.55-.37-.67-.79c-.05-.16-.32-.84-.36-1a2,2,0,0,1-.09-.67,6.33,6.33,0,0,1,.64-2.61A5.21,5.21,0,0,1,45,265.18v-1.62a2,2,0,0,1-.85.26c-1,0-1.44-1.43-1.66-2.18.2.29.41.59.78.59a11.84,11.84,0,0,0,1.73-.49c0-1.65,0-1.94-.41-1.94a.3.3,0,0,0-.16,0c.07-.22.26-.82.85-.82a1,1,0,0,1,.87.9c0,.18-.12,1.23-.14,1.46.58-.21.65-.24.65-.5a.75.75,0,0,0,0-.16l0,0c.14.22.2.24.7.3a.94.94,0,0,1,.88,1.06c0,.39-.07.59-.49.66a5.59,5.59,0,0,0-1.86.49c0,.48,0,1.12,0,1.59a3.89,3.89,0,0,1,1.09-.23,3.68,3.68,0,0,0-.24-1.07,1.66,1.66,0,0,1,.82,1.09c1.84.19,2.82,2.34,2.82,4.43,0,.74-.12,3.24-1.7,4.13a6.78,6.78,0,0,1-3,.79ZM43.25,270c0,.32.06.55.32.55s1.08-.67,1.49-1.15c-.08-1.59-.08-2.33-.08-3.62A7.41,7.41,0,0,0,43.25,270Zm2.56-4.86a20.29,20.29,0,0,0,.15,3,7.46,7.46,0,0,0,1-3.27A2.18,2.18,0,0,0,45.81,265.18Z"/><path d="M58.81,265.51c2.09,0,2.64,2.45,2.64,3.94,0,2.69-1.34,4-3.1,4a2,2,0,0,1-2.12-2.06c0-.87.44-1.78,1.31-1.78.7,0,1.16.59,1.16,1.44a1.26,1.26,0,0,1-.14.67c.47-.11,1.65-.4,1.65-3,0-.89-.17-2.67-1.59-2.67-.89,0-1.64.7-2.44,3a11.56,11.56,0,0,0-.49,1.87c0,.24-.14.64-.54.64-.6,0-.69-1-.69-1.57s.08-.74.69-1.75c.16-.27,2.52-4.43,3.52-6.48a.85.85,0,0,0,.09-.35c0-.06,0-.13-.07-.13a3.18,3.18,0,0,0-.65.67c-.49.64-.65.76-1,.76-.71,0-1.08-1.12-1.14-1.7a.93.93,0,0,0,.55.27c.46,0,1.44-.86,1.93-1.28s.52-.45.68-.45,1.22.24,1.22,1.6c0,.48-.11.6-.48,1a19.35,19.35,0,0,0-2.06,3.65A2.18,2.18,0,0,1,58.81,265.51Zm-1,5.65c0-.25-.12-.59-.43-.59s-.36.34-.36.48a.58.58,0,0,0,.56.58A.56.56,0,0,0,57.77,271.16Z"/><path d="M73.05,265v-4.6c.3,0,1,.1,1.24.15s.38.06.38.19-.29.24-.32.24v4.63c0,.16,0,.38-.2.41l-.81.1c-.24,0-.29-.08-.29-.35v-.58H71.16v7h2.18v-5.35c.48.05,1,.13,1.51.23a.13.13,0,0,1,.12.14c0,.14-.1.19-.33.22v5.85c0,.22,0,.44-.19.46l-.9.08c-.19,0-.21-.11-.21-.38v-1.06H67.68v1c0,.35,0,.36-.2.38l-.9.08c-.2,0-.21-.06-.21-.3v-6.71l1.51.22a.16.16,0,0,1,.14.15c0,.16-.13.22-.34.27v4.74h2.16v-7H68V266c0,.29,0,.38-.24.4l-.87.09c-.14,0-.22-.06-.22-.33V260.5c.65.05,1.37.13,1.51.16s.14,0,.14.16-.06.2-.32.28V265h1.83v-6c.58.05,1.09.11,1.52.19a.15.15,0,0,1,.12.15c0,.17-.2.21-.32.24V265Z"/><path d="M86.85,266.41l.63-1.39c0-.13.08-.19.12-.19a9.07,9.07,0,0,1,1.19,1.64c0,.12-.06.12-.14.12H84.74A5.49,5.49,0,0,0,88.88,271V271c-.52.16-.66.82-.79,1.6,0,.22-.08.43-.33.43-.09,0-2-.81-2.74-4a13.62,13.62,0,0,1-.35-2.43h-.11v6.83c0,.32,0,.42-.29.45l-.72.08c-.24,0-.3,0-.3-.34v-4.88a10.07,10.07,0,0,1-4.11,4.47v-.05a18.42,18.42,0,0,0,3.45-6.56H79.2l0-.18h4.1v-4.66H79.74l0-.19h3.56v-2.48c.26,0,1.36.21,1.52.27s.13.07.13.16,0,.13-.34.23v1.82h1.71l.61-1.34c.08-.16.1-.21.13-.21a10,10,0,0,1,1.22,1.61c0,.13-.08.13-.14.13H84.56v4.66Zm-6.43-4.16a2.65,2.65,0,0,1,2.11,2.5c0,1.1-.77,1.26-.89,1.26s-.19-.08-.23-.32a13.17,13.17,0,0,0-1-3.39Zm4.36,4.06a34.52,34.52,0,0,0,1-4.09c.18.09,1.47.8,1.58.91a.2.2,0,0,1,.1.17c0,.15,0,.15-.39.13a12.83,12.83,0,0,1-2.31,2.93Z"/><path d="M99.76,262.66l.33-.78c.1-.21.13-.27.19-.27a11,11,0,0,1,1,1.07c.2.24.23.27.23.38s0,.2-.41.39V265c0,.26,0,.31-.2.32l-.6.07c.2.19.7.72,1,1.1a.3.3,0,0,1,.1.24c0,.24-.3.39-.38.42v1h.17l.48-1c.06-.11.1-.19.13-.19a5.09,5.09,0,0,1,.74,1.23c0,.13-.08.13-.14.13H101v2.55c0,.25,0,.38-.21.4l-.87.09c-.19,0-.21,0-.21-.35v-.77H98v2.13c0,.58,0,1.6-1.53,1.6-.31,0-.34-.11-.34-.27a5.16,5.16,0,0,0,0-.83,1.65,1.65,0,0,0-1-1.28v-.05l1.44.13c.19,0,.19-.12.19-.48v-.95H93.45l0-.17h3.32v-1.75H92.65l-.05-.19h4.12v-1.6H93.45l0-.19h3.32V265H95.11v.46c0,.18,0,.29-.15.31l-1,.09c-.07,0-.16,0-.16-.19V262.2a8.31,8.31,0,0,1,1.38.46h1.53V261.3H92.81l0-.17h4V259a10,10,0,0,1,1.5.24c.08,0,.12,0,.12.16s0,.15-.34.24v1.51h2.46l.61-1.25c.08-.18.09-.19.12-.19a7.9,7.9,0,0,1,1.14,1.5c0,.11-.06.11-.14.11H98v1.36Zm-3,2.13v-2H95.11v2Zm1.28-2v2h1.81v-2ZM98,265v1.38h1.74l.37-.92c-.17,0-.2,0-.24,0s-.06-.08-.06-.48Zm0,1.57v1.6h1.75v-1.6Zm0,1.79v1.75h1.75v-1.75Z"/><path d="M108.53,270.52c.21.31.67.85,1,.85,1.34,0,1.77-4.4,1.77-6,0-.4,0-1.43-.58-1.43-.17,0-.42.18-1,.56a66.43,66.43,0,0,1-2.17,8.24c-.2.39-.4.58-.66.58s-.54-.66-.54-1.73c0-.25,0-.29.23-.54a11.28,11.28,0,0,0,1-2.26c.39-1.2.55-1.82.94-3.42a2.72,2.72,0,0,1-1.17.51c-.42,0-.77-.53-.77-1.15a3.92,3.92,0,0,1,.49-1.59c0,.67.05,1,.46,1a4.48,4.48,0,0,0,1.36-.29,27.57,27.57,0,0,0,.59-3.28c0-.38-.2-.46-.29-.46a.21.21,0,0,0-.12,0c0-.82.56-.86.78-.86a1,1,0,0,1,.94,1,3.82,3.82,0,0,1-.23.94c-.11.43-.27,1.07-.55,2.26a3,3,0,0,1,.66-.13c.25,0,1.72.15,1.72,3.39,0,2.17-.8,6.65-2.51,6.65a1,1,0,0,1-1-.92,6.9,6.9,0,0,0-.4-1.88Zm4.91-7.5c1.37,0,2,1.52,2,2.89,0,1.65-.72,1.85-.88,1.85-.5,0-.5-.77-.5-1,0-2.18-.12-3.45-1.42-3.64A3.28,3.28,0,0,1,113.44,263Z"/><path d="M120.48,273.66a5.91,5.91,0,0,0,2.88-1.23,4.11,4.11,0,0,0,1.25-3.15c0-1.36-.5-2.41-1.1-2.41s-1.56,2-2,3.27c-.15.43-.33,1-.87,1-.14,0-.9-.08-.84-1.31,0-.1.14-3,.17-4a4.85,4.85,0,0,1,.69-2.77,2.3,2.3,0,0,1,1.85-1.41c.31,0,.49-.11.49-.51,0-.55-.33-.95-1-1.83.18.07,1,.26,1.15.31a1.89,1.89,0,0,1,1.34,2.05c0,.17,0,1.2-.58,1.2-.22,0-.3-.1-.57-.42a1.22,1.22,0,0,0-1-.51c-.94,0-1.33,1.26-1.33,1.84,0,.16.07.83.07,1a13.77,13.77,0,0,1-.22,1.71,9.61,9.61,0,0,0-.12,1.49c0,.22,0,.54.2.54s.24-.13.37-.29c.56-.67,1.49-1.73,2.5-1.73,1.29,0,2.14,1.6,2.14,3.49a3.5,3.5,0,0,1-1.15,3,6.91,6.91,0,0,1-3.58.8,4.9,4.9,0,0,1-.74-.05Z"/><path d="M130.45,269.66a3.4,3.4,0,0,1,2.29.85,2.34,2.34,0,0,1,.65,1.66c0,.74-.3,1.25-.76,1.25s-.72-.66-.76-.85a4.65,4.65,0,0,0-1.49-2.78Z"/><path d="M145,262.09l.43-.88c.15-.29.16-.32.22-.32s.55.54.73.77a2.67,2.67,0,0,1,.53.85c0,.19,0,.22-.49.43v10.43c0,.27,0,.37-.18.39l-.9.08c-.14,0-.25,0-.25-.31v-1.18h-4.31v1.2c0,.21,0,.32-.17.34l-1,.08c-.18,0-.2-.07-.2-.34V261.48a15.6,15.6,0,0,1,1.45.61h.67a30.14,30.14,0,0,0,.27-3.16,12,12,0,0,1,1.54.44c.39.13.44.14.44.27s-.14.16-.34.21a18.19,18.19,0,0,1-1.42,2.24Zm-4.22.19v3.11h4.31v-3.11Zm0,3.28v3.09h4.31v-3.09Zm0,3.28v3.32h4.31v-3.32Z"/><path d="M158.82,272c0,1.2-.08,2-1.56,2-.24,0-.24-.18-.24-.31a3.21,3.21,0,0,0-.07-.93,2.13,2.13,0,0,0-1.14-1.15l0-.06a11.2,11.2,0,0,0,1.49.17c.15,0,.23,0,.23-.57v-1.67a11.89,11.89,0,0,1-6.05,4.18v-.06a20.06,20.06,0,0,0,5.71-5.83,40.27,40.27,0,0,1-5.45,2.34c-.07-.37-.34-2-.39-2.31l1.61-.08v-6.9a12.64,12.64,0,0,1,1.36.52h.41c.08-.85.12-1.89.13-2.26a7.87,7.87,0,0,1,2,.54c0,.1,0,.1-.35.15-.69.88-.9,1.15-1.29,1.57h2.21l.31-.84c0-.09.12-.3.19-.3a5.07,5.07,0,0,1,1.29,1.55c0,.24-.28.43-.4.5v2.51c.2-.43.35-.78.52-1.2.31.26,1.44,1.15,1.44,1.38,0,.08-.05.09-.09.09a2.26,2.26,0,0,1-.3-.08c-.54,1-1,2-1.57,2.77Zm-4.57-10.5v1.88h3.3v-1.88Zm0,2.05v1.87h3.3v-1.87Zm3.13,3.92c.06-.09.09-.13.17-.27v-1.58h-3.3v2Z"/><path d="M169.37,273.09c.95-.42,3.39-1.48,3.39-6.46,0-2.3-.68-5.69-3.06-5.68a4.25,4.25,0,0,1,.51,1.87c0,1.62-1.14,9.26-3.31,9.26-.71,0-.81-.68-1-1.48a5.41,5.41,0,0,0-.49-1.66,4.07,4.07,0,0,1-.4-1.84c0-3.78,2.47-6.72,4.92-6.72,2.2,0,4.16,2.33,4.16,6.65,0,2.87-1,4.61-2.06,5.27a5.86,5.86,0,0,1-2.71.85ZM166,268.17a3.61,3.61,0,0,0,.16,1.3c.14.35.4.7.6.7.83,0,2.77-5,2.8-9.19C166.41,261.66,166,266.92,166,268.17Z"/><path d="M185.63,263l.37-.8c.13-.3.14-.33.2-.33a6.19,6.19,0,0,1,.9.89c.37.43.42.47.42.63s-.31.43-.39.48c0,7.18-.55,10-2.47,10-.52,0-.51-.13-.52-.66a1.78,1.78,0,0,0-1-1.75v0c.32,0,1.11.17,1.32.17.56,0,1.32,0,1.32-8.24v-.16h-2.47c0,5.26-1.51,9.39-4.91,10.58v-.05c3.37-3.09,3.5-8.13,3.56-10.53h-3.42l-.05-.18H182c0-.38,0-.72,0-1.23v-2.69c.19,0,1,.16,1.17.19.31.05.46.07.46.18s0,.1-.29.22V263Z"/><path d="M191.82,260.76l0-.19h7.72l.6-1.35c0-.06.08-.17.12-.17a7.67,7.67,0,0,1,1.3,1.58c0,.13-.06.13-.13.13h-3.17a18.34,18.34,0,0,1-1.1,2.74,3.27,3.27,0,0,1,.44.09s.07,0,.07.1-.07.13-.31.27v9.32c0,.33,0,.48-.18.49l-.9.08c-.22,0-.26,0-.26-.27v-8a17.09,17.09,0,0,1-4.31,4.83l0,0a31.25,31.25,0,0,0,4.76-9.62Zm5.75,4.24c2,.63,3.78,2.18,3.78,4.12,0,1.31-.8,1.37-.91,1.37-.29,0-.34-.21-.54-1a10.3,10.3,0,0,0-2.34-4.5Z"/><path d="M212.15,260.22l.37-.72c.2-.37.22-.39.27-.39a6.5,6.5,0,0,1,1.21,1.55c0,.18-.32.39-.45.47v4c0,.26,0,.37-.21.39l-.88.09c-.23,0-.23,0-.23-.36v-.4h-1.35v2.93h1.75l.6-1.27c0-.05.11-.19.15-.19a7.18,7.18,0,0,1,1.17,1.52c0,.11-.07.11-.13.11h-3.54v3.75a20.77,20.77,0,0,0,4.21-.36v.07a2.77,2.77,0,0,0-.48,1.74c0,.21,0,.34-.23.39s-2,.06-2.25.06c-2.5,0-3.54-.65-4.26-3.9a11.33,11.33,0,0,1-2.49,4.19l0,0a26.83,26.83,0,0,0,1.84-7.38c1.49.67,1.66.75,1.66.86s-.23.18-.33.19c-.17.64-.31,1.22-.56,2,.7,1.53,1.24,1.79,1.63,2v-6.61H208.1v.48c0,.2,0,.41-.2.43l-.85.08c-.26,0-.26-.19-.26-.45v-5.62a12.2,12.2,0,0,1,1.42.47Zm-4.05.19v4.22h4.13v-4.22Z"/><path d="M222.35,260.38a.7.7,0,0,0-.47-.76.8.8,0,0,1,.75-.56,1,1,0,0,1,.87,1,3.53,3.53,0,0,1-.27,1,3,3,0,0,0,.34-.26c.19-.17.21-.19.34-.19a.93.93,0,0,1,.93,1,.59.59,0,0,1-.21.48,11.5,11.5,0,0,1-2,1c-.07.26-.44,1.35-.51,1.57a1.41,1.41,0,0,1,.91-.43c.78,0,.9,1.5.92,2,.28-.88,1.12-2.56,2.3-2.56.87,0,1.54.85,1.54,2.09a1.44,1.44,0,0,1-1.06,1.6,17.37,17.37,0,0,0-2.79,1.3c0,.24,0,1.31,0,1.54s0,.78-.56.78-.7-.91-.66-1.55a1.85,1.85,0,0,0-.82,1.47c0,.74.52.83,1.07.83a5.75,5.75,0,0,0,1.77-.33,1.08,1.08,0,0,1,.27-.07,1.11,1.11,0,0,1,.94,1.08c0,1-1,1.18-2,1.18a3.46,3.46,0,0,1-2.36-.75,1.87,1.87,0,0,1-.39-1.27c0-.81.32-1.61,1.61-2.59a18.44,18.44,0,0,0,.19-2.42c0-.56,0-1.74-.52-1.74-.31,0-.43.32-1.16,2.14-.48,1.2-1.19,2.47-1.72,2.47-.26,0-.51-.34-.51-1a1.61,1.61,0,0,1,.63-1.39,9,9,0,0,0,1.93-3.47,1.66,1.66,0,0,1-.54.14c-.81,0-1-1.36-1.09-2.21a1.53,1.53,0,0,0,1,.64,2.9,2.9,0,0,0,1.14-.38A5.86,5.86,0,0,0,222.35,260.38Zm3.78,5.73a1.44,1.44,0,0,0,.36-.95c0-.37-.31-.94-.78-.94-.19,0-.46,0-1,.77s-.59,1.31-.83,3.13A12.18,12.18,0,0,0,226.13,266.11Z"/><path d="M239.5,261.19l.59-1.28c.07-.16.08-.19.12-.19a8.09,8.09,0,0,1,1.21,1.55c0,.11-.07.11-.14.11h-6.65v4.37a18.25,18.25,0,0,1-.39,4.31,8.31,8.31,0,0,1-2.1,3.79l0-.05a9.68,9.68,0,0,0,1-3.26,30.19,30.19,0,0,0,.27-3.23V267a14.72,14.72,0,0,1-1.23,2.36c-.15-.55-.42-2-.49-2.44l1.72-.51V260.7c1,.33,1.17.43,1.32.49h1.6v-2.1c.19,0,1.39.23,1.49.26s.14.07.14.16,0,.13-.33.21v1.47Zm-7.63.29a3.44,3.44,0,0,1,1.46,2.64c0,.77-.3,1.15-.71,1.15s-.43-.24-.43-.68a14,14,0,0,0-.33-3.06Zm8,3.57c0-.05.13-.29.18-.29a3.9,3.9,0,0,1,.68.71c.5.57.55.65.55.8s0,.16-.48.51v5.6c0,.79,0,1.57-1.3,1.57-.2,0-.26-.1-.26-.39,0-1.26-.37-1.58-.73-1.74v-.06a3.34,3.34,0,0,0,.77.06c.27,0,.27-.18.27-.54V269.9h-1.1v3.49c0,.37,0,.38-.16.4l-.84.08c-.16,0-.2,0-.2-.32V269.9H236.2v3.65c0,.29,0,.32-.19.34l-.9.09c-.18,0-.18-.06-.18-.38v-8.15a11.8,11.8,0,0,1,1.38.48h1.33c-.11-.1-.15-.16-.37-.72a4.25,4.25,0,0,0-1.32-2v-.05a4.16,4.16,0,0,1,2.24.76,11.27,11.27,0,0,0,.58-1.13h-3.84l-.05-.19h3.87l.42-.65a1,1,0,0,1,.16-.21,6.1,6.1,0,0,1,1.13,1.73c0,.25-.26.25-.31.25-.51,0-.56,0-.69.07-.66.33-.74.38-.95.46a1,1,0,0,1,.21.69,1,1,0,0,1-.49,1h1.22Zm-2.62,1.07H236.2v1.65h1.06Zm0,1.84H236.2v1.76h1.06Zm2.3-1.84h-1.1v1.65h1.1Zm0,1.84h-1.1v1.76h1.1Z"/><path d="M249.33,269a2.26,2.26,0,0,1,.58,0,18.35,18.35,0,0,0,1.47-2.77,21.86,21.86,0,0,1-.88-5h-3.17v1.52h2l.4-.87s.09-.16.12-.16a4.79,4.79,0,0,1,.79,1.09c0,.11,0,.13-.07.13h-3.22v.72c0,3.14-.58,4.88-2,6.58v-.05a19.17,19.17,0,0,0,.74-5.79v-3.81c.61.19,1,.33,1.31.45h3.09c-.05-.82-.06-1.28-.06-2,.19,0,.81.09,1.39.19.06,0,.14.06.14.11s-.09.16-.29.23c0,.46,0,.92,0,1.44h1.56l.49-1.14c0-.1.08-.21.13-.21a8.21,8.21,0,0,1,.86,1.43c0,.11-.06.11-.12.11H251.7a16.91,16.91,0,0,0,.4,3,18.38,18.38,0,0,0,.58-2.31c.13.07,1.49.68,1.49.85s-.1.13-.34.15a15.53,15.53,0,0,1-1.18,2.91c.42.86.93,1.3,1.08,1.3s.71-1.28.92-1.88l0,0c0,.32-.15,1.78-.15,2.06a2.16,2.16,0,0,0,.09.6,3.37,3.37,0,0,1,.15.85c0,.57-.26.84-.54.84s-1.49-.44-2.46-2.43a8,8,0,0,1-1.71,1.78,1.23,1.23,0,0,1,1.16,1.28c0,.49-.25,1-.63,1s-.44-.19-.56-.77a3.26,3.26,0,0,0-.71-1.47Zm-2.42.75a8,8,0,0,1,.3,2c0,.83-.29,1.54-.89,1.54-.42,0-.65-.5-.65-.9a1,1,0,0,1,.28-.61,4.64,4.64,0,0,0,.93-2.06Zm.61-5.64a5.3,5.3,0,0,1,1.14.36h.61l.27-.5c.1-.19.2-.37.28-.37a1.77,1.77,0,0,1,.31.34c.59.73.66.83.66,1s-.07.2-.33.4v2c0,.28,0,.43-.21.45l-.73.08c-.16,0-.16-.07-.16-.34v-.37h-.73v.79c0,.39,0,.46-.18.47l-.68.08c-.21,0-.25,0-.25-.36Zm1.62,7.08c0,.57,0,.59.49.59,1.63,0,1.78,0,2-.16a1.56,1.56,0,0,0,.4-.8l.22-.77h0a4.56,4.56,0,0,0,.17,1.46,1.34,1.34,0,0,1,.32.89,1,1,0,0,1-.42.93,6.46,6.46,0,0,1-2.49.19c-1.9,0-1.95-.09-1.95-1.37v-2.67c.38,0,.92.12,1.3.19.19,0,.26.05.26.13a1,1,0,0,1-.29.2Zm.22-6.55h-.73V267h.73Zm2.49-5.7c.25,0,1.41.29,1.41,1.24a.82.82,0,0,1-.72.86c-.23,0-.27-.19-.31-.58a3.53,3.53,0,0,0-.39-1.47Zm.8,10.55a2.86,2.86,0,0,1,1.94,2.53c0,.88-.45,1.12-.73,1.12s-.43-.25-.49-.77a7.71,7.71,0,0,0-.73-2.81Z"/><path d="M266.08,266.27c-.32,4.59-1.62,7-4.1,7-1.93,0-2.17-1.9-2.17-4.95,0-1.08.19-5.8.19-6.77,0-.51,0-.86-.78-.84.18-.4.43-.93,1.13-.93a1.11,1.11,0,0,1,1.1,1c0,.23-.22,1.19-.25,1.38-.14,1.2-.32,4.61-.32,7,0,1.13,0,2.16,1.19,2.16,1.92,0,3.15-2.07,4-5.09Z"/><path d="M270.85,262c.2,0,1.26-.37,1.49-.43,1.24-.35,2.47-.64,3.72-.88a1.39,1.39,0,0,0,.78-.39c.06,0,.1-.08.15-.08s1.43.53,1.43,1.46c0,.3-.15.72-.47.72a1.89,1.89,0,0,1-.6-.16,3.43,3.43,0,0,0-1-.16,2,2,0,0,0-1.85,1.52,14.82,14.82,0,0,0-.61,4.51c0,2.81.86,3.11,1.95,3.53.4.14.76.28.76,1.16,0,.2,0,1-.58,1a3.4,3.4,0,0,1-1.35-.43c-1.19-.67-1.77-1.84-1.77-4.48,0-2.83.79-5.49,2-6.64a8.73,8.73,0,0,0-3.09,1.33c-.46.3-.53.33-.7.33-.67,0-1.11-.91-1.11-1.84a2.39,2.39,0,0,1,.15-.93C270.25,261.51,270.37,262,270.85,262Z"/><path d="M285.59,266.49a36,36,0,0,0-.56,4.23,2.8,2.8,0,0,0,.18,1c.16.43.19.48.19.65a.8.8,0,0,1-.73.87c-.8,0-1.92-1.52-1.92-5.49,0-1,0-1.33.29-4.53,0-.28.12-1.33.12-2a6.8,6.8,0,0,0-.17-1.56,4.79,4.79,0,0,1,1.51,3.39,4.29,4.29,0,0,1-.17,1.21,13.43,13.43,0,0,0-.56,3.75c0,1.23.18,2,.38,2s.31-.38.34-.46c.18-.48.88-2.55,1.07-3.14Zm2.72-2.78c1.39,0,2.91,1.24,2.91,4.06,0,.24,0,2-.85,2-.47,0-.71-.49-.72-1.05a8,8,0,0,0-.66-3.78,2.14,2.14,0,0,0-1.09-1.17Z"/><path d="M299.89,265.51c2.1,0,2.64,2.45,2.64,3.94,0,2.69-1.34,4-3.1,4a2,2,0,0,1-2.12-2.06c0-.87.44-1.78,1.31-1.78.7,0,1.16.59,1.16,1.44a1.26,1.26,0,0,1-.14.67c.47-.11,1.65-.4,1.65-3,0-.89-.17-2.67-1.59-2.67-.89,0-1.64.7-2.44,3a11.56,11.56,0,0,0-.49,1.87c0,.24-.14.64-.54.64-.6,0-.69-1-.69-1.57s.08-.74.69-1.75c.16-.27,2.52-4.43,3.52-6.48a.85.85,0,0,0,.09-.35c0-.06,0-.13-.07-.13a3.18,3.18,0,0,0-.65.67c-.48.64-.65.76-1,.76-.71,0-1.08-1.12-1.14-1.7a.93.93,0,0,0,.55.27c.46,0,1.44-.86,1.93-1.28s.52-.45.68-.45,1.22.24,1.22,1.6c0,.48-.11.6-.48,1a19.35,19.35,0,0,0-2.06,3.65A2.18,2.18,0,0,1,299.89,265.51Zm-1,5.65c0-.25-.12-.59-.43-.59s-.36.34-.36.48a.58.58,0,0,0,.56.58A.56.56,0,0,0,298.85,271.16Z"/><path d="M310.28,271c0,1.33-.69,2.43-1.58,2.43s-1.58-1.1-1.58-2.43.72-2.44,1.58-2.44S310.28,269.63,310.28,271Zm-2.75,0c0,1,.53,1.79,1.17,1.79s1.17-.82,1.17-1.79-.52-1.79-1.17-1.79S307.53,270,307.53,271Z"/><line class="cls-1" x1="16.79" y1="21.34" x2="16.79" y2="321.72"/><path d="M16.79,13.21a4.07,4.07,0,1,1-4.07,4.06A4.06,4.06,0,0,1,16.79,13.21Z"/><path class="cls-1" d="M16.79,11.33a5.95,5.95,0,1,1-5.95,5.94A5.94,5.94,0,0,1,16.79,11.33Z"/><polygon class="cls-1" points="16.79 5.03 22.09 14.23 27.4 23.39 16.79 23.39 6.17 23.39 11.48 14.23 16.79 5.03"/><path d="M8.07,76.22c0,1.7,0,2.11.23,2.11a.7.7,0,0,0,.42-.14,1.08,1.08,0,0,1,0,.77A4.62,4.62,0,0,0,7,79.61c-.07,0-.14-.11-.16-.25l0-.56c0-.15,0-.2-.09-.15-.34.4-.69.78-1.06.78-1.11,0-1.86-1.6-1.86-3.55,0-2.54,1-4.16,2.32-4.16a1.59,1.59,0,0,1,.56.09.46.46,0,0,0,.1-.34v-2.3c0-.73,0-.92-.2-1.14l-.17-.18a.77.77,0,0,1,0-.54,7.31,7.31,0,0,0,1.5-1c.07,0,.12,0,.16.13,0,.74,0,1.49,0,2.63ZM6.81,73.83a2.15,2.15,0,0,0-.07-.61c-.12-.38-.33-.67-.56-.67-.49,0-1,1-1,2.84,0,1.19.29,2.83,1.09,2.83a.55.55,0,0,0,.4-.21,1.13,1.13,0,0,0,.12-.69Z"/><path d="M5.28,250.41c-.22,0-.24,0-.24.32,0,1.35.47,2.67,1.38,2.67.27,0,.64-.11.9-.94.11,0,.26.11.26.42-.4,1.53-1.13,2.05-1.71,2.05-1.32,0-2-1.71-2-3.67,0-2.27.89-4,2.11-4,1,0,1.56,1.21,1.56,2.59,0,.35,0,.6-.35.6Zm.65-.79a.52.52,0,0,0,.4-.17A.79.79,0,0,0,6.4,249c0-.59-.19-1-.52-1s-.76.72-.76,1.3c0,.25.14.27.45.27Z"/><line class="cls-2" x1="19.84" y1="44.58" x2="13.32" y2="44.58"/><line class="cls-2" x1="19.84" y1="75.81" x2="13.32" y2="75.81"/><line class="cls-2" x1="19.84" y1="110.99" x2="13.32" y2="110.99"/><line class="cls-2" x1="19.84" y1="146.18" x2="13.32" y2="146.18"/><line class="cls-2" x1="19.84" y1="181.36" x2="13.32" y2="181.36"/><line class="cls-2" x1="19.84" y1="216.54" x2="13.32" y2="216.54"/><line class="cls-2" x1="19.84" y1="251.72" x2="13.32" y2="251.72"/><line class="cls-2" x1="19.84" y1="251.72" x2="13.32" y2="251.72"/><line class="cls-2" x1="19.84" y1="251.72" x2="13.32" y2="251.72"/><line class="cls-2" x1="19.82" y1="286.53" x2="13.3" y2="286.53"/><line class="cls-2" x1="19.82" y1="321.72" x2="13.3" y2="321.72"/><line class="cls-3" x1="94.11" y1="321.72" x2="31.47" y2="321.72"/><line class="cls-3" x1="102.38" y1="41.68" x2="32.6" y2="41.68"/><circle cx="7.53" cy="44.58" r="1.68"/><path d="M34.79,309.3l-.26,1.77h.57l-.07.76h-.61L34.09,314H33.7l.31-2.19h-.63L33.06,314h-.39l.31-2.19h-.63l.07-.76h.68l.25-1.77h-.64l.07-.78h.68l.28-1.95h.42l-.29,1.95h.62l.28-1.95h.42l-.29,1.95h.59l-.06.78Zm-1,0-.26,1.77h.63l.26-1.77Z"/><path d="M40.75,310.3c0,1.93-.45,3.92-1.5,3.92s-1.5-2-1.5-3.92.45-3.92,1.5-3.92S40.75,308.44,40.75,310.3Zm-1.5,3.37c.5,0,.55-2.3.55-3.37s0-3.37-.55-3.37-.55,2.3-.55,3.37S38.76,313.67,39.25,313.67Z"/><path d="M44.74,311a1.18,1.18,0,0,1,.09.5,1.16,1.16,0,0,1-.09.47l-1.56.26a1.07,1.07,0,0,1-.09-.48,1.19,1.19,0,0,1,.09-.49Z"/><path d="M48.41,309.9c-.09,0-.09,0-.09.28V312c0,.67,0,1.41.45,1.41a.43.43,0,0,0,.28-.18.37.37,0,0,1,.09.31,1.17,1.17,0,0,1-.94.7c-.54,0-.73-.58-.73-1.37v-2.67c0-.25,0-.28-.12-.28h-.2a.4.4,0,0,1,0-.37,2.76,2.76,0,0,0,.54-.54,3.42,3.42,0,0,0,.48-.94.12.12,0,0,1,.19.07V309c0,.23,0,.24.13.24H49a.44.44,0,0,1,0,.23.77.77,0,0,1-.09.42Z"/><path d="M53.43,312.41c0,.81.17,1,.3,1s.14,0,.24-.14.1.16.08.27-.38.65-.75.65-.37-.14-.55-.42c0-.07-.07-.1-.1-.1s-.07.05-.14.14-.31.38-.55.38-.73-.42-.73-1.26a1.26,1.26,0,0,1,.68-1.25c.24-.14.43-.24.61-.33a.26.26,0,0,0,.15-.24c0-.13,0-.27,0-.41,0-.46-.1-1-.38-1s-.29.17-.34.68a.72.72,0,0,1-.11.39.82.82,0,0,1-.47.27c-.11,0-.15-.13-.15-.3a1.82,1.82,0,0,1,.32-.92,1.48,1.48,0,0,1,1.09-.73c.54,0,.86.5.83,1.74Zm-.78-.31c0-.19,0-.23,0-.22-.29.07-.55.28-.55.84,0,.38.15.72.33.72s.24-.22.25-.59Z"/><path d="M56.35,307.38c0-.48,0-.61-.13-.75l-.11-.12a.45.45,0,0,1,0-.36,6.18,6.18,0,0,0,1-.67.12.12,0,0,1,.11.08c0,.49,0,1,0,1.75v3.77c0,.13,0,.17.09.17s.25-.06.38-.34l.27-.59a1.27,1.27,0,0,0,.16-.48c0-.06-.07-.11-.13-.12l-.16-.05a.51.51,0,0,1,0-.42H58a5.69,5.69,0,0,0,1.23-.16.59.59,0,0,1,0,.42l-.21.08a1.09,1.09,0,0,0-.44.42,5.1,5.1,0,0,0-.43.7.27.27,0,0,0,0,.15.8.8,0,0,0,0,.21c.12.38.69,2,.85,2.29a.68.68,0,0,0,.39.27l.1,0a.55.55,0,0,1,0,.42,5.65,5.65,0,0,0-.82,0,5.18,5.18,0,0,0-.8,0,.54.54,0,0,1,0-.42l.09,0c.06,0,.1-.05.1-.09a2.51,2.51,0,0,0-.11-.39l-.46-1.29c0-.14-.1-.18-.16-.18s-.08.06-.08.29v.69c0,.84,0,.94.25,1l.11,0a.56.56,0,0,1,0,.42,5.85,5.85,0,0,0-.78,0,6.21,6.21,0,0,0-.79,0,.56.56,0,0,1,0-.42l.13,0c.23,0,.26-.14.26-1Z"/><path d="M62.43,311.21c-.15,0-.16,0-.16.22,0,.89.31,1.77.91,1.77.19,0,.43-.07.61-.62.07,0,.17.07.17.27-.27,1-.75,1.37-1.14,1.37-.88,0-1.35-1.14-1.35-2.45,0-1.51.59-2.68,1.4-2.68s1,.8,1,1.72c0,.23,0,.4-.23.4Zm.43-.53a.34.34,0,0,0,.27-.11.56.56,0,0,0,0-.27c0-.4-.12-.66-.34-.66s-.51.48-.51.86c0,.17.09.18.3.18Z"/><path d="M72.64,310.3c0,1.93-.45,3.92-1.5,3.92s-1.5-2-1.5-3.92.45-3.92,1.5-3.92S72.64,308.44,72.64,310.3Zm-1.5,3.37c.49,0,.55-2.3.55-3.37s-.06-3.37-.55-3.37-.55,2.3-.55,3.37S70.65,313.67,71.14,313.67Z"/><path d="M78,310.3c0,1.93-.45,3.92-1.5,3.92s-1.5-2-1.5-3.92.45-3.92,1.5-3.92S78,308.44,78,310.3Zm-1.5,3.37c.49,0,.55-2.3.55-3.37s-.06-3.37-.55-3.37-.55,2.3-.55,3.37S76,313.67,76.47,313.67Z"/><path d="M82.25,312.51c0,.95,0,1.07.36,1.12l.27,0a.51.51,0,0,1,0,.42,13.54,13.54,0,0,0-2.08,0c-.07,0-.08-.35,0-.42l.27,0c.32-.05.36-.17.36-1.12v-3.93c0-.79,0-1-.32-1l-.29-.07a.55.55,0,0,1,0-.42,4.53,4.53,0,0,0,.83-.34c.29-.15.54-.38.58-.38s.08,0,.09.13c0,.28,0,.83,0,1.43Z"/><path d="M35.39,31.74a1.14,1.14,0,0,1,.14.63c0,.36-.09.68-.17.68a.13.13,0,0,1-.11-.06c-.18-.48-.43-.9-.67-.9-.42,0-.65.89-.65,1.72s.34,1.9.93,1.9c.24,0,.44-.14.58-.58.08,0,.17.07.17.26-.14.6-.53,1.28-1.15,1.28-.82,0-1.38-1-1.38-2.42,0-1.7.75-2.71,1.63-2.71A1.35,1.35,0,0,1,35.39,31.74Z"/><path d="M38.05,29.84c0-.48,0-.62-.13-.76L37.81,29a.56.56,0,0,1,0-.36,6.21,6.21,0,0,0,1-.67.12.12,0,0,1,.11.08c0,.5,0,1,0,1.75V32c0,.11,0,.15.05.15l.1-.1a1.09,1.09,0,0,1,.75-.48c.54,0,.82.68.82,1.51v2.06c0,.84,0,.94.26,1l.1,0a.56.56,0,0,1,0,.42c-.2,0-.47,0-.78,0a6.49,6.49,0,0,0-.71,0,.61.61,0,0,1,0-.42l.12,0c.14-.05.17-.14.17-.8V33.22c0-.42-.14-.8-.45-.8a.42.42,0,0,0-.37.28,1.22,1.22,0,0,0-.05.45v2.14c0,.66,0,.75.18.8l.11,0a.61.61,0,0,1,0,.42,7.18,7.18,0,0,0-.73,0c-.26,0-.54,0-.76,0a.61.61,0,0,1,0-.42l.11,0c.22-.05.24-.15.24-1Z"/><path d="M45.45,34.86c0,.82.16,1,.29,1a.32.32,0,0,0,.25-.14c.06,0,.1.17.08.28s-.38.64-.76.64c-.22,0-.37-.14-.54-.42-.05-.07-.07-.09-.1-.09s-.08.05-.14.13-.31.38-.55.38-.73-.42-.73-1.26a1.25,1.25,0,0,1,.67-1.24c.25-.15.43-.24.62-.34a.27.27,0,0,0,.15-.24c0-.13,0-.26,0-.41,0-.45-.09-1-.37-1s-.3.17-.34.69a.66.66,0,0,1-.11.38.82.82,0,0,1-.47.27c-.11,0-.15-.13-.15-.3a1.9,1.9,0,0,1,.31-.92,1.51,1.51,0,0,1,1.1-.73c.54,0,.86.5.83,1.74Zm-.78-.31c0-.19,0-.23,0-.22-.3.08-.55.28-.55.84,0,.39.15.72.33.72s.24-.21.25-.58Z"/><path d="M48.42,33.33c0-.48,0-.63-.13-.77l-.09-.11a.55.55,0,0,1,0-.36,3.61,3.61,0,0,0,.95-.72c.05,0,.09,0,.12.11,0,.24,0,.41,0,.52s0,.12.07.14c.17-.2.36-.6.63-.6s.36.25.36.71-.21.78-.42.78-.16-.07-.25-.22-.21-.24-.25-.24-.12.27-.12.72v1.85c0,.84,0,.93.24,1l.21,0a.53.53,0,0,1,0,.41c-.31,0-.57,0-.87,0s-.56,0-.77,0a.53.53,0,0,1,0-.41l.13,0c.21,0,.24-.14.24-1Z"/><path d="M54.64,34.86c0,.82.16,1,.29,1a.32.32,0,0,0,.25-.14c.06,0,.1.17.08.28s-.38.64-.75.64-.37-.14-.55-.42c-.05-.07-.07-.09-.1-.09s-.08.05-.14.13-.31.38-.55.38-.73-.42-.73-1.26a1.25,1.25,0,0,1,.67-1.24c.25-.15.43-.24.62-.34a.25.25,0,0,0,.15-.24c0-.13,0-.26,0-.41,0-.45-.09-1-.37-1s-.29.17-.34.69a.66.66,0,0,1-.11.38.82.82,0,0,1-.47.27c-.11,0-.15-.13-.15-.3a1.9,1.9,0,0,1,.31-.92,1.51,1.51,0,0,1,1.1-.73c.54,0,.86.5.83,1.74Zm-.78-.31c0-.19,0-.23,0-.22-.3.08-.55.28-.55.84,0,.39.15.72.33.72s.24-.21.25-.58Z"/><path d="M59.57,31.74a1.14,1.14,0,0,1,.14.63c0,.36-.1.68-.17.68a.13.13,0,0,1-.11-.06c-.18-.48-.43-.9-.67-.9-.42,0-.65.89-.65,1.72s.33,1.9.93,1.9c.24,0,.44-.14.58-.58.08,0,.17.07.17.26-.14.6-.53,1.28-1.15,1.28-.82,0-1.38-1-1.38-2.42,0-1.7.75-2.71,1.63-2.71A1.35,1.35,0,0,1,59.57,31.74Z"/><path d="M63.15,32.36c-.08,0-.09,0-.09.27v1.8c0,.67,0,1.42.45,1.42a.44.44,0,0,0,.28-.18c.06,0,.1.16.09.31a1.14,1.14,0,0,1-.94.69c-.54,0-.73-.57-.73-1.36V32.63c0-.25,0-.27-.12-.27h-.2a.42.42,0,0,1,0-.38,2.51,2.51,0,0,0,.54-.54,3.31,3.31,0,0,0,.48-.93.13.13,0,0,1,.2.06v.9c0,.23,0,.24.12.24h.58a.44.44,0,0,1,0,.23.9.9,0,0,1-.08.42Z"/><path d="M66.93,33.66c-.15,0-.16,0-.16.22,0,.9.31,1.77.92,1.77.18,0,.43-.07.6-.62.07,0,.17.07.17.28-.27,1-.75,1.36-1.14,1.36-.87,0-1.35-1.14-1.35-2.44,0-1.51.59-2.69,1.41-2.69s1,.8,1,1.73c0,.22,0,.39-.24.39Zm.43-.52a.36.36,0,0,0,.27-.11.63.63,0,0,0,0-.28c0-.39-.12-.66-.34-.66s-.51.48-.51.87c0,.16.09.18.3.18Z"/><path d="M71,33.33c0-.48,0-.63-.12-.77l-.1-.11a.55.55,0,0,1,0-.36,3.61,3.61,0,0,0,1-.72c.06,0,.09,0,.12.11,0,.24,0,.41,0,.52s0,.12.07.14c.18-.2.36-.6.64-.6s.35.25.35.71-.2.78-.41.78-.17-.07-.25-.22-.21-.24-.25-.24-.13.27-.13.72v1.85c0,.84,0,.93.24,1l.21,0a.49.49,0,0,1,0,.41c-.32,0-.58,0-.88,0s-.55,0-.77,0a.49.49,0,0,1,0-.41l.12,0c.21,0,.24-.14.24-1Z"/><path d="M78.28,32.09c-.06-.08-.06-.37,0-.42a6.14,6.14,0,0,0,.81,0c.24,0,.48,0,.72,0a.61.61,0,0,1,0,.42l-.1,0c-.08,0-.11,0-.11.12a2.4,2.4,0,0,0,.06.42c.13.66.27,1.28.41,1.86.14-.6.3-1.24.44-2a2.27,2.27,0,0,0,0-.3c0-.06,0-.09-.16-.14l-.09,0a.48.48,0,0,1,0-.42,3.23,3.23,0,0,0,.53,0c.21,0,.36,0,.5,0a.51.51,0,0,1,0,.42l-.11,0c-.19.06-.25.2-.37.66-.34,1.23-.64,2.52-.93,3.8a.19.19,0,0,1-.15.08.21.21,0,0,1-.16-.08c-.34-1.51-.47-2.09-.88-3.68-.16-.59-.2-.69-.36-.76Z"/><path d="M83.44,34.2c0-1.71.72-2.66,1.49-2.66s1.46.86,1.46,2.55-.7,2.58-1.5,2.58S83.44,35.86,83.44,34.2Zm.93-.26c0,1.26.22,2.18.59,2.18s.5-.78.49-1.86-.19-2.17-.56-2.17S84.37,32.63,84.37,33.94Z"/><path d="M89.93,35.11c0,.84,0,1,.24,1l.12,0a.51.51,0,0,1,0,.42c-.23,0-.48,0-.78,0s-.57,0-.78,0a.56.56,0,0,1,0-.42l.12,0c.22,0,.24-.15.24-1V33.3c0-.48,0-.62-.12-.76l-.09-.11a.45.45,0,0,1,0-.36,4,4,0,0,0,1-.7s.09,0,.12.11c0,.36,0,.89,0,1.43Zm0-5.42c0,.58-.24.88-.49.88s-.45-.36-.45-.85.23-.88.49-.88S90,29.21,90,29.69Z"/><path d="M94.86,31.74a1.16,1.16,0,0,1,.13.63c0,.36-.09.68-.17.68s-.09,0-.1-.06c-.18-.48-.44-.9-.67-.9-.42,0-.65.89-.65,1.72s.33,1.9.93,1.9c.24,0,.44-.14.58-.58.08,0,.17.07.17.26-.15.6-.54,1.28-1.15,1.28-.82,0-1.38-1-1.38-2.42,0-1.7.75-2.71,1.62-2.71A1.36,1.36,0,0,1,94.86,31.74Z"/><path d="M98.17,33.66c-.15,0-.16,0-.16.22,0,.9.31,1.77.92,1.77.18,0,.42-.07.6-.62.07,0,.17.07.17.28-.27,1-.75,1.36-1.14,1.36-.88,0-1.35-1.14-1.35-2.44,0-1.51.59-2.69,1.4-2.69s1,.8,1,1.73c0,.22,0,.39-.23.39Zm.43-.52a.36.36,0,0,0,.27-.11.63.63,0,0,0,0-.28c0-.39-.12-.66-.34-.66s-.51.48-.51.87c0,.16.09.18.3.18Z"/><rect x="32.23" y="294.65" width="17.75" height="3.94"/><rect x="32.03" y="94.12" width="134.36" height="11.94"/><path class="cls-4" d="M40.43,101.19c.23.87.45,1.71.69,2.52h0c.27-.87.52-1.82.76-2.76l.94-3.5a17,17,0,0,0,.76-3.53,3.67,3.67,0,0,0,.74.06,7.38,7.38,0,0,0,.89-.06.66.66,0,0,1,0,.46l-.21,0c-.63.11-.71.46-.7,1.74,0,2,0,5.35.11,8,0,.92,0,1.41.49,1.49l.32,0a.56.56,0,0,1,0,.46c-.41,0-.82-.06-1.18-.06s-.79,0-1.2.06a.56.56,0,0,1,0-.46l.29,0c.49-.1.49-.39.49-1.57l0-7.65h0c-.07.2-.45,1.67-.65,2.39L42,102c-.44,1.61-.89,3.34-1.07,4.18a.1.1,0,0,1-.1.08.11.11,0,0,1-.09-.08c-.17-1-.65-2.77-.88-3.67L39,99c-.21-.84-.42-1.8-.64-2.64h0c0,1.13-.07,2.2-.1,3.26s-.07,2.76-.07,4.32c0,1.36.06,1.65.45,1.71l.38,0a.52.52,0,0,1,0,.46,9.73,9.73,0,0,0-1.1-.06,9,9,0,0,0-1,.06.61.61,0,0,1,0-.46l.22,0c.42-.12.56-.22.62-1.51s.11-2.22.17-4c0-1.52.09-3.08.1-4.09s-.05-1.43-.66-1.58l-.16,0a.56.56,0,0,1,0-.46A5.77,5.77,0,0,0,38,94a4.36,4.36,0,0,0,.83-.06,11.59,11.59,0,0,0,.52,3Z"/><path class="cls-4" d="M52.66,101.84c-.07-.41-.11-.46-.4-.46H50.75c-.25,0-.3.05-.37.44L50,103.74a12.23,12.23,0,0,0-.22,1.53c0,.22,0,.33.29.37l.33,0a.47.47,0,0,1,0,.46c-.26,0-.57,0-1-.06s-.69,0-.95.06a.61.61,0,0,1,0-.46l.32,0c.24,0,.46-.24.6-.9.18-.85.46-2,.88-4.1l1-5a4.6,4.6,0,0,0,.17-1.31,1.52,1.52,0,0,0,.52-.7c.06,0,.13,0,.15.17.13.81.29,1.65.43,2.46l1.37,7.38c.29,1.58.42,1.85.84,2l.27,0a.61.61,0,0,1,0,.46,11.47,11.47,0,0,0-1.2-.06c-.48,0-.86,0-1.15.06a.5.5,0,0,1,0-.46l.29,0c.21,0,.35-.15.35-.34a6.5,6.5,0,0,0-.13-1Zm-2-1.64c-.08.42-.07.44.21.44h1.23c.29,0,.31-.07.22-.57l-.54-3c-.08-.44-.17-.94-.23-1.15h0c0,.09-.13.53-.24,1.08Z"/><path class="cls-4" d="M61.66,101.19c.23.87.45,1.71.69,2.52h0c.27-.87.52-1.82.77-2.76l.93-3.5a17,17,0,0,0,.76-3.53,3.72,3.72,0,0,0,.74.06,7.38,7.38,0,0,0,.89-.06.66.66,0,0,1,0,.46l-.21,0c-.63.11-.71.46-.7,1.74,0,2,0,5.35.11,8,0,.92,0,1.41.49,1.49l.32,0a.56.56,0,0,1,0,.46c-.41,0-.82-.06-1.18-.06s-.79,0-1.2.06a.56.56,0,0,1,0-.46l.29,0c.49-.1.49-.39.49-1.57l0-7.65h0c-.07.2-.45,1.67-.65,2.39L63.26,102c-.45,1.61-.9,3.34-1.08,4.18a.1.1,0,0,1-.1.08.11.11,0,0,1-.09-.08c-.17-1-.64-2.77-.87-3.67L60.22,99c-.21-.84-.42-1.8-.64-2.64h0c0,1.13-.07,2.2-.1,3.26s-.06,2.76-.06,4.32c0,1.36.06,1.65.44,1.71l.38,0a.52.52,0,0,1,0,.46,9.73,9.73,0,0,0-1.1-.06,9,9,0,0,0-1,.06.61.61,0,0,1,0-.46l.22,0c.42-.12.56-.22.62-1.51s.11-2.22.17-4c.05-1.52.09-3.08.11-4.09s-.06-1.43-.67-1.58l-.16,0a.56.56,0,0,1,0-.46,5.79,5.79,0,0,0,.79.06,4.26,4.26,0,0,0,.82-.06,11.59,11.59,0,0,0,.52,3Z"/><path class="cls-4" d="M70.3,100.17c0-3.68,1.5-6.49,3.55-6.49,2.29,0,3.45,3.07,3.45,6.3,0,3.71-1.53,6.41-3.45,6.41C71.64,106.39,70.3,103.47,70.3,100.17Zm6,.38c0-3-.72-6.3-2.62-6.3-1,0-2.38,1.31-2.38,5.33,0,2.71.72,6.24,2.68,6.24C75.17,105.82,76.3,104.17,76.3,100.55Z"/><path class="cls-4" d="M82,96.75c0-1.74,0-2.06-.44-2.15l-.32-.07a.5.5,0,0,1,0-.46,13.82,13.82,0,0,1,2.22-.15,2.21,2.21,0,0,1,1.66.55A3.47,3.47,0,0,1,86,97a3.74,3.74,0,0,1-1.24,3.07.77.77,0,0,0,0,.44,23.42,23.42,0,0,0,2,4.88,1,1,0,0,0,.69.52c.05,0,.06.18,0,.25a.84.84,0,0,1-.44.1c-.84,0-1.35-.46-2.06-2.32-.25-.68-.66-1.94-1-2.77-.15-.4-.31-.59-.71-.59s-.46,0-.46.41v2.31c0,1.93,0,2.15.59,2.3l.21,0a.6.6,0,0,1,0,.46c-.45,0-.78-.06-1.18-.06s-.78,0-1.25.06a.59.59,0,0,1,0-.46l.25,0c.58-.13.6-.37.6-2.3Zm.82,2.63a2.52,2.52,0,0,0,0,.6c0,.06.17.09.68.09a1.16,1.16,0,0,0,1-.47,4,4,0,0,0,.49-2.28c0-1.45-.48-2.83-1.59-2.83-.61,0-.64.08-.64.59Z"/><path class="cls-4" d="M96.15,98.59a23.94,23.94,0,0,0-.19-3.8.56.56,0,0,0-.49-.39l-.25,0a.55.55,0,0,1,0-.44,10.55,10.55,0,0,0,1.13.06,8.5,8.5,0,0,0,1-.06.52.52,0,0,1,0,.44l-.24,0a.59.59,0,0,0-.5.44,30,30,0,0,0-.14,3.75v2.07a10.5,10.5,0,0,1-.7,4.39,2.19,2.19,0,0,1-1.9,1.34,2.08,2.08,0,0,1-1.86-1c-.52-.81-.77-2.15-.77-4.33V96.71c0-1.91,0-2.22-.6-2.31l-.25,0a.56.56,0,0,1,0-.44c.5,0,.84.06,1.24.06s.73,0,1.22-.06a.56.56,0,0,1,0,.44l-.24,0c-.58.09-.6.4-.6,2.31v4c0,2.95.5,4.9,2,4.9s2-2.09,2-4.88Z"/><path class="cls-4" d="M109.88,101.19c.23.87.44,1.71.68,2.52h0c.27-.87.52-1.82.77-2.76l.93-3.5a17,17,0,0,0,.76-3.53,3.81,3.81,0,0,0,.75.06,7.22,7.22,0,0,0,.88-.06.66.66,0,0,1,0,.46l-.21,0c-.62.11-.7.46-.69,1.74,0,2,0,5.35.11,8,0,.92,0,1.41.48,1.49l.32,0a.56.56,0,0,1,0,.46c-.41,0-.81-.06-1.17-.06s-.8,0-1.21.06a.56.56,0,0,1,0-.46l.29,0c.49-.1.49-.39.49-1.57l0-7.65h0c-.07.2-.45,1.67-.65,2.39l-.88,3.21c-.45,1.61-.9,3.34-1.08,4.18a.1.1,0,0,1-.1.08.11.11,0,0,1-.09-.08c-.16-1-.64-2.77-.87-3.67l-.9-3.54c-.2-.84-.41-1.8-.63-2.64h0c0,1.13-.07,2.2-.1,3.26s-.07,2.76-.07,4.32c0,1.36.06,1.65.45,1.71l.37,0a.52.52,0,0,1,0,.46,9.48,9.48,0,0,0-1.1-.06,9,9,0,0,0-1,.06.73.73,0,0,1,0-.46l.22,0c.42-.12.56-.22.62-1.51s.11-2.22.17-4c0-1.52.09-3.08.11-4.09s-.06-1.43-.67-1.58l-.16,0a.56.56,0,0,1,0-.46,5.79,5.79,0,0,0,.79.06,4.36,4.36,0,0,0,.83-.06,11.51,11.51,0,0,0,.51,3Z"/><path class="cls-4" d="M119.33,96.77c0-2,0-2.26-.6-2.35l-.25,0a.61.61,0,0,1,0-.46c.49,0,.83.06,1.25.06s.74,0,1.23-.06a.61.61,0,0,1,0,.46l-.24,0c-.59.09-.61.4-.61,2.35v6.53c0,2,0,2.21.61,2.34l.24,0a.61.61,0,0,1,0,.46c-.49,0-.83-.06-1.23-.06s-.76,0-1.25.06a.6.6,0,0,1,0-.46l.25,0c.58-.13.6-.39.6-2.34Z"/><path class="cls-4" d="M127.75,103.3c0,2,.06,2.26.59,2.34l.38,0a.6.6,0,0,1,0,.46c-.61,0-.95-.06-1.35-.06s-.78,0-1.3.06a.6.6,0,0,1,0-.46l.3,0c.58-.12.6-.37.6-2.34v-.93a6.26,6.26,0,0,0-.32-2.28l-1.17-4.22c-.34-1.21-.49-1.3-.79-1.4l-.28-.09a.56.56,0,0,1,0-.46,9.24,9.24,0,0,0,1.16.06,7.11,7.11,0,0,0,1.06-.06c.09.06.09.35,0,.46l-.13,0c-.34.09-.41.18-.41.33a14.17,14.17,0,0,0,.3,1.41c.37,1.36.74,2.81,1.13,4.08.31-1,.64-2,.93-3.1s.65-2.21.65-2.43-.18-.24-.42-.29l-.18,0a.49.49,0,0,1,0-.46,8.37,8.37,0,0,0,1,.06,7.34,7.34,0,0,0,.92-.06.5.5,0,0,1,0,.46l-.28.09c-.51.17-.81,1.33-1.31,2.9l-.63,2a7.11,7.11,0,0,0-.46,3Z"/><path class="cls-4" d="M137.15,101.84c-.07-.41-.11-.46-.41-.46h-1.51c-.24,0-.3.05-.37.44l-.35,1.92a12.23,12.23,0,0,0-.22,1.53c0,.22.05.33.29.37l.33,0a.47.47,0,0,1,0,.46c-.26,0-.57,0-1-.06s-.68,0-.95.06a.61.61,0,0,1,0-.46l.33,0c.23,0,.45-.24.59-.9.18-.85.46-2,.88-4.1l1-5a4.6,4.6,0,0,0,.17-1.31,1.52,1.52,0,0,0,.52-.7c.06,0,.13,0,.15.17.13.81.29,1.65.44,2.46l1.36,7.38c.29,1.58.42,1.85.84,2l.27,0a.61.61,0,0,1,0,.46,11.33,11.33,0,0,0-1.2-.06c-.48,0-.86,0-1.14.06a.5.5,0,0,1,0-.46l.28,0c.21,0,.35-.15.35-.34a6.5,6.5,0,0,0-.13-1Zm-2-1.64c-.07.42-.06.44.21.44h1.23c.29,0,.31-.07.22-.57l-.54-3c-.08-.44-.17-.94-.23-1.15h0c0,.09-.13.53-.24,1.08Z"/><path class="cls-4" d="M148.9,103c0,.55,0,2.74,0,3.22,0,.11-.08.2-.19.2-.12-.31-.41-1-1.27-2.77l-2.31-4.85c-.27-.57-.95-2.07-1.15-2.48h0a8.42,8.42,0,0,0-.05,1.19v4a27.7,27.7,0,0,0,.17,3.8.57.57,0,0,0,.51.35l.31,0a.55.55,0,0,1,0,.46c-.45,0-.8-.06-1.16-.06a8.22,8.22,0,0,0-1,.06.56.56,0,0,1,0-.46l.27,0a.53.53,0,0,0,.44-.37,32.3,32.3,0,0,0,.13-3.78V96.18a2.73,2.73,0,0,0-.22-1.32.88.88,0,0,0-.62-.44l-.17,0a.53.53,0,0,1,0-.46,8.82,8.82,0,0,0,1.13.06,1.65,1.65,0,0,0,.46-.06,27.87,27.87,0,0,0,1.7,4l1,2c.69,1.42,1.18,2.44,1.64,3.33h0a3.44,3.44,0,0,0,0-.78V98.59a23.32,23.32,0,0,0-.2-3.8c-.06-.17-.22-.28-.61-.37l-.17,0a.49.49,0,0,1,0-.46c.45,0,.79.06,1.17.06a7.83,7.83,0,0,0,1-.06.53.53,0,0,1,0,.46l-.14,0c-.32.09-.52.24-.56.38a27.1,27.1,0,0,0-.15,3.79Z"/><path class="cls-4" d="M153.5,100.17c0-3.68,1.49-6.49,3.54-6.49,2.3,0,3.46,3.07,3.46,6.3,0,3.71-1.54,6.41-3.46,6.41C154.84,106.39,153.5,103.47,153.5,100.17Zm6,.38c0-3-.73-6.3-2.63-6.3-1,0-2.37,1.31-2.37,5.33,0,2.71.71,6.24,2.67,6.24C158.37,105.82,159.5,104.17,159.5,100.55Z"/><rect x="32.6" y="207.32" width="123.02" height="11.94"/><path class="cls-4" d="M37.56,210c0-1.74,0-2-.44-2.15l-.32-.07a.5.5,0,0,1,0-.46,13.93,13.93,0,0,1,2.22-.14,2.18,2.18,0,0,1,1.66.55,3.45,3.45,0,0,1,.83,2.57,3.7,3.7,0,0,1-1.25,3.06.7.7,0,0,0,0,.44,22.87,22.87,0,0,0,2,4.88,1,1,0,0,0,.69.52c.05,0,.06.18,0,.26a1,1,0,0,1-.44.09c-.85,0-1.35-.46-2.06-2.32-.26-.67-.67-1.94-1-2.77-.15-.4-.31-.58-.71-.58s-.47,0-.47.4v2.31c0,1.93,0,2.15.6,2.3l.21,0a.6.6,0,0,1,0,.46c-.45,0-.79,0-1.19,0s-.77,0-1.24,0a.59.59,0,0,1,0-.46l.25,0c.58-.13.6-.37.6-2.3Zm.81,2.63a2.52,2.52,0,0,0,0,.6c0,.06.18.09.69.09a1.14,1.14,0,0,0,1-.47,3.89,3.89,0,0,0,.5-2.28c0-1.45-.49-2.83-1.59-2.83-.62,0-.65.08-.65.59Z"/><path class="cls-4" d="M47,210c0-1.95,0-2.26-.6-2.35l-.25,0a.58.58,0,0,1,0-.45c.5,0,.83.05,1.25.05s.74,0,1.24-.05a.63.63,0,0,1,0,.45l-.25,0c-.59.09-.61.4-.61,2.35v6.54c0,1.94,0,2.2.61,2.33l.25,0a.66.66,0,0,1,0,.46c-.5,0-.84,0-1.24,0s-.75,0-1.25,0a.6.6,0,0,1,0-.46l.25,0c.58-.13.6-.39.6-2.33Z"/><path class="cls-4" d="M58.65,216.18c0,.54,0,2.73,0,3.21,0,.11-.08.2-.19.2-.12-.31-.41-1-1.27-2.77L54.91,212c-.27-.57-.95-2.07-1.15-2.48h0a8.59,8.59,0,0,0-.05,1.2v4a26.09,26.09,0,0,0,.18,3.8.56.56,0,0,0,.5.35l.31,0a.55.55,0,0,1,0,.46c-.45,0-.79,0-1.16,0a8.33,8.33,0,0,0-1,0,.56.56,0,0,1,0-.46l.27,0a.53.53,0,0,0,.44-.37,32.3,32.3,0,0,0,.13-3.78v-5.31a2.73,2.73,0,0,0-.22-1.32.91.91,0,0,0-.62-.44l-.17,0a.5.5,0,0,1,0-.45,10.57,10.57,0,0,0,1.13.05,2.16,2.16,0,0,0,.46-.05,28.21,28.21,0,0,0,1.7,4l1,2c.69,1.42,1.18,2.45,1.64,3.33h0a3.38,3.38,0,0,0,0-.77v-3.93A23.38,23.38,0,0,0,58,208c-.06-.17-.21-.28-.61-.37l-.17,0c-.07-.11-.06-.4,0-.45.46,0,.79.05,1.17.05a10.29,10.29,0,0,0,1-.05.51.51,0,0,1,0,.45l-.14,0c-.32.09-.52.24-.56.39a26.89,26.89,0,0,0-.15,3.78Z"/><path class="cls-4" d="M66.46,216.54c0,1.93,0,2.2.59,2.3l.32,0a.6.6,0,0,1,0,.46c-.57,0-.9,0-1.3,0s-.75,0-1.38,0a.53.53,0,0,1,0-.46l.35,0c.57-.1.62-.37.62-2.3v-8.2c0-.57,0-.59-.3-.59h-.55a1.34,1.34,0,0,0-1.22.46,4.31,4.31,0,0,0-.45,1.26c-.08.11-.22,0-.26-.12.16-.83.31-2,.38-2.74,0,0,.16-.05.19,0,.06.59.39.57.85.57h4c.53,0,.62,0,.77-.51a.12.12,0,0,1,.18.05,20.12,20.12,0,0,0-.15,2.79.14.14,0,0,1-.26,0,4,4,0,0,0-.24-1.34,1.34,1.34,0,0,0-1.16-.46h-.71c-.29,0-.28,0-.28.62Z"/><path class="cls-4" d="M76.39,215c-.07-.41-.11-.46-.41-.46h-1.5c-.25,0-.31,0-.38.44L73.75,217a13.19,13.19,0,0,0-.21,1.52c0,.22,0,.33.28.37l.33,0a.47.47,0,0,1,0,.46,8.63,8.63,0,0,0-1,0c-.33,0-.69,0-1,0a.61.61,0,0,1,0-.46l.33,0c.24,0,.46-.24.6-.9.18-.85.46-2,.87-4.1l1-5a4.56,4.56,0,0,0,.17-1.31,1.45,1.45,0,0,0,.52-.69c.05,0,.12,0,.14.16.13.81.29,1.65.44,2.46l1.36,7.38c.29,1.58.42,1.85.85,2l.27,0a.61.61,0,0,1,0,.46,11.67,11.67,0,0,0-1.2,0c-.48,0-.86,0-1.15,0a.5.5,0,0,1,0-.46l.29,0c.21,0,.35-.15.35-.33a6.43,6.43,0,0,0-.13-1Zm-2-1.64c-.08.43-.07.44.21.44h1.22c.29,0,.31-.07.22-.57l-.53-3c-.08-.44-.17-.93-.23-1.15h0c0,.09-.13.53-.24,1.08Z"/><path class="cls-4" d="M82.79,210c0-1.74,0-2-.43-2.15l-.32-.07a.5.5,0,0,1,0-.46,13.93,13.93,0,0,1,2.22-.14,2.2,2.2,0,0,1,1.66.55,3.45,3.45,0,0,1,.82,2.57,3.7,3.7,0,0,1-1.24,3.06.7.7,0,0,0,0,.44,22.87,22.87,0,0,0,2,4.88,1,1,0,0,0,.69.52s.06.18,0,.26a1,1,0,0,1-.44.09c-.85,0-1.35-.46-2.06-2.32-.26-.67-.67-1.94-1-2.77-.15-.4-.3-.58-.7-.58s-.47,0-.47.4v2.31c0,1.93,0,2.15.6,2.3l.21,0a.6.6,0,0,1,0,.46c-.45,0-.79,0-1.19,0s-.77,0-1.24,0a.59.59,0,0,1,0-.46l.25,0c.57-.13.59-.37.59-2.3Zm.82,2.63a2.52,2.52,0,0,0,0,.6c0,.06.18.09.69.09a1.15,1.15,0,0,0,1-.47,3.89,3.89,0,0,0,.5-2.28c0-1.45-.49-2.83-1.59-2.83-.62,0-.65.08-.65.59Z"/><path class="cls-4" d="M91.38,213.37c0-3.68,1.49-6.48,3.54-6.48,2.3,0,3.45,3.06,3.45,6.29,0,3.71-1.53,6.41-3.45,6.41C92.71,219.59,91.38,216.67,91.38,213.37Zm6,.38c0-3-.73-6.29-2.63-6.29-1,0-2.38,1.3-2.38,5.32,0,2.72.72,6.24,2.68,6.24C96.24,219,97.38,217.37,97.38,213.75Z"/><path class="cls-4" d="M107.74,213.37c0-3.68,1.49-6.48,3.54-6.48,2.3,0,3.45,3.06,3.45,6.29,0,3.71-1.53,6.41-3.45,6.41C109.07,219.59,107.74,216.67,107.74,213.37Zm6,.38c0-3-.72-6.29-2.62-6.29-1,0-2.38,1.3-2.38,5.32,0,2.72.72,6.24,2.68,6.24C112.6,219,113.73,217.37,113.73,213.75Z"/><path class="cls-4" d="M119.44,209.93c0-1.92,0-2.22-.6-2.31l-.24,0a.58.58,0,0,1,0-.45c.48,0,.8.05,1.25.05s.73,0,1.15-.05a.58.58,0,0,1,0,.45l-.19,0c-.57.11-.59.39-.59,2.31V212c0,.35,0,.7.13.7s.21-.11.28-.2.39-.7.5-.88l1.08-2c.19-.33.67-1.26.77-1.52a.84.84,0,0,0,.07-.29c0-.08,0-.13-.17-.19l-.27-.11a.54.54,0,0,1,0-.45c.35,0,.75.05,1.1.05a9.71,9.71,0,0,0,1-.05.54.54,0,0,1,0,.45,1.78,1.78,0,0,0-.92.52,13.66,13.66,0,0,0-1.39,2.13l-.9,1.56a1.34,1.34,0,0,0-.23.57,1.7,1.7,0,0,0,.19.57c1,2,1.71,3.65,2.49,5.15.24.44.46.68.79.76l.27,0a.52.52,0,0,1,0,.46,8.17,8.17,0,0,0-1.11,0c-.41,0-.76,0-1.22,0-.07,0-.09-.35,0-.46l.23-.07c.14,0,.24-.09.24-.19a1.36,1.36,0,0,0-.14-.42c-.19-.44-.44-.93-.82-1.72l-.8-1.66c-.57-1.17-.72-1.54-1-1.54s-.17.24-.17.88v2.37c0,1.93,0,2.19.57,2.3l.27,0a.6.6,0,0,1,0,.46c-.48,0-.82,0-1.21,0a10.94,10.94,0,0,0-1.15,0,.59.59,0,0,1,0-.46l.19,0c.53-.15.55-.37.55-2.3Z"/><path class="cls-4" d="M131.91,215c-.07-.41-.11-.46-.41-.46H130c-.25,0-.31,0-.38.44l-.34,1.93a11.93,11.93,0,0,0-.22,1.52c0,.22.05.33.29.37l.32,0a.47.47,0,0,1,0,.46,8.51,8.51,0,0,0-1,0c-.33,0-.69,0-1,0a.61.61,0,0,1,0-.46l.32,0c.24,0,.46-.24.6-.9.18-.85.46-2,.88-4.1l1-5a4.56,4.56,0,0,0,.17-1.31,1.45,1.45,0,0,0,.52-.69c.06,0,.13,0,.15.16.13.81.28,1.65.43,2.46l1.37,7.38c.29,1.58.41,1.85.84,2l.27,0a.61.61,0,0,1,0,.46,11.55,11.55,0,0,0-1.2,0c-.48,0-.86,0-1.15,0a.5.5,0,0,1,0-.46l.29,0c.21,0,.35-.15.35-.33a6.43,6.43,0,0,0-.13-1Zm-2-1.64c-.08.43-.07.44.21.44h1.23c.28,0,.3-.07.21-.57l-.53-3c-.08-.44-.17-.93-.23-1.15h0c0,.09-.13.53-.24,1.08Z"/><path class="cls-4" d="M138.32,209.57c0-1.36,0-1.71-.49-1.78l-.32-.06a.47.47,0,0,1,0-.46,13.08,13.08,0,0,1,2.14-.14,2.32,2.32,0,0,1,1.67.51,3.72,3.72,0,0,1-.26,4.81.24.24,0,0,0,.19.27c.54.19,1.33,1.11,1.33,3.07,0,2.13-.85,3.56-2.64,3.56-.29,0-.78,0-1.2,0s-.77,0-1.14,0a.6.6,0,0,1,0-.46l.18,0c.53-.17.55-.37.55-2.3Zm.81,2.44c0,.51,0,.55.52.51,1-.07,1.56-.62,1.56-2.35s-.73-2.48-1.48-2.48a.75.75,0,0,0-.46.11c-.1.06-.14.15-.14.48Zm0,4.26a6.26,6.26,0,0,0,.21,2,.79.79,0,0,0,.79.51c.88,0,1.56-.73,1.56-2.57,0-1.45-.4-3.14-2-3.14-.54,0-.58.11-.58.48Z"/><path class="cls-4" d="M147.32,209.93c0-1.91,0-2.18-.61-2.31l-.16,0a.58.58,0,0,1,0-.45c.43,0,.77.05,1.17.05h1.87a8.08,8.08,0,0,0,1.35-.05c.06.31.12,1.63.16,2.44a.14.14,0,0,1-.25,0c-.15-.86-.24-1.5-.76-1.74a2.67,2.67,0,0,0-1-.11h-.72c-.3,0-.3,0-.3.73v3.67c0,.52,0,.52.33.52H149a2.09,2.09,0,0,0,.84-.11c.12-.08.19-.18.24-.64l.08-.76a.14.14,0,0,1,.26,0c0,.44,0,1.16,0,1.86s0,1.35,0,1.76a.14.14,0,0,1-.26,0l-.09-.72c0-.33-.11-.61-.31-.7a1.92,1.92,0,0,0-.76-.09h-.58c-.3,0-.33,0-.33.5v2.58a5.14,5.14,0,0,0,.19,1.91c.12.22.33.43,1.2.43s1.06-.08,1.28-.28a5.2,5.2,0,0,0,.7-1.78c.07-.09.21,0,.25.13-.07.64-.32,2-.44,2.55-.9,0-1.79,0-2.67,0h-.9c-.42,0-.76,0-1.35,0a.6.6,0,0,1,0-.46l.33,0c.57-.1.62-.37.62-2.3Z"/><rect class="cls-5" width="380.17" height="475.55"/></g></svg>