<svg xmlns="http://www.w3.org/2000/svg" viewBox="0 0 380.17 475.55"><defs><style>.cls-1,.cls-2,.cls-3,.cls-5{fill:none;}.cls-1,.cls-2,.cls-3{stroke:#000;}.cls-1{stroke-width:0.5px;}.cls-2{stroke-width:0.4px;}.cls-3{stroke-width:0.44px;}.cls-4{fill:#fff;}.cls-5{opacity:0.12;}</style></defs><title>アートボード 40</title><g id="letter_ol"><path d="M42.3,80V50.86c1.77.15,3.48.4,3.58.4a.32.32,0,0,1,.26.33c0,.26-.07.3-.79.59V80h5.06V57.32a24.62,24.62,0,0,1,3.5.48c.12,0,.34.07.34.33s0,.25-.81.55V83.26c0,.85,0,1.18-.67,1.25L51,84.73c-.53.08-.6-.07-.6-.8V80.44H37.27v3.41c0,.63,0,.88-.53,1l-1.9.22c-.6.07-.6,0-.6-1V57.25c1.57.14,3.48.47,3.65.51s.19.07.19.26-.55.47-.81.58V80Z"/><path d="M63.86,59.82l-.12-.44h9.52V50.9c.59.07,3.43.48,3.57.51s.22.08.22.22,0,.26-.79.63v7.12H81L82.53,56c.17-.33.19-.41.31-.41a24.18,24.18,0,0,1,3,3.93c0,.26-.17.26-.31.26H76.55c.86,4.22,4.31,11.3,9.89,13.87v.14c-1.16,1.1-1.5,2.13-1.9,4.3-.07.4-.17.69-.46.69-.88,0-3.57-3.08-5.51-8.14a38.19,38.19,0,0,1-2.24-10.86h-.07V75.19h.5L78,72.73c.19-.4.24-.44.29-.44a14.45,14.45,0,0,1,2.15,3c0,.26-.15.26-.31.26H76.26v8.07c0,.77,0,1-.69,1l-1.67.22c-.5.07-.64.07-.64-.81V75.6H68.7l-.12-.41h4.68v-10C70.2,72,66.41,76.62,63.5,78.64l0-.11a56.36,56.36,0,0,0,7.8-18.71Z"/><path d="M99.75,68.11V64.4c1,.08,2.55.19,3,.3.27,0,.46.11.46.33s-.27.36-.67.44v2.64h1.07L105,65.47c.1-.22.22-.44.29-.44s2.52,2.75,2.52,3.3c0,.22-.16.22-.28.22h-4.89v2.24a5.19,5.19,0,0,1,4,4.95c0,1.84-1,2.9-1.88,2.9-.5,0-.6-.33-.74-1.65a20.36,20.36,0,0,0-1.43-5.47V84c0,.59,0,.7-.45.77l-1.86.26c-.41.07-.53,0-.53-.7V75.45a21.08,21.08,0,0,1-5.22,6.13l0,0a52.34,52.34,0,0,0,4.87-13H94.81l-.11-.44ZM95,56a35.11,35.11,0,0,0,8.68-5.29c.6.63,3.63,3.74,3.63,4.3,0,.14-.05.25-.19.25a1.58,1.58,0,0,1-.62-.22A70.89,70.89,0,0,1,95,56.15Zm.31,1c1.5.59,4,1.8,4,5,0,1.87-1,2.42-1.74,2.42s-.76-.33-.83-1.36a18.49,18.49,0,0,0-1.43-5.94Zm3.55-.44c2.06.74,4,1.87,4,4.37,0,1.17-.55,2.64-1.76,2.64-.55,0-.6-.14-.77-1.65a15.66,15.66,0,0,0-1.48-5.28Zm4,7.78a46.46,46.46,0,0,0,1.67-8.18,29.11,29.11,0,0,1,3.08,1.32c.31.15.45.22.45.4s-.12.33-.59.48a20.16,20.16,0,0,1-4.56,6.06Zm.34,20.37c1.19-.77,6.06-4.33,10.63-12.62.51.47,3.06,3.15,3.06,3.59a.17.17,0,0,1-.15.19c-.16,0-.33-.08-.73-.33-2.84,3.92-6.21,7.7-12.76,9.32Zm3.12-21.87c2-2.17,4.84-7.45,6-10.94,1.84,1.18,3.75,2.72,3.75,3a.21.21,0,0,1-.22.22,2.67,2.67,0,0,1-.67-.15A20.49,20.49,0,0,1,106.31,63Zm.1,10.09A36.94,36.94,0,0,0,113,62.16c.93.74,3.39,3,3.39,3.42,0,.14-.07.29-.22.29a2.08,2.08,0,0,1-.59-.18,20.21,20.21,0,0,1-9.21,7.41Z"/><path d="M143.11,63.23l1.07-2.13c.19-.37.24-.44.38-.44s2.75,3.08,2.75,3.71c0,.44-.24.58-1,.95-.5,13.32-1.24,19.27-6.34,19.27-.43,0-.65,0-.65-.66,0-2.83,0-3.64-2.5-5l0-.11a16.66,16.66,0,0,0,3.25.59c1.21,0,1.6-.56,2-1.62.76-2,1.17-8.59,1.17-14.13h-2.13c-.24,2.13-.26,2.35-.57,2.35h-2.46a.32.32,0,0,1-.35-.37c0-.25.33-2.42.4-2.89.5-3.71.84-7.27.91-8.56h-3.67c0,9.33-.36,14.57-1.77,19.34a20.08,20.08,0,0,1-8,11.09l0-.08a30.32,30.32,0,0,0,5.56-12.91c.9-5,1-9,1-17.44h-4.82l-.12-.4H139l1.17-1.91c.16-.26.28-.51.4-.51s2.77,3.19,2.77,3.92c0,.56-.62.78-1.34,1-.09,1-.16,1.54-.76,7Z"/><path d="M64.82,161.06l2.26-5.37c.12-.32.33-.76.49-.76a37.28,37.28,0,0,1,4.69,6.38c0,.51-.29.51-.53.51H56.68c1.56,14.93,11.14,21.83,18.3,24v.25c-2.47,1.33-3.21,4.37-3.38,5.76-.2,1.71-.33,3-1.27,3S62,190.42,58.44,179.72c-1.52-4.49-2-8.79-2.09-16.63A75.36,75.36,0,0,1,55,173.21c-3.37,15.18-13,20.18-19.45,21.44l-.08-.18c14.43-8.8,15.33-25.88,15.7-32.65h-13l-.17-.76H51.17c0-2.09.08-4.05.08-6.13V142.72h-15L36,142H66.22l2.38-5.12c.21-.51.33-.76.49-.76.33,0,4.65,5.56,4.65,6.13s-.25.45-.53.45H56.64v12.21c0,1.71,0,3.22-.17,6.13Z"/><path d="M111.13,143.92v20.69h5.46l2.35-5.26c.16-.38.33-.69.49-.69s4.85,5.5,4.85,6.26c0,.44-.24.44-.41.44H111.13v25.82h8.59l2.26-5.32c.25-.63.33-.76.49-.76s5,5.63,5,6.39c0,.38-.29.38-.53.38H89.66l-.17-.69h16.29V165.36H92.91l-.17-.75h13V143.92H91l-.21-.76h28.09l2.3-5.12c.2-.51.33-.76.49-.76s4.86,5.44,4.86,6.19c0,.45-.29.45-.54.45Z"/><path d="M173.35,158.72l2.38-5.38c.25-.5.37-.75.54-.75s4.85,5.75,4.85,6.38c0,.45-.29.45-.54.45h-8.84v10.31h.66l2.22-5c.25-.57.37-.76.54-.76.37,0,4.52,5.32,4.52,6,0,.45-.29.45-.53.45h-7.41v16.51c0,1.83,0,5.75-2.18,7.21a11.21,11.21,0,0,1-4.48,1.33c-1,0-1-.44-1.11-2.72s-.16-4.49-4.23-6.9v-.25c3,.44,4.85.63,5.38.63,1.15,0,1.32-.38,1.32-2.59V170.43H144.27l-.2-.7h22.37V159.42H143.08l-.2-.7h16.4V147.78H145.22L145,147h14.27V136.58c1,.06,3.7.32,5.64.63.24.07.78.13.78.63,0,.32-.5.7-1.15,1V147h6.7l2.26-5.19c.12-.32.29-.76.49-.76s4.86,5.5,4.86,6.2c0,.51-.29.51-.54.51H164.55v10.94Zm-23.73,12.84c3.86,1.27,9.46,4.31,9.46,10.51,0,4.11-2.55,5.5-4,5.5-1,0-1.11-.63-1.36-2.59-.74-5.51-1.6-9-4.07-13.29Z"/><path d="M221.83,164.67l1.81-3.86c.33-.7.37-.82.5-.82s3.82,4.43,3.82,4.93-.25.44-.49.44h-6.21v13.92h.94V168a37.05,37.05,0,0,1,4.81.76c.21.06.62.13.62.57s-.24.63-1.23.76v12.08c0,.63,0,.89-.45.95l-3.17.38c-.49.06-.58-.06-.58-.76V180h-6.33v6c0,.57,0,.89-.45.95l-3,.32c-.5.06-.54-.07-.54-.76V167.89a30.34,30.34,0,0,1,5,1v-3.48h-5.35c.29,2.72-1.07,4.69-2.51,4.69-.86,0-1.23-.57-1.23-1.71a23.73,23.73,0,0,0-.21-3.86c-.57.57-.86.82-1.23,1.2V194c0,.7-.08.89-.53.95l-3.21.38c-.54.06-.62-.19-.62-.88V176.75A59.82,59.82,0,0,1,196.34,191l-.13-.07a166.78,166.78,0,0,0,1.44-17.14A32,32,0,0,1,202,175V169.1c-2.92,2.08-3.58,2.53-4.6,3.22a75.17,75.17,0,0,1-.91-8.35c1.23.07,2.06.07,4,.07,1.23-3.17,4.57-13.35,5.68-18,1,.57,1.44.82,4.85,3a119.69,119.69,0,0,0,2.1-12.78,49.36,49.36,0,0,1,6.08,1.77.68.68,0,0,1,.58.63c0,.44-.13.51-1.15.63a45.23,45.23,0,0,1-2.31,6.71h11.81l1-2c.29-.58.87-1.78,1.15-1.78.5,0,4.57,4.87,4.57,5.7s-.54,1-1.48,1.58c.12,5.38,0,19.55-.13,25.81-.28,17.14-3.45,19.8-6.95,19.8-1.72,0-1.72-1.2-1.72-2,0-2.66,0-4.94-3.83-6.84l0-.25c.83.13,3.58.51,4.24.51,1.77,0,2.3-.7,2.71-3.92.5-3.67.74-15.63.74-24.49V146.83H216c-.61,1.39-.78,1.77-1,2.15.78.25,4.11,1.33,4.77,1.58a.56.56,0,0,1,.41.51c0,.38-.21.5-.95.76a27.43,27.43,0,0,1-2.18,4.61h3.42l1.89-3.54c.37-.69.41-.76.49-.76a26.4,26.4,0,0,1,3.66,4.56c0,.44-.29.44-.53.44h-4.77v7.53Zm-25-17.78c.62.25,1.56.57,3.66,2.85.29-1.65,1.52-8,2-13.1,1.2.45,4.69,2,5.72,2.47a.64.64,0,0,1,.33.57c0,.44-.12.44-1.23.51a73.74,73.74,0,0,1-6.58,9.8,7.17,7.17,0,0,1,1.89,4.94c0,1.83-1,3.86-2.63,3.86s-1.57-.51-1.77-4a29,29,0,0,0-1.44-7.72Zm9.29,11a5.93,5.93,0,0,1,2.1,1.45c.5-1.58,1.36-4.3,2.51-9l-.16.06A107.6,107.6,0,0,1,201,164a59,59,0,0,0,6.46-.38A18.67,18.67,0,0,0,206,158Zm.33,13.09a12.36,12.36,0,0,1,4.94,9.62c0,1.9-.82,4.18-2.43,4.18-.49,0-1.31-.13-1.31-2a39.38,39.38,0,0,0-1.28-11.7Zm4.44-7.78a72.26,72.26,0,0,0,3.54-13,45.2,45.2,0,0,1-5.88,9.43A11.29,11.29,0,0,1,210.89,163.21Zm6,1.46v-7.53h-.21a30.65,30.65,0,0,1-5.51,6.77c.12.38.17.44.25.76Zm0,14.61v-9.49a2.66,2.66,0,0,1-1,.19v9.3Z"/><path d="M33.45,248.18c1.1-.51,4.52-2.08,5.72-8.51a15.47,15.47,0,0,0-4,1.26,2.89,2.89,0,0,1-.54.3,2.37,2.37,0,0,1-1.28-1.82,2.53,2.53,0,0,1,.28-1c.28,1,.72,1,1,1s4-.28,4.57-.71c.09-.07.43-.61.53-.61S41,239.15,41,239.65c0,.27-.17.43-.52.75-.63,2.61-2.13,7.28-7,7.83ZM36,235.33a3.66,3.66,0,0,0,2.6-.88c.26.08,1.21.54,1.21,1.09,0,.25-.17.68-.32.73s-3.2.45-3.46.45c-1,0-1.22-.83-1.5-1.92A1.73,1.73,0,0,0,36,235.33Z"/><path d="M47.6,243.78c0,1.25-.39,2.78-1.42,2.78-.61,0-.69-.8-.69-1,0-.49.19-.67.62-1.07a4.92,4.92,0,0,0,1.28-2.82A10.45,10.45,0,0,1,47.6,243.78Zm.33,1.31a3.94,3.94,0,0,0,.94.24c.24,0,.31-.21.34-.8s.08-3.23.08-5a8,8,0,0,0-2,.64,5.65,5.65,0,0,1-.57.23c-.42,0-1.06-.93-1.06-1.8a1.65,1.65,0,0,1,.16-.78,1.4,1.4,0,0,0,1.31.93,19.62,19.62,0,0,0,2.18-.27,16.08,16.08,0,0,0-.17-2.79.67.67,0,0,0-.72-.38c.2-.42.51-1,.93-1s1.17.56,1.17,1c0,.13-.18.62-.2.73s0,1.78,0,2.24c1.19-.25,1.68-.4,1.94-1a3.22,3.22,0,0,1,1.42.75.73.73,0,0,1,.25.58c0,.19-.07.72-.43.72l-.7-.13a5,5,0,0,0-.89-.12,10.47,10.47,0,0,0-1.59.2c0,2.85,0,3.65.06,4.93,0,.24.07,1.32.07,1.54,0,1-.45,2.24-1,2.24-.26,0-.29-.19-.4-.85a3.15,3.15,0,0,0-1-2Zm6.13-.08c0,1.38-.73,1.41-.82,1.41-.45,0-.54-.56-.61-1.09a11.4,11.4,0,0,0-1.38-4.06C52,241.71,54.06,243,54.06,245Zm-.72-8.85c0,.48-.2.77-.44.77s-.25-.1-.53-.91a4.48,4.48,0,0,0-.85-1.68A1.89,1.89,0,0,1,53.34,236.16ZM54.6,235c0,.37-.14.73-.41.73s-.21-.06-.48-.67a5.69,5.69,0,0,0-1-1.5C53.36,233.55,54.6,233.87,54.6,235Z"/><path d="M62.72,247.72c.94-.42,3.38-1.48,3.38-6.45,0-2.31-.68-5.7-3.06-5.69a4.11,4.11,0,0,1,.51,1.88c0,1.61-1.14,9.25-3.31,9.25-.71,0-.81-.67-1-1.47a5.56,5.56,0,0,0-.49-1.67,4.07,4.07,0,0,1-.4-1.84c0-3.78,2.47-6.72,4.92-6.72,2.21,0,4.16,2.33,4.16,6.66,0,2.86-1,4.61-2.06,5.26a5.74,5.74,0,0,1-2.7.85Zm-3.34-4.92a3.66,3.66,0,0,0,.15,1.3c.14.35.4.7.61.7.82,0,2.76-5,2.8-9.18C59.75,236.29,59.38,241.55,59.38,242.8Z"/><path d="M76.87,235.57v3.5a4.33,4.33,0,0,1,2.62,1.14,2.44,2.44,0,0,1,.69,1.68c0,1-.65,1.46-.93,1.46s-.15,0-.42-.74a9.6,9.6,0,0,0-2-3.27v8.75c0,.39,0,.43-.25.44l-.85.1c-.25,0-.26-.08-.26-.4V235.57H71.69l0-.19h7.7L80,234c.07-.18.1-.19.14-.19a9.1,9.1,0,0,1,1.21,1.62c0,.11-.07.11-.12.11Z"/><path d="M87.79,241.12c-.06.31-.33,1.65-.36,1.86a11.65,11.65,0,0,0-.21,2,5.13,5.13,0,0,0,.14,1.3,3.46,3.46,0,0,1,.17.89c0,.34-.28.82-.56.82-.67,0-1.18-1.9-1.18-4.58a53.44,53.44,0,0,1,.5-6.08,14.69,14.69,0,0,0,.1-1.73,4.55,4.55,0,0,0-.23-1.5,5.67,5.67,0,0,1,1.27,3.42,21.29,21.29,0,0,1-.5,3.36,12.54,12.54,0,0,0-.24,2.4c0,.44,0,.57.08.57s.21-.42.27-.61c.21-.61.51-1.57.72-2.18Zm1.81,2.79c0,1.53.84,1.53,1.15,1.53a5.83,5.83,0,0,0,1.84-.4,2.31,2.31,0,0,1,.75-.19c.28,0,.65.16.65.88a1.37,1.37,0,0,1-.51,1.17,3.36,3.36,0,0,1-2,.58,1.8,1.8,0,0,1-1.78-.92,3.34,3.34,0,0,1-.48-1.74,4.18,4.18,0,0,1,.43-1.79A4.87,4.87,0,0,0,89.6,243.91Zm1.07-7.83a2.43,2.43,0,0,0,1-.32c.82-.48.85-.5,1-.5a1,1,0,0,1,.83,1c0,1.17-1.63,1.32-2,1.32s-1.15,0-1.54-2.05C90.12,235.86,90.33,236.08,90.67,236.08Z"/><path d="M101.55,248.5c2.06-.9,3.42-1.87,3.42-5.36,0-.75,0-3-1.46-3.49a5.19,5.19,0,0,1-.06,1.1,11.69,11.69,0,0,1-1.23,3.67,5.4,5.4,0,0,1,.2,1.17,1,1,0,0,1-.69.93c-.29,0-.43-.52-.49-.77-.41.48-1.35,1.47-1.92,1.47s-.54-.37-.66-.78c-.06-.16-.33-.85-.37-1a2.25,2.25,0,0,1-.08-.67,6.39,6.39,0,0,1,.63-2.61,5.33,5.33,0,0,1,2.13-2.35v-1.62a2,2,0,0,1-.86.26c-1,0-1.43-1.43-1.65-2.18.2.29.41.59.78.59a11,11,0,0,0,1.73-.49c0-1.65,0-1.94-.41-1.94a.3.3,0,0,0-.16,0c.07-.22.26-.81.85-.81a1,1,0,0,1,.86.89c0,.18-.11,1.24-.13,1.46.58-.21.64-.24.64-.5a.76.76,0,0,0,0-.16l0,0c.14.23.2.24.7.31.19,0,.87.11.87,1,0,.39-.06.59-.49.66a5.54,5.54,0,0,0-1.85.49c0,.48,0,1.13,0,1.59a3.42,3.42,0,0,1,1.08-.22,3.12,3.12,0,0,0-.24-1.08,1.63,1.63,0,0,1,.82,1.09c1.85.19,2.82,2.34,2.82,4.44,0,.73-.11,3.23-1.69,4.12a6.78,6.78,0,0,1-3,.79Zm-2.31-3.82c0,.32.06.54.32.54s1.07-.67,1.49-1.15c-.08-1.59-.08-2.32-.08-3.62A7.34,7.34,0,0,0,99.24,244.68Zm2.56-4.87a20.29,20.29,0,0,0,.15,3,7.62,7.62,0,0,0,1-3.27A2.14,2.14,0,0,0,101.8,239.81Z"/><path d="M114.8,240.15c2.09,0,2.63,2.44,2.63,3.93,0,2.69-1.33,4-3.1,4a2,2,0,0,1-2.11-2.07c0-.86.44-1.78,1.31-1.78.7,0,1.16.6,1.16,1.44a1.41,1.41,0,0,1-.14.68c.47-.12,1.64-.4,1.64-3,0-.89-.16-2.67-1.59-2.67-.88,0-1.63.71-2.43,2.95a11.87,11.87,0,0,0-.49,1.87c-.05.24-.15.64-.54.64-.61,0-.69-1-.69-1.57s.07-.73.69-1.74c.15-.28,2.52-4.44,3.51-6.49a.77.77,0,0,0,.1-.35c0-.06,0-.13-.07-.13a2.65,2.65,0,0,0-.65.68c-.49.64-.66.75-1,.75-.72,0-1.08-1.12-1.14-1.7a.85.85,0,0,0,.55.27c.46,0,1.43-.86,1.92-1.28s.52-.44.69-.44,1.22.24,1.22,1.6c0,.48-.12.59-.48,1a19.1,19.1,0,0,0-2.06,3.65A2.2,2.2,0,0,1,114.8,240.15Zm-1,5.65c0-.26-.13-.6-.44-.6s-.35.34-.35.48a.57.57,0,0,0,.56.58A.54.54,0,0,0,113.76,245.8Z"/><path d="M121.87,248.17c2.92-2.15,4.66-4.68,5.42-10.57a22.17,22.17,0,0,0-3.69,1c-.11,0-.55.45-.65.45-.3,0-1-1.27-1-2a1.58,1.58,0,0,1,.26-.85c.44.83.82.83,1,.83a20.56,20.56,0,0,0,3.94-.56c.1-.06.16-.13.39-.41.09-.12.15-.13.2-.13.26,0,.91.78,1.25,1.25a.94.94,0,0,1,.22.57c0,.39-.45.79-.51.85-.77,3.44-1.8,8-6.79,9.57Zm7.4-12.49c0,.42-.16.77-.43.77s-.28-.1-.5-.88a5.67,5.67,0,0,0-.82-1.78C129,234.16,129.27,235.1,129.27,235.68Zm1.21-.67c0,.49-.21.73-.4.73s-.2-.06-.42-.67a5.58,5.58,0,0,0-1.06-1.79C130,233.44,130.48,234.21,130.48,235Z"/><path d="M134.1,248.18c1.1-.51,4.52-2.08,5.72-8.51a15.47,15.47,0,0,0-4,1.26,2.89,2.89,0,0,1-.54.3,2.39,2.39,0,0,1-1.28-1.82,2.53,2.53,0,0,1,.28-1c.28,1,.72,1,1,1s4-.28,4.57-.71c.09-.07.43-.61.53-.61s1.25,1.13,1.25,1.63c0,.27-.18.43-.52.75-.64,2.61-2.14,7.28-7,7.83Zm2.5-12.85a3.66,3.66,0,0,0,2.6-.88c.26.08,1.21.54,1.21,1.09,0,.25-.17.68-.32.73s-3.2.45-3.46.45c-1,0-1.22-.83-1.5-1.92A1.73,1.73,0,0,0,136.6,235.33Z"/><path d="M146.6,248.17a10.22,10.22,0,0,0,3.93-4.36,17,17,0,0,0,1.33-5.81c-.47.05-2.51.21-2.92.26a8.05,8.05,0,0,0-1.18.22c0,1.19,0,1.71.08,2.37,0,.16.07.86.07,1,0,.57-.34.9-.54.9s-.71-.95-.71-1.3c0-3.84-.2-4-.64-4.21.13-.13.4-.4.64-.4a2,2,0,0,1,.78.46c.19.15.22.18.63.18.19,0,1-.08,1.15-.08,0,0,0-1.76-.06-2.11s-.24-.5-.61-.55c.31-.75.76-.83.92-.83.43,0,1.14.61,1.14,1a5.62,5.62,0,0,1-.2.62c0,.16,0,1.54,0,1.83.46,0,1.27-.08,1.35-.11a1.52,1.52,0,0,0,.42-.31c.25-.27.28-.3.34-.3a3.13,3.13,0,0,1,1.18,1.6c0,.27-.19.43-.5.67-1.14,6.77-3.4,8.61-6.54,9.35Z"/><path d="M166.41,236.85a17.29,17.29,0,0,1-6.52,10,1.69,1.69,0,0,0-.48.48s-.14.18-.23.18c-.36,0-1.38-1.59-1.38-2.6a1.49,1.49,0,0,1,.35-1c.11.44.23.94.62.94.72,0,4.41-1.81,7.6-8Zm-6.27-.75a2.07,2.07,0,0,1,.94,1.77c0,.77-.4,1.33-.78,1.33s-.4-.21-.72-1a7.47,7.47,0,0,0-1.6-2.48A3.88,3.88,0,0,1,160.14,236.1Z"/><path d="M172.31,236a2,2,0,0,1,1.16,1.63c0,.42-.25,1.11-.77,1.11-.29,0-.39-.08-.4-.76a5.17,5.17,0,0,0-.32-2h-.09a11,11,0,0,1-2,2.75l0,0a23.77,23.77,0,0,0,1.33-5c.4.16,1.05.43,1.46.57.06,0,.18.08.18.18s-.19.14-.32.13c-.17.38-.33.75-.56,1.2h1.09l.5-1.11c.06-.12.09-.19.14-.19a6.21,6.21,0,0,1,.92,1.35c.33-1.25.42-1.8.48-2.13.07,0,1.19.43,1.53.57,0,0,.09,0,.09.12s-.14.16-.37.19c-.14.3-.28.62-.6,1.2h1.86l.58-1.28c.06-.15.08-.21.13-.21a7.35,7.35,0,0,1,1.13,1.57c0,.11-.07.11-.12.11h-2.78c.81.58,1.12,1,1.12,1.66a.91.91,0,0,1-.82,1c-.26,0-.32-.12-.36-.69a5.43,5.43,0,0,0-.38-2h-.47a10.75,10.75,0,0,1-.86,1.31c.27,0,.34.05.76.12.14,0,.2.08.2.11s-.19.17-.3.2v1.32h2.32l.33-.64c.09-.2.17-.32.27-.32a5.31,5.31,0,0,1,1.14,1.81.22.22,0,0,1-.25.25,1.75,1.75,0,0,1-.34-.06,5,5,0,0,1-1.08.78.7.7,0,0,1,.17.35c0,.18-.19.29-.44.45v1.54c0,.24,0,.33-.18.35l-.9.08c-.15,0-.15,0-.15-.54h-3.27v1.55h3.45l.23-.54c.14-.31.19-.45.29-.45a.31.31,0,0,1,.19.13c.12.11.86.94.91,1a.49.49,0,0,1,.18.32c0,.16,0,.19-.45.46V248c0,.3,0,.36-.26.4l-.78.09c-.23,0-.23-.11-.23-.35v-.53h-3.53v.48c0,.34,0,.42-.22.43l-.83.08c-.23,0-.23-.09-.23-.43v-8a10.26,10.26,0,0,1,1.35.41h3.13l.3-.57c.17-.36.21-.37.27-.37s.15.08.73.83a10,10,0,0,0,.26-1.3h-6.29a6,6,0,0,1,0,.77c0,1.09-.32,1.89-.86,1.89s-.72-.58-.72-1,.09-.4.35-.67a4.5,4.5,0,0,0,.89-2.16h0a5,5,0,0,1,.23,1h2.7v-1l-.39.38,0,0a18,18,0,0,0,.8-2.39s0,0-.09,0Zm4,6.93v-2.11h-3.27v2.11Zm-3.27,1.92v2.58h3.53v-2.58Z"/><path d="M188.94,235.87v11h2.17l.67-1.43c.08-.14.09-.17.14-.17a9.88,9.88,0,0,1,1.25,1.69c0,.1-.08.1-.13.1h-9.56l0-.19h4.15v-11h-3.52l0-.19h6.58l.63-1.36c0-.1.08-.19.14-.19a7.25,7.25,0,0,1,1.26,1.65c0,.09-.08.09-.13.09Z"/><path d="M201.43,241.75v-2l1.46.32a.15.15,0,0,1,.12.15c0,.14-.21.21-.31.24v1.33h2.1l.58-1.22c.09-.19.11-.19.13-.19a10.3,10.3,0,0,1,1.12,1.47c0,.11-.07.11-.13.11h-4.09c0,.53-.09,1.06-.17,1.57H204l.43-.91c.1-.23.11-.24.15-.24s1,1.12,1.11,1.26.14.18.14.28-.1.24-.43.43a13.9,13.9,0,0,1-.57,3.39,1.54,1.54,0,0,1-1.52.93c-.3,0-.3-.18-.3-.27,0-.92,0-1.52-1.08-2.12v0c.23,0,1.23.17,1.44.17s.41-.11.52-.67a15.29,15.29,0,0,0,.19-2H202.2a6.11,6.11,0,0,1-1.63,3.51,5.27,5.27,0,0,1-2.3,1.39v-.05c2.22-1.85,2.64-4.16,2.79-6.61h-1.69c-.2,3.91-1.4,5.6-2.56,6.63l0-.05c.43-.77,1.3-2.34,1.3-7.73v-4.58a9.33,9.33,0,0,1,1.41.53h4.63l.39-1s.09-.22.14-.22a7.81,7.81,0,0,1,1.27,1.55c0,.16,0,.17-.43.43v2.23c0,.22,0,.33-.22.35l-.87.09c-.21,0-.21-.19-.21-.32v-.43h-4.79v.47c0,.94,0,1.05,0,1.84Zm3.45-6.84.56-1c.09-.18.1-.19.13-.19a8.59,8.59,0,0,1,1.06,1.28c0,.12-.07.12-.13.12h-9.43l0-.19Zm-5.47,2v2.34h4.79v-2.34Z"/><path d="M215.15,247.72c.95-.42,3.38-1.48,3.38-6.45,0-2.31-.68-5.7-3.06-5.69a4.11,4.11,0,0,1,.51,1.88c0,1.61-1.13,9.25-3.31,9.25-.71,0-.81-.67-.94-1.47a5.86,5.86,0,0,0-.49-1.67,4,4,0,0,1-.41-1.84c0-3.78,2.48-6.72,4.92-6.72,2.21,0,4.17,2.33,4.17,6.66,0,2.86-1,4.61-2.07,5.26a5.71,5.71,0,0,1-2.7.85Zm-3.34-4.92a3.66,3.66,0,0,0,.15,1.3c.14.35.4.7.61.7.82,0,2.77-5,2.8-9.18C212.18,236.29,211.81,241.55,211.81,242.8Z"/><path d="M231.62,236.14l.63-1.36c.08-.17.09-.19.13-.19a9.07,9.07,0,0,1,1.2,1.62c0,.11-.06.11-.12.11h-7.12v2.31c0,4,0,7.37-2.37,9.73l0-.05c.91-2,1.09-4.76,1.09-8v-4.78l1.44.6h1.9v-2.4a13.27,13.27,0,0,1,1.47.18c.07,0,.16,0,.16.14s-.24.21-.34.26v1.82Zm.06,3.48.61-1.32c0-.06.08-.19.13-.19a11.24,11.24,0,0,1,1.17,1.57c0,.11,0,.11-.07.11H230v2.9h1.29l.36-.93c.06-.13.1-.25.2-.25A8.37,8.37,0,0,1,233,243c0,.24,0,.29-.43.55v4.32c0,.51,0,.54-.28.57l-.71.08c-.2,0-.31.05-.31-.25v-.87H228V248c0,.35-.1.43-.33.46l-.69.08c-.15,0-.26,0-.26-.3v-6.18a12.69,12.69,0,0,1,1.4.61h.6v-5.83c.85.1,1.38.2,1.48.21a.12.12,0,0,1,.1.13c0,.08,0,.13-.32.29v2.13ZM228,242.88v4.39h3.32v-4.39Z"/><path d="M243,237.49v4.67h1.32l.55-1.33c.08-.17.08-.2.13-.2a10.2,10.2,0,0,1,1.25,1.61c0,.11-.07.11-.14.11H243v5.58h2.12l.68-1.37c.09-.19.1-.2.14-.2a10.84,10.84,0,0,1,1.23,1.63c0,.11-.07.11-.13.11H237.6l0-.17h4.13v-5.58h-3.16l-.05-.19h3.21v-4.67H238l-.06-.18h6.86l.65-1.42c.08-.18.09-.21.13-.21a9.91,9.91,0,0,1,1.24,1.7c0,.11-.06.11-.12.11Zm-2.83-4c.48,0,3,.29,3,2.32,0,1-.54,1.42-1,1.42-.22,0-.24-.08-.46-.81a7.16,7.16,0,0,0-1.56-2.88Z"/><path d="M255.71,247.72c1-.42,3.38-1.48,3.38-6.45,0-2.31-.68-5.7-3.06-5.69a4.11,4.11,0,0,1,.51,1.88c0,1.61-1.13,9.25-3.31,9.25-.71,0-.81-.67-.95-1.47a5.56,5.56,0,0,0-.48-1.67,4,4,0,0,1-.41-1.84c0-3.78,2.48-6.72,4.92-6.72,2.21,0,4.16,2.33,4.16,6.66,0,2.86-1,4.61-2.06,5.26a5.71,5.71,0,0,1-2.7.85Zm-3.34-4.92a3.66,3.66,0,0,0,.15,1.3c.14.35.4.7.61.7.82,0,2.77-5,2.8-9.18C252.74,236.29,252.37,241.55,252.37,242.8Z"/><path d="M265.75,238.66c-.43,0-.5-.48-.56-1,0-.21-.12-1.14-.15-1.33.17.37.28.54.52.54a4,4,0,0,0,1.72-1.2c.33-.43.36-.46.5-.46a1.28,1.28,0,0,1,1.11,1.42c0,.4-.07.45-.66.79a5,5,0,0,0-1.08,1.77,11.47,11.47,0,0,0-1.13,4.65c0,2.59,1.41,2.8,1.81,2.8,1.08,0,2-1,2.4-2.18a19.65,19.65,0,0,0,.8-5.67,8.29,8.29,0,0,0-.46-3.25c-.25-.54-.28-.59-.28-.75a.68.68,0,0,1,.71-.65,1,1,0,0,1,.92,1c0,.19-.11,1-.11,1.19a9.94,9.94,0,0,0,1.64,4.56,3.08,3.08,0,0,1,.11.93c0,1.12-.3,1.12-.47,1.12-.85,0-1.25-1.91-1.77-4.45,0,.61.05,3.26.05,3.81a9.08,9.08,0,0,1-.65,4.25,3.06,3.06,0,0,1-2.61,1.77c-2.08,0-2.8-2.36-2.8-4.42a18.24,18.24,0,0,1,1.26-5.78C266,238.59,266,238.66,265.75,238.66Z"/><path d="M279.72,234a1.34,1.34,0,0,1,1.19,1.44c0,.13-.09,1-.11,1.21,0,.44-.1,1.25-.1,2s0,1.42.53,1.42,1.28-1.06,1.45-1.71c.08-.31.11-.47.34-.47.49,0,1.11,1,1.11,1.51s-.13.73-1.47,1.29a9.32,9.32,0,0,0-2.57,1.25,3.6,3.6,0,0,0-1.27,2.61,1.46,1.46,0,0,0,1.68,1.54,5.09,5.09,0,0,0,1.94-.42,5.63,5.63,0,0,1,.59-.24,1.75,1.75,0,0,1,1.19,1.35.75.75,0,0,1-.48.81,6.59,6.59,0,0,1-2.37.24c-1.8,0-2.25-.25-2.61-.57a2.78,2.78,0,0,1-.77-2.05,5.29,5.29,0,0,1,2.14-4.1c-.31-.19-.58-.35-.58-1.71,0-.34,0-1.78,0-2.08,0-1.38,0-2.52-.58-2.52a.56.56,0,0,0-.34.15A1.12,1.12,0,0,1,279.72,234Z"/><path d="M289.77,248.53c1.64-.51,2.84-1.45,2.84-6.48a19.09,19.09,0,0,0-.29-3.78c-.07-.17-.16-.32-.36-.32-.74,0-1.4,2.88-1.4,5.38a5.25,5.25,0,0,0,.1,1.12,1.75,1.75,0,0,1,0,.31.65.65,0,0,1-.62.68c-.89,0-1.05-2.09-1.05-3.69a17.36,17.36,0,0,1,.88-5.24,10.41,10.41,0,0,0,.4-1.95c0-.47-.23-.51-.52-.56a.8.8,0,0,1,.62-.32c.36,0,1.06.25,1.06,1.65a3.18,3.18,0,0,1-.32,1.52,10.68,10.68,0,0,0-1.31,5c0,.1,0,.4.09.4s.07,0,.14-.4a14.8,14.8,0,0,1,1.38-3.73,1.09,1.09,0,0,1,.87-.56c.77,0,1.15,1.19,1.24,1.44a15.29,15.29,0,0,1,.36,3.57c0,2.5-.17,4.8-2.52,5.75a4,4,0,0,1-1.62.3Z"/><path d="M298.43,248.58a15.5,15.5,0,0,0,1.91-4.86,4,4,0,0,0-.52-.76c-.13,1-.13,1-.32,1h-.85c-.2,0-.24-.09-.24-.25s.25-2,.29-2.41c.31-2.8.34-3.18.36-3.53h-.84l-.05-.18h.91c.09-.86.15-1.87.25-3.65.33.06,1.11.24,1.5.35.1,0,.14.08.14.13s0,.13-.36.19c0,.48-.18,2.37-.24,3h.52l.37-.8c.06-.13.12-.3.17-.3a7.16,7.16,0,0,1,1.18,1.53c0,.23-.17.29-.48.4a26.09,26.09,0,0,1-.61,5.17,2.4,2.4,0,0,1,.72,1.65,1.86,1.86,0,0,1-.23.9l.62-.1V235.73a11.4,11.4,0,0,1,1.36.62h.17v-2.56c.19,0,.34.06,1.47.27.06,0,.17,0,.17.12s0,.09-.35.24v1.93h.38l.4-1c.06-.13.1-.22.14-.22a7.78,7.78,0,0,1,1.29,1.66c0,.16-.09.24-.45.47v4c0,.13,0,.28-.21.29l-.41.05c.2.1,1.05.59,1.23.7,0,0,.11.07.11.15s0,.11-.36.13a8.36,8.36,0,0,1-1.89,1.61,6.44,6.44,0,0,0,2.47,2.07v.06c-.26.13-.72.35-.87,1.52,0,.31,0,.4-.14.4a4.75,4.75,0,0,1-2-2.56,15.55,15.55,0,0,1-2.86,2.88c-.3-1-.33-1.09-.61-2.11a.61.61,0,0,1-.29.1c-.27,0-.32-.16-.36-.48s-.08-.61-.11-.77a10.59,10.59,0,0,1-2.49,3.26Zm1.92-10.8c-.29,3.29-.3,3.42-.51,5a3.27,3.27,0,0,1,.65.2,41,41,0,0,0,.45-5.21Zm3.56-1.24v2.05h2v-2.05Zm0,2.25V241h2v-2.2Zm1.23,6.85a14.9,14.9,0,0,1-.63-4.47h-.6v4.66Zm-.56-4.47a7.75,7.75,0,0,0,.95,2.83,16,16,0,0,0,.79-2.33l-.18,0c-.23.05-.23,0-.23-.53Z"/><path d="M315.3,245.62c0,1.33-.7,2.43-1.58,2.43s-1.58-1.1-1.58-2.43.71-2.43,1.58-2.43S315.3,244.26,315.3,245.62Zm-2.75,0c0,1,.52,1.79,1.17,1.79s1.16-.81,1.16-1.79-.52-1.79-1.16-1.79S312.55,244.61,312.55,245.62Z"/><path d="M37.9,261.61a8.18,8.18,0,0,0,.68.56.6.6,0,0,1,.27.56c0,.8-.44,1.17-1.64,1.74,0,.71,0,1.92,0,3,1.13-1.12,1.75-1.5,2.48-1.5,1.28,0,2.38,1.36,2.38,3.44,0,2.5-1.53,3.33-2.53,3.33s-1.35-1-1.35-1.94a9.2,9.2,0,0,1,.37-2.45h0c0,.65,0,1.16,0,1.21,0,.7.06,1.37.75,1.37,1.12,0,1.47-1.34,1.47-2.16s-.4-2.19-1.4-2.19c-.57,0-1.06.29-2.16,1.71,0,1.38.07,2.23.09,2.75,0,.18.06.95.06,1.11,0,.88-.48,1.15-.75,1.15s-.44-.21-.67-1.09a2.78,2.78,0,0,0-.57-1.13c-.29.46-.73,1.21-.85,1.37a.52.52,0,0,1-.41.27c-.36,0-.75-.62-.75-1.47a1.93,1.93,0,0,1,.87-1.71,1.29,1.29,0,0,0-.07.4c0,.3.07.38.19.38s.44-.27.52-.33c.22-.24,1.24-1.38,1.45-1.6,0-.58,0-3.24,0-3.56a2.82,2.82,0,0,1-1.06.24c-1,0-1.09-.89-1.09-1.63,0-.42.05-.86.08-1.17.14.83.27,1.07.82,1.07a5.24,5.24,0,0,0,1.3-.25c0-1.19,0-1.86,0-2.53s-.06-.9-.29-.9a.74.74,0,0,0-.18,0c.07-.26.21-.79.71-.79s.93,1,.93,1.39a9.61,9.61,0,0,1-.23,1,7.86,7.86,0,0,0-.17,1.48c.7-.37.7-.58.7-.74a.75.75,0,0,0-.06-.3Zm-2.33,9.15a3,3,0,0,0,.56.26c.23,0,.23-.14.23-1.49ZM41.06,262c.29,0,1.43.44,1.43,2.41,0,1.26-.69,1.26-.76,1.26-.27,0-.29-.14-.43-1.09-.17-1.15-.33-1.71-.7-1.71-.2,0-.38.14-.72.45C40.08,262.86,40.42,262,41.06,262Z"/><path d="M48.49,259a1.34,1.34,0,0,1,1.19,1.44c0,.13-.09,1-.11,1.21,0,.44-.1,1.25-.1,2s0,1.42.53,1.42,1.28-1.06,1.44-1.71c.09-.31.12-.47.35-.47.49,0,1.11,1,1.11,1.51s-.13.73-1.48,1.29a9.49,9.49,0,0,0-2.57,1.25,3.64,3.64,0,0,0-1.27,2.61,1.46,1.46,0,0,0,1.69,1.54,5.13,5.13,0,0,0,1.94-.42,5.63,5.63,0,0,1,.59-.24A1.74,1.74,0,0,1,53,271.76a.75.75,0,0,1-.47.81,6.65,6.65,0,0,1-2.38.24c-1.8,0-2.24-.25-2.6-.57a2.74,2.74,0,0,1-.77-2.05,5.31,5.31,0,0,1,2.13-4.1c-.31-.19-.57-.35-.57-1.71,0-.34,0-1.78,0-2.08,0-1.38,0-2.52-.57-2.52a.56.56,0,0,0-.34.15A1.12,1.12,0,0,1,48.49,259Z"/><path d="M61.42,260.25a.5.5,0,0,0,.3.11l.39-.05c.35,0,.52.47.52.77,0,.7-1.32,1.6-2,2-.15.58-.39,1.54-.49,2,.71-1.15,1.95-3,3.8-3a2.31,2.31,0,0,1,2,2c0,.4-.21,1.09-.61,1.09-.19,0-.35-.16-.66-.46a1,1,0,0,0-.78-.39c-.61,0-.84.48-.84,1.25,0,.5.12,1.78.36,3.73a3,3,0,0,1,2,2.43c0,.31-.1,1.19-.6,1.19-.22,0-.27-.08-.77-.85a3.48,3.48,0,0,0-.56-.69c0,.86-.11,2-1.45,2-.51,0-2-.1-2-2.17S61.65,269,62.31,269c0-.5,0-1.1,0-1.65,0-2.72,1.18-3.22,1.42-3.31.44-.19.58-.24.58-.51a1.19,1.19,0,0,0-1.2-.84c-.2,0-1.66.08-2.88,3a36.5,36.5,0,0,0-1.43,4.4c-.11.4-.42.74-.66.74s-.54-.77-.54-1.6c0-.26,0-.3.29-.75a16.82,16.82,0,0,0,1.69-4.92,2.32,2.32,0,0,1-.85.2c-1,0-1.16-1.93-1.21-2.6.27.61.51.88,1.08.88a3.07,3.07,0,0,0,1.33-.37,11.89,11.89,0,0,0,.18-1.84c0-.46-.12-.68-.64-.72.29-.3.52-.54.86-.54s.91.3.91,1.22a6.1,6.1,0,0,1-.16,1.29c.22-.14.53-.35.53-.54a.36.36,0,0,0-.16-.27Zm.08,10.21c-.24,0-.87,0-.87.53s.76.8.94.8c.82,0,.8-.75.79-1.27A6.33,6.33,0,0,0,61.5,270.46Z"/><path d="M77.16,265.9c-.32,4.59-1.62,7-4.11,7-1.92,0-2.16-1.9-2.16-4.94,0-1.09.19-5.81.19-6.77,0-.52,0-.87-.78-.85.18-.4.43-.93,1.13-.93a1.11,1.11,0,0,1,1.1,1c0,.23-.22,1.19-.25,1.38-.14,1.2-.32,4.61-.32,7C72,270,72,271,73.15,271c1.92,0,3.15-2.07,4-5.09Z"/><path d="M84.11,266.12a34,34,0,0,0-.56,4.23,2.93,2.93,0,0,0,.17,1c.17.43.19.48.19.65a.8.8,0,0,1-.73.87c-.8,0-1.91-1.52-1.91-5.49,0-1,0-1.33.29-4.53,0-.27.11-1.33.11-1.95a7,7,0,0,0-.16-1.57A4.54,4.54,0,0,1,82.85,264a13.36,13.36,0,0,0-.56,3.74c0,1.24.17,2,.37,2s.31-.39.35-.47c.17-.48.88-2.54,1.07-3.14Zm2.71-2.78c1.4,0,2.92,1.25,2.92,4.06,0,.24,0,2-.85,2-.47,0-.71-.5-.72-1.06a7.89,7.89,0,0,0-.67-3.78,2.18,2.18,0,0,0-1.08-1.17Z"/><path d="M94.45,261.9a7.3,7.3,0,0,1,.64,2.78c0,1.07-.36,1.46-.75,1.46a.76.76,0,0,1-.67-.77,6.3,6.3,0,0,1,.4-1.14,7.07,7.07,0,0,0,.36-2.33Zm5.37,1.21v-4.38c1.08.17,1.2.2,1.41.25s.2.07.2.15,0,.11-.32.21v3.77h.38l.57-1.23c.06-.13.1-.19.13-.19a8.36,8.36,0,0,1,1.16,1.5c0,.11-.06.11-.12.11h-2.12v3.81h.18l.56-1.18c.1-.19.1-.21.14-.21a7.64,7.64,0,0,1,1.1,1.46c0,.13-.06.13-.12.13h-1.86v5.29h.54l.6-1.29c.08-.18.09-.19.12-.19a7.93,7.93,0,0,1,1.19,1.55c0,.11-.07.11-.13.11H96.81l-.06-.18h3.07v-5.29H97.7l0-.2h2.17V263.3h-.95a15.19,15.19,0,0,1-1.77,4h0a26.55,26.55,0,0,0,.6-3.24.67.67,0,0,1-.59.4c-.29,0-.32-.22-.32-.43a5.25,5.25,0,0,0-.23-2v11.2c0,.21,0,.29-.2.31l-.87.09c-.1,0-.21,0-.21-.32V258.76c.23,0,1.29.17,1.41.17s.19,0,.19.15,0,.13-.32.24v2.45a2.11,2.11,0,0,1,1.26,1.41c.17-1.7.19-2.64.2-3.12.23.06,1.09.27,1.59.44,0,0,.15.07.15.18s-.24.19-.31.19c-.09.51-.2,1.09-.51,2.24Z"/><path d="M114.6,261l.34-.63c.11-.2.14-.22.21-.22a5.42,5.42,0,0,1,.68.72c.28.34.6.69.6.85s-.51.24-.57.24a10.87,10.87,0,0,1-1.18,2.59,5.85,5.85,0,0,0,2.69,1.14v.06c-.21.11-.6.37-.68,1.44,0,.47,0,.61-.23.61a5.66,5.66,0,0,1-2.5-2.21,8.35,8.35,0,0,1-2.16,1.95c.2.07,1.16.31,1.37.39h1.52l.23-.56c0-.13.13-.35.2-.35s.11.06.13.08l.58.59c.17.16.54.51.54.65s-.26.36-.32.41v4.4c0,.25,0,.33-.22.36l-.81.1c-.23,0-.24-.1-.24-.33v-.71h-1.92v.55c0,.25,0,.36-.23.39l-.8.1c-.18,0-.25,0-.25-.32v-5.6c-.43.26-.75.41-1.17.62l0-.06a14.6,14.6,0,0,0,3-3.79,10.85,10.85,0,0,1-.62-2.34,14.91,14.91,0,0,1-1.55,2.37,2.09,2.09,0,0,1,.37,1.28c0,1-.54,1.13-.74,1.13-.38,0-.39-.22-.4-.43a11.58,11.58,0,0,0-.32-2.62v9.28c0,.29,0,.35-.23.38l-.8.1c-.21,0-.21-.1-.21-.33v-5.38a11.5,11.5,0,0,1-1.74,2.7h0a30,30,0,0,0,1.69-8.11h-1.43l0-.18h1.54V258.7l1.44.22c.07,0,.14,0,.14.11s0,.13-.34.23v3h.15l.45-1c0-.07.09-.21.13-.21a5.46,5.46,0,0,1,.86,1.29c0,.1,0,.12-.07.12h-1.52v1a4,4,0,0,1,1,.91,27.36,27.36,0,0,0,1.31-5.68,15.13,15.13,0,0,1,1.57.59c.08,0,.15.07.15.15s-.32.16-.37.14c-.11.34-.25.75-.53,1.41Zm-1.74,7.1v4.28h1.92v-4.28Zm.35-6.91c-.14.3-.23.48-.3.64a6.65,6.65,0,0,0,.88,1.76,13.56,13.56,0,0,0,.88-2.4Z"/><path d="M124.77,261.19c.08.16.12.16.48.19s.49.21.49.71c0,.75-.54,1.15-1.72,1.79-.16,1.83-.22,2.23-.3,2.74.17-.29.87-1.6,1-1.84,1.28-2.07,2.23-2.26,2.83-2.26a1.81,1.81,0,0,1,1.94,1.79c0,.47-.23.92-.55.92a.31.31,0,0,1-.2-.07c-.41-.22-.51-.29-.7-.29-.39,0-.66.21-1.34.74v-.06a2.53,2.53,0,0,0,.64-1.22c0-.16-.08-.62-.74-.62-.84,0-2.13.88-3.13,4.76a26.38,26.38,0,0,0-.71,3.75c-.11.88-.62.93-.8.93-.44,0-.57-1.19-.57-1.57a2.23,2.23,0,0,1,.3-1.07,26.88,26.88,0,0,0,1.26-6.07,1.8,1.8,0,0,1-.74.19c-1.1,0-1.18-1.76-1.18-2.09a.92.92,0,0,0,.76.48,4.73,4.73,0,0,0,1.36-.5c0-.58.15-1.65.15-2.18,0-.38,0-.78-.49-.89a.92.92,0,0,1,.8-.68c.49,0,.85.69.85,1.11,0,.18-.14,1-.16,1.15-.06.4-.07.47-.11.87.41-.28.47-.36.52-.71Zm.65,8.41c0,.7.27,1.39,1.12,1.39a6.56,6.56,0,0,0,1.35-.21s.69-.19.73-.19c.41,0,.65.67.65,1.21,0,.92-.75,1.14-1.83,1.14-1.24,0-2.35-.14-2.35-2.37a7.57,7.57,0,0,1,.59-2.85A8.75,8.75,0,0,0,125.42,269.6Zm1.89-9.74a1.43,1.43,0,0,1,1.57,1.38c0,.16,0,.74-.41.74-.19,0-.22-.05-.43-.6A2.64,2.64,0,0,0,127,259.9,2.38,2.38,0,0,1,127.31,259.86Zm1.48-1.21a1.22,1.22,0,0,1,1.36,1.25c0,.52-.24.68-.37.68s-.21-.06-.51-.67a2.18,2.18,0,0,0-1-1.18A1.89,1.89,0,0,1,128.79,258.65Z"/><path d="M136.09,270.22c.21.3.66.85,1,.85,1.33,0,1.77-4.4,1.77-6,0-.4,0-1.42-.59-1.42-.16,0-.41.17-.94.56a67,67,0,0,1-2.18,8.24c-.2.38-.39.58-.65.58s-.54-.66-.54-1.73c0-.26,0-.29.22-.55a10.52,10.52,0,0,0,.95-2.25c.4-1.2.55-1.83,1-3.43a2.71,2.71,0,0,1-1.18.51c-.41,0-.77-.52-.77-1.15a4,4,0,0,1,.49-1.58c0,.67,0,1,.46,1a4.66,4.66,0,0,0,1.36-.29,28.37,28.37,0,0,0,.6-3.28c0-.39-.2-.47-.3-.47a.17.17,0,0,0-.12,0c0-.82.56-.87.78-.87a1.05,1.05,0,0,1,.95,1,3.94,3.94,0,0,1-.23.95c-.12.43-.27,1.07-.55,2.25a2.8,2.8,0,0,1,.65-.12c.25,0,1.72.14,1.72,3.39,0,2.16-.79,6.64-2.51,6.64a1,1,0,0,1-1-.91,6.93,6.93,0,0,0-.39-1.89Zm4.78-10a1.31,1.31,0,0,1,1.27,1.32c0,.3-.12.72-.43.72s-.22-.05-.73-.93a1.91,1.91,0,0,0-1-.88A1.93,1.93,0,0,1,140.87,260.18Zm.12,2.53c1.37,0,2,1.52,2,2.9,0,1.65-.73,1.84-.89,1.84-.5,0-.5-.77-.5-1,0-2.18-.12-3.44-1.41-3.63A3.2,3.2,0,0,1,141,262.71Zm.72-4c.67,0,1.36.35,1.36,1.12,0,.22-.11.75-.38.75s-.19-.09-.43-.48a3.9,3.9,0,0,0-1.27-1.26A2.15,2.15,0,0,1,141.71,258.68Z"/><path d="M147.25,269.29a3.44,3.44,0,0,1,2.28.85,2.34,2.34,0,0,1,.65,1.66c0,.74-.3,1.25-.76,1.25s-.72-.65-.76-.85a4.65,4.65,0,0,0-1.49-2.78Z"/><path d="M162.58,271.58a2.53,2.53,0,0,1-.17,1.3,1.48,1.48,0,0,1-1.29.73c-.23,0-.23-.06-.25-.8a1.63,1.63,0,0,0-1.05-1.6c0,.58-.29,1.22-.85,1.22-.33,0-.36-.16-.45-.74a9.56,9.56,0,0,0-.32-1.36,8.08,8.08,0,0,1-2.62,3.17l0-.05a13.49,13.49,0,0,0,2.08-4.61,6.19,6.19,0,0,0-.66-1.08c-.05.43-.15,1.16-.19,1.26s-.12.11-.27.11h-.82c-.11,0-.18,0-.18-.16s.32-2.53.36-2.83c.12-1.07.26-2.24.34-3.3h-.9l-.06-.18h1c.07-.81.17-2,.27-3.9l1.35.35c.17.07.19.07.19.15s-.23.16-.31.16c0,.46-.21,2.73-.25,3.24h.78l.31-.78c0-.11.13-.29.19-.29a5.4,5.4,0,0,1,.72.79,2.39,2.39,0,0,1,.53.8c0,.12,0,.16-.41.46,0,.55-.1,1.2-.19,2.07h1.87v-2.57c.12,0,.77.12.91.15a30,30,0,0,0,.72-3.15h-3.85L159,260h3.83l.45-.83c.06-.12.11-.23.14-.23a12.51,12.51,0,0,1,1.45,1.92c0,.16-.06.18-.56.28a11,11,0,0,1-2,2.2c.08,0,.42.07.47.09a.11.11,0,0,1,.09.12c0,.12-.22.2-.31.23v2h.6l.63-1.37c.06-.14.09-.19.13-.19a9.37,9.37,0,0,1,1.19,1.64c0,.09-.07.09-.14.09h-2.41Zm-5.12-8.74c-.11,1.5-.18,2.31-.48,4.82a8,8,0,0,1,.79.43,43.41,43.41,0,0,0,.55-5.25Zm3.81,3h-1.9a17,17,0,0,1-.57,3,3.58,3.58,0,0,1,1,2.29l1.07.06c.34,0,.38,0,.38-.22Z"/><path d="M168.84,265.51l-.06-.19h7.83l.55-1.26c.08-.19.08-.21.13-.21a7.83,7.83,0,0,1,1.15,1.54c0,.12-.06.12-.12.12h-1.64v6.31a2,2,0,0,1-.33,1.36,1.59,1.59,0,0,1-1.13.43c-.22,0-.28-.13-.28-.41a1.51,1.51,0,0,0-1-1.75v-.05a8.82,8.82,0,0,0,1.14.12c.29,0,.29-.07.29-.55v-5.46ZM176,261l.56-1.32c.06-.15.09-.21.13-.21a9.54,9.54,0,0,1,1.23,1.6c0,.11-.07.11-.14.11h-3.92a5.34,5.34,0,0,1-.18.74c.91,0,3,.14,3,2,0,.37-.15,1.14-.73,1.14-.28,0-.32-.1-.49-.48a5,5,0,0,0-1.84-2.41,4.56,4.56,0,0,1-4.16,3V265a5.51,5.51,0,0,0,3-3.87h-3l-.05-.18h3.11a19,19,0,0,0,.15-2.24,13.64,13.64,0,0,1,1.58.19s.14,0,.14.13-.1.16-.3.2a11.68,11.68,0,0,1-.17,1.72Zm-3.1,5.85.34-.79c.08-.21.12-.19.15-.19a5.23,5.23,0,0,1,1.26,1.6c0,.18,0,.19-.4.4v2.85c0,.32-.08.32-.2.34l-.9.09c-.17,0-.18,0-.18-.3v-.59h-1.33v1.39c0,.37,0,.41-.25.43l-.82.08c-.24,0-.24,0-.24-.35v-5.38c.14,0,1.41.4,1.45.42Zm-1.26.19v3H173v-3Z"/><path d="M183.56,264.33a13.6,13.6,0,0,1,.6,3.68c0,1.92-.84,2.05-1,2.05-.53,0-.77-.62-.77-1.1,0-.29,0-.37.28-.82a11,11,0,0,0,.91-3.81Zm2.86,6.07c0,.56,0,.62.13.68a6.54,6.54,0,0,0,1.2.08c.67,0,.88,0,1.08-.56a19.65,19.65,0,0,0,.65-2.53h.05a15.17,15.17,0,0,0,.06,2.42,5.89,5.89,0,0,0,.44.53,1.72,1.72,0,0,1,.14.74c0,1.29-.87,1.42-2.64,1.42-2,0-2.44-.3-2.44-1.78v-8.91a11.54,11.54,0,0,1,1.45.24c.1,0,.14.06.14.14s-.07.18-.26.29Zm-.89-11.5a3,3,0,0,1,3,2.68c0,.85-.43,1.37-.86,1.37-.26,0-.29-.13-.44-.67a8.13,8.13,0,0,0-1.72-3.33Zm3.64,4.68a4.54,4.54,0,0,1,2.65,3.81c0,.51-.14,1.47-.89,1.47-.43,0-.5-.31-.54-.64a11.94,11.94,0,0,0-1.22-4.59Z"/><path d="M198.6,266.46a28.57,28.57,0,0,0-.54,4.21,3.24,3.24,0,0,0,.22,1.18,2.38,2.38,0,0,1,.07.47.65.65,0,0,1-.63.69c-1.16,0-1.27-3.33-1.27-4.86a35.7,35.7,0,0,1,.61-6.16,12.72,12.72,0,0,0,.22-2,6.88,6.88,0,0,0-.06-.88,4.87,4.87,0,0,1,1.14,2.74,5.19,5.19,0,0,1-.26,1.4,18.5,18.5,0,0,0-.68,5c0,.56.08.64.18.64s.13-.06.24-.37l.72-2Zm4.62-4.48a1.33,1.33,0,0,0,.8.28.51.51,0,0,1,.4.56c0,1.06-1.38,1.59-1.7,1.7.07,2.4.17,3.54.24,4.26a2.69,2.69,0,0,1,1.78,2.35c0,.53-.27.9-.56.9s-.29-.11-.67-.67a2.77,2.77,0,0,0-.5-.64c.09,2-1.16,2.11-1.55,2.11-.2,0-1.72-.11-1.94-1.3,0-.19-.22-1.25-.22-1.49,0-1.63,1.66-1.63,2.13-1.63.25,0,.38,0,.53,0-.05-1.41-.08-2.48-.1-3.66a3.55,3.55,0,0,1-.5.05c-1.07,0-1.42-1.14-1.69-2.05a1.48,1.48,0,0,0,1.2.62,2.93,2.93,0,0,0,1-.22c0-.42,0-2.64-.06-2.82a.54.54,0,0,0-.46-.42c.14-.38.37-.7.7-.7a1.26,1.26,0,0,1,1,1.12c0,.13-.07.66-.09.8a14,14,0,0,0-.18,1.57c.32-.21.51-.35.51-.56a.4.4,0,0,0,0-.15ZM201,269.82c-.21,0-1.06,0-1.06.66s.41.72.77.72c.9,0,1.26-.34,1.25-1.25A4.55,4.55,0,0,0,201,269.82Z"/><path d="M211.19,260.34l.4-.94c.08-.19.11-.27.17-.27a7.72,7.72,0,0,1,.89.91h3.88l.55-1.22c.06-.12.08-.19.12-.19a10,10,0,0,1,1.06,1.47c0,.13-.06.13-.13.13h-2.46v5.56h.61l.59-1.2c.09-.2.09-.21.12-.21a9.06,9.06,0,0,1,1.12,1.49c0,.11-.08.11-.14.11h-2.3v6.66h.81l.63-1.33c.08-.18.09-.19.12-.19a12.1,12.1,0,0,1,1.15,1.6c0,.11-.08.11-.14.11h-7.3l-.06-.19h3.48V266h-1.84v4.32c0,.35,0,.38-.21.42l-.8.09c-.21,0-.21-.11-.21-.33v-.8h-.86v1.84c0,.25,0,.32-.17.33l-.91.1c-.14,0-.17-.07-.17-.24V260a10.56,10.56,0,0,1,1.29.3Zm-.75.18v4.35h.86v-4.35Zm0,4.55v4.41h.86v-4.41Zm3.92.72v-5.56h-1.57c.12.16.17.23.17.34s-.2.32-.44.48v4.74Z"/><path d="M223.72,272.88v-5a7.25,7.25,0,0,1,1.34.45h4l.1-.31c.1-.3.16-.43.24-.43a5.48,5.48,0,0,1,1.33,1.38c0,.18-.25.35-.37.43v3.51h0l.51-1.17c0-.1.08-.19.12-.19a6,6,0,0,1,.88,1.44c0,.09-.08.09-.14.09h-9.48l0-.17Zm.78-9.88v.26c0,3.65-1.14,5-2.09,6.05l0,0a13.57,13.57,0,0,0,.83-5.53v-3.37c.15,0,.58.17.74.22a6,6,0,0,1,.68.27h2.66c-.06-.56-.08-.93-.13-2.08l1.09.16c.45.08.5.08.5.19s-.2.2-.31.23a13.76,13.76,0,0,0,.05,1.5h1.73l.48-1.09c0-.09.09-.19.13-.19a5.21,5.21,0,0,1,1,1.38c0,.09-.08.09-.13.09h-3.17a12.47,12.47,0,0,0,.44,2.37,12.89,12.89,0,0,0,.54-1.63c.29.13,1.47.66,1.47.83s-.29.16-.34.18a12.74,12.74,0,0,1-1.07,2,2.21,2.21,0,0,0,1.1,1c.18,0,.34-.43.47-.78l.4-1.33,0,0c0,.4-.14,1.73-.14,2.13a1.2,1.2,0,0,0,.11.56,1.73,1.73,0,0,1,.28.91c0,.62-.35.91-.62.91s-1.39-.27-2.52-2.19a6.91,6.91,0,0,1-2.09,1.73l0-.05a13.46,13.46,0,0,0,1.65-2.63,14.21,14.21,0,0,1-.87-4.05H224.5v1.76h1.11l.3-.6c.12-.24.17-.34.26-.34a3.65,3.65,0,0,1,1,1.23c0,.16-.16.29-.34.44-.06,3.07-.15,4.19-1.4,4.19-.24,0-.32,0-.32-.31,0-.08,0-.46,0-.56a1.16,1.16,0,0,0-.77-1.08v-.05l.94.06c.28,0,.29-.24.31-1.13,0-.18,0-.76,0-1.67Zm1.05,9.88v-4.39h-.63v4.39Zm1.14-4.39v4.39h.65v-4.39Zm1.81,0v4.39h.68v-4.39Zm.3-9.76c1.39.2,1.48.78,1.48,1.17a.9.9,0,0,1-.76.91c-.22,0-.23-.13-.29-.58a4.1,4.1,0,0,0-.45-1.46Z"/><path d="M239.35,270.62c0,1.33-.7,2.43-1.58,2.43s-1.58-1.1-1.58-2.43.71-2.43,1.58-2.43S239.35,269.26,239.35,270.62Zm-2.75,0c0,1,.52,1.79,1.17,1.79s1.16-.81,1.16-1.79-.52-1.79-1.16-1.79S236.6,269.61,236.6,270.62Z"/><line class="cls-1" x1="18.9" y1="20.97" x2="18.9" y2="321.36"/><path d="M18.9,12.84a4.07,4.07,0,1,1-4.07,4.07A4.07,4.07,0,0,1,18.9,12.84Z"/><path class="cls-1" d="M18.9,11A5.94,5.94,0,1,1,13,16.91,5.94,5.94,0,0,1,18.9,11Z"/><polygon class="cls-1" points="18.9 4.66 24.21 13.86 29.52 23.02 18.9 23.02 8.29 23.02 13.6 13.86 18.9 4.66"/><path d="M10.19,75.85c0,1.7,0,2.11.22,2.11a.61.61,0,0,0,.42-.14,1,1,0,0,1,0,.77,4.61,4.61,0,0,0-1.75.65c-.07,0-.15-.11-.17-.25l0-.56c0-.14,0-.2-.09-.14-.34.39-.69.77-1,.77C6.7,79.06,6,77.46,6,75.51,6,73,7,71.35,8.27,71.35a1.53,1.53,0,0,1,.55.09.45.45,0,0,0,.1-.34V68.8c0-.72,0-.92-.19-1.14l-.17-.18a.68.68,0,0,1,0-.54,7,7,0,0,0,1.49-1,.19.19,0,0,1,.17.13c0,.74,0,1.49,0,2.63ZM8.92,73.46a2.15,2.15,0,0,0-.07-.61c-.11-.38-.33-.67-.55-.67-.5,0-1,1-1,2.85,0,1.19.3,2.82,1.1,2.82a.53.53,0,0,0,.39-.21A1.13,1.13,0,0,0,8.92,77Z"/><path d="M7.4,250c-.22,0-.24,0-.24.32,0,1.36.47,2.67,1.37,2.67.27,0,.65-.11.91-.94.11,0,.25.11.25.42-.4,1.53-1.12,2.05-1.7,2.05-1.32,0-2-1.71-2-3.67,0-2.27.88-4,2.1-4,1,0,1.56,1.21,1.56,2.6,0,.34,0,.59-.35.59Zm.64-.79a.51.51,0,0,0,.4-.16.86.86,0,0,0,.07-.42c0-.59-.18-1-.51-1s-.77.72-.77,1.3c0,.25.14.27.45.27Z"/><line class="cls-2" x1="21.96" y1="44.21" x2="15.43" y2="44.21"/><line class="cls-2" x1="21.96" y1="75.44" x2="15.43" y2="75.44"/><line class="cls-2" x1="21.96" y1="110.63" x2="15.43" y2="110.63"/><line class="cls-2" x1="21.96" y1="145.81" x2="15.43" y2="145.81"/><line class="cls-2" x1="21.96" y1="180.99" x2="15.43" y2="180.99"/><line class="cls-2" x1="21.96" y1="216.17" x2="15.43" y2="216.17"/><line class="cls-2" x1="21.96" y1="251.35" x2="15.43" y2="251.35"/><line class="cls-2" x1="21.96" y1="251.35" x2="15.43" y2="251.35"/><line class="cls-2" x1="21.96" y1="251.35" x2="15.43" y2="251.35"/><line class="cls-2" x1="21.94" y1="286.17" x2="15.41" y2="286.17"/><line class="cls-2" x1="21.94" y1="321.35" x2="15.41" y2="321.35"/><line class="cls-3" x1="96.23" y1="321.36" x2="33.58" y2="321.36"/><line class="cls-3" x1="104.5" y1="41.31" x2="34.72" y2="41.31"/><circle cx="9.65" cy="44.21" r="1.68"/><path d="M36.9,308.93l-.26,1.77h.57l-.07.77h-.61l-.32,2.18h-.39l.31-2.18H35.5l-.33,2.18h-.38l.31-2.18h-.64l.08-.77h.67l.26-1.77h-.65l.08-.78h.68l.28-1.95h.41L36,308.15h.61l.28-1.95h.42L37,308.15h.58l-.05.78Zm-1,0-.26,1.77h.63l.25-1.77Z"/><path d="M42.87,309.93c0,1.93-.45,3.92-1.5,3.92s-1.5-2-1.5-3.92.44-3.92,1.5-3.92S42.87,308.07,42.87,309.93Zm-1.5,3.37c.49,0,.55-2.3.55-3.37s-.06-3.37-.55-3.37-.56,2.3-.56,3.37S40.87,313.3,41.37,313.3Z"/><path d="M46.85,310.58a1.18,1.18,0,0,1,.09.5,1.36,1.36,0,0,1-.08.47l-1.56.26a1,1,0,0,1-.1-.48,1.2,1.2,0,0,1,.1-.49Z"/><path d="M50.53,309.53c-.09,0-.1,0-.1.28v1.8c0,.67,0,1.41.46,1.41a.41.41,0,0,0,.27-.18.33.33,0,0,1,.09.32,1.14,1.14,0,0,1-.93.69c-.54,0-.73-.57-.73-1.37v-2.67c0-.25,0-.28-.12-.28h-.21c-.07,0-.09-.28,0-.37a2.47,2.47,0,0,0,.53-.54,3.52,3.52,0,0,0,.49-.93.12.12,0,0,1,.19.06v.9c0,.22,0,.24.12.24h.58a.33.33,0,0,1,0,.22.75.75,0,0,1-.08.42Z"/><path d="M55.55,312c0,.82.16,1,.29,1a.32.32,0,0,0,.25-.14c.06,0,.1.17.08.27s-.39.65-.76.65c-.22,0-.37-.14-.54-.42,0-.07-.07-.09-.11-.09s-.07,0-.13.13-.32.38-.56.38-.72-.42-.72-1.26a1.27,1.27,0,0,1,.67-1.25l.61-.33a.26.26,0,0,0,.16-.24c0-.13,0-.26,0-.41,0-.45-.1-1-.37-1s-.3.17-.34.68a.91.91,0,0,1-.11.39.82.82,0,0,1-.47.27c-.11,0-.15-.13-.15-.3a1.81,1.81,0,0,1,.31-.92,1.51,1.51,0,0,1,1.09-.73c.55,0,.87.5.83,1.74Zm-.78-.31c0-.19,0-.23-.05-.22-.29.08-.54.28-.54.84,0,.39.15.72.33.72s.24-.21.25-.59Z"/><path d="M58.46,307c0-.48,0-.62-.13-.76l-.11-.12a.55.55,0,0,1,0-.36,6.21,6.21,0,0,0,1-.67.13.13,0,0,1,.11.08c0,.49,0,1,0,1.75v3.77c0,.13,0,.17.09.17s.24-.06.37-.34l.28-.59a1.32,1.32,0,0,0,.15-.48c0-.06-.06-.1-.12-.12l-.16,0c-.06-.11-.05-.38,0-.42h.16a5.32,5.32,0,0,0,1.23-.17.55.55,0,0,1,0,.42l-.21.08a1.08,1.08,0,0,0-.43.42,5.49,5.49,0,0,0-.44.7.41.41,0,0,0,0,.15,1,1,0,0,0,.05.21c.12.38.69,2,.85,2.29a.63.63,0,0,0,.38.27l.1,0a.51.51,0,0,1,0,.42,7.55,7.55,0,0,0-.81,0,6.76,6.76,0,0,0-.8,0,.5.5,0,0,1,0-.42l.08,0c.07,0,.11,0,.11-.09a2.51,2.51,0,0,0-.11-.39l-.46-1.29c0-.13-.1-.18-.17-.18s-.07.06-.07.29v.69c0,.84,0,.94.25,1l.1,0a.51.51,0,0,1,0,.42c-.21,0-.48,0-.78,0s-.57,0-.8,0a.61.61,0,0,1,0-.42l.12,0c.24,0,.26-.15.26-1Z"/><path d="M64.55,310.84c-.15,0-.17,0-.17.22,0,.9.31,1.77.92,1.77.18,0,.43-.07.6-.62.08,0,.17.07.17.27-.26,1-.74,1.37-1.13,1.37-.88,0-1.36-1.14-1.36-2.44,0-1.52.59-2.69,1.41-2.69s1,.8,1,1.73c0,.22,0,.39-.24.39Zm.42-.53a.34.34,0,0,0,.27-.1.6.6,0,0,0,.05-.28c0-.4-.13-.66-.35-.66s-.51.48-.51.86c0,.17.1.18.3.18Z"/><path d="M74.76,309.93c0,1.93-.45,3.92-1.5,3.92s-1.51-2-1.51-3.92S72.2,306,73.26,306,74.76,308.07,74.76,309.93Zm-1.5,3.37c.49,0,.55-2.3.55-3.37s-.06-3.37-.55-3.37-.56,2.3-.56,3.37S72.76,313.3,73.26,313.3Z"/><path d="M79,312.14c0,1,0,1.08.36,1.12l.26,0c.06.07.06.38,0,.42-.23,0-.62,0-1,0s-.81,0-1.05,0a.51.51,0,0,1,0-.42l.26,0c.32,0,.36-.16.36-1.12v-3.92c0-.8,0-1-.31-1.05l-.3-.07a.55.55,0,0,1,0-.42,4.15,4.15,0,0,0,.83-.34c.29-.15.53-.38.58-.38s.08,0,.09.13c0,.28,0,.83,0,1.43Z"/><path d="M84.45,312.45c.47,0,.55,0,.74-.66,0-.08.19-.08.22.07a9.2,9.2,0,0,1-.32,1.86c-.26,0-.49,0-.91,0h-1a5.18,5.18,0,0,0-.73,0c-.06,0-.08-.16-.07-.26.25-.42.62-1.06,1-1.85a7,7,0,0,0,.85-3.2c0-.83-.27-1.47-.7-1.47s-.64.45-.84,1.11c-.08.09-.2,0-.22-.17.27-1.21.87-1.87,1.5-1.87s1.23.91,1.23,2a5.37,5.37,0,0,1-1,3l-.31.54a2.06,2.06,0,0,0-.34.75c0,.08,0,.15.12.15Z"/><path d="M37.51,31.38a1.12,1.12,0,0,1,.13.62c0,.36-.09.68-.17.68s-.09,0-.1-.06c-.18-.48-.44-.9-.67-.9-.42,0-.65.89-.65,1.72s.33,1.9.93,1.9c.24,0,.43-.14.58-.58.08,0,.17.07.17.26-.15.6-.54,1.28-1.15,1.28-.82,0-1.38-1-1.38-2.42,0-1.7.75-2.71,1.62-2.71A1.4,1.4,0,0,1,37.51,31.38Z"/><path d="M40.17,29.47c0-.48,0-.61-.13-.76l-.11-.12a.45.45,0,0,1,0-.36,5.58,5.58,0,0,0,1-.67.12.12,0,0,1,.11.09c0,.49,0,1,0,1.75v2.2c0,.11,0,.15,0,.15s0,0,.1-.1a1.13,1.13,0,0,1,.75-.48c.55,0,.82.69.82,1.51v2.07c0,.84,0,.93.26,1l.11,0a.55.55,0,0,1,0,.42c-.2,0-.48,0-.79,0a6.16,6.16,0,0,0-.7,0,.55.55,0,0,1,0-.42l.12,0c.15,0,.18-.13.18-.79V32.85c0-.42-.14-.8-.46-.8a.41.41,0,0,0-.36.29,1.13,1.13,0,0,0,0,.44v2.15c0,.66,0,.74.17.79l.12,0a.55.55,0,0,1,0,.42,7,7,0,0,0-.72,0c-.27,0-.54,0-.76,0a.55.55,0,0,1,0-.42l.12,0c.21,0,.24-.14.24-1Z"/><path d="M47.57,34.49c0,.82.16,1,.29,1s.14,0,.25-.15.09.17.07.28-.38.64-.75.64-.37-.14-.55-.41c0-.08-.07-.1-.1-.1s-.07.05-.14.13a.76.76,0,0,1-.55.38c-.38,0-.73-.41-.73-1.25A1.26,1.26,0,0,1,46,33.8c.25-.15.43-.24.61-.34a.26.26,0,0,0,.16-.24c0-.13,0-.26,0-.41,0-.45-.1-1-.38-1s-.29.17-.34.69a.66.66,0,0,1-.11.38.82.82,0,0,1-.46.28c-.11,0-.15-.14-.15-.3a1.81,1.81,0,0,1,.31-.93,1.51,1.51,0,0,1,1.09-.73c.55,0,.87.51.83,1.74Zm-.78-.31c0-.19,0-.23,0-.21-.29.07-.54.27-.54.84,0,.38.14.72.33.72s.24-.22.24-.59Z"/><path d="M50.53,33c0-.48,0-.62-.12-.77l-.09-.11a.45.45,0,0,1,0-.36,3.78,3.78,0,0,0,1-.72s.09,0,.11.11c0,.24,0,.41,0,.52s0,.12.06.14c.18-.2.37-.6.64-.6s.36.25.36.71-.21.78-.42.78-.17-.07-.25-.22-.21-.24-.25-.24-.12.27-.12.72v1.85c0,.84,0,.94.24,1l.2,0a.51.51,0,0,1,0,.42,8.64,8.64,0,0,0-.88,0,6.08,6.08,0,0,0-.77,0,.51.51,0,0,1,0-.42l.12,0c.22,0,.24-.14.24-1Z"/><path d="M56.76,34.49c0,.82.16,1,.29,1s.14,0,.25-.15.09.17.08.28-.39.64-.76.64-.37-.14-.55-.41c0-.08-.07-.1-.1-.1s-.07.05-.14.13a.76.76,0,0,1-.55.38c-.37,0-.73-.41-.73-1.25a1.26,1.26,0,0,1,.68-1.25c.25-.15.43-.24.61-.34a.26.26,0,0,0,.16-.24c0-.13,0-.26,0-.41,0-.45-.1-1-.38-1s-.29.17-.33.69a.73.73,0,0,1-.12.38.82.82,0,0,1-.46.28c-.11,0-.15-.14-.15-.3a1.81,1.81,0,0,1,.31-.93A1.51,1.51,0,0,1,56,31.17c.55,0,.87.51.83,1.74ZM56,34.18c0-.19,0-.23,0-.21-.29.07-.54.27-.54.84,0,.38.15.72.33.72s.24-.22.24-.59Z"/><path d="M61.68,31.38a1,1,0,0,1,.14.62c0,.36-.09.68-.17.68s-.09,0-.1-.06c-.18-.48-.44-.9-.67-.9-.42,0-.65.89-.65,1.72s.33,1.9.93,1.9c.24,0,.43-.14.58-.58.07,0,.17.07.17.26-.15.6-.54,1.28-1.15,1.28-.82,0-1.38-1-1.38-2.42,0-1.7.74-2.71,1.62-2.71A1.33,1.33,0,0,1,61.68,31.38Z"/><path d="M65.27,32c-.09,0-.09,0-.09.27v1.8c0,.67,0,1.42.45,1.42.09,0,.19-.09.27-.18s.11.17.09.31a1.14,1.14,0,0,1-.93.69c-.54,0-.73-.57-.73-1.36V32.26c0-.25,0-.27-.12-.27H64a.37.37,0,0,1,0-.37,3.07,3.07,0,0,0,.54-.54,4.37,4.37,0,0,0,.48-.94.12.12,0,0,1,.19.06v.9c0,.23,0,.24.12.24h.58a.35.35,0,0,1,.06.23.77.77,0,0,1-.09.42Z"/><path d="M69.05,33.29c-.15,0-.16,0-.16.22,0,.9.31,1.78.91,1.78.19,0,.43-.08.61-.63.07,0,.17.07.17.28-.27,1-.75,1.36-1.14,1.36-.88,0-1.35-1.13-1.35-2.44,0-1.51.59-2.69,1.4-2.69s1,.8,1,1.73c0,.23,0,.39-.23.39Zm.43-.52a.34.34,0,0,0,.26-.11.5.5,0,0,0,.05-.28c0-.39-.12-.66-.34-.66s-.51.48-.51.87c0,.17.09.18.3.18Z"/><path d="M73.1,33c0-.48,0-.62-.12-.77l-.09-.11a.45.45,0,0,1,0-.36,3.61,3.61,0,0,0,1-.72s.09,0,.12.11c0,.24,0,.41,0,.52s0,.12.07.14c.17-.2.36-.6.63-.6s.36.25.36.71-.21.78-.42.78-.16-.07-.25-.22-.21-.24-.25-.24-.12.27-.12.72v1.85c0,.84,0,.94.24,1l.21,0a.56.56,0,0,1,0,.42,8.64,8.64,0,0,0-.88,0,5.92,5.92,0,0,0-.76,0,.56.56,0,0,1,0-.42l.12,0c.22,0,.24-.14.24-1Z"/><path d="M80.4,31.72c-.06-.08-.07-.37,0-.42a6.07,6.07,0,0,0,.8,0c.24,0,.48,0,.72,0a.61.61,0,0,1,0,.42l-.11.05c-.07,0-.11.05-.11.12a4.08,4.08,0,0,0,.06.42c.13.66.27,1.28.41,1.86.14-.6.31-1.24.44-2a1.3,1.3,0,0,0,0-.3c0-.06,0-.09-.15-.14l-.09,0a.51.51,0,0,1,0-.42,3.4,3.4,0,0,0,.53,0,3.52,3.52,0,0,0,.51,0c.07.06.05.35,0,.42l-.11,0c-.2.06-.25.2-.38.66-.34,1.23-.63,2.52-.93,3.8a.16.16,0,0,1-.15.08.18.18,0,0,1-.15-.08c-.34-1.51-.48-2.09-.89-3.68-.15-.59-.19-.68-.36-.76Z"/><path d="M85.55,33.83c0-1.71.73-2.66,1.5-2.66s1.45.87,1.45,2.56S87.81,36.3,87,36.3,85.56,35.49,85.55,33.83Zm.94-.26c0,1.26.21,2.18.59,2.18s.49-.78.49-1.86-.19-2.17-.56-2.17S86.49,32.26,86.49,33.57Z"/><path d="M92.05,34.75c0,.84,0,.94.24,1l.12,0a.55.55,0,0,1,0,.42q-.33,0-.78,0c-.29,0-.56,0-.78,0a.51.51,0,0,1,0-.42l.12,0c.21,0,.24-.14.24-1V32.93c0-.47,0-.62-.12-.76L91,32.06a.45.45,0,0,1,0-.36,4.4,4.4,0,0,0,1-.7s.09,0,.11.11c0,.36,0,.89,0,1.43Zm0-5.43c0,.58-.24.88-.49.88s-.46-.36-.46-.85.23-.88.49-.88S92.1,28.84,92.1,29.32Z"/><path d="M97,31.38a1,1,0,0,1,.14.62c0,.36-.09.68-.17.68s-.09,0-.1-.06c-.19-.48-.44-.9-.67-.9-.43,0-.65.89-.65,1.72s.33,1.9.93,1.9c.24,0,.43-.14.57-.58.08,0,.17.07.17.26-.14.6-.53,1.28-1.15,1.28-.82,0-1.38-1-1.38-2.42,0-1.7.75-2.71,1.63-2.71A1.33,1.33,0,0,1,97,31.38Z"/><path d="M100.29,33.29c-.15,0-.17,0-.17.22,0,.9.32,1.78.92,1.78.18,0,.43-.08.61-.63.07,0,.16.07.16.28-.26,1-.74,1.36-1.13,1.36-.88,0-1.36-1.13-1.36-2.44,0-1.51.6-2.69,1.41-2.69s1,.8,1,1.73c0,.23,0,.39-.24.39Zm.43-.52a.34.34,0,0,0,.26-.11.6.6,0,0,0,0-.28c0-.39-.13-.66-.35-.66s-.5.48-.5.87c0,.17.09.18.3.18Z"/><rect x="34.35" y="294.28" width="17.75" height="3.94"/><rect x="34.15" y="93.75" width="142.02" height="11.94"/><path class="cls-4" d="M42.73,101.47c-.07-.41-.11-.46-.41-.46h-1.5c-.25,0-.31,0-.38.44l-.35,1.93a11.93,11.93,0,0,0-.22,1.52c0,.22.05.33.29.37l.33,0a.47.47,0,0,1,0,.46,8.83,8.83,0,0,0-1,0c-.32,0-.68,0-1,0a.61.61,0,0,1,0-.46l.33,0c.24,0,.45-.24.59-.9.18-.85.46-2,.88-4.1l1-5A4.56,4.56,0,0,0,41.44,94a1.45,1.45,0,0,0,.52-.69c.06,0,.13,0,.15.16.13.81.29,1.65.44,2.46l1.36,7.38c.29,1.58.42,1.86.85,2l.27,0a.72.72,0,0,1,0,.46,11.75,11.75,0,0,0-1.21,0c-.48,0-.85,0-1.14,0a.5.5,0,0,1,0-.46l.29,0c.21,0,.34-.15.34-.33a6.43,6.43,0,0,0-.13-1Zm-2-1.64c-.08.43-.07.44.21.44h1.22c.29,0,.31-.07.22-.56l-.54-3c-.08-.44-.17-.93-.23-1.15h0c0,.09-.13.53-.24,1.08Z"/><path class="cls-4" d="M51.2,102.94c0,2,.06,2.25.6,2.33l.37,0a.6.6,0,0,1,0,.46c-.61,0-.95,0-1.35,0s-.77,0-1.3,0a.6.6,0,0,1,0-.46l.31,0c.57-.11.59-.37.59-2.33V102a6.47,6.47,0,0,0-.31-2.28L48.89,95.5c-.34-1.21-.49-1.3-.78-1.39l-.28-.1a.53.53,0,0,1,0-.45c.32,0,.67,0,1.15,0a9.42,9.42,0,0,0,1.07,0c.09,0,.09.34,0,.45l-.12,0c-.35.09-.42.18-.42.33a14.42,14.42,0,0,0,.31,1.42c.36,1.35.73,2.8,1.12,4.07.31-1,.64-2,.94-3.1s.64-2.2.64-2.43-.18-.23-.42-.29L52,94a.47.47,0,0,1,0-.45c.35,0,.64,0,.95,0s.59,0,.93,0a.48.48,0,0,1,0,.45l-.28.1c-.52.16-.82,1.32-1.32,2.9l-.62,2a7,7,0,0,0-.47,3Z"/><path class="cls-4" d="M60.6,101.47c-.07-.41-.11-.46-.41-.46h-1.5c-.25,0-.31,0-.38.44L58,103.38a11.93,11.93,0,0,0-.22,1.52c0,.22,0,.33.29.37l.33,0a.47.47,0,0,1,0,.46,8.83,8.83,0,0,0-1,0c-.32,0-.68,0-.95,0a.61.61,0,0,1,0-.46l.33,0c.24,0,.45-.24.59-.9.18-.85.46-2,.88-4.1l1-5A4.56,4.56,0,0,0,59.31,94a1.45,1.45,0,0,0,.52-.69c.06,0,.13,0,.15.16.13.81.29,1.65.44,2.46l1.36,7.38c.29,1.58.42,1.86.85,2l.27,0a.61.61,0,0,1,0,.46,11.75,11.75,0,0,0-1.21,0c-.48,0-.85,0-1.14,0a.5.5,0,0,1,0-.46l.29,0c.21,0,.34-.15.34-.33a6.43,6.43,0,0,0-.13-1Zm-2-1.64c-.08.43-.07.44.21.44h1.22c.29,0,.31-.07.22-.56l-.54-3c-.08-.44-.17-.93-.23-1.15h0c0,.09-.13.53-.24,1.08Z"/><path class="cls-4" d="M72.35,102.61c0,.55,0,2.73,0,3.21,0,.11-.08.2-.19.2-.12-.31-.4-1-1.27-2.77L68.61,98.4c-.27-.57-.94-2.07-1.15-2.48h0a8.59,8.59,0,0,0,0,1.2v4a26.09,26.09,0,0,0,.18,3.8.57.57,0,0,0,.5.35l.31,0a.55.55,0,0,1,0,.46c-.44,0-.79,0-1.16,0a8.33,8.33,0,0,0-1,0,.61.61,0,0,1,0-.46l.27,0a.53.53,0,0,0,.44-.37,32.3,32.3,0,0,0,.13-3.78V95.81a2.73,2.73,0,0,0-.22-1.32.91.91,0,0,0-.62-.44L66,94a.5.5,0,0,1,0-.45,10.31,10.31,0,0,0,1.12,0,2.16,2.16,0,0,0,.46,0,28.89,28.89,0,0,0,1.7,4l1,2c.69,1.42,1.18,2.45,1.65,3.33h0a4.43,4.43,0,0,0,0-.77V98.22a24.66,24.66,0,0,0-.19-3.8c-.06-.17-.22-.28-.62-.37L71,94c-.07-.11-.06-.4,0-.45.46,0,.8,0,1.17,0a10.29,10.29,0,0,0,1,0,.51.51,0,0,1,0,.45l-.14,0c-.32.09-.52.24-.56.39a26.89,26.89,0,0,0-.15,3.78Z"/><path class="cls-4" d="M77,99.8c0-3.67,1.5-6.48,3.55-6.48,2.29,0,3.45,3.06,3.45,6.29,0,3.71-1.53,6.41-3.45,6.41C78.29,106,77,103.1,77,99.8Zm6,.38c0-3-.72-6.29-2.62-6.29-1,0-2.38,1.3-2.38,5.32,0,2.72.72,6.24,2.68,6.24C81.82,105.45,83,103.8,83,100.18Z"/><path class="cls-4" d="M96.2,102.94c0,2,.06,2.25.6,2.33l.37,0a.6.6,0,0,1,0,.46c-.61,0-1,0-1.35,0s-.77,0-1.3,0a.6.6,0,0,1,0-.46l.31,0c.57-.11.59-.37.59-2.33V102a6.47,6.47,0,0,0-.31-2.28L93.89,95.5c-.34-1.21-.49-1.3-.78-1.39l-.28-.1a.53.53,0,0,1,0-.45c.32,0,.67,0,1.15,0a9.42,9.42,0,0,0,1.07,0c.09,0,.09.34,0,.45l-.12,0c-.35.09-.42.18-.42.33a14.42,14.42,0,0,0,.31,1.42c.36,1.35.73,2.8,1.12,4.07.31-1,.64-2,.94-3.1s.64-2.2.64-2.43-.18-.23-.42-.29L97,94a.47.47,0,0,1,0-.45c.35,0,.64,0,1,0s.59,0,.93,0a.48.48,0,0,1,0,.45l-.28.1c-.52.16-.82,1.32-1.32,2.9l-.62,2a7,7,0,0,0-.47,3Z"/><path class="cls-4" d="M105.6,101.47c-.07-.41-.11-.46-.41-.46h-1.5c-.25,0-.31,0-.38.44l-.35,1.93a11.93,11.93,0,0,0-.22,1.52c0,.22.05.33.29.37l.33,0a.47.47,0,0,1,0,.46,8.83,8.83,0,0,0-1,0c-.32,0-.68,0-1,0a.61.61,0,0,1,0-.46l.33,0c.24,0,.45-.24.59-.9.18-.85.46-2,.88-4.1l1-5a4.56,4.56,0,0,0,.17-1.31,1.45,1.45,0,0,0,.52-.69c.06,0,.13,0,.15.16.13.81.29,1.65.44,2.46l1.36,7.38c.29,1.58.42,1.86.85,2l.27,0a.61.61,0,0,1,0,.46,11.75,11.75,0,0,0-1.21,0c-.48,0-.85,0-1.14,0a.5.5,0,0,1,0-.46l.29,0c.21,0,.34-.15.34-.33a6.43,6.43,0,0,0-.13-1Zm-2-1.64c-.08.43-.07.44.21.44h1.22c.29,0,.31-.07.22-.56l-.54-3c-.08-.44-.17-.93-.23-1.15h0c0,.09-.13.53-.24,1.08Z"/><path class="cls-4" d="M114.6,100.82c.23.87.44,1.71.68,2.52h0c.27-.86.52-1.82.77-2.75l.93-3.51a17.06,17.06,0,0,0,.76-3.52,4.55,4.55,0,0,0,.75,0c.25,0,.57,0,.88,0a.63.63,0,0,1,0,.45l-.21,0c-.62.11-.7.46-.69,1.75,0,1.94,0,5.34.11,8,0,.92,0,1.41.48,1.49l.32,0a.56.56,0,0,1,0,.46c-.41,0-.81,0-1.17,0s-.8,0-1.21,0a.56.56,0,0,1,0-.46l.29,0c.49-.09.49-.39.49-1.56l0-7.66h0c-.07.2-.45,1.67-.65,2.39l-.88,3.21c-.45,1.62-.9,3.34-1.08,4.19a.1.1,0,0,1-.1.07.1.1,0,0,1-.08-.07c-.17-1-.65-2.78-.88-3.68l-.9-3.54c-.2-.84-.41-1.8-.63-2.64h0c0,1.14-.07,2.2-.1,3.27s-.07,2.75-.07,4.31c0,1.36.06,1.65.45,1.71l.37,0a.52.52,0,0,1,0,.46,9.57,9.57,0,0,0-1.1,0,8.65,8.65,0,0,0-1,0,.61.61,0,0,1,0-.46l.21,0c.42-.11.56-.22.62-1.51s.11-2.22.17-4c0-1.52.09-3.08.11-4.09s-.06-1.43-.67-1.58l-.16,0a.54.54,0,0,1,0-.45,7.79,7.79,0,0,0,.79,0,5.21,5.21,0,0,0,.83,0,11.51,11.51,0,0,0,.51,3Z"/><path class="cls-4" d="M126.83,101.47c-.07-.41-.11-.46-.41-.46h-1.5c-.25,0-.31,0-.38.44l-.35,1.93a11.93,11.93,0,0,0-.22,1.52c0,.22,0,.33.29.37l.33,0a.47.47,0,0,1,0,.46,8.76,8.76,0,0,0-1,0c-.33,0-.69,0-1,0a.61.61,0,0,1,0-.46l.33,0c.24,0,.46-.24.6-.9.18-.85.45-2,.87-4.1l1-5a4.56,4.56,0,0,0,.17-1.31,1.49,1.49,0,0,0,.51-.69c.06,0,.13,0,.15.16.13.81.29,1.65.44,2.46l1.36,7.38c.29,1.58.42,1.86.85,2l.27,0a.61.61,0,0,1,0,.46,11.75,11.75,0,0,0-1.21,0c-.47,0-.85,0-1.14,0a.5.5,0,0,1,0-.46l.29,0c.21,0,.35-.15.35-.33a6.43,6.43,0,0,0-.13-1Zm-2-1.64c-.08.43-.07.44.21.44h1.22c.29,0,.31-.07.22-.56l-.54-3c-.08-.44-.17-.93-.23-1.15h0c0,.09-.12.53-.23,1.08Z"/><path class="cls-4" d="M135.83,100.82c.23.87.45,1.71.69,2.52h0c.26-.86.51-1.82.76-2.75l.94-3.51a17.57,17.57,0,0,0,.75-3.52,4.55,4.55,0,0,0,.75,0c.25,0,.58,0,.88,0a.63.63,0,0,1,0,.45l-.2,0c-.63.11-.71.46-.7,1.75,0,1.94,0,5.34.11,8,0,.92,0,1.41.49,1.49l.31,0a.56.56,0,0,1,0,.46c-.4,0-.81,0-1.17,0s-.8,0-1.2,0a.56.56,0,0,1,0-.46l.28,0c.49-.09.49-.39.49-1.56l0-7.66h0c-.07.2-.44,1.67-.64,2.39l-.89,3.21c-.45,1.62-.89,3.34-1.07,4.19a.1.1,0,0,1-.1.07.11.11,0,0,1-.09-.07c-.17-1-.65-2.78-.88-3.68l-.89-3.54c-.21-.84-.42-1.8-.64-2.64h0c0,1.14-.07,2.2-.1,3.27s-.07,2.75-.07,4.31c0,1.36.06,1.65.45,1.71l.38,0a.52.52,0,0,1,0,.46,9.86,9.86,0,0,0-1.11,0,8.75,8.75,0,0,0-1,0,.61.61,0,0,1,0-.46l.22,0c.41-.11.55-.22.61-1.51s.11-2.22.17-4c0-1.52.09-3.08.11-4.09s-.06-1.43-.67-1.58l-.15,0a.54.54,0,0,1,0-.45,7.43,7.43,0,0,0,.78,0,5.21,5.21,0,0,0,.83,0,12,12,0,0,0,.51,3Z"/><path class="cls-4" d="M144.47,99.8c0-3.67,1.49-6.48,3.54-6.48,2.3,0,3.45,3.06,3.45,6.29,0,3.71-1.53,6.41-3.45,6.41C145.8,106,144.47,103.1,144.47,99.8Zm6,.38c0-3-.73-6.29-2.63-6.29-1,0-2.38,1.3-2.38,5.32,0,2.72.72,6.24,2.68,6.24C149.33,105.45,150.47,103.8,150.47,100.18Z"/><path class="cls-4" d="M158.56,103c0,1.93,0,2.21.6,2.3l.32,0a.6.6,0,0,1,0,.46c-.57,0-.91,0-1.31,0s-.74,0-1.38,0a.53.53,0,0,1,0-.46l.36,0c.57-.09.62-.37.62-2.3v-8.2c0-.57,0-.59-.3-.59h-.55a1.33,1.33,0,0,0-1.22.46,4.27,4.27,0,0,0-.45,1.27c-.08.1-.22,0-.26-.13.16-.83.31-2,.38-2.74,0,0,.16-.05.19,0,.06.59.39.57.84.57h4c.54,0,.63,0,.78-.51a.12.12,0,0,1,.18.05,20.12,20.12,0,0,0-.15,2.79.14.14,0,0,1-.26,0,3.71,3.71,0,0,0-.25-1.34,1.33,1.33,0,0,0-1.15-.46h-.71c-.3,0-.29,0-.29.62Z"/><path class="cls-4" d="M164.91,99.8c0-3.67,1.49-6.48,3.54-6.48,2.3,0,3.45,3.06,3.45,6.29,0,3.71-1.53,6.41-3.45,6.41C166.24,106,164.91,103.1,164.91,99.8Zm6,.38c0-3-.72-6.29-2.62-6.29-1,0-2.38,1.3-2.38,5.32,0,2.72.72,6.24,2.68,6.24C169.77,105.45,170.9,103.8,170.9,100.18Z"/><rect x="34.72" y="206.95" width="114" height="12.36"/><path class="cls-4" d="M45,215.81c0,.55,0,2.73,0,3.21,0,.11-.08.2-.19.2-.11-.31-.4-.95-1.27-2.77l-2.31-4.85c-.27-.57-.94-2.07-1.15-2.48h0a8.59,8.59,0,0,0,0,1.2v4a26.09,26.09,0,0,0,.18,3.8.57.57,0,0,0,.51.35l.3.05a.55.55,0,0,1,0,.46c-.44,0-.79,0-1.16,0s-.69,0-1,0a.56.56,0,0,1,0-.46l.26-.05a.53.53,0,0,0,.44-.37,32.3,32.3,0,0,0,.13-3.78V209a2.75,2.75,0,0,0-.22-1.32,1,1,0,0,0-.61-.44l-.17,0a.52.52,0,0,1,0-.46,10.31,10.31,0,0,0,1.12.05,2.16,2.16,0,0,0,.46-.05,29.55,29.55,0,0,0,1.7,4l1,2c.69,1.41,1.18,2.44,1.65,3.32h0a3.33,3.33,0,0,0,0-.77v-3.93a23.38,23.38,0,0,0-.2-3.8c-.06-.17-.22-.28-.62-.37l-.17,0c-.07-.11-.06-.41,0-.46.46,0,.8.05,1.17.05a10.29,10.29,0,0,0,1-.05.53.53,0,0,1,0,.46l-.14,0c-.32.09-.52.24-.56.39a26.89,26.89,0,0,0-.15,3.78Z"/><path class="cls-4" d="M53.22,214.67c-.07-.41-.11-.46-.41-.46h-1.5c-.25,0-.31,0-.38.44l-.35,1.93a11.93,11.93,0,0,0-.22,1.52c0,.22,0,.33.29.37l.33.05a.47.47,0,0,1,0,.46c-.26,0-.57,0-1,0s-.68,0-1,0a.61.61,0,0,1,0-.46l.33-.05c.24,0,.46-.24.59-.9.18-.85.46-2,.88-4.1l1-4.95a4.54,4.54,0,0,0,.17-1.3,1.52,1.52,0,0,0,.52-.7c.06,0,.13,0,.15.16.13.81.29,1.66.44,2.46l1.36,7.38c.29,1.58.42,1.86.85,1.95l.27.05a.61.61,0,0,1,0,.46c-.41,0-.76,0-1.21,0s-.85,0-1.14,0a.5.5,0,0,1,0-.46l.29-.05c.21,0,.34-.15.34-.33a7.68,7.68,0,0,0-.12-1Zm-2-1.64c-.08.43-.07.44.21.44h1.22c.29,0,.31-.07.22-.56l-.54-3c-.08-.44-.17-.93-.23-1.15h0c0,.09-.13.53-.24,1.08Z"/><path class="cls-4" d="M59.62,209.57c0-1.91,0-2.19-.61-2.32l-.16,0a.6.6,0,0,1,0-.46c.43,0,.77.05,1.18.05h1.87a7.93,7.93,0,0,0,1.34-.05c.06.31.12,1.63.16,2.44a.14.14,0,0,1-.25,0c-.15-.86-.24-1.5-.75-1.74a2.7,2.7,0,0,0-1-.11h-.72c-.29,0-.29,0-.29.74v3.67c0,.51,0,.51.32.51h.58a2.15,2.15,0,0,0,.85-.11c.12-.07.19-.18.24-.64l.08-.75a.13.13,0,0,1,.25,0c0,.44,0,1.16,0,1.86s0,1.36,0,1.76a.13.13,0,0,1-.25,0l-.09-.72c0-.33-.11-.6-.31-.7a1.94,1.94,0,0,0-.77-.09h-.58c-.29,0-.32,0-.32.5V216a5.21,5.21,0,0,0,.19,1.91c.11.22.32.42,1.2.42s1.05-.08,1.27-.28a5.25,5.25,0,0,0,.71-1.78c.07-.09.21,0,.25.13-.07.64-.32,2.06-.45,2.55-.9,0-1.78,0-2.67,0h-.89c-.43,0-.77,0-1.35,0a.6.6,0,0,1,0-.46l.32-.05c.57-.09.62-.37.62-2.3Z"/><path class="cls-4" d="M76.27,216.17c0,1.93,0,2.21.6,2.3l.31.05a.6.6,0,0,1,0,.46c-.56,0-.9,0-1.3,0s-.75,0-1.38,0a.53.53,0,0,1,0-.46l.36-.05c.56-.09.61-.37.61-2.3V208c0-.57,0-.59-.3-.59h-.54a1.34,1.34,0,0,0-1.23.46,4.25,4.25,0,0,0-.44,1.27c-.08.11-.22,0-.26-.13.16-.83.31-2,.38-2.74,0,0,.15-.05.18,0,.06.59.39.57.85.57h4c.54,0,.63,0,.78-.51a.11.11,0,0,1,.17,0,21.75,21.75,0,0,0-.14,2.79.14.14,0,0,1-.26,0,3.71,3.71,0,0,0-.25-1.34,1.34,1.34,0,0,0-1.16-.46h-.7c-.3,0-.29,0-.29.63Z"/><path class="cls-4" d="M83.43,209.57c0-1.91,0-2.19-.61-2.32l-.16,0a.6.6,0,0,1,0-.46c.43,0,.77.05,1.18.05h1.87a8,8,0,0,0,1.34-.05c.06.31.12,1.63.16,2.44a.14.14,0,0,1-.25,0c-.15-.86-.24-1.5-.76-1.74a2.61,2.61,0,0,0-1-.11h-.72c-.3,0-.3,0-.3.74v3.67c0,.51,0,.51.33.51h.58a2.15,2.15,0,0,0,.85-.11c.11-.07.18-.18.23-.64l.08-.75a.14.14,0,0,1,.26,0c0,.44,0,1.16,0,1.86s0,1.36,0,1.76a.14.14,0,0,1-.26,0l-.09-.72c0-.33-.11-.6-.3-.7a1.94,1.94,0,0,0-.77-.09h-.58c-.3,0-.33,0-.33.5V216a5.21,5.21,0,0,0,.19,1.91c.12.22.33.42,1.21.42s1-.08,1.27-.28a5.25,5.25,0,0,0,.71-1.78c.07-.09.21,0,.25.13-.07.64-.32,2.06-.45,2.55-.9,0-1.78,0-2.67,0h-.89c-.43,0-.77,0-1.36,0a.6.6,0,0,1,0-.46l.33-.05c.57-.09.62-.37.62-2.3Z"/><path class="cls-4" d="M97.57,215.81c0,.55,0,2.73,0,3.21,0,.11-.08.2-.19.2-.12-.31-.41-.95-1.27-2.77l-2.31-4.85c-.27-.57-.94-2.07-1.15-2.48h0a8.59,8.59,0,0,0,0,1.2v4a26.09,26.09,0,0,0,.18,3.8.57.57,0,0,0,.5.35l.31.05a.55.55,0,0,1,0,.46c-.45,0-.79,0-1.16,0s-.69,0-1,0a.56.56,0,0,1,0-.46l.27-.05a.53.53,0,0,0,.44-.37,32.3,32.3,0,0,0,.13-3.78V209a2.75,2.75,0,0,0-.22-1.32.94.94,0,0,0-.62-.44l-.17,0a.6.6,0,0,1,0-.46,10.57,10.57,0,0,0,1.13.05,2.16,2.16,0,0,0,.46-.05,29.55,29.55,0,0,0,1.7,4l1,2c.69,1.41,1.18,2.44,1.64,3.32h0a3.33,3.33,0,0,0,0-.77v-3.93a24.66,24.66,0,0,0-.19-3.8c-.06-.17-.22-.28-.62-.37l-.17,0c-.07-.11-.06-.41,0-.46.46,0,.79.05,1.17.05a10.29,10.29,0,0,0,1-.05.53.53,0,0,1,0,.46l-.14,0c-.32.09-.52.24-.56.39a26.89,26.89,0,0,0-.15,3.78Z"/><path class="cls-4" d="M108.34,215.81c0,.55,0,2.73,0,3.21,0,.11-.08.2-.19.2-.12-.31-.41-.95-1.27-2.77l-2.31-4.85c-.27-.57-.94-2.07-1.15-2.48h0a8.59,8.59,0,0,0-.05,1.2v4a26.09,26.09,0,0,0,.18,3.8.57.57,0,0,0,.5.35l.31.05a.55.55,0,0,1,0,.46c-.44,0-.79,0-1.16,0s-.69,0-1,0a.56.56,0,0,1,0-.46l.27-.05a.53.53,0,0,0,.44-.37,32.3,32.3,0,0,0,.13-3.78V209a2.75,2.75,0,0,0-.22-1.32.94.94,0,0,0-.62-.44l-.17,0a.6.6,0,0,1,0-.46,10.57,10.57,0,0,0,1.13.05,2.16,2.16,0,0,0,.46-.05,29.55,29.55,0,0,0,1.7,4l1,2c.69,1.41,1.18,2.44,1.64,3.32h0a3.33,3.33,0,0,0,0-.77v-3.93a24.66,24.66,0,0,0-.19-3.8c-.06-.17-.22-.28-.62-.37l-.17,0c-.07-.11-.06-.41,0-.46.46,0,.79.05,1.17.05a10.29,10.29,0,0,0,1-.05.53.53,0,0,1,0,.46l-.14,0c-.32.09-.52.24-.56.39a26.89,26.89,0,0,0-.15,3.78Z"/><path class="cls-4" d="M112.94,213c0-3.67,1.5-6.48,3.55-6.48,2.29,0,3.45,3.06,3.45,6.29,0,3.71-1.53,6.41-3.45,6.41C114.28,219.22,112.94,216.3,112.94,213Zm6,.38c0-3-.72-6.29-2.62-6.29-1,0-2.38,1.3-2.38,5.32,0,2.72.72,6.24,2.67,6.24C117.81,218.65,118.94,217,118.94,213.38Z"/><path class="cls-4" d="M129.39,211.42a25.39,25.39,0,0,0-.18-3.8.58.58,0,0,0-.5-.39l-.25,0a.55.55,0,0,1,0-.44c.38,0,.75.05,1.13.05s.69,0,1-.05a.52.52,0,0,1,0,.44l-.24,0a.6.6,0,0,0-.5.45,29.75,29.75,0,0,0-.14,3.74v2.07a10.67,10.67,0,0,1-.69,4.39,2.21,2.21,0,0,1-1.9,1.34,2.06,2.06,0,0,1-1.86-1c-.53-.81-.78-2.15-.78-4.33v-4.33c0-1.91,0-2.22-.6-2.32l-.25,0a.56.56,0,0,1,0-.44c.5,0,.84.05,1.24.05s.73,0,1.22-.05a.56.56,0,0,1,0,.44l-.24,0c-.57.1-.59.41-.59,2.32v4c0,3,.49,4.9,2,4.9s2-2.09,2-4.88Z"/><path class="cls-4" d="M135.2,209.6c0-2-.1-2.26-.69-2.35l-.24,0a.6.6,0,0,1,0-.46c.57,0,.91.05,1.33.05s.73,0,1.13-.05a.6.6,0,0,1,0,.46l-.15,0c-.58.15-.6.41-.6,2.35v6.81a18.28,18.28,0,0,1-.23,3.56c-.33,1.47-1,2.65-2,2.65a.37.37,0,0,1-.43-.39c0-.31.15-.84.36-.84a.68.68,0,0,1,.37.11,1,1,0,0,0,.41.13c.21,0,.33-.22.4-.48a30,30,0,0,0,.26-4.61Z"/><path class="cls-4" d="M141.47,209.6c0-1.94,0-2.26-.61-2.35l-.25,0a.6.6,0,0,1,0-.46c.5,0,.84.05,1.25.05s.74,0,1.24-.05a.6.6,0,0,1,0,.46l-.25,0c-.59.09-.61.41-.61,2.35v6.54c0,1.94,0,2.2.61,2.33l.25.05a.6.6,0,0,1,0,.46c-.5,0-.84,0-1.24,0s-.75,0-1.25,0a.6.6,0,0,1,0-.46l.25-.05c.59-.13.61-.39.61-2.33Z"/><rect class="cls-5" width="380.17" height="475.55"/></g></svg>