<svg xmlns="http://www.w3.org/2000/svg" viewBox="0 0 380.17 475.55"><defs><style>.cls-1,.cls-2,.cls-3,.cls-5{fill:none;}.cls-1,.cls-2,.cls-3{stroke:#000;}.cls-1{stroke-width:0.5px;}.cls-2{stroke-width:0.4px;}.cls-3{stroke-width:0.44px;}.cls-4{fill:#fff;}.cls-5{opacity:0.12;}</style></defs><title>アートボード 39</title><g id="letter_ol"><path d="M47.7,54.05l.91-1.87c.33-.66.38-.66.45-.66s2.86,3,2.86,3.78c0,.22,0,.41-.93.88V82.79c0,.81,0,.84-.55.92l-1.93.22c-.36,0-.52,0-.52-.7V80.44H35.11v2.68c0,.62,0,.81-.48.84l-2,.22c-.58.08-.58-.14-.58-.69V52.81a16.1,16.1,0,0,1,3.39,1.24Zm-12.59.41V66.72h5V54.46Zm0,12.7V80h5V67.16Zm7.94-12.7V66.72H48V54.46Zm0,12.7V80H48V67.16Z"/><path d="M61.58,60.29l-.09-.44h3.86V50.93c.67.12,1.86.3,3.29.66.22.08.38.19.38.37s-.07.22-.74.48v7.41h.29l1.22-2.49C70,57,70,57,70.05,57A17.21,17.21,0,0,1,72,60c0,.26-.1.29-.17.29H68.28v4.63c3.27,1.13,3.84,3.37,3.84,4.8s-.45,2.94-1.91,2.94c-.47,0-.52-.26-.57-.84a20.27,20.27,0,0,0-1.36-6.46V83.93c0,.62,0,.8-.45.84L65.92,85c-.55,0-.57.08-.57-.58V71.12a23.58,23.58,0,0,1-4.53,7.19c2.29-4.55,3.81-13.58,4.22-18Zm10.23,3.09c2.82,1.94,4.51,4.36,4.51,6.86,0,2-.95,3.12-2.17,3.12-.6,0-.69-.22-.74-1.07a27.69,27.69,0,0,0-1.64-8.88Zm8.52-3.53L81.54,57c.15-.33.17-.4.24-.4a18.15,18.15,0,0,1,2,3.45c0,.22-.1.25-.2.25H80.18V81c0,1.69,0,3.82-3.5,3.82-.55,0-.6-.3-.6-.88,0-1.73,0-3.12-2.38-4.44v-.11c1,.14,2.76.22,2.79.22.71,0,.71-.22.71-1.77V60.29H72.67l-.12-.44H77.2v-9c1.08.18,3.34.59,3.53.69a.25.25,0,0,1,.22.26c0,.19,0,.26-.77.55v7.45Z"/><path d="M98.38,84.18a13.59,13.59,0,0,0,4.84-5.58c-1.81-1.43-2.77-3.52-2.77-10.23,0-1.69,0-2.17.29-6.65A25.56,25.56,0,0,0,97.5,73.54a10.63,10.63,0,0,0,.86,4.4,2.15,2.15,0,0,1,.23.88c0,.92-.5,1.88-1.45,1.88-.55,0-1.1-.26-1.79-1.47s-2-3.74-2-8.74a103.24,103.24,0,0,1,1.1-11.59,22.55,22.55,0,0,0,.19-2.79A15.27,15.27,0,0,0,94,52a10.23,10.23,0,0,1,3.22,7.38,15.25,15.25,0,0,1-.52,3.52A49.8,49.8,0,0,0,95.54,71c0,.22,0,1.65.38,1.65.12,0,.15-.14.48-1.5.67-2.57,3.17-12.33,8.4-13.62-.08-1.5-.2-3.52-1.53-3.52-.36,0-.57.18-.88.51.24-.8.88-2.82,2.1-2.82A2.53,2.53,0,0,1,107,54.31c0,.51-.1,2.68-.1,3.12,1.41.26,6,1.1,6,11.34,0,11.52-6.75,10.94-7.25,10.86-2,3.3-5.63,4.33-7.34,4.7ZM105,64.7c0-.81,0-4-.14-6.54a6.64,6.64,0,0,0-3.7,3c-.05,1.32-.07,2.68-.07,4,0,4.18.12,9.1,3.27,10.31C105,72.55,105,66.75,105,64.7Zm2.44,5.68a32.63,32.63,0,0,1-.31,4.88c1-.47,3.14-1.5,3.14-8.33,0-5.35-1.74-7.85-3.24-8.55C107.25,64.59,107.4,67.49,107.4,70.38Z"/><path d="M127.48,77.14c.47.69,1.52,1.94,2.36,1.94,3,0,4-10.09,4-13.72,0-.92,0-3.27-1.33-3.27-.39,0-1,.4-2.17,1.29-1.75,7.55-3.77,16.47-5,18.89-.45.89-.91,1.33-1.5,1.33-.88,0-1.24-1.51-1.24-4,0-.58,0-.66.52-1.24a25.85,25.85,0,0,0,2.17-5.18c.91-2.75,1.27-4.18,2.17-7.85a6.17,6.17,0,0,1-2.69,1.17c-1,0-1.77-1.21-1.77-2.64a9.19,9.19,0,0,1,1.12-3.63c.08,1.54.12,2.2,1,2.2a10.62,10.62,0,0,0,3.13-.66,63.57,63.57,0,0,0,1.36-7.53c0-.88-.46-1.06-.67-1.06a.52.52,0,0,0-.29.07c0-1.87,1.29-2,1.79-2a2.4,2.4,0,0,1,2.17,2.28,9.14,9.14,0,0,1-.52,2.16c-.26,1-.62,2.46-1.27,5.18a6.06,6.06,0,0,1,1.51-.3c.57,0,3.93.33,3.93,7.78,0,5-1.81,15.23-5.75,15.23a2.17,2.17,0,0,1-2.26-2.09,16.22,16.22,0,0,0-.91-4.33Zm11.23-17.21c3.15,0,4.65,3.48,4.65,6.64,0,3.78-1.67,4.22-2,4.22-1.14,0-1.14-1.76-1.14-2.31,0-5-.29-7.89-3.25-8.33A7.6,7.6,0,0,1,138.71,59.93Z"/><path d="M155,84.88c3.77-1.17,6.51-3.34,6.51-14.86,0-.74,0-6.72-.67-8.66-.14-.41-.35-.74-.81-.74-1.69,0-3.22,6.61-3.22,12.33a11.77,11.77,0,0,0,.24,2.57,3.92,3.92,0,0,1,.07.7,1.51,1.51,0,0,1-1.43,1.58c-2,0-2.41-4.81-2.41-8.48,0-4,.46-6.13,2-12a24.57,24.57,0,0,0,.91-4.48c0-1.06-.53-1.17-1.2-1.28a1.94,1.94,0,0,1,1.44-.74c.81,0,2.43.59,2.43,3.78a7.43,7.43,0,0,1-.74,3.49c-1.55,3.34-3,6.42-3,11.38,0,.22,0,.91.22.91s.14-.07.31-.91a32.93,32.93,0,0,1,3.17-8.55,2.53,2.53,0,0,1,2-1.29c1.76,0,2.65,2.72,2.84,3.3a34.78,34.78,0,0,1,.83,8.19c0,5.72-.38,11-5.77,13.17A9.12,9.12,0,0,1,155,85Z"/><path d="M40.25,142l.9-2.09c.37-.88.54-1.26.78-1.26s.45.25.62.5c.33.45,1.89,2.41,2.26,2.85H62.54l2.13-4.3c.21-.38.33-.76.46-.76s4.56,4.62,4.56,5.38c0,.44-.21.44-.41.44H65.45v43.34c0,3.66,0,5.31-1,6.51-1.61,1.9-4.86,2.47-5.64,2.47s-.94-.32-.94-2.09c0-4.49-1.32-5.25-4.24-7l0-.26c1.89.19,4,.32,5.84.32.78,0,.82-.44.82-1.58V142.78H45.39c1,1.33,1.44,1.83,1.44,2.59s-.17.7-1.65,1.2c-.37.89-.86,2-1.64,3.55-.58,1.2-3.79,6.45-4.49,7.72,6,6.89,6.38,12.65,6.38,15.56,0,4-1.11,6-2.3,7.21a5.88,5.88,0,0,1-3.42,1.84c-.49,0-.49-.19-.49-2.22,0-1.52,0-3.86-1.61-5v18.48c0,1.26-.32,1.39-.78,1.45l-3.41.38c-.82.06-.82-.5-.82-1.07V140.12c2.63.83,4.48,1.58,5.3,1.9Zm-2.64.76v31.31c.17,0,.46.07.87.07,1.56,0,2.79-.89,2.79-5.25,0-5.32-1.52-8.54-2.91-11.64a87,87,0,0,0,2.17-14.49Zm15.51,9.36,1.31-2.59c.5-1,.58-1.08.74-1.08.37,0,4.2,4.56,4.2,5.44a1.25,1.25,0,0,1-.45,1c-.42.44-.5.51-.79.83v20.62c0,1.2-.12,1.52-.69,1.58l-3.33.38c-.42.06-.7.06-.7-1.14V172.7H51v6.39c0,1.27,0,2-.82,2l-2.84.31c-.78.07-1.07.13-1.07-1.2V150.5c1.19.31,4.24,1.39,5,1.64Zm-2.1.76v19h2.39v-19Z"/><path d="M110.69,158l1.57-3.48c.37-.82.53-1.14.78-1.14.53,0,5.18,5.51,5.18,6.27a1.23,1.23,0,0,1-.54.95,6.71,6.71,0,0,0-1.15.69c0,6.08-.41,21.83-2.3,28.15-1.19,4-4.24,6.08-7.28,6.08-1.69,0-1.69-.95-1.69-1.9,0-4.62,0-5.06-4-7.91v-.25a39,39,0,0,0,5.75,1c2,0,2.59-1.2,3.09-4.68,1.11-7.66,1.11-20,1.11-23h-9.38c-.86,16-4.6,32.2-17.35,37.33l-.08-.19c2.13-2.15,8.71-8.73,11-24.74,1.11-7.78,1.15-11.83,1.15-28.21h-12l-.2-.76h30.71l2.51-5.13c.21-.44.37-.76.58-.76.49,0,4.44,5.51,4.44,6.14s-.29.51-.54.51h-20c0,4.3,0,10.12-.25,15.05Z"/><path d="M166.33,145.06l2.43-5c.25-.51.33-.76.49-.76a52.07,52.07,0,0,1,4.49,5.95c0,.44-.17.5-.33.5h-10c2.31,1.58,4.16,2.85,4.49,3.1a.57.57,0,0,1,.33.51c0,.38-.33.38-.54.38l-1.07.06c-.57,1-2,3.1-3.17,4.87-.82,1.21-2.75,3.86-3.94,5.32h8.8l2.55-5.38c.12-.32.33-.76.49-.76s4.65,5.63,4.65,6.39c0,.44-.17.51-.29.51H138.25L138,160h20.6c.46-2,2.1-11.83,2.35-14.24H147.34c3,1.58,6.74,5,6.74,9.49,0,3.23-2,4.62-4,4.62-1.15,0-1.19-.63-1.32-3.35a36.18,36.18,0,0,0-2-10.76h-6l-.21-.69h13.78v-8.23c1.31.13,4.35.38,5.92.7.29.06.57.12.57.51s-.33.63-1.23.88v6.14Zm-3.08,22.08,1.48-3.48c.41-.95.45-1,.62-1,.33,0,5.14,5,5.14,6.14,0,.76-.17.89-1.61,1.84v22.83c0,1-.16,1.14-.82,1.2l-3.58.39c-.7.06-.82-.13-.82-1.27v-3.92h-13.2v3.41c0,1,0,1.27-.9,1.39l-3.5.39c-.66.06-.82.06-.82-1.14V164.8a34.15,34.15,0,0,1,5.71,2.34Zm-12.79.75v9.87h13.2v-9.87Zm0,10.63v10.63h13.2V178.52Z"/><path d="M207.83,150.94v-14.3a44.81,44.81,0,0,1,6.13,1c.2.06.41.13.41.45s-.12.44-1.28,1.13v11.77h8.43l1.81-4.05c.25-.5.33-.69.58-.69s3.25,3.48,4.07,4.49c.58.76,1,1.26,1,2s-.54,1.2-1.89,2V193c0,1.2-.09,1.52-.83,1.58l-3.82.32c-.7.06-.7-.63-.7-1.14V190H199.4v2.65c0,.89,0,1.84-.82,1.9l-3.46.32c-.94.06-1-.13-1-1.65v-45a32.21,32.21,0,0,1,5.75,2.66Zm-8.43.7v17.58h8.43V151.64Zm0,18.34v19.3h8.43V170Zm13.69-18.34v17.58h8.68V151.64Zm0,18.34v19.3h8.68V170Z"/><path d="M275.48,150.81l2.34-4.68c.17-.38.37-.76.5-.76.33,0,4.4,5.19,4.4,5.7s-.29.44-.54.44H267c1.48,3.48,6.95,8.73,17.19,10.19v.12c-2.18,1.65-3.09,3.73-3.46,7.09,0,.38-.16,1.14-.74,1.14-.74,0-10.2-4.62-13.49-18.54h-.08v12.27c0,.83,0,1.52-.94,1.65l-2.84.31c-1.07.13-1.15-.19-1.15-1.77v-9.42c-5.51,9-11.6,13.66-16.7,16.44v-.12c5.35-6,9.38-13.92,11.56-19.36H245.46l-.21-.7h16.21v-5.37a121.37,121.37,0,0,1-14.93.57l0-.19c5-1.27,14.64-3.93,23.81-9.75.7.7,3.37,3.48,3.91,4.05a24.07,24.07,0,0,1,2.67,3.35.29.29,0,0,1-.33.32,6.31,6.31,0,0,1-1.4-.32c-.57.13-1.77.39-2.34.45-2.35.38-3.58.57-6.42,1v5.94Zm-22.86,16.58-.17-.7H268l1.07-1.83c.57-1,.65-1.14.82-1.14s5.92,4.87,5.92,6.07c0,.7-1,.7-1.23.7a16.23,16.23,0,0,1-1.81-.13,43.7,43.7,0,0,1-6.38,2.6c.25.06.74.12.74.57s-.37.56-.82.88v2.85h9.21l2.35-4.87c.16-.32.41-.76.53-.76.29,0,4.52,5.37,4.52,5.88s-.24.51-.49.51H266.35v10.12c0,3.1,0,4.81-1.15,5.88a7.34,7.34,0,0,1-4.61,1.71c-1.27,0-1.35-1.2-1.35-2.21,0-3.36,0-4.75-4.53-7.22v-.12c2.22.19,4,.31,5.68.31.86,0,.86-.19.86-2.53V178H244.93l-.17-.76h16.49v-4.81c.82.06,2.72.25,3.5.32a34.85,34.85,0,0,0,3.33-5.38Z"/><path d="M33.67,238.75l.44-.89c.13-.26.16-.26.19-.26a4.09,4.09,0,0,1,1,1.23c0,.12-.06.12-.14.12H34v2h.14l.46-1c0-.06.1-.22.16-.22s.12.09.29.33a29.27,29.27,0,0,0,1.62-6.4s1.38.43,1.53.48.23.1.23.19-.22.21-.41.23a5,5,0,0,0,3,3.58v.06a2.4,2.4,0,0,0-.58,1.38c-.06.48-.07.64-.22.64-.36,0-2.05-1.65-2.25-5.47a14.25,14.25,0,0,1-2.78,5.5,4.3,4.3,0,0,1,.41.79c0,.13-.07.13-.13.13H34v4.48l2-.37v.1a20.11,20.11,0,0,1-4.3,3c-.15-.57-.37-1.65-.47-2.29l1.62-.28v-4.69H31.08l0-.2h1.75v-2h-.66A8.18,8.18,0,0,1,31,240.39l0,0a36.42,36.42,0,0,0,1.72-6.61l1.59.6c.11,0,.19.08.19.17s-.32.19-.42.21l0,.06c1.33.37,1.68,1.06,1.68,1.89s-.43,1.11-.81,1.11c-.22,0-.26-.12-.3-.6A6.44,6.44,0,0,0,34,235a17.41,17.41,0,0,1-1.72,3.76Zm-2.39,3a2.93,2.93,0,0,1,1.42,2.5.91.91,0,0,1-.84,1c-.26,0-.29-.23-.29-.66a18.29,18.29,0,0,0-.3-2.85ZM34,245.11a29.1,29.1,0,0,0,.54-3.38c.22.11,1.19.69,1.36.78,0,0,.14.08.14.18s-.11.16-.18.16h-.21a9.73,9.73,0,0,1-1.61,2.27Zm4.7-3.59.28-.65c.12-.26.18-.39.26-.39a6.88,6.88,0,0,1,1,1.19c.14.17.18.24.18.35s-.28.35-.41.45v3.13c0,.61,0,1.59-1.16,1.59-.35,0-.35-.16-.35-.56,0-1-.33-1.27-.88-1.49v3c0,.34,0,.39-.21.4l-.84.08c-.17,0-.22-.06-.22-.3v-6.6h-1.1l0-.19Zm-1-2,.42-.86c0-.1.12-.26.18-.26a4,4,0,0,1,.9,1.18c0,.13-.06.13-.12.13H35.9l0-.19Zm-.06,2.14V245l.83,0c.3,0,.3-.23.3-.58v-2.74Z"/><path d="M47.83,235.06H44.65l-.06-.2h3.17l.41-.77c.14-.24.15-.27.21-.27a7.83,7.83,0,0,1,1.22,1.49s0,0,0,.05c0,.19-.23.4-.49.48v10.9a1.79,1.79,0,0,1-.47,1.44,2,2,0,0,1-1,.32c-.25,0-.26-.08-.28-.86a1.61,1.61,0,0,0-1.1-1.51v0l1.33.1c.28,0,.28-.13.28-.46v-4.63a24.29,24.29,0,0,1-2.72,4.1c-.07-.31-.33-1.36-.53-2.45.49-.27,1.18-.71,1.75-1.07l1.5-1Zm-2.89,1.32c.66.23,2.25.79,2.25,2.52,0,.93-.55,1.23-.95,1.23-.21,0-.23-.14-.34-.75a7,7,0,0,0-.95-2.93Zm7.48-1.32H49.64l0-.2h2.75l.44-.86c.09-.16.15-.29.21-.29a5.78,5.78,0,0,1,.62.74,3,3,0,0,1,.56.88c0,.27-.37.41-.46.45v10.85a2.65,2.65,0,0,1-.16,1.31,1.61,1.61,0,0,1-1.3.64c-.24,0-.26-.16-.26-.35,0-1,0-1.51-1.13-2v0c.32,0,1.11.09,1.34.09s.22-.09.22-.56V241a24.08,24.08,0,0,1-2.35,4.14,21,21,0,0,1-.59-2.37,28.29,28.29,0,0,0,2.94-2.16Zm-2.88,1.32c1.49.47,2.2,1.24,2.2,2.42s-.67,1.28-.85,1.28-.33-.22-.38-.51a8.19,8.19,0,0,0-1-3.12Z"/><path d="M62.72,247.72c1-.42,3.39-1.48,3.39-6.45,0-2.31-.68-5.7-3.06-5.69a4.25,4.25,0,0,1,.51,1.88c0,1.61-1.14,9.25-3.31,9.25-.71,0-.82-.67-1-1.47a5.86,5.86,0,0,0-.49-1.67,4.09,4.09,0,0,1-.41-1.84c0-3.78,2.48-6.72,4.93-6.72,2.2,0,4.16,2.33,4.16,6.66,0,2.86-1,4.61-2.06,5.26a5.78,5.78,0,0,1-2.71.85Zm-3.34-4.92a3.57,3.57,0,0,0,.16,1.3c.13.35.39.7.6.7.82,0,2.77-5,2.8-9.18C59.76,236.29,59.38,241.55,59.38,242.8Z"/><path d="M79.69,239.92l.53-1.2c0-.08.08-.19.12-.19a10.26,10.26,0,0,1,1,1.47c0,.11-.07.11-.13.11H79.62c0,1.36,0,2.21-.19,4.74h.17l.53-1.09c.06-.11.1-.19.14-.19a6.34,6.34,0,0,1,1,1.36c0,.11-.07.11-.13.11H79.42c-.14,1.7-.28,3.59-2,3.59-.19,0-.34,0-.34-.5,0-.91,0-1.44-1-1.95v0c.23,0,1.21.16,1.42.16s.43-.08.57-1.27H73.8c-.07.47-.18,1.56-.24,1.64s-.13.08-.24.08h-.8c-.13,0-.25,0-.25-.28s.17-1.4.25-2.16c.22-2.11.31-3.31.38-4.21H71.56l0-.19h1.41c.1-1.2.28-3.62.34-5.57.39.13,1.21.45,1.51.59h3.49l.38-.75c.11-.24.12-.26.17-.26a5.38,5.38,0,0,1,1.26,1.53c0,.14,0,.17-.39.49,0,.63,0,3.41-.06,4Zm-1.59,4.93c.17-1.66.18-2.77.21-4.74H74.23c-.16,2.37-.21,3-.41,4.74Zm.21-4.93c0-.67.06-4,.06-4.8H74.58c0,.69-.28,4-.34,4.8Zm-3.34.72c1.29.37,2.3,1.07,2.3,2.42,0,.78-.4,1.18-.8,1.18s-.4-.27-.47-.62a7.7,7.7,0,0,0-1-3Zm.17-4.9c.7.26,2.23.9,2.23,2.47,0,.69-.32,1.17-.73,1.17s-.5-.37-.53-.56a7,7,0,0,0-1-3Z"/><path d="M85.18,242.18l-.05-.19h1.79v-2.13c.21,0,1.56.19,1.56.37s-.1.16-.33.24V242h.43l.42-1c.06-.16.08-.18.11-.18a8,8,0,0,1,.84,1.25v-7.71a7.56,7.56,0,0,1,1.35.41h1.56l.42-.86c.06-.13.1-.21.17-.21a7,7,0,0,1,1.21,1.57c0,.17-.08.25-.47.43v6.67c0,.28,0,.33-.17.34l-.82.1h-.08v3.13c0,.47,0,.47.28.47s.42,0,.55-.32.54-2,.65-2.4h0c0,.34-.09,1.81-.09,2.12a1.16,1.16,0,0,0,.19.75,1,1,0,0,1,.14.57c0,1.16-.5,1.16-1.81,1.16-.86,0-1.13-.16-1.13-1.43v-3.46a.32.32,0,0,1-.15.05c-.41,2.15-1.15,4.15-3.46,5.17v-.05a9.37,9.37,0,0,0,2.21-5.5l-.32.05c-.22,0-.24,0-.24-.34v-.67a.09.09,0,0,1,0,.06s0,0,0,0H88.15v.59c1.37.61,1.58,1.3,1.58,1.94s-.42,1.2-.76,1.2-.31-.19-.35-.83a6.84,6.84,0,0,0-.47-2.1v5.17c0,.26,0,.33-.22.37l-.84.09c-.15,0-.17-.05-.17-.28v-3.49a8.9,8.9,0,0,1-1.8,2.43h0a19.52,19.52,0,0,0,1.46-5.09Zm3.34-6.2.35-.75c0-.09.08-.19.1-.19a5.52,5.52,0,0,1,.81,1c0,.11,0,.13-.09.13h-1.5a12.08,12.08,0,0,1,1.3.59c.18.09.2.13.2.21s0,.16-.36.17a14.54,14.54,0,0,1-1.54,2.39h.74l.44-1.07q.07-.18.12-.18a7.91,7.91,0,0,1,.82,1.31c0,.11,0,.13-.09.13H85.19l0-.19h2.54a24.1,24.1,0,0,0,.5-3.36H85.39l0-.2h1.54v-2.21a10.06,10.06,0,0,1,1.45.23c.13,0,.16.06.16.14s0,.13-.36.24V236Zm-2.59.39c.56.24,1.54.65,1.54,1.79,0,.61-.29,1-.85,1-.33,0-.33-.16-.33-.59a6.12,6.12,0,0,0-.38-2.23Zm5.27-1.44v2.14h1.74v-2.14Zm0,2.33v2.21h1.74v-2.21Zm1.74,4.65v-2.24H91.2v2.24Zm-1.74,1a5.78,5.78,0,0,1,.72.31V242.1H91.2Z"/><path d="M99.74,236.59a15.56,15.56,0,0,0,1.5-.43c1.24-.35,2.47-.64,3.72-.88.35-.06.36-.08.78-.38a.24.24,0,0,1,.16-.08c.15,0,1.42.52,1.42,1.45,0,.31-.14.72-.47.72a1.62,1.62,0,0,1-.6-.16,3.43,3.43,0,0,0-1-.16,2,2,0,0,0-1.85,1.52,14.89,14.89,0,0,0-.62,4.52c0,2.8.87,3.12,2,3.52a1,1,0,0,1,.76,1.07c0,.82-.25,1.11-.59,1.11a3.16,3.16,0,0,1-1.34-.44c-1.19-.67-1.77-1.84-1.77-4.48,0-2.83.79-5.49,2-6.64a8.73,8.73,0,0,0-3.09,1.33c-.45.3-.53.33-.7.33-.67,0-1.11-.91-1.11-1.84a2.39,2.39,0,0,1,.15-.93C99.15,236.14,99.27,236.59,99.74,236.59Zm6.89,4.58c0,.4-.17.75-.41.75s-.32-.19-.53-.8a4,4,0,0,0-1-1.55A1.82,1.82,0,0,1,106.63,241.17Zm-.5-3.15c1,0,1.56.57,1.56,1.32,0,.45-.25.69-.41.69s-.2-.06-.51-.65a3,3,0,0,0-1.25-1.3A4.34,4.34,0,0,1,106.13,238Z"/><path d="M111.7,244.29a3.45,3.45,0,0,1,2.29.85,2.38,2.38,0,0,1,.65,1.66c0,.74-.3,1.25-.76,1.25s-.72-.65-.76-.85a4.65,4.65,0,0,0-1.49-2.78Z"/><path d="M127.36,240.19l.63-1.42c.06-.13.09-.19.13-.19a11.52,11.52,0,0,1,1.22,1.68c0,.13-.07.13-.14.13h-3.75a6.94,6.94,0,0,0,4.06,4.75v.06a2,2,0,0,0-.83,1.67c0,.38-.09.51-.23.51a3.9,3.9,0,0,1-1.29-1.12c-1.22-1.49-1.69-4-1.85-5.87h-.12v7.68c0,.19,0,.35-.17.37l-.89.11c-.2,0-.26,0-.26-.29V242.4a11.17,11.17,0,0,1-4.12,5.22l0,0a20,20,0,0,0,3.27-7.21h-3.19l-.06-.2h4.12V237h-3.29l-.06-.19h3.35v-3.06c.87.13,1,.15,1.46.24,0,0,.17.05.17.16s-.08.15-.31.23v2.43h1.64l.62-1.26c.06-.1.1-.2.13-.2a10,10,0,0,1,1.12,1.52c0,.13-.07.13-.13.13h-3.38v3.2Z"/><path d="M140.92,241l.63-1.39c0-.13.08-.19.12-.19a9.28,9.28,0,0,1,1.19,1.65c0,.11-.07.11-.14.11h-3.91a5.48,5.48,0,0,0,4.14,4.37v.06c-.52.16-.67.82-.79,1.6,0,.23-.08.43-.33.43-.09,0-2-.81-2.74-4a13.62,13.62,0,0,1-.35-2.43h-.11v6.83c0,.32,0,.42-.29.45l-.72.08c-.24,0-.3,0-.3-.33v-4.89a10.12,10.12,0,0,1-4.11,4.47v-.05a18.25,18.25,0,0,0,3.44-6.56h-3.37l-.05-.18h4.1v-4.66h-3.51l-.05-.19h3.56v-2.48c.26,0,1.36.21,1.52.27s.13.07.13.16,0,.13-.34.23v1.82h1.71l.61-1.34c.08-.16.1-.21.13-.21a9.67,9.67,0,0,1,1.22,1.62c0,.12-.08.12-.14.12h-3.53V241Zm-6.43-4.16a2.66,2.66,0,0,1,2.11,2.5c0,1.1-.77,1.26-.89,1.26s-.19-.08-.23-.32a13.17,13.17,0,0,0-1-3.39Zm4.36,4.07a37.3,37.3,0,0,0,1-4.1c.18.09,1.47.8,1.58.91a.25.25,0,0,1,.1.18c0,.14,0,.14-.39.12a12.83,12.83,0,0,1-2.31,2.93Z"/><path d="M151.39,247.72c1-.42,3.38-1.48,3.38-6.45,0-2.31-.67-5.7-3.05-5.69a4.25,4.25,0,0,1,.51,1.88c0,1.61-1.14,9.25-3.31,9.25-.71,0-.82-.67-.95-1.47a5.86,5.86,0,0,0-.49-1.67,4.09,4.09,0,0,1-.41-1.84c0-3.78,2.48-6.72,4.93-6.72,2.2,0,4.16,2.33,4.16,6.66,0,2.86-1,4.61-2.06,5.26a5.78,5.78,0,0,1-2.71.85Zm-3.34-4.92a3.35,3.35,0,0,0,.16,1.3c.13.35.39.7.6.7.82,0,2.77-5,2.8-9.18C148.43,236.29,148.05,241.55,148.05,242.8Z"/><path d="M160,248.12a13.44,13.44,0,0,0,4.49-5.61,6,6,0,0,0-1.72-1.95,4.28,4.28,0,0,1,2.24.61,20.79,20.79,0,0,0,.87-3.44l-2.15.54a10.21,10.21,0,0,1-3.48,4.2l0-.05a18.47,18.47,0,0,0,2.92-6.79c0-.45-.3-.51-.56-.57a.91.91,0,0,1,.85-.61c.46,0,1.4.65,1.4,1.15,0,.16,0,.21-.26.62-.05.1-.32.8-.39,1a4.8,4.8,0,0,0,1.75-.38c.09-.08.43-.48.51-.48a3.18,3.18,0,0,1,1.24,1.65c0,.2,0,.24-.55.62a27.38,27.38,0,0,1-1.05,3.43,2.17,2.17,0,0,1,.59,1.52c0,.27-.06,1.15-.67,1.15-.3,0-.38-.14-.76-.88a9,9,0,0,1-5.24,4.32Zm8.34-11.9c0,.45-.19.72-.41.72s-.24-.08-.39-.44a4.73,4.73,0,0,0-1.37-1.76C167.3,234.66,168.38,235.09,168.38,236.22Zm.9-1.45c0,.38-.16.73-.4.73s-.19-.08-.53-.72a3.53,3.53,0,0,0-1.22-1.26C167.78,233.49,169.28,233.41,169.28,234.77Z"/><path d="M172.3,247.3a13.84,13.84,0,0,0,2.5-7.86c0-.3,0-1-.74-.94.43-.58.62-.8.92-.8a1.67,1.67,0,0,1,1.27,1.18,1,1,0,0,1-.13.45c-.3,3.66-1.22,6-3.82,8Zm10.3-10.23a16.14,16.14,0,0,1-3.63,7.75,3.12,3.12,0,0,0-.67,1c-.1.29-.14.41-.31.41s-1-1.69-1-2c0-.13.1-.69.12-.8.08-.56.08-2,.08-2.58s0-3.32-.09-3.74c-.16-.72-.5-.72-.69-.72.42-.59.57-.82.86-.82.6,0,1.28.95,1.28,1.33,0,.11-.19.56-.21.67-.12.43-.11,5.44-.09,5.49a16.15,16.15,0,0,0,4.36-6Z"/><path d="M190.8,247.72c.95-.42,3.38-1.48,3.38-6.45,0-2.31-.68-5.7-3.06-5.69a4.11,4.11,0,0,1,.51,1.88c0,1.61-1.13,9.25-3.31,9.25-.71,0-.81-.67-.95-1.47a5.56,5.56,0,0,0-.48-1.67,4,4,0,0,1-.41-1.84c0-3.78,2.48-6.72,4.92-6.72,2.21,0,4.16,2.33,4.16,6.66,0,2.86-1,4.61-2.06,5.26a5.71,5.71,0,0,1-2.7.85Zm-3.34-4.92a3.66,3.66,0,0,0,.15,1.3c.14.35.4.7.61.7.82,0,2.77-5,2.8-9.18C187.83,236.29,187.46,241.55,187.46,242.8Z"/><path d="M207.51,243.12l.5-1.2c.06-.14.09-.21.13-.21a6.32,6.32,0,0,1,1.12,1.49c0,.11-.07.11-.13.11h-2.75c.15.1.73.5.85.57s.13.08.13.12-.12.13-.32.16a10.52,10.52,0,0,1-.62,1.16c1.1.41,2.05,1.16,2.05,2s-.45,1.12-.84,1.12a.31.31,0,0,1-.3-.16,13.2,13.2,0,0,0-1.76-1.87,7.28,7.28,0,0,1-5.78,2.13v-.05c3-.93,4.11-2.16,4.65-2.85a5.28,5.28,0,0,0-1.53-.61c-.25.5-.55,1.14-.72,1.14a.39.39,0,0,1-.14-.05l-.83-.49a.23.23,0,0,1-.12-.2.32.32,0,0,1,.08-.22,20.62,20.62,0,0,0,.94-1.91h-2.37l-.05-.19h2.49c.28-.61.4-1,.68-1.74h-2.06l-.05-.19h3v-1.86h-4l-.05-.18h4v-1.71H200.9l-.05-.19h2.86V235.7H200l0-.18h3.75v-1.76a14.08,14.08,0,0,1,1.51.25c.05,0,.11.05.11.13s-.17.16-.29.21v1.17h2.2l.56-1.23c.06-.11.09-.18.14-.18a7,7,0,0,1,1.22,1.47c0,.12-.08.12-.14.12h-4v1.55h1.32l.45-.83c.06-.13.09-.2.14-.2a8.44,8.44,0,0,1,1,1.19.67.67,0,0,1,.17.38c0,.18,0,.21-.44.42v.94h.19l.48-1.07c.05-.13.08-.19.12-.19a6.81,6.81,0,0,1,.82,1.33c0,.11-.06.11-.12.11h-1.49v2.16c0,.27,0,.37-.23.4l-.85.1c-.19,0-.19-.08-.19-.29v-.32h-3c.89.57,1,.61,1,.67s0,.1-.33.11c-.09.26-.26.64-.39,1Zm-3.86.19c-.34.84-.5,1.21-.67,1.59a11.22,11.22,0,0,1,1.92.08,8.24,8.24,0,0,0,.77-1.67Zm1.39-5.87v1.71h1.41v-1.71Zm1.41,3.75v-1.86H205v1.86Z"/><path d="M216.76,245.62c0,1.33-.7,2.43-1.59,2.43s-1.58-1.1-1.58-2.43.72-2.43,1.58-2.43S216.76,244.26,216.76,245.62Zm-2.75,0c0,1,.52,1.79,1.16,1.79s1.17-.81,1.17-1.79-.52-1.79-1.17-1.79S214,244.61,214,245.62Z"/><path d="M33.52,268.78c0,1.25-.4,2.78-1.43,2.78-.6,0-.68-.8-.68-1,0-.49.18-.67.61-1.07a4.8,4.8,0,0,0,1.28-2.82A10.3,10.3,0,0,1,33.52,268.78Zm.32,1.31a4,4,0,0,0,.95.24c.24,0,.3-.21.33-.8s.08-3.23.08-5a7.92,7.92,0,0,0-2,.64s-.53.23-.58.23c-.41,0-1.06-.93-1.06-1.8a1.62,1.62,0,0,1,.17-.78,1.4,1.4,0,0,0,1.31.93,20,20,0,0,0,2.17-.27,17.2,17.2,0,0,0-.16-2.79.69.69,0,0,0-.73-.38c.21-.42.51-1,.94-1s1.16.56,1.16,1c0,.13-.18.62-.2.73s0,1.78,0,2.24c1.2-.25,1.69-.4,1.95-1a3.13,3.13,0,0,1,1.41.75.73.73,0,0,1,.25.58c0,.19-.07.72-.42.72l-.7-.13a5.17,5.17,0,0,0-.9-.12,10.65,10.65,0,0,0-1.59.2c0,2.85,0,3.65.06,4.93,0,.24.08,1.32.08,1.54,0,1-.46,2.24-1,2.24-.26,0-.29-.19-.41-.85a3.15,3.15,0,0,0-1-2ZM40,270c0,1.38-.73,1.41-.81,1.41-.46,0-.54-.56-.62-1.09a11,11,0,0,0-1.38-4.06C37.89,266.71,40,268,40,270Zm.46-9.86c0,1-.49,1.7-1.11,1.7s-1.1-.75-1.1-1.7.5-1.71,1.1-1.71S40.43,259.19,40.43,260.15Zm-1.83,0c0,.63.32,1.12.72,1.12s.73-.49.73-1.12-.33-1.14-.73-1.14S38.6,259.53,38.6,260.15Z"/><path d="M44.81,263.75A1.92,1.92,0,0,1,47,265.58c0,.62-.35,1.13-.72,1.13s-.4-.2-.72-1a4.39,4.39,0,0,0-1.39-1.88A3.73,3.73,0,0,1,44.81,263.75Zm7.81-1.84A16,16,0,0,1,47,271.55a5.07,5.07,0,0,0-1,.88c-.21.29-.23.32-.33.32-.33,0-1.32-1.55-1.32-2.53a1.58,1.58,0,0,1,.34-1c.12.59.21,1,.57,1a6.66,6.66,0,0,0,2.61-1.58,18.41,18.41,0,0,0,4.75-6.77ZM46,260a1.6,1.6,0,0,1,1.77,1.63c0,.72-.42,1.12-.74,1.12s-.31-.11-.78-1.09a3.16,3.16,0,0,0-1.36-1.53A4.69,4.69,0,0,1,46,260Zm5.65,1.38c0,.25-.09.68-.41.68s-.23-.08-.57-.75a5.7,5.7,0,0,0-.93-1.37C50.57,260,51.69,260.2,51.69,261.42Zm-.3-2.85a1.16,1.16,0,0,1,1.31,1.18c0,.32-.11.69-.36.69s-.3-.16-.62-.7a3.22,3.22,0,0,0-1.08-1.09A4.93,4.93,0,0,1,51.39,258.57Z"/><path d="M57,273.23a11.33,11.33,0,0,0,3.55-7.46,1.19,1.19,0,0,0-.17-.64,8,8,0,0,0-2.2.77c-.07,0-.59.33-.64.33-.34,0-1.14-1-1.14-1.63a1.34,1.34,0,0,1,.23-.69c.29.69.55.76.78.76s4.76-.72,5.17-.8a1.2,1.2,0,0,0,.95-.69c.17.12,1,.54,1.14.65a.82.82,0,0,1,.44.72c0,.18-.06.76-.41.76a7.47,7.47,0,0,1-1-.31,3.8,3.8,0,0,0-1-.11,7.77,7.77,0,0,0-.89.05c.16.09.43.27.43.46s-.1.29-.25.51c-.48,2.85-1.39,5.73-5,7.38Zm1.81-12.73a10.45,10.45,0,0,0,2.89-.59,1,1,0,0,0,.44-.53,11.52,11.52,0,0,1,1.11.69.61.61,0,0,1,.25.55c0,.68-.32.7-1.14.76-.45,0-2.52.34-2.88.42a4.19,4.19,0,0,1-.56.13c-.52,0-.93-1.36-1-1.75A1.14,1.14,0,0,0,58.83,260.5Z"/><path d="M68.78,270.36c2.44-2.3,4.52-6.86,4.52-7.57,0-.13,0-.32-.47-.67a1.37,1.37,0,0,1,.56-.21c.5,0,1.18.9,1.18,1.46,0,.16,0,.19-.2.37A20.81,20.81,0,0,0,73.12,266c.16.11.39.32.39.53a2.25,2.25,0,0,1-.05.35,5.53,5.53,0,0,0-.09,1.39c0,.65.12,3.65.12,4,0,.69-.3,1-.47,1-.51,0-.66-1.24-.66-1.48s.11-1,.12-1.13c.08-1.59,0-3.48,0-3.64a10.4,10.4,0,0,1-3.73,3.49Z"/><path d="M79.07,273.17c2.92-2.15,4.66-4.68,5.42-10.57a22.17,22.17,0,0,0-3.69,1c-.11.05-.55.45-.65.45-.3,0-1-1.27-1-2a1.58,1.58,0,0,1,.26-.85c.44.83.82.83,1,.83a20.34,20.34,0,0,0,3.93-.56c.11-.06.17-.13.4-.41.09-.12.15-.13.2-.13.26,0,.91.78,1.25,1.25a.94.94,0,0,1,.22.57c0,.39-.45.79-.51.85-.77,3.44-1.81,8-6.79,9.57Zm7.4-12.49c0,.42-.16.77-.43.77s-.28-.1-.5-.88a5.67,5.67,0,0,0-.82-1.78C86.19,259.16,86.47,260.1,86.47,260.68Zm1.21-.67c0,.49-.21.73-.4.73s-.2-.06-.42-.67a5.58,5.58,0,0,0-1.06-1.79C87.19,258.44,87.68,259.21,87.68,260Z"/><path d="M92.3,267.64a7.79,7.79,0,0,1,.59,2.8c0,1.17-.46,2.05-1,2.05-.42,0-.8-.49-.8-1.09a.94.94,0,0,1,.2-.62,6.1,6.1,0,0,0,1-3.14Zm5.8-7.81.32-.77c.15-.38.17-.43.26-.43A10.48,10.48,0,0,1,100,260.2a.38.38,0,0,1,0,.1c0,.22-.29.38-.43.44v5.43c0,.3,0,.34-.25.35l-.87.1c-.19,0-.19-.05-.19-.32v-.69H93.56v.69c0,.32,0,.38-.22.4l-.92.09c-.16,0-.16-.06-.16-.32v-7.25a9.1,9.1,0,0,1,1.4.61Zm-4.54.19v2.55h1.65V260Zm0,2.74v2.66h1.65v-2.66Zm1.24,8c0,.39,0,.53.09.58a5.85,5.85,0,0,0,1.29.11c1,0,1.1-.05,1.32-.54a13.29,13.29,0,0,0,.65-2.13h0c0,.77-.06,1.22-.06,1.54a1.15,1.15,0,0,0,.19.82.86.86,0,0,1,.38.83,1.27,1.27,0,0,1-.48,1.09c-.22.16-.53.24-2.25.24-2.36,0-2.39-.15-2.39-1.36v-4.77c.67.14,1,.22,1.45.33.1,0,.16.1.16.16s-.29.2-.38.21Zm.43-4.43a2.86,2.86,0,0,1,1.94,2.46c0,.88-.53,1.24-.83,1.24s-.41-.31-.43-.5a12,12,0,0,0-.69-3.17ZM96.48,260v2.55h1.76V260Zm0,2.74v2.66h1.76v-2.66Zm1.86,4.83c.88.52,2.31,1.59,2.31,3.17,0,1-.42,1.35-.85,1.35s-.46-.26-.49-.47a14.79,14.79,0,0,0-1-4Z"/><path d="M109.37,261l.43-1.12c.07-.13.09-.19.12-.19a7.28,7.28,0,0,1,.88,1.25c.28-.69.45-1.09.68-1.7a6.8,6.8,0,0,1,1.52,1.35c0,.09-.1.11-.15.11a.92.92,0,0,1-.28-.05,22.46,22.46,0,0,1-1.58,3h1.21l.62-1.35c.08-.17.08-.19.13-.19a9.31,9.31,0,0,1,1.21,1.6c0,.13-.07.13-.13.13h-3.15a20,20,0,0,1-2.41,3.17l0,.11a11.21,11.21,0,0,0,3.45-2.64,9.83,9.83,0,0,1,1.3,2c0,.08,0,.1-.09.1a.69.69,0,0,1-.31-.15,17.29,17.29,0,0,1-4.37.87l-.1.89h3l.4-.78c0-.08.14-.26.21-.26a5.53,5.53,0,0,1,1.22,1.75c0,.09,0,.19-.51.4-.61,3.71-1.34,4.29-2.7,4.29-.11,0-.27,0-.27-.21s.05-.67.05-.79c0-.89-1-1.42-1.08-1.48v-.07a9.47,9.47,0,0,0,1.7.27c.29,0,.52-.24.66-.68a11.49,11.49,0,0,0,.4-2.25h-3.13l-.24,2c0,.23,0,.35-.21.34l-.93-.07c-.12,0-.24,0-.21-.27l.25-2a11.88,11.88,0,0,1-2.53,1.57v-.05a20.6,20.6,0,0,0,2.72-3l.15-1.2c.09.05.51.2.59.23.52-.71,1.08-1.59,1.4-2.1H104.6l0-.19h3.27v-2.47H105.5l0-.19h2.37v-2.26c.23.05,1.24.2,1.45.23s.18.06.18.13,0,.13-.31.22V261Zm-.23.19v2.47h.27a23.1,23.1,0,0,0,1.28-2.47Z"/><path d="M122.69,272.72c1-.42,3.38-1.48,3.38-6.45,0-2.31-.67-5.7-3.06-5.69a4.11,4.11,0,0,1,.51,1.88c0,1.61-1.13,9.25-3.31,9.25-.71,0-.81-.67-.94-1.47a5.86,5.86,0,0,0-.49-1.67,4,4,0,0,1-.41-1.84c0-3.78,2.48-6.72,4.92-6.72,2.21,0,4.17,2.33,4.17,6.66,0,2.86-1,4.61-2.06,5.26a5.78,5.78,0,0,1-2.71.85Zm-3.34-4.92a3.66,3.66,0,0,0,.15,1.3c.14.35.4.7.61.7.82,0,2.77-5,2.8-9.18C119.72,261.29,119.35,266.55,119.35,267.8Z"/><path d="M131.62,262.82l0-.19h1.5v-3.89c.19,0,1.67.13,1.67.37s0,.11-.39.23v3.29h.16l.56-1.31c.08-.18.09-.19.13-.19s.27.33.36.48H137v-2.88c.19,0,1.59.14,1.59.35s0,.11-.29.21v2.32h.72l.53-1.23c0-.07.09-.2.14-.2a9.36,9.36,0,0,1,1.16,1.49c0,.11-.07.11-.13.11h-2.42v2.82h1.14l.55-1.21c0-.09.08-.2.13-.2a8.49,8.49,0,0,1,1.17,1.48c0,.12-.07.12-.14.12h-1.54V267h.11l.48-1.2c0-.08.07-.19.12-.19a5.6,5.6,0,0,1,.87,1.47c0,.11-.08.11-.14.11h-1.44v4.65c0,.76,0,1.74-1.53,1.74-.2,0-.27-.06-.27-.3v-.61a1.43,1.43,0,0,0-1-1.43v-.06c.19,0,1,.08,1.16.08.32,0,.32-.06.32-.53v-3.54h-3.5l-.06-.19h3.56v-2.21h-3.5l-.06-.19H137v-2.82h-1.36c0,.05.51.9.51.93s-.06.11-.14.11h-1.69v2.74l1.46-.4v.07a19.94,19.94,0,0,1-1.46,1.4v4.85a4.57,4.57,0,0,1-.11,1.43c-.2.64-1.14.64-1.24.64s-.32,0-.32-.22,0-.44,0-.52a1.45,1.45,0,0,0-1-1.52v-.06l1.11.11c.25,0,.25-.11.25-.62v-3c-.46.38-.72.59-1.09.85-.31-1.2-.34-1.35-.54-2.26l1.63-.43v-3.08Zm3.86,4.57a2.71,2.71,0,0,1,2.08,2.29,1.1,1.1,0,0,1-.93,1.23c-.25,0-.3-.13-.33-.43a8.45,8.45,0,0,0-.83-3Z"/><path d="M149.56,261a2,2,0,0,0,1,.28c.3,0,.68,0,.68.76a1,1,0,0,1-.68,1,14.65,14.65,0,0,1-2.42,1c-.21,1.38-.48,2.67-.79,4,1.18-1.48,1.91-1.7,2.41-1.7,1.09,0,2.39,1.2,2.39,3.7s-1.35,3.5-5.58,3.34v-.06c4-.51,4.27-2.47,4.27-3.87,0-1.24-.45-2.47-1.29-2.47s-1.54,1.23-2.29,2.88c-.08.18-.38,1-.47,1.11a.73.73,0,0,1-.59.4c-.69,0-.69-1.62-.69-1.68a1.34,1.34,0,0,1,.32-.87,17,17,0,0,0,1.32-4.59c-.35,0-.45.06-.55.06-.32,0-1.12,0-1.12-1.52a5.58,5.58,0,0,1,.1-1.06c.23.88.4,1,1.13,1a2.4,2.4,0,0,0,.67-.08,21.64,21.64,0,0,0,.22-2.39c0-.57-.16-.64-.46-.72.11-.24.31-.65.67-.65a1.35,1.35,0,0,1,1.11,1.29c0,.2,0,.23-.18.58a7.09,7.09,0,0,0-.3,1.49c.13-.07,1.16-.58,1.16-1.06a.32.32,0,0,0,0-.16Z"/><path d="M161.59,262.49v4.67h1.32l.55-1.33c.07-.17.07-.2.12-.2a10.2,10.2,0,0,1,1.25,1.61c0,.11-.07.11-.13.11h-3.11v5.58h2.12l.67-1.37c.1-.19.11-.2.14-.2a10.87,10.87,0,0,1,1.24,1.63c0,.11-.07.11-.14.11h-9.46l0-.17h4.13v-5.58h-3.16l0-.19h3.2v-4.67H156.6l0-.18h6.86l.64-1.42c.09-.18.1-.21.14-.21a10.47,10.47,0,0,1,1.24,1.7c0,.11-.07.11-.13.11Zm-2.84-4c.48.05,3,.29,3,2.32,0,1-.54,1.42-1,1.42-.22,0-.24-.08-.45-.81a7.14,7.14,0,0,0-1.57-2.88Z"/><path d="M170.73,261.59a15.56,15.56,0,0,0,1.5-.43c1.24-.35,2.47-.64,3.72-.88.35-.06.36-.08.78-.38a.24.24,0,0,1,.16-.08c.15,0,1.42.52,1.42,1.45,0,.31-.14.72-.47.72a1.62,1.62,0,0,1-.6-.16,3.43,3.43,0,0,0-1-.16,2,2,0,0,0-1.85,1.52,14.89,14.89,0,0,0-.62,4.52c0,2.8.87,3.12,2,3.52a1,1,0,0,1,.76,1.07c0,.82-.25,1.11-.59,1.11a3.16,3.16,0,0,1-1.34-.44c-1.19-.67-1.77-1.84-1.77-4.48,0-2.83.79-5.49,2-6.64a8.73,8.73,0,0,0-3.09,1.33c-.45.3-.53.33-.7.33-.67,0-1.11-.91-1.11-1.84a2.39,2.39,0,0,1,.15-.93C170.14,261.14,170.26,261.59,170.73,261.59Zm6.89,4.58c0,.4-.17.75-.41.75s-.32-.19-.53-.8a4,4,0,0,0-1-1.55A1.82,1.82,0,0,1,177.62,266.17Zm-.5-3.15c1,0,1.56.57,1.56,1.32,0,.45-.25.69-.41.69s-.2-.06-.51-.65a3,3,0,0,0-1.25-1.3A4.34,4.34,0,0,1,177.12,263Z"/><path d="M182.69,269.29a3.45,3.45,0,0,1,2.29.85,2.38,2.38,0,0,1,.65,1.66c0,.74-.3,1.25-.76,1.25s-.72-.65-.76-.85a4.65,4.65,0,0,0-1.49-2.78Z"/><path d="M193.63,273.13c0,.32,0,.4-.22.42l-.78.08c-.21,0-.22,0-.22-.37v-4.21a17.11,17.11,0,0,1-1.71,3.68c0-.11.11-.73.15-1.05.13-1.08.28-2.42.31-3.4.53.15,1,.27,1.25.34v-1.55c-.77.54-1.06.72-1.32.88-.16-.82-.22-1.32-.33-2.28l1.15,0a37.13,37.13,0,0,0,1.77-4.61,10.19,10.19,0,0,1,1.47,1c0,.14-.12.13-.3.11a16.46,16.46,0,0,1-2.74,3.49l1.84-.08a4.21,4.21,0,0,0-.31-1.44v0a3.06,3.06,0,0,1,1.43,2.29c0,.6-.26,1.15-.69,1.15-.17,0-.38-.07-.38-.45a10.57,10.57,0,0,0,0-1.23l-.34.3v1.35a3.56,3.56,0,0,1,1.45,2.53c0,.7-.33,1.18-.75,1.18s-.32-.16-.33-.77a8.29,8.29,0,0,0-.37-2.83Zm-2.78-12a2.85,2.85,0,0,1,1.09.71,29.18,29.18,0,0,0,.53-3.08c1.51.6,1.62.64,1.62.77s-.21.16-.32.15a16.35,16.35,0,0,1-1.68,2.32,1.92,1.92,0,0,1,.53,1.28c0,.73-.44,1.18-.81,1.18-.21,0-.23-.14-.3-.59a10.5,10.5,0,0,0-.67-2.69Zm7.79-1.07.4-.78c.06-.13.09-.18.14-.18a7.75,7.75,0,0,1,1.11,1.31.49.49,0,0,1,.11.27c0,.2-.27.36-.42.39v11.89c0,.34,0,.4-.19.42l-.81.08c-.24,0-.24-.07-.24-.35v-1.16h-2.37V273c0,.26,0,.34-.22.37l-.78.09c-.16,0-.21-.06-.21-.33V259.58c.49.14.61.19,1.34.46Zm-2.27.19v5.59h.6v-5.59Zm0,5.76v5.75h.6V266Zm2.37-.17v-5.59h-.62v5.59Zm0,5.92V266h-.62v5.75Z"/><path d="M206.55,270.16c.21.3.67.84,1,.84,1.34,0,1.77-4.4,1.77-6,0-.4,0-1.43-.58-1.43-.17,0-.42.18-1,.56a67.23,67.23,0,0,1-2.17,8.25c-.2.38-.4.57-.66.57s-.54-.65-.54-1.73c0-.25,0-.28.23-.54a11.28,11.28,0,0,0,.95-2.26c.39-1.2.55-1.82.94-3.42a2.72,2.72,0,0,1-1.17.51c-.42,0-.77-.53-.77-1.15a3.92,3.92,0,0,1,.49-1.59c0,.68,0,1,.45,1a4.78,4.78,0,0,0,1.37-.28,27.67,27.67,0,0,0,.59-3.29c0-.38-.2-.46-.29-.46a.26.26,0,0,0-.13,0c0-.82.57-.86.79-.86a1,1,0,0,1,.94,1,3.82,3.82,0,0,1-.23.94c-.11.44-.27,1.08-.55,2.26a3,3,0,0,1,.66-.13c.25,0,1.72.15,1.72,3.4,0,2.16-.8,6.64-2.51,6.64a1,1,0,0,1-1-.91,7,7,0,0,0-.4-1.89Zm4.9-7.51c1.38,0,2,1.52,2,2.9,0,1.64-.72,1.84-.88,1.84-.5,0-.5-.77-.5-1,0-2.18-.12-3.44-1.42-3.64A3.88,3.88,0,0,1,211.45,262.65Z"/><path d="M220.56,266.12a36,36,0,0,0-.56,4.23,2.77,2.77,0,0,0,.18,1,1.62,1.62,0,0,1,.18.65.8.8,0,0,1-.72.87c-.8,0-1.92-1.52-1.92-5.49,0-1,0-1.33.29-4.53,0-.27.12-1.33.12-1.95a6.83,6.83,0,0,0-.17-1.57,4.79,4.79,0,0,1,1.51,3.39,4.35,4.35,0,0,1-.17,1.22,13.36,13.36,0,0,0-.56,3.74c0,1.24.18,2,.38,2s.31-.39.34-.47c.18-.48.88-2.54,1.07-3.14Zm2.72-2.78c1.39,0,2.91,1.25,2.91,4.06,0,.24,0,2-.85,2-.47,0-.71-.5-.72-1.06a8,8,0,0,0-.66-3.78,2.18,2.18,0,0,0-1.09-1.17Z"/><path d="M230.93,267.72c0,2.45,1.11,2.6,2.83,2.6a4.36,4.36,0,0,0,2.05-.37,1.26,1.26,0,0,1,.46-.15c.2,0,1,.4,1,1.06,0,1-.66,1.54-2.93,1.54-1.55,0-3.63-.12-3.63-3.28A12.6,12.6,0,0,1,231,267C230.94,267.37,230.93,267.5,230.93,267.72Zm1.48-4.38a12,12,0,0,1,1.27-1.36c-.24,0-.37,0-.56,0-1.21,0-1.47-.83-1.68-2.51a1.13,1.13,0,0,0,1.13.84,8.32,8.32,0,0,0,2.1-.49,2.45,2.45,0,0,1,.83-.21c.82,0,.94.9.94,1.26,0,.82-.42.87-1.31,1a5.63,5.63,0,0,0-2.72,1.49Z"/><path d="M243.5,259a1.33,1.33,0,0,1,1.19,1.44c0,.13-.08,1-.1,1.21,0,.44-.11,1.25-.11,2s0,1.42.53,1.42c.66,0,1.28-1.06,1.45-1.71.08-.31.11-.47.34-.47.49,0,1.12,1,1.12,1.51s-.14.73-1.48,1.29a9.49,9.49,0,0,0-2.57,1.25,3.6,3.6,0,0,0-1.27,2.61,1.46,1.46,0,0,0,1.69,1.54,5,5,0,0,0,1.93-.42,5.63,5.63,0,0,1,.59-.24,1.73,1.73,0,0,1,1.19,1.35c0,.62-.35.76-.48.81a6.59,6.59,0,0,1-2.37.24c-1.8,0-2.25-.25-2.6-.57a2.74,2.74,0,0,1-.77-2.05,5.31,5.31,0,0,1,2.13-4.1c-.31-.19-.57-.35-.57-1.71,0-.34,0-1.78,0-2.08,0-1.38,0-2.52-.57-2.52a.59.59,0,0,0-.35.15A1.13,1.13,0,0,1,243.5,259Z"/><path d="M255.12,266.46a28.57,28.57,0,0,0-.54,4.21,3.24,3.24,0,0,0,.22,1.18,2.38,2.38,0,0,1,.07.47.65.65,0,0,1-.63.69c-1.16,0-1.27-3.33-1.27-4.86a35.7,35.7,0,0,1,.61-6.16,12.72,12.72,0,0,0,.22-2,6.88,6.88,0,0,0-.06-.88,4.87,4.87,0,0,1,1.14,2.74,5.19,5.19,0,0,1-.26,1.4,18.5,18.5,0,0,0-.68,5c0,.56.08.64.18.64s.13-.06.24-.37l.72-2Zm4.62-4.48a1.33,1.33,0,0,0,.8.28.51.51,0,0,1,.4.56c0,1.06-1.39,1.59-1.7,1.7.07,2.4.17,3.54.24,4.26a2.69,2.69,0,0,1,1.78,2.35c0,.53-.27.9-.56.9s-.29-.11-.67-.67a3.08,3.08,0,0,0-.5-.64c.09,2-1.16,2.11-1.55,2.11-.21,0-1.72-.11-1.94-1.3,0-.19-.22-1.25-.22-1.49,0-1.63,1.66-1.63,2.13-1.63.25,0,.38,0,.53,0-.05-1.41-.08-2.48-.1-3.66a3.73,3.73,0,0,1-.5.05c-1.07,0-1.42-1.14-1.69-2.05a1.47,1.47,0,0,0,1.2.62,2.93,2.93,0,0,0,1-.22c0-.42,0-2.64-.06-2.82a.54.54,0,0,0-.46-.42c.14-.38.37-.7.7-.7a1.26,1.26,0,0,1,1,1.12c0,.13-.07.66-.09.8a11.94,11.94,0,0,0-.18,1.57c.31-.21.51-.35.51-.56a.4.4,0,0,0,0-.15Zm-2.22,7.84c-.21,0-1.06,0-1.06.66s.41.72.77.72c.9,0,1.26-.34,1.25-1.25A4.55,4.55,0,0,0,257.52,269.82Z"/><path d="M272.8,260.82l.58-1.32c.06-.15.08-.2.12-.2a10.44,10.44,0,0,1,1.28,1.6c0,.12-.06.12-.13.12h-6.76a12.49,12.49,0,0,1-2.66,4l0,0a25.33,25.33,0,0,0,1.81-6.24l1.63.61c.11,0,.15.06.15.14s-.28.21-.37.21a12,12,0,0,1-.45,1.13Zm-7.48,12.78A23.62,23.62,0,0,0,268,269a18.26,18.26,0,0,0-2.18-2.78v0a20.53,20.53,0,0,1,2.68,1.64,20.68,20.68,0,0,0,.92-2.8c.59.46,1.12.92,1.34,1.12a.28.28,0,0,1,.12.2c0,.1-.06.12-.09.12a1.09,1.09,0,0,1-.24-.07,18,18,0,0,1-1,2.36A5,5,0,0,1,271,271.9c0,1.17-.63,1.39-.79,1.39s-.26-.14-.37-.45a17.46,17.46,0,0,0-1.18-2.73,11,11,0,0,1-3.36,3.52Zm.53-8.82-.05-.19h5.83l.36-.82c.05-.11.1-.21.18-.21s.17.08.42.39a5.59,5.59,0,0,1,.85,1.23c0,.24-.32.4-.43.45a14.5,14.5,0,0,0,.32,4.16c.14.48.4,1,.55,1s.58-1,1-2h0c-.05.4-.28,2-.28,2.37a1.32,1.32,0,0,0,.15.68,1.42,1.42,0,0,1,.21.74c0,.47-.22,1.1-.69,1.1s-1.23-.57-1.81-2.12a20.44,20.44,0,0,1-.71-6.41v-.33Zm6.48-2.13.56-1.11c.07-.14.08-.2.12-.2a8,8,0,0,1,1.12,1.39c0,.11-.08.11-.14.11h-6.47l0-.19Z"/><path d="M281.46,266.12c-.06.31-.33,1.65-.36,1.86a11.65,11.65,0,0,0-.21,2,4.69,4.69,0,0,0,.15,1.3,3.69,3.69,0,0,1,.16.89c0,.34-.28.82-.56.82-.66,0-1.17-1.9-1.17-4.58a53.44,53.44,0,0,1,.5-6.08,16.3,16.3,0,0,0,.09-1.73,4.3,4.3,0,0,0-.23-1.5,5.67,5.67,0,0,1,1.27,3.42,19.93,19.93,0,0,1-.5,3.36,12.54,12.54,0,0,0-.24,2.4c0,.44,0,.57.08.57s.21-.42.28-.61l.71-2.18Zm1.81,2.79c0,1.53.85,1.53,1.15,1.53a5.78,5.78,0,0,0,1.84-.4,2.37,2.37,0,0,1,.75-.19c.28,0,.66.16.66.88a1.37,1.37,0,0,1-.51,1.17,3.41,3.41,0,0,1-2,.58,1.81,1.81,0,0,1-1.78-.92,3.43,3.43,0,0,1-.48-1.74,4.1,4.1,0,0,1,.44-1.79A4.76,4.76,0,0,0,283.27,268.91Zm1.08-7.83a2.33,2.33,0,0,0,.95-.32c.83-.48.86-.5,1-.5a1,1,0,0,1,.84,1c0,1.17-1.64,1.32-2,1.32s-1.16,0-1.54-2.05C283.8,260.86,284,261.08,284.35,261.08Z"/><path d="M299,265.9c-.31,4.59-1.61,7-4.1,7-1.92,0-2.16-1.9-2.16-4.94,0-1.09.19-5.81.19-6.77,0-.52-.05-.87-.79-.85.19-.4.44-.93,1.14-.93a1.11,1.11,0,0,1,1.1,1c0,.23-.23,1.19-.25,1.38-.14,1.2-.32,4.61-.32,7,0,1.13,0,2.16,1.19,2.16,1.92,0,3.15-2.07,4-5.09Z"/><path d="M306.85,260.25a.55.55,0,0,0,.3.11l.4-.05c.34,0,.52.47.52.77,0,.7-1.32,1.6-2,2-.15.58-.38,1.54-.49,2,.72-1.15,2-3,3.8-3a2.31,2.31,0,0,1,2,2c0,.4-.22,1.09-.62,1.09-.18,0-.35-.16-.65-.46a1,1,0,0,0-.78-.39c-.62,0-.84.48-.84,1.25,0,.5.11,1.78.35,3.73a3.05,3.05,0,0,1,2.05,2.43c0,.31-.1,1.19-.6,1.19-.22,0-.27-.08-.77-.85a3.12,3.12,0,0,0-.57-.69c0,.86-.11,2-1.44,2-.51,0-2-.1-2-2.17s1.55-2.16,2.22-2.14c0-.5,0-1.1,0-1.65,0-2.72,1.17-3.22,1.41-3.31.45-.19.58-.24.58-.51a1.18,1.18,0,0,0-1.19-.84c-.2,0-1.67.08-2.89,3a34.78,34.78,0,0,0-1.42,4.4c-.12.4-.43.74-.67.74s-.54-.77-.54-1.6c0-.26,0-.3.29-.75a16.65,16.65,0,0,0,1.7-4.92,2.41,2.41,0,0,1-.85.2c-1.05,0-1.17-1.93-1.21-2.6.27.61.51.88,1.07.88a3,3,0,0,0,1.33-.37,11.09,11.09,0,0,0,.19-1.84c0-.46-.13-.68-.65-.72.3-.3.52-.54.87-.54s.9.3.9,1.22a6.73,6.73,0,0,1-.15,1.29c.22-.14.53-.35.53-.54s-.06-.18-.17-.27Zm.09,10.21c-.24,0-.88,0-.88.53s.76.8.95.8c.81,0,.8-.75.79-1.27A6.33,6.33,0,0,0,306.94,270.46Z"/><path d="M318.52,266.12a34,34,0,0,0-.56,4.23,2.93,2.93,0,0,0,.17,1c.17.43.19.48.19.65a.8.8,0,0,1-.73.87c-.8,0-1.91-1.52-1.91-5.49,0-1,0-1.33.29-4.53,0-.27.11-1.33.11-1.95a7,7,0,0,0-.16-1.57,4.79,4.79,0,0,1,1.51,3.39,4.35,4.35,0,0,1-.17,1.22,13.36,13.36,0,0,0-.56,3.74c0,1.24.18,2,.37,2s.32-.39.35-.47c.17-.48.88-2.54,1.07-3.14Zm2.72-2.78c1.39,0,2.91,1.25,2.91,4.06,0,.24,0,2-.85,2-.47,0-.71-.5-.72-1.06a7.89,7.89,0,0,0-.67-3.78,2.15,2.15,0,0,0-1.08-1.17Z"/><path d="M331.8,270.62c0,1.33-.7,2.43-1.58,2.43s-1.58-1.1-1.58-2.43.72-2.43,1.58-2.43S331.8,269.26,331.8,270.62Zm-2.75,0c0,1,.52,1.79,1.17,1.79s1.16-.81,1.16-1.79-.52-1.79-1.16-1.79S329.05,269.61,329.05,270.62Z"/><line class="cls-1" x1="16.79" y1="20.97" x2="16.79" y2="321.36"/><path d="M16.79,12.84a4.07,4.07,0,1,1-4.07,4.07A4.07,4.07,0,0,1,16.79,12.84Z"/><path class="cls-1" d="M16.79,11a5.94,5.94,0,1,1-5.95,5.94A5.94,5.94,0,0,1,16.79,11Z"/><polygon class="cls-1" points="16.79 4.66 22.09 13.86 27.4 23.02 16.79 23.02 6.17 23.02 11.48 13.86 16.79 4.66"/><path d="M8.07,75.85c0,1.7,0,2.11.23,2.11a.64.64,0,0,0,.42-.14,1.08,1.08,0,0,1,0,.77A4.62,4.62,0,0,0,7,79.24c-.07,0-.14-.11-.16-.25l0-.56c0-.14,0-.2-.09-.14-.34.39-.69.77-1.06.77-1.11,0-1.86-1.6-1.86-3.55,0-2.54,1-4.16,2.32-4.16a1.59,1.59,0,0,1,.56.09.45.45,0,0,0,.1-.34V68.8c0-.72,0-.92-.2-1.14l-.17-.18a.77.77,0,0,1,0-.54,7.31,7.31,0,0,0,1.5-1c.07,0,.12,0,.16.13,0,.74,0,1.49,0,2.63ZM6.81,73.46a2.15,2.15,0,0,0-.07-.61c-.12-.38-.33-.67-.56-.67-.49,0-1,1-1,2.85,0,1.19.29,2.82,1.09,2.82a.55.55,0,0,0,.4-.21A1.13,1.13,0,0,0,6.81,77Z"/><path d="M5.28,250c-.22,0-.24,0-.24.32,0,1.36.47,2.67,1.38,2.67.27,0,.64-.11.9-.94.11,0,.26.11.26.42-.4,1.53-1.13,2.05-1.71,2.05-1.32,0-2-1.71-2-3.67,0-2.27.89-4,2.11-4,1,0,1.56,1.21,1.56,2.6,0,.34,0,.59-.35.59Zm.65-.79a.54.54,0,0,0,.4-.16.86.86,0,0,0,.07-.42c0-.59-.19-1-.52-1s-.76.72-.76,1.3c0,.25.14.27.45.27Z"/><line class="cls-2" x1="19.84" y1="44.21" x2="13.32" y2="44.21"/><line class="cls-2" x1="19.84" y1="75.44" x2="13.32" y2="75.44"/><line class="cls-2" x1="19.84" y1="110.63" x2="13.32" y2="110.63"/><line class="cls-2" x1="19.84" y1="145.81" x2="13.32" y2="145.81"/><line class="cls-2" x1="19.84" y1="180.99" x2="13.32" y2="180.99"/><line class="cls-2" x1="19.84" y1="216.17" x2="13.32" y2="216.17"/><line class="cls-2" x1="19.84" y1="251.35" x2="13.32" y2="251.35"/><line class="cls-2" x1="19.84" y1="251.35" x2="13.32" y2="251.35"/><line class="cls-2" x1="19.84" y1="251.35" x2="13.32" y2="251.35"/><line class="cls-2" x1="19.82" y1="286.17" x2="13.3" y2="286.17"/><line class="cls-2" x1="19.82" y1="321.35" x2="13.3" y2="321.35"/><line class="cls-3" x1="94.11" y1="321.36" x2="31.47" y2="321.36"/><line class="cls-3" x1="102.38" y1="41.31" x2="32.6" y2="41.31"/><circle cx="7.53" cy="44.21" r="1.68"/><path d="M34.79,308.93l-.26,1.77h.57l-.07.77h-.61l-.33,2.18H33.7l.31-2.18h-.63l-.32,2.18h-.39l.31-2.18h-.63l.07-.77h.68l.25-1.77h-.64l.07-.78h.68l.28-1.95h.42l-.29,1.95h.62l.28-1.95h.42l-.29,1.95h.59l-.06.78Zm-1,0-.26,1.77h.63l.26-1.77Z"/><path d="M40.75,309.93c0,1.93-.45,3.92-1.5,3.92s-1.5-2-1.5-3.92.45-3.92,1.5-3.92S40.75,308.07,40.75,309.93Zm-1.5,3.37c.5,0,.55-2.3.55-3.37s0-3.37-.55-3.37-.55,2.3-.55,3.37S38.76,313.3,39.25,313.3Z"/><path d="M44.74,310.58a1.18,1.18,0,0,1,.09.5,1.16,1.16,0,0,1-.09.47l-1.56.26a1.07,1.07,0,0,1-.09-.48,1.22,1.22,0,0,1,.09-.49Z"/><path d="M48.41,309.53c-.09,0-.09,0-.09.28v1.8c0,.67,0,1.41.45,1.41a.43.43,0,0,0,.28-.18.38.38,0,0,1,.09.32,1.16,1.16,0,0,1-.94.69c-.54,0-.73-.57-.73-1.37v-2.67c0-.25,0-.28-.12-.28h-.2c-.07,0-.09-.28,0-.37a2.76,2.76,0,0,0,.54-.54,3.31,3.31,0,0,0,.48-.93.12.12,0,0,1,.19.06v.9c0,.22,0,.24.13.24H49a.4.4,0,0,1,0,.22.75.75,0,0,1-.09.42Z"/><path d="M53.43,312c0,.82.17,1,.3,1s.14,0,.24-.14.1.17.08.27-.38.65-.75.65-.37-.14-.55-.42c0-.07-.07-.09-.1-.09s-.07,0-.14.13-.31.38-.55.38-.73-.42-.73-1.26a1.26,1.26,0,0,1,.68-1.25c.24-.14.43-.23.61-.33a.25.25,0,0,0,.15-.24c0-.13,0-.26,0-.41,0-.45-.1-1-.38-1s-.29.17-.34.68a.7.7,0,0,1-.11.39.82.82,0,0,1-.47.27c-.11,0-.15-.13-.15-.3a1.82,1.82,0,0,1,.32-.92,1.51,1.51,0,0,1,1.09-.73c.54,0,.86.5.83,1.74Zm-.78-.31c0-.19,0-.23,0-.22-.29.08-.55.28-.55.84,0,.39.15.72.33.72s.24-.21.25-.59Z"/><path d="M56.35,307c0-.48,0-.62-.13-.76l-.11-.12a.45.45,0,0,1,0-.36,6.18,6.18,0,0,0,1-.67.12.12,0,0,1,.11.08c0,.49,0,1,0,1.75v3.77c0,.13,0,.17.09.17s.25-.06.38-.34l.27-.59a1.22,1.22,0,0,0,.16-.48c0-.06-.07-.1-.13-.12l-.16,0c-.06-.11,0-.38,0-.42H58a5.18,5.18,0,0,0,1.23-.17.59.59,0,0,1,0,.42l-.21.08a1.09,1.09,0,0,0-.44.42,5.1,5.1,0,0,0-.43.7.27.27,0,0,0,0,.15.8.8,0,0,0,0,.21c.12.38.69,2,.85,2.29a.68.68,0,0,0,.39.27l.1,0a.55.55,0,0,1,0,.42,7.61,7.61,0,0,0-.82,0,6.9,6.9,0,0,0-.8,0,.54.54,0,0,1,0-.42l.09,0c.06,0,.1,0,.1-.09a2.51,2.51,0,0,0-.11-.39l-.46-1.29c0-.13-.1-.18-.16-.18s-.08.06-.08.29v.69c0,.84,0,.94.25,1l.11,0a.56.56,0,0,1,0,.42c-.21,0-.48,0-.78,0s-.56,0-.79,0a.56.56,0,0,1,0-.42l.13,0c.23,0,.26-.15.26-1Z"/><path d="M62.43,310.84c-.15,0-.16,0-.16.22,0,.9.31,1.77.91,1.77.19,0,.43-.07.61-.62.07,0,.17.07.17.27-.27,1-.75,1.37-1.14,1.37-.88,0-1.35-1.14-1.35-2.44,0-1.52.59-2.69,1.4-2.69s1,.8,1,1.73c0,.22,0,.39-.23.39Zm.43-.53a.37.37,0,0,0,.27-.1.63.63,0,0,0,0-.28c0-.4-.12-.66-.34-.66s-.51.48-.51.86c0,.17.09.18.3.18Z"/><path d="M72.64,309.93c0,1.93-.45,3.92-1.5,3.92s-1.5-2-1.5-3.92.45-3.92,1.5-3.92S72.64,308.07,72.64,309.93Zm-1.5,3.37c.49,0,.55-2.3.55-3.37s-.06-3.37-.55-3.37-.55,2.3-.55,3.37S70.65,313.3,71.14,313.3Z"/><path d="M76.92,312.14c0,1,0,1.08.36,1.12l.27,0a.51.51,0,0,1,0,.42c-.24,0-.63,0-1,0s-.82,0-1.05,0c-.07,0-.08-.35,0-.42l.27,0c.32,0,.36-.16.36-1.12v-3.92c0-.8,0-1-.32-1.05l-.29-.07a.55.55,0,0,1,0-.42,3.92,3.92,0,0,0,.83-.34c.29-.15.54-.38.58-.38s.08,0,.09.13c0,.28,0,.83,0,1.43Z"/><path d="M82.25,312.14c0,1,0,1.08.36,1.12l.27,0a.51.51,0,0,1,0,.42c-.24,0-.63,0-1,0s-.82,0-1,0c-.07,0-.08-.35,0-.42l.27,0c.32,0,.36-.16.36-1.12v-3.92c0-.8,0-1-.32-1.05l-.29-.07a.55.55,0,0,1,0-.42,3.92,3.92,0,0,0,.83-.34c.29-.15.54-.38.58-.38s.08,0,.09.13c0,.28,0,.83,0,1.43Z"/><path d="M35.39,31.38a1.1,1.1,0,0,1,.14.62c0,.36-.09.68-.17.68a.13.13,0,0,1-.11-.06c-.18-.48-.43-.9-.67-.9-.42,0-.65.89-.65,1.72s.34,1.9.93,1.9c.24,0,.44-.14.58-.58.08,0,.17.07.17.26-.14.6-.53,1.28-1.15,1.28-.82,0-1.38-1-1.38-2.42,0-1.7.75-2.71,1.63-2.71A1.36,1.36,0,0,1,35.39,31.38Z"/><path d="M38.05,29.47c0-.48,0-.61-.13-.76l-.11-.12a.55.55,0,0,1,0-.36,5.61,5.61,0,0,0,1-.67s.08,0,.11.09c0,.49,0,1,0,1.75v2.2c0,.11,0,.15.05.15l.1-.1a1.09,1.09,0,0,1,.75-.48c.54,0,.82.69.82,1.51v2.07c0,.84,0,.93.26,1l.1,0a.55.55,0,0,1,0,.42c-.2,0-.47,0-.78,0a6.49,6.49,0,0,0-.71,0,.61.61,0,0,1,0-.42l.12,0c.14,0,.17-.13.17-.79V32.85c0-.42-.14-.8-.45-.8a.41.41,0,0,0-.37.29,1.13,1.13,0,0,0-.05.44v2.15c0,.66,0,.74.18.79l.11,0a.61.61,0,0,1,0,.42,7.18,7.18,0,0,0-.73,0c-.26,0-.54,0-.76,0a.61.61,0,0,1,0-.42l.11,0c.22,0,.24-.14.24-1Z"/><path d="M45.45,34.49c0,.82.16,1,.29,1s.15,0,.25-.15a.3.3,0,0,1,.08.28c-.08.19-.38.64-.76.64-.22,0-.37-.14-.54-.41-.05-.08-.07-.1-.1-.1s-.08.05-.14.13-.31.38-.55.38-.73-.41-.73-1.25a1.25,1.25,0,0,1,.67-1.25c.25-.15.43-.24.62-.34a.27.27,0,0,0,.15-.24c0-.13,0-.26,0-.41,0-.45-.09-1-.37-1s-.3.17-.34.69a.66.66,0,0,1-.11.38.84.84,0,0,1-.47.28c-.11,0-.15-.14-.15-.3a1.91,1.91,0,0,1,.31-.93,1.51,1.51,0,0,1,1.1-.73c.54,0,.86.51.83,1.74Zm-.78-.31c0-.19,0-.23,0-.21-.3.07-.55.27-.55.84,0,.38.15.72.33.72s.24-.22.25-.59Z"/><path d="M48.42,33c0-.48,0-.62-.13-.77l-.09-.11a.55.55,0,0,1,0-.36,3.61,3.61,0,0,0,.95-.72c.05,0,.09,0,.12.11,0,.24,0,.41,0,.52s0,.12.07.14c.17-.2.36-.6.63-.6s.36.25.36.71-.21.78-.42.78-.16-.07-.25-.22-.21-.24-.25-.24-.12.27-.12.72v1.85c0,.84,0,.94.24,1l.21,0a.56.56,0,0,1,0,.42,8.57,8.57,0,0,0-.87,0,6,6,0,0,0-.77,0,.56.56,0,0,1,0-.42l.13,0c.21,0,.24-.14.24-1Z"/><path d="M54.64,34.49c0,.82.16,1,.29,1s.15,0,.25-.15a.3.3,0,0,1,.08.28c-.08.19-.38.64-.75.64s-.37-.14-.55-.41c-.05-.08-.07-.1-.1-.1s-.08.05-.14.13-.31.38-.55.38-.73-.41-.73-1.25a1.25,1.25,0,0,1,.67-1.25c.25-.15.43-.24.62-.34a.25.25,0,0,0,.15-.24c0-.13,0-.26,0-.41,0-.45-.09-1-.37-1s-.29.17-.34.69a.66.66,0,0,1-.11.38.84.84,0,0,1-.47.28c-.11,0-.15-.14-.15-.3a1.91,1.91,0,0,1,.31-.93,1.51,1.51,0,0,1,1.1-.73c.54,0,.86.51.83,1.74Zm-.78-.31c0-.19,0-.23,0-.21-.3.07-.55.27-.55.84,0,.38.15.72.33.72s.24-.22.25-.59Z"/><path d="M59.57,31.38a1.1,1.1,0,0,1,.14.62c0,.36-.1.68-.17.68a.13.13,0,0,1-.11-.06c-.18-.48-.43-.9-.67-.9-.42,0-.65.89-.65,1.72s.33,1.9.93,1.9c.24,0,.44-.14.58-.58.08,0,.17.07.17.26-.14.6-.53,1.28-1.15,1.28-.82,0-1.38-1-1.38-2.42,0-1.7.75-2.71,1.63-2.71A1.36,1.36,0,0,1,59.57,31.38Z"/><path d="M63.15,32c-.08,0-.09,0-.09.27v1.8c0,.67,0,1.42.45,1.42a.44.44,0,0,0,.28-.18c.06,0,.1.17.09.31a1.14,1.14,0,0,1-.94.69c-.54,0-.73-.57-.73-1.36V32.26c0-.25,0-.27-.12-.27h-.2a.4.4,0,0,1,0-.37,3.07,3.07,0,0,0,.54-.54,3.59,3.59,0,0,0,.48-.94.13.13,0,0,1,.2.06v.9c0,.23,0,.24.12.24h.58a.44.44,0,0,1,0,.23.88.88,0,0,1-.08.42Z"/><path d="M66.93,33.29c-.15,0-.16,0-.16.22,0,.9.31,1.78.92,1.78.18,0,.43-.08.6-.63.07,0,.17.07.17.28-.27,1-.75,1.36-1.14,1.36-.87,0-1.35-1.13-1.35-2.44,0-1.51.59-2.69,1.41-2.69s1,.8,1,1.73c0,.23,0,.39-.24.39Zm.43-.52a.36.36,0,0,0,.27-.11.63.63,0,0,0,0-.28c0-.39-.12-.66-.34-.66s-.51.48-.51.87c0,.17.09.18.3.18Z"/><path d="M71,33c0-.48,0-.62-.12-.77l-.1-.11a.55.55,0,0,1,0-.36,3.61,3.61,0,0,0,1-.72c.06,0,.09,0,.12.11,0,.24,0,.41,0,.52s0,.12.07.14c.18-.2.36-.6.64-.6s.35.25.35.71-.2.78-.41.78-.17-.07-.25-.22S72,32.2,72,32.2s-.13.27-.13.72v1.85c0,.84,0,.94.24,1l.21,0a.51.51,0,0,1,0,.42c-.32,0-.58,0-.88,0a6.08,6.08,0,0,0-.77,0,.51.51,0,0,1,0-.42l.12,0c.21,0,.24-.14.24-1Z"/><path d="M78.28,31.72c-.06-.08-.06-.37,0-.42a6.14,6.14,0,0,0,.81,0c.24,0,.48,0,.72,0a.61.61,0,0,1,0,.42l-.1.05c-.08,0-.11.05-.11.12a2.4,2.4,0,0,0,.06.42c.13.66.27,1.28.41,1.86.14-.6.3-1.24.44-2a2.27,2.27,0,0,0,0-.3c0-.06,0-.09-.16-.14l-.09,0a.48.48,0,0,1,0-.42,3.33,3.33,0,0,0,1,0,.51.51,0,0,1,0,.42l-.11,0c-.19.06-.25.2-.37.66-.34,1.23-.64,2.52-.93,3.8a.19.19,0,0,1-.15.08.21.21,0,0,1-.16-.08c-.34-1.51-.47-2.09-.88-3.68-.16-.59-.2-.68-.36-.76Z"/><path d="M83.44,33.83c0-1.71.72-2.66,1.49-2.66s1.46.87,1.46,2.56-.7,2.57-1.5,2.57S83.44,35.49,83.44,33.83Zm.93-.26c0,1.26.22,2.18.59,2.18s.5-.78.49-1.86-.19-2.17-.56-2.17S84.37,32.26,84.37,33.57Z"/><path d="M89.93,34.75c0,.84,0,.94.24,1l.12,0a.51.51,0,0,1,0,.42c-.23,0-.48,0-.78,0s-.57,0-.78,0a.55.55,0,0,1,0-.42l.12,0c.22,0,.24-.14.24-1V32.93c0-.47,0-.62-.12-.76l-.09-.11a.45.45,0,0,1,0-.36,4,4,0,0,0,1-.7s.09,0,.12.11c0,.36,0,.89,0,1.43Zm0-5.43c0,.58-.24.88-.49.88s-.45-.36-.45-.85.23-.88.49-.88S90,28.84,90,29.32Z"/><path d="M94.86,31.38A1.12,1.12,0,0,1,95,32c0,.36-.09.68-.17.68s-.09,0-.1-.06c-.18-.48-.44-.9-.67-.9-.42,0-.65.89-.65,1.72s.33,1.9.93,1.9c.24,0,.44-.14.58-.58.08,0,.17.07.17.26-.15.6-.54,1.28-1.15,1.28-.82,0-1.38-1-1.38-2.42,0-1.7.75-2.71,1.62-2.71A1.36,1.36,0,0,1,94.86,31.38Z"/><path d="M98.17,33.29c-.15,0-.16,0-.16.22,0,.9.31,1.78.92,1.78.18,0,.42-.08.6-.63.07,0,.17.07.17.28-.27,1-.75,1.36-1.14,1.36-.88,0-1.35-1.13-1.35-2.44,0-1.51.59-2.69,1.4-2.69s1,.8,1,1.73c0,.23,0,.39-.23.39Zm.43-.52a.36.36,0,0,0,.27-.11.63.63,0,0,0,0-.28c0-.39-.12-.66-.34-.66s-.51.48-.51.87c0,.17.09.18.3.18Z"/><rect x="32.23" y="294.28" width="17.75" height="3.94"/><rect x="32.03" y="93.75" width="125.04" height="11.94"/><path class="cls-4" d="M39.9,102.94c0,2,.06,2.25.6,2.33l.38,0a.6.6,0,0,1,0,.46c-.62,0-1,0-1.35,0s-.78,0-1.31,0a.6.6,0,0,1,0-.46l.31,0c.58-.11.6-.37.6-2.33V102a6.26,6.26,0,0,0-.32-2.28L37.6,95.5c-.34-1.21-.49-1.3-.79-1.39l-.28-.1a.53.53,0,0,1,0-.45c.32,0,.68,0,1.16,0a9.35,9.35,0,0,0,1.06,0c.09,0,.09.34,0,.45l-.13,0c-.35.09-.42.18-.42.33a14.42,14.42,0,0,0,.31,1.42c.37,1.35.74,2.8,1.13,4.07.3-1,.63-2,.93-3.1a24.4,24.4,0,0,0,.65-2.43c0-.11-.18-.23-.42-.29l-.18,0a.47.47,0,0,1,0-.45c.36,0,.65,0,1,0s.58,0,.92,0a.48.48,0,0,1,0,.45l-.28.1c-.52.16-.81,1.32-1.31,2.9l-.63,2a7,7,0,0,0-.47,3Z"/><path class="cls-4" d="M51.27,98.22a23.94,23.94,0,0,0-.19-3.8.58.58,0,0,0-.49-.39l-.25,0a.55.55,0,0,1,0-.44c.38,0,.74,0,1.13,0s.69,0,1,0a.52.52,0,0,1,0,.44l-.24,0a.59.59,0,0,0-.5.44,30,30,0,0,0-.14,3.75v2.07a10.5,10.5,0,0,1-.7,4.39,2.19,2.19,0,0,1-1.9,1.34,2.08,2.08,0,0,1-1.86-1c-.52-.81-.77-2.15-.77-4.33V96.35c0-1.91,0-2.23-.6-2.32l-.25,0a.56.56,0,0,1,0-.44c.5,0,.84,0,1.24,0s.73,0,1.22,0a.56.56,0,0,1,0,.44l-.24,0c-.58.09-.6.41-.6,2.32v4c0,3,.5,4.9,2,4.9s2-2.09,2-4.88Z"/><path class="cls-4" d="M56.93,96.36c0-1.92,0-2.22-.6-2.31l-.25,0a.58.58,0,0,1,0-.45c.49,0,.81,0,1.26,0s.72,0,1.15,0a.58.58,0,0,1,0,.45l-.19,0c-.57.11-.59.39-.59,2.31v2.11c0,.35,0,.7.12.7s.21-.11.28-.2.4-.7.51-.88l1.07-2c.19-.33.68-1.27.78-1.53a.84.84,0,0,0,.07-.29c0-.08,0-.13-.17-.19L60.14,94a.48.48,0,0,1,0-.45c.35,0,.75,0,1.1,0s.68,0,1,0a.54.54,0,0,1,0,.45,1.74,1.74,0,0,0-.92.52,14.28,14.28,0,0,0-1.4,2.13l-.89,1.56a1.34,1.34,0,0,0-.23.57,1.63,1.63,0,0,0,.19.57c.94,2,1.71,3.65,2.49,5.15.23.45.45.68.79.76l.27,0a.52.52,0,0,1,0,.46,8.26,8.26,0,0,0-1.11,0c-.41,0-.76,0-1.22,0-.07,0-.1-.35,0-.46l.23-.07c.14,0,.24-.09.24-.19a1.45,1.45,0,0,0-.14-.42c-.19-.44-.45-.93-.82-1.72l-.8-1.66c-.57-1.17-.73-1.54-1-1.54s-.16.24-.16.88V103c0,1.93,0,2.19.57,2.3l.27,0a.6.6,0,0,1,0,.46c-.49,0-.82,0-1.21,0a11.25,11.25,0,0,0-1.16,0,.59.59,0,0,1,0-.46l.2,0c.53-.15.55-.37.55-2.3Z"/><path class="cls-4" d="M69.4,101.47c-.07-.41-.11-.46-.41-.46h-1.5c-.25,0-.31,0-.38.44l-.35,1.93a13.19,13.19,0,0,0-.21,1.52c0,.22,0,.33.28.37l.33,0a.47.47,0,0,1,0,.46,8.63,8.63,0,0,0-1,0c-.33,0-.69,0-1,0a.61.61,0,0,1,0-.46l.33,0c.24,0,.46-.24.6-.9.18-.85.46-2,.87-4.1l1-5A4.56,4.56,0,0,0,68.12,94a1.45,1.45,0,0,0,.52-.69s.12,0,.14.16c.13.81.29,1.65.44,2.46l1.37,7.38c.28,1.58.41,1.86.84,2l.27,0a.61.61,0,0,1,0,.46,11.67,11.67,0,0,0-1.2,0c-.48,0-.86,0-1.15,0a.5.5,0,0,1,0-.46l.29,0c.21,0,.35-.15.35-.33a6.43,6.43,0,0,0-.13-1Zm-2-1.64c-.08.43-.07.44.21.44h1.22c.29,0,.31-.07.22-.56l-.53-3c-.08-.44-.17-.93-.23-1.15h0c0,.09-.13.53-.24,1.08Z"/><path class="cls-4" d="M75.8,96.38c0-1.74,0-2-.43-2.15l-.32-.07a.5.5,0,0,1,0-.46,13.93,13.93,0,0,1,2.22-.14,2.2,2.2,0,0,1,1.66.55,3.45,3.45,0,0,1,.82,2.57,3.7,3.7,0,0,1-1.24,3.06.7.7,0,0,0,0,.44,22.87,22.87,0,0,0,2,4.88,1,1,0,0,0,.69.52.24.24,0,0,1,0,.26,1,1,0,0,1-.44.09c-.85,0-1.35-.46-2.06-2.32-.26-.67-.67-1.94-1-2.77-.15-.4-.3-.58-.7-.58s-.47,0-.47.4V103c0,1.93,0,2.15.6,2.3l.21,0a.6.6,0,0,1,0,.46c-.45,0-.79,0-1.19,0s-.77,0-1.24,0a.59.59,0,0,1,0-.46l.25,0c.57-.13.59-.37.59-2.3ZM76.62,99a2.52,2.52,0,0,0,0,.6c0,.06.18.1.69.1a1.16,1.16,0,0,0,1-.48,3.89,3.89,0,0,0,.5-2.28c0-1.45-.49-2.83-1.59-2.83-.62,0-.65.08-.65.59Z"/><path class="cls-4" d="M85.2,96.4c0-1.94,0-2.26-.6-2.35l-.25,0a.58.58,0,0,1,0-.45c.49,0,.83,0,1.25,0s.74,0,1.23,0a.58.58,0,0,1,0,.45l-.24,0c-.59.09-.61.41-.61,2.35v6.54c0,1.94,0,2.2.61,2.33l.24,0a.6.6,0,0,1,0,.46c-.49,0-.83,0-1.23,0s-.76,0-1.25,0a.6.6,0,0,1,0-.46l.25,0c.58-.13.6-.39.6-2.33Z"/><path class="cls-4" d="M99.4,103c0,1.93,0,2.21.6,2.3l.32,0a.6.6,0,0,1,0,.46c-.57,0-.9,0-1.3,0s-.75,0-1.39,0a.53.53,0,0,1,0-.46l.36,0c.57-.09.62-.37.62-2.3v-8.2c0-.57,0-.59-.3-.59h-.55a1.34,1.34,0,0,0-1.22.46,4.27,4.27,0,0,0-.45,1.27c-.08.1-.22,0-.26-.13.16-.83.31-2,.38-2.74,0,0,.16-.05.19,0,.06.59.39.57.85.57h4c.53,0,.62,0,.77-.51a.12.12,0,0,1,.18.05,20.12,20.12,0,0,0-.15,2.79.14.14,0,0,1-.26,0,3.71,3.71,0,0,0-.25-1.34,1.32,1.32,0,0,0-1.15-.46h-.71c-.29,0-.29,0-.29.62Z"/><path class="cls-4" d="M109.34,101.47c-.07-.41-.11-.46-.41-.46h-1.5c-.25,0-.31,0-.38.44l-.35,1.93a11.93,11.93,0,0,0-.22,1.52c0,.22,0,.33.29.37l.33,0a.47.47,0,0,1,0,.46,8.76,8.76,0,0,0-1,0c-.33,0-.69,0-1,0a.61.61,0,0,1,0-.46l.33,0c.24,0,.46-.24.6-.9.18-.85.45-2,.87-4.1l1-5a4.56,4.56,0,0,0,.17-1.31,1.49,1.49,0,0,0,.51-.69c.06,0,.13,0,.15.16.13.81.29,1.65.44,2.46l1.36,7.38c.29,1.58.42,1.86.85,2l.27,0a.61.61,0,0,1,0,.46,11.75,11.75,0,0,0-1.21,0c-.47,0-.85,0-1.14,0a.5.5,0,0,1,0-.46l.29,0c.21,0,.35-.15.35-.33a6.43,6.43,0,0,0-.13-1Zm-2-1.64c-.08.43-.07.44.21.44h1.22c.29,0,.31-.07.22-.56l-.54-3c-.08-.44-.17-.93-.22-1.15h0c0,.09-.13.53-.24,1.08Z"/><path class="cls-4" d="M118.34,100.82c.23.87.45,1.71.69,2.52h0c.26-.86.51-1.82.76-2.75l.94-3.51a17.57,17.57,0,0,0,.75-3.52,4.55,4.55,0,0,0,.75,0c.25,0,.58,0,.88,0a.63.63,0,0,1,0,.45l-.2,0c-.63.11-.71.46-.7,1.75,0,1.94,0,5.34.11,8,0,.92,0,1.41.49,1.49l.31,0a.56.56,0,0,1,0,.46c-.4,0-.81,0-1.17,0s-.8,0-1.2,0a.56.56,0,0,1,0-.46l.29,0c.48-.09.48-.39.48-1.56l0-7.66h0c-.07.2-.44,1.67-.64,2.39l-.89,3.21c-.45,1.62-.89,3.34-1.07,4.19a.1.1,0,0,1-.1.07.11.11,0,0,1-.09-.07c-.17-1-.65-2.78-.88-3.68l-.89-3.54c-.21-.84-.42-1.8-.64-2.64h0c0,1.14-.07,2.2-.1,3.27s-.07,2.75-.07,4.31c0,1.36.06,1.65.45,1.71l.38,0a.52.52,0,0,1,0,.46,9.86,9.86,0,0,0-1.11,0,8.75,8.75,0,0,0-1,0,.61.61,0,0,1,0-.46l.22,0c.41-.11.55-.22.61-1.51s.11-2.22.17-4c0-1.52.09-3.08.11-4.09s-.06-1.43-.66-1.58L115,94a.54.54,0,0,1,0-.45,7.43,7.43,0,0,0,.78,0,5.21,5.21,0,0,0,.83,0,11.6,11.6,0,0,0,.52,3Z"/><path class="cls-4" d="M132.54,98.22a23.94,23.94,0,0,0-.19-3.8.58.58,0,0,0-.49-.39l-.25,0a.55.55,0,0,1,0-.44c.37,0,.74,0,1.13,0s.69,0,1.05,0a.56.56,0,0,1,0,.44l-.23,0a.59.59,0,0,0-.5.44,30,30,0,0,0-.14,3.75v2.07a10.5,10.5,0,0,1-.7,4.39,2.19,2.19,0,0,1-1.9,1.34,2.08,2.08,0,0,1-1.86-1c-.53-.81-.77-2.15-.77-4.33V96.35c0-1.91,0-2.23-.6-2.32l-.25,0a.56.56,0,0,1,0-.44c.5,0,.84,0,1.23,0s.74,0,1.23,0a.56.56,0,0,1,0,.44l-.24,0c-.58.09-.6.41-.6,2.32v4c0,3,.5,4.9,2,4.9s2-2.09,2-4.88Z"/><path class="cls-4" d="M138.2,96.38c0-1.74,0-2-.44-2.15l-.32-.07a.5.5,0,0,1,0-.46,14,14,0,0,1,2.22-.14,2.18,2.18,0,0,1,1.66.55,3.45,3.45,0,0,1,.83,2.57,3.7,3.7,0,0,1-1.25,3.06.7.7,0,0,0,.05.44,23.42,23.42,0,0,0,2,4.88,1,1,0,0,0,.69.52.24.24,0,0,1,0,.26,1,1,0,0,1-.44.09c-.84,0-1.35-.46-2.06-2.32-.26-.67-.66-1.94-1-2.77-.15-.4-.31-.58-.71-.58s-.47,0-.47.4V103c0,1.93,0,2.15.6,2.3l.21,0a.6.6,0,0,1,0,.46c-.45,0-.79,0-1.18,0s-.78,0-1.25,0a.59.59,0,0,1,0-.46l.25,0c.58-.13.6-.37.6-2.3ZM139,99a2.52,2.52,0,0,0,0,.6c0,.06.18.1.69.1a1.14,1.14,0,0,0,1-.48,3.89,3.89,0,0,0,.5-2.28c0-1.45-.48-2.83-1.59-2.83-.62,0-.65.08-.65.59Z"/><path class="cls-4" d="M150.37,101.47c-.07-.41-.11-.46-.41-.46h-1.5c-.25,0-.31,0-.38.44l-.34,1.93a11.93,11.93,0,0,0-.22,1.52c0,.22,0,.33.29.37l.32,0a.47.47,0,0,1,0,.46,8.51,8.51,0,0,0-1,0c-.33,0-.69,0-1,0a.61.61,0,0,1,0-.46l.33,0c.24,0,.46-.24.6-.9.18-.85.46-2,.87-4.1l1-5a4.56,4.56,0,0,0,.17-1.31,1.45,1.45,0,0,0,.52-.69c.06,0,.13,0,.14.16.13.81.29,1.65.44,2.46l1.37,7.38c.28,1.58.41,1.86.84,2l.27,0a.61.61,0,0,1,0,.46,11.67,11.67,0,0,0-1.2,0c-.48,0-.86,0-1.15,0a.5.5,0,0,1,0-.46l.29,0c.21,0,.35-.15.35-.33a6.43,6.43,0,0,0-.13-1Zm-2-1.64c-.08.43-.07.44.21.44h1.22c.29,0,.31-.07.22-.56l-.53-3c-.08-.44-.17-.93-.23-1.15h0c0,.09-.13.53-.24,1.08Z"/><rect x="32.6" y="206.95" width="95" height="11.94"/><path class="cls-4" d="M39.63,216.14c0,2,0,2.25.59,2.33l.38.05a.6.6,0,0,1,0,.46c-.62,0-.95,0-1.35,0s-.78,0-1.31,0a.6.6,0,0,1,0-.46l.31-.05c.58-.11.6-.37.6-2.33v-.94a6.26,6.26,0,0,0-.32-2.28l-1.17-4.22c-.34-1.21-.49-1.3-.79-1.39l-.28-.09a.55.55,0,0,1,0-.46c.32,0,.68.05,1.16.05a9.35,9.35,0,0,0,1.06-.05c.09.05.09.35,0,.46l-.13,0c-.35.09-.42.19-.42.33a14.42,14.42,0,0,0,.31,1.42c.37,1.35.74,2.8,1.13,4.07.3-1,.63-2,.93-3.1s.65-2.2.65-2.42-.18-.24-.42-.3l-.18,0a.49.49,0,0,1,0-.46c.36,0,.65.05,1,.05s.58,0,.92-.05a.5.5,0,0,1,0,.46l-.28.09c-.51.16-.81,1.32-1.31,2.9l-.63,2a7,7,0,0,0-.46,3Z"/><path class="cls-4" d="M51,211.42a23.94,23.94,0,0,0-.19-3.8.58.58,0,0,0-.49-.39l-.25,0a.55.55,0,0,1,0-.44c.38,0,.74.05,1.13.05s.69,0,1-.05a.52.52,0,0,1,0,.44l-.24,0a.6.6,0,0,0-.5.45,29.75,29.75,0,0,0-.14,3.74v2.07a10.5,10.5,0,0,1-.7,4.39,2.19,2.19,0,0,1-1.9,1.34,2.08,2.08,0,0,1-1.86-1c-.52-.81-.77-2.15-.77-4.33v-4.33c0-1.91,0-2.22-.6-2.32l-.25,0a.56.56,0,0,1,0-.44c.5,0,.84.05,1.24.05s.73,0,1.22-.05a.56.56,0,0,1,0,.44l-.24,0c-.58.1-.6.41-.6,2.32v4c0,3,.5,4.9,2,4.9s2-2.09,2-4.88Z"/><path class="cls-4" d="M56.65,209.57c0-1.93,0-2.23-.6-2.32l-.25,0a.6.6,0,0,1,0-.46c.49,0,.81.05,1.26.05s.72,0,1.15-.05a.6.6,0,0,1,0,.46l-.19,0c-.57.11-.59.39-.59,2.32v2.11c0,.34,0,.69.12.69s.21-.11.28-.2.4-.7.51-.88l1.08-2c.18-.33.67-1.27.77-1.53a.79.79,0,0,0,.07-.29c0-.07,0-.13-.17-.18l-.27-.11a.49.49,0,0,1,0-.46c.35,0,.75.05,1.1.05s.68,0,1-.05a.56.56,0,0,1,0,.46,1.72,1.72,0,0,0-.92.51,14.85,14.85,0,0,0-1.4,2.13l-.89,1.56a1.39,1.39,0,0,0-.23.57,1.63,1.63,0,0,0,.19.57c.94,2,1.71,3.65,2.49,5.16.23.44.45.67.79.75l.27.05a.52.52,0,0,1,0,.46,10.38,10.38,0,0,0-1.11,0c-.41,0-.76,0-1.22,0-.07,0-.1-.35,0-.46l.23-.07c.14,0,.24-.09.24-.18a1.41,1.41,0,0,0-.14-.43c-.19-.44-.45-.93-.82-1.72l-.8-1.65c-.57-1.18-.73-1.55-1-1.55s-.16.24-.16.89v2.36c0,1.93,0,2.19.57,2.3l.27.05a.6.6,0,0,1,0,.46c-.49,0-.82,0-1.21,0s-.75,0-1.16,0a.59.59,0,0,1,0-.46l.2-.05c.53-.15.55-.37.55-2.3Z"/><path class="cls-4" d="M66.35,209.6c0-1.94,0-2.26-.61-2.35l-.25,0a.6.6,0,0,1,0-.46c.5,0,.84.05,1.25.05s.74,0,1.24-.05a.6.6,0,0,1,0,.46l-.25,0c-.59.09-.61.41-.61,2.35v6.54c0,1.94,0,2.2.61,2.33l.25.05a.6.6,0,0,1,0,.46c-.5,0-.84,0-1.24,0s-.75,0-1.25,0a.6.6,0,0,1,0-.46l.25-.05c.59-.13.61-.39.61-2.33Z"/><path class="cls-4" d="M80.94,214.67c-.07-.41-.11-.46-.41-.46H79c-.25,0-.31,0-.38.44l-.35,1.93a11.93,11.93,0,0,0-.22,1.52c0,.22,0,.33.29.37l.33.05a.47.47,0,0,1,0,.46c-.26,0-.57,0-1,0s-.68,0-1,0a.61.61,0,0,1,0-.46l.33-.05c.24,0,.45-.24.59-.9.18-.85.46-2,.88-4.1l1-4.95a4.54,4.54,0,0,0,.17-1.3,1.52,1.52,0,0,0,.52-.7c.06,0,.13,0,.15.16.13.81.29,1.66.44,2.46l1.36,7.38c.29,1.58.42,1.86.85,1.95l.26.05a.61.61,0,0,1,0,.46c-.4,0-.75,0-1.2,0s-.85,0-1.14,0a.5.5,0,0,1,0-.46l.29-.05c.2,0,.34-.15.34-.33a6.5,6.5,0,0,0-.13-1ZM79,213c-.08.43-.07.44.21.44H80.4c.29,0,.31-.07.22-.56l-.54-3c-.08-.44-.17-.93-.23-1.15h0c0,.09-.13.53-.24,1.08Z"/><path class="cls-4" d="M89.94,214c.23.86.44,1.7.68,2.51h0c.27-.86.52-1.82.77-2.75l.93-3.51a17.06,17.06,0,0,0,.76-3.52,4.55,4.55,0,0,0,.75.05c.24,0,.57,0,.88-.05a.66.66,0,0,1,0,.46l-.21,0c-.62.11-.7.46-.69,1.75,0,1.94,0,5.34.11,8,0,.92,0,1.41.48,1.49l.32.05a.56.56,0,0,1,0,.46c-.41,0-.81,0-1.17,0s-.8,0-1.21,0a.56.56,0,0,1,0-.46l.29-.05c.49-.09.49-.39.49-1.56l0-7.66h0c-.07.21-.45,1.67-.65,2.39l-.88,3.21c-.45,1.62-.9,3.34-1.08,4.19a.1.1,0,0,1-.1.07.11.11,0,0,1-.09-.07c-.16-1-.64-2.78-.87-3.67l-.9-3.55c-.21-.84-.41-1.8-.63-2.64h0c0,1.14-.07,2.2-.1,3.27s-.07,2.75-.07,4.31c0,1.36.06,1.65.45,1.71l.37.05a.52.52,0,0,1,0,.46c-.33,0-.72,0-1.1,0s-.68,0-1,0a.61.61,0,0,1,0-.46l.22-.05c.42-.11.56-.22.62-1.51s.11-2.22.17-4c.05-1.52.09-3.08.11-4.09s-.06-1.43-.67-1.58l-.16,0a.56.56,0,0,1,0-.46,7.79,7.79,0,0,0,.79.05,5,5,0,0,0,.82-.05,11.73,11.73,0,0,0,.52,3Z"/><path class="cls-4" d="M102.17,214.67c-.07-.41-.11-.46-.41-.46h-1.5c-.25,0-.31,0-.38.44l-.35,1.93a11.93,11.93,0,0,0-.22,1.52c0,.22,0,.33.29.37l.33.05a.47.47,0,0,1,0,.46c-.26,0-.57,0-1,0s-.69,0-1,0a.61.61,0,0,1,0-.46l.33-.05c.24,0,.46-.24.6-.9.17-.85.45-2,.87-4.1l1-4.95a4.81,4.81,0,0,0,.16-1.3,1.52,1.52,0,0,0,.52-.7c.06,0,.13,0,.15.16.13.81.29,1.66.44,2.46l1.36,7.38c.29,1.58.42,1.86.85,1.95l.27.05a.61.61,0,0,1,0,.46c-.41,0-.76,0-1.21,0s-.85,0-1.14,0a.5.5,0,0,1,0-.46l.29-.05c.21,0,.34-.15.34-.33a6.16,6.16,0,0,0-.12-1Zm-2-1.64c-.08.43-.07.44.21.44h1.22c.29,0,.31-.07.22-.56l-.54-3c-.08-.44-.17-.93-.23-1.15h0c0,.09-.13.53-.24,1.08Z"/><path class="cls-4" d="M113.92,215.81c0,.55,0,2.73,0,3.21,0,.11-.08.2-.19.2-.12-.31-.4-.95-1.27-2.77l-2.31-4.85c-.27-.57-.94-2.07-1.15-2.48h0a8.59,8.59,0,0,0-.05,1.2v4a26.09,26.09,0,0,0,.18,3.8.57.57,0,0,0,.51.35l.3.05a.55.55,0,0,1,0,.46c-.44,0-.79,0-1.16,0s-.69,0-1,0a.56.56,0,0,1,0-.46l.26-.05a.53.53,0,0,0,.44-.37,32.3,32.3,0,0,0,.13-3.78V209a2.75,2.75,0,0,0-.22-1.32,1,1,0,0,0-.61-.44l-.17,0a.52.52,0,0,1,0-.46,10.31,10.31,0,0,0,1.12.05,2.16,2.16,0,0,0,.46-.05,29.55,29.55,0,0,0,1.7,4l1,2c.69,1.41,1.18,2.44,1.65,3.32h0a3.33,3.33,0,0,0,0-.77v-3.93a23.38,23.38,0,0,0-.2-3.8c-.06-.17-.22-.28-.62-.37l-.17,0c-.07-.11-.06-.41,0-.46.46,0,.8.05,1.17.05a10.29,10.29,0,0,0,1-.05.53.53,0,0,1,0,.46l-.14,0c-.32.09-.52.24-.56.39a26.89,26.89,0,0,0-.15,3.78Z"/><path class="cls-4" d="M119.34,209.57c0-1.91,0-2.19-.61-2.32l-.16,0a.72.72,0,0,1,0-.46c.43,0,.77.05,1.18.05h1.87a7.93,7.93,0,0,0,1.34-.05c.06.31.12,1.63.16,2.44a.14.14,0,0,1-.25,0c-.15-.86-.24-1.5-.75-1.74a2.7,2.7,0,0,0-1-.11h-.71c-.3,0-.3,0-.3.74v3.67c0,.51,0,.51.32.51h.58a2.15,2.15,0,0,0,.85-.11c.12-.07.19-.18.24-.64l.08-.75a.13.13,0,0,1,.25,0c0,.44,0,1.16,0,1.86s0,1.36,0,1.76a.13.13,0,0,1-.25,0l-.09-.72c0-.33-.11-.6-.31-.7a1.94,1.94,0,0,0-.77-.09h-.58c-.29,0-.32,0-.32.5V216a5.21,5.21,0,0,0,.19,1.91c.11.22.32.42,1.2.42s1-.08,1.27-.28a5.25,5.25,0,0,0,.71-1.78c.07-.09.21,0,.25.13-.07.64-.32,2.06-.45,2.55-.89,0-1.78,0-2.67,0h-.89c-.43,0-.77,0-1.35,0a.6.6,0,0,1,0-.46l.32-.05c.57-.09.62-.37.62-2.3Z"/><rect class="cls-5" width="380.17" height="475.55"/></g></svg>