<svg id="letter" xmlns="http://www.w3.org/2000/svg" viewBox="0 0 380.17 475.55"><defs><style>.cls-1,.cls-2,.cls-3,.cls-4,.cls-5{fill:none;}.cls-2,.cls-3,.cls-4,.cls-5{stroke:#000;}.cls-2{stroke-width:0.57px;}.cls-3{stroke-width:0.5px;}.cls-4{stroke-width:0.4px;}.cls-5{stroke-width:0.44px;}.cls-6{fill:#fff;}</style></defs><title>アートボード 31</title><rect class="cls-1" width="380.17" height="475.55"/><path d="M37.5,158c4.56,0,8.47,2.59,8.47,7.21,0,2.46-1.36,4.49-2.84,4.49-1.23,0-1.56-.82-2.84-4a17.34,17.34,0,0,0-5.51-7.4A15.27,15.27,0,0,1,37.5,158Zm30.84-7.28c-3,15.56-11.19,29.73-22.17,38.08-2.22,1.65-3.58,2.66-4.15,3.48-.82,1.14-.91,1.27-1.28,1.27-1.31,0-5.22-6.14-5.22-10a6.22,6.22,0,0,1,1.32-4c.49,2.34.86,4.11,2.26,4.11,1.93,0,6.82-3.23,10.32-6.26,8-7,15.38-17.72,18.75-26.76Zm-26-7.4c4.93,0,7,3.23,7,6.45,0,2.85-1.65,4.43-2.92,4.43-1,0-1.24-.44-3.09-4.3A12.41,12.41,0,0,0,38,143.82,20.39,20.39,0,0,1,42.35,143.32Zm22.33,5.44c0,1-.37,2.72-1.61,2.72-.78,0-.94-.32-2.26-3a22.61,22.61,0,0,0-3.7-5.44C60.24,143.07,64.68,144,64.68,148.76Zm-1.2-11.26c3.79,0,5.19,2.47,5.19,4.68,0,1.27-.46,2.72-1.44,2.72-.74,0-1.15-.63-2.43-2.78a13,13,0,0,0-4.28-4.3A18,18,0,0,1,63.48,137.5Z"/><path d="M107.28,182.16a16.85,16.85,0,0,1,3.13,1.77c1.19.83,2.26,1.71,2.26,3.48,0,2-1.11,2.28-2,2.28a29.84,29.84,0,0,1-3.5-1.14,12.66,12.66,0,0,0-3.37-.5,85.26,85.26,0,0,0-14.6,2.08,21.28,21.28,0,0,1-2.39,1.27,6.73,6.73,0,0,1-3.7-5.88,7.48,7.48,0,0,1,.54-2.79c1.07,2.28,2.67,3,4.07,3,.08,0,9.42-.69,11.27-.88.08-.7,1.07-10.06,1.19-18-.78.19-5.35,1-7.69,2a13.13,13.13,0,0,1-2.14,1.33c-1.19,0-3.13-4-3.13-6.07a3.51,3.51,0,0,1,.46-1.9,3,3,0,0,0,3,2.15c1.07,0,8.51-.25,9.13-.82.37-.32,1.93-2.28,2.3-2.28,1,0,4,3,4,4.37,0,.57-1.32,2.27-1.48,2.72s-1.32,13.47-1.61,16C105.76,183.87,106.21,183.68,107.28,182.16Z"/><path d="M131.26,195.19a40.69,40.69,0,0,0,12.17-18.59,45.51,45.51,0,0,0,2-10.38,5,5,0,0,0-.25-1.83,58.42,58.42,0,0,0-7.57,1.89c-.61.26-3.33,1.77-3.9,1.77-1,0-1.73-.88-3.29-2.84a5.35,5.35,0,0,1-1.48-3.67,4.3,4.3,0,0,1,.82-2.72c1,1.9,1.73,2.84,4.19,2.84.87,0,13.82-1.45,16.74-2,4.4-.82,5-1.39,6.33-3a19.45,19.45,0,0,1,5.1,2.91,3.54,3.54,0,0,1,1.32,2.91c0,.44-.12,2.4-1.52,2.4a31.5,31.5,0,0,1-3.42-1.07,13.93,13.93,0,0,0-3.82-.38,36.34,36.34,0,0,0-3.78.13c.74.63,1.19,1.07,1.19,1.83a2.71,2.71,0,0,1-1.15,2.15c-2.47,13.35-7.45,23.47-19.62,27.77Zm7.11-49.47c2.31,0,7.49-.57,9.71-1.71a5.19,5.19,0,0,0,2.22-2.27c5.35,2.08,5.43,3.67,5.43,4.87a2.87,2.87,0,0,1-3.17,3.16c-3.33,0-4,0-10.48,1.08a30.33,30.33,0,0,1-3.17.31c-2.59,0-4-2.4-4.2-6.89A4.56,4.56,0,0,0,138.37,145.72Zm23.94,2c0,2.34-1.07,2.78-1.56,2.78-.83,0-.95-.32-2-3a16.33,16.33,0,0,0-4.4-6.71C159.63,141.17,162.31,144.46,162.31,147.75Zm3.9-5.44c0,1.2-.37,2.91-1.48,2.91-.53,0-.69-.32-2-3a14.38,14.38,0,0,0-4.53-5.69C164.94,136.61,166.21,140.09,166.21,142.31Z"/><path d="M178.14,184.12C187.77,175,196,157,196,154.2c0-.51-.08-1.27-1.85-2.66a5,5,0,0,1,2.22-.82c2,0,4.65,3.54,4.65,5.76,0,.63-.09.76-.78,1.45-1,1-4.24,7.53-4.94,8.8.62.44,1.52,1.26,1.52,2.08a8.51,8.51,0,0,1-.2,1.4,23.81,23.81,0,0,0-.33,5.5c0,2.53.45,14.42.45,15.69,0,2.72-1.19,3.79-1.85,3.79-2,0-2.59-4.87-2.59-5.82,0-.69.41-3.85.45-4.49.33-6.26.17-13.73.17-14.36-3.33,5-9.17,11.26-14.73,13.79Z"/><path d="M230.41,167.49c0,3-1.6,5.44-3.54,5.44s-3.53-2.41-3.53-5.44,1.6-5.45,3.53-5.45S230.41,164.45,230.41,167.49Z"/><path d="M68.62,217c-7.36,25.37-15,31.89-23.76,39.41a9.18,9.18,0,0,0-1.65,1.9c-.45.7-1,1.39-1.52,1.39-1.52,0-4.52-6.38-4.52-7.78,0-.69.74-3.6.82-4.24.41-2.52.41-15.56.41-19,0-10.06-.33-11.33-3.17-11.2,2.14-3.23,3.05-3.73,4-3.73,2,0,4.94,4.36,4.94,5.44,0,.57-.74,3.1-.83,3.6-.41,2.47-.57,23.54-.57,24.8,7.94-3.22,19-17.4,25.78-30.68Z"/><path d="M79.9,250.48c12.41-11.89,22.28-34.1,22.28-37.39,0-.63,0-1.58-2.3-3.35a6.31,6.31,0,0,1,2.8-1c2.46,0,5.8,4.36,5.8,7.15,0,.82-.09,1-1,1.83-1.28,1.27-5.31,9.43-6.17,10.95.58.5,1.89,1.51,1.89,2.65a10.63,10.63,0,0,1-.25,1.77c-.32,1.78-.41,2.22-.41,6.84,0,3.16.58,18.85.58,19.67,0,3.42-1.48,4.68-2.34,4.68-2.51,0-3.17-6-3.17-7.27,0-.89.45-4.81.49-5.57.13-1.83.29-5.19.29-11.89,0-2,0-4-.08-6.08-6.5,9.49-13.53,15-18.38,17.27Z"/><path d="M150.92,228.34c0,.63-.74,3.42-.78,4-.25,2.15-.74,11.95-1,14.17,5.8-.64,6.45-.7,7.69-1a5.05,5.05,0,0,0,2.55-1.77c.7.57,3.86,2.66,4.48,3.23a3.87,3.87,0,0,1,1.69,3.16c0,.32-.09,2.79-1.69,2.79a13.89,13.89,0,0,1-3.87-1,19.2,19.2,0,0,0-6.86-1.26c-4.77,0-16.12,1.77-17.27,3s-1.4,1.46-1.77,1.46c-1.24,0-5-4.18-5-8.16a8.71,8.71,0,0,1,.95-3.74c.82,4.05,2.59,4.43,4.69,4.43a102.54,102.54,0,0,0,10.24-.69c.12-2.79.24-11.58.24-14.81a13,13,0,0,0-1.19-6.51,15.62,15.62,0,0,0-4,1.32,6.42,6.42,0,0,1-1.85,1c-1.28,0-4-3.54-4-5.88a9.31,9.31,0,0,1,1.15-4.24c.7,2.59,1.89,4,3.42,4,.49,0,10.73-1.2,13.57-2a6.61,6.61,0,0,0,2.92-2c.69.57,3.86,2.65,4.44,3.22a3.13,3.13,0,0,1,.9,2.22c0,1.71-1,2-1.56,2-.74,0-5.88-.44-7-.44a20.39,20.39,0,0,0-3.58.25C148.86,225.11,150.92,226.57,150.92,228.34Z"/><path d="M180.28,261.68c15.67-15.31,20.11-30.05,22.66-43.15-1.56.38-7.69,2-10.24,3.74a14,14,0,0,1-2.47,1.83c-1.19,0-4.85-4-4.85-7.65a5.26,5.26,0,0,1,1.28-3.67c.24,4,3.08,4,3.86,4,1.28,0,10.82-.69,12.87-2.47.21-.18.91-1.07,1.28-1.51a.92.92,0,0,1,.74-.45c1,0,5.18,4.43,5.18,6.27,0,1.51-1,1.77-2,2.09A93.16,93.16,0,0,1,202,239.28c5.51,2.6,12.37,8.23,12.37,15.63,0,4.24-2.18,5.69-3.12,5.69-1.15,0-1.61-1.45-2.51-4.36-2-6.39-4.24-11.71-7.24-16-4.23,8.23-10.69,16.51-21.22,21.7Z"/><line class="cls-2" x1="19.04" y1="21.61" x2="19.04" y2="416.64"/><path d="M19,13.48A4.07,4.07,0,1,1,15,17.54,4.07,4.07,0,0,1,19,13.48Z"/><path class="cls-3" d="M19,11.6a5.95,5.95,0,1,1-5.94,5.94A5.94,5.94,0,0,1,19,11.6Z"/><polygon class="cls-3" points="19.04 5.3 24.35 14.5 29.65 23.66 19.04 23.66 8.42 23.66 13.73 14.5 19.04 5.3"/><path d="M10.33,76.49c0,1.7,0,2.11.22,2.11a.68.68,0,0,0,.42-.14,1,1,0,0,1,0,.77,4.62,4.62,0,0,0-1.76.65c-.06,0-.14-.11-.16-.25l0-.56c0-.15-.05-.2-.09-.15-.34.4-.69.78-1,.78-1.12,0-1.87-1.6-1.87-3.55,0-2.54,1-4.16,2.33-4.16a1.57,1.57,0,0,1,.55.09.46.46,0,0,0,.1-.34v-2.3c0-.73,0-.92-.2-1.14l-.16-.18a.68.68,0,0,1,0-.54,7.27,7.27,0,0,0,1.49-1,.19.19,0,0,1,.17.13c0,.74,0,1.49,0,2.63ZM9.06,74.1A2.15,2.15,0,0,0,9,73.49c-.12-.38-.33-.67-.56-.67-.49,0-1,1-1,2.84,0,1.19.29,2.83,1.09,2.83a.55.55,0,0,0,.4-.21,1.13,1.13,0,0,0,.12-.69Z"/><path d="M7.54,320.8c-.23,0-.25,0-.25.33,0,1.35.47,2.66,1.38,2.66.27,0,.64-.11.91-.93.1,0,.25.1.25.41-.4,1.53-1.12,2.05-1.71,2.05-1.31,0-2-1.71-2-3.67,0-2.27.89-4,2.11-4,1,0,1.56,1.2,1.56,2.59,0,.34,0,.59-.35.59Zm.64-.79a.49.49,0,0,0,.4-.16.81.81,0,0,0,.07-.41c0-.6-.19-1-.52-1s-.76.72-.76,1.29c0,.25.14.27.45.27Z"/><line class="cls-4" x1="22.1" y1="44.85" x2="15.57" y2="44.85"/><line class="cls-4" x1="22.1" y1="76.08" x2="15.57" y2="76.08"/><line class="cls-4" x1="22.1" y1="111.26" x2="15.57" y2="111.26"/><line class="cls-4" x1="22.1" y1="146.45" x2="15.57" y2="146.45"/><line class="cls-4" x1="22.1" y1="181.63" x2="15.57" y2="181.63"/><line class="cls-4" x1="22.1" y1="216.81" x2="15.57" y2="216.81"/><line class="cls-4" x1="22.1" y1="251.99" x2="15.57" y2="251.99"/><line class="cls-4" x1="22.1" y1="251.99" x2="15.57" y2="251.99"/><line class="cls-4" x1="22.1" y1="251.99" x2="15.57" y2="251.99"/><line class="cls-4" x1="22.08" y1="286.8" x2="15.55" y2="286.8"/><line class="cls-4" x1="22.08" y1="353.54" x2="15.55" y2="353.54"/><line class="cls-4" x1="22.08" y1="385.09" x2="15.55" y2="385.09"/><line class="cls-4" x1="22.08" y1="416.64" x2="15.55" y2="416.64"/><line class="cls-4" x1="22.08" y1="321.99" x2="15.55" y2="321.99"/><circle cx="9.79" cy="44.85" r="1.68"/><path d="M34.26,318.15A9.6,9.6,0,0,0,37.89,314a17,17,0,0,0,1.4-5.75c-.54.05-3,.2-3.45.28l-.38,0a1,1,0,0,1-.29,0c0,.21,0,1.85.06,2.21,0,.2.05,1.12.05,1.29,0,.87-.41.87-.49.87-.34,0-.71-.6-.71-1.59,0-.22,0-1.18,0-1.37,0-2.41-.49-2.52-.73-2.58a1.25,1.25,0,0,1,.69-.47c.18,0,.32.13.72.5s.38.29.6.29l1.26-.08a21,21,0,0,0,0-2.15c0-.38-.22-.57-.47-.57l-.17,0c.38-.75.76-.83,1-.83s1.11.4,1.11.94c0,.14-.15.67-.16.79,0,.46-.07,1.26-.09,1.72,1.33-.08,1.49-.08,1.71-.33s.22-.23.28-.23A3.94,3.94,0,0,1,41,308.62c0,.13,0,.31-.43.47a17.11,17.11,0,0,1-2,6.11,6.74,6.74,0,0,1-4.33,3Zm6.86-11.94c0,.33-.12.73-.38.73s-.31-.19-.48-.56a5,5,0,0,0-1.34-1.69C39.38,304.67,41.12,304.59,41.12,306.21Zm-.6-2.71c.68,0,1.69.3,1.69,1.38,0,.36-.15.7-.39.7s-.2-.08-.42-.53a3.57,3.57,0,0,0-1.31-1.49A1.47,1.47,0,0,1,40.52,303.5Z"/><path d="M45.15,315.36c2.44-2.3,4.52-6.87,4.52-7.57,0-.13,0-.32-.47-.67a1.15,1.15,0,0,1,.56-.21c.5,0,1.18.9,1.18,1.46,0,.16,0,.19-.2.37A20.81,20.81,0,0,0,49.49,311c.16.11.39.32.39.53a1.89,1.89,0,0,1-.06.35,6.35,6.35,0,0,0-.08,1.39c0,.64.11,3.65.11,4,0,.69-.3,1-.46,1-.51,0-.66-1.23-.66-1.47s.1-1,.11-1.14c.09-1.58,0-3.47,0-3.63a10.57,10.57,0,0,1-3.73,3.49Z"/><path d="M55.13,318a13,13,0,0,0,3.71-4.21A19.6,19.6,0,0,0,61,307.63l-1.33.26-.85.17a9.34,9.34,0,0,1-3.65,4.36l0-.05a17.14,17.14,0,0,0,3.09-7c0-.56-.32-.61-.58-.64.14-.23.31-.52.66-.52a2,2,0,0,1,1.5,1.45c0,.17,0,.2-.29.56,0,0-.28.75-.31.84a5,5,0,0,0,1.43-.25,4.67,4.67,0,0,1,.8-.51c.19,0,1.36,1.18,1.36,1.61s-.22.5-.51.69c-1.21,4.15-2.87,8-7.14,9.44Z"/><path d="M72.33,311.7c0,.68-.28,1.16-.7,1.16s-.43-.28-.81-1.1a5.85,5.85,0,0,0-1.73-2.16c0,1.68,0,2.88,0,3.62,0,.56.2,3,.2,3.5s-.1,1.68-.68,1.68-.79-1.29-.88-2.24a43.64,43.64,0,0,0,.31-6.06c0-.53,0-4-.09-4.49,0-.33-.24-.6-.56-.6a.73.73,0,0,0-.33.08c.22-.56.61-1.08,1-1.08s1.31.23,1.31,1c0,.19-.17,1-.19,1.13-.06.58-.1,2.4-.1,3.12C70.86,309.41,72.33,310.24,72.33,311.7Z"/><path d="M75.74,317.3a13.9,13.9,0,0,0,2.49-7.86c0-.31,0-1-.73-.95.42-.57.61-.8.91-.8a1.68,1.68,0,0,1,1.27,1.19,1,1,0,0,1-.13.45c-.3,3.66-1.22,6-3.81,8ZM86,307.07a16.22,16.22,0,0,1-3.62,7.75,3.13,3.13,0,0,0-.68,1c-.09.28-.14.41-.31.41s-1-1.7-1-2c0-.13.1-.69.12-.8a24.81,24.81,0,0,0,.09-2.58c0-.62,0-3.33-.1-3.74-.15-.72-.5-.72-.68-.72.41-.6.56-.82.85-.82.6,0,1.28.94,1.28,1.33,0,.11-.19.56-.21.67-.11.43-.1,5.44-.09,5.49A16.12,16.12,0,0,0,86,307Z"/><path d="M92.76,311.15c0,.77-.4,1.38-.89,1.38s-.9-.61-.9-1.38.41-1.37.9-1.37S92.76,310.38,92.76,311.15Z"/><path d="M100.49,307.28a16.07,16.07,0,0,0,3.56-.43c.11-.08.56-.61.68-.61.28,0,1.22,1.36,1.22,1.61a.51.51,0,0,1-.34.42c-.08,1.06-.54,5.65-.55,5.7.43.43.55.61.55,1.07,0,.16,0,.75-.37.75-.09,0-.5-.14-.62-.17a2.94,2.94,0,0,0-1.12-.18,15.07,15.07,0,0,0-3.35.56,4.47,4.47,0,0,1-.7.42,2.4,2.4,0,0,1-1.2-1.86,2.46,2.46,0,0,1,.24-.94c.31,1,1,1,1.2,1s3.87-.38,4.15-.43c.17-1.33.35-5,.37-6.2a17.29,17.29,0,0,0-3.95.76,5,5,0,0,1-.74.41c-.44,0-1-1.5-1-2a1.39,1.39,0,0,1,.32-.91C99,307.28,99.33,307.28,100.49,307.28Z"/><path d="M118.91,306.85a17.27,17.27,0,0,1-6.51,10,1.57,1.57,0,0,0-.48.48c0,.05-.15.17-.24.17-.35,0-1.37-1.58-1.37-2.59a1.61,1.61,0,0,1,.34-1c.11.45.24.95.62.95.72,0,4.42-1.81,7.6-8Zm-6.26-.76a2.1,2.1,0,0,1,.93,1.78c0,.77-.39,1.33-.78,1.33s-.39-.21-.71-1a7.54,7.54,0,0,0-1.61-2.48A3.91,3.91,0,0,1,112.65,306.09Z"/><path d="M128,311.7c0,.68-.28,1.16-.7,1.16s-.43-.28-.81-1.1a5.85,5.85,0,0,0-1.73-2.16c0,1.68,0,2.88,0,3.62,0,.56.2,3,.2,3.5s-.1,1.68-.68,1.68-.79-1.29-.88-2.24a43.64,43.64,0,0,0,.31-6.06c0-.53,0-4-.09-4.49,0-.33-.24-.6-.56-.6a.66.66,0,0,0-.32.08c.21-.56.6-1.08,1-1.08s1.3.23,1.3,1c0,.19-.17,1-.19,1.13-.06.58-.1,2.4-.1,3.12C126.52,309.41,128,310.24,128,311.7Zm.32-4.2c0,.43-.17.74-.42.74s-.26-.1-.48-.63a5.21,5.21,0,0,0-1.06-1.64C127.52,306,128.31,306.59,128.31,307.5Zm-.69-3.17a2,2,0,0,1,1.54.63,1.26,1.26,0,0,1,.21.7c0,.37-.15.69-.41.69s-.22-.06-.53-.64a3.57,3.57,0,0,0-1.19-1.35C127.37,304.35,127.47,304.33,127.62,304.33Z"/><path d="M133.66,305.28c.26,0,1.22.54,1.22,1,0,.1-.09.45-.1.52s-.05,2-.05,2.3.06,1.89.06,2.19c0,.63-.06,1.62-.62,1.62s-.68-1-.68-1.33c0-.13,0-.69.06-.8,0-.65.06-2.51.06-3.14s0-1.52-.78-1.45C133,305.65,133.35,305.28,133.66,305.28Zm-.2,13c2.81-2.07,3.22-4.34,3.22-10.25,0-2.54,0-2.88-.49-2.88a1.71,1.71,0,0,0-.35.06c.13-.38.3-1,1.08-1a1.35,1.35,0,0,1,1.21,1.09c0,.15-.13.72-.13.85s0,2.64,0,4c0,4.51-.78,6.88-4.49,8.16Z"/><path d="M143.28,317.94c.48-.47,1.83-1.86,2.49-5.38a19.53,19.53,0,0,0,.36-3.09c0-.14,0-.61-.37-.61l-.31.05c.14-.37.31-.83.88-.83.28,0,1.33.41,1.33.86,0,.05-.09.56-.13.79a13.89,13.89,0,0,0,1.52-3.3,14.07,14.07,0,0,0-4.43,1c-.55.34-.62.37-.77.37-.5,0-1.27-1.09-1.27-1.92a1.45,1.45,0,0,1,.35-1c.09.35.43,1.2,1,1.2.27,0,4.82-.53,4.89-.55a1.44,1.44,0,0,0,.56-.37.47.47,0,0,1,.27-.14c.38,0,1.25,1.47,1.25,2.16,0,.37-.13.37-.75.4a15,15,0,0,1-2.64,2.28,20.21,20.21,0,0,1-1.07,4.56,6,6,0,0,1-3.14,3.5Z"/><path d="M160.11,308.75a12.84,12.84,0,0,0,1.48,5,6,6,0,0,0,3.22,2.61v0a1.66,1.66,0,0,0-.92,1.22c-.15.72-.18.81-.34.81a4.6,4.6,0,0,1-2-2c-1.19-2-1.52-4.72-1.52-7.41a16.4,16.4,0,0,1-1,5.2,7.28,7.28,0,0,1-4.49,4.4v0c3.77-2.67,4.06-8.29,4.15-9.86h-3.86l0-.18h3.92c0-.41,0-.83,0-1.24v-3.64l1.19.21c.25.05.46.08.46.21s-.08.13-.27.21v2.75c0,.43,0,1.1,0,1.5h2.36l.65-1.39c.08-.17.09-.19.14-.19a10.21,10.21,0,0,1,1.18,1.67c0,.09-.07.09-.12.09Z"/><path d="M175.93,313.22l.64-1.38c.07-.16.08-.19.13-.19a8.73,8.73,0,0,1,1.2,1.65c0,.11-.07.11-.13.11h-4.06v3.23c0,1,0,1.94-1.57,1.94-.37,0-.37-.1-.37-.4a2.68,2.68,0,0,0-.14-1.09,2,2,0,0,0-1-.88v0l1.47.11c.28,0,.28-.12.28-.65v-2.21h-4.09l0-.19h4.14v-1.67c.13,0,.61.11.91.18a10.58,10.58,0,0,0,.81-1.76h-3.91l0-.19h3.92l.32-.58c.08-.13.15-.26.21-.26s.15.1.2.16.66.88.74,1c.18-.56.44-1.81.51-2.22H170a9.92,9.92,0,0,1,.08,1.26c0,1.23-.52,2-1,2s-.72-.7-.72-1.07a.71.71,0,0,1,.17-.48,6.27,6.27,0,0,0,1.16-3.12h0a11,11,0,0,1,.25,1.26h4.32a30,30,0,0,0,.84-3.89c1,.58,1.06.65,1.6,1a.19.19,0,0,1,.11.16c0,.05,0,.16-.34.1a14.05,14.05,0,0,1-1.91,2.65H176l.37-.62c.09-.14.14-.21.2-.21s.36.4.48.58a8,8,0,0,1,.85,1.63c0,.24-.18.26-.28.26a3,3,0,0,1-.49-.07,8.75,8.75,0,0,1-1.51,1c.27.39.31.44.31.58,0,.38-.42.32-.7.29a13.41,13.41,0,0,1-1.47.73c.12,0,.19,0,.19.15s-.2.22-.27.24v1Zm-6.34-9.35c.42.11,2.15.58,2.15,2.3,0,.9-.45,1.25-.87,1.25-.25,0-.31-.06-.35-.51a7.65,7.65,0,0,0-.94-3Zm2.12-.16c1,.25,2.16.85,2.16,2.24,0,.93-.49,1.38-.88,1.38-.17,0-.23-.1-.25-.36a8.36,8.36,0,0,0-1-3.23Z"/><path d="M187.62,309.5v-1.79h-1.73l0-.18h1.78v-1.64h-1.46a13.93,13.93,0,0,1-1.51,2.86l0,0a23.21,23.21,0,0,0,.44-4.13c.29.06,1.61.37,1.61.54s-.09.15-.31.19c-.07.23-.09.28-.12.37h1.39v-2c.24,0,1.29.13,1.5.18s.14,0,.14.11,0,.1-.37.27v1.41h.6l.58-1.15c.08-.18.09-.19.13-.19a8.31,8.31,0,0,1,1.16,1.41c0,.13-.07.13-.14.13h-2.33v1.64h.31l.51-1c.09-.16.1-.17.14-.17a7.67,7.67,0,0,1,1,1.28c0,.11-.06.13-.14.11h-1.85v1.79h.81l.57-1.13c.09-.18.1-.2.13-.2a8.09,8.09,0,0,1,1.09,1.4c0,.11-.06.13-.13.11h-6.81v.91a4.41,4.41,0,0,1,1,1.22,2.73,2.73,0,0,1,.36,1.36c0,.59-.15,1.23-.74,1.23-.3,0-.36-.17-.36-.51a9.91,9.91,0,0,0-.29-3V318c0,.43-.07.46-.24.48l-.8.09c-.14,0-.14,0-.14-.36v-4.81a10.67,10.67,0,0,1-1.83,3.06v0a30.29,30.29,0,0,0,1.63-6.77h-1.42l-.05-.18h1.68v-5.73c.11,0,1.17.11,1.38.15.06,0,.14,0,.14.09s-.29.24-.34.26v5.23h.35l.47-1c.07-.11.11-.21.13-.21a7,7,0,0,1,.94,1.17Zm-5.7-4.75a3.79,3.79,0,0,1,1.32,2.75c0,1-.48,1.11-.76,1.11s-.35-.18-.35-.5a14.26,14.26,0,0,0-.23-3.33Zm7.5,6.34.36-.79c.07-.16.09-.22.15-.22a4.28,4.28,0,0,1,1.24,1.49c0,.22-.18.3-.44.41v4.95c0,1.09-.13,1.63-1.31,1.63-.28,0-.28-.13-.28-.29,0-.76,0-1.53-.95-1.88v-.07c1.3.05,1.3,0,1.3-.51v-1.23h-2.16v3.52c0,.27,0,.37-.21.38l-.84.1c-.21,0-.21-.16-.21-.4V310.7c.54.15,1.07.29,1.33.39Zm-2.09.17v1.44h2.16v-1.44Zm0,1.62v1.5h2.16v-1.5Z"/><path d="M197.71,306.91l.35-.58c.12-.17.14-.19.18-.19a8.69,8.69,0,0,1,1.09,1.78c0,.16-.05.19-.64.3-.24.56-.51,1.15-.92,1.94a2.91,2.91,0,0,1,1.51,2.48c0,1-.54,1.07-.69,1.07-.35,0-.36-.38-.37-.56a8.65,8.65,0,0,0-.53-2.69v7.64c0,.22,0,.38-.2.4l-.9.09c-.16,0-.18-.11-.18-.35v-5.78a6,6,0,0,1-1.42,1.48l0,0a29,29,0,0,0,2.57-6.81h-2.23l-.05-.19h1.15v-3.19c.43,0,1.25.21,1.43.26s.17,0,.17.14,0,.13-.32.26v2.53Zm3.63-.24v-3.06c1.49.24,1.59.31,1.59.45s0,.13-.34.26v2.35h.59l.32-.66c.13-.24.14-.25.19-.25a7.2,7.2,0,0,1,1.17,1.58c0,.13,0,.15-.29.42v6.48c0,.29,0,.37-.23.38l-.78.1c-.22,0-.24-.11-.24-.37v-.88h-.73v4.68c0,.17,0,.4-.19.41l-.82.08c-.24,0-.24-.09-.24-.35v-4.82h-.68v1c0,.16,0,.35-.19.37l-.82.1c-.1,0-.2,0-.2-.34v-8.42a6.83,6.83,0,0,1,1.23.48Zm-.68.19v3h.68v-3Zm0,3.16v3.26h.68V310Zm1.93-3.16v3h.73v-3Zm0,3.16v3.26h.73V310Z"/><path d="M213.23,308.11v-4.32c.16,0,1.65.11,1.65.35s-.07.16-.31.27v3.7h1.64l.55-1.28c.06-.13.09-.19.13-.19a8.27,8.27,0,0,1,1.19,1.53c0,.12-.07.12-.13.12h-3.38v4.06h1l.62-1.31c.08-.18.09-.19.13-.19a9.24,9.24,0,0,1,1.21,1.58c0,.11-.06.11-.13.11h-2.8v5.19h1.91l.62-1.36c.07-.16.09-.19.13-.19a8.81,8.81,0,0,1,1.24,1.61c0,.13-.06.13-.12.13h-9.42l-.05-.19h4.35v-5.19H210.5l-.05-.19h2.78v-4.06h-1.8a16.25,16.25,0,0,1-2.46,5.34h0a39.25,39.25,0,0,0,1.72-9c.25.06,1.73.51,1.73.67s-.13.14-.31.18c-.21,1.12-.39,1.87-.6,2.62Z"/><path d="M228.22,314.48v-2.77h-.77v.85c0,.21,0,.37-.18.38l-.79.1h-.1a26.18,26.18,0,0,1-3.65,2.93c-.06-.34-.35-1.94-.42-2.29l1.32-.3v-3.75h-1.09l0-.19h1.14v-4.05h-1.26l-.06-.18h2.34l.52-1.12c.07-.13.09-.19.13-.19s.86,1,1,1.12v-.72a9,9,0,0,1,1.18.55h2.75l.42-.93c.07-.16.07-.18.11-.18a6.36,6.36,0,0,1,1.24,1.52c0,.16-.31.45-.44.56v6.32c0,.42,0,.48-.22.5l-.86.1c-.17,0-.17-.07-.17-.23v-.8h-.85v2.77h.41l.54-1.18c.06-.15.08-.21.12-.21a8,8,0,0,1,1.14,1.47c0,.1-.08.1-.13.1h-2.08v3.15h.64l.6-1.34c.06-.15.09-.2.13-.2a9.26,9.26,0,0,1,1.22,1.62c0,.1-.07.1-.13.1h-7.66l0-.18h4v-3.15h-2.34l0-.18Zm-3.34-9.09v4.05h0l.43-1.15c0-.15.07-.21.14-.21s.26.32.8,1.25v-3.94Zm0,4.24v3.47l1.4-.3a.53.53,0,0,1,0-.14v-3.05l-.08,0Zm2.57-4.59v3h.77v-3Zm0,3.23v3.27h.77v-3.27Zm2-3.23v3h.85v-3Zm0,3.23v3.27h.85v-3.27Z"/><path d="M243.53,313.22l.64-1.38c.07-.16.08-.19.13-.19a8.73,8.73,0,0,1,1.2,1.65c0,.11-.07.11-.14.11h-4.05v3.23c0,1,0,1.94-1.57,1.94-.37,0-.37-.1-.37-.4a2.68,2.68,0,0,0-.14-1.09,2,2,0,0,0-1-.88v0l1.46.11c.28,0,.28-.12.28-.65v-2.21h-4.08l0-.19H240v-1.67c.14,0,.62.11.92.18a11.47,11.47,0,0,0,.81-1.76h-3.91l0-.19h3.92l.32-.58c.08-.13.15-.26.21-.26s.15.1.2.16.66.88.74,1c.18-.56.44-1.81.51-2.22h-6.12a9.92,9.92,0,0,1,.08,1.26c0,1.23-.52,2-1,2s-.72-.7-.72-1.07a.71.71,0,0,1,.17-.48,6.37,6.37,0,0,0,1.16-3.12h0c.08.32.15.64.25,1.26h4.32a30,30,0,0,0,.84-3.89c1,.58,1.06.65,1.6,1a.22.22,0,0,1,.11.16c0,.05,0,.16-.34.1a14.05,14.05,0,0,1-1.91,2.65h1.48l.37-.62c.08-.14.14-.21.2-.21s.36.4.48.58a8,8,0,0,1,.85,1.63.24.24,0,0,1-.28.26,3,3,0,0,1-.49-.07,9.17,9.17,0,0,1-1.51,1c.27.39.3.44.3.58,0,.38-.41.32-.69.29a13.41,13.41,0,0,1-1.47.73c.11,0,.19,0,.19.15s-.2.22-.27.24v1Zm-6.34-9.35c.42.11,2.15.58,2.15,2.3,0,.9-.45,1.25-.87,1.25-.25,0-.31-.06-.35-.51a7.55,7.55,0,0,0-1-3Zm2.12-.16c1,.25,2.16.85,2.16,2.24,0,.93-.49,1.38-.88,1.38-.17,0-.23-.1-.25-.36a8.53,8.53,0,0,0-1-3.23Z"/><path d="M257.14,305l.6-1.18c.06-.13.09-.18.14-.18a7,7,0,0,1,1.06,1.43c0,.11-.08.11-.14.11h-1.14V310h.09l.48-1.28c0-.11.07-.19.11-.19a8.48,8.48,0,0,1,.85,1.55c0,.11-.06.11-.11.11h-1.42v7.91c0,.27,0,.38-.2.4l-.83.08c-.21,0-.24,0-.24-.29v-8.1h-.82c0,5.67-.9,6.95-3.41,8.42v0c1.93-2.11,2.15-3.78,2.15-8.39h-.47c0,.18,0,.26-.39.48v5.37c0,.19,0,.33-.15.35l-.84.08c-.15,0-.24,0-.24-.29v-.93h-.62v2.27c0,.18,0,.34-.16.36l-.88.09c-.18,0-.2-.11-.2-.29v-6.19a11.5,11.5,0,0,1-1.28,2l0,0a26,26,0,0,0,1.66-8.29h-1.33l0-.18H252l.56-1.12c.08-.16.09-.19.13-.19a8.9,8.9,0,0,1,1.13,1.31Zm-2.84.18h-2.16a19.33,19.33,0,0,1-.87,4.14l.36.18h.5l.33-.7c.06-.12.1-.2.19-.2s1,1.22,1.1,1.41h.55Zm-2.71,4.5v5.39h.62V309.7Zm4.8.33V305.2h-.82V310Z"/><path d="M268.34,312.1l.35-.79c0-.09.1-.24.2-.24a4.6,4.6,0,0,1,1.3,1.51c0,.16-.05.19-.48.48l-.08,2.73c0,.45,0,.52.23.55a8.73,8.73,0,0,0,.91,0c.35,0,.47,0,.59-.34a17.82,17.82,0,0,0,.71-2.32l0,0c0,.56-.05,1.25-.05,1.81a1,1,0,0,0,.22.78,1.26,1.26,0,0,1,.19.71c0,1.23-.67,1.23-1.36,1.23-2.72,0-2.87,0-2.82-1.6l.14-4.37-1.19.06c-.2,2.43-.93,5.32-4.29,6.24l0,0c2.44-1.64,2.85-4.23,3-6.1l-2.75.17-.06-.17,2.82-.19c.06-.95.07-1.52.06-2.73.19,0,1.62.25,1.62.47s-.2.14-.29.16c0,1,0,1.42-.08,2Zm.89-6.13v1.93c0,.66,0,.66,1.19.66.78,0,1.1,0,1.52-1.57l0,0c0,.16,0,.54,0,.75,0,.41,0,.46.14.67a1.38,1.38,0,0,1,.2.78c0,1.16-.79,1.16-2.09,1.16-2.19,0-2.19-.42-2.19-2V306h-1.73l1,.65c.1.07.15.1.15.18s-.14.11-.34.13c-.82,2.17-1.76,3.61-3.92,4.56v0A10.44,10.44,0,0,0,265.8,306h-1.27a7.91,7.91,0,0,1,.07,1c0,1.34-.5,1.84-.86,1.84s-.77-.51-.77-1.09c0-.16.11-.32.34-.69a5.42,5.42,0,0,0,.92-2.32h0c.07.31.15.61.23,1.07h2.55v-2c.19,0,1.62.13,1.62.35s-.09.13-.29.21v1.44h2.31l.37-.75c.1-.19.14-.22.19-.22a5.8,5.8,0,0,1,1.28,1.76c0,.24-.21.25-.5.25a14,14,0,0,1-1.74,1v0a8.4,8.4,0,0,0,.46-1.85Z"/><path d="M279.58,308.24l.36-.77c.06-.13.12-.26.16-.26a7.29,7.29,0,0,1,1.07,1.38.28.28,0,0,1,0,.15c0,.14,0,.19-.34.44v3.64c0,.32,0,.49-.24.52l-.81.1c-.22,0-.22-.1-.22-.37v-.56h-1.15c0,3.75-1.18,5.09-2.06,5.83l0,0c.53-1.08.83-2.36.83-5.46v-5.2c.21.09,1.17.49,1.37.59Zm-.27-2.93.54-1.27c0-.08.08-.2.13-.2a8.42,8.42,0,0,1,1.19,1.53c0,.13-.07.13-.14.13h-4.42l-.05-.19Zm-.87,3.12v3.91h1.15v-3.91Zm4.27,1.38h1.4l.65-1.38c0-.1.09-.19.13-.19a9,9,0,0,1,1.2,1.65c0,.11-.07.11-.12.11h-1.13v8.15c0,.19,0,.38-.18.4l-.84.08c-.24,0-.25-.07-.25-.42V310h-.86c0,3.41-.09,6.88-3.38,8.51l0,0c2.13-2.33,2.13-4.94,2.13-8.3V305.1c.23.08,1,.37,1.26.48a12.1,12.1,0,0,0,1.68-1.74c.16.12.91.83,1.09,1s.45.4.45.51-.06.13-.15.13l-.24,0a11.71,11.71,0,0,1-2.82.43Z"/><path d="M294,308.85a16.36,16.36,0,0,1-1.05,1.68h.59l.32-.63c0-.06.08-.16.14-.16a5.42,5.42,0,0,1,1.09,1.49c0,.23-.21.24-.54.26l-.83.8a.17.17,0,0,1,.17.16c0,.16-.24.22-.31.24v.69l2-.34v.06a19.68,19.68,0,0,1-2,1.3v2.39c0,.78,0,1.77-1.27,1.77-.37,0-.37-.08-.39-.53a1.61,1.61,0,0,0-1.12-1.6v-.06l1.18.13c.4,0,.4-.15.4-.61V315c-.49.26-.77.39-1.67.79,0-.28-.07-.45-.31-1.91l2-.34V312a6.85,6.85,0,0,0,.76.16,10.38,10.38,0,0,0,.43-1.44h-.75a11.23,11.23,0,0,1-3,2.84l0-.07a16.42,16.42,0,0,0,2-2.77h-1.39l-.05-.17h1.54c.5-.83.85-1.6.9-1.68H290l-.06-.19h1.71v-2.18h-1.29l-.05-.19h1.34v-2.58c.24.05,1.27.21,1.47.3a.14.14,0,0,1,.07.13c0,.16-.18.19-.32.24v1.87l.32-.75c0-.09.08-.19.13-.19a4.65,4.65,0,0,1,.6.72c.19-.58.31-1,.48-1.67.27.18.93.66,1.19.85s.33.28.33.37-.09.13-.17.13a1.36,1.36,0,0,1-.27-.06c-.61,1.44-.92,2.12-1.38,3h.45l.43-1c0-.08.08-.19.11-.19a6.6,6.6,0,0,1,.65.94c.24-1.58.38-3.14.49-4.77.31.08.67.19,1.16.35s.52.16.52.31-.12.16-.32.18a33.63,33.63,0,0,1-.82,3.68h1.1l.62-1.16c0-.06.08-.19.11-.19a10.67,10.67,0,0,1,1.08,1.41c0,.11,0,.13-.08.13h-1.32c.83.57.93.64.93.75s-.15.14-.34.16a18.75,18.75,0,0,1-1.35,5.46,6,6,0,0,0,2.39,1.84v.06a2,2,0,0,0-.72,1.25c-.08.56-.09.61-.23.61s-1.22-.43-2.19-2.5a6.16,6.16,0,0,1-3.45,2.56l0,0a8.68,8.68,0,0,0,3-3.81,15.7,15.7,0,0,1-.46-4,13.37,13.37,0,0,1-1,1.79l0,0a23,23,0,0,0,.82-3.66Zm-1.08-.19c.45-1,.55-1.32.86-2.18h-.91v2.18Zm3.79-.26a18.64,18.64,0,0,1-.71,2,11.82,11.82,0,0,0,.75,3.06,24.93,24.93,0,0,0,.83-5.06Z"/><path d="M306.16,307.68l.34-.9c.05-.13.08-.19.12-.19a6,6,0,0,1,.79,1.15c0,.13-.08.13-.14.13h-1.22v2.43l.86-.25v0a11,11,0,0,1-.86,1.1v5.65a2.53,2.53,0,0,1-.12,1.14,1.44,1.44,0,0,1-1.23.67c-.21,0-.21-.21-.21-.54,0-.77-.05-1.27-.91-1.67v0l1,0c.22,0,.22,0,.22-.59v-3.25l-1,.91c-.11-.51-.3-1.56-.43-2.48.22,0,1.19-.32,1.39-.36v-2.79h-1.25l0-.19h1.29v-3.89c.16,0,1.43.21,1.5.22s.1,0,.1.11-.21.18-.34.23v3.33Zm4.43,1.76a34.2,34.2,0,0,0,.41-3.57,26.44,26.44,0,0,1-4.14.3v-.06a17.37,17.37,0,0,0,4.34-2.37c.23.26,1.32,1.35,1.53,1.58a.42.42,0,0,1,.13.23c0,.08-.08.08-.11.08a.57.57,0,0,1-.24-.06c-.35.08-1,.2-1.48.28.29.15,1.2.55,1.41.61s.19.08.19.18,0,.11-.34.16a16.9,16.9,0,0,1-1.53,2.64h.71l.35-.61c.05-.09.12-.22.18-.22a6.9,6.9,0,0,1,1.13,1.73c0,.17-.06.19-.52.22a7.11,7.11,0,0,1-1.09.88c.06.08.49.54.55.61a.35.35,0,0,1,.09.22c0,.21-.11.24-.57.31a14,14,0,0,1-1.31,2.62,6,6,0,0,0,2.88,1.12v.05c-.6.37-.65,1.15-.71,1.78,0,.14-.08.27-.18.27a5.05,5.05,0,0,1-2.81-2.15,7.43,7.43,0,0,1-3.24,2.24v-.06a12.57,12.57,0,0,0,2.68-3.22,15,15,0,0,1-.84-3.42h-.32c-.23.69-.56.69-.7.69s-.63-.29-.63-.88a.78.78,0,0,1,.16-.52,3.79,3.79,0,0,0,.68-2.35h0a4.08,4.08,0,0,1,.29.69Zm-3.21-3.11a2,2,0,0,1,1.54,1.83c0,.67-.35,1.07-.71,1.07s-.33-.16-.38-.77a4.61,4.61,0,0,0-.45-2.09Zm.26,3.28a5.18,5.18,0,0,1,.24,1.41,3,3,0,0,1-.07.6h2.54l.37-.6c.12-.2.14-.22.18-.22s.07,0,.35.34c.11-.53.2-1,.27-1.53Zm.52,2.2a6.9,6.9,0,0,0,1.25,2.53,14.75,14.75,0,0,0,1-2.53Zm.76-5.62c.94.42,1.56,1,1.56,1.94,0,.53-.23,1.07-.71,1.07s-.47-.35-.48-.59a5.47,5.47,0,0,0-.38-2.39Z"/><path d="M320.53,315.62c0,1.33-.7,2.43-1.58,2.43s-1.58-1.1-1.58-2.43.72-2.44,1.58-2.44S320.53,314.26,320.53,315.62Zm-2.75,0c0,1,.53,1.79,1.17,1.79s1.17-.82,1.17-1.79-.53-1.8-1.17-1.8S317.78,314.61,317.78,315.62Z"/><path d="M41.06,330l.6-1.18c.06-.13.09-.18.14-.18a7,7,0,0,1,1.06,1.43c0,.11-.08.11-.14.11H41.58V335h.09l.48-1.28c0-.11.07-.19.11-.19a8.48,8.48,0,0,1,.85,1.55c0,.11,0,.11-.11.11H41.58v7.91c0,.27,0,.38-.2.4l-.83.08c-.21,0-.24,0-.24-.29v-8.1h-.82c0,5.67-.9,6.95-3.41,8.42v0c1.93-2.11,2.15-3.78,2.15-8.39h-.47c0,.18,0,.26-.39.48v5.37c0,.19,0,.33-.15.35l-.84.08c-.15,0-.24,0-.24-.29v-.93h-.62v2.27c0,.18,0,.34-.16.36l-.88.09c-.18,0-.2-.11-.2-.29v-6.19a11.5,11.5,0,0,1-1.28,2l0,0a25.72,25.72,0,0,0,1.66-8.29H33.3l0-.18h2.67l.56-1.12c.08-.16.09-.19.13-.19A8.9,8.9,0,0,1,37.74,330Zm-2.84.18H36.06a19.33,19.33,0,0,1-.87,4.14l.36.18h.5l.33-.7c.06-.12.1-.2.19-.2s1,1.22,1.1,1.41h.55Zm-2.71,4.5v5.39h.62V334.7Zm4.8.33V330.2h-.82V335Z"/><path d="M52.26,337.1l.35-.79c0-.09.1-.24.2-.24a4.6,4.6,0,0,1,1.3,1.51c0,.16,0,.19-.48.48l-.08,2.73c0,.45,0,.52.23.55a8.73,8.73,0,0,0,.91,0c.36,0,.47,0,.59-.34a17.82,17.82,0,0,0,.71-2.32l0,0c0,.56-.05,1.25-.05,1.81a1,1,0,0,0,.22.78,1.26,1.26,0,0,1,.19.71c0,1.23-.67,1.23-1.35,1.23-2.73,0-2.88,0-2.83-1.6l.14-4.37-1.19.06c-.2,2.43-.93,5.32-4.29,6.24l0,0c2.44-1.64,2.85-4.23,3-6.1l-2.75.17-.06-.17,2.82-.19c.06-.95.08-1.52.06-2.73.19,0,1.62.25,1.62.47s-.2.14-.29.16c0,1,0,1.42-.08,2Zm.89-6.13v1.93c0,.66,0,.66,1.19.66.78,0,1.1,0,1.52-1.57l0,0c0,.16,0,.54,0,.75,0,.41,0,.46.14.67a1.38,1.38,0,0,1,.2.78c0,1.16-.79,1.16-2.09,1.16-2.19,0-2.19-.42-2.19-2V331H50.2l1,.65c.1.07.15.1.15.18s-.14.11-.34.13c-.82,2.17-1.76,3.61-3.92,4.56v0A10.44,10.44,0,0,0,49.72,331H48.45a7.91,7.91,0,0,1,.07,1c0,1.34-.5,1.84-.86,1.84s-.77-.51-.77-1.09c0-.16.11-.32.34-.69a5.42,5.42,0,0,0,.92-2.32h0c.07.31.15.61.23,1.07H51v-2c.19,0,1.62.13,1.62.35s-.09.13-.29.21v1.44h2.31L55,330c.1-.19.14-.22.19-.22a5.8,5.8,0,0,1,1.28,1.76c0,.24-.21.25-.5.25a14,14,0,0,1-1.74,1v0a8.4,8.4,0,0,0,.46-1.85Z"/><path d="M60.27,343.47A13.55,13.55,0,0,0,63.63,340l1,1.06a3.17,3.17,0,0,1,.4.51c0,.08-.08.09-.11.09s-.07,0-.27-.09a9.76,9.76,0,0,1-4.34,1.93Zm2.62-3.64v.29c0,.19,0,.32-.19.34l-.9.08c-.17,0-.18-.07-.18-.31v-6.72A9.72,9.72,0,0,1,63,334h4.44l.34-.82.09-.17-.81.08c-.15,0-.15-.05-.15-.26v-.4H63.41v.4c0,.27,0,.34-.23.35l-.88.1c-.18,0-.2-.07-.2-.29V329.3a7.84,7.84,0,0,1,1.44.42H66.8l.39-.87c.11-.22.12-.25.17-.25a8.06,8.06,0,0,1,1.23,1.52c0,.12,0,.16-.43.41v2.16c0,.23,0,.24-.23.26.19.18,1.23,1.25,1.23,1.5s-.28.34-.43.41V340c0,.25,0,.28-.21.3l-.82.1c-.12,0-.25,0-.25-.32v-.28Zm4.56-4v-1.67H62.89v1.67Zm0,1.86V336H62.89v1.67Zm0,2v-1.79H62.89v1.79Zm-4-9.75v2.31h3.47v-2.31Zm1.88,10.34c3.86-.06,4.11,1.83,4.11,2.26,0,.67-.41,1.14-.75,1.14-.18,0-.2,0-.48-.47a8.73,8.73,0,0,0-2.88-2.89Z"/><path d="M77.77,331.19c.08.16.12.16.48.19s.5.21.5.71c0,.75-.56,1.15-1.73,1.79-.17,1.82-.22,2.22-.3,2.74.16-.29.87-1.6,1-1.84,1.27-2.07,2.21-2.26,2.82-2.26a1.8,1.8,0,0,1,1.93,1.79c0,.47-.22.91-.54.91a.3.3,0,0,1-.2-.06c-.41-.22-.52-.29-.7-.29-.39,0-.67.21-1.35.74v-.07a2.41,2.41,0,0,0,.66-1.21c0-.16-.08-.63-.76-.63s-2.11.88-3.11,4.77a26.16,26.16,0,0,0-.73,3.75c-.11.88-.61.93-.79.93-.45,0-.57-1.19-.57-1.57a2.23,2.23,0,0,1,.3-1.07A28.08,28.08,0,0,0,76,334.44a1.8,1.8,0,0,1-.74.19c-1.1,0-1.18-1.76-1.18-2.1a.9.9,0,0,0,.76.48,4.46,4.46,0,0,0,1.35-.49c.06-.58.16-1.65.16-2.18,0-.38,0-.78-.5-.89a.94.94,0,0,1,.81-.68c.48,0,.85.69.85,1.11,0,.17-.14,1-.17,1.15,0,.4,0,.46-.09.86.39-.27.45-.35.51-.7Zm.64,8.4c0,.71.27,1.4,1.13,1.4a6.56,6.56,0,0,0,1.35-.21s.69-.19.73-.19c.4,0,.65.67.65,1.21,0,.91-.76,1.14-1.83,1.14-1.24,0-2.36-.15-2.36-2.37a7.57,7.57,0,0,1,.59-2.85A8.7,8.7,0,0,0,78.41,339.59Z"/><path d="M91.08,331a1.86,1.86,0,0,0,1,.27c.3,0,.67,0,.67.77a1,1,0,0,1-.67,1,14.83,14.83,0,0,1-2.43,1c-.21,1.37-.48,2.67-.79,4,1.19-1.47,1.92-1.69,2.42-1.69,1.09,0,2.39,1.2,2.39,3.7s-1.35,3.5-5.59,3.34v-.06c4-.52,4.28-2.47,4.28-3.88,0-1.23-.45-2.46-1.29-2.46s-1.54,1.23-2.29,2.88c-.09.18-.39,1-.47,1.1a.7.7,0,0,1-.59.4c-.69,0-.69-1.61-.69-1.68a1.3,1.3,0,0,1,.31-.86,17,17,0,0,0,1.32-4.6,4.49,4.49,0,0,1-.55.07c-.31,0-1.11,0-1.11-1.52a6.5,6.5,0,0,1,.09-1.06c.23.88.41,1,1.14,1a2.69,2.69,0,0,0,.66-.08,19.68,19.68,0,0,0,.22-2.39c0-.57-.15-.64-.46-.72.12-.24.32-.66.68-.66a1.37,1.37,0,0,1,1.1,1.3,1.18,1.18,0,0,1-.17.58,5.79,5.79,0,0,0-.31,1.49c.14-.07,1.17-.58,1.17-1.06a.32.32,0,0,0,0-.16Z"/><path d="M100.3,336.12c-.06.3-.33,1.65-.36,1.86a11.46,11.46,0,0,0-.21,2,4.69,4.69,0,0,0,.15,1.3,3.69,3.69,0,0,1,.16.89c0,.34-.28.82-.56.82-.67,0-1.18-1.91-1.18-4.58a56.25,56.25,0,0,1,.5-6.08,14.69,14.69,0,0,0,.1-1.73,4.66,4.66,0,0,0-.23-1.51,5.7,5.7,0,0,1,1.27,3.43,20.22,20.22,0,0,1-.5,3.36,12.54,12.54,0,0,0-.24,2.4c0,.43,0,.56.08.56s.21-.41.27-.61c.21-.6.51-1.56.72-2.17Zm1.81,2.79c0,1.53.85,1.53,1.15,1.53a6.11,6.11,0,0,0,1.84-.4,2,2,0,0,1,.75-.19c.28,0,.65.16.65.88a1.38,1.38,0,0,1-.5,1.17,3.38,3.38,0,0,1-2,.57,1.8,1.8,0,0,1-1.78-.91,3.43,3.43,0,0,1-.48-1.74,4.13,4.13,0,0,1,.44-1.8A4.13,4.13,0,0,0,102.11,338.91Zm1.07-7.83a2.37,2.37,0,0,0,1-.32c.82-.48.86-.5,1-.5a1,1,0,0,1,.83,1c0,1.17-1.63,1.31-2,1.31s-1.16,0-1.55-2C102.63,330.85,102.84,331.08,103.18,331.08Z"/><path d="M116.4,338.41c.35,1.29.49,1.81.88,2.08s.57.4.57.82a2,2,0,0,1-.49,1.2,3.43,3.43,0,0,1-2.38.75c-1,0-2.43-.19-2.43-3.43,0,0,0-.56,0-1.63-.55-.1-1.82-.38-1.82-1.62a3.68,3.68,0,0,1,1.13-2.09,2.39,2.39,0,0,0-.39,1.15c0,.7.67.82,1.17.9,0-.23.13-2.42.14-2.5a1.72,1.72,0,0,1-1.64-1,2.78,2.78,0,0,1-.33-1.44c.14.33.39,1,1.63,1a4.1,4.1,0,0,0,.42,0c0-.77,0-.87,0-1.19,0-1.37-.22-1.44-.52-1.44a.9.9,0,0,0-.23,0c.19-.64.44-.88.82-.88.58,0,1.06.6,1.06,1.46,0,.3-.1,1.46-.14,1.84a2.49,2.49,0,0,0,.85-.4c.62.34.92.51.92,1.09s-.3,1-1.93,1.05c0,.52-.21,2.13-.24,2.52a2.82,2.82,0,0,0,1.8-.61,1.46,1.46,0,0,0,.7.14c.13,0,.67,0,.67.85s-.43.88-.89,1a9.06,9.06,0,0,1-2.38.27c0,.94,0,1.42,0,1.52,0,1.07.17,1.65,1,1.65.07,0,1.58,0,1.95-.58a2,2,0,0,0,.15-.89c0-.25,0-.74-.1-1.51Z"/><path d="M129.3,330.82l.57-1.33c.06-.14.09-.19.13-.19a10.44,10.44,0,0,1,1.28,1.6c0,.11-.07.11-.14.11h-6.75a12.56,12.56,0,0,1-2.67,4l0,0a25.29,25.29,0,0,0,1.81-6.25c.29.12,1.4.53,1.64.61s.14.07.14.15-.28.21-.36.21a11.77,11.77,0,0,1-.46,1.13Zm-7.48,12.77A22.74,22.74,0,0,0,124.5,339a18.13,18.13,0,0,0-2.17-2.79v0a20.46,20.46,0,0,1,2.67,1.63,20.38,20.38,0,0,0,.93-2.8c.58.47,1.11.93,1.34,1.12a.38.38,0,0,1,.12.21c0,.1-.07.11-.1.11a1.2,1.2,0,0,1-.24-.06,15.12,15.12,0,0,1-1,2.35,5,5,0,0,1,1.52,3.19c0,1.17-.63,1.39-.79,1.39s-.26-.14-.37-.45a18,18,0,0,0-1.18-2.73,11.16,11.16,0,0,1-3.36,3.52Zm.53-8.81,0-.2h5.82l.37-.81c0-.11.09-.21.17-.21s.17.08.42.38a5.51,5.51,0,0,1,.85,1.24c0,.24-.32.39-.42.44a14.1,14.1,0,0,0,.32,4.16c.14.49.4,1,.54,1s.59-1,1-2h0c-.05.41-.28,2-.28,2.37a1.28,1.28,0,0,0,.15.69,1.47,1.47,0,0,1,.2.74c0,.46-.22,1.1-.68,1.1s-1.23-.57-1.81-2.13a20.34,20.34,0,0,1-.71-6.4v-.33Zm6.47-2.13.56-1.11c.08-.14.09-.21.13-.21a8.05,8.05,0,0,1,1.11,1.4c0,.11-.07.11-.13.11H124l-.05-.19Z"/><path d="M138.72,333l.33-.65c.16-.31.17-.35.23-.35a4.31,4.31,0,0,1,1.06,1.37c0,.21-.25.31-.39.36v2.56a9.87,9.87,0,0,0,1.65-2.45,10.82,10.82,0,0,1-.82-3.65H140L140,330h3l.36-.71c.11-.21.15-.27.22-.27s.24.14.32.24a4.69,4.69,0,0,1,.87,1.15c0,.18-.05.21-.52.45a12.51,12.51,0,0,1-1.28,2.79,5.55,5.55,0,0,0,2.25,1v.06a2.14,2.14,0,0,0-.6,1.31c0,.32-.06.6-.26.6a3.88,3.88,0,0,1-2.19-1.81A5.86,5.86,0,0,1,140,336.6v1.25c0,.25,0,.37-.18.38l-.7.08-.16,0c-.09,0-.11-.08-.11-.24v-.49h-.4v2.3h.33l.47-1c.08-.15.09-.16.12-.16a6,6,0,0,1,1.05,1.2c0,.11,0,.13-.08.13H138.4v3c0,.34,0,.39-.17.4l-.8.1c-.17,0-.24,0-.24-.27v-3.23H135.3l-.06-.2h1.95v-2.3h-.41v.51c0,.3,0,.37-.2.4l-.71.1c-.21,0-.22,0-.22-.31v-5.74A5.3,5.3,0,0,1,137,333h.18v-1.77h-1.74l0-.19h1.79v-2.31a13.28,13.28,0,0,1,1.4.22s.09,0,.09.12,0,.11-.28.22v1.75h.27l.47-1c.08-.16.09-.18.12-.18a7.11,7.11,0,0,1,1,1.2c0,.11,0,.13-.08.13H138.4V333Zm-1.53,2.17v-2h-.41v2Zm0,2.25v-2.06h-.41v2.06Zm1.21-4.22v2h.4v-2Zm0,2.16v2.06h.4v-2.06Zm3,.8c.11,0,1.56.17,1.56.35s0,.11-.3.22v1.8H143l.52-1.16c.06-.12.09-.17.12-.17a7.38,7.38,0,0,1,1,1.39c0,.11,0,.13-.08.13h-1.87v4h.41l.6-1.24c.07-.16.08-.18.12-.18a6.75,6.75,0,0,1,1.12,1.49c0,.11,0,.13-.08.13h-6.07l-.05-.2h2.69v-4H140l-.05-.19h1.5Zm-.57-6a5.93,5.93,0,0,0,1.18,2.67,21.13,21.13,0,0,0,1-2.67Z"/><path d="M151.48,336.12c-.06.3-.33,1.65-.36,1.86a11.46,11.46,0,0,0-.21,2,5.13,5.13,0,0,0,.14,1.3,3.46,3.46,0,0,1,.17.89c0,.34-.28.82-.56.82-.67,0-1.18-1.91-1.18-4.58a53.44,53.44,0,0,1,.5-6.08,14.69,14.69,0,0,0,.1-1.73,4.66,4.66,0,0,0-.23-1.51,5.7,5.7,0,0,1,1.27,3.43,21.62,21.62,0,0,1-.5,3.36,12.54,12.54,0,0,0-.24,2.4c0,.43,0,.56.08.56s.21-.41.27-.61c.21-.6.51-1.56.72-2.17Zm1.81,2.79c0,1.53.84,1.53,1.15,1.53a6.17,6.17,0,0,0,1.84-.4,2,2,0,0,1,.75-.19c.28,0,.65.16.65.88a1.38,1.38,0,0,1-.51,1.17,3.34,3.34,0,0,1-2,.57,1.79,1.79,0,0,1-1.78-.91,3.34,3.34,0,0,1-.48-1.74,4.21,4.21,0,0,1,.43-1.8A5,5,0,0,0,153.29,338.91Zm1.07-7.83a2.43,2.43,0,0,0,1-.32c.82-.48.85-.5,1-.5a1,1,0,0,1,.83,1c0,1.17-1.63,1.31-2,1.31s-1.15,0-1.54-2C153.81,330.85,154,331.08,154.36,331.08Z"/><path d="M164.55,332.65l.42-1.06c.06-.16.08-.21.12-.21a7.17,7.17,0,0,1,.93,1.33c0,.13-.07.13-.13.13h-1.48v2.82l1.24-.24v.06a17.12,17.12,0,0,1-1.24,1.28V342a2.22,2.22,0,0,1-.15,1.08,1.53,1.53,0,0,1-1.14.49c-.25,0-.25-.05-.25-.57,0-.9-.17-1.14-1-1.57v-.07c.15,0,.82.07,1,.07s.32,0,.32-.43v-3.13a8.1,8.1,0,0,1-1,.71c0-.16-.36-1.6-.48-2.37l1.46-.29v-3.07h-1.3l-.05-.19h1.35v-3.83c.13,0,1.63.13,1.63.3s-.25.23-.36.24v3.29Zm4.63,4.88,1,.54a.2.2,0,0,1,.11.15c0,.06-.13.09-.39.12a13.41,13.41,0,0,1-.66,2c.26.12,1.73.74,1.73,2,0,.7-.35,1.15-.72,1.15-.18,0-.2-.05-.36-.37a6.94,6.94,0,0,0-1.23-1.74,6.13,6.13,0,0,1-4.16,2.22v0a6.94,6.94,0,0,0,3.26-3,3.9,3.9,0,0,0-.92-.54c-.24.73-.28.78-.46.73l-.9-.22c-.11,0-.14-.06-.14-.14a.82.82,0,0,1,.09-.31c.35-1,.58-1.71.82-2.51h-1.48l0-.19h1.57c.36-1.3.47-1.73.59-2.26h-2l0-.19h3.58c.23-1.17.49-3.22.53-3.64h-3a2.8,2.8,0,0,1,1.76,2.31c0,.51-.35,1.1-.88,1.1-.26,0-.26-.16-.29-.59a8,8,0,0,0-.64-2.82h-.41l-.05-.17h1.82v-2.26c.27,0,1.59.13,1.59.32s-.12.16-.31.27v1.67h.92l.52-1.19c0-.09.09-.19.14-.19a6.75,6.75,0,0,1,1.12,1.46c0,.09-.07.09-.13.09h-2c.21.08,1.47.58,1.47.74s0,.1-.29.14a23.5,23.5,0,0,1-1.7,2.76h1.15l.52-1.28c0-.05.08-.2.13-.2a6.62,6.62,0,0,1,1.14,1.57c0,.1-.07.1-.12.1h-4.43l1.31.45s.13,0,.13.13-.12.12-.3.19c-.1.43-.2.81-.4,1.49h1.85l.59-1.35c0-.11.08-.17.13-.17a7.89,7.89,0,0,1,1.18,1.61c0,.1-.07.1-.12.1Zm-1.58,0c-.21.69-.24.8-.74,2.29A6.68,6.68,0,0,1,168,340a9.08,9.08,0,0,0,.67-2.43Z"/><path d="M182.37,331.17a2.65,2.65,0,0,0,1.08.42c.69.16,1,.54,1,1,0,.22-.19.78-.46.78a9.38,9.38,0,0,1-1.2-.4,3.14,3.14,0,0,0-.86-.14c-.42,0-.94.1-1.11.11,0,1.07,0,1.59,0,2.23a7.92,7.92,0,0,1,.43,1.25,10.54,10.54,0,0,1,.27,2.43c0,4.26-3.15,4.83-4.35,4.78v-.06A3.69,3.69,0,0,0,180,340.2a.77.77,0,0,1-.65.37c-.67,0-.76-1-.81-1.57a8.76,8.76,0,0,0-.2-1.31,5.26,5.26,0,0,1-.14-1.06c0-1.17.71-2.13,1.39-2.13l.22,0c0-.16,0-.28,0-1.4a10.78,10.78,0,0,0-2.89,1.1c-.41.24-.42.26-.5.26-.24,0-.51-.31-.68-.71a5.25,5.25,0,0,1-.31-1.58,1.46,1.46,0,0,0,1,.41,12.23,12.23,0,0,0,1.46-.2c.31-.07,1.66-.37,1.94-.42,0-2.3,0-2.59-.49-2.66.07-.25.17-.64.58-.64a1.29,1.29,0,0,1,1.17,1.36c0,.15-.17,1.46-.19,1.73.09,0,1.43-.22,1.45-.22a.16.16,0,0,0,.13-.15s0-.08-.12-.17ZM178.65,337c0,.64.4,1.87.83,1.87s.54-.62.54-1.66c0-.51,0-1.44-.55-1.44A1.33,1.33,0,0,0,178.65,337Z"/><path d="M193,335.14c2.09,0,2.63,2.45,2.63,3.94,0,2.69-1.33,4-3.1,4A2,2,0,0,1,190.4,341c0-.87.43-1.78,1.31-1.78.7,0,1.15.59,1.15,1.44a1.39,1.39,0,0,1-.13.67c.47-.11,1.64-.4,1.64-3,0-.89-.16-2.67-1.59-2.67-.88,0-1.63.7-2.44,2.94a13.85,13.85,0,0,0-.48,1.88c-.06.24-.15.64-.55.64-.6,0-.68-1-.68-1.57s.07-.74.68-1.75c.16-.27,2.52-4.43,3.52-6.48a.93.93,0,0,0,.1-.35c0-.06,0-.13-.08-.13a3,3,0,0,0-.64.67c-.49.64-.66.76-1,.76-.72,0-1.08-1.12-1.15-1.7a1,1,0,0,0,.55.27c.46,0,1.44-.86,1.93-1.28s.52-.45.69-.45,1.21.24,1.21,1.6c0,.48-.11.6-.47,1a18.8,18.8,0,0,0-2.06,3.65A2.18,2.18,0,0,1,193,335.14Zm-1,5.65c0-.25-.13-.59-.44-.59s-.35.34-.35.48a.57.57,0,0,0,.56.58A.58.58,0,0,0,191.94,340.79Z"/><path d="M199.9,342.75c2.54-1.68,4.83-4.09,5.63-10.44-.41.11-3.58.62-4,1s-.42.37-.53.37c-.38,0-.95-1.23-.95-2a3.81,3.81,0,0,1,.2-1c.4.87.66,1.09,1.22,1.09a18.08,18.08,0,0,0,3.92-.51,4.2,4.2,0,0,0,.39-.5c.09-.11.19-.25.31-.25a3.82,3.82,0,0,1,1.31,1.9c0,.16-.34.55-.47.71-1,4.43-2,8.37-7.06,9.76Z"/><path d="M211.7,343.18c1.1-.51,4.51-2.08,5.72-8.52a16,16,0,0,0-4,1.27,1.19,1.19,0,0,1-1.82-1.52,2.7,2.7,0,0,1,.28-1c.28,1,.72,1,1,1s4-.29,4.57-.72c.1-.06.44-.61.53-.61s1.25,1.14,1.25,1.64c0,.27-.18.43-.52.75-.63,2.61-2.13,7.28-7,7.83Zm2.49-12.86a3.7,3.7,0,0,0,2.6-.87c.27.08,1.21.54,1.21,1.08,0,.26-.16.69-.31.74s-3.2.45-3.47.45c-1,0-1.21-.83-1.49-1.92A1.72,1.72,0,0,0,214.19,330.32Z"/><path d="M232.21,331.85a17.32,17.32,0,0,1-6.51,10,1.47,1.47,0,0,0-.48.48c-.05.05-.15.17-.24.17-.36,0-1.38-1.58-1.38-2.59a1.55,1.55,0,0,1,.35-1c.11.45.24.95.62.95.72,0,4.41-1.81,7.6-8Zm-6.27-.76a2.11,2.11,0,0,1,.94,1.78c0,.77-.39,1.33-.78,1.33s-.39-.21-.72-1a7.3,7.3,0,0,0-1.6-2.48A3.85,3.85,0,0,1,225.94,331.09Z"/><path d="M235.69,343a13.11,13.11,0,0,0,3.7-4.21,19.83,19.83,0,0,0,2.14-6.13l-1.34.26-.85.17a9.32,9.32,0,0,1-3.64,4.36l0-.05a17.29,17.29,0,0,0,3.09-7c0-.56-.32-.61-.58-.64.13-.23.31-.52.65-.52a2,2,0,0,1,1.5,1.45c0,.17,0,.2-.28.56,0,0-.28.75-.31.84a4.83,4.83,0,0,0,1.42-.25,5.6,5.6,0,0,1,.8-.51c.19,0,1.37,1.18,1.37,1.61s-.22.5-.51.69c-1.22,4.15-2.88,8-7.14,9.44Z"/><path d="M251.45,330.24a.45.45,0,0,0,.3.12l.39-.05c.35,0,.52.46.52.77,0,.7-1.32,1.6-2,2-.15.58-.39,1.53-.49,2,.71-1.16,2-3,3.79-3a2.3,2.3,0,0,1,2,2c0,.4-.22,1.09-.61,1.09-.19,0-.35-.16-.66-.47a1,1,0,0,0-.78-.38c-.61,0-.84.48-.84,1.25,0,.49.11,1.77.35,3.73a3,3,0,0,1,2,2.43c0,.3-.1,1.18-.6,1.18-.22,0-.27-.08-.77-.84a3.48,3.48,0,0,0-.56-.69c0,.86-.12,2-1.45,2-.51,0-2-.09-2-2.16s1.56-2.16,2.22-2.14c0-.5,0-1.11,0-1.65,0-2.72,1.18-3.22,1.42-3.32.44-.19.58-.23.58-.51a1.19,1.19,0,0,0-1.2-.83c-.2,0-1.66.08-2.88,3a36.5,36.5,0,0,0-1.43,4.4c-.11.4-.42.74-.66.74s-.54-.77-.54-1.6c0-.26,0-.31.29-.76a16.54,16.54,0,0,0,1.69-4.91,2.25,2.25,0,0,1-.85.19c-1,0-1.17-1.92-1.21-2.59.27.61.51.88,1.07.88a3.07,3.07,0,0,0,1.34-.37,12.1,12.1,0,0,0,.18-1.84c0-.46-.12-.69-.64-.72.29-.3.52-.54.86-.54s.91.3.91,1.21a6.26,6.26,0,0,1-.16,1.3c.22-.14.53-.35.53-.54s-.06-.18-.16-.28Zm.08,10.22c-.24,0-.87,0-.87.53s.75.8.94.8c.81,0,.8-.76.79-1.27A5,5,0,0,0,251.53,340.46Z"/><path d="M260.52,331.89a7.6,7.6,0,0,1,.64,2.79c0,1.07-.37,1.46-.75,1.46a.75.75,0,0,1-.67-.77,5.61,5.61,0,0,1,.4-1.14,7.09,7.09,0,0,0,.36-2.34Zm5.37,1.22v-4.39c1.07.18,1.2.21,1.41.26s.2.06.2.14,0,.12-.32.21v3.78h.38l.57-1.23c.06-.13.09-.19.12-.19a7.65,7.65,0,0,1,1.17,1.5c0,.11-.06.11-.12.11h-2.12v3.81h.18l.56-1.18c.1-.19.1-.21.14-.21a7.64,7.64,0,0,1,1.1,1.46c0,.12-.06.12-.12.12h-1.86v5.3h.53l.61-1.29c.08-.18.09-.2.12-.2a8.42,8.42,0,0,1,1.19,1.56c0,.11-.07.11-.14.11h-6.62l-.05-.18h3.07v-5.3h-2.12l0-.19h2.17V333.3h-.95a14.94,14.94,0,0,1-1.77,4h0a25.81,25.81,0,0,0,.6-3.23.69.69,0,0,1-.59.4c-.3,0-.33-.22-.33-.43a5.25,5.25,0,0,0-.23-2v11.2c0,.21,0,.29-.19.3l-.87.1c-.1,0-.21,0-.21-.32V328.76c.22,0,1.28.17,1.41.17s.19,0,.19.15,0,.12-.33.24v2.45a2,2,0,0,1,1.26,1.4c.18-1.69.2-2.64.21-3.12.23.07,1.08.27,1.58.45,0,0,.16.07.16.18s-.24.19-.31.19c-.1.51-.2,1.09-.51,2.24Z"/><path d="M280.67,331l.33-.63c.12-.21.15-.22.21-.22a4.39,4.39,0,0,1,.69.72c.28.33.59.69.59.85s-.51.24-.56.24a10.87,10.87,0,0,1-1.18,2.59,5.85,5.85,0,0,0,2.69,1.14v.06c-.21.11-.6.37-.69,1.44,0,.46,0,.61-.23.61a5.66,5.66,0,0,1-2.49-2.21,8.52,8.52,0,0,1-2.16,1.95c.2.07,1.16.31,1.37.39h1.51l.23-.56c.06-.13.14-.36.21-.36s.11.07.13.08l.58.6c.17.16.54.51.54.65s-.26.35-.32.4v4.4c0,.26,0,.34-.22.37l-.81.1c-.23,0-.24-.1-.24-.34v-.7h-1.93v.54c0,.26,0,.37-.23.4l-.8.1c-.17,0-.25,0-.25-.32v-5.6c-.42.25-.75.41-1.16.62l0-.06a14.46,14.46,0,0,0,3-3.8,11.43,11.43,0,0,1-.61-2.33,14.37,14.37,0,0,1-1.55,2.36,2.21,2.21,0,0,1,.36,1.29c0,1-.53,1.13-.74,1.13-.37,0-.38-.22-.39-.43a11.58,11.58,0,0,0-.32-2.62v9.28c0,.29,0,.35-.23.38l-.8.1c-.21,0-.21-.1-.21-.34v-5.38a11.85,11.85,0,0,1-1.74,2.71h0a30,30,0,0,0,1.69-8.12h-1.43l0-.17h1.54v-3.59l1.43.23c.08,0,.15,0,.15.11s0,.13-.34.22v3h.15l.45-1c0-.06.08-.2.13-.2a5.46,5.46,0,0,1,.86,1.29c0,.1,0,.11-.07.11h-1.52v1a3.79,3.79,0,0,1,1,.91,28.7,28.7,0,0,0,1.31-5.68,15.13,15.13,0,0,1,1.57.59c.08,0,.15.06.15.14s-.32.16-.37.15c-.11.33-.25.75-.53,1.41Zm-1.75,7.1v4.28h1.93v-4.28Zm.36-6.91c-.14.3-.23.48-.3.64a6.65,6.65,0,0,0,.88,1.76,14.09,14.09,0,0,0,.87-2.4Z"/><path d="M291.58,342.71c.95-.41,3.38-1.47,3.38-6.45,0-2.3-.67-5.69-3.06-5.68a4.11,4.11,0,0,1,.51,1.87c0,1.62-1.13,9.26-3.31,9.26-.7,0-.81-.68-.94-1.48a5.7,5.7,0,0,0-.49-1.66,4,4,0,0,1-.41-1.84c0-3.78,2.48-6.72,4.92-6.72,2.21,0,4.17,2.33,4.17,6.65,0,2.87-1,4.61-2.06,5.27a5.89,5.89,0,0,1-2.71.85Zm-3.34-4.91a3.38,3.38,0,0,0,.16,1.3c.13.35.39.7.6.7.82,0,2.77-5,2.8-9.19C288.61,331.29,288.24,336.55,288.24,337.8Z"/><path d="M310.38,341.37a1.7,1.7,0,0,0-.94,1.54c0,.2-.14.32-.26.32-.35,0-1.36-.8-2.28-2.93-1.12-2.58-1.22-6.64-1.26-8.45-.25,6.21-1.49,9.86-5.36,11.47l0-.05c3.76-3.36,4-8.53,4-14.39,1,.1,1.52.2,1.61.21s.15,0,.15.15,0,.11-.28.3c0,.45,0,.8,0,1,0,2.13.58,8.51,4.66,10.79Z"/><path d="M317.23,342.47c1.09-1.18,3-4.67,3.48-9.84h-.13c-.75,3.62-1.59,5.51-3.43,7l0,0a20,20,0,0,0,2-7h0a12.17,12.17,0,0,1-1.72,2.5l0-.05a17,17,0,0,0,.74-2.13h-1.06v3.14l1.52-.48v.05c-.5.54-1.17,1.13-1.53,1.45V343c0,.3-.05.41-.19.43l-.79.1c-.23,0-.25-.12-.25-.29v-5.11c-.91.72-1.31,1-1.53,1.14-.14-.79-.17-1.07-.31-2.21l1.84-.59V333h-.5a14.29,14.29,0,0,1-1.25,2.95l0,0a43.38,43.38,0,0,0,.52-5.59c.31,0,1.07.2,1.26.26v-1.83l1.33.18c.08,0,.21.05.21.18s-.24.22-.31.25v3.43l.38-.88c0-.08.1-.21.14-.21s.58.78.66.88c.49-1.87.72-3.41.8-3.86.87.34,1.13.43,1.53.63,0,0,.14.08.14.17s-.09.16-.3.21a17,17,0,0,1-1.19,2.74h2.72l.31-.79c.08-.19.13-.28.2-.28a6.19,6.19,0,0,1,1.22,1.5c0,.18-.13.29-.46.56-.14,7.7-.18,10-2.19,10-.3,0-.35,0-.35-.26a2,2,0,0,0-1.12-2.12V341c.2,0,1.18.11,1.4.11.58,0,.77,0,.88-2.11.08-1.2.19-5,.23-6.37h0a19.93,19.93,0,0,1-.68,3.54c-.82,3-1.93,4.94-4.11,6.32Zm-1.4-9.71V331a14.45,14.45,0,0,1-.44,1.79Z"/><path d="M328.6,331.59a15.56,15.56,0,0,0,1.5-.43c1.24-.35,2.47-.64,3.72-.88a1.39,1.39,0,0,0,.78-.39c.06,0,.1-.08.15-.08s1.43.53,1.43,1.46c0,.3-.15.72-.47.72a1.77,1.77,0,0,1-.6-.16,3.43,3.43,0,0,0-1-.16,2,2,0,0,0-1.85,1.52,14.47,14.47,0,0,0-.62,4.51c0,2.81.87,3.13,2,3.53a1,1,0,0,1,.76,1.07c0,.81-.25,1.1-.59,1.1a3.09,3.09,0,0,1-1.35-.43c-1.18-.67-1.77-1.84-1.77-4.48,0-2.83.79-5.49,2-6.64a8.89,8.89,0,0,0-3.09,1.32c-.46.31-.53.34-.71.34-.66,0-1.1-.91-1.1-1.84a2.54,2.54,0,0,1,.14-.93C328,331.14,328.12,331.59,328.6,331.59Zm6.89,4.58c0,.4-.18.75-.41.75s-.33-.19-.54-.8a3.81,3.81,0,0,0-.94-1.55A1.81,1.81,0,0,1,335.49,336.17ZM335,333a1.37,1.37,0,0,1,1.55,1.33c0,.45-.25.69-.4.69s-.2-.06-.51-.66a3,3,0,0,0-1.25-1.29A4.22,4.22,0,0,1,335,333Z"/><path d="M340.56,339.29a3.43,3.43,0,0,1,2.29.85,2.38,2.38,0,0,1,.65,1.66c0,.74-.31,1.25-.76,1.25s-.72-.66-.76-.85a4.65,4.65,0,0,0-1.49-2.78Z"/><path d="M42,356.33c-1.86,6.42-3.78,8.07-6,10a2.1,2.1,0,0,0-.42.48c-.11.17-.24.35-.38.35-.39,0-1.15-1.62-1.15-2,0-.18.19-.91.21-1.07.1-.64.1-3.94.1-4.81,0-2.54-.08-2.86-.8-2.83.54-.81.77-.94,1-.94.51,0,1.25,1.1,1.25,1.37s-.19.79-.21.92c-.1.62-.14,5.95-.14,6.27,2-.82,4.82-4.4,6.52-7.76Z"/><path d="M45.27,367.65A19.14,19.14,0,0,0,51,356.73a11.12,11.12,0,0,0-2.59.95c-.11.08-.53.46-.63.46a2.4,2.4,0,0,1-1.22-1.93,1.3,1.3,0,0,1,.32-.93c.06,1,.78,1,1,1s2.73-.18,3.25-.63l.33-.38a.22.22,0,0,1,.18-.12,3,3,0,0,1,1.31,1.59c0,.38-.25.45-.5.53a23.53,23.53,0,0,1-1.66,4.7c1.39.66,3.13,2.09,3.13,4,0,1.07-.55,1.44-.79,1.44s-.4-.37-.63-1.11a14.92,14.92,0,0,0-1.83-4,12,12,0,0,1-5.37,5.49Z"/><path d="M63.93,356.64c.29-.31.32-.34.44-.34a3.21,3.21,0,0,1,.94.37c.38.22.42.38.42.58,0,.7-.4.73-.65.75a8.44,8.44,0,0,0-2.28.33c.09,1.11.17,2.09.26,3.17.59-.17,1.59-.48,1.73-.54s.15-.11.33-.37c.06-.08.22-.3.36-.3S67,361,67,361.73s-.28.61-.39.61-.82-.2-1-.21a2.06,2.06,0,0,0-.35,0,7.85,7.85,0,0,0-2.08.35c.15,1.78.17,2,.26,2.76,0,.29.2,1.53.2,1.81,0,.75-.33,1.42-.63,1.42s-.71-1.18-.83-1.81c0-.24,0-1.28,0-1.49,0-.73,0-1.31-.06-2.35a10.56,10.56,0,0,0-2.69,1.36c-.2.19-.26.24-.35.24-.36,0-1-1.09-1-1.7a3.81,3.81,0,0,1,.13-.81c.18.32.43.78.89.78a21.05,21.05,0,0,0,3-.86c-.06-1.07-.1-1.73-.24-3.17a9.47,9.47,0,0,0-1.67.69c-.29.19-.33.22-.46.22-.52,0-1.17-.8-1.17-1.6a1.51,1.51,0,0,1,.08-.48c.63.46.76.56,1.2.56a16.66,16.66,0,0,0,1.91-.48c-.26-2.5-.3-2.85-.81-2.85l-.2,0c.24-.61.39-1,.9-1s1.12.43,1.12.8a3.7,3.7,0,0,1-.09.48,2,2,0,0,0,0,.36c0,.16,0,.32.14,1.84A2.68,2.68,0,0,0,63.93,356.64Z"/><path d="M70.71,365.52a16.16,16.16,0,0,0,5.05-6.93,15.75,15.75,0,0,0-2.23,1c-.44.39-.5.44-.59.44-.35,0-1-1.17-1-1.88a2.17,2.17,0,0,1,.17-.78c.09.4.22.91.91.91a12,12,0,0,0,2.89-.58c.08-.06.44-.48.54-.48a2.47,2.47,0,0,1,1.21,1.51c0,.29-.11.43-.63.65a16.48,16.48,0,0,1-1.47,2.36c.3.3.36.41.36.57a4.42,4.42,0,0,1-.14.55,6.55,6.55,0,0,0,0,1c0,.5.07,2.92.07,3.19,0,.83-.26,1.42-.61,1.42-.54,0-.65-.92-.77-2.17a15.33,15.33,0,0,0,.25-3.43,8,8,0,0,1-4,2.76Zm4-11.35a1.62,1.62,0,0,1,1.8,1.64c0,.65-.32,1-.62,1s-.28,0-.62-.6a5.2,5.2,0,0,0-2-1.82A6.52,6.52,0,0,1,74.68,354.17Zm4.58,10.31c0,.82-.41,1.3-.7,1.3s-.38-.24-.64-1A8.43,8.43,0,0,0,76,361.7C76.73,361.84,79.26,362.35,79.26,364.48Z"/><path d="M92,356.85a17.29,17.29,0,0,1-6.52,10,1.57,1.57,0,0,0-.48.48c0,.05-.14.17-.24.17-.35,0-1.37-1.58-1.37-2.59a1.61,1.61,0,0,1,.34-1c.12.45.24.95.63.95.72,0,4.41-1.81,7.59-8Zm-6.27-.76a2.11,2.11,0,0,1,.94,1.78c0,.77-.4,1.33-.78,1.33s-.4-.21-.72-1a7.47,7.47,0,0,0-1.6-2.48A3.89,3.89,0,0,1,85.71,356.09Z"/><path d="M100.4,361.26a1.7,1.7,0,0,0,1.33.84,2.39,2.39,0,0,0,2.21-2.57c0-1.32-.67-2-1.21-2-.76,0-2.06,1.32-3.44,2.81.64,1.4,1.9,4.23,1.9,5.93,0,1.18-.43,1.88-.93,1.88s-.4-.35-.43-1a19,19,0,0,0-1.23-6c-.18.21-.79.93-1,1.09a1.14,1.14,0,0,1-.71.4c-.69,0-1.17-.83-1.17-1.73a4.41,4.41,0,0,1,.25-1.23c.08.48.17,1,.59,1s.38-.1,1.42-.86c-.11-.25-.7-1.29-.82-1.51a1.61,1.61,0,0,1-.22-.82c0-1,.56-1.53,1-1.53.12,0,.25.08.64.29a3.59,3.59,0,0,0,1.15.46c.21,0,.35-.08.35-.54a1.8,1.8,0,0,0-.9-1.44,3.22,3.22,0,0,1,1.44.27,2.16,2.16,0,0,1,.83,1.69,1.86,1.86,0,0,1-.17.77,2.73,2.73,0,0,1,1.51-.61c1.14,0,2.27,1.4,2.27,3.3,0,2.55-1.59,3.41-2.62,3.41s-1.59-.93-2.08-2.3Zm-.52-3.68a2.08,2.08,0,0,0-1.47-1c-.3,0-.36.37-.36.57,0,.44,0,.53.76,2.15l1.42-1.07Z"/><path d="M116.77,364.38l.6-1.32c.08-.16.12-.23.17-.23a6,6,0,0,1,1.19,1.62c0,.11-.07.11-.14.11h-9.48l0-.18Zm-7.55,4.13a16,16,0,0,0,2.88-3.73c.36.26.48.34,1.41,1.08a.23.23,0,0,1,.11.17c0,.12-.09.12-.13.12a1.55,1.55,0,0,1-.23,0,8.75,8.75,0,0,1-4,2.46Zm3-5.57v.47c0,.21,0,.3-.2.32l-.85.09c-.17,0-.23,0-.23-.27V356.8l1.59.43h.71v-1.42h-3.88l0-.2h3.93v-1.89c.23,0,1.26.13,1.45.13s.2,0,.2.15,0,.12-.33.27v1.34h2.08l.55-1.26c0-.08.12-.24.18-.24a5.29,5.29,0,0,1,1.21,1.57c0,.13-.07.13-.14.13h-3.88v1.42h1l.25-.54c.2-.44.22-.48.27-.48a7.28,7.28,0,0,1,1.27,1.53c0,.18-.32.34-.45.39v5.05c0,.31-.06.37-.22.39l-.84.08c-.18,0-.22-.07-.22-.32v-.39Zm0-5.53V359h3.43v-1.6Zm0,1.79v1.68h3.43V359.2Zm3.43,3.55v-1.68H112.2v1.68ZM114.45,365c.81.07,3.4.37,3.4,2.34,0,.54-.25,1.2-.74,1.2-.1,0-.2,0-.4-.48a9.36,9.36,0,0,0-2.26-3Z"/><path d="M123.88,357.09V365c0,.26,0,.35-.15.37l-.68.08c-.19,0-.19,0-.19-.32V356.4a6.2,6.2,0,0,1,1.13.49h.26v-3.18c.15,0,1.17.22,1.26.24s.17,0,.17.13-.2.22-.33.24v2.57h.32l.21-.41c.13-.27.2-.43.26-.43a9.65,9.65,0,0,1,1,1.2v-2.79a6.6,6.6,0,0,1,1.29.55h1.11l.38-.71c.15-.27.19-.35.25-.35a9.41,9.41,0,0,1,1.1,1.2.54.54,0,0,1,.17.35c0,.27-.36.45-.58.56v9.83c0,.35,0,.38.08.38s.24,0,.33-.2c.14-.39.63-2,.93-3.29l0,0c0,.42-.26,2.83-.26,3s0,.25.23.61a1.29,1.29,0,0,1,.18.72c0,1.1-.77,1.1-1.89,1.1-.88,0-.88-.4-.88-1.47v-4.31c-.33.5-.64.5-.7.5-.28,0-.28-.31-.28-.59a17,17,0,0,0-.25-3.56v2c0,3.37-.16,5.74-2.88,7.74l0,0c1.16-1.78,1.67-3.2,1.67-6.82v-4.14a4.57,4.57,0,0,1-.39.35v5.52c0,.47,0,1.47-.92,1.47-.23,0-.24-.11-.24-.27a3.45,3.45,0,0,0-.19-1.44v4.91c0,.23,0,.31-.15.32l-.73.1c-.21,0-.22,0-.22-.34v-11.1Zm1.47,0V363l.25,0c.1,0,.13,0,.13-.59v-5.34Zm3,1.45a5.69,5.69,0,0,1,1.23,1.41v-4.77h-1.23Z"/><path d="M138.27,354a1.34,1.34,0,0,1,1.19,1.45c0,.12-.08,1-.1,1.21a19.55,19.55,0,0,0-.11,2c0,.67,0,1.43.53,1.43.66,0,1.28-1.06,1.45-1.72.08-.3.11-.46.34-.46.49,0,1.12,1,1.12,1.5s-.14.74-1.48,1.3a8.89,8.89,0,0,0-2.57,1.25,3.6,3.6,0,0,0-1.27,2.61,1.46,1.46,0,0,0,1.68,1.54,5.05,5.05,0,0,0,1.94-.42,5.63,5.63,0,0,1,.59-.24,1.75,1.75,0,0,1,1.19,1.34.76.76,0,0,1-.48.82,6.82,6.82,0,0,1-2.37.24c-1.8,0-2.25-.26-2.6-.58a2.72,2.72,0,0,1-.77-2,5.31,5.31,0,0,1,2.13-4.1c-.31-.19-.57-.35-.57-1.72,0-.33,0-1.77,0-2.08,0-1.37,0-2.51-.58-2.51a.56.56,0,0,0-.34.15A1.14,1.14,0,0,1,138.27,354Z"/><path d="M152.94,363.41c.34,1.29.49,1.81.87,2.08s.58.4.58.82a2,2,0,0,1-.49,1.2,3.44,3.44,0,0,1-2.39.75c-1,0-2.42-.19-2.42-3.43,0,0,0-.56,0-1.63-.55-.1-1.82-.38-1.82-1.62a3.74,3.74,0,0,1,1.12-2.09,2.36,2.36,0,0,0-.38,1.15c0,.7.66.82,1.16.9,0-.23.14-2.42.15-2.5a1.71,1.71,0,0,1-1.64-1,2.71,2.71,0,0,1-.34-1.44c.15.33.4,1,1.64,1a3.88,3.88,0,0,0,.41,0c0-.77,0-.87,0-1.19,0-1.37-.21-1.44-.52-1.44a.8.8,0,0,0-.22,0c.18-.64.43-.88.82-.88.58,0,1.06.6,1.06,1.46,0,.3-.11,1.46-.15,1.84a2.46,2.46,0,0,0,.86-.4c.61.34.91.51.91,1.09s-.3,1-1.92,1.05c-.06.52-.21,2.13-.24,2.52a2.84,2.84,0,0,0,1.8-.61,1.43,1.43,0,0,0,.7.14c.13,0,.66,0,.66.85s-.43.88-.88,1a9.09,9.09,0,0,1-2.39.27c0,.94,0,1.42,0,1.52,0,1.07.18,1.65,1,1.65.06,0,1.57,0,2-.58A2.18,2.18,0,0,0,153,365c0-.25,0-.74-.09-1.51Z"/><path d="M158.25,368.23a14.18,14.18,0,0,0,.57-4.41v-5a6.94,6.94,0,0,1,1.39.51h1.72l.47-1.09c.06-.14.08-.19.13-.19a8.94,8.94,0,0,1,.81,1.35c0,.09,0,.11-.09.11h-3.18v2.27c0,.27,0,.37,0,.82a14.1,14.1,0,0,0,1.33-3.08,6.17,6.17,0,0,1,1.46,1.17.11.11,0,0,1-.13.13.66.66,0,0,1-.2,0,9.59,9.59,0,0,1-2.46,2,14.69,14.69,0,0,1-.28,2.34,12.86,12.86,0,0,0,2.08-3.33l1.26,1a.28.28,0,0,1,.13.21.12.12,0,0,1-.11.13.9.9,0,0,1-.25,0,7.68,7.68,0,0,1-3.13,2.1,7.77,7.77,0,0,1-1.48,3ZM162,355.79l.42-1c.05-.11.08-.19.13-.19a5.93,5.93,0,0,1,.79,1.23c0,.1,0,.12-.09.12h-4.8l0-.18h1.9v-2.07c.18,0,1.59.13,1.59.32s-.09.18-.31.29v1.46Zm-2.87.42c.71.2,1.64.6,1.64,1.74,0,.88-.6,1-.73,1-.29,0-.33-.26-.38-.67a6,6,0,0,0-.54-2Zm.25,11.78a15.43,15.43,0,0,0,2.73-3.88,7.16,7.16,0,0,1,1.28,1.27c0,.09,0,.09-.27.06a8.61,8.61,0,0,1-3.73,2.58Zm1.62-8.78a30.81,30.81,0,0,0,.39-3.16,13.11,13.11,0,0,1,1.41.57.16.16,0,0,1,.12.15c0,.16-.19.16-.29.16a10,10,0,0,1-1.61,2.28Zm.92,9.29a11.36,11.36,0,0,0,2.14-3.11l-.32.05c-.31.05-.34,0-.34-.29V357a9.07,9.07,0,0,1,1.17.41c0-.48.11-1.56.12-2.28h-1.6l-.05-.18h3.32l.48-1.06c.08-.16.1-.19.14-.19a8.25,8.25,0,0,1,1,1.31c0,.1,0,.12-.09.12H166.3a14.52,14.52,0,0,1-1.46,2.36h1.27l.22-.52c.15-.34.22-.45.32-.45s.17.08.81.83c.36.43.39.48.39.66s-.06.24-.44.46v6.5c0,.19,0,.38-.22.42l-.77.09c-.15,0-.26,0-.26-.3v-.39h-1.51c0,.37,0,.45-.12.55.31.21,1.1.73,1.1.94,0,.05,0,.11-.16.11h-.25a7.15,7.15,0,0,1-3.28,2.21Zm2.73-10.87v2.18h1.51v-2.18Zm1.51,2.37h-1.51v2.19h1.51Zm0,2.37h-1.51v2.21h1.51Zm-.73,3c.7.1,2.48.37,2.48,2,0,.66-.35,1.15-.72,1.15-.19,0-.25-.16-.38-.54a7.35,7.35,0,0,0-1.38-2.56Z"/><path d="M178,362v3.73c0,.53,0,.68.45.68h1.07c.61,0,.77-.47,1.7-3h0c0,.24-.2,1.84-.2,2.27a.74.74,0,0,0,.24.6,1.23,1.23,0,0,1,.25.78,1.25,1.25,0,0,1-1.48,1.3h-1.77c-.9,0-1.55,0-1.55-1.43V362h-1.93v.44c.36.12,1.11.41,1.48.59.12.06.15.06.15.14s0,.13-.34.21c-.42,2.15-1.14,4.53-4.35,5.3v-.05a8.09,8.09,0,0,0,2.9-5.59l-1,.08c-.17,0-.2-.11-.2-.32v-8.51a11.26,11.26,0,0,1,1.53.56h3.43l.37-.87c.09-.19.13-.28.22-.28a8,8,0,0,1,1,1.13c.2.26.23.29.23.4s0,.21-.42.48v7c0,.21,0,.35-.19.37l-.91.08c-.13,0-.23,0-.23-.34V362Zm-3.2-7v2.08h3.71V355Zm0,2.25v2.1h3.71v-2.1Zm3.71,4.55v-2.26h-3.71v2.26Z"/><path d="M188.64,361.2a21.18,21.18,0,0,1-.2,2.34,3.39,3.39,0,0,1,1.94,2.72c0,.94-.32,1.52-1,1.52-.27,0-.27-.16-.27-.66a9.29,9.29,0,0,0-.71-3.33,6.53,6.53,0,0,1-3.05,4.74v0c1.87-2.35,2-5.28,2.06-7.28h-2l0-.19h2.07c0-.83,0-2.9,0-4.08h-.17a14.87,14.87,0,0,1-1.79,3.81l0,0a40.84,40.84,0,0,0,1.1-7.08c.72.26,1.26.5,1.34.53.36.16.41.19.41.31s-.32.17-.4.17c-.13.55-.28,1.16-.58,2.08h1.49l.53-1c.06-.11.1-.21.13-.21a6.28,6.28,0,0,1,1,1.31c0,.12-.07.12-.13.12h-1.59v.35c0,1.23,0,3.09-.07,3.73h.27l.57-1.33c0-.11.1-.19.13-.19a8.82,8.82,0,0,1,1,1.6v-5.78A9.28,9.28,0,0,1,192,356h1.22l.37-.77c.11-.21.14-.27.21-.27a5.53,5.53,0,0,1,1.16,1.58c0,.16,0,.19-.39.42v10.69c0,.32,0,.48-.23.49l-.78.08c-.28,0-.28-.11-.28-.32v-1.56h-1.36v1.47c0,.45-.13.46-.29.48l-.76.09c-.24,0-.24-.12-.24-.41V361.1c0,.07,0,.1-.14.1Zm3.3-5v9.95h1.36v-9.95Z"/><path d="M200.08,368.53c1.64-.51,2.84-1.46,2.84-6.48a19.09,19.09,0,0,0-.29-3.78c-.06-.18-.16-.32-.35-.32-.74,0-1.41,2.88-1.41,5.38a4.78,4.78,0,0,0,.11,1.12,1.74,1.74,0,0,1,0,.3.66.66,0,0,1-.63.69c-.88,0-1-2.1-1-3.7a17.1,17.1,0,0,1,.89-5.23,11.22,11.22,0,0,0,.39-1.95c0-.47-.23-.52-.52-.56a.82.82,0,0,1,.62-.32c.36,0,1.07.25,1.07,1.64a3.17,3.17,0,0,1-.33,1.53,10.68,10.68,0,0,0-1.31,5c0,.09,0,.4.1.4s.06,0,.13-.4a14.8,14.8,0,0,1,1.38-3.73,1.12,1.12,0,0,1,.87-.56c.77,0,1.15,1.18,1.24,1.44a15.24,15.24,0,0,1,.36,3.57c0,2.5-.16,4.8-2.52,5.74a4,4,0,0,1-1.62.31Z"/><path d="M212.09,365.62c0,1.33-.69,2.43-1.58,2.43s-1.58-1.1-1.58-2.43.72-2.44,1.58-2.44S212.09,364.26,212.09,365.62Zm-2.75,0c0,1,.53,1.79,1.17,1.79s1.17-.82,1.17-1.79-.52-1.8-1.17-1.8S209.34,364.61,209.34,365.62Z"/><line class="cls-5" x1="96.36" y1="416.64" x2="33.72" y2="416.64"/><path d="M37,404.3l-.26,1.76h.57l-.07.77h-.61L36.34,409H36l.31-2.18h-.63L35.31,409h-.39l.32-2.18H34.6l.07-.77h.68l.25-1.76H35l.08-.78h.67l.28-1.95h.42l-.29,1.95h.62l.28-1.95h.42l-.28,1.95h.58l-.06.78Zm-1,0-.25,1.76h.62l.26-1.76Z"/><path d="M43,405.3c0,1.93-.44,3.92-1.5,3.92s-1.5-2-1.5-3.92.45-3.93,1.5-3.93S43,403.44,43,405.3Zm-1.5,3.37c.5,0,.56-2.31.56-3.37s-.06-3.37-.56-3.37-.55,2.3-.55,3.37S41,408.67,41.5,408.67Z"/><path d="M47,405.94a1.2,1.2,0,0,1,.09.51,1.4,1.4,0,0,1-.08.47l-1.56.26a1,1,0,0,1-.1-.48,1,1,0,0,1,.1-.49Z"/><path d="M50.66,404.9c-.08,0-.09,0-.09.28V407c0,.67,0,1.41.46,1.41a.41.41,0,0,0,.27-.18.37.37,0,0,1,.09.31,1.15,1.15,0,0,1-.94.7c-.54,0-.72-.58-.72-1.37v-2.67c0-.26,0-.28-.13-.28h-.2a.4.4,0,0,1,0-.37,2.51,2.51,0,0,0,.54-.54,3.59,3.59,0,0,0,.48-.94.14.14,0,0,1,.2.06v.9c0,.23,0,.24.12.24h.58a.44.44,0,0,1,0,.23.88.88,0,0,1-.08.42Z"/><path d="M55.69,407.41c0,.81.16,1,.29,1s.14,0,.25-.15a.33.33,0,0,1,.07.28c-.07.19-.38.65-.75.65s-.37-.15-.55-.42c0-.07-.07-.1-.1-.1s-.07.05-.14.13a.78.78,0,0,1-.55.39c-.38,0-.73-.42-.73-1.26a1.26,1.26,0,0,1,.68-1.25l.61-.33a.25.25,0,0,0,.15-.24c0-.14,0-.27,0-.41,0-.46-.1-1-.38-1s-.29.16-.34.68a.66.66,0,0,1-.11.38.76.76,0,0,1-.46.28c-.12,0-.15-.13-.15-.3a1.77,1.77,0,0,1,.31-.92,1.48,1.48,0,0,1,1.09-.73c.55,0,.86.5.83,1.73Zm-.78-.31c0-.2,0-.23,0-.22-.29.07-.55.28-.55.84,0,.38.15.72.34.72s.24-.22.24-.59Z"/><path d="M58.6,402.38c0-.48,0-.61-.13-.75l-.11-.12a.45.45,0,0,1,0-.36,6.18,6.18,0,0,0,1-.67.11.11,0,0,1,.11.08c0,.49,0,1,0,1.75v3.77c0,.13,0,.16.09.16s.25-.06.38-.33l.27-.59a1.32,1.32,0,0,0,.16-.48c0-.06-.07-.11-.12-.12l-.17-.05c0-.1,0-.37,0-.42h.15a5.69,5.69,0,0,0,1.23-.16.52.52,0,0,1,0,.41l-.21.09a1.16,1.16,0,0,0-.44.42,7.82,7.82,0,0,0-.43.69.45.45,0,0,0,0,.16.51.51,0,0,0,0,.2,21.23,21.23,0,0,0,.85,2.3.63.63,0,0,0,.38.27l.1,0a.51.51,0,0,1,0,.42,5.65,5.65,0,0,0-.82,0,5.18,5.18,0,0,0-.8,0,.5.5,0,0,1,0-.42l.08,0c.07,0,.1-.05.1-.1a2.15,2.15,0,0,0-.1-.38l-.47-1.29c0-.14-.09-.18-.16-.18s-.08.06-.08.28v.7c0,.84,0,.93.26,1l.1,0a.56.56,0,0,1,0,.42,5.75,5.75,0,0,0-.78,0,6.21,6.21,0,0,0-.79,0,.56.56,0,0,1,0-.42l.13,0c.23-.05.26-.14.26-1Z"/><path d="M64.68,406.21c-.15,0-.16,0-.16.21,0,.9.31,1.78.92,1.78.18,0,.42-.07.6-.63.07,0,.17.08.17.28-.27,1-.75,1.37-1.14,1.37-.88,0-1.35-1.14-1.35-2.45,0-1.51.59-2.68,1.4-2.68s1,.8,1,1.72c0,.23,0,.4-.23.4Zm.43-.53a.33.33,0,0,0,.27-.11.56.56,0,0,0,0-.27c0-.4-.12-.66-.34-.66s-.51.48-.51.86c0,.17.09.18.3.18Z"/><path d="M74.11,407.41c0,.81.17,1,.3,1s.14,0,.24-.15a.3.3,0,0,1,.08.28c-.08.19-.38.65-.75.65s-.37-.15-.55-.42c0-.07-.07-.1-.1-.1s-.08.05-.14.13-.31.39-.55.39-.73-.42-.73-1.26a1.27,1.27,0,0,1,.67-1.25c.25-.14.43-.24.62-.33a.26.26,0,0,0,.15-.24c0-.14,0-.27,0-.41,0-.46-.1-1-.38-1s-.29.16-.34.68a.66.66,0,0,1-.11.38.78.78,0,0,1-.47.28c-.11,0-.15-.13-.15-.3a1.78,1.78,0,0,1,.32-.92,1.48,1.48,0,0,1,1.09-.73c.54,0,.86.5.83,1.73Zm-.78-.31c0-.2,0-.23,0-.22-.29.07-.55.28-.55.84,0,.38.15.72.33.72s.24-.22.25-.59Z"/><path d="M77.08,405.85c0-.48,0-.63-.13-.77l-.09-.11a.55.55,0,0,1,0-.36,4,4,0,0,0,1-.69s.09,0,.11.11,0,.45,0,.54,0,.09,0,.09a.61.61,0,0,0,.13-.09c.14-.16.45-.48.75-.48.54,0,.81.68.81,1.51v2.06c0,.84,0,.93.26,1l.1,0a.61.61,0,0,1,0,.42,5.91,5.91,0,0,0-.79,0,4.81,4.81,0,0,0-.7,0,.56.56,0,0,1,0-.42l.12,0c.15-.05.17-.13.17-.79v-2c0-.47-.13-.85-.45-.85a.45.45,0,0,0-.37.29,1.16,1.16,0,0,0,0,.44v2.15c0,.66,0,.77.19.8l.1,0a.51.51,0,0,1,0,.42,4.75,4.75,0,0,0-.72,0,6.08,6.08,0,0,0-.77,0,.56.56,0,0,1,0-.42l.11,0c.23-.05.26-.14.26-1Z"/><path d="M82.26,406.75c0-1.72.73-2.66,1.49-2.66s1.46.86,1.46,2.55-.7,2.58-1.5,2.58S82.26,408.4,82.26,406.75Zm.93-.27c0,1.26.22,2.19.59,2.19s.5-.78.49-1.86-.19-2.17-.56-2.17S83.19,405.18,83.19,406.48Z"/><path d="M88.8,404.9c-.09,0-.09,0-.09.28V407c0,.67,0,1.41.45,1.41a.39.39,0,0,0,.27-.18.32.32,0,0,1,.09.31,1.15,1.15,0,0,1-.93.7c-.54,0-.73-.58-.73-1.37v-2.67c0-.26,0-.28-.12-.28h-.2a.35.35,0,0,1,0-.37A2.76,2.76,0,0,0,88,404a3.94,3.94,0,0,0,.48-.94.13.13,0,0,1,.19.06v.9c0,.23,0,.24.12.24h.58a.35.35,0,0,1,.06.23.77.77,0,0,1-.09.42Z"/><path d="M91.93,402.38c0-.48,0-.61-.13-.75l-.11-.12a.45.45,0,0,1,0-.36,6.18,6.18,0,0,0,1-.67.11.11,0,0,1,.11.08c0,.49,0,1,0,1.75v2.21c0,.1,0,.14,0,.14s0,0,.1-.09a1.13,1.13,0,0,1,.75-.48c.55,0,.82.68.82,1.51v2.06c0,.84,0,.93.26,1l.1,0a.51.51,0,0,1,0,.42,5.82,5.82,0,0,0-.79,0,4.23,4.23,0,0,0-.7,0,.56.56,0,0,1,0-.42l.12,0c.15-.05.18-.13.18-.79v-2.08c0-.42-.14-.8-.46-.8a.42.42,0,0,0-.36.29,1.11,1.11,0,0,0-.06.44v2.15c0,.66,0,.74.18.79l.12,0a.56.56,0,0,1,0,.42,4.75,4.75,0,0,0-.72,0,5.92,5.92,0,0,0-.76,0,.56.56,0,0,1,0-.42l.12,0c.21-.05.24-.14.24-1Z"/><path d="M98.08,406.21c-.15,0-.16,0-.16.21,0,.9.31,1.78.92,1.78.18,0,.43-.07.6-.63.07,0,.17.08.17.28-.26,1-.75,1.37-1.14,1.37-.87,0-1.35-1.14-1.35-2.45,0-1.51.59-2.68,1.41-2.68.67,0,1,.8,1,1.72,0,.23,0,.4-.24.4Zm.43-.53a.33.33,0,0,0,.27-.11.53.53,0,0,0,0-.27c0-.4-.13-.66-.35-.66s-.51.48-.51.86c0,.17.1.18.3.18Z"/><path d="M102.14,405.87c0-.48,0-.62-.12-.77l-.09-.1a.45.45,0,0,1,0-.36,4,4,0,0,0,.95-.72c.05,0,.09,0,.11.11,0,.24,0,.4,0,.51s0,.12.06.15c.18-.21.37-.6.64-.6s.36.25.36.7-.21.78-.42.78-.17-.07-.25-.21-.21-.24-.25-.24-.12.26-.12.72v1.84c0,.84,0,.94.24,1l.2,0a.51.51,0,0,1,0,.42c-.31,0-.57,0-.88,0s-.55,0-.77,0a.51.51,0,0,1,0-.42l.12,0c.21,0,.24-.15.24-1Z"/><rect x="34.49" y="389.56" width="17.75" height="3.94"/><rect x="34.85" y="276.95" width="90.05" height="12.36"/><path class="cls-6" d="M40,279.6c0-2-.1-2.26-.69-2.35l-.25,0a.61.61,0,0,1,0-.46c.58,0,.92.06,1.33.06a10.88,10.88,0,0,0,1.14-.06.61.61,0,0,1,0,.46l-.15,0c-.59.15-.61.4-.61,2.35v6.81a18.28,18.28,0,0,1-.23,3.56c-.32,1.47-1,2.64-2,2.64a.36.36,0,0,1-.42-.38c0-.31.15-.85.35-.85a.78.78,0,0,1,.37.11.86.86,0,0,0,.42.13c.21,0,.33-.22.4-.47a30.1,30.1,0,0,0,.26-4.61Z"/><path class="cls-6" d="M51,281.42a23.94,23.94,0,0,0-.19-3.8.58.58,0,0,0-.5-.39l-.25,0a.57.57,0,0,1,0-.45,10.74,10.74,0,0,0,1.14.06,8.45,8.45,0,0,0,1-.06.54.54,0,0,1,0,.45l-.24,0a.6.6,0,0,0-.5.44,32.29,32.29,0,0,0-.13,3.75v2.07a10.5,10.5,0,0,1-.7,4.39,2.21,2.21,0,0,1-1.9,1.34,2.07,2.07,0,0,1-1.86-1c-.53-.81-.78-2.15-.78-4.33v-4.34c0-1.9,0-2.22-.59-2.31l-.25,0a.58.58,0,0,1,0-.45c.49,0,.83.06,1.23.06s.74,0,1.22-.06a.58.58,0,0,1,0,.45l-.23,0c-.58.09-.6.41-.6,2.31v4c0,2.95.5,4.9,2,4.9s2-2.09,2-4.88Z"/><path class="cls-6" d="M56.62,279.2c0-1.29,0-1.67-.46-1.79l-.22-.05c-.08-.09-.09-.39,0-.46a23.14,23.14,0,0,1,2.5-.15,3.58,3.58,0,0,1,2.18.56c1.35.89,2,3,2,5.41a7.79,7.79,0,0,1-1.74,5.47,3.1,3.1,0,0,1-2.23.88c-.63,0-1.27-.15-1.62-.15s-.77,0-1.24.06a.6.6,0,0,1,0-.46l.23,0c.57-.15.59-.37.59-2.3Zm.82,6.55a5.89,5.89,0,0,0,.2,2,1.11,1.11,0,0,0,1.22.75c1.93,0,2.8-2.33,2.8-5.74,0-2-.53-5.44-3.14-5.44a1.35,1.35,0,0,0-1,.26,4.32,4.32,0,0,0-.1,1.4Z"/><path class="cls-6" d="M69.43,286.13c0,2,.06,2.26.6,2.34l.38,0a.6.6,0,0,1,0,.46c-.62,0-1-.06-1.35-.06s-.78,0-1.31.06a.6.6,0,0,1,0-.46l.31,0c.58-.11.6-.37.6-2.34v-.93a6.26,6.26,0,0,0-.32-2.28l-1.17-4.22c-.34-1.21-.49-1.3-.79-1.39l-.28-.1a.56.56,0,0,1,0-.46,9.24,9.24,0,0,0,1.16.06,7.2,7.2,0,0,0,1.06-.06c.09.06.09.35,0,.46l-.13,0c-.35.09-.42.18-.42.33a14.24,14.24,0,0,0,.31,1.41c.37,1.36.74,2.81,1.13,4.08.3-1,.63-2,.93-3.1s.65-2.21.65-2.43-.18-.23-.42-.29l-.18,0a.49.49,0,0,1,0-.46,8.34,8.34,0,0,0,1,.06,7.62,7.62,0,0,0,.93-.06.5.5,0,0,1,0,.46l-.28.1c-.52.16-.81,1.32-1.31,2.89l-.63,2a7,7,0,0,0-.47,3Z"/><path class="cls-6" d="M81.53,279.58c0-1.74,0-2.05-.44-2.15l-.32-.07a.5.5,0,0,1,0-.46,13.72,13.72,0,0,1,2.22-.15,2.19,2.19,0,0,1,1.66.56,3.42,3.42,0,0,1,.83,2.56,3.7,3.7,0,0,1-1.25,3.07.7.7,0,0,0,.05.44,23.42,23.42,0,0,0,2,4.88,1,1,0,0,0,.69.52s.06.18,0,.25a.84.84,0,0,1-.44.1c-.85,0-1.35-.46-2.06-2.32-.26-.68-.66-1.94-1-2.77-.15-.4-.31-.59-.71-.59s-.47,0-.47.41v2.31c0,1.93,0,2.15.6,2.3l.21,0a.6.6,0,0,1,0,.46c-.45,0-.79-.06-1.19-.06s-.77,0-1.24.06a.59.59,0,0,1,0-.46l.25,0c.58-.13.6-.37.6-2.3Zm.81,2.63a2.52,2.52,0,0,0,0,.6c0,.06.18.09.69.09a1.14,1.14,0,0,0,1-.47,3.89,3.89,0,0,0,.5-2.28c0-1.45-.49-2.83-1.59-2.83-.62,0-.65.08-.65.59Z"/><path class="cls-6" d="M90.92,279.56c0-1.91,0-2.18-.6-2.31l-.16,0a.61.61,0,0,1,0-.46c.43,0,.76.06,1.17.06h1.87a6.75,6.75,0,0,0,1.35-.06c.06.32.11,1.64.15,2.45a.13.13,0,0,1-.24,0c-.15-.86-.24-1.5-.76-1.74a2.7,2.7,0,0,0-1-.11H92c-.3,0-.3,0-.3.73v3.67c0,.52,0,.52.33.52h.58a2.12,2.12,0,0,0,.84-.11c.12-.08.19-.19.24-.64l.08-.76a.14.14,0,0,1,.26,0c0,.44,0,1.16,0,1.85s0,1.36,0,1.77a.14.14,0,0,1-.26,0l-.09-.72c0-.33-.11-.61-.31-.7a1.92,1.92,0,0,0-.76-.09h-.58c-.3,0-.33,0-.33.5V286a5.14,5.14,0,0,0,.19,1.91c.12.22.33.43,1.2.43s1.06-.08,1.28-.28a5.67,5.67,0,0,0,.7-1.78c.07-.09.21,0,.25.13-.07.64-.32,2.05-.45,2.55-.89,0-1.78-.06-2.66-.06h-.9c-.43,0-.76,0-1.35.06a.6.6,0,0,1,0-.46l.33,0c.56-.1.61-.37.61-2.3Z"/><path class="cls-6" d="M101.78,286.13c0,2,.06,2.26.6,2.34l.38,0a.6.6,0,0,1,0,.46c-.62,0-1-.06-1.35-.06s-.78,0-1.31.06a.6.6,0,0,1,0-.46l.31,0c.58-.11.6-.37.6-2.34v-.93a6.26,6.26,0,0,0-.32-2.28l-1.17-4.22c-.34-1.21-.49-1.3-.79-1.39l-.28-.1a.56.56,0,0,1,0-.46,9.24,9.24,0,0,0,1.16.06,7.2,7.2,0,0,0,1.06-.06c.09.06.09.35,0,.46l-.13,0c-.35.09-.42.18-.42.33a14.24,14.24,0,0,0,.31,1.41c.37,1.36.74,2.81,1.13,4.08.3-1,.63-2,.93-3.1s.65-2.21.65-2.43-.18-.23-.42-.29l-.18,0a.49.49,0,0,1,0-.46,8.37,8.37,0,0,0,1,.06,7.59,7.59,0,0,0,.92-.06.5.5,0,0,1,0,.46l-.28.1c-.52.16-.81,1.32-1.31,2.89l-.63,2a7,7,0,0,0-.47,3Z"/><path class="cls-6" d="M108.41,279.56c0-1.91,0-2.18-.61-2.31l-.16,0a.61.61,0,0,1,0-.46c.43,0,.77.06,1.17.06h1.88a6.68,6.68,0,0,0,1.34-.06c.06.32.12,1.64.16,2.45a.14.14,0,0,1-.25,0c-.15-.86-.24-1.5-.76-1.74a2.67,2.67,0,0,0-1-.11h-.72c-.3,0-.3,0-.3.73v3.67c0,.52,0,.52.33.52h.58a2.09,2.09,0,0,0,.84-.11c.12-.08.19-.19.24-.64l.08-.76a.14.14,0,0,1,.26,0c0,.44,0,1.16,0,1.85s0,1.36,0,1.77a.14.14,0,0,1-.26,0l-.09-.72c0-.33-.11-.61-.31-.7a1.89,1.89,0,0,0-.76-.09h-.58c-.3,0-.33,0-.33.5V286a5.14,5.14,0,0,0,.19,1.91c.12.22.33.43,1.21.43s1-.08,1.27-.28a5.2,5.2,0,0,0,.7-1.78c.07-.09.21,0,.25.13-.07.64-.31,2.05-.44,2.55-.9,0-1.78-.06-2.67-.06h-.9c-.42,0-.76,0-1.35.06a.6.6,0,0,1,0-.46l.33,0c.57-.1.62-.37.62-2.3Z"/><path class="cls-6" d="M118.15,289.22a2.15,2.15,0,0,1-1.55-.68,14.86,14.86,0,0,1-.27-2.57c0-.13.2-.17.24-.06.15.94.56,2.74,1.71,2.74.84,0,1.25-1,1.25-2.11a3.67,3.67,0,0,0-.82-2.57l-.95-1.14a5,5,0,0,1-1.07-3.16c0-1.74.74-3.15,2-3.15a2.4,2.4,0,0,1,.93.23.67.67,0,0,0,.34.11,14.46,14.46,0,0,1,.18,2.24c0,.11-.2.17-.25.06-.13-.88-.39-2.08-1.35-2.08s-1.18,1.2-1.18,2a3.42,3.42,0,0,0,.84,2.26l.8.92a5,5,0,0,1,1.24,3.52C120.27,287.84,119.45,289.22,118.15,289.22Z"/><path d="M41.15,68.53c-.14.69-.76,3.78-.83,4.25a27.79,27.79,0,0,0-.48,4.67,11.63,11.63,0,0,0,.33,3,8.48,8.48,0,0,1,.39,2c0,.77-.65,1.87-1.29,1.87-1.53,0-2.7-4.36-2.7-10.49,0-2.94.12-4,1.15-13.95a36.67,36.67,0,0,0,.21-4,10.36,10.36,0,0,0-.52-3.45,13,13,0,0,1,2.91,7.85c0,1.25-.12,1.91-1.15,7.71a29.6,29.6,0,0,0-.55,5.5c0,1,0,1.29.19,1.29s.48-1,.62-1.39c.48-1.4,1.17-3.6,1.65-5Zm4.15,6.38c0,3.53,1.93,3.53,2.62,3.53a13.82,13.82,0,0,0,4.23-.92,4.84,4.84,0,0,1,1.71-.44c.65,0,1.51.37,1.51,2a3.17,3.17,0,0,1-1.17,2.68,7.78,7.78,0,0,1-4.51,1.32c-2.46,0-3.41-1-4.08-2.1a7.83,7.83,0,0,1-1.1-4,9.43,9.43,0,0,1,1-4.11A10.53,10.53,0,0,0,45.3,74.91ZM47.76,57A5.42,5.42,0,0,0,50,56.23c1.89-1.1,2-1.13,2.32-1.13a2.19,2.19,0,0,1,1.9,2.38c0,2.68-3.74,3-4.65,3s-2.64,0-3.53-4.7C46.49,56.45,47,57,47.76,57Z"/><path d="M81.38,68c-.71,10.54-3.69,16-9.39,16-4.41,0-5-4.37-5-11.34,0-2.49.43-13.32.43-15.52,0-1.18-.1-2-1.79-1.95.43-.92,1-2.13,2.6-2.13a2.56,2.56,0,0,1,2.53,2.35c0,.52-.53,2.72-.58,3.16-.33,2.75-.74,10.57-.74,16.11,0,2.6,0,5,2.72,5,4.41,0,7.23-4.73,9.09-11.67Z"/><path d="M94.91,53.59c.57-1.28,1-1.65,1.76-1.65a1.75,1.75,0,0,1,1.81,1.91c0,.4-.35,2-.4,2.35a8.48,8.48,0,0,1,1.69-.26c.31,0,1.17,0,1.17,1.69,0,1.47-.38,1.65-3.39,3.08-.21,2.09-.31,2.75-.43,3.63a3,3,0,0,1,1,2.39c0,1.94-1.91,10.24-1.91,12,0,1.35.6,1.72,2.84,1.72,1.48,0,4.25-.29,5.3-1.69.67-.91.88-2,.88-5.43s-.26-7.82-.36-9.39c0-.81-.17-2.32-.17-2.76,0-1.28.65-2.45,1.75-2.45,1.74,0,4.1,3.45,4.1,7.78,0,1.83-.69,3.56-1.93,3.56-.72,0-1.29-.66-1.29-1.91,0-3.2,0-4-.34-5.4s-.85-1.94-1.12-1.94c-.54,0-.54,1.25-.54,1.76,0,2.09.19,12.4,1,14.49a7,7,0,0,1,.74,3c0,2.46-1.17,3.2-1.74,3.49a10.27,10.27,0,0,1-5.08,1c-3.13,0-5.7-.48-5.7-3.86A14,14,0,0,1,94.91,78c.21-1,.26-1.32.33-1.76-.64,1.91-.69,2.09-1.24,2.09-1.81,0-1.81-1.51-1.81-2.17,0-.44.07-2.38.07-2.75a18,18,0,0,0-.19-2.49A10.77,10.77,0,0,1,91.88,69,3.85,3.85,0,0,1,93,66.11c1.12-1.22,1.84-2,2.46-2.1.07-.69.17-1.28.28-2.53a5.48,5.48,0,0,1-2.07.48c-1.19,0-2.86-1-3.34-4.18a2.23,2.23,0,0,0,1.79.88,6.29,6.29,0,0,0,4-1.4C96.27,54.22,95.88,54,94.91,53.59Zm-.12,14.24a3,3,0,0,0-2,2.75c0,1,.24,2.35.65,2.35.59,0,1.57-4.44,1.57-4.84C95.05,67.9,95,67.83,94.79,67.83Z"/><path d="M122.28,85a13.44,13.44,0,0,0,6.59-2.83c2.6-2,2.86-5.76,2.86-7.23,0-3.12-1.15-5.5-2.5-5.5-1.7,0-3.58,4.62-4.58,7.48-.36,1-.77,2.21-2,2.21-.31,0-2-.19-1.93-3,0-.22.33-6.83.41-9.1a11.09,11.09,0,0,1,1.57-6.35c1.57-2.79,3.2-3.09,4.25-3.23.71-.08,1.12-.26,1.12-1.18,0-1.24-.77-2.16-2.36-4.18.4.15,2.24.59,2.62.7,1.17.29,3.08,1.43,3.08,4.7,0,.4,0,2.75-1.34,2.75-.5,0-.67-.22-1.29-1a2.82,2.82,0,0,0-2.24-1.17c-2.15,0-3,2.9-3,4.22,0,.37.14,1.91.14,2.24a28.53,28.53,0,0,1-.5,3.92,24.6,24.6,0,0,0-.26,3.42c0,.51,0,1.24.45,1.24.29,0,.55-.29.84-.66,1.29-1.54,3.43-4,5.75-4,3,0,4.89,3.67,4.89,8,0,3.27-.91,5.65-2.63,6.86-2.12,1.51-5.82,1.84-8.2,1.84a11.59,11.59,0,0,1-1.7-.11Z"/><path d="M156,64.05a1.33,1.33,0,0,0,1.17.55c.28,0,1.5-.11,1.74-.11s1.31,0,1.31,1.36c0,2.42-1.55,3.41-6.15,4.59.05,1.28.16,4.18.21,5.32,4.49,1.83,6,4.95,6,6.16,0,1.51-.65,2.39-1.22,2.39s-.83-.33-1.33-1a15.67,15.67,0,0,0-3.32-3.52c0,3.48-.48,5.06-3.29,5.06s-5.89-1.47-5.89-5.28c0-4.55,3.6-4.59,4.82-4.59a11,11,0,0,1,1.95.18V70.88a17.1,17.1,0,0,1-3.17.33,3.16,3.16,0,0,1-3.55-3.49,5.72,5.72,0,0,1,.93-3,6.41,6.41,0,0,0-.1,1.1c0,1.58.79,2.09,2.34,2.09a12.36,12.36,0,0,0,3.53-.59c0-1.69,0-3.23,0-4.88a8.46,8.46,0,0,1-2.17.37c-2.2,0-2.75-2.09-3.3-4.11A3.81,3.81,0,0,0,149,59.87a11.62,11.62,0,0,0,3-.88c0-3.23,0-5.07-1.17-5.73.17-.51.55-1.69,1.65-1.69a2.31,2.31,0,0,1,2,2,16.51,16.51,0,0,1-.33,1.62,28.28,28.28,0,0,0-.19,2.94,15.36,15.36,0,0,1,2.36-1.29A2.3,2.3,0,0,1,158,59c0,1.8-.74,2-4.05,2.94,0,1.58,0,2.2,0,4.7,1-.44,2.29-1,2.29-1.66a2.07,2.07,0,0,0-.28-.88Zm-6.8,13.87c-.86,0-3,0-3,1.51s2.48,1.83,3.48,1.83c2.07,0,2.22-1.28,2.29-2.93A7.82,7.82,0,0,0,149.16,77.92Z"/><path d="M181.33,68.86a3.9,3.9,0,0,0,3.06,1.91c1.5,0,5.05-1.36,5.05-5.88,0-3-1.52-4.51-2.76-4.51-1.74,0-4.73,3-7.87,6.46,1.45,3.19,4.34,9.69,4.34,13.58,0,2.71-1,4.33-2.13,4.33-.93,0-.93-.81-1-2.39a43.59,43.59,0,0,0-2.84-13.76c-.41.48-1.81,2.13-2.2,2.5a2.59,2.59,0,0,1-1.62.91c-1.6,0-2.69-1.9-2.69-4a10.7,10.7,0,0,1,.57-2.83c.19,1.1.4,2.39,1.36,2.39.62,0,.88-.22,3.27-2-.27-.55-1.63-2.94-1.89-3.45a3.53,3.53,0,0,1-.5-1.87c0-2.39,1.27-3.53,2.27-3.53.26,0,.57.19,1.45.67a8.15,8.15,0,0,0,2.65,1.06c.48,0,.79-.19.79-1.25a4.13,4.13,0,0,0-2-3.3,7.41,7.41,0,0,1,3.29.62c1.21.66,1.91,2.72,1.91,3.89a4.57,4.57,0,0,1-.39,1.76c2.08-1.35,3-1.39,3.46-1.39,2.6,0,5.2,3.19,5.2,7.56,0,5.83-3.65,7.82-6,7.82-2.69,0-3.65-2.13-4.77-5.29Zm-1.19-8.44a4.74,4.74,0,0,0-3.36-2.35c-.69,0-.84.84-.84,1.32,0,1,.1,1.21,1.75,4.92,2.74-2.06,2.9-2.2,3.26-2.46Z"/><line class="cls-5" x1="104.64" y1="41.95" x2="34.85" y2="41.95"/><path d="M37.64,32.1a1,1,0,0,1,.14.62c0,.36-.09.69-.17.69a.17.17,0,0,1-.11-.06c-.18-.48-.43-.9-.67-.9-.42,0-.65.88-.65,1.71s.34,1.91.93,1.91c.24,0,.44-.14.58-.59.08,0,.17.07.17.27-.14.6-.53,1.28-1.15,1.28-.82,0-1.38-1-1.38-2.42,0-1.71.75-2.71,1.63-2.71A1.35,1.35,0,0,1,37.64,32.1Z"/><path d="M40.31,30.19c0-.48,0-.61-.14-.75l-.11-.12a.55.55,0,0,1,0-.36,6.21,6.21,0,0,0,1-.67.12.12,0,0,1,.11.08c0,.49,0,1,0,1.75v2.21c0,.11,0,.14.05.14a.38.38,0,0,0,.1-.09,1.09,1.09,0,0,1,.75-.48c.54,0,.82.68.82,1.51v2.06c0,.84,0,.94.26,1l.1,0a.56.56,0,0,1,0,.42,5.66,5.66,0,0,0-.78,0,4.23,4.23,0,0,0-.7,0,.56.56,0,0,1,0-.42l.12,0c.15,0,.17-.13.17-.79V33.57c0-.41-.14-.8-.45-.8a.43.43,0,0,0-.37.29,1.16,1.16,0,0,0-.05.44v2.15c0,.66,0,.74.18.79l.11,0a.51.51,0,0,1,0,.42,4.81,4.81,0,0,0-.73,0,6,6,0,0,0-.76,0,.61.61,0,0,1,0-.42l.11,0c.22,0,.25-.14.25-1Z"/><path d="M47.7,35.22c0,.81.16,1,.3,1s.14,0,.24-.14.1.16.08.27-.38.65-.75.65-.37-.14-.55-.42c-.05-.07-.07-.1-.11-.1s-.07.05-.13.14-.31.38-.55.38-.73-.42-.73-1.26a1.27,1.27,0,0,1,.67-1.25c.25-.14.43-.24.62-.33a.28.28,0,0,0,.15-.24c0-.13,0-.27,0-.41,0-.46-.09-1-.37-1s-.29.17-.34.68a.66.66,0,0,1-.11.38.78.78,0,0,1-.47.28c-.11,0-.15-.13-.15-.3a1.9,1.9,0,0,1,.31-.92,1.48,1.48,0,0,1,1.09-.73c.55,0,.87.5.84,1.73Zm-.78-.31c0-.2,0-.23,0-.22-.3.07-.55.28-.55.84,0,.38.15.72.33.72s.24-.22.25-.59Z"/><path d="M50.67,33.68c0-.48,0-.62-.13-.77l-.09-.1a.55.55,0,0,1,0-.36,3.84,3.84,0,0,0,.95-.72c.05,0,.09,0,.12.11,0,.24,0,.4,0,.51s0,.12.07.15c.17-.21.36-.6.63-.6s.36.25.36.7-.21.78-.41.78-.17-.07-.26-.21-.21-.24-.25-.24-.12.26-.12.72v1.84c0,.84,0,.94.24,1l.21,0a.56.56,0,0,1,0,.42c-.31,0-.57,0-.87,0s-.56,0-.77,0a.56.56,0,0,1,0-.42l.13,0c.21,0,.24-.15.24-1Z"/><path d="M56.89,35.22c0,.81.17,1,.29,1a.36.36,0,0,0,.25-.14c.06,0,.1.16.08.27s-.38.65-.75.65-.37-.14-.55-.42c-.05-.07-.07-.1-.1-.1s-.08.05-.14.14-.31.38-.55.38-.73-.42-.73-1.26a1.26,1.26,0,0,1,.68-1.25c.24-.14.42-.24.61-.33a.26.26,0,0,0,.15-.24c0-.13,0-.27,0-.41,0-.46-.1-1-.38-1s-.29.17-.34.68a.66.66,0,0,1-.11.38.78.78,0,0,1-.47.28c-.11,0-.15-.13-.15-.3a1.9,1.9,0,0,1,.31-.92,1.5,1.5,0,0,1,1.1-.73c.54,0,.86.5.83,1.73Zm-.78-.31c0-.2,0-.23,0-.22-.3.07-.55.28-.55.84,0,.38.15.72.33.72s.24-.22.25-.59Z"/><path d="M61.82,32.1a1.1,1.1,0,0,1,.14.62c0,.36-.09.69-.17.69a.15.15,0,0,1-.11-.06c-.18-.48-.43-.9-.67-.9-.42,0-.65.88-.65,1.71s.34,1.91.93,1.91c.24,0,.44-.14.58-.59.08,0,.17.07.17.27-.14.6-.53,1.28-1.15,1.28-.82,0-1.38-1-1.38-2.42,0-1.71.75-2.71,1.63-2.71A1.35,1.35,0,0,1,61.82,32.1Z"/><path d="M65.4,32.71c-.08,0-.09,0-.09.28v1.8c0,.67,0,1.41.45,1.41A.4.4,0,0,0,66,36a.37.37,0,0,1,.09.31,1.15,1.15,0,0,1-.94.7c-.54,0-.73-.58-.73-1.37V33c0-.25,0-.28-.12-.28h-.2a.4.4,0,0,1,0-.37,2.76,2.76,0,0,0,.54-.54,3.59,3.59,0,0,0,.48-.94.14.14,0,0,1,.2.06v.9c0,.23,0,.24.12.24H66a.44.44,0,0,1,0,.23.88.88,0,0,1-.08.42Z"/><path d="M69.18,34c-.15,0-.16,0-.16.21,0,.9.31,1.78.92,1.78.18,0,.43-.07.6-.62.07,0,.17.07.17.27-.26,1-.75,1.37-1.14,1.37-.87,0-1.35-1.14-1.35-2.45,0-1.51.59-2.68,1.41-2.68s1,.8,1,1.72c0,.23,0,.4-.24.4Zm.43-.53a.33.33,0,0,0,.27-.11.56.56,0,0,0,0-.27c0-.4-.12-.66-.34-.66s-.51.48-.51.86c0,.17.09.18.3.18Z"/><path d="M73.24,33.68c0-.48,0-.62-.12-.77l-.09-.1a.45.45,0,0,1,0-.36,4,4,0,0,0,.94-.72c.06,0,.1,0,.12.11,0,.24,0,.4,0,.51s0,.12.06.15c.18-.21.37-.6.64-.6s.35.25.35.7-.2.78-.41.78-.17-.07-.25-.21-.21-.24-.25-.24-.13.26-.13.72v1.84c0,.84,0,.94.25,1l.2,0a.61.61,0,0,1,0,.42c-.32,0-.57,0-.88,0s-.55,0-.77,0a.51.51,0,0,1,0-.42l.12,0c.21,0,.24-.15.24-1Z"/><path d="M80.53,32.45c-.06-.09-.06-.37,0-.42.24,0,.46,0,.81,0l.72,0a.61.61,0,0,1,0,.42l-.1,0c-.08,0-.11,0-.11.11a2.18,2.18,0,0,0,.06.42c.13.67.27,1.29.41,1.86.14-.6.3-1.23.44-2a2.27,2.27,0,0,0,0-.3c0-.06,0-.1-.16-.15l-.09,0a.48.48,0,0,1,0-.42,4.84,4.84,0,0,0,.53,0c.21,0,.36,0,.5,0a.51.51,0,0,1,0,.42l-.11,0c-.19.06-.24.21-.37.66-.34,1.24-.64,2.52-.93,3.81a.22.22,0,0,1-.15.08.25.25,0,0,1-.16-.08c-.34-1.52-.47-2.09-.88-3.69-.16-.58-.2-.68-.36-.75Z"/><path d="M85.69,34.56c0-1.72.72-2.66,1.49-2.66s1.46.86,1.46,2.55S87.94,37,87.14,37,85.69,36.21,85.69,34.56Zm.93-.27c0,1.26.22,2.19.59,2.19s.5-.78.49-1.86-.19-2.17-.56-2.17S86.62,33,86.62,34.29Z"/><path d="M92.18,35.47c0,.84,0,1,.24,1l.12,0a.51.51,0,0,1,0,.42,6,6,0,0,0-.78,0,5.85,5.85,0,0,0-.78,0,.56.56,0,0,1,0-.42l.12,0c.22,0,.24-.14.24-1V33.66c0-.48,0-.63-.12-.77l-.09-.11a.55.55,0,0,1,0-.36,3.94,3.94,0,0,0,1-.69s.09,0,.12.11c0,.36,0,.88,0,1.42Zm0-5.42c0,.57-.24.87-.48.87s-.46-.36-.46-.85.23-.87.49-.87S92.23,29.57,92.23,30.05Z"/><path d="M97.11,32.1a1.12,1.12,0,0,1,.13.62c0,.36-.09.69-.16.69a.14.14,0,0,1-.11-.06c-.18-.48-.43-.9-.67-.9-.42,0-.65.88-.65,1.71s.33,1.91.93,1.91c.24,0,.44-.14.58-.59.08,0,.17.07.17.27-.15.6-.53,1.28-1.15,1.28-.82,0-1.38-1-1.38-2.42,0-1.71.75-2.71,1.62-2.71A1.36,1.36,0,0,1,97.11,32.1Z"/><path d="M100.42,34c-.15,0-.16,0-.16.21,0,.9.31,1.78.92,1.78.18,0,.42-.07.6-.62.07,0,.17.07.17.27-.27,1-.75,1.37-1.14,1.37-.88,0-1.35-1.14-1.35-2.45,0-1.51.59-2.68,1.4-2.68s1,.8,1,1.72c0,.23,0,.4-.23.4Zm.43-.53a.33.33,0,0,0,.27-.11.56.56,0,0,0,0-.27c0-.4-.12-.66-.34-.66s-.51.48-.51.86c0,.17.09.18.3.18Z"/><rect x="34.28" y="94.39" width="135.03" height="11.94"/><path class="cls-6" d="M42.68,101.46c.23.87.45,1.71.69,2.52h0c.27-.87.52-1.82.77-2.76l.93-3.5a17,17,0,0,0,.76-3.53,3.67,3.67,0,0,0,.74.06,7.38,7.38,0,0,0,.89-.06.66.66,0,0,1,0,.46l-.21,0c-.63.11-.71.46-.7,1.74,0,1.95,0,5.35.11,8,0,.92,0,1.41.49,1.49l.32,0a.56.56,0,0,1,0,.46c-.41,0-.82-.06-1.18-.06s-.79,0-1.2.06a.56.56,0,0,1,0-.46l.29,0c.49-.1.49-.39.49-1.57l0-7.65h0c-.07.2-.45,1.67-.65,2.39l-.89,3.21c-.44,1.61-.89,3.34-1.07,4.18a.1.1,0,0,1-.1.08.11.11,0,0,1-.09-.08c-.17-1-.65-2.77-.87-3.67l-.9-3.54c-.21-.84-.42-1.8-.64-2.64h0c0,1.13-.07,2.2-.1,3.26s-.07,2.76-.07,4.32c0,1.36.06,1.65.45,1.71l.38,0a.52.52,0,0,1,0,.46,9.73,9.73,0,0,0-1.1-.06,9,9,0,0,0-1,.06.61.61,0,0,1,0-.46l.22,0c.42-.12.56-.22.62-1.51s.11-2.22.17-4c0-1.52.09-3.08.11-4.09s-.06-1.43-.67-1.58l-.16,0a.56.56,0,0,1,0-.46,5.79,5.79,0,0,0,.79.06,4.31,4.31,0,0,0,.82-.06,11.59,11.59,0,0,0,.52,3Z"/><path class="cls-6" d="M54.91,102.11c-.07-.41-.1-.46-.4-.46H53c-.24,0-.3,0-.37.44L52.28,104a12.23,12.23,0,0,0-.22,1.53c0,.22,0,.33.29.37l.33,0a.47.47,0,0,1,0,.46c-.26,0-.57,0-1-.06s-.68,0-.95.06a.61.61,0,0,1,0-.46l.33,0c.23,0,.45-.24.59-.9.18-.85.46-2,.88-4.1l1-5a4.6,4.6,0,0,0,.17-1.31,1.52,1.52,0,0,0,.52-.7c.06,0,.13,0,.15.17.13.81.29,1.65.44,2.46L56.1,104c.29,1.58.42,1.85.84,2l.27,0a.61.61,0,0,1,0,.46,11.33,11.33,0,0,0-1.2-.06c-.48,0-.86,0-1.14.06a.53.53,0,0,1,0-.46l.29,0c.21,0,.35-.15.35-.34a6.5,6.5,0,0,0-.13-1Zm-2-1.64c-.07.42-.06.44.21.44h1.23c.29,0,.31-.07.22-.57l-.54-3c-.08-.44-.17-.94-.23-1.15h0c0,.09-.13.53-.24,1.08Z"/><path class="cls-6" d="M63.39,103.57c0,2,.06,2.26.59,2.34l.38,0a.6.6,0,0,1,0,.46c-.61,0-1-.06-1.35-.06s-.78,0-1.3.06a.6.6,0,0,1,0-.46l.3,0c.58-.12.6-.37.6-2.34v-.93a6.26,6.26,0,0,0-.32-2.28l-1.17-4.22c-.34-1.21-.49-1.3-.79-1.4L60,94.65a.6.6,0,0,1,0-.46,9.24,9.24,0,0,0,1.16.06,7.11,7.11,0,0,0,1.06-.06c.09.06.09.35,0,.46l-.13,0c-.34.09-.41.18-.41.33s.26,1.23.3,1.41c.37,1.36.74,2.81,1.13,4.08.31-1,.64-2,.93-3.1s.65-2.21.65-2.43-.18-.24-.42-.29l-.18,0a.49.49,0,0,1,0-.46,8.37,8.37,0,0,0,1,.06,7.34,7.34,0,0,0,.92-.06.5.5,0,0,1,0,.46l-.28.09c-.51.17-.81,1.33-1.31,2.9l-.63,2a7.11,7.11,0,0,0-.46,3Z"/><path class="cls-6" d="M72.79,102.11c-.07-.41-.12-.46-.41-.46H70.87c-.24,0-.3,0-.37.44L70.15,104a12.23,12.23,0,0,0-.22,1.53c0,.22,0,.33.29.37l.33,0a.47.47,0,0,1,0,.46c-.26,0-.57,0-1-.06s-.68,0-.95.06a.61.61,0,0,1,0-.46l.32,0c.24,0,.46-.24.6-.9.18-.85.46-2,.88-4.1l1-5a4.6,4.6,0,0,0,.17-1.31A1.52,1.52,0,0,0,72,94c.06,0,.13,0,.15.17.13.81.29,1.65.44,2.46L74,104c.29,1.58.42,1.85.84,2l.27,0a.61.61,0,0,1,0,.46,11.47,11.47,0,0,0-1.2-.06c-.48,0-.86,0-1.14.06a.5.5,0,0,1,0-.46l.28,0c.21,0,.35-.15.35-.34a6.5,6.5,0,0,0-.13-1Zm-2-1.64c-.08.42-.07.44.2.44h1.23c.29,0,.31-.07.22-.57l-.54-3c-.08-.44-.17-.94-.23-1.15h0c0,.09-.13.53-.24,1.08Z"/><path class="cls-6" d="M90,103.24c0,.55,0,2.74,0,3.22,0,.11-.08.2-.19.2-.12-.31-.41-1-1.27-2.77L86.27,99c-.27-.57-.94-2.07-1.15-2.48h0a8.42,8.42,0,0,0,0,1.19v4a26.09,26.09,0,0,0,.18,3.8.56.56,0,0,0,.5.35l.31,0a.55.55,0,0,1,0,.46c-.45,0-.79-.06-1.16-.06a8.22,8.22,0,0,0-1,.06.56.56,0,0,1,0-.46l.27,0a.53.53,0,0,0,.44-.37,32.3,32.3,0,0,0,.13-3.78V96.45a2.73,2.73,0,0,0-.22-1.32.88.88,0,0,0-.62-.44l-.17,0a.53.53,0,0,1,0-.46,8.82,8.82,0,0,0,1.13.06,1.65,1.65,0,0,0,.46-.06,27.87,27.87,0,0,0,1.7,4l1,2c.69,1.42,1.18,2.44,1.64,3.33h0a3.44,3.44,0,0,0,0-.78V98.86a23.32,23.32,0,0,0-.2-3.8c-.06-.17-.22-.28-.61-.37l-.17,0a.49.49,0,0,1,0-.46c.45,0,.79.06,1.17.06a7.83,7.83,0,0,0,1-.06.53.53,0,0,1,0,.46l-.14,0c-.32.09-.52.24-.56.38A27.1,27.1,0,0,0,90,98.86Z"/><path class="cls-6" d="M95.43,97c0-2,0-2.26-.61-2.35l-.25,0a.61.61,0,0,1,0-.46c.5,0,.84.06,1.26.06s.73,0,1.23-.06a.61.61,0,0,1,0,.46l-.25,0c-.59.09-.61.4-.61,2.35v6.53c0,2,0,2.21.61,2.34l.25,0a.61.61,0,0,1,0,.46c-.5,0-.84-.06-1.23-.06s-.76,0-1.26.06a.6.6,0,0,1,0-.46l.25,0c.59-.13.61-.39.61-2.34Z"/><path class="cls-6" d="M102.73,106.66a2.13,2.13,0,0,1-1.55-.68,15,15,0,0,1-.27-2.57c0-.13.2-.17.24-.06.15.94.55,2.74,1.71,2.74.83,0,1.24-1,1.24-2.11a3.71,3.71,0,0,0-.81-2.57l-1-1.14a4.9,4.9,0,0,1-1.07-3.16c0-1.74.73-3.16,2-3.16a2.41,2.41,0,0,1,.93.24.73.73,0,0,0,.35.11,14.35,14.35,0,0,1,.18,2.24c0,.11-.2.17-.25.06-.13-.88-.4-2.08-1.35-2.08s-1.19,1.2-1.19,2a3.42,3.42,0,0,0,.85,2.26l.79.92a5,5,0,0,1,1.25,3.52C104.85,105.28,104,106.66,102.73,106.66Z"/><path class="cls-6" d="M110.93,100.44c-.48,0-.5,0-.5.58v2.59c0,1.93.06,2.18.61,2.3l.29,0a.61.61,0,0,1,0,.46c-.54,0-.88-.06-1.26-.06s-.77,0-1.16.06a.6.6,0,0,1,0-.46l.17,0c.56-.19.58-.37.58-2.3V97c0-1.93-.07-2.24-.59-2.31l-.26,0a.61.61,0,0,1,0-.46c.49,0,.83.06,1.26.06s.72,0,1.15-.06a.61.61,0,0,1,0,.46l-.19,0c-.58.11-.6.38-.6,2.31v2.11c0,.57,0,.59.5.59h2.85c.47,0,.49,0,.49-.59V97c0-1.93,0-2.2-.6-2.31l-.19,0a.61.61,0,0,1,0-.46c.46,0,.79.06,1.2.06s.73,0,1.18-.06a.61.61,0,0,1,0,.46l-.21,0c-.58.11-.6.38-.6,2.31v6.61c0,1.93,0,2.17.6,2.3l.24,0a.61.61,0,0,1,0,.46c-.48,0-.82-.06-1.21-.06s-.76,0-1.2.06a.6.6,0,0,1,0-.46l.19,0c.6-.19.6-.37.6-2.3V101c0-.55,0-.58-.49-.58Z"/><path class="cls-6" d="M120.62,97c0-2,0-2.26-.61-2.35l-.25,0a.61.61,0,0,1,0-.46c.5,0,.84.06,1.26.06s.73,0,1.23-.06a.61.61,0,0,1,0,.46l-.25,0c-.59.09-.61.4-.61,2.35v6.53c0,2,0,2.21.61,2.34l.25,0a.61.61,0,0,1,0,.46c-.5,0-.84-.06-1.23-.06s-.76,0-1.26.06a.6.6,0,0,1,0-.46l.25,0c.59-.13.61-.39.61-2.34Z"/><path class="cls-6" d="M129.56,101.46c.23.87.45,1.71.69,2.52h0c.26-.87.51-1.82.76-2.76l.94-3.5a17.49,17.49,0,0,0,.75-3.53,3.81,3.81,0,0,0,.75.06,7.1,7.1,0,0,0,.88-.06.66.66,0,0,1,0,.46l-.2,0c-.63.11-.71.46-.7,1.74,0,1.95,0,5.35.11,8,0,.92,0,1.41.49,1.49l.31,0a.56.56,0,0,1,0,.46c-.4,0-.81-.06-1.17-.06s-.8,0-1.2.06a.56.56,0,0,1,0-.46l.29,0c.48-.1.48-.39.48-1.57l0-7.65h0c-.07.2-.44,1.67-.64,2.39l-.89,3.21c-.45,1.61-.89,3.34-1.07,4.18a.1.1,0,0,1-.1.08.11.11,0,0,1-.09-.08c-.17-1-.65-2.77-.88-3.67l-.89-3.54c-.21-.84-.42-1.8-.64-2.64h0c0,1.13-.07,2.2-.1,3.26s-.07,2.76-.07,4.32c0,1.36.06,1.65.45,1.71l.38,0a.52.52,0,0,1,0,.46,9.79,9.79,0,0,0-1.11-.06,8.81,8.81,0,0,0-1,.06.61.61,0,0,1,0-.46l.22,0c.41-.12.55-.22.61-1.51s.11-2.22.17-4c0-1.52.09-3.08.11-4.09s-.06-1.43-.67-1.58l-.15,0a.56.56,0,0,1,0-.46,5.54,5.54,0,0,0,.78.06,4.36,4.36,0,0,0,.83-.06,12,12,0,0,0,.51,3Z"/><path class="cls-6" d="M143.76,98.86a23.94,23.94,0,0,0-.19-3.8.58.58,0,0,0-.49-.39l-.25,0a.55.55,0,0,1,0-.44,10.42,10.42,0,0,0,1.13.06,8.22,8.22,0,0,0,1-.06.52.52,0,0,1,0,.44l-.23,0a.59.59,0,0,0-.5.44,30,30,0,0,0-.14,3.75v2.07a10.5,10.5,0,0,1-.7,4.39,2.2,2.2,0,0,1-1.9,1.34,2.08,2.08,0,0,1-1.86-1c-.53-.81-.77-2.15-.77-4.33V97c0-1.91,0-2.22-.6-2.31l-.25,0a.56.56,0,0,1,0-.44c.5,0,.84.06,1.23.06s.74,0,1.23-.06a.56.56,0,0,1,0,.44l-.24,0c-.58.09-.6.4-.6,2.31v4c0,3,.5,4.9,2,4.9s2-2.09,2-4.88Z"/><path class="cls-6" d="M149.42,97c0-1.74,0-2.06-.44-2.15l-.32-.07a.5.5,0,0,1,0-.46,13.72,13.72,0,0,1,2.22-.15,2.22,2.22,0,0,1,1.66.55,3.47,3.47,0,0,1,.83,2.57,3.7,3.7,0,0,1-1.25,3.07.7.7,0,0,0,.05.44,23.42,23.42,0,0,0,2,4.88,1,1,0,0,0,.69.52s.06.18,0,.25a.84.84,0,0,1-.44.1c-.84,0-1.35-.46-2.06-2.32-.26-.68-.66-1.94-1-2.77-.15-.4-.31-.59-.71-.59s-.47,0-.47.41v2.31c0,1.93,0,2.15.6,2.3l.21,0a.6.6,0,0,1,0,.46c-.45,0-.79-.06-1.18-.06s-.78,0-1.25.06a.59.59,0,0,1,0-.46l.25,0c.58-.13.6-.37.6-2.3Zm.81,2.63a2.52,2.52,0,0,0,0,.6c0,.06.18.09.69.09a1.13,1.13,0,0,0,1-.47,3.89,3.89,0,0,0,.5-2.28c0-1.45-.48-2.83-1.59-2.83-.62,0-.65.08-.65.59Z"/><path class="cls-6" d="M161.59,102.11c-.07-.41-.11-.46-.41-.46h-1.5c-.25,0-.31,0-.38.44L159,104a12.23,12.23,0,0,0-.22,1.53c0,.22,0,.33.28.37l.33,0a.47.47,0,0,1,0,.46c-.25,0-.56,0-1-.06s-.69,0-1,.06a.61.61,0,0,1,0-.46l.33,0c.24,0,.46-.24.6-.9.18-.85.46-2,.87-4.1l1-5a4.6,4.6,0,0,0,.17-1.31,1.52,1.52,0,0,0,.52-.7c.06,0,.13,0,.14.17.13.81.29,1.65.44,2.46l1.37,7.38c.28,1.58.41,1.85.84,2l.27,0a.61.61,0,0,1,0,.46,11.61,11.61,0,0,0-1.2-.06c-.48,0-.86,0-1.15.06a.5.5,0,0,1,0-.46l.29,0c.21,0,.35-.15.35-.34a6.5,6.5,0,0,0-.13-1Zm-2-1.64c-.08.42-.07.44.21.44h1.22c.29,0,.31-.07.22-.57l-.53-3c-.08-.44-.17-.94-.23-1.15h0c0,.09-.13.53-.24,1.08Z"/></svg>