<?xml version="1.0" encoding="utf-8"?><svg version="1.1" id="レイヤー_1" xmlns="http://www.w3.org/2000/svg" xmlns:xlink="http://www.w3.org/1999/xlink" x="0px" y="0px" viewBox="0 0 380.2 475.5" style="enable-background:new 0 0 380.2 475.5;" xml:space="preserve"><style type="text/css">.st0{fill:none;}.st1{fill:none;stroke:#000000;stroke-width:0.5;}.st2{fill:none;stroke:#000000;stroke-width:0.4;}.st3{fill:none;stroke:#000000;stroke-width:0.4375;}.st4{fill:#FFFFFF;}</style><title>アートボード 42</title><g><g id="letter_ol"><rect class="st0" width="380.2" height="475.5"/></g><g><g><g><path d="M34.2,60.3l-0.1-0.4h9.6v-9c0.9,0.1,2.6,0.4,3.5,0.6c0.2,0,0.3,0.1,0.3,0.3c0,0.2-0.1,0.3-0.7,0.6v7.6h5l1.4-3.2c0.1-0.3,0.2-0.4,0.3-0.4c0.2,0,2.7,3.5,2.7,3.8c0,0.3-0.1,0.3-0.3,0.3H47c0.5,3.2,3.1,11.3,9.9,14.9v0.1c-1.5,1.3-1.6,2.1-1.9,4.3c0,0.2-0.1,0.8-0.5,0.8c-1,0-4-3.7-5.6-8.1c-1.1-2.9-1.8-7.1-2-12h0v23.2c0,0.7-0.1,1-0.7,1.1l-1.7,0.2c-0.4,0-0.6,0.1-0.6-0.7V68.6C40,76.2,36,79.3,34,80.4l0-0.1c2.9-3.6,7.4-12.3,8.7-19.9H34.2z"/><path d="M82.3,81c0,1.4,0,4-3.5,4c-0.7,0-0.8-0.3-0.8-0.9c0-2.7-0.4-3.3-2.3-4.5l0-0.1c1.8,0.2,2.8,0.3,3,0.3c0.5,0,0.5-0.4,0.5-1.1V65h-2.9v1.7c0,0.7,0,0.9-0.7,1l-1.6,0.2c-0.4,0.1-0.4-0.1-0.4-0.7v-0.7h-1v5.1h1l1.3-2.9c0.1-0.2,0.2-0.4,0.3-0.4c0.1,0,2,3.2,2,3.4c0,0.3-0.1,0.3-0.2,0.3h-4.4v4.4l4.6-0.9l0,0.1c-2.5,2.3-7.6,5.8-11.2,7.8c-0.2-0.9-0.9-4.8-1.1-5.6l4.8-0.9v-5h-4.3l-0.1-0.4h4.4v-5.1h-1v0.6c0,0.6,0,0.9-0.4,1l-1.9,0.2c-0.4,0-0.4-0.1-0.4-0.8V52.5c0.4,0.1,2.1,0.7,3.1,1.1h4.3l0.7-1.3c0.3-0.6,0.4-0.8,0.6-0.8c0.3,0,1.6,1.7,1.9,2.2h6.2l0.8-1.3c0.2-0.4,0.5-0.7,0.6-0.7c0.3,0,2.6,3.3,2.6,4c0,0.6-0.4,0.7-1.2,0.9c-1.1,0.9-2.3,1.8-3.6,2.4c0.5,0.7,0.7,1.3,0.7,2.3c0,1.9-1.1,2.9-1.9,2.9c-0.7,0-0.9-0.7-1.1-1.7c-0.7-4-1.7-5.7-2.2-6.5l0-0.1c1.1,0.4,2.9,1.1,4.2,2.7c0.5-1.2,1-3.3,1.2-4.6h-6c0.1,0.1,0.3,0.4,0.3,0.7s-0.2,0.5-0.9,1v8.9h7.1l1-1.6c0.2-0.4,0.4-0.7,0.5-0.7c0.2,0,2.6,4,2.6,4.7c0,0.7-0.5,0.8-1.3,0.8c-1.5,2-2.6,3-3.8,3.9l0-0.1c0.4-1.2,1-4.2,1.3-6.5h-1.6V81z M68.9,54v5.8h1V54H68.9z M68.9,60.3V66h1v-5.7H68.9z M72.7,54v5.8h1V54H72.7z M72.7,60.3V66h1v-5.7H72.7z"/><path d="M110.5,54.3l0.8-1.6c0.3-0.6,0.4-0.8,0.5-0.8c0.2,0,2.8,3,2.8,3.6c0,0.5-0.5,0.8-0.9,1v26.4c0,0.6,0,1-0.5,1.1l-2.1,0.2c-0.5,0-0.5-0.1-0.5-0.8v-2.7h-8.7v2.7c0,0.9-0.1,1-0.6,1.1l-1.7,0.2c-0.5,0.1-0.7-0.2-0.7-1V53.1c0.5,0.1,1,0.2,3.5,1.2H110.5z M101.9,54.7v12.2h8.7V54.7H101.9z M101.9,67.3v12.7h8.7V67.3H101.9z"/><path d="M135.1,71.6v-2.8c0.3,0,3.4,0.4,3.4,0.7c0,0.2-0.4,0.4-0.6,0.5v1.7h5.2l1.3-3.1c0.1-0.1,0.2-0.4,0.3-0.4c0.2,0,2.7,3.3,2.7,3.7c0,0.3-0.2,0.3-0.3,0.3h-9c0.7,2.9,4.1,6,9.1,7.3v0.1c-0.7,0.7-1.3,1.5-1.6,3c-0.3,1.4-0.3,1.5-0.5,1.5c-0.3,0-2.1-1-3.2-2.3c-1.3-1.4-3.1-4.1-3.9-9.6h0v12.1c0,0.7-0.2,0.7-0.5,0.7l-1.8,0.2c-0.5,0.1-0.5-0.3-0.5-0.8v-9c-2.6,4.3-6,7-9.4,8.6l-0.1-0.1c4.4-4.9,6.4-9.9,7-11.8h-7.1l-0.1-0.4H135.1z M138,54.9v-4c0.9,0.1,2.3,0.3,3.2,0.5c0.3,0,0.5,0.1,0.5,0.3c0,0.3-0.1,0.3-0.7,0.5v2.7h2.1l1.3-2.8c0.1-0.2,0.2-0.4,0.3-0.4c0.2,0,2.7,3,2.7,3.4c0,0.3-0.2,0.3-0.3,0.3h-6v1.9c0.3-0.1,0.5-0.3,0.9-0.5c1,1,2.1,2.1,3.1,3.2c0.1,0.1,0.3,0.4,0.3,0.6c0,0.3-0.1,0.3-0.3,0.3c-0.2,0-0.4-0.1-0.5-0.1c-4.7,0.9-12.5,1.5-17.7,1.5v-0.3c4.5-1,8.7-2.4,11.3-3.4v-3.2h-3.5v3c0,0.8,0,0.8-0.5,0.8l-1.9,0.2c-0.4,0-0.5-0.2-0.5-0.7v-3.3h-5.7l-0.1-0.4h5.8V51c0.8,0,2.4,0.2,3.4,0.4c0.2,0,0.2,0.1,0.2,0.2c0,0.3-0.5,0.4-0.7,0.5v2.8H138z M128,62.8c1.6,0.3,4.8,1.2,4.8,4.2c0,1.4-0.7,2.9-1.8,2.9c-0.5,0-0.6-0.3-1-1.7c-0.6-2.8-1.3-4-2.1-5.3L128,62.8z M133.9,62c3.1,0.3,4.3,1.9,4.3,3.6c0,1.7-1.1,2.8-1.8,2.8c-0.6,0-0.7-0.3-0.9-1.5c-0.3-2.4-1-3.7-1.7-4.8L133.9,62z M139.3,69.6c1-2.2,1.5-4,2.6-7.9c0.5,0.3,2.8,1.8,3.4,2.2c0.1,0.1,0.2,0.1,0.2,0.3c0,0.3-0.1,0.3-0.8,0.3C143.5,66.3,140.7,68.8,139.3,69.6L139.3,69.6z"/></g></g><g><g><path d="M65,165.5l2.5-5.5c0.2-0.5,0.3-0.8,0.5-0.8c0.4,0,4.7,6,4.7,6.5c0,0.4-0.2,0.4-0.5,0.4H56.7c2.3,11.5,10.2,15.4,16.4,17.3v0.3c-2.1,0.6-2.6,3.2-3.1,6.3c-0.2,0.9-0.3,1.7-1.3,1.7c-0.3,0-7.9-3.2-10.8-15.9c-1.2-5.1-1.4-9.2-1.4-9.6H56v27c0,1.3,0,1.6-1.2,1.8l-2.8,0.3c-0.9,0.1-1.2,0.1-1.2-1.3v-19.3c-4.2,8.2-9.8,14.3-16.2,17.7l0-0.2c4.9-5.4,11.1-16.6,13.6-25.9H34.8l-0.2-0.7h16.2v-18.4H36.9l-0.2-0.8h14.1v-9.8c1,0.1,5.4,0.8,6,1.1c0.1,0.1,0.5,0.3,0.5,0.6c0,0.5-0.1,0.5-1.3,0.9v7.2h6.7l2.4-5.3c0.3-0.6,0.4-0.8,0.5-0.8c0.3,0,4.8,5.9,4.8,6.4s-0.3,0.5-0.5,0.5H56v18.4H65z M39.6,149.1c1.3,0.3,8.3,2.5,8.3,9.9c0,4.4-3,5-3.5,5c-0.6,0-0.7-0.3-0.9-1.3c-0.8-4-1.9-9.7-3.9-13.4V149.1z M56.8,165.1c1.4-4.2,3.3-11.8,4.1-16.2c0.7,0.4,5.8,3.2,6.3,3.6c0.2,0.1,0.4,0.4,0.4,0.7c0,0.6-0.2,0.6-1.5,0.5c-3.5,5.6-5.6,8.2-9.1,11.6L56.8,165.1z"/><path d="M94.4,178.4v-41.1c1.4,0.1,5.3,0.3,5.3,1c0,0.3,0,0.4-1.4,1v39.1h1.3v-32.5c1.2,0.1,5,0.3,5,1c0,0.5-0.8,0.9-1.2,1.1v32.6c0,1.3,0,1.4-0.9,1.6l-2,0.4c-0.9,0.2-1,0.2-1-0.8v-2.7h-6.3v8.5c0,0.6,0,1-0.5,1.1L90,189c-0.5,0.1-0.7-0.1-0.7-0.9v-42.3c0.5,0.1,5,0.1,5,1c0,0.4-0.8,0.9-1,1v30.6H94.4z M104.6,179.1c0.4,2.1,0.7,4.4,0.7,7c0,4.1-0.8,7.5-3.2,7.5c-1.4,0-2.4-1.5-2.4-3c0-0.7,0.2-1.3,0.9-2.3c1.5-2.3,2.9-5.4,3.9-9.2H104.6z M117.8,145.3l1.2-2.8c0.4-0.8,0.5-1.3,0.8-1.3c0.2,0,2.3,2.5,2.6,3c1.7,2.1,1.9,2.3,1.9,2.8c0,0.8-0.9,1.4-1.7,1.9v11c0,0.9,0,1.1-0.1,1.5c0.6,0.7,3.5,4.6,3.5,5.2c0,0.4-0.3,0.4-0.5,0.4h-15.6v6.3h10.3l1.2-2.8c0.3-0.7,0.5-1.2,0.8-1.2c0.4,0,4.4,5.2,4.4,5.9c0,0.5-0.3,0.9-1.5,1.6c-0.7,14.7-1.5,18.5-6.4,18.5c-1.3,0-1.4-0.5-1.5-2.4c-0.1-2.3-1.7-4-3.5-5.4c-0.2,0.1-0.4,0.2-0.6,0.2c-0.8,0-1.1-0.6-1.4-1.6c-0.9-4.5-1.4-6.4-2.3-8.3l0-0.1c3.1,1.4,5.9,2.7,5.9,6.8c0,1.4-0.5,2.3-1.3,3c1.8,0.3,3.4,0.3,3.7,0.3c2.1,0,2.2-1.4,2.4-4.7c0.2-3.5,0.2-7,0.2-8.9h-10.5c0,2.3,0,2.5-1,2.7l-2.5,0.4c-0.7,0.1-1,0.1-1-0.9v-32.4c1.9,0.6,3.6,1.3,4.4,1.6h0.6c0.2-1.5,0.6-6.7,0.6-8.9c6.3,1.6,7,1.8,7,2.2c0,0.4-0.2,0.5-1.6,0.9c-1.2,2-2.3,3.5-4.2,5.8H117.8z M106.5,179.1c2.9,3.1,4.4,4.7,4.4,8.2c0,2.3-1.1,4-2.6,4c-1.1,0-1.4-0.6-1.4-2.7c0-4.6-0.2-6.9-0.5-9.6L106.5,179.1z M109.8,146.1v6.2h8v-6.2H109.8z M117.8,153.1h-8v6.3h8V153.1z M118.7,162c-0.3,0.1-0.6,0.1-0.7-0.1c-0.1-0.1-0.1-1.2-0.1-2h-8v6.2h9.6l2-4.5L118.7,162z M113.6,175.8c1.6,0.4,5.8,1.6,5.8,5.8c0,1.8-1.2,3.4-2.2,3.4c-0.5,0-0.6-0.2-1.1-1.9c-0.9-2.8-1.2-4-2.5-7.1L113.6,175.8z"/><path d="M150.7,181.8c0.8,1.2,2.6,3.4,4.1,3.4c5.3,0,7-17.4,7-23.7c0-1.6,0-5.6-2.3-5.6c-0.7,0-1.6,0.7-3.7,2.2c-3,13-6.5,28.4-8.6,32.6c-0.8,1.5-1.6,2.3-2.6,2.3c-1.5,0-2.1-2.6-2.1-6.8c0-1,0.1-1.1,0.9-2.2c0.6-0.8,2.3-4.6,3.7-8.9c1.6-4.7,2.2-7.2,3.7-13.5c-1.2,0.8-3.2,2-4.6,2c-1.6,0-3-2.1-3-4.6c0-2.4,1.4-5.3,1.9-6.3c0.1,2.7,0.2,3.8,1.8,3.8s3.8-0.6,5.4-1.1c0.9-4,2.3-11.3,2.3-13c0-1.5-0.8-1.8-1.2-1.8c-0.2,0-0.2,0-0.5,0.1c0-3.2,2.2-3.4,3.1-3.4c2,0,3.7,2.1,3.7,3.9c0,0.6-0.1,0.9-0.9,3.7c-0.5,1.7-1.1,4.2-2.2,8.9c0.4-0.1,1.7-0.5,2.6-0.5c1,0,6.8,0.6,6.8,13.4c0,8.5-3.1,26.3-9.9,26.3c-1.8,0-3.7-1.1-3.9-3.6c-0.3-2.5-0.5-4.6-1.6-7.5L150.7,181.8z M170.1,152.1c5.4,0,8,6,8,11.4c0,6.5-2.9,7.3-3.5,7.3c-2,0-2-3-2-4c0-8.6-0.5-13.6-5.6-14.4C167.9,152.3,168.9,152.1,170.1,152.1z"/><path d="M198.7,155.6c0,0.5,0.1,2.2,1.5,2.2c1.6,0,6.5-3.3,8.7-4.8c2.2-1.5,2.5-1.6,2.9-1.6c0.8,0,4.4,2,4.4,5.1c0,1.6-0.2,1.7-1.6,2.8c-0.7,0.5-3.3,2.9-7.4,11.5c0.7-0.6,1.6-1.3,3-1.3c1,0,3.9,0.6,3.9,5.5c0,1.3-0.3,6.7-0.3,7.8c0,0.9,0.1,3,1.4,3c0.8,0,4.2-1.5,4.9-1.5c1.6,0,3.2,2.8,3.2,5.2c0,2.7-2.2,3.8-7.3,3.8c-2.4,0-6.6,0-6.6-8.7c0-1.8,0.7-9.7,0.7-10.1c0-2.3-0.9-2.8-1.5-2.8c-1.5,0-3.3,2.5-7.6,13c-0.4,1-2,5.4-2.3,6.3c-0.2,0.5-0.5,0.9-1.2,0.9c-1.6,0-2.9-2.5-2.9-4.9c0-1.4,0.1-1.6,1.9-4.3c3-4.6,12.8-21.5,12.8-24.2c0-0.3-0.2-0.4-0.3-0.4c-0.6,0-0.9,0.4-3.9,4.3c-1.6,2-2.6,3.2-4.4,3.2c-3.7,0-3.7-4.8-3.7-5.4c0-2.7,0.9-5.3,2.1-7.4C198.9,153.8,198.7,154.6,198.7,155.6z M205,148.4c2.8-1.8,3.8-2.6,3.8-4c0-1.3-1.2-5.1-7.4-6.5c2-0.4,5.1-0.8,7-0.8c4.5,0,6.7,3.9,6.7,7.5c0,3.9-2.2,4.2-2.8,4.2c-0.5,0-2.7-0.8-3.2-0.8c-0.8,0-3.2,0.3-4.1,0.6V148.4z"/><path d="M243.7,147.9c0.8,0,5-1.5,5.9-1.7c4.9-1.4,9.7-2.5,14.7-3.5c1.4-0.3,1.4-0.3,3.1-1.5c0.2-0.2,0.4-0.3,0.6-0.3c0.6,0,5.6,2.1,5.6,5.8c0,1.2-0.6,2.8-1.9,2.8c-0.5,0-0.7-0.1-2.4-0.6c-1.7-0.5-3-0.6-3.8-0.6c-5,0-6.7,4.3-7.3,6c-1.4,3.6-2.4,10.9-2.4,17.8c0,11.1,3.4,12.3,7.7,13.9c1.4,0.5,3,1.1,3,4.2c0,3.2-1,4.4-2.3,4.4c-0.2,0-2.5-0.1-5.3-1.7c-4.7-2.7-7-7.3-7-17.7c0-11.2,3.1-21.7,7.8-26.3c-3.4,0.4-9.2,3.2-12.2,5.3c-1.8,1.2-2.1,1.3-2.8,1.3c-2.6,0-4.4-3.6-4.4-7.3c0-0.6,0-2.4,0.6-3.7C241.3,146.2,241.8,147.9,243.7,147.9z M270.9,166c0,1.6-0.7,3-1.6,3c-1,0-1.3-0.8-2.1-3.2c-1.3-3.5-2.7-5.1-3.7-6.1C266.8,159.8,270.9,162.2,270.9,166z M268.9,153.6c3.9,0,6.1,2.3,6.1,5.2c0,1.8-1,2.7-1.6,2.7c-0.7,0-0.8-0.3-2-2.6c-0.7-1.3-2.8-4.4-4.9-5.1C267.4,153.7,268,153.6,268.9,153.6z"/></g></g><g><g><path d="M38.2,239.1c0.2,0.2,0.2,0.2,0.5,0.2c0.1,0,0.7,0,0.8,0c0.2,0,0.6,0,0.6,0.6c0,1.1-0.7,1.5-2.7,2c0,0.6,0.1,1.8,0.1,2.3c2,0.8,2.6,2.2,2.6,2.7c0,0.7-0.3,1-0.5,1c-0.2,0-0.4-0.1-0.6-0.4c-0.2-0.2-0.9-1.2-1.4-1.5c0,1.5-0.2,2.2-1.4,2.2c-1.2,0-2.6-0.6-2.6-2.3c0-2,1.6-2,2.1-2c0.4,0,0.7,0,0.9,0.1v-1.9c-0.8,0.1-1.2,0.1-1.4,0.1c-0.3,0-1.6,0-1.6-1.5c0-0.6,0.3-1.1,0.4-1.3c0,0.2,0,0.3,0,0.5c0,0.7,0.3,0.9,1,0.9c0.1,0,0.6,0,1.5-0.3c0-0.7,0-1.4,0-2.1c-0.4,0.1-0.7,0.2-0.9,0.2c-1,0-1.2-0.9-1.4-1.8c0.3,0.3,0.7,0.5,1.1,0.5c0.4,0,1.2-0.4,1.3-0.4c0-1.4,0-2.2-0.5-2.5c0.1-0.2,0.2-0.7,0.7-0.7c0.4,0,0.9,0.5,0.9,0.9c0,0.1-0.1,0.6-0.1,0.7c-0.1,0.3-0.1,0.9-0.1,1.3c0.2-0.1,0.9-0.6,1-0.6c0.1,0,0.7,0.3,0.7,1c0,0.8-0.3,0.9-1.8,1.3c0,0.7,0,1,0,2c0.5-0.2,1-0.4,1-0.7C38.3,239.4,38.2,239.3,38.2,239.1L38.2,239.1z M35.2,245.2c-0.4,0-1.3,0-1.3,0.7c0,0.7,1.1,0.8,1.5,0.8c0.9,0,1-0.6,1-1.3C36,245.2,35.5,245.2,35.2,245.2z"/><path d="M46.9,248.2c0.3-0.2,1.4-0.9,2.1-2.4c-0.8-0.6-1.2-1.5-1.2-4.5c0-0.7,0-0.9,0.1-2.9c-0.9,1.5-1.4,3.7-1.4,5.2c0,0.5,0.1,1.2,0.4,1.9c0.1,0.2,0.1,0.3,0.1,0.4c0,0.4-0.2,0.8-0.6,0.8c-0.2,0-0.5-0.1-0.8-0.6c-0.3-0.6-0.9-1.6-0.9-3.8c0-1.2,0.2-2.6,0.5-5.1c0.1-0.5,0.1-0.9,0.1-1.2c0-0.6-0.1-1.1-0.3-1.8c0.9,0.7,1.4,2.1,1.4,3.2c0,0.5-0.1,0.7-0.2,1.5c-0.3,1.4-0.5,2.9-0.5,3.5c0,0.1,0,0.7,0.2,0.7c0.1,0,0.1-0.1,0.2-0.7c0.3-1.1,1.4-5.4,3.7-5.9c0-0.7-0.1-1.5-0.7-1.5c-0.2,0-0.2,0.1-0.4,0.2c0.1-0.4,0.4-1.2,0.9-1.2c0.2,0,1.1,0.1,1.1,1.2c0,0.2,0,1.2,0,1.4c0.6,0.1,2.6,0.5,2.6,4.9c0,5-2.9,4.8-3.2,4.7C49.3,247.7,47.7,248.1,46.9,248.2L46.9,248.2z M49.8,239.7c0-0.4,0-1.7-0.1-2.8c-0.7,0.2-1.3,0.8-1.6,1.3c0,0.6,0,1.2,0,1.7c0,1.8,0.1,4,1.4,4.5C49.8,243.1,49.8,240.6,49.8,239.7z M50.9,242.2c0,1.2-0.1,1.9-0.1,2.1c0.4-0.2,1.4-0.7,1.4-3.6c0-2.3-0.8-3.4-1.4-3.7C50.8,239.7,50.9,240.9,50.9,242.2z"/><path d="M58.5,248.5c1.6-0.5,2.8-1.5,2.8-6.5c0-0.3,0-2.9-0.3-3.8c-0.1-0.2-0.2-0.3-0.4-0.3c-0.7,0-1.4,2.9-1.4,5.4c0,0.5,0,0.6,0.1,1.1c0,0.2,0,0.3,0,0.3c0,0.4-0.3,0.7-0.6,0.7c-0.9,0-1.1-2.1-1.1-3.7c0-1.7,0.2-2.7,0.9-5.2c0.1-0.5,0.4-1.5,0.4-2c0-0.5-0.2-0.5-0.5-0.6c0.1-0.1,0.3-0.3,0.6-0.3c0.4,0,1.1,0.3,1.1,1.6c0,0.8-0.2,1.2-0.3,1.5c-0.7,1.5-1.3,2.8-1.3,5c0,0.1,0,0.4,0.1,0.4c0.1,0,0.1,0,0.1-0.4c0.3-1.2,1-3.1,1.4-3.7c0.2-0.3,0.5-0.6,0.9-0.6c0.8,0,1.2,1.2,1.2,1.4c0.3,0.9,0.4,2.7,0.4,3.6c0,2.5-0.2,4.8-2.5,5.7C59.3,248.6,58.8,248.6,58.5,248.5L58.5,248.5z"/><path d="M71.6,247.7c0.9-0.4,3.4-1.5,3.4-6.5c0-2.3-0.7-5.7-3.1-5.7c0.4,0.8,0.5,1.4,0.5,1.9c0,1.6-1.1,9.3-3.3,9.3c-0.7,0-0.8-0.7-0.9-1.5c-0.1-0.8-0.2-1-0.5-1.7c-0.3-0.8-0.4-1.2-0.4-1.8c0-3.8,2.5-6.7,4.9-6.7c2.2,0,4.2,2.3,4.2,6.7c0,2.9-1,4.6-2.1,5.3C73.5,247.4,72.6,247.7,71.6,247.7L71.6,247.7z M68.3,242.8c0,0.8,0.1,1.1,0.2,1.3c0.1,0.4,0.4,0.7,0.6,0.7c0.8,0,2.8-5,2.8-9.2C68.6,236.3,68.3,241.5,68.3,242.8z"/><path d="M83.1,237.3c1.1,0,3.3-0.3,3.6-0.4c0.1-0.1,0.6-0.6,0.7-0.6c0.3,0,1.2,1.4,1.2,1.6c0,0.2-0.2,0.4-0.3,0.4c-0.1,1.1-0.5,5.7-0.6,5.7c0.4,0.4,0.6,0.6,0.6,1.1c0,0.2,0,0.8-0.4,0.8c-0.1,0-0.5-0.1-0.6-0.2c-0.5-0.2-0.7-0.2-1.1-0.2c-1.1,0-3.2,0.5-3.4,0.6c-0.1,0.1-0.6,0.4-0.7,0.4c-0.3,0-1.2-1-1.2-1.9c0-0.3,0.1-0.6,0.2-0.9c0.3,1,0.9,1,1.2,1c0.1,0,3.9-0.4,4.2-0.4c0.2-1.3,0.4-5,0.4-6.2c-1,0.1-3.2,0.4-3.9,0.8c-0.1,0.1-0.6,0.4-0.7,0.4c-0.4,0-1.1-1.5-1.1-2c0-0.5,0.2-0.7,0.3-0.9C81.6,237.3,81.9,237.3,83.1,237.3z"/><path d="M92.5,247.6c4-3.9,5.1-7.6,5.7-10.9c-0.4,0.1-1.9,0.5-2.6,0.9c-0.1,0.1-0.5,0.5-0.6,0.5c-0.3,0-1.2-1-1.2-1.9c0-0.5,0.2-0.8,0.3-0.9c0.1,1,0.8,1,1,1c0.3,0,2.7-0.2,3.3-0.6c0.1,0,0.2-0.3,0.3-0.4c0.1-0.1,0.1-0.1,0.2-0.1c0.2,0,1.3,1.1,1.3,1.6c0,0.4-0.2,0.4-0.5,0.5c-0.3,1.3-0.8,2.9-1.7,4.7c1.4,0.7,3.1,2.1,3.1,4c0,1.1-0.6,1.4-0.8,1.4c-0.3,0-0.4-0.4-0.6-1.1c-0.5-1.6-1.1-3-1.8-4C96.8,244.3,95.1,246.4,92.5,247.6L92.5,247.6z"/><path d="M105.2,248.1c2.9-2.1,4.7-4.7,5.4-10.6c-1.2,0.2-3.3,0.8-3.7,1c-0.1,0-0.6,0.4-0.6,0.4c-0.3,0-1-1.3-1-2c0-0.4,0.1-0.6,0.3-0.8c0.4,0.8,0.8,0.8,1,0.8c0.4,0,3.6-0.3,3.9-0.6c0.1-0.1,0.2-0.1,0.4-0.4c0.1-0.1,0.1-0.1,0.2-0.1c0.3,0,0.9,0.8,1.2,1.2c0.1,0.2,0.2,0.4,0.2,0.6c0,0.4-0.4,0.8-0.5,0.8C111.2,242.1,110.2,246.6,105.2,248.1L105.2,248.1z M113.9,234.8c0,0.9-0.5,1.7-1.1,1.7c-0.6,0-1.1-0.8-1.1-1.7c0-1,0.5-1.7,1.1-1.7C113.4,233.1,113.9,233.9,113.9,234.8z M112,234.8c0,0.6,0.3,1.1,0.7,1.1c0.4,0,0.7-0.5,0.7-1.1c0-0.6-0.3-1.1-0.7-1.1C112.4,233.7,112,234.2,112,234.8z"/><path d="M125.9,236.3c-1.9,6.4-3.8,8.1-6,10c-0.1,0.1-0.2,0.2-0.4,0.5c-0.1,0.2-0.2,0.4-0.4,0.4c-0.4,0-1.1-1.6-1.1-2c0-0.2,0.2-0.9,0.2-1.1c0.1-0.6,0.1-3.9,0.1-4.8c0-2.5-0.1-2.9-0.8-2.8c0.5-0.8,0.8-0.9,1-0.9c0.5,0,1.2,1.1,1.2,1.4c0,0.1-0.2,0.8-0.2,0.9c-0.1,0.6-0.1,6-0.1,6.3C121.4,243.2,124.2,239.7,125.9,236.3L125.9,236.3z"/><path d="M131.9,248.1c0,0.3-0.1,0.3-0.2,0.3l-0.8,0.1c-0.2,0-0.3,0-0.3-0.4v-7.7c-0.6,1.2-1.2,1.9-1.5,2.3l0,0c1-2.3,1.8-6.6,2.1-9c0.5,0.2,1.3,0.6,1.5,0.7c0.2,0.1,0.2,0.1,0.2,0.2c0,0.2-0.3,0.2-0.4,0.2c-0.2,1.1-0.5,2-0.9,3.1c0.1,0,0.4,0.1,0.4,0.2c0,0,0.1,0,0.1,0.1c0,0.1-0.2,0.2-0.3,0.2V248.1z M137.1,237.4l0.4-0.8c0.1-0.2,0.1-0.3,0.2-0.3c0.1,0,0.9,1,1,1.1c0.2,0.2,0.2,0.3,0.2,0.4c0,0.2-0.1,0.3-0.4,0.4v5.1c0,0.3,0,0.4-0.2,0.4l-0.8,0.1c-0.2,0-0.3,0-0.3-0.3v-1.1h-1v5.6c0,0.2,0,0.3-0.2,0.3l-0.8,0.1c-0.2,0-0.2,0-0.2-0.3v-5.7h-1v1.2c0,0.4,0,0.4-0.2,0.4l-0.7,0.1c-0.2,0-0.3,0-0.3-0.4v-6.9c0.4,0.1,1.1,0.4,1.4,0.5h0.9v-3.7c0.4,0,1.1,0.1,1.4,0.2c0.1,0,0.2,0.1,0.2,0.1c0,0.1-0.2,0.2-0.3,0.2v3.1H137.1z M134.9,242.3v-4.7h-1v4.7H134.9z M136.2,237.6v4.7h1v-4.7H136.2z"/><path d="M146,234.9l0.3-0.7c0.2-0.4,0.2-0.4,0.2-0.4c0.1,0,1.2,1.2,1.2,1.4c0,0.2-0.3,0.3-0.5,0.4v4.1c0,0.3,0,0.4-0.2,0.4l-0.8,0.1c-0.2,0-0.2,0-0.2-0.6h-1.3v8.4c0,0.3,0,0.4-0.2,0.4l-0.9,0.1c-0.2,0-0.2-0.1-0.2-0.3v-13.7c0.5,0.1,1,0.3,1.5,0.4H146z M144.8,235.1v2h1.3v-2H144.8z M144.8,237.3v2.1h1.3v-2.1H144.8z M149.3,239.6c0,0.5,0,0.6-0.2,0.6l-0.8,0.1c-0.2,0-0.2-0.1-0.2-0.4v-5.4c0.3,0.1,1,0.3,1.4,0.4h1.1l0.4-0.8c0.1-0.1,0.2-0.3,0.2-0.3c0,0,1.2,1.2,1.2,1.5c0,0.1-0.1,0.2-0.4,0.4v11.5c0,0.5,0,1.3-1.1,1.3c-0.4,0-0.4-0.1-0.4-0.3c0-1.2,0-1.4-0.9-1.9v0.4c0,0.2,0,0.4-0.1,0.4l-0.8,0.1c-0.2,0-0.2-0.2-0.2-0.4v-0.7H147v0.8c0,0.3,0,0.4-0.2,0.4l-0.7,0.1c-0.2,0-0.2-0.1-0.2-0.4v-6.1c0.2,0.1,1.1,0.4,1.3,0.4h1.2l0.2-0.5c0.1-0.2,0.2-0.3,0.2-0.3c0.1,0,1.2,1.1,1.2,1.4c0,0.2-0.1,0.2-0.4,0.4v4c0.2,0,0.8,0.1,0.9,0.1c0.2,0,0.2-0.1,0.2-0.5v-6.2H149.3z M147,241.6v2.1h1.5v-2.1H147z M147,243.8v2.2h1.5v-2.2H147z M150.7,237.1v-2h-1.4v2H150.7z M150.7,239.4v-2.1h-1.4v2.1H150.7z"/><path d="M160,245.6c0,1.3-0.7,2.4-1.6,2.4s-1.6-1.1-1.6-2.4c0-1.4,0.7-2.4,1.6-2.4C159.3,243.2,160,244.2,160,245.6z M157.2,245.6c0,1,0.5,1.8,1.2,1.8c0.7,0,1.2-0.8,1.2-1.8c0-1-0.5-1.8-1.2-1.8C157.8,243.8,157.2,244.6,157.2,245.6z"/><path d="M38.2,264.1c0.2,0.2,0.2,0.2,0.5,0.2c0.1,0,0.7,0,0.8,0c0.2,0,0.6,0,0.6,0.6c0,1.1-0.7,1.5-2.7,2c0,0.6,0.1,1.8,0.1,2.3c2,0.8,2.6,2.2,2.6,2.7c0,0.7-0.3,1-0.5,1c-0.2,0-0.4-0.1-0.6-0.4c-0.2-0.2-0.9-1.2-1.4-1.5c0,1.5-0.2,2.2-1.4,2.2c-1.2,0-2.6-0.6-2.6-2.3c0-2,1.6-2,2.1-2c0.4,0,0.7,0,0.9,0.1v-1.9c-0.8,0.1-1.2,0.1-1.4,0.1c-0.3,0-1.6,0-1.6-1.5c0-0.6,0.3-1.1,0.4-1.3c0,0.2,0,0.3,0,0.5c0,0.7,0.3,0.9,1,0.9c0.1,0,0.6,0,1.5-0.3c0-0.7,0-1.4,0-2.1c-0.4,0.1-0.7,0.2-0.9,0.2c-1,0-1.2-0.9-1.4-1.8c0.3,0.3,0.7,0.5,1.1,0.5c0.4,0,1.2-0.4,1.3-0.4c0-1.4,0-2.2-0.5-2.5c0.1-0.2,0.2-0.7,0.7-0.7c0.4,0,0.9,0.5,0.9,0.9c0,0.1-0.1,0.6-0.1,0.7c-0.1,0.3-0.1,0.9-0.1,1.3c0.2-0.1,0.9-0.6,1-0.6c0.1,0,0.7,0.3,0.7,1c0,0.8-0.3,0.9-1.8,1.3c0,0.7,0,1,0,2c0.5-0.2,1-0.4,1-0.7C38.3,264.4,38.2,264.3,38.2,264.1L38.2,264.1z M35.2,270.2c-0.4,0-1.3,0-1.3,0.7c0,0.7,1.1,0.8,1.5,0.8c0.9,0,1-0.6,1-1.3C36,270.2,35.5,270.2,35.2,270.2z"/><path d="M46.9,273.2c0.3-0.2,1.4-0.9,2.1-2.4c-0.8-0.6-1.2-1.5-1.2-4.5c0-0.7,0-0.9,0.1-2.9c-0.9,1.5-1.4,3.7-1.4,5.2c0,0.5,0.1,1.2,0.4,1.9c0.1,0.2,0.1,0.3,0.1,0.4c0,0.4-0.2,0.8-0.6,0.8c-0.2,0-0.5-0.1-0.8-0.6c-0.3-0.6-0.9-1.6-0.9-3.8c0-1.2,0.2-2.6,0.5-5.1c0.1-0.5,0.1-0.9,0.1-1.2c0-0.6-0.1-1.1-0.3-1.8c0.9,0.7,1.4,2.1,1.4,3.2c0,0.5-0.1,0.7-0.2,1.5c-0.3,1.4-0.5,2.9-0.5,3.5c0,0.1,0,0.7,0.2,0.7c0.1,0,0.1-0.1,0.2-0.7c0.3-1.1,1.4-5.4,3.7-5.9c0-0.7-0.1-1.5-0.7-1.5c-0.2,0-0.2,0.1-0.4,0.2c0.1-0.4,0.4-1.2,0.9-1.2c0.2,0,1.1,0.1,1.1,1.2c0,0.2,0,1.2,0,1.4c0.6,0.1,2.6,0.5,2.6,4.9c0,5-2.9,4.8-3.2,4.7C49.3,272.7,47.7,273.1,46.9,273.2L46.9,273.2z M49.8,264.7c0-0.4,0-1.7-0.1-2.8c-0.7,0.2-1.3,0.8-1.6,1.3c0,0.6,0,1.2,0,1.7c0,1.8,0.1,4,1.4,4.5C49.8,268.1,49.8,265.6,49.8,264.7z M50.9,267.2c0,1.2-0.1,1.9-0.1,2.1c0.4-0.2,1.4-0.7,1.4-3.6c0-2.3-0.8-3.4-1.4-3.7C50.8,264.7,50.9,265.9,50.9,267.2z"/><path d="M58.5,273.5c1.6-0.5,2.8-1.5,2.8-6.5c0-0.3,0-2.9-0.3-3.8c-0.1-0.2-0.2-0.3-0.4-0.3c-0.7,0-1.4,2.9-1.4,5.4c0,0.5,0,0.6,0.1,1.1c0,0.2,0,0.3,0,0.3c0,0.4-0.3,0.7-0.6,0.7c-0.9,0-1.1-2.1-1.1-3.7c0-1.7,0.2-2.7,0.9-5.2c0.1-0.5,0.4-1.5,0.4-2c0-0.5-0.2-0.5-0.5-0.6c0.1-0.1,0.3-0.3,0.6-0.3c0.4,0,1.1,0.3,1.1,1.6c0,0.8-0.2,1.2-0.3,1.5c-0.7,1.5-1.3,2.8-1.3,5c0,0.1,0,0.4,0.1,0.4c0.1,0,0.1,0,0.1-0.4c0.3-1.2,1-3.1,1.4-3.7c0.2-0.3,0.5-0.6,0.9-0.6c0.8,0,1.2,1.2,1.2,1.4c0.3,0.9,0.4,2.7,0.4,3.6c0,2.5-0.2,4.8-2.5,5.7C59.3,273.6,58.8,273.6,58.5,273.5L58.5,273.5z"/><path d="M71.6,272.7c0.9-0.4,3.4-1.5,3.4-6.5c0-2.3-0.7-5.7-3.1-5.7c0.4,0.8,0.5,1.4,0.5,1.9c0,1.6-1.1,9.3-3.3,9.3c-0.7,0-0.8-0.7-0.9-1.5c-0.1-0.8-0.2-1-0.5-1.7c-0.3-0.8-0.4-1.2-0.4-1.8c0-3.8,2.5-6.7,4.9-6.7c2.2,0,4.2,2.3,4.2,6.7c0,2.9-1,4.6-2.1,5.3C73.5,272.4,72.6,272.7,71.6,272.7L71.6,272.7z M68.3,267.8c0,0.8,0.1,1.1,0.2,1.3c0.1,0.4,0.4,0.7,0.6,0.7c0.8,0,2.8-5,2.8-9.2C68.6,261.3,68.3,266.5,68.3,267.8z"/><path d="M83.1,273c0,0.3,0,0.4-0.2,0.4l-1,0.1c-0.2,0-0.2,0-0.2-0.2V265c-0.3,0.7-0.9,1.6-1.5,2.3l0,0c0.9-1.9,1.8-6.1,2.1-8.6c0.2,0.1,1.8,0.7,1.8,0.9c0,0.1,0,0.1-0.3,0.2c-0.3,1.2-0.7,2.1-1,2.9c0.2,0,0.6,0.1,0.6,0.2c0,0.1-0.2,0.3-0.3,0.3V273z M83.2,266.2c0.6-1.2,1.6-5.1,2-7.6c0.1,0,1.2,0.5,1.6,0.7c0.1,0.1,0.2,0.1,0.2,0.1c0,0.1-0.2,0.2-0.3,0.2c-0.1,0.5-0.4,1.3-0.9,2.5h2.5l0.6-1.4c0.1-0.1,0.1-0.2,0.1-0.2c0,0,1.3,1.5,1.3,1.6c0,0.1-0.1,0.1-0.1,0.1h-3v3.1H88l0.6-1.4c0-0.1,0.1-0.2,0.1-0.2c0.1,0,1.2,1.5,1.2,1.6c0,0.1-0.1,0.1-0.1,0.1h-2.7v3.1h1.1l0.6-1.4c0.1-0.1,0.1-0.2,0.1-0.2c0,0,1.3,1.5,1.3,1.7c0,0.1-0.1,0.1-0.1,0.1h-3v4.1c0,0.2,0,0.4-0.2,0.4l-1,0.1c-0.2,0-0.2-0.1-0.2-0.3v-10.9h-0.1C84.6,264.4,83.9,265.4,83.2,266.2L83.2,266.2z"/><path d="M97.6,272.5c1.5-0.7,3.1-1.9,3.1-4.4c0-0.2,0-2.8-1.5-2.8c-0.9,0-2.3,1.2-3.1,2.1c-0.4,0.4-0.6,0.6-0.9,0.6c-0.5,0-0.9-0.6-0.9-1.5c0-0.4,0.1-0.6,0.1-0.8c0.1,0.4,0.4,0.5,0.6,0.5c0.1,0,0.3-0.1,0.9-0.4c1.5-1,2.6-1.7,3.6-1.7c1.1,0,2.5,1.4,2.5,4s-1.3,3.3-1.7,3.6C99.8,272.1,98.8,272.5,97.6,272.5L97.6,272.5z"/><path d="M109.8,261.2c0.1,0.2,0.1,0.2,0.5,0.2c0.3,0,0.5,0.2,0.5,0.7c0,0.8-0.6,1.2-1.7,1.8c-0.2,1.8-0.2,2.2-0.3,2.7c0.2-0.3,0.9-1.6,1-1.8c1.3-2.1,2.2-2.3,2.8-2.3c1.2,0,1.9,0.8,1.9,1.8c0,0.5-0.2,0.9-0.5,0.9c-0.1,0-0.1,0-0.2-0.1c-0.4-0.2-0.5-0.3-0.7-0.3c-0.4,0-0.7,0.2-1.3,0.7v-0.1c0.2-0.3,0.7-0.8,0.7-1.2c0-0.2-0.1-0.6-0.8-0.6c-0.8,0-2.1,0.9-3.1,4.8c-0.4,1.4-0.6,2.3-0.7,3.7c-0.1,0.9-0.6,0.9-0.8,0.9c-0.4,0-0.6-1.2-0.6-1.6c0-0.3,0-0.4,0.3-1.1c0.8-2,1.2-5.6,1.3-6.1c-0.2,0.1-0.5,0.2-0.7,0.2c-1.1,0-1.2-1.8-1.2-2.1c0.3,0.5,0.7,0.5,0.8,0.5c0.4,0,1.2-0.4,1.4-0.5c0.1-0.6,0.2-1.6,0.2-2.2c0-0.4,0-0.8-0.5-0.9c0.2-0.6,0.7-0.7,0.8-0.7c0.5,0,0.8,0.7,0.8,1.1c0,0.2-0.1,1-0.2,1.2c0,0.4-0.1,0.5-0.1,0.9C109.6,261.6,109.7,261.5,109.8,261.2L109.8,261.2z M110.4,269.6c0,0.7,0.3,1.4,1.1,1.4c0.2,0,0.8-0.1,1.4-0.2c0.1,0,0.7-0.2,0.7-0.2c0.4,0,0.7,0.7,0.7,1.2c0,0.9-0.8,1.1-1.8,1.1c-1.2,0-2.4-0.1-2.4-2.4c0-1.4,0.4-2.4,0.6-2.8C110.4,268.8,110.4,269.5,110.4,269.6z"/><path d="M118.7,261.9l-0.1-0.2h4.1v-3c1.5,0.3,1.6,0.3,1.6,0.4c0,0.1,0,0.1-0.3,0.3v2.4h2.2l0.6-1.4c0-0.1,0.1-0.2,0.1-0.2c0.1,0,1.2,1.6,1.2,1.7c0,0.1-0.1,0.1-0.1,0.1h-4c0,0,0,0.1,0,0.1c0.1,1,0.3,2.7,0.9,4.4c0.6-1.3,0.9-2.1,1.1-3.2c0.4,0.2,0.6,0.3,1.6,0.9c0.1,0.1,0.2,0.1,0.2,0.2c0,0.1-0.1,0.1-0.1,0.1c0,0-0.2,0-0.2,0c-0.5,0.6-1.3,1.5-2.5,2.2c0.7,1.7,1.9,3.3,3.4,4.2v0c-0.6,0.3-0.9,1-0.9,1.5c-0.1,0.4-0.1,0.5-0.2,0.5c-0.3,0-1.4-1.3-2.1-3.1c-1.4,1.3-4,3-4.8,3.5c-0.3-1.1-0.3-1.2-0.7-2.5l1.4-0.3v-3.5c-0.4,0.4-1.6,1.8-2.7,2.4l0,0c1.8-2.2,3.3-4.9,4-7.6H118.7z M125.2,269.8c-0.3-0.8-1.1-2.6-1.1-7.7c-0.2,0.4-0.6,1.6-1.6,3.1v5.1L125.2,269.8z"/><path d="M134.9,271.2v-1.4c-0.5,0.4-1.8,1.3-2.7,1.5l0,0c1.2-1,2.6-2.8,3.3-4.2h-3.2l-0.1-0.2h4.2v-1.4c0.9,0.1,1.1,0.2,1.4,0.2c0.1,0,0.2,0.1,0.2,0.1c0,0.1-0.1,0.1-0.4,0.2v0.8h2.3l0.6-1.2c0-0.1,0.1-0.2,0.1-0.2c0.1,0,1.1,1.4,1.1,1.5c0,0.1,0,0.1-0.1,0.1h-4.3l0,0c0.1,0.4,0.4,1.4,1.2,2.3c0.1-0.3,0.6-1.5,0.8-2.3c0.7,0.4,0.7,0.5,1.4,1c0,0,0.1,0.1,0.1,0.2c0,0.1-0.1,0.1-0.1,0.1c-0.1,0-0.1,0-0.2,0c-0.7,0.6-1.5,1.1-1.8,1.3c0.4,0.4,1.4,1.2,3,1.4v0c-0.5,0.5-0.6,0.6-0.7,1.7c0,0.2,0,0.3-0.2,0.3c-0.1,0-1.6-0.4-2.6-2.2c-0.9,0.8-2.9,2-4.2,2.5c-0.1-0.3-0.4-1.8-0.5-2.1L134.9,271.2z M134.6,263v-4.3c0.6,0.1,0.9,0.1,1.4,0.2c0.1,0,0.2,0.1,0.2,0.1c0,0.1-0.2,0.2-0.3,0.2v6.7c0,0.3,0,0.4-0.2,0.4l-0.8,0.1c-0.2,0-0.3,0-0.3-0.3v-2.5c-0.4,0.6-1.2,1.7-1.7,2.3c-0.2-0.6-0.4-1.8-0.5-2.3L134.6,263z M132.8,259.3c1.5,1,1.6,1.8,1.6,2.3c0,0.8-0.5,1-0.8,1c-0.4,0-0.4-0.3-0.4-0.5C133.2,261.3,133.1,260.1,132.8,259.3L132.8,259.3z M139.9,261.5l0.6-1.2c0.1-0.1,0.1-0.2,0.1-0.2c0,0,1.1,1.3,1.1,1.4c0,0.1,0,0.1-0.1,0.1h-2.3v3.3h0.3l0.5-1.1c0-0.1,0.1-0.2,0.1-0.2c0.1,0,1,1.3,1,1.4c0,0.1,0,0.1-0.1,0.1h-4.8l-0.1-0.2h1.7v-3.3h-1.9l-0.1-0.2h2v-2.8c0.5,0,1,0.1,1.5,0.2c0.1,0,0.1,0,0.1,0.1c0,0.1-0.1,0.2-0.3,0.2v2.3H139.9z M138.2,270.8c-0.4-0.8-0.8-2-0.9-3.4c-0.2,0.2-0.5,0.7-1.2,1.4v2.3L138.2,270.8z"/><path d="M149.2,260c0-0.4-0.1-0.6-0.5-0.8c0.1-0.2,0.3-0.6,0.7-0.6c0.5,0,0.9,0.5,0.9,1c0,0.2,0,0.3-0.3,1c0.1-0.1,0.2-0.1,0.3-0.3c0.2-0.2,0.2-0.2,0.3-0.2c0.4,0,0.9,0.3,0.9,1c0,0.3-0.1,0.4-0.2,0.5c-0.2,0.2-1,0.5-2,1c-0.1,0.3-0.4,1.3-0.5,1.6c0.3-0.3,0.6-0.4,0.9-0.4c0.8,0,0.9,1.5,0.9,2c0.3-0.9,1.1-2.6,2.3-2.6c0.9,0,1.5,0.8,1.5,2.1c0,1-0.4,1.3-1.1,1.6c-1.4,0.6-2.2,0.9-2.8,1.3c0,0.2,0,1.3,0,1.5c0,0.3,0,0.8-0.6,0.8c-0.7,0-0.7-0.9-0.7-1.6c-0.4,0.3-0.8,0.7-0.8,1.5c0,0.7,0.5,0.8,1.1,0.8c0.7,0,1.3-0.2,1.8-0.3c0.1,0,0.2-0.1,0.3-0.1c0.2,0,0.9,0.3,0.9,1.1c0,1-1,1.2-2,1.2c-0.7,0-1.8-0.2-2.4-0.8c-0.3-0.3-0.4-0.7-0.4-1.3c0-0.8,0.3-1.6,1.6-2.6c0.1-1,0.2-1.6,0.2-2.4c0-0.6,0-1.7-0.5-1.7c-0.3,0-0.4,0.3-1.2,2.1c-0.5,1.2-1.2,2.5-1.7,2.5c-0.3,0-0.5-0.3-0.5-1c0-0.7,0.2-0.9,0.6-1.4c0.8-0.8,1.4-1.9,1.9-3.5c-0.2,0.1-0.4,0.1-0.5,0.1c-0.8,0-1-1.4-1.1-2.2c0.2,0.3,0.7,0.6,1,0.6c0.2,0,0.5-0.1,1.1-0.4C149.2,260.6,149.2,260.3,149.2,260z M153,265.7c0.2-0.2,0.4-0.5,0.4-0.9c0-0.4-0.3-0.9-0.8-0.9c-0.2,0-0.5,0-1,0.8c-0.5,0.7-0.6,1.3-0.8,3.1C151.8,266.9,152.4,266.5,153,265.7z"/><path d="M164.1,261.5v1.6h1.1l0.5-1.1c0.1-0.1,0.1-0.2,0.1-0.2c0,0,1.2,1.2,1.2,1.4c0,0.1-0.1,0.1-0.1,0.1h-2.8v1.7h2.4l0.5-1.2c0.1-0.2,0.1-0.2,0.1-0.2c0.1,0,1.1,1.3,1.1,1.5c0,0.1-0.1,0.1-0.1,0.1h-4.9c-0.3,0.6-0.4,0.9-0.8,1.4h3l0.4-0.8c0.1-0.1,0.1-0.2,0.1-0.2c0.1,0,0.6,0.6,0.7,0.7c0.5,0.5,0.5,0.6,0.5,0.8s0,0.2-0.4,0.5v5.3c0,0.3,0,0.3-0.2,0.4l-0.9,0.1c-0.2,0-0.2-0.1-0.2-0.3v-0.5h-3.4v0.5c0,0.2,0,0.3-0.2,0.3l-0.9,0.1c-0.2,0-0.2,0-0.2-0.3v-4.6c-0.2,0.3-1.2,1.3-2.4,2.1l0,0c1.3-1.4,2.8-4.5,3.1-5.5h-2.9l-0.1-0.2h4.1v-1.7h-3l-0.1-0.2h3.1v-1.6h-3.7l0-0.2h2.7c-0.1-1.1-0.4-2.1-0.8-2.6v0c0.7,0.2,2,0.8,2,1.8c0,0.3-0.1,0.6-0.3,0.8h1.4c0.1-0.6,0.3-1.7,0.3-2.6c0.2,0,1.7,0.5,1.7,0.5c0,0,0.1,0,0.1,0.1c0,0.1,0,0.1-0.3,0.2c-0.8,1.1-0.9,1.2-1.5,1.8h1.8l0.6-1.2c0.1-0.2,0.1-0.2,0.1-0.2c0.1,0,1.1,1.3,1.1,1.5c0,0.1-0.1,0.1-0.1,0.1H164.1z M162.3,266.8c0,0-0.1,0.1-0.1,0.2v1.5h3.4v-1.7H162.3z M162.2,268.7v1.7h3.4v-1.7H162.2z M162.2,270.6v1.8h3.4v-1.8H162.2z"/><path d="M173.2,261.6c0.2,0,1.3-0.4,1.5-0.4c1.2-0.4,2.5-0.6,3.7-0.9c0.4-0.1,0.4-0.1,0.8-0.4c0.1,0,0.1-0.1,0.2-0.1c0.2,0,1.4,0.5,1.4,1.5c0,0.3-0.1,0.7-0.5,0.7c-0.1,0-0.2,0-0.6-0.2c-0.4-0.1-0.8-0.2-1-0.2c-1.3,0-1.7,1.1-1.9,1.5c-0.4,0.9-0.6,2.8-0.6,4.5c0,2.8,0.9,3.1,2,3.5c0.4,0.1,0.8,0.3,0.8,1.2c0,0.2,0,1-0.6,1c-0.1,0-0.7,0-1.4-0.4c-1.2-0.7-1.8-1.8-1.8-4.5c0-2.8,0.8-5.5,2-6.6c-0.9,0.1-2.3,0.8-3.1,1.3c-0.5,0.3-0.5,0.3-0.7,0.3c-0.7,0-1.1-0.9-1.1-1.8c0-0.2,0-0.6,0.1-0.9C172.6,261.1,172.7,261.6,173.2,261.6z"/><path d="M184.5,269.8c3.1-3,5.6-8.6,5.6-9.5c0-0.2,0-0.4-0.6-0.8c0.1-0.1,0.4-0.3,0.7-0.3c0.6,0,1.5,1.1,1.5,1.8c0,0.2,0,0.2-0.2,0.5c-0.3,0.3-1.3,2.4-1.6,2.8c0.1,0.1,0.5,0.4,0.5,0.7c0,0,0,0.1-0.1,0.4c-0.1,0.4-0.1,0.6-0.1,1.7c0,0.8,0.1,4.8,0.1,5c0,0.9-0.4,1.2-0.6,1.2c-0.6,0-0.8-1.5-0.8-1.8c0-0.2,0.1-1.2,0.1-1.4c0-0.5,0.1-1.3,0.1-3c0-0.5,0-1,0-1.5C187.5,267.9,185.7,269.3,184.5,269.8L184.5,269.8z"/><path d="M197,265.1c0.3,0,0.9-0.7,2.4-2.6c0.3-0.3,0.4-0.4,0.5-0.4c0.2,0,0.4,0.3,0.8,0.8c0.8,1.1,2.3,3,4.3,4.6c0.7,0.5,0.8,1.6,0.8,1.8c0,0.5-0.3,1-0.6,1c-0.9,0-3.6-4.2-4.9-6.2c-0.3-0.4-0.3-0.5-0.4-0.5c-0.3,0-2,3.1-2.1,3.5c-0.1,0.4-0.2,0.5-0.3,0.5c-0.1,0-0.2,0-0.7-0.8c-0.1-0.2-0.5-0.8-0.5-1.6c0-0.4,0.1-0.5,0.2-1.1C196.5,264.8,196.8,265.1,197,265.1z M204.2,262.8c0,0.4-0.2,0.7-0.4,0.7c-0.2,0-0.3-0.1-0.5-0.7c-0.4-1-0.9-1.5-1.1-1.7C203.9,261.4,204.2,262.3,204.2,262.8z M203.6,259.6c0.8,0,1.6,0.3,1.6,1.3c0,0.5-0.2,0.8-0.4,0.8c-0.2,0-0.2,0-0.5-0.7c-0.3-0.6-0.7-1.1-1.2-1.4C203.2,259.6,203.4,259.6,203.6,259.6z"/><path d="M218.5,261.8c-0.8,2.7-2.2,6.9-6.5,10c-0.2,0.2-0.3,0.2-0.5,0.5c0,0-0.1,0.2-0.2,0.2c-0.4,0-1.4-1.6-1.4-2.6c0-0.5,0.2-0.9,0.3-1c0.1,0.4,0.2,0.9,0.6,0.9C211.5,269.8,215.2,268,218.5,261.8L218.5,261.8z M212.2,261.1c0.5,0.3,0.9,1,0.9,1.8c0,0.8-0.4,1.3-0.8,1.3c-0.3,0-0.4-0.2-0.7-1c-0.2-0.4-0.6-1.5-1.6-2.5C211.2,260.7,211.7,260.8,212.2,261.1z"/><path d="M227.5,266.7c0,0.7-0.3,1.2-0.7,1.2c-0.3,0-0.4-0.3-0.8-1.1c-0.2-0.5-0.8-1.5-1.7-2.2c0,1.7,0,2.9,0,3.6c0,0.6,0.2,3,0.2,3.5c0,0.6-0.1,1.7-0.7,1.7s-0.8-1.3-0.9-2.2c0.3-1.3,0.3-4.5,0.3-6.1c0-0.5,0-4-0.1-4.5c-0.1-0.3-0.2-0.6-0.6-0.6c-0.1,0-0.2,0-0.3,0.1c0.2-0.6,0.6-1.1,1-1.1c0.4,0,1.3,0.2,1.3,1c0,0.2-0.2,1-0.2,1.1c-0.1,0.6-0.1,2.4-0.1,3.1C226.1,264.4,227.5,265.2,227.5,266.7z"/><path d="M233.9,266.1c-0.1,0.3-0.3,1.6-0.4,1.9c-0.1,0.7-0.2,1.5-0.2,2c0,0.6,0,0.8,0.1,1.3c0.2,0.7,0.2,0.7,0.2,0.9c0,0.3-0.3,0.8-0.6,0.8c-0.7,0-1.2-1.9-1.2-4.6c0-1.3,0.1-1.8,0.5-6.1c0.1-0.9,0.1-1.5,0.1-1.7c0-0.7-0.1-1-0.2-1.5c0.6,0.7,1.3,2,1.3,3.4c0,0.5-0.1,0.8-0.5,3.4c-0.2,1.2-0.2,1.8-0.2,2.4c0,0.4,0,0.6,0.1,0.6c0.1,0,0.2-0.4,0.3-0.6C233.4,267.6,233.7,266.7,233.9,266.1L233.9,266.1z M235.8,268.9c0,1.5,0.8,1.5,1.1,1.5c0.2,0,0.8,0,1.8-0.4c0.5-0.2,0.6-0.2,0.7-0.2c0.3,0,0.7,0.2,0.7,0.9c0,0.6-0.2,0.9-0.5,1.2c-0.7,0.5-1.6,0.6-2,0.6c-1.1,0-1.5-0.4-1.8-0.9c-0.3-0.5-0.5-1.2-0.5-1.7c0-0.1,0-0.9,0.4-1.8C235.8,268.2,235.8,268.5,235.8,268.9z M236.8,261.1c0.3,0,0.7-0.2,1-0.3c0.8-0.5,0.9-0.5,1-0.5c0,0,0.8,0.1,0.8,1c0,1.2-1.6,1.3-2,1.3c-0.3,0-1.2,0-1.5-2C236.3,260.8,236.5,261.1,236.8,261.1z"/><path d="M251.6,264.6V260c0.3,0,1,0.1,1.2,0.1c0.3,0.1,0.4,0.1,0.4,0.2c0,0.2-0.3,0.2-0.3,0.2v4.6c0,0.2,0,0.4-0.2,0.4l-0.8,0.1c-0.2,0-0.3-0.1-0.3-0.4v-0.6h-1.9v7h2.2v-5.3c0.5,0,1,0.1,1.5,0.2c0.1,0,0.1,0.1,0.1,0.1c0,0.1-0.1,0.2-0.3,0.2v5.8c0,0.2,0,0.4-0.2,0.5l-0.9,0.1c-0.2,0-0.2-0.1-0.2-0.4V272h-5.7v1c0,0.4,0,0.4-0.2,0.4l-0.9,0.1c-0.2,0-0.2-0.1-0.2-0.3v-6.7c0.3,0,1.3,0.2,1.5,0.2c0,0,0.1,0,0.1,0.1c0,0.2-0.1,0.2-0.3,0.3v4.7h2.2v-7h-1.8v0.8c0,0.3,0,0.4-0.2,0.4l-0.9,0.1c-0.1,0-0.2-0.1-0.2-0.3v-5.6c0.6,0,1.4,0.1,1.5,0.2c0.1,0,0.1,0,0.1,0.2c0,0.1-0.1,0.2-0.3,0.3v3.9h1.8v-6c0.6,0,1.1,0.1,1.5,0.2c0.1,0,0.1,0.1,0.1,0.1c0,0.2-0.2,0.2-0.3,0.2v5.4H251.6z"/><path d="M262.3,265.1c2.1,0,2.6,2.4,2.6,3.9c0,2.7-1.3,4-3.1,4c-1.5,0-2.1-1-2.1-2.1c0-0.9,0.4-1.8,1.3-1.8c0.7,0,1.2,0.6,1.2,1.4c0,0.4-0.1,0.5-0.1,0.7c0.5-0.1,1.6-0.4,1.6-3c0-0.9-0.2-2.7-1.6-2.7c-0.9,0-1.6,0.7-2.4,2.9c-0.2,0.6-0.2,0.7-0.5,1.9c-0.1,0.2-0.1,0.6-0.5,0.6c-0.6,0-0.7-1-0.7-1.6c0-0.6,0.1-0.7,0.7-1.7c0.2-0.3,2.5-4.4,3.5-6.5c0.1-0.2,0.1-0.3,0.1-0.4c0-0.1,0-0.1-0.1-0.1c0,0-0.3,0.3-0.6,0.7c-0.5,0.6-0.7,0.8-1,0.8c-0.7,0-1.1-1.1-1.1-1.7c0.2,0.1,0.3,0.3,0.6,0.3c0.5,0,1.4-0.9,1.9-1.3c0.5-0.4,0.5-0.4,0.7-0.4c0.3,0,1.2,0.2,1.2,1.6c0,0.5-0.1,0.6-0.5,1c-0.7,0.8-2,3.4-2.1,3.6C261.5,265.2,261.8,265.1,262.3,265.1z M261.3,270.8c0-0.3-0.1-0.6-0.4-0.6c-0.3,0-0.4,0.3-0.4,0.5c0,0.2,0.1,0.5,0.6,0.6C261.2,271.1,261.3,271,261.3,270.8z"/><path d="M269.8,267.7c0,2.4,1.1,2.6,2.8,2.6c0.7,0,1.2,0,2-0.4c0.3-0.1,0.3-0.1,0.5-0.1c0.2,0,1,0.4,1,1.1c0,1-0.7,1.5-2.9,1.5c-1.6,0-3.6-0.1-3.6-3.3c0-0.7,0.2-1.6,0.2-2.1C269.8,267.3,269.8,267.5,269.8,267.7z M271.3,263.3c0.5-0.6,0.7-0.8,1.3-1.4c-0.2,0-0.4,0-0.6,0c-1.2,0-1.5-0.8-1.7-2.5c0.3,0.8,0.9,0.8,1.1,0.8c0.4,0,1-0.1,2.1-0.5c0.6-0.2,0.7-0.2,0.8-0.2c0.8,0,0.9,0.9,0.9,1.3c0,0.8-0.4,0.9-1.3,1C273.2,262,272.2,262.5,271.3,263.3L271.3,263.3z"/><path d="M282.4,258.9c0.6,0,1.2,0.6,1.2,1.4c0,0.1-0.1,1-0.1,1.2c0,0.4-0.1,1.2-0.1,2c0,0.7,0,1.4,0.5,1.4c0.7,0,1.3-1.1,1.4-1.7c0.1-0.3,0.1-0.5,0.3-0.5c0.5,0,1.1,1,1.1,1.5c0,0.4-0.1,0.7-1.5,1.3c-1.8,0.8-2,0.8-2.6,1.2c-0.7,0.6-1.3,1.6-1.3,2.6c0,1.5,1.3,1.5,1.7,1.5c0.6,0,1.3-0.2,1.9-0.4c0.1,0,0.5-0.2,0.6-0.2c0.3,0,1.2,0.7,1.2,1.3c0,0.6-0.4,0.8-0.5,0.8c-0.6,0.2-1.2,0.2-2.4,0.2c-1.8,0-2.2-0.3-2.6-0.6c-0.4-0.4-0.8-1.1-0.8-2c0-1.6,0.8-2.9,2.1-4.1c-0.3-0.2-0.6-0.4-0.6-1.7c0-0.3,0-1.8,0-2.1c0-1.4,0-2.5-0.6-2.5c-0.1,0-0.3,0.1-0.3,0.1C281.5,259.2,281.9,258.9,282.4,258.9z"/><path d="M297,268.4c0.3,1.3,0.5,1.8,0.9,2.1c0.4,0.3,0.6,0.4,0.6,0.8c0,0.4-0.2,0.9-0.5,1.2c-0.7,0.8-2.1,0.8-2.4,0.8c-1,0-2.4-0.2-2.4-3.4c0,0,0-0.6,0-1.6c-0.6-0.1-1.8-0.4-1.8-1.6c0-0.9,1-2,1.1-2.1c-0.3,0.5-0.4,0.8-0.4,1.2c0,0.7,0.7,0.8,1.2,0.9c0-0.2,0.1-2.4,0.1-2.5c-0.9-0.1-1.3-0.4-1.6-1c-0.3-0.6-0.3-1-0.3-1.4c0.1,0.3,0.4,1,1.6,1c0.2,0,0.3,0,0.4,0c0-0.8,0-0.9,0-1.2c0-1.4-0.2-1.4-0.5-1.4c-0.1,0-0.1,0-0.2,0c0.2-0.6,0.4-0.9,0.8-0.9c0.6,0,1.1,0.6,1.1,1.5c0,0.3-0.1,1.5-0.1,1.8c0.3-0.1,0.7-0.2,0.9-0.4c0.6,0.3,0.9,0.5,0.9,1.1c0,0.6-0.3,1-1.9,1.1c-0.1,0.5-0.2,2.1-0.2,2.5c0.6,0,1.3-0.1,1.8-0.6c0.3,0.1,0.3,0.1,0.7,0.1c0.1,0,0.7,0,0.7,0.8c0,0.8-0.4,0.9-0.9,1c-0.8,0.2-1.7,0.3-2.4,0.3c0,0.9,0,1.4,0,1.5c0,1.1,0.2,1.6,1,1.6c0.1,0,1.6,0,1.9-0.6c0.1-0.2,0.1-0.7,0.1-0.9C297.1,269.7,297.1,269.2,297,268.4L297,268.4z"/><path d="M305.9,270.6c0,1.3-0.7,2.4-1.6,2.4s-1.6-1.1-1.6-2.4c0-1.4,0.7-2.4,1.6-2.4C305.2,268.2,305.9,269.2,305.9,270.6z M303.2,270.6c0,1,0.5,1.8,1.2,1.8c0.7,0,1.2-0.8,1.2-1.8c0-1-0.5-1.8-1.2-1.8C303.7,268.8,303.2,269.6,303.2,270.6z"/></g></g><line class="st1" x1="18.9" y1="20.9" x2="18.9" y2="321.3"/><path d="M18.9,12.8c2.2,0,4.1,1.8,4.1,4.1c0,2.2-1.8,4.1-4.1,4.1s-4.1-1.8-4.1-4.1C14.8,14.6,16.7,12.8,18.9,12.8z"/><path class="st1" d="M18.9,10.9c3.3,0,5.9,2.7,5.9,5.9c0,3.3-2.7,5.9-5.9,5.9c-3.3,0-5.9-2.7-5.9-5.9C13,13.6,15.6,10.9,18.9,10.9z"/><polygon class="st1" points="18.9,4.6 24.2,13.8 29.5,23 18.9,23 8.3,23 13.6,13.8 "/><g><path d="M10.2,75.8c0,1.7,0,2.1,0.2,2.1c0.2,0,0.3,0,0.4-0.1c0.1,0.2,0.1,0.6,0,0.8c-1,0.1-1.7,0.6-1.8,0.6c-0.1,0-0.1-0.1-0.2-0.3l0-0.6c0-0.1,0-0.2-0.1-0.1C8.5,78.7,8.2,79,7.8,79c-1.1,0-1.9-1.6-1.9-3.5c0-2.5,1-4.2,2.3-4.2c0.2,0,0.4,0,0.6,0.1c0.1-0.1,0.1-0.2,0.1-0.3v-2.3c0-0.7,0-0.9-0.2-1.1l-0.2-0.2c-0.1-0.1-0.1-0.4,0-0.5c0.4-0.2,1-0.6,1.5-1c0.1,0,0.1,0,0.2,0.1c0,0.7,0,1.5,0,2.6V75.8z M8.9,73.4c0-0.3,0-0.5-0.1-0.6c-0.1-0.4-0.3-0.7-0.6-0.7c-0.5,0-1,1-1,2.8c0,1.2,0.3,2.8,1.1,2.8c0.1,0,0.3-0.1,0.4-0.2c0.1-0.1,0.1-0.4,0.1-0.7V73.4z"/></g><g><path d="M7.4,250c-0.2,0-0.2,0-0.2,0.3c0,1.4,0.5,2.7,1.4,2.7c0.3,0,0.6-0.1,0.9-0.9c0.1,0,0.3,0.1,0.3,0.4c-0.4,1.5-1.1,2.1-1.7,2.1c-1.3,0-2-1.7-2-3.7c0-2.3,0.9-4,2.1-4c1,0,1.6,1.2,1.6,2.6c0,0.3,0,0.6-0.4,0.6H7.4z M8,249.2c0.1,0,0.3,0,0.4-0.2c0-0.1,0.1-0.2,0.1-0.4c0-0.6-0.2-1-0.5-1c-0.4,0-0.8,0.7-0.8,1.3c0,0.3,0.1,0.3,0.4,0.3H8z"/></g><line class="st2" x1="22" y1="44.2" x2="15.4" y2="44.2"/><line class="st2" x1="22" y1="75.4" x2="15.4" y2="75.4"/><line class="st2" x1="22" y1="110.6" x2="15.4" y2="110.6"/><line class="st2" x1="22" y1="145.8" x2="15.4" y2="145.8"/><line class="st2" x1="22" y1="181" x2="15.4" y2="181"/><line class="st2" x1="22" y1="216.1" x2="15.4" y2="216.1"/><line class="st2" x1="22" y1="251.3" x2="15.4" y2="251.3"/><line class="st2" x1="22" y1="251.3" x2="15.4" y2="251.3"/><line class="st2" x1="22" y1="251.3" x2="15.4" y2="251.3"/><line class="st2" x1="21.9" y1="286.1" x2="15.4" y2="286.1"/><line class="st2" x1="21.9" y1="321.3" x2="15.4" y2="321.3"/><line class="st3" x1="96.2" y1="321.3" x2="33.6" y2="321.3"/><line class="st3" x1="104.5" y1="41.3" x2="34.7" y2="41.3"/><circle cx="9.6" cy="44.2" r="1.7"/><g><path d="M36.9,309l-0.3,1.8h0.6l-0.1,0.8h-0.6l-0.3,2.2h-0.4l0.3-2.2h-0.6l-0.3,2.2h-0.4l0.3-2.2h-0.6l0.1-0.8h0.7l0.3-1.8h-0.6l0.1-0.8h0.7l0.3-2h0.4l-0.3,2h0.6l0.3-2h0.4l-0.3,2h0.6l-0.1,0.8H36.9z M35.9,309l-0.3,1.8h0.6l0.3-1.8H35.9z"/><path d="M42.9,310c0,1.9-0.4,3.9-1.5,3.9c-1.1,0-1.5-2-1.5-3.9c0-1.9,0.4-3.9,1.5-3.9C42.4,306.1,42.9,308.1,42.9,310z M41.4,313.4c0.5,0,0.6-2.3,0.6-3.4s-0.1-3.4-0.6-3.4s-0.6,2.3-0.6,3.4S40.9,313.4,41.4,313.4z"/><path d="M46.8,310.6c0.1,0.1,0.1,0.3,0.1,0.5c0,0.2,0,0.3-0.1,0.5l-1.6,0.3c-0.1-0.1-0.1-0.3-0.1-0.5c0-0.2,0-0.4,0.1-0.5L46.8,310.6z"/><path d="M50.5,309.6c-0.1,0-0.1,0-0.1,0.3v1.8c0,0.7,0,1.4,0.5,1.4c0.1,0,0.2-0.1,0.3-0.2c0.1,0,0.1,0.2,0.1,0.3c-0.2,0.4-0.5,0.7-0.9,0.7c-0.5,0-0.7-0.6-0.7-1.4v-2.7c0-0.3,0-0.3-0.1-0.3h-0.2c-0.1,0-0.1-0.3,0-0.4c0.2-0.1,0.4-0.3,0.5-0.5c0.1-0.2,0.3-0.4,0.5-0.9c0,0,0.2,0,0.2,0.1v0.9c0,0.2,0,0.2,0.1,0.2h0.6c0,0,0.1,0.1,0.1,0.2c0,0.1,0,0.3-0.1,0.4H50.5z"/><path d="M55.5,312.1c0,0.8,0.2,1,0.3,1c0.1,0,0.1,0,0.2-0.1c0.1,0,0.1,0.2,0.1,0.3c-0.1,0.2-0.4,0.6-0.8,0.6c-0.2,0-0.4-0.1-0.5-0.4c0-0.1-0.1-0.1-0.1-0.1c0,0-0.1,0-0.1,0.1c-0.1,0.2-0.3,0.4-0.6,0.4c-0.4,0-0.7-0.4-0.7-1.3c0-0.6,0.2-1,0.7-1.2c0.2-0.1,0.4-0.2,0.6-0.3c0.1-0.1,0.1-0.1,0.2-0.2c0-0.1,0-0.3,0-0.4c0-0.5-0.1-1-0.4-1c-0.2,0-0.3,0.2-0.3,0.7c0,0.2-0.1,0.3-0.1,0.4c-0.1,0.1-0.4,0.3-0.5,0.3c-0.1,0-0.1-0.1-0.1-0.3c0-0.3,0.2-0.7,0.3-0.9c0.2-0.3,0.6-0.7,1.1-0.7c0.5,0,0.9,0.5,0.8,1.7L55.5,312.1z M54.8,311.8c0-0.2,0-0.2,0-0.2c-0.3,0.1-0.5,0.3-0.5,0.8c0,0.4,0.1,0.7,0.3,0.7c0.2,0,0.2-0.2,0.2-0.6L54.8,311.8z"/><path d="M58.5,307.1c0-0.5,0-0.6-0.1-0.8l-0.1-0.1c0-0.1,0-0.3,0-0.4c0.3-0.1,0.7-0.4,1-0.7c0,0,0.1,0,0.1,0.1c0,0.5,0,1,0,1.8v3.8c0,0.1,0,0.2,0.1,0.2c0.1,0,0.2-0.1,0.4-0.3L60,310c0.1-0.3,0.2-0.4,0.2-0.5c0-0.1-0.1-0.1-0.1-0.1l-0.2,0c-0.1-0.1-0.1-0.4,0-0.4h0.2c0.3,0,0.8-0.1,1.2-0.2c0.1,0.1,0.1,0.3,0,0.4l-0.2,0.1c-0.1,0-0.3,0.2-0.4,0.4c-0.2,0.3-0.3,0.5-0.4,0.7c0,0.1,0,0.1,0,0.2s0,0.1,0,0.2c0.1,0.4,0.7,2,0.9,2.3c0.1,0.2,0.2,0.2,0.4,0.3l0.1,0c0.1,0.1,0,0.4,0,0.4c-0.2,0-0.4,0-0.8,0c-0.4,0-0.6,0-0.8,0c-0.1-0.1-0.1-0.3,0-0.4l0.1,0c0.1,0,0.1,0,0.1-0.1s-0.1-0.2-0.1-0.4l-0.5-1.3c0-0.1-0.1-0.2-0.2-0.2c0,0-0.1,0.1-0.1,0.3v0.7c0,0.8,0,0.9,0.3,1l0.1,0c0.1,0.1,0.1,0.3,0,0.4c-0.2,0-0.5,0-0.8,0s-0.6,0-0.8,0c-0.1-0.1-0.1-0.3,0-0.4l0.1,0c0.2,0,0.3-0.1,0.3-1V307.1z"/><path d="M64.5,310.9c-0.2,0-0.2,0-0.2,0.2c0,0.9,0.3,1.8,0.9,1.8c0.2,0,0.4-0.1,0.6-0.6c0.1,0,0.2,0.1,0.2,0.3c-0.3,1-0.7,1.4-1.1,1.4c-0.9,0-1.4-1.1-1.4-2.4c0-1.5,0.6-2.7,1.4-2.7c0.7,0,1,0.8,1,1.7c0,0.2,0,0.4-0.2,0.4H64.5z M65,310.4c0.1,0,0.2,0,0.3-0.1c0,0,0-0.2,0-0.3c0-0.4-0.1-0.7-0.3-0.7c-0.3,0-0.5,0.5-0.5,0.9c0,0.2,0.1,0.2,0.3,0.2H65z"/><path d="M74,312.1c0,0.8,0.2,1,0.3,1c0.1,0,0.1,0,0.2-0.1c0.1,0,0.1,0.2,0.1,0.3c-0.1,0.2-0.4,0.6-0.8,0.6c-0.2,0-0.4-0.1-0.5-0.4c0-0.1-0.1-0.1-0.1-0.1c0,0-0.1,0-0.1,0.1c-0.1,0.2-0.3,0.4-0.6,0.4c-0.4,0-0.7-0.4-0.7-1.3c0-0.6,0.2-1,0.7-1.2c0.2-0.1,0.4-0.2,0.6-0.3c0.1-0.1,0.1-0.1,0.2-0.2c0-0.1,0-0.3,0-0.4c0-0.5-0.1-1-0.4-1c-0.2,0-0.3,0.2-0.3,0.7c0,0.2-0.1,0.3-0.1,0.4c-0.1,0.1-0.4,0.3-0.5,0.3c-0.1,0-0.2-0.1-0.2-0.3c0-0.3,0.2-0.7,0.3-0.9c0.2-0.3,0.6-0.7,1.1-0.7c0.5,0,0.9,0.5,0.8,1.7L74,312.1z M73.2,311.8c0-0.2,0-0.2,0-0.2c-0.3,0.1-0.5,0.3-0.5,0.8c0,0.4,0.1,0.7,0.3,0.7c0.2,0,0.2-0.2,0.2-0.6L73.2,311.8z"/><path d="M76.9,310.5c0-0.5,0-0.6-0.1-0.8l-0.1-0.1c0-0.1,0-0.3,0-0.4c0.3-0.2,0.8-0.5,1-0.7c0.1,0,0.1,0,0.1,0.1c0,0.2,0,0.5,0,0.5c0,0.1,0,0.1,0,0.1s0.1-0.1,0.1-0.1c0.1-0.2,0.4-0.5,0.7-0.5c0.5,0,0.8,0.7,0.8,1.5v2.1c0,0.8,0,0.9,0.3,1l0.1,0c0.1,0.1,0.1,0.3,0,0.4c-0.2,0-0.5,0-0.8,0c-0.3,0-0.5,0-0.7,0c-0.1-0.1-0.1-0.3,0-0.4l0.1,0c0.1,0,0.2-0.1,0.2-0.8v-2c0-0.5-0.1-0.9-0.5-0.9c-0.2,0-0.3,0.2-0.4,0.3c0,0.1-0.1,0.2-0.1,0.4v2.1c0,0.7,0,0.8,0.2,0.8l0.1,0c0.1,0.1,0.1,0.3,0,0.4c-0.2,0-0.4,0-0.7,0c-0.3,0-0.5,0-0.8,0c-0.1-0.1-0.1-0.3,0-0.4l0.1,0c0.2,0,0.3-0.1,0.3-1V310.5z"/><path d="M82.1,311.4c0-1.7,0.7-2.7,1.5-2.7c0.8,0,1.5,0.9,1.5,2.6c0,1.8-0.7,2.6-1.5,2.6C82.8,313.9,82.1,313.1,82.1,311.4z M83.1,311.2c0,1.3,0.2,2.2,0.6,2.2c0.4,0,0.5-0.8,0.5-1.9c0-1.2-0.2-2.2-0.6-2.2C83.3,309.3,83.1,309.9,83.1,311.2z"/><path d="M88.7,309.6c-0.1,0-0.1,0-0.1,0.3v1.8c0,0.7,0,1.4,0.5,1.4c0.1,0,0.2-0.1,0.3-0.2c0.1,0,0.1,0.2,0.1,0.3c-0.2,0.4-0.5,0.7-0.9,0.7c-0.5,0-0.7-0.6-0.7-1.4v-2.7c0-0.3,0-0.3-0.1-0.3h-0.2c-0.1,0-0.1-0.3,0-0.4c0.2-0.1,0.4-0.3,0.5-0.5c0.1-0.2,0.3-0.4,0.5-0.9c0,0,0.2,0,0.2,0.1v0.9c0,0.2,0,0.2,0.1,0.2h0.6c0,0,0.1,0.1,0.1,0.2c0,0.1,0,0.3-0.1,0.4H88.7z"/><path d="M91.8,307.1c0-0.5,0-0.6-0.1-0.8l-0.1-0.1c0-0.1,0-0.3,0-0.4c0.3-0.1,0.7-0.4,1-0.7c0,0,0.1,0,0.1,0.1c0,0.5,0,1,0,1.8v2.2c0,0.1,0,0.1,0,0.1c0,0,0,0,0.1-0.1c0.1-0.2,0.4-0.5,0.7-0.5c0.5,0,0.8,0.7,0.8,1.5v2.1c0,0.8,0,0.9,0.3,1l0.1,0c0.1,0.1,0.1,0.3,0,0.4c-0.2,0-0.5,0-0.8,0c-0.3,0-0.6,0-0.7,0c-0.1-0.1-0.1-0.3,0-0.4l0.1,0c0.2,0,0.2-0.1,0.2-0.8v-2.1c0-0.4-0.1-0.8-0.5-0.8c-0.2,0-0.3,0.2-0.4,0.3c0,0.1-0.1,0.2-0.1,0.4v2.1c0,0.7,0,0.7,0.2,0.8l0.1,0c0.1,0.1,0.1,0.3,0,0.4c-0.2,0-0.4,0-0.7,0c-0.3,0-0.5,0-0.8,0c-0.1-0.1-0.1-0.3,0-0.4l0.1,0c0.2,0,0.2-0.1,0.2-1V307.1z"/><path d="M97.9,310.9c-0.1,0-0.2,0-0.2,0.2c0,0.9,0.3,1.8,0.9,1.8c0.2,0,0.4-0.1,0.6-0.6c0.1,0,0.2,0.1,0.2,0.3c-0.3,1-0.7,1.4-1.1,1.4c-0.9,0-1.4-1.1-1.4-2.4c0-1.5,0.6-2.7,1.4-2.7c0.7,0,1,0.8,1,1.7c0,0.2,0,0.4-0.2,0.4H97.9z M98.4,310.4c0.1,0,0.2,0,0.3-0.1c0,0,0-0.2,0-0.3c0-0.4-0.1-0.7-0.3-0.7c-0.3,0-0.5,0.5-0.5,0.9c0,0.2,0.1,0.2,0.3,0.2H98.4z"/><path d="M102,310.6c0-0.5,0-0.6-0.1-0.8l-0.1-0.1c0-0.1,0-0.3,0-0.4c0.3-0.2,0.7-0.5,0.9-0.7c0.1,0,0.1,0,0.1,0.1c0,0.2,0,0.4,0,0.5c0,0.1,0,0.1,0.1,0.1c0.2-0.2,0.4-0.6,0.6-0.6c0.2,0,0.4,0.3,0.4,0.7c0,0.6-0.2,0.8-0.4,0.8c-0.1,0-0.2-0.1-0.3-0.2c-0.1-0.2-0.2-0.2-0.2-0.2c-0.1,0-0.1,0.3-0.1,0.7v1.8c0,0.8,0,0.9,0.2,1l0.2,0c0.1,0.1,0.1,0.3,0,0.4c-0.3,0-0.6,0-0.9,0c-0.3,0-0.6,0-0.8,0c-0.1-0.1-0.1-0.3,0-0.4l0.1,0c0.2,0,0.2-0.1,0.2-1V310.6z"/></g><g><path d="M37.5,31.4c0.1,0.1,0.1,0.3,0.1,0.6c0,0.4-0.1,0.7-0.2,0.7c0,0-0.1,0-0.1-0.1c-0.2-0.5-0.4-0.9-0.7-0.9c-0.4,0-0.7,0.9-0.7,1.7c0,0.9,0.3,1.9,0.9,1.9c0.2,0,0.4-0.1,0.6-0.6c0.1,0,0.2,0.1,0.2,0.3c-0.1,0.6-0.5,1.3-1.2,1.3c-0.8,0-1.4-1-1.4-2.4c0-1.7,0.7-2.7,1.6-2.7C37,31.2,37.3,31.3,37.5,31.4z"/><path d="M40.2,29.5c0-0.5,0-0.6-0.1-0.8l-0.1-0.1c0-0.1,0-0.3,0-0.4c0.3-0.1,0.7-0.4,1-0.7c0,0,0.1,0,0.1,0.1c0,0.5,0,1,0,1.8v2.2c0,0.1,0,0.1,0,0.1c0,0,0,0,0.1-0.1c0.1-0.2,0.4-0.5,0.7-0.5c0.5,0,0.8,0.7,0.8,1.5v2.1c0,0.8,0,0.9,0.3,1l0.1,0c0.1,0.1,0.1,0.3,0,0.4c-0.2,0-0.5,0-0.8,0c-0.3,0-0.6,0-0.7,0c-0.1-0.1-0.1-0.3,0-0.4l0.1,0c0.1,0,0.2-0.1,0.2-0.8v-2.1c0-0.4-0.1-0.8-0.5-0.8c-0.2,0-0.3,0.2-0.4,0.3c0,0.1-0.1,0.2-0.1,0.4V35c0,0.7,0,0.7,0.2,0.8l0.1,0c0.1,0.1,0.1,0.3,0,0.4c-0.2,0-0.4,0-0.7,0c-0.3,0-0.5,0-0.8,0c-0.1-0.1-0.1-0.3,0-0.4l0.1,0c0.2,0,0.2-0.1,0.2-1V29.5z"/><path d="M47.6,34.5c0,0.8,0.2,1,0.3,1c0.1,0,0.1,0,0.2-0.1c0.1,0,0.1,0.2,0.1,0.3c-0.1,0.2-0.4,0.6-0.8,0.6c-0.2,0-0.4-0.1-0.5-0.4c0-0.1-0.1-0.1-0.1-0.1c0,0-0.1,0-0.1,0.1c-0.1,0.2-0.3,0.4-0.6,0.4c-0.4,0-0.7-0.4-0.7-1.3c0-0.6,0.2-1,0.7-1.2c0.2-0.1,0.4-0.2,0.6-0.3c0.1-0.1,0.1-0.1,0.2-0.2c0-0.1,0-0.3,0-0.4c0-0.5-0.1-1-0.4-1c-0.2,0-0.3,0.2-0.3,0.7c0,0.2-0.1,0.3-0.1,0.4c-0.1,0.1-0.4,0.3-0.5,0.3c-0.1,0-0.1-0.1-0.1-0.3c0-0.3,0.2-0.7,0.3-0.9c0.2-0.3,0.6-0.7,1.1-0.7c0.5,0,0.9,0.5,0.8,1.7L47.6,34.5z M46.8,34.2c0-0.2,0-0.2,0-0.2c-0.3,0.1-0.5,0.3-0.5,0.8c0,0.4,0.1,0.7,0.3,0.7c0.2,0,0.2-0.2,0.2-0.6L46.8,34.2z"/><path d="M50.5,33c0-0.5,0-0.6-0.1-0.8l-0.1-0.1c0-0.1,0-0.3,0-0.4c0.3-0.2,0.7-0.5,0.9-0.7c0.1,0,0.1,0,0.1,0.1c0,0.2,0,0.4,0,0.5c0,0.1,0,0.1,0.1,0.1c0.2-0.2,0.4-0.6,0.6-0.6c0.2,0,0.4,0.3,0.4,0.7c0,0.6-0.2,0.8-0.4,0.8c-0.1,0-0.2-0.1-0.3-0.2c-0.1-0.2-0.2-0.2-0.2-0.2c-0.1,0-0.1,0.3-0.1,0.7v1.8c0,0.8,0,0.9,0.2,1l0.2,0c0.1,0.1,0.1,0.3,0,0.4c-0.3,0-0.6,0-0.9,0c-0.3,0-0.6,0-0.8,0c-0.1-0.1-0.1-0.3,0-0.4l0.1,0c0.2,0,0.2-0.1,0.2-1V33z"/><path d="M56.8,34.5c0,0.8,0.2,1,0.3,1c0.1,0,0.1,0,0.2-0.1c0.1,0,0.1,0.2,0.1,0.3c-0.1,0.2-0.4,0.6-0.8,0.6c-0.2,0-0.4-0.1-0.5-0.4c0-0.1-0.1-0.1-0.1-0.1c0,0-0.1,0-0.1,0.1c-0.1,0.2-0.3,0.4-0.6,0.4c-0.4,0-0.7-0.4-0.7-1.3c0-0.6,0.2-1,0.7-1.2c0.2-0.1,0.4-0.2,0.6-0.3c0.1-0.1,0.2-0.1,0.2-0.2c0-0.1,0-0.3,0-0.4c0-0.5-0.1-1-0.4-1c-0.2,0-0.3,0.2-0.3,0.7c0,0.2-0.1,0.3-0.1,0.4c-0.1,0.1-0.4,0.3-0.5,0.3c-0.1,0-0.1-0.1-0.1-0.3c0-0.3,0.2-0.7,0.3-0.9c0.2-0.3,0.6-0.7,1.1-0.7c0.5,0,0.9,0.5,0.8,1.7L56.8,34.5z M56,34.2c0-0.2,0-0.2,0-0.2c-0.3,0.1-0.5,0.3-0.5,0.8c0,0.4,0.2,0.7,0.3,0.7c0.2,0,0.2-0.2,0.2-0.6L56,34.2z"/><path d="M61.7,31.4c0.1,0.1,0.1,0.3,0.1,0.6c0,0.4-0.1,0.7-0.2,0.7c0,0-0.1,0-0.1-0.1c-0.2-0.5-0.4-0.9-0.7-0.9c-0.4,0-0.6,0.9-0.6,1.7c0,0.9,0.3,1.9,0.9,1.9c0.2,0,0.4-0.1,0.6-0.6c0.1,0,0.2,0.1,0.2,0.3c-0.1,0.6-0.5,1.3-1.2,1.3c-0.8,0-1.4-1-1.4-2.4c0-1.7,0.7-2.7,1.6-2.7C61.2,31.2,61.5,31.3,61.7,31.4z"/><path d="M65.3,32c-0.1,0-0.1,0-0.1,0.3v1.8c0,0.7,0,1.4,0.5,1.4c0.1,0,0.2-0.1,0.3-0.2c0.1,0,0.1,0.2,0.1,0.3c-0.2,0.4-0.5,0.7-0.9,0.7c-0.5,0-0.7-0.6-0.7-1.4v-2.7c0-0.3,0-0.3-0.1-0.3H64c-0.1,0-0.1-0.3,0-0.4c0.2-0.1,0.4-0.3,0.5-0.5c0.1-0.2,0.3-0.4,0.5-0.9c0,0,0.2,0,0.2,0.1v0.9c0,0.2,0,0.2,0.1,0.2h0.6c0,0,0.1,0.1,0.1,0.2c0,0.1,0,0.3-0.1,0.4H65.3z"/><path d="M69,33.4c-0.2,0-0.2,0-0.2,0.2c0,0.9,0.3,1.8,0.9,1.8c0.2,0,0.4-0.1,0.6-0.6c0.1,0,0.2,0.1,0.2,0.3c-0.3,1-0.7,1.4-1.1,1.4c-0.9,0-1.4-1.1-1.4-2.4c0-1.5,0.6-2.7,1.4-2.7c0.7,0,1,0.8,1,1.7c0,0.2,0,0.4-0.2,0.4H69z M69.5,32.8c0.1,0,0.2,0,0.3-0.1c0,0,0-0.2,0-0.3c0-0.4-0.1-0.7-0.3-0.7c-0.3,0-0.5,0.5-0.5,0.9c0,0.2,0.1,0.2,0.3,0.2H69.5z"/><path d="M73.1,33c0-0.5,0-0.6-0.1-0.8l-0.1-0.1c0-0.1,0-0.3,0-0.4c0.3-0.2,0.7-0.5,0.9-0.7c0.1,0,0.1,0,0.1,0.1c0,0.2,0,0.4,0,0.5c0,0.1,0,0.1,0.1,0.1c0.2-0.2,0.4-0.6,0.6-0.6c0.2,0,0.4,0.3,0.4,0.7c0,0.6-0.2,0.8-0.4,0.8c-0.1,0-0.2-0.1-0.3-0.2c-0.2-0.2-0.2-0.2-0.2-0.2c-0.1,0-0.1,0.3-0.1,0.7v1.8c0,0.8,0,0.9,0.2,1l0.2,0c0.1,0.1,0.1,0.3,0,0.4c-0.3,0-0.6,0-0.9,0c-0.3,0-0.6,0-0.8,0c-0.1-0.1-0.1-0.3,0-0.4l0.1,0c0.2,0,0.2-0.1,0.2-1V33z"/><path d="M80.4,31.8c-0.1-0.1-0.1-0.4,0-0.4c0.2,0,0.5,0,0.8,0c0.2,0,0.5,0,0.7,0c0.1,0.1,0.1,0.4,0,0.4l-0.1,0c-0.1,0-0.1,0-0.1,0.1c0,0.1,0,0.2,0.1,0.4c0.1,0.7,0.3,1.3,0.4,1.9c0.1-0.6,0.3-1.2,0.4-2c0-0.1,0-0.2,0-0.3c0-0.1,0-0.1-0.2-0.1l-0.1,0c-0.1-0.1-0.1-0.4,0-0.4c0.2,0,0.3,0,0.5,0c0.2,0,0.4,0,0.5,0c0.1,0.1,0.1,0.3,0,0.4l-0.1,0c-0.2,0.1-0.2,0.2-0.4,0.7c-0.3,1.2-0.6,2.5-0.9,3.8c0,0-0.1,0.1-0.1,0.1c-0.1,0-0.1,0-0.2-0.1c-0.3-1.5-0.5-2.1-0.9-3.7c-0.2-0.6-0.2-0.7-0.4-0.8L80.4,31.8z"/><path d="M85.5,33.9c0-1.7,0.7-2.7,1.5-2.7c0.8,0,1.5,0.9,1.5,2.6c0,1.8-0.7,2.6-1.5,2.6C86.2,36.4,85.6,35.5,85.5,33.9z M86.5,33.6c0,1.3,0.2,2.2,0.6,2.2c0.4,0,0.5-0.8,0.5-1.9c0-1.2-0.2-2.2-0.6-2.2C86.7,31.8,86.5,32.3,86.5,33.6z"/><path d="M92,34.8c0,0.8,0,0.9,0.2,1l0.1,0c0.1,0.1,0.1,0.3,0,0.4c-0.2,0-0.5,0-0.8,0c-0.3,0-0.6,0-0.8,0c-0.1-0.1-0.1-0.3,0-0.4l0.1,0c0.2,0,0.2-0.1,0.2-1V33c0-0.5,0-0.6-0.1-0.8L91,32.1c0-0.1,0-0.3,0-0.4c0.3-0.2,0.8-0.5,1-0.7c0.1,0,0.1,0,0.1,0.1c0,0.4,0,0.9,0,1.4V34.8z M92.1,29.4c0,0.6-0.2,0.9-0.5,0.9c-0.3,0-0.5-0.4-0.5-0.9c0-0.5,0.2-0.9,0.5-0.9C91.9,28.5,92.1,28.9,92.1,29.4z"/><path d="M97,31.4c0.1,0.1,0.1,0.3,0.1,0.6c0,0.4-0.1,0.7-0.2,0.7c0,0-0.1,0-0.1-0.1c-0.2-0.5-0.4-0.9-0.7-0.9c-0.4,0-0.7,0.9-0.7,1.7c0,0.9,0.3,1.9,0.9,1.9c0.2,0,0.4-0.1,0.6-0.6c0.1,0,0.2,0.1,0.2,0.3c-0.1,0.6-0.5,1.3-1.2,1.3c-0.8,0-1.4-1-1.4-2.4c0-1.7,0.7-2.7,1.6-2.7C96.5,31.2,96.8,31.3,97,31.4z"/><path d="M100.3,33.4c-0.1,0-0.2,0-0.2,0.2c0,0.9,0.3,1.8,0.9,1.8c0.2,0,0.4-0.1,0.6-0.6c0.1,0,0.2,0.1,0.2,0.3c-0.3,1-0.7,1.4-1.1,1.4c-0.9,0-1.4-1.1-1.4-2.4c0-1.5,0.6-2.7,1.4-2.7c0.7,0,1,0.8,1,1.7c0,0.2,0,0.4-0.2,0.4H100.3z M100.7,32.8c0.1,0,0.2,0,0.3-0.1c0,0,0-0.2,0-0.3c0-0.4-0.1-0.7-0.3-0.7c-0.3,0-0.5,0.5-0.5,0.9c0,0.2,0.1,0.2,0.3,0.2H100.7z"/></g><rect x="34.3" y="294.3" width="17.8" height="3.9"/><rect x="34.1" y="93.7" width="85.9" height="11.9"/><g><path class="st4" d="M41.3,99.8c-0.5,0-0.5,0-0.5,0.6v2.6c0,1.9,0,2.2,0.6,2.3l0.3,0.1c0.1,0.1,0,0.4,0,0.5c-0.5,0-0.9-0.1-1.3-0.1c-0.4,0-0.8,0-1.2,0.1c-0.1-0.1-0.1-0.3,0-0.5l0.2-0.1c0.6-0.2,0.6-0.4,0.6-2.3v-6.6c0-1.9-0.1-2.2-0.6-2.3l-0.3,0c-0.1-0.1,0-0.4,0-0.5c0.5,0,0.8,0.1,1.3,0.1c0.4,0,0.7,0,1.2-0.1c0.1,0.1,0.1,0.4,0,0.5l-0.2,0c-0.6,0.1-0.6,0.4-0.6,2.3v2.1c0,0.6,0,0.6,0.5,0.6h2.8c0.5,0,0.5,0,0.5-0.6v-2.1c0-1.9,0-2.2-0.6-2.3l-0.2,0c-0.1-0.1,0-0.4,0-0.5c0.5,0,0.8,0.1,1.2,0.1c0.4,0,0.7,0,1.2-0.1c0.1,0.1,0.1,0.4,0,0.5L46,94c-0.6,0.1-0.6,0.4-0.6,2.3v6.6c0,1.9,0,2.2,0.6,2.3l0.2,0.1c0.1,0.1,0,0.4,0,0.5c-0.5,0-0.8-0.1-1.2-0.1c-0.4,0-0.8,0-1.2,0.1c-0.1-0.1-0.1-0.3,0-0.5l0.2-0.1c0.6-0.2,0.6-0.4,0.6-2.3v-2.6c0-0.6,0-0.6-0.5-0.6H41.3z"/><path class="st4" d="M50.9,96.4c0-1.9,0-2.3-0.6-2.3l-0.2,0c-0.1-0.1,0-0.4,0-0.5c0.5,0,0.8,0.1,1.3,0.1c0.4,0,0.7,0,1.2-0.1c0.1,0.1,0.1,0.4,0,0.5l-0.2,0c-0.6,0.1-0.6,0.4-0.6,2.3v6.5c0,1.9,0,2.2,0.6,2.3l0.2,0.1c0.1,0.1,0,0.4,0,0.5c-0.5,0-0.8-0.1-1.2-0.1c-0.4,0-0.8,0-1.3,0.1c-0.1-0.1-0.1-0.3,0-0.5l0.2-0.1c0.6-0.1,0.6-0.4,0.6-2.3V96.4z"/><path class="st4" d="M62.6,102.6c0,0.5,0,2.7,0,3.2c0,0.1-0.1,0.2-0.2,0.2c-0.1-0.3-0.4-1-1.3-2.8l-2.3-4.8c-0.3-0.6-0.9-2.1-1.2-2.5h0c0,0.2,0,0.6,0,1.2v4c0,0.9,0,3.2,0.2,3.8c0.1,0.2,0.3,0.3,0.5,0.3l0.3,0.1c0.1,0.1,0,0.4,0,0.5c-0.4,0-0.8-0.1-1.2-0.1c-0.4,0-0.7,0-1,0.1c-0.1-0.1-0.1-0.3,0-0.5l0.3-0.1c0.2-0.1,0.4-0.2,0.4-0.4c0.1-0.7,0.1-2.9,0.1-3.8v-5.3c0-0.5,0-0.9-0.2-1.3c-0.1-0.3-0.4-0.4-0.6-0.4l-0.2,0c-0.1-0.1-0.1-0.4,0-0.5c0.4,0.1,0.9,0.1,1.1,0.1c0.2,0,0.3,0,0.5-0.1c0.2,0.9,1.4,3.4,1.7,4l1,2c0.7,1.4,1.2,2.4,1.6,3.3h0c0-0.1,0-0.4,0-0.8v-3.9c0-0.9,0-3.2-0.2-3.8c-0.1-0.2-0.2-0.3-0.6-0.4l-0.2,0c-0.1-0.1-0.1-0.4,0-0.5c0.5,0,0.8,0.1,1.2,0.1c0.4,0,0.7,0,1-0.1c0.1,0.1,0.1,0.3,0,0.5l-0.1,0c-0.3,0.1-0.5,0.2-0.6,0.4c-0.2,0.7-0.1,2.9-0.1,3.8V102.6z"/><path class="st4" d="M70.8,101.4c-0.1-0.4-0.1-0.5-0.4-0.5h-1.5c-0.2,0-0.3,0.1-0.4,0.4l-0.3,1.9c-0.1,0.8-0.2,1.3-0.2,1.5c0,0.2,0.1,0.3,0.3,0.4l0.3,0.1c0.1,0.1,0.1,0.4,0,0.5c-0.3,0-0.6,0-1-0.1c-0.3,0-0.7,0-1,0.1c-0.1-0.1-0.1-0.4,0-0.5l0.3-0.1c0.2,0,0.5-0.2,0.6-0.9c0.2-0.8,0.5-2,0.9-4.1l1-5c0.1-0.7,0.2-1,0.2-1.3c0.2-0.1,0.4-0.5,0.5-0.7c0.1,0,0.1,0,0.1,0.2c0.1,0.8,0.3,1.7,0.4,2.5l1.4,7.4c0.3,1.6,0.4,1.9,0.8,1.9l0.3,0.1c0.1,0.1,0,0.4,0,0.5c-0.4,0-0.8-0.1-1.2-0.1c-0.5,0-0.9,0-1.1,0.1c-0.1-0.1-0.1-0.4,0-0.5l0.3-0.1c0.2,0,0.3-0.1,0.3-0.3c0-0.2,0-0.5-0.1-1L70.8,101.4z M68.9,99.8c-0.1,0.4-0.1,0.4,0.2,0.4h1.2c0.3,0,0.3-0.1,0.2-0.6l-0.5-3c-0.1-0.4-0.2-0.9-0.2-1.2h0c0,0.1-0.1,0.5-0.2,1.1L68.9,99.8z"/><path class="st4" d="M82.7,96.3c0-1.9,0-2.2-0.6-2.3l-0.2,0c-0.1-0.1,0-0.4,0-0.5c0.5,0,0.8,0.1,1.3,0.1c0.4,0,0.7,0,1.2-0.1c0.1,0.1,0.1,0.4,0,0.5l-0.2,0c-0.6,0.1-0.6,0.4-0.6,2.3v2.1c0,0.3,0,0.7,0.1,0.7c0.1,0,0.2-0.1,0.3-0.2c0.1-0.2,0.4-0.7,0.5-0.9l1.1-2c0.2-0.3,0.7-1.3,0.8-1.5c0-0.1,0.1-0.2,0.1-0.3c0-0.1,0-0.1-0.2-0.2L85.9,94c-0.1-0.1-0.1-0.4,0-0.5c0.3,0,0.7,0.1,1.1,0.1s0.7,0,1-0.1c0.1,0.1,0.1,0.3,0,0.5c-0.3,0-0.6,0.2-0.9,0.5c-0.3,0.3-0.8,1.2-1.4,2.1l-0.9,1.6c-0.1,0.3-0.2,0.4-0.2,0.6c0,0.1,0.1,0.3,0.2,0.6c0.9,2,1.7,3.7,2.5,5.2c0.2,0.4,0.5,0.7,0.8,0.8l0.3,0.1c0.1,0.1,0.1,0.4,0,0.5c-0.3,0-0.6-0.1-1.1-0.1c-0.4,0-0.8,0-1.2,0.1c-0.1,0-0.1-0.3,0-0.5l0.2-0.1c0.1,0,0.2-0.1,0.2-0.2c0-0.1-0.1-0.3-0.1-0.4c-0.2-0.4-0.4-0.9-0.8-1.7l-0.8-1.7c-0.6-1.2-0.7-1.5-1-1.5c-0.1,0-0.2,0.2-0.2,0.9v2.4c0,1.9,0,2.2,0.6,2.3l0.3,0.1c0.1,0.1,0,0.4,0,0.5c-0.5,0-0.8-0.1-1.2-0.1c-0.4,0-0.7,0-1.2,0.1c-0.1-0.1-0.1-0.3,0-0.5l0.2-0.1c0.5-0.1,0.5-0.4,0.5-2.3V96.3z"/><path class="st4" d="M92.4,96.4c0-1.9,0-2.3-0.6-2.3l-0.2,0c-0.1-0.1,0-0.4,0-0.5c0.5,0,0.8,0.1,1.3,0.1c0.4,0,0.7,0,1.2-0.1c0.1,0.1,0.1,0.4,0,0.5l-0.2,0c-0.6,0.1-0.6,0.4-0.6,2.3v6.5c0,1.9,0,2.2,0.6,2.3l0.2,0.1c0.1,0.1,0,0.4,0,0.5c-0.5,0-0.8-0.1-1.2-0.1c-0.4,0-0.8,0-1.3,0.1c-0.1-0.1-0.1-0.3,0-0.5l0.2-0.1c0.6-0.1,0.6-0.4,0.6-2.3V96.4z"/><path class="st4" d="M104.1,102.6c0,0.5,0,2.7,0,3.2c0,0.1-0.1,0.2-0.2,0.2c-0.1-0.3-0.4-1-1.3-2.8l-2.3-4.8c-0.3-0.6-0.9-2.1-1.2-2.5h0c0,0.2,0,0.6,0,1.2v4c0,0.9,0,3.2,0.2,3.8c0.1,0.2,0.3,0.3,0.5,0.3l0.3,0.1c0.1,0.1,0,0.4,0,0.5c-0.4,0-0.8-0.1-1.2-0.1c-0.4,0-0.7,0-1,0.1c-0.1-0.1-0.1-0.3,0-0.5l0.3-0.1c0.2-0.1,0.4-0.2,0.4-0.4c0.1-0.7,0.1-2.9,0.1-3.8v-5.3c0-0.5,0-0.9-0.2-1.3c-0.1-0.3-0.4-0.4-0.6-0.4l-0.2,0c-0.1-0.1-0.1-0.4,0-0.5c0.4,0.1,0.9,0.1,1.1,0.1c0.2,0,0.3,0,0.5-0.1c0.2,0.9,1.4,3.4,1.7,4l1,2c0.7,1.4,1.2,2.4,1.6,3.3h0c0-0.1,0-0.4,0-0.8v-3.9c0-0.9,0-3.2-0.2-3.8c-0.1-0.2-0.2-0.3-0.6-0.4l-0.2,0c-0.1-0.1-0.1-0.4,0-0.5c0.5,0,0.8,0.1,1.2,0.1c0.4,0,0.7,0,1-0.1c0.1,0.1,0.1,0.3,0,0.5l-0.1,0c-0.3,0.1-0.5,0.2-0.6,0.4c-0.2,0.7-0.1,2.9-0.1,3.8V102.6z"/><path class="st4" d="M108.7,99.8c0-3.7,1.5-6.5,3.5-6.5c2.3,0,3.5,3.1,3.5,6.3c0,3.7-1.5,6.4-3.5,6.4C110,106,108.7,103.1,108.7,99.8z M114.7,100.2c0-3-0.7-6.3-2.6-6.3c-1,0-2.4,1.3-2.4,5.3c0,2.7,0.7,6.2,2.7,6.2C113.6,105.4,114.7,103.8,114.7,100.2z"/></g><rect x="34.7" y="206.9" width="145" height="12.4"/><g><path class="st4" d="M39.7,209.5c0-1.9,0-2.2-0.6-2.3l-0.2,0c-0.1-0.1,0-0.4,0-0.5c0.5,0,0.8,0.1,1.3,0.1c0.4,0,0.7,0,1.2-0.1c0.1,0.1,0.1,0.4,0,0.5l-0.2,0c-0.6,0.1-0.6,0.4-0.6,2.3v2.1c0,0.3,0,0.7,0.1,0.7c0.1,0,0.2-0.1,0.3-0.2c0.1-0.2,0.4-0.7,0.5-0.9l1.1-2c0.2-0.3,0.7-1.3,0.8-1.5c0.1-0.1,0.1-0.2,0.1-0.3c0-0.1,0-0.1-0.2-0.2l-0.3-0.1c-0.1-0.1-0.1-0.4,0-0.5c0.3,0,0.7,0.1,1.1,0.1c0.3,0,0.7,0,1-0.1c0.1,0.1,0.1,0.3,0,0.5c-0.3,0-0.6,0.2-0.9,0.5c-0.3,0.3-0.8,1.2-1.4,2.1l-0.9,1.6c-0.1,0.3-0.2,0.4-0.2,0.6c0,0.1,0.1,0.3,0.2,0.6c0.9,2,1.7,3.7,2.5,5.2c0.2,0.4,0.5,0.7,0.8,0.8l0.3,0.1c0.1,0.1,0,0.4,0,0.5c-0.3,0-0.6-0.1-1.1-0.1c-0.4,0-0.8,0-1.2,0.1c-0.1,0-0.1-0.3,0-0.5l0.2-0.1c0.1,0,0.2-0.1,0.2-0.2c0-0.1-0.1-0.3-0.1-0.4c-0.2-0.4-0.4-0.9-0.8-1.7l-0.8-1.7c-0.6-1.2-0.7-1.5-1-1.5c-0.1,0-0.2,0.2-0.2,0.9v2.4c0,1.9,0,2.2,0.6,2.3l0.3,0.1c0.1,0.1,0,0.4,0,0.5c-0.5,0-0.8-0.1-1.2-0.1c-0.4,0-0.7,0-1.2,0.1c-0.1-0.1-0.1-0.3,0-0.5l0.2-0.1c0.5-0.1,0.5-0.4,0.5-2.3V209.5z"/><path class="st4" d="M52.1,214.6c-0.1-0.4-0.1-0.5-0.4-0.5h-1.5c-0.2,0-0.3,0.1-0.4,0.4l-0.3,1.9c-0.1,0.8-0.2,1.3-0.2,1.5c0,0.2,0.1,0.3,0.3,0.4l0.3,0.1c0.1,0.1,0.1,0.4,0,0.5c-0.3,0-0.6,0-1-0.1c-0.3,0-0.7,0-1,0.1c-0.1-0.1-0.1-0.4,0-0.5l0.3-0.1c0.2,0,0.5-0.2,0.6-0.9c0.2-0.8,0.5-2,0.9-4.1l1-5c0.1-0.7,0.2-1,0.2-1.3c0.2-0.1,0.4-0.5,0.5-0.7c0.1,0,0.1,0,0.1,0.2c0.1,0.8,0.3,1.7,0.4,2.5l1.4,7.4c0.3,1.6,0.4,1.9,0.8,1.9l0.3,0.1c0.1,0.1,0,0.4,0,0.5c-0.4,0-0.8-0.1-1.2-0.1c-0.5,0-0.9,0-1.1,0.1c-0.1-0.1-0.1-0.4,0-0.5l0.3-0.1c0.2,0,0.3-0.1,0.3-0.3c0-0.2,0-0.5-0.1-1L52.1,214.6z M50.2,213c-0.1,0.4-0.1,0.4,0.2,0.4h1.2c0.3,0,0.3-0.1,0.2-0.6l-0.5-3c-0.1-0.4-0.2-0.9-0.2-1.2h0c0,0.1-0.1,0.5-0.2,1.1L50.2,213z"/><path class="st4" d="M58.5,209.5c0-1.9,0-2.2-0.6-2.3l-0.2,0c-0.1-0.1,0-0.4,0-0.5c0.4,0,0.8,0.1,1.2,0.1h1.9c0.6,0,1.2,0,1.3-0.1c0.1,0.3,0.1,1.6,0.2,2.4c0,0.1-0.2,0.1-0.2,0c-0.1-0.9-0.2-1.5-0.8-1.7c-0.2-0.1-0.5-0.1-1-0.1h-0.7c-0.3,0-0.3,0-0.3,0.7v3.7c0,0.5,0,0.5,0.3,0.5h0.6c0.4,0,0.7,0,0.8-0.1c0.1-0.1,0.2-0.2,0.2-0.6l0.1-0.8c0-0.1,0.2-0.1,0.3,0c0,0.4,0,1.2,0,1.9c0,0.7,0,1.4,0,1.8c0,0.1-0.2,0.1-0.3,0l-0.1-0.7c0-0.3-0.1-0.6-0.3-0.7c-0.1-0.1-0.4-0.1-0.8-0.1h-0.6c-0.3,0-0.3,0-0.3,0.5v2.6c0,1,0,1.6,0.2,1.9c0.1,0.2,0.3,0.4,1.2,0.4c0.8,0,1.1-0.1,1.3-0.3c0.2-0.2,0.4-0.8,0.7-1.8c0.1-0.1,0.2,0,0.2,0.1c-0.1,0.6-0.3,2.1-0.4,2.6c-0.9,0-1.8-0.1-2.7-0.1H59c-0.4,0-0.8,0-1.4,0.1c-0.1-0.1-0.1-0.3,0-0.5l0.3-0.1c0.6-0.1,0.6-0.4,0.6-2.3V209.5z"/><path class="st4" d="M67.3,209.2c0-1.3,0-1.7-0.5-1.8l-0.2-0.1c-0.1-0.1-0.1-0.4,0-0.5c0.8-0.1,1.7-0.1,2.5-0.1c0.8,0,1.5,0.1,2.2,0.6c1.3,0.9,2,3,2,5.4c0,2.3-0.6,4.3-1.7,5.5c-0.6,0.6-1.5,0.9-2.2,0.9c-0.6,0-1.3-0.1-1.6-0.1c-0.4,0-0.8,0-1.2,0.1c-0.1-0.1-0.1-0.3,0-0.5l0.2-0.1c0.6-0.1,0.6-0.4,0.6-2.3V209.2z M68.1,215.7c0,1,0,1.6,0.2,2c0.2,0.6,0.6,0.8,1.2,0.8c1.9,0,2.8-2.3,2.8-5.7c0-2-0.5-5.4-3.1-5.4c-0.6,0-0.9,0.1-1,0.3c-0.1,0.1-0.1,0.6-0.1,1.4V215.7z"/><path class="st4" d="M78.1,209.5c0-1.9,0-2.2-0.6-2.3l-0.2,0c-0.1-0.1,0-0.4,0-0.5c0.4,0,0.8,0.1,1.2,0.1h1.9c0.6,0,1.2,0,1.3-0.1c0.1,0.3,0.1,1.6,0.2,2.4c0,0.1-0.2,0.1-0.2,0c-0.1-0.9-0.2-1.5-0.8-1.7c-0.2-0.1-0.5-0.1-1-0.1h-0.7c-0.3,0-0.3,0-0.3,0.7v3.7c0,0.5,0,0.5,0.3,0.5h0.6c0.4,0,0.7,0,0.8-0.1c0.1-0.1,0.2-0.2,0.2-0.6l0.1-0.8c0-0.1,0.2-0.1,0.3,0c0,0.4,0,1.2,0,1.9c0,0.7,0,1.4,0,1.8c0,0.1-0.2,0.1-0.3,0l-0.1-0.7c0-0.3-0.1-0.6-0.3-0.7c-0.1-0.1-0.4-0.1-0.8-0.1h-0.6c-0.3,0-0.3,0-0.3,0.5v2.6c0,1,0,1.6,0.2,1.9c0.1,0.2,0.3,0.4,1.2,0.4c0.8,0,1.1-0.1,1.3-0.3c0.2-0.2,0.4-0.8,0.7-1.8c0.1-0.1,0.2,0,0.2,0.1c-0.1,0.6-0.3,2.1-0.4,2.6c-0.9,0-1.8-0.1-2.7-0.1h-0.9c-0.4,0-0.8,0-1.4,0.1c-0.1-0.1-0.1-0.3,0-0.5l0.3-0.1c0.6-0.1,0.6-0.4,0.6-2.3V209.5z"/><path class="st4" d="M92.3,209.5c0-1.9,0-2.2-0.6-2.3l-0.2,0c-0.1-0.1,0-0.4,0-0.5c0.5,0,0.8,0.1,1.3,0.1c0.4,0,0.7,0,1.2-0.1c0.1,0.1,0.1,0.4,0,0.5l-0.2,0c-0.6,0.1-0.6,0.4-0.6,2.3v2.1c0,0.3,0,0.7,0.1,0.7c0.1,0,0.2-0.1,0.3-0.2c0.1-0.2,0.4-0.7,0.5-0.9l1.1-2c0.2-0.3,0.7-1.3,0.8-1.5c0-0.1,0.1-0.2,0.1-0.3c0-0.1,0-0.1-0.2-0.2l-0.3-0.1c-0.1-0.1-0.1-0.4,0-0.5c0.3,0,0.7,0.1,1.1,0.1s0.7,0,1-0.1c0.1,0.1,0.1,0.3,0,0.5c-0.3,0-0.6,0.2-0.9,0.5c-0.3,0.3-0.8,1.2-1.4,2.1l-0.9,1.6c-0.1,0.3-0.2,0.4-0.2,0.6c0,0.1,0.1,0.3,0.2,0.6c0.9,2,1.7,3.7,2.5,5.2c0.2,0.4,0.5,0.7,0.8,0.8l0.3,0.1c0.1,0.1,0.1,0.4,0,0.5c-0.3,0-0.6-0.1-1.1-0.1c-0.4,0-0.8,0-1.2,0.1c-0.1,0-0.1-0.3,0-0.5l0.2-0.1c0.1,0,0.2-0.1,0.2-0.2c0-0.1-0.1-0.3-0.1-0.4c-0.2-0.4-0.4-0.9-0.8-1.7l-0.8-1.7c-0.6-1.2-0.7-1.5-1-1.5c-0.1,0-0.2,0.2-0.2,0.9v2.4c0,1.9,0,2.2,0.6,2.3l0.3,0.1c0.1,0.1,0,0.4,0,0.5c-0.5,0-0.8-0.1-1.2-0.1c-0.4,0-0.7,0-1.2,0.1c-0.1-0.1-0.1-0.3,0-0.5l0.2-0.1c0.5-0.1,0.5-0.4,0.5-2.3V209.5z"/><path class="st4" d="M106.8,211.4c0-1.1,0-3.2-0.2-3.8c-0.1-0.2-0.2-0.3-0.5-0.4l-0.2,0c-0.1-0.1,0-0.4,0-0.4c0.4,0,0.7,0.1,1.1,0.1c0.4,0,0.7,0,1-0.1c0.1,0.1,0.1,0.3,0,0.4l-0.2,0c-0.2,0-0.4,0.2-0.5,0.4c-0.1,0.6-0.1,2.7-0.1,3.7v2.1c0,1.6-0.1,3.3-0.7,4.4c-0.4,0.9-1.2,1.3-1.9,1.3c-0.7,0-1.4-0.2-1.9-1c-0.5-0.8-0.8-2.1-0.8-4.3v-4.3c0-1.9,0-2.2-0.6-2.3l-0.2,0c-0.1-0.1,0-0.4,0-0.4c0.5,0,0.8,0.1,1.2,0.1c0.4,0,0.7,0,1.2-0.1c0.1,0.1,0.1,0.4,0,0.4l-0.2,0c-0.6,0.1-0.6,0.4-0.6,2.3v4c0,3,0.5,4.9,2,4.9c1.4,0,2-2.1,2-4.9V211.4z"/><path class="st4" d="M112.4,209.6c0-1.7,0-2.1-0.4-2.1l-0.3-0.1c-0.1-0.1-0.1-0.4,0-0.5c0.6-0.1,1.2-0.1,2.2-0.1c0.6,0,1.2,0.1,1.7,0.6c0.5,0.5,0.8,1.3,0.8,2.6c0,1.7-0.7,2.7-1.2,3.1c0,0.1,0,0.3,0.1,0.4c0.8,2.4,1.3,3.8,2,4.9c0.2,0.3,0.4,0.5,0.7,0.5c0,0,0.1,0.2,0,0.3c-0.1,0.1-0.2,0.1-0.4,0.1c-0.8,0-1.4-0.5-2.1-2.3c-0.3-0.7-0.7-1.9-1-2.8c-0.1-0.4-0.3-0.6-0.7-0.6c-0.4,0-0.5,0-0.5,0.4v2.3c0,1.9,0,2.1,0.6,2.3l0.2,0.1c0.1,0.1,0,0.4,0,0.5c-0.4,0-0.8-0.1-1.2-0.1c-0.4,0-0.8,0-1.2,0.1c-0.1-0.1-0.1-0.3,0-0.5l0.2-0.1c0.6-0.1,0.6-0.4,0.6-2.3V209.6z M113.2,212.2c0,0.3,0,0.5,0,0.6c0,0.1,0.2,0.1,0.7,0.1c0.4,0,0.7-0.1,1-0.5c0.3-0.4,0.5-1,0.5-2.3c0-1.5-0.5-2.8-1.6-2.8c-0.6,0-0.6,0.1-0.6,0.6V212.2z"/><path class="st4" d="M126.6,211.4c0-1.1,0-3.2-0.2-3.8c-0.1-0.2-0.2-0.3-0.5-0.4l-0.2,0c-0.1-0.1,0-0.4,0-0.4c0.4,0,0.7,0.1,1.1,0.1c0.4,0,0.7,0,1-0.1c0.1,0.1,0.1,0.3,0,0.4l-0.2,0c-0.2,0-0.4,0.2-0.5,0.4c-0.1,0.6-0.1,2.7-0.1,3.7v2.1c0,1.6-0.1,3.3-0.7,4.4c-0.4,0.9-1.2,1.3-1.9,1.3c-0.7,0-1.4-0.2-1.9-1c-0.5-0.8-0.8-2.1-0.8-4.3v-4.3c0-1.9,0-2.2-0.6-2.3l-0.2,0c-0.1-0.1,0-0.4,0-0.4c0.5,0,0.8,0.1,1.2,0.1c0.4,0,0.7,0,1.2-0.1c0.1,0.1,0.1,0.4,0,0.4l-0.2,0c-0.6,0.1-0.6,0.4-0.6,2.3v4c0,3,0.5,4.9,2,4.9c1.4,0,2-2.1,2-4.9V211.4z"/><path class="st4" d="M133.2,219.2c-0.8,0-1.4-0.5-1.6-0.7c-0.1-0.4-0.2-1.7-0.3-2.6c0.1-0.1,0.2-0.2,0.2-0.1c0.1,0.9,0.6,2.7,1.7,2.7c0.8,0,1.2-1,1.2-2.1c0-0.8-0.1-1.7-0.8-2.6l-0.9-1.1c-0.5-0.6-1.1-1.7-1.1-3.2c0-1.7,0.7-3.2,2-3.2c0.3,0,0.7,0.1,0.9,0.2c0.1,0.1,0.3,0.1,0.3,0.1c0.1,0.4,0.2,1.5,0.2,2.2c0,0.1-0.2,0.2-0.2,0.1c-0.1-0.9-0.4-2.1-1.4-2.1c-1,0-1.2,1.2-1.2,2c0,1.1,0.5,1.8,0.8,2.3l0.8,0.9c0.6,0.7,1.2,1.8,1.2,3.5C135.3,217.8,134.5,219.2,133.2,219.2z"/><path class="st4" d="M141.4,213c-0.5,0-0.5,0-0.5,0.6v2.6c0,1.9,0,2.2,0.6,2.3l0.3,0.1c0.1,0.1,0,0.4,0,0.5c-0.5,0-0.9-0.1-1.3-0.1c-0.4,0-0.8,0-1.2,0.1c-0.1-0.1-0.1-0.3,0-0.5l0.2-0.1c0.6-0.2,0.6-0.4,0.6-2.3v-6.6c0-1.9-0.1-2.2-0.6-2.3l-0.3,0c-0.1-0.1,0-0.4,0-0.5c0.5,0,0.8,0.1,1.3,0.1c0.4,0,0.7,0,1.2-0.1c0.1,0.1,0.1,0.4,0,0.5l-0.2,0c-0.6,0.1-0.6,0.4-0.6,2.3v2.1c0,0.6,0,0.6,0.5,0.6h2.8c0.5,0,0.5,0,0.5-0.6v-2.1c0-1.9,0-2.2-0.6-2.3l-0.2,0c-0.1-0.1,0-0.4,0-0.5c0.5,0,0.8,0.1,1.2,0.1c0.4,0,0.7,0,1.2-0.1c0.1,0.1,0.1,0.4,0,0.5l-0.2,0c-0.6,0.1-0.6,0.4-0.6,2.3v6.6c0,1.9,0,2.2,0.6,2.3l0.2,0.1c0.1,0.1,0,0.4,0,0.5c-0.5,0-0.8-0.1-1.2-0.1c-0.4,0-0.8,0-1.2,0.1c-0.1-0.1-0.1-0.3,0-0.5l0.2-0.1c0.6-0.2,0.6-0.4,0.6-2.3v-2.6c0-0.6,0-0.6-0.5-0.6H141.4z"/><path class="st4" d="M151.1,209.6c0-1.9,0-2.3-0.6-2.3l-0.2,0c-0.1-0.1,0-0.4,0-0.5c0.5,0,0.8,0.1,1.3,0.1c0.4,0,0.7,0,1.2-0.1c0.1,0.1,0.1,0.4,0,0.5l-0.2,0c-0.6,0.1-0.6,0.4-0.6,2.3v6.5c0,1.9,0,2.2,0.6,2.3l0.2,0.1c0.1,0.1,0,0.4,0,0.5c-0.5,0-0.8-0.1-1.2-0.1c-0.4,0-0.8,0-1.3,0.1c-0.1-0.1-0.1-0.3,0-0.5l0.2-0.1c0.6-0.1,0.6-0.4,0.6-2.3V209.6z"/><path class="st4" d="M160,214c0.2,0.9,0.4,1.7,0.7,2.5h0c0.3-0.9,0.5-1.8,0.8-2.8l0.9-3.5c0.4-1.7,0.7-2.7,0.8-3.5c0.3,0.1,0.5,0.1,0.7,0.1c0.2,0,0.6,0,0.9-0.1c0.1,0.1,0.1,0.4,0,0.5l-0.2,0c-0.6,0.1-0.7,0.5-0.7,1.7c0,1.9,0,5.3,0.1,8c0,0.9,0,1.4,0.5,1.5l0.3,0.1c0.1,0.1,0,0.4,0,0.5c-0.4,0-0.8-0.1-1.2-0.1c-0.3,0-0.8,0-1.2,0.1c-0.1-0.1-0.1-0.3,0-0.5l0.3-0.1c0.5-0.1,0.5-0.4,0.5-1.6l0-7.7h0c-0.1,0.2-0.4,1.7-0.6,2.4l-0.9,3.2c-0.4,1.6-0.9,3.3-1.1,4.2c0,0.1-0.1,0.1-0.1,0.1c0,0-0.1,0-0.1-0.1c-0.2-1-0.6-2.8-0.9-3.7l-0.9-3.5c-0.2-0.8-0.4-1.8-0.6-2.6h0c0,1.1-0.1,2.2-0.1,3.3c0,1.1-0.1,2.8-0.1,4.3c0,1.4,0.1,1.7,0.4,1.7l0.4,0.1c0.1,0.1,0.1,0.4,0,0.5c-0.3,0-0.7-0.1-1.1-0.1c-0.3,0-0.7,0-1,0.1c-0.1-0.1-0.1-0.4,0-0.5l0.2-0.1c0.4-0.1,0.6-0.2,0.6-1.5c0.1-1.2,0.1-2.2,0.2-4c0-1.5,0.1-3.1,0.1-4.1c0-1.2-0.1-1.4-0.7-1.6l-0.2,0c0-0.1,0-0.4,0-0.5c0.3,0,0.5,0.1,0.8,0.1c0.2,0,0.5,0,0.8-0.1c0,0.7,0.2,1.9,0.5,3L160,214z"/><path class="st4" d="M172.3,214.6c-0.1-0.4-0.1-0.5-0.4-0.5h-1.5c-0.2,0-0.3,0.1-0.4,0.4l-0.3,1.9c-0.1,0.8-0.2,1.3-0.2,1.5c0,0.2,0,0.3,0.3,0.4l0.3,0.1c0.1,0.1,0.1,0.4,0,0.5c-0.3,0-0.6,0-1-0.1c-0.3,0-0.7,0-1,0.1c-0.1-0.1-0.1-0.4,0-0.5l0.3-0.1c0.2,0,0.5-0.2,0.6-0.9c0.2-0.8,0.5-2,0.9-4.1l1-5c0.1-0.7,0.2-1,0.2-1.3c0.2-0.1,0.4-0.5,0.5-0.7c0.1,0,0.1,0,0.1,0.2c0.1,0.8,0.3,1.7,0.4,2.5l1.4,7.4c0.3,1.6,0.4,1.9,0.8,1.9l0.3,0.1c0.1,0.1,0,0.4,0,0.5c-0.4,0-0.8-0.1-1.2-0.1c-0.5,0-0.9,0-1.1,0.1c-0.1-0.1-0.1-0.4,0-0.5l0.3-0.1c0.2,0,0.3-0.1,0.3-0.3c0-0.2,0-0.5-0.1-1L172.3,214.6z M170.3,213c-0.1,0.4-0.1,0.4,0.2,0.4h1.2c0.3,0,0.3-0.1,0.2-0.6l-0.5-3c-0.1-0.4-0.2-0.9-0.2-1.2h0c0,0.1-0.1,0.5-0.2,1.1L170.3,213z"/></g></g></g></svg>