<svg id="letter" xmlns="http://www.w3.org/2000/svg" viewBox="0 0 380.17 475.55"><defs><style>.cls-1,.cls-2,.cls-3,.cls-4{fill:none;}.cls-2,.cls-3,.cls-4{stroke:#000;}.cls-2{stroke-width:0.5px;}.cls-3{stroke-width:0.4px;}.cls-4{stroke-width:0.44px;}.cls-5{fill:#fff;}</style></defs><title>アートボード 30</title><g id="letter_ol" data-name="letter ol"><path class="cls-1" d="M322.25,272.19c0,1.32-.7,2.43-1.58,2.43s-1.59-1.11-1.59-2.43.72-2.44,1.59-2.44S322.25,270.82,322.25,272.19Zm-2.75,0c0,1,.52,1.79,1.17,1.79s1.16-.82,1.16-1.79-.52-1.8-1.16-1.8S319.5,271.18,319.5,272.19Z"/><rect class="cls-1" width="380.17" height="475.55"/></g><path d="M49.8,59l1.38-3.19c.12-.3.19-.41.31-.41a19.17,19.17,0,0,1,2.84,3.78c0,.26-.17.26-.31.26H46.41A92.45,92.45,0,0,1,46,68.79h5.41l1.43-3.15c.08-.15.19-.41.31-.41A16.37,16.37,0,0,1,56,68.94c0,.29-.16.29-.31.29H46.32a14.63,14.63,0,0,0,10,12v.14a4.84,4.84,0,0,0-1.58,3.45c-.05.89-.07,1.36-.45,1.36a10,10,0,0,1-3.75-2.79c-3.41-3.74-4.41-9.39-4.5-14.13H46c-.43,3.93-1.6,15-11.86,17l0-.07c7.68-4.67,8.58-13.77,8.87-16.89H34.18l-.12-.44h9c0-.58.29-3.52.29-9.13V59.4h-3a28,28,0,0,1-5,8.44l0-.07a71,71,0,0,0,3.19-15.12c1,.25,2.77.92,3.84,1.32a.43.43,0,0,1,.34.4c0,.26-.6.3-.79.3-.34,1.21-.72,2.49-1.38,4.29Z"/><path d="M70.83,85.27c0,.66,0,.92-.43,1l-2.19.22c-.41,0-.43-.08-.43-.55V66.85a25.7,25.7,0,0,1-3.48,5.21l0,0c2-4.25,4.17-14.09,4.91-19.7.55.18,4,1.65,4,2.09,0,.22-.07.26-.78.44a63,63,0,0,1-2.2,6.6c.36.08,1.31.3,1.31.56s-.52.62-.69.69Zm.26-15.52c1.27-2.64,3.75-11.67,4.49-17.47.14,0,2.81,1.21,3.65,1.62.33.14.38.18.38.33s-.5.36-.76.44a45.47,45.47,0,0,1-2.08,5.72h5.75L84,57.23c.15-.29.22-.44.31-.44s3,3.38,3,3.78-.17.26-.31.26H80v7h2.09l1.36-3.16c0-.14.2-.44.29-.44A22.81,22.81,0,0,1,86.57,68c0,.26-.16.26-.31.26H80v7.19h2.55L84,72.28c.15-.33.19-.44.29-.44a25.91,25.91,0,0,1,2.88,3.82c0,.25-.14.25-.28.25H80v9.4c0,.47,0,.88-.46.92l-2.19.22c-.43,0-.43-.19-.43-.59v-25h-.31a35.12,35.12,0,0,1-5.44,9Z"/><path d="M99.26,70.81c-1.22,1-1.79,1.4-2.62,2a46.25,46.25,0,0,1-.77-4.92,16.68,16.68,0,0,0,2.32-.15,86.19,86.19,0,0,0,4.1-10.12c1.19.69,3.6,2.34,3.6,2.75s-.69.25-1.1.22a35.13,35.13,0,0,1-3,4c1.79.88,3.34,2.32,3.34,4.7a2.49,2.49,0,0,1-2,2.68c-.43,0-.45-.44-.48-1-.09-1.69-.14-2.35-.21-3a6.88,6.88,0,0,1-.6.55V85.42c0,.66,0,1-.45,1l-1.65.18c-.52.07-.52-.11-.52-.73V75.69a41.82,41.82,0,0,1-3.63,9.07l-.07-.08a76.54,76.54,0,0,0,1.17-11.41,26,26,0,0,1,2.53.63ZM96.09,57.16a7.18,7.18,0,0,1,2.19,1.43,58.49,58.49,0,0,0,1.15-6.13c.57.22,3.91,1.65,3.91,2.13,0,.33-.41.3-.84.3a40.91,40.91,0,0,1-3.62,4.33,4.44,4.44,0,0,1,1,3c0,1.8-.93,2.68-1.93,2.68-.53,0-.57-.11-.65-1.28-.21-4-.76-5.4-1.26-6.39Zm2.72,10.46,3.53-.44a16.82,16.82,0,0,0-.67-2.42A33.18,33.18,0,0,1,98.81,67.62Zm3.33,5.14c3.18,2.31,3.68,4.36,3.68,5.83,0,2.68-1.36,3.38-2,3.38s-.62-.37-.64-1.47c0-2-.43-6.2-1.1-7.67Zm.15,13.69a21.19,21.19,0,0,0,7.3-6.57A26.21,26.21,0,0,0,114,69.05c.31.33,3.63,2.57,3.63,3s-.1.3-1,.22c-1.72,5-4.63,12.81-14.31,14.35Zm7.61-33.84c.4,0,3.74.18,3.74.7,0,.22-.07.22-.79.47V71a9,9,0,0,1-.19,2.49,2.69,2.69,0,0,1-2.55,2.09c-1,0-1-.51-1-1.21A3.57,3.57,0,0,0,107,71l0-.11a16.7,16.7,0,0,0,1.81.11c1,0,1-.18,1-1.62V59.91a.53.53,0,0,1-.24,0,40.44,40.44,0,0,1-5.23,13.76l0-.07a93.32,93.32,0,0,0,2.12-15.23,26.23,26.23,0,0,1,3.37.92Zm3.33,5.58A9.7,9.7,0,0,1,118,66.41c0,2.93-1.69,3-1.88,3-1,0-1.05-1-1.19-2.6-.48-5.66-1.31-7.56-1.72-8.44Z"/><path d="M141.59,66.34l.91-1.84c.19-.4.26-.51.4-.51s3.15,3.15,3.15,3.7c0,.37-.31.85-1.43,1a32.38,32.38,0,0,1-2.93,8.77,14.22,14.22,0,0,0,8,3.6l0,.11c-.74.41-1.62,1.54-1.81,3.93-.1,1-.1,1.32-.53,1.32-.64,0-4.88-2-7.46-5.91-1,1.32-3.53,4.66-10.16,6.13v-.15a23.24,23.24,0,0,0,8.63-8.77c-1.26-2.86-1.86-7.37-2-10.93-.59,5.06-1.31,7.7-2.41,10.16a25.53,25.53,0,0,1-6.6,9.14l-.1,0c5.94-8.62,6.25-19.78,6.39-25.58h-6.44l-.09-.4h6.53V52.65l3.44.55c.14,0,.52.07.52.33s-.5.55-.81.62v5.91h7.78l1.4-3.27c.17-.36.19-.44.31-.44A20.77,20.77,0,0,1,149,60.24c0,.22-.16.22-.28.22H136.68c-.05,2-.14,3.93-.36,5.88Zm-5,.44a20.16,20.16,0,0,0,3,8.25,40.75,40.75,0,0,0,2.15-8.25Z"/><path d="M174.43,55.47l.79-1.43c.45-.81.52-.88.67-.88s2.81,2.86,2.81,3.38-.41.8-.95,1.14V70.81c0,.7,0,.92-.46,1l-1.93.22c-.52.07-.64,0-.64-.88v-.77h-4.3V76.9h3.84L175.5,74c.08-.14.22-.44.31-.44a16.67,16.67,0,0,1,2.77,3.45c0,.29-.17.29-.31.29h-7.85v7.6h5.23l1.4-3c.22-.48.24-.55.34-.55a16.46,16.46,0,0,1,2.79,3.71c0,.25-.14.25-.29.25H158l-.12-.4h9.59v-7.6H159.6l-.12-.44h8V70.34h-4.22v1.57c0,.74,0,1-.55,1.07l-1.84.18c-.62.07-.62-.07-.62-.73V54.3c.93.26,2.79,1,3.25,1.17Zm-11.16.41v6.71h4.22V55.88Zm0,7.15v6.9h4.22V63Zm7.15-7.15v6.71h4.3V55.88Zm0,7.15v6.9h4.3V63Z"/><path d="M46.69,160.41l2.51-5.18c.24-.51.36-.76.53-.76.37,0,4.15,5.69,4.15,6.2s-.29.5-.53.5H45.62v22.4l8.76-1V138.84c2.75.38,5.55.82,5.88.89s.53.19.53.44c0,.51-1,.89-1.15,1v25a125.92,125.92,0,0,0,6-16.19c1.19.88,2,1.58,6.25,5.25a1,1,0,0,1,.46.76c0,.25-.21.44-.54.44-.12,0-.57-.13-.82-.13C67,161,64.25,163.89,59.64,167v16.52c0,3,0,3.16,3.87,3.16,3.61,0,3.78-.38,4.19-1.27,1.15-2.53,2.76-9,3.37-11.64l.17.07c-.37,4-.54,7.9-.54,9.49a5,5,0,0,0,.74,3,6.32,6.32,0,0,1,.78,3.17c0,5-3,5-9.78,5-7.28,0-8.06-.63-8.06-6.7v-4.94a100.18,100.18,0,0,1-17.65,12.84c-.82-3.47-.94-4.23-2.22-10.88l5.88-.69V139l5.93.82c.33.07.65.19.65.51s-.16.44-1.35.89v19.16Z"/><path d="M96.74,183.32l-.17-.76h9.87V175c-2.26.95-4.93,2-8.18,3.17-.83-5.95-.91-6.58-1.11-8.67,1.93,0,4-.13,5.84-.25a71.25,71.25,0,0,0,1.15-8.67H97c-.2,17.52-.86,27.33-9.78,36.12l0-.12c4.49-8.35,4.65-18.73,4.65-33.85V140.93A55.3,55.3,0,0,1,98,142.76H117.3l1.64-3.22c.29-.51.5-.95.66-.95s5,4.74,5,5.94c0,.51-.21.7-2,2.09v7c0,.82-.08,1.14-.57,1.2l-1,.13c.16.19,3.82,4.49,3.82,5.19,0,.31-.16.44-.53.44H110.76c-1.19,2.4-2.72,4.37-6,8.6,8.93-.25,9.92-.31,11.56-.5a23.92,23.92,0,0,0-3.41-5v-.19c3.58.63,10.77,2.72,10.77,10.19,0,3-1.4,4.61-2.71,4.61-1.07,0-1.4-.69-2.14-3.16a34.29,34.29,0,0,0-2.14-5.69,53.6,53.6,0,0,1-10.2,5.5c1.73.38,5,1.14,5.68,1.39.29.13.53.19.53.51s-.49.57-1.35.76v5h4.15l2.3-4.75c.25-.51.37-.76.49-.76.33,0,4.28,5.19,4.28,5.76s-.24.51-.49.51H111.38V194.2h6.94l2.35-5.06c.21-.45.37-.76.49-.76.29,0,4.57,5.5,4.57,6.07s-.25.5-.5.5H93.16L93,194.2h13.49V183.32Zm.24-39.8V152h20.65v-8.48Zm0,9.24v7h21.34l2-4.24c.08-.12.16-.38.29-.57l-1.89.19c-1.07.13-1.07-.12-1.07-2.4Z"/><path d="M172.12,148l1.81-3.29c.16-.31.41-.82.61-.82s5.18,7,5.18,7.78-.28.95-3.2,1.27a44,44,0,0,1-4.28,3.16c.41.5,1.69,2.09,1.69,2.59s-.25.45-.54.45H162.9v14h5.8l2.26-5.19c.17-.31.33-.76.5-.76.45,0,4.81,5.63,4.81,6.27,0,.44-.29.44-.54.44H162.9v14.17a24.17,24.17,0,0,0,3.71.19,60.57,60.57,0,0,0,13.57-1.58v.25a11.55,11.55,0,0,0-2,6.33c0,1.77,0,2-.29,2.34-.57.63-5.3.63-6.41.63-13.41,0-17.77-3.61-19.82-16.83a42.25,42.25,0,0,1-3.25,9.62c-2,3.79-4.24,6.77-7.16,8.54l0-.25c5.23-7.6,6.17-22.21,6.38-30.37,1.27.25,4.77,1.14,6.33,1.58.16.07.49.19.49.57s-.12.51-1.31.76a64.77,64.77,0,0,1-1.11,7.91c1.27,3.79,3.25,7,5.67,8.67V159.09h-9.87l-.2-.76h19.24l2-4.75c.12-.31.28-.76.45-.76s1.56,1.52,1.93,1.9c.13-.51.82-3.35,1.19-6.07H148.22c.05.63.13,1.52.13,2.4,0,4.56-1.52,9-3.79,9-1.64,0-2.83-2.15-2.83-4.3,0-1.26.24-1.52,1.44-3.1a28,28,0,0,0,4.36-9h.08c.24,1.45.41,2.53.57,4.36h9.5v-9.74a35.06,35.06,0,0,1,5.72,1c.57.13.78.19.78.57s-.82.7-1.28.89V148Z"/><path d="M225.41,180.34l2.39-5.25c.29-.63.45-.89.66-.89.49,0,4.68,5.51,4.68,6.4,0,.44-.24.44-.53.44H195.15l-.21-.7ZM195.6,196.66c4.07-3.6,10-11.7,11.35-14.74,1.44,1,1.89,1.33,5.59,4.24a.94.94,0,0,1,.41.7c0,.44-.32.44-.49.44a4.09,4.09,0,0,1-.9-.19c-2.14,2.15-7.74,7.72-16,9.74Zm11.76-22v1.83c0,.82,0,1.21-.78,1.27l-3.37.38c-.66.06-.91.06-.91-1.08V150.36c.87.18,5.1,1.39,6.3,1.7h2.79v-5.63H196.05l-.2-.76h15.54v-7.46c.91.13,5,.5,5.72.5.33,0,.82.13.82.57s-.16.51-1.32,1.08v5.31h8.23l2.18-5c.16-.32.45-1,.7-1,.49,0,4.77,5.25,4.77,6.2,0,.5-.29.5-.54.5H216.61v5.63h4.08l1-2.15c.78-1.71.87-1.89,1.07-1.89.45,0,5,5.5,5,6.07s-1.28,1.33-1.77,1.52v20c0,1.2-.25,1.45-.9,1.51l-3.3.32c-.74.07-.86-.25-.86-1.26v-1.52Zm0-21.89v6.33h13.57v-6.33Zm0,7.09v6.64h13.57v-6.64Zm13.57,14v-6.64H207.36v6.64Zm-4.69,9.05c3.21.25,13.45,1.45,13.45,9.23,0,2.15-1,4.75-2.92,4.75-.41,0-.78,0-1.6-1.9a37,37,0,0,0-8.93-11.9Z"/><path d="M253.54,151.49v31.32c0,1,0,1.39-.57,1.45l-2.71.32c-.74.06-.74-.19-.74-1.26V148.77a25.46,25.46,0,0,1,4.48,2h1V138.15c.57.06,4.6.88,5,.95s.66.12.66.5c0,.7-.78.89-1.32,1v10.18h1.28l.82-1.64c.53-1.07.82-1.71,1-1.71.37,0,3.58,4.43,3.78,4.75v-11a26,26,0,0,1,5.1,2.15h4.36l1.52-2.78c.58-1.08.74-1.39,1-1.39s2.59,2.71,4.32,4.74a2.15,2.15,0,0,1,.7,1.39c0,1.08-1.44,1.77-2.31,2.21v38.85c0,1.39,0,1.52.33,1.52.74,0,.95,0,1.28-.83.57-1.51,2.5-8,3.7-13l.08.06c-.12,1.64-1,11.2-1,11.77,0,.88.08,1,.91,2.4a5.43,5.43,0,0,1,.7,2.85c0,4.36-3,4.36-7.45,4.36-3.49,0-3.49-1.58-3.49-5.82v-17c-1.32,2-2.55,2-2.76,2-1.11,0-1.11-1.21-1.11-2.35,0-4.55,0-10.56-1-14v8c0,13.35-.65,22.71-11.39,30.62l-.08-.12c4.61-7,6.62-12.66,6.62-26.95V153.39a16.67,16.67,0,0,1-1.56,1.39v21.83c0,1.83,0,5.82-3.62,5.82-.9,0-.94-.44-.94-1.08,0-3.73-.42-4.74-.79-5.69v19.42c0,.89,0,1.2-.57,1.27l-2.88.38c-.82.12-.86.06-.86-1.33V151.49Zm5.8,0v23.28a6.51,6.51,0,0,0,1,.19c.41,0,.54-.06.54-2.34V151.49Zm11.76,5.76a22.79,22.79,0,0,1,4.86,5.57V144H271.1Z"/><path d="M36.14,244.37c.82.43,1.67.88,1.67,2.11,0,.64-.31,1.12-.75,1.12s-.31-.17-.36-.69a7.83,7.83,0,0,0-.58-2.46v5.23c0,.29,0,.4-.2.42l-.78.09c-.26,0-.26-.12-.26-.36v-4.47l-.16.1A12.44,12.44,0,0,1,33,249.32l0,0a35.23,35.23,0,0,0,.53-4.58,12.73,12.73,0,0,1,1.37.42v-1.55c-.5.29-1,.54-1.59.88,0-.34-.22-1.84-.25-2.15l1.14-.06a41.75,41.75,0,0,0,1.88-4.66c.18.13.92.77,1.07.9s.41.33.41.43a.11.11,0,0,1-.12.13l-.21,0a25.06,25.06,0,0,1-2.58,3.23l2-.09a6,6,0,0,0-.44-1.27v0a2.43,2.43,0,0,1,1.69,2.24c0,.32-.07,1.09-.71,1.09-.27,0-.28-.11-.33-.42s-.12-1-.18-1.37c-.19.16-.34.27-.54.41v1.64ZM33.2,237.6a2.79,2.79,0,0,1,1,.61,29.51,29.51,0,0,0,.58-2.92l1.14.77c.18.11.44.29.44.37a.16.16,0,0,1-.15.16l-.23-.05a9.32,9.32,0,0,1-1.57,1.87,1.8,1.8,0,0,1,.49,1.28c0,.88-.47,1.11-.78,1.11s-.33-.13-.39-.71a7.37,7.37,0,0,0-.6-2.46Zm7.29-.71v11.94h.38l.63-1.36c.08-.17.09-.19.13-.19a11.11,11.11,0,0,1,1.17,1.63c0,.12-.07.12-.13.12H36.45l-.05-.2h2.76V236.89H37l0-.17h3.92l.54-1.22c.05-.13.09-.21.13-.21a9.39,9.39,0,0,1,1.12,1.51c0,.09-.07.09-.13.09Z"/><path d="M49.92,242.85h.39l.55-1.17c.09-.18.1-.19.14-.19a6.15,6.15,0,0,1,1,1.42c0,.11-.06.11-.14.11h-2v.68a2.51,2.51,0,0,1,1.9,2.19c0,.93-.6,1.18-.83,1.18s-.36-.22-.43-.88a5,5,0,0,0-.64-2.25v5.84c0,.17,0,.25-.14.27l-1,.08c-.16,0-.16-.08-.16-.24v-3.5a12.37,12.37,0,0,1-2.31,3l0,0A26.5,26.5,0,0,0,48.48,243H46.69l0-.17h2V241a15.08,15.08,0,0,1-2,.16v-.07a17.64,17.64,0,0,0,3.31-2l-.58,0c-.14,0-.15,0-.15-.19v-1.44H46.6l-.06-.19h2.7v-2a13,13,0,0,1,1.45.2c.05,0,.15,0,.15.14s-.06.16-.31.19v1.43H52v-2c.69.08,1.29.18,1.46.21s.15.05.15.15-.06.16-.31.19v1.41h1l.58-1.27c.06-.12.09-.19.12-.19a7.8,7.8,0,0,1,1.24,1.54c0,.11-.07.11-.13.11H53.32v1.31c0,.15,0,.23-.13.24l-1,.08c-.12,0-.14,0-.14-.19v-1.44H50.53v1.44a11.15,11.15,0,0,1,1.2,1.47.09.09,0,0,1-.1.1s-.08,0-.19-.08a8.55,8.55,0,0,1-1.52.4Zm3.45,3.58c0,.15,0,.23-.12.24l-1,.1c-.14,0-.15,0-.15-.21V239.9c1,.1,1.16.15,1.43.19,0,0,.15,0,.15.15s0,.16-.31.19Zm2.23,1.88c0,.88,0,1.82-1.44,1.82-.31,0-.31-.08-.32-.62,0-.79-.09-1.06-1.1-1.72v0c.26,0,1,.12,1.26.12s.3,0,.3-.62v-8.52c.26,0,1.27.16,1.42.2s.16.06.16.14-.19.19-.29.22Z"/><path d="M62.52,241a2.27,2.27,0,0,1,1.17,1.32v-2.81A5.77,5.77,0,0,1,65,240h.25v-3.41H63.19l-.06-.19H68l.54-1c.09-.18.1-.19.12-.19a12.72,12.72,0,0,1,1.13,1.29c0,.1-.08.1-.13.1h-2V240h.3l.32-.79c.07-.16.1-.24.16-.24a5.78,5.78,0,0,1,1.18,1.35c0,.13-.1.24-.37.48v8.85c0,.18,0,.27-.14.29l-.9.09c-.12,0-.19,0-.19-.24v-1H64.91v.88c0,.23,0,.32-.18.34l-.86.1c-.15,0-.18-.07-.18-.29V244a.65.65,0,0,1-.57.48c-.32,0-.32-.22-.33-.81a9.28,9.28,0,0,0-.27-2.4v8.61c0,.14,0,.22-.12.24l-1,.08c-.12,0-.14,0-.14-.2v-5.37a8.27,8.27,0,0,1-1.37,2.25l0,0a30.15,30.15,0,0,0,1.31-7.54H60.09l-.06-.19H61.3v-3.76c.46.05,1.18.14,1.37.19s.16.05.16.16-.08.16-.31.19v3.22l.49-1c.09-.19.1-.22.12-.22a9.22,9.22,0,0,1,.89,1.32c0,.13-.07.13-.14.13H62.52ZM68,245.73h-.57c-.68,0-.8-.38-.8-1.17v-4.39h-.33v1.51a8.28,8.28,0,0,1-1.38,4.91v2.07H68Zm-3.08.72a22.34,22.34,0,0,0,.37-4.48v-1.8h-.37Zm1.38-9.86V240h.33v-3.41Zm1.7,3.58h-.36v3.33c0,.39,0,.39.36.39Z"/><path d="M78.21,249.28c1-.41,3.39-1.47,3.39-6.45,0-2.3-.68-5.7-3.06-5.68a4.21,4.21,0,0,1,.51,1.87c0,1.62-1.14,9.25-3.31,9.25-.71,0-.81-.67-.95-1.47a5.41,5.41,0,0,0-.49-1.66,4.12,4.12,0,0,1-.4-1.84c0-3.78,2.47-6.73,4.92-6.73,2.2,0,4.16,2.34,4.16,6.66,0,2.87-1,4.61-2.06,5.27a5.86,5.86,0,0,1-2.71.85Zm-3.33-4.91a3.59,3.59,0,0,0,.15,1.29c.14.36.4.71.6.71.83,0,2.77-5,2.8-9.19C75.25,237.85,74.88,243.12,74.88,244.37Z"/><path d="M92.47,240.32a12.84,12.84,0,0,0,1.48,5,6,6,0,0,0,3.22,2.61V248a1.66,1.66,0,0,0-.92,1.22c-.15.72-.18.81-.34.81a4.66,4.66,0,0,1-2-2c-1.19-2-1.52-4.72-1.52-7.41a16.4,16.4,0,0,1-1,5.2,7.31,7.31,0,0,1-4.49,4.4v0c3.77-2.67,4.07-8.29,4.15-9.86H87.18l-.05-.18h3.92c0-.41,0-.83,0-1.25v-3.63l1.19.21c.25.05.46.08.46.21s-.08.13-.27.21v2.75c0,.43,0,1.1,0,1.5h2.36l.65-1.39c.08-.18.09-.19.14-.19a10.55,10.55,0,0,1,1.18,1.66c0,.1-.07.1-.12.1Z"/><path d="M108.29,244.78l.64-1.37c.07-.16.08-.19.13-.19a9,9,0,0,1,1.2,1.64c0,.12-.07.12-.13.12h-4.06v3.23c0,1,0,1.94-1.57,1.94-.37,0-.37-.1-.37-.4a2.68,2.68,0,0,0-.14-1.09,2,2,0,0,0-1-.88v-.05l1.47.11c.28,0,.28-.13.28-.65V245h-4.09l-.05-.2h4.14v-1.66c.13,0,.61.11.91.18a11.47,11.47,0,0,0,.81-1.76h-3.91l0-.2h3.92l.33-.57c.07-.13.14-.26.2-.26s.15.1.2.16.66.88.74,1c.18-.56.44-1.81.51-2.23h-6.12a10.26,10.26,0,0,1,.08,1.27c0,1.23-.52,1.95-1,1.95s-.72-.7-.72-1.07a.71.71,0,0,1,.17-.48A6.27,6.27,0,0,0,102,238h0a11,11,0,0,1,.25,1.26h4.32a30.35,30.35,0,0,0,.84-3.89c1,.58,1.06.64,1.6,1a.22.22,0,0,1,.11.16c0,.05,0,.16-.34.1a14.39,14.39,0,0,1-1.91,2.65h1.48l.37-.62c.09-.15.14-.21.2-.21s.36.4.48.58a8,8,0,0,1,.85,1.63.24.24,0,0,1-.28.26,3,3,0,0,1-.49-.07,9.17,9.17,0,0,1-1.51,1c.27.39.3.43.3.58,0,.38-.41.32-.69.29a12.56,12.56,0,0,1-1.47.73c.11,0,.19,0,.19.15s-.2.22-.27.24v1ZM102,235.44c.42.11,2.15.57,2.15,2.3,0,.9-.45,1.25-.87,1.25-.25,0-.31-.06-.35-.51a7.72,7.72,0,0,0-.94-3Zm2.12-.16c1,.25,2.16.85,2.16,2.24,0,.93-.49,1.37-.88,1.37-.17,0-.23-.09-.25-.35a8.31,8.31,0,0,0-1-3.23Z"/><path d="M118.78,249.28c.94-.41,3.38-1.47,3.38-6.45,0-2.3-.68-5.7-3.06-5.68a4.21,4.21,0,0,1,.51,1.87c0,1.62-1.14,9.25-3.31,9.25-.71,0-.81-.67-1-1.47a5.41,5.41,0,0,0-.49-1.66,4.12,4.12,0,0,1-.4-1.84c0-3.78,2.47-6.73,4.92-6.73,2.21,0,4.16,2.34,4.16,6.66,0,2.87-1,4.61-2.06,5.27a5.86,5.86,0,0,1-2.7.85Zm-3.35-4.91a3.5,3.5,0,0,0,.16,1.29c.14.36.4.71.6.71.83,0,2.77-5,2.8-9.19C115.81,237.85,115.43,243.12,115.43,244.37Z"/><path d="M132,238.56v-3.27l1.49.28s.17,0,.17.16-.08.14-.33.24v2.59h1.42l.62-1.36c.08-.16.1-.21.14-.21a11,11,0,0,1,1.18,1.63c0,.11-.07.11-.13.11h-3.23v3.46h2.06l.65-1.41c0-.13.08-.21.12-.21a9.37,9.37,0,0,1,1.22,1.7c0,.11-.07.11-.13.11h-3.11v4.82c0,.47,0,.67.42.67h.84c.38,0,.5,0,.72-.56.15-.38.43-1.33.74-2.37h0c0,.77-.1,1.53-.1,2.13,0,.29,0,.32.24.6a1.26,1.26,0,0,1,.26.81c0,1.33-1,1.33-2,1.33-2.27,0-2.48,0-2.48-1.86v-5.57h-.82c-.08,3.48-.36,6.79-4.27,7.75l0,0c2.31-1.42,2.87-3.79,2.88-7.7h-2.8l-.06-.19H132v-3.46h-1.76a10,10,0,0,1-1.91,3.24v0a36.92,36.92,0,0,0,1.2-6.2c.11,0,1.4.61,1.62.74a.13.13,0,0,1,.07.11c0,.14-.26.18-.34.19-.24.88-.36,1.25-.55,1.78Z"/><path d="M148.84,241.89l.49-1.07c0-.1.1-.2.14-.2a5,5,0,0,1,1.05,1.32c0,.12-.05.12-.11.12h-3.74v1.16h1.61l.34-.72c.12-.23.13-.26.18-.26a5.26,5.26,0,0,1,.66.67,2,2,0,0,1,.49.71c0,.12,0,.12-.39.41v2.55c0,.33,0,.35-.24.38l-.75.1c-.23,0-.23-.08-.23-.61h-1.67v1.34h2.56l.5-1.08c0-.07.09-.2.13-.2a5.38,5.38,0,0,1,1.07,1.33c0,.13-.05.13-.1.13h-4.16v1.73c0,.25,0,.3-.22.33l-.82.1c-.19,0-.22-.08-.22-.3V248h-4.14l-.06-.18h4.2v-1.34h-1.57v.27c0,.23,0,.34-.21.35l-.83.08c-.22,0-.22-.19-.22-.28v-4.09a11.23,11.23,0,0,1,1.37.44h1.46v-1.16h-3.85l-.05-.17h3.9v-1.24a9.76,9.76,0,0,1,1.22.18v-5.52c.05,0,1.54.11,1.54.29s-.22.19-.3.21v.81h1.22l.45-1c0-.09.09-.22.15-.22a4.57,4.57,0,0,1,.94,1.23c0,.14,0,.14-.1.14h-2.66v1.35h.83l.43-.91c.05-.08.1-.21.14-.21a3.87,3.87,0,0,1,.88,1.18c0,.13-.05.13-.1.13h-2.18v1.46h1.22l.5-1c0-.08.1-.21.15-.21a5.22,5.22,0,0,1,1,1.29c0,.14-.06.14-.12.14h-2.74v1c0,.29-.06.3-.21.32l-.82.08c-.11,0-.13,0-.17-.05v.5Zm-7-3.72,0-.17h2.56c0-.32,0-.4,0-1.19h-2.81l-.05-.19h2.86v-1.3l1.59.21a.15.15,0,0,1,0,.07c0,.09-.16.16-.32.24,0,3.63-.22,5.23-3.07,5.94l0-.05a4.08,4.08,0,0,0,1.57-2.2,15.37,15.37,0,0,1-2.25,1.56,14.22,14.22,0,0,1-.42-1.68l2.76-.26a5.66,5.66,0,0,0,.11-1Zm3.57,5.22h-1.57v1.31h1.57Zm0,1.51h-1.57v1.37h1.57Zm1.26-.2h1.67v-1.31h-1.67Zm0,1.57h1.67V244.9h-1.67Z"/><path d="M155.8,238.16a15.39,15.39,0,0,0,1.49-.43c1.24-.36,2.47-.64,3.72-.88a1.36,1.36,0,0,0,.78-.39.27.27,0,0,1,.16-.08c.15,0,1.42.53,1.42,1.46,0,.3-.14.72-.47.72a1.89,1.89,0,0,1-.6-.16,3.43,3.43,0,0,0-1-.16,2,2,0,0,0-1.85,1.52,14.82,14.82,0,0,0-.61,4.51c0,2.8.86,3.12,2,3.52a1,1,0,0,1,.76,1.08c0,.81-.25,1.1-.59,1.1a3.07,3.07,0,0,1-1.34-.43c-1.19-.67-1.77-1.84-1.77-4.48,0-2.84.79-5.49,2-6.65a8.76,8.76,0,0,0-3.09,1.33c-.46.31-.54.34-.71.34-.67,0-1.11-.91-1.11-1.84a2.39,2.39,0,0,1,.15-.93C155.2,237.71,155.32,238.16,155.8,238.16Zm6.89,4.58c0,.4-.18.75-.42.75s-.32-.19-.53-.8a3.8,3.8,0,0,0-1-1.55A1.82,1.82,0,0,1,162.69,242.74Zm-.5-3.16a1.37,1.37,0,0,1,1.55,1.33c0,.45-.25.69-.41.69s-.2-.06-.51-.66a3,3,0,0,0-1.25-1.29A3.27,3.27,0,0,1,162.19,239.58Z"/><path d="M170.94,250.07c2.06-.9,3.42-1.88,3.42-5.37,0-.75,0-3-1.46-3.48a6.53,6.53,0,0,1-.05,1.1,11.92,11.92,0,0,1-1.24,3.66,6,6,0,0,1,.21,1.17,1,1,0,0,1-.7.93c-.29,0-.43-.51-.49-.77-.41.48-1.35,1.48-1.92,1.48s-.54-.37-.66-.79c-.05-.16-.32-.85-.37-1a2.35,2.35,0,0,1-.08-.67,6.33,6.33,0,0,1,.64-2.61,5.21,5.21,0,0,1,2.12-2.35v-1.62a2,2,0,0,1-.85.26c-1,0-1.44-1.43-1.66-2.18.2.29.41.59.78.59a11.11,11.11,0,0,0,1.73-.5c0-1.64,0-1.93-.41-1.93a.3.3,0,0,0-.16,0c.07-.22.26-.82.85-.82a1,1,0,0,1,.86.9c0,.18-.11,1.23-.13,1.46.58-.21.64-.24.64-.5a.76.76,0,0,0,0-.16l0,0c.14.22.2.24.7.3a.93.93,0,0,1,.87,1.06c0,.38-.06.59-.49.65a5.89,5.89,0,0,0-1.85.5c0,.48,0,1.12-.05,1.59a3.84,3.84,0,0,1,1.08-.23,3.1,3.1,0,0,0-.24-1.07,1.64,1.64,0,0,1,.83,1.09c1.84.19,2.82,2.33,2.82,4.43,0,.74-.12,3.23-1.7,4.13a6.77,6.77,0,0,1-3,.78Zm-2.31-3.83c0,.32.06.55.32.55s1.08-.68,1.49-1.16c-.08-1.58-.08-2.32-.08-3.61A7.38,7.38,0,0,0,168.63,246.24Zm2.56-4.86a20.13,20.13,0,0,0,.15,3,7.57,7.57,0,0,0,.95-3.26A2,2,0,0,0,171.19,241.38Z"/><path d="M180.83,250.1c1.64-.51,2.84-1.46,2.84-6.48a19.09,19.09,0,0,0-.29-3.78c-.06-.18-.16-.32-.35-.32-.74,0-1.41,2.88-1.41,5.38a4.78,4.78,0,0,0,.11,1.12,1.74,1.74,0,0,1,0,.3.66.66,0,0,1-.63.69c-.88,0-1-2.1-1-3.7a17.1,17.1,0,0,1,.89-5.23,11.22,11.22,0,0,0,.39-2c0-.47-.23-.52-.52-.56a.83.83,0,0,1,.63-.33c.35,0,1.06.26,1.06,1.65a3.15,3.15,0,0,1-.33,1.52,10.76,10.76,0,0,0-1.31,5c0,.09,0,.4.1.4s.06,0,.13-.4a14.26,14.26,0,0,1,1.39-3.73,1.09,1.09,0,0,1,.86-.56c.77,0,1.16,1.18,1.24,1.44a15.24,15.24,0,0,1,.36,3.57c0,2.49-.16,4.8-2.52,5.74a4,4,0,0,1-1.62.31Z"/><path d="M189.6,245.86a3.38,3.38,0,0,1,2.29.85,2.36,2.36,0,0,1,.64,1.66c0,.74-.3,1.25-.76,1.25s-.72-.66-.76-.85a4.65,4.65,0,0,0-1.49-2.79Z"/><path d="M205.37,236.59l.6-1.19c.06-.12.09-.17.14-.17a7.2,7.2,0,0,1,1.06,1.42c0,.12-.08.12-.14.12h-1.14v4.83H206l.48-1.28c0-.11.07-.19.11-.19a8.48,8.48,0,0,1,.85,1.55c0,.11,0,.11-.11.11h-1.42v7.91c0,.27,0,.38-.2.4l-.83.08c-.21,0-.24,0-.24-.29v-8.1h-.82c0,5.67-.9,7-3.41,8.42v0c1.93-2.11,2.15-3.78,2.15-8.39h-.47c0,.18,0,.26-.39.48v5.36c0,.2,0,.34-.15.36l-.84.08c-.15,0-.24,0-.24-.29v-.93h-.62v2.27c0,.18,0,.34-.16.35l-.88.1c-.18,0-.2-.11-.2-.29v-6.19a11.5,11.5,0,0,1-1.28,2l0,0a25.77,25.77,0,0,0,1.66-8.29h-1.33l-.05-.18h2.67l.56-1.12c.08-.16.09-.19.13-.19a8.9,8.9,0,0,1,1.13,1.31Zm-2.84.18h-2.16a19.49,19.49,0,0,1-.87,4.14l.36.18h.5l.33-.71c.06-.11.1-.19.19-.19s1,1.22,1.1,1.41h.55Zm-2.71,4.49v5.4h.62v-5.4Zm4.8.34v-4.83h-.82v4.83Z"/><path d="M216.57,243.66l.35-.78c0-.1.1-.24.2-.24a4.66,4.66,0,0,1,1.3,1.5c0,.16,0,.2-.48.48l-.08,2.74c0,.45,0,.51.23.55a8.73,8.73,0,0,0,.91,0c.36,0,.47,0,.59-.34a17.82,17.82,0,0,0,.71-2.32l0,0c0,.56-.05,1.25-.05,1.81a1,1,0,0,0,.22.78,1.33,1.33,0,0,1,.19.7c0,1.24-.67,1.24-1.36,1.24-2.72,0-2.87,0-2.82-1.6l.14-4.37-1.19.06c-.2,2.43-.93,5.31-4.29,6.24l0,0c2.43-1.63,2.84-4.22,3-6.09l-2.74.17-.07-.17,2.82-.2c.07-.94.08-1.52.07-2.72.18,0,1.61.24,1.61.47s-.2.14-.29.16c0,1,0,1.42-.08,2Zm.89-6.13v1.94c0,.66,0,.66,1.19.66.78,0,1.1,0,1.52-1.57h0c0,.16,0,.55,0,.76,0,.41,0,.46.14.67a1.34,1.34,0,0,1,.2.78c0,1.16-.79,1.16-2.09,1.16-2.19,0-2.19-.42-2.19-2v-2.39h-1.73l1,.66c.1.06.15.1.15.18s-.14.11-.34.12c-.82,2.18-1.76,3.62-3.92,4.57v0a10.41,10.41,0,0,0,2.68-5.49h-1.27a8.29,8.29,0,0,1,.07,1c0,1.34-.5,1.84-.86,1.84s-.77-.51-.77-1.09c0-.16.11-.32.34-.69a5.47,5.47,0,0,0,.92-2.32h0c.07.3.15.61.23,1.07h2.55v-2c.19,0,1.62.13,1.62.35s-.09.13-.29.21v1.44h2.31l.37-.75c.1-.19.14-.23.19-.23a5.85,5.85,0,0,1,1.28,1.77c0,.24-.21.25-.5.25a15.39,15.39,0,0,1-1.74,1v0a8.55,8.55,0,0,0,.46-1.86Z"/><path d="M224.58,250a13.34,13.34,0,0,0,3.36-3.45l1,1a3.45,3.45,0,0,1,.39.52.09.09,0,0,1-.1.09c-.05,0-.07,0-.27-.09a9.87,9.87,0,0,1-4.34,1.93Zm2.62-3.63v.29c0,.19,0,.32-.19.34l-.9.08c-.17,0-.18-.07-.18-.31v-6.72a9.72,9.72,0,0,1,1.35.45h4.44l.34-.82.09-.18-.81.08c-.15,0-.15,0-.15-.25V239h-3.47v.4c0,.27,0,.33-.22.35l-.89.1c-.18,0-.2-.07-.2-.29v-3.65a7.84,7.84,0,0,1,1.44.42h3.26l.39-.87c.11-.22.12-.26.17-.26a7.83,7.83,0,0,1,1.23,1.53c0,.12-.05.16-.43.41v2.16c0,.23,0,.24-.23.26.19.17,1.23,1.25,1.23,1.5s-.28.34-.43.4v5.17c0,.26,0,.29-.21.31L232,247c-.12,0-.25,0-.25-.32v-.27Zm4.56-4V240.7H227.2v1.67Zm0,1.85v-1.66H227.2v1.66Zm0,2v-1.79H227.2v1.79Zm-4-9.75v2.31h3.47v-2.31Zm1.88,10.34c3.86-.06,4.11,1.83,4.11,2.26,0,.67-.41,1.13-.75,1.13-.18,0-.2,0-.48-.46a8.75,8.75,0,0,0-2.88-2.9Z"/><path d="M241.72,247.19c0,1.32-.69,2.43-1.58,2.43s-1.58-1.11-1.58-2.43.72-2.44,1.58-2.44S241.72,245.82,241.72,247.19Zm-2.74,0c0,1,.52,1.79,1.16,1.79s1.17-.82,1.17-1.79-.52-1.8-1.17-1.8S239,246.18,239,247.19Z"/><path d="M36,261.44a3,3,0,0,0,1.28-.57c.57-.39.63-.43.81-.43.55,0,1.15.8,1.15,1.49a.61.61,0,0,1-.31.6,1.58,1.58,0,0,0-.46.58,42.15,42.15,0,0,1-3.13,4.42c-.12.13-.12.16-.12.19a.09.09,0,0,0,.08.1L37,267a16.37,16.37,0,0,0,2.37-1.15.85.85,0,0,1,.47-.19c.35,0,1.48.54,1.48,1.3s-.44.8-.63.8-1-.13-1.16-.13c-1.88,0-2.64,2.35-2.64,3.36,0,1.46.77,1.73,1.92,2.16a.87.87,0,0,1,.69.93c0,1-.45,1-.78,1a2.77,2.77,0,0,1-1.82-.76,3.24,3.24,0,0,1-.81-2.58,6.75,6.75,0,0,1,1-3.43,1.29,1.29,0,0,0,.19-.46.09.09,0,0,0-.09-.1,8.74,8.74,0,0,0-2.48,1.73c-.55.54-.61.61-.82.61-.42,0-.59-.85-.59-1.31,0-.66.15-.74.71-1,1.28-.68,3.59-5,3.59-5.38,0,0,0-.07-.05-.07a9.19,9.19,0,0,0-.84.74c-.33.3-.53.37-.62.37a.93.93,0,0,1-.6-.5,2,2,0,0,1-.24-1.13c0-.23,0-.6,0-.84A.75.75,0,0,0,36,261.44Z"/><path d="M50,274.28c.95-.41,3.38-1.47,3.38-6.45,0-2.3-.67-5.7-3.06-5.68a4.08,4.08,0,0,1,.51,1.87c0,1.62-1.13,9.25-3.31,9.25-.7,0-.81-.67-.94-1.47a5.7,5.7,0,0,0-.49-1.66,4.14,4.14,0,0,1-.41-1.84c0-3.78,2.48-6.73,4.92-6.73,2.21,0,4.17,2.34,4.17,6.66,0,2.87-1,4.61-2.06,5.27a5.89,5.89,0,0,1-2.71.85Zm-3.34-4.91a3.28,3.28,0,0,0,.16,1.29c.13.36.39.71.6.71.82,0,2.77-5,2.8-9.19C47.05,262.85,46.68,268.12,46.68,269.37Z"/><path d="M59,264.21a5.79,5.79,0,0,1,1.18.87,42.79,42.79,0,0,0,.74-4.77c.32.14,1.47.62,1.64.72a.12.12,0,0,1,.08.11c0,.11,0,.11-.31.16a14.82,14.82,0,0,1-2,3.91A2.71,2.71,0,0,1,61,267c0,1-.58,1.36-.94,1.36s-.31-.16-.33-.41a9.11,9.11,0,0,0-.83-3.73Zm3.36,6.94a7.74,7.74,0,0,0-.49-2.09l0,0a3.26,3.26,0,0,1,1.77,2.64c0,.84-.43,1.43-.9,1.43-.22,0-.25-.13-.26-.29s-.07-1.14-.1-1.36a21.78,21.78,0,0,1-2.84,2.4c-.09-.37-.47-2-.56-2.35l1-.11A50.13,50.13,0,0,0,62,264c1.22.68,1.34.76,1.59.9a.19.19,0,0,1,.1.15.12.12,0,0,1-.12.11.93.93,0,0,1-.22,0,25.75,25.75,0,0,1-3.13,6.28Zm2.26-6.87H63.28l0-.19h1.33v-3.8c.18,0,1.23.21,1.47.26s.18,0,.18.13-.21.19-.34.24v3.17h.91l.31-.72c.08-.2.19-.42.25-.42a5.48,5.48,0,0,1,1.26,1.55c0,.16-.11.29-.44.56a46.29,46.29,0,0,1-.45,7.81c-.12.63-.43,2.21-1.68,2.21-.36,0-.36-.09-.36-.56a1.69,1.69,0,0,0-1.14-1.85,7.17,7.17,0,0,1-2.67,2.49v0a9.32,9.32,0,0,0,2.51-5.76c.13-1,.2-3.23.2-4.28Zm1.31.61c0,3.65-.33,6.08-1.31,7.74a9,9,0,0,0,1.33.12c.4,0,.61,0,.76-1.57s.24-3.8.24-6.77v-.13h-1Z"/><path d="M75.64,267.69a33.92,33.92,0,0,0-.57,4.22,2.74,2.74,0,0,0,.18,1c.17.44.19.48.19.66a.79.79,0,0,1-.73.86c-.8,0-1.92-1.52-1.92-5.49,0-1,0-1.32.3-4.53,0-.27.11-1.32.11-1.95a6.44,6.44,0,0,0-.17-1.57,4.81,4.81,0,0,1,1.51,3.4,4.69,4.69,0,0,1-.16,1.21,13.09,13.09,0,0,0-.57,3.75c0,1.23.18,1.95.38,1.95s.31-.38.34-.46c.18-.48.89-2.55,1.07-3.14Zm2.71-2.79c1.4,0,2.92,1.25,2.92,4.07,0,.24,0,1.95-.86,1.95-.47,0-.71-.49-.72-1.06a8,8,0,0,0-.66-3.77A2.1,2.1,0,0,0,78,264.92Z"/><path d="M88.67,274.06v.61c0,.19,0,.3-.22.32l-.84.09c-.14,0-.21,0-.21-.3v-4.61a6.12,6.12,0,0,1-2.09,1.26v0a19.71,19.71,0,0,0,4.18-6.61c.23.11,1.2.67,1.4.78s.16.08.16.18,0,.15-.33.18l0,.06a5.54,5.54,0,0,0,4.44,2.85v.05a2.19,2.19,0,0,0-.54,1.71c0,.27,0,.43-.22.43a3,3,0,0,1-1.09-.45l-.23.18v3.91c0,.22,0,.3-.21.32l-.82.09c-.16,0-.23,0-.23-.35v-.67ZM93,262.41l.46-.85c.08-.15.1-.2.14-.2A10.31,10.31,0,0,1,95,263.22a.34.34,0,0,1,0,.1c0,.22-.06.24-.57.3a5.94,5.94,0,0,1-1.27.82,2.14,2.14,0,0,1,.9,1.76c0,.85-.46,1.14-.69,1.14s-.25-.12-.4-.42a8,8,0,0,0-2.27-3.25v0a5.25,5.25,0,0,1,2.18.61c.1-.47.22-1.19.27-1.65h-6a8.91,8.91,0,0,1,.07,1c0,1.24-.42,2.07-1,2.07s-.68-.53-.68-1,.07-.41.33-.76a5.54,5.54,0,0,0,1-2.53l0,0c.06.27.13.56.2,1h2.44v-2.09l1.48.23s.12,0,.12.1-.09.16-.27.22v1.54ZM86,267.66a17.42,17.42,0,0,0,2.16-4.53c.43.2,1.18.54,1.56.76a.14.14,0,0,1,.08.12c0,.14-.22.17-.33.17A9.88,9.88,0,0,1,86,267.69Zm5.75,2.12.25-.48a8.56,8.56,0,0,1-1.34-3.2A14.24,14.24,0,0,1,88,269.58c.28.06.48.11.78.2Zm-3,.2v3.9h3.12V270Z"/><path d="M105.71,269.22c.23.12.92.48.92.64s0,.1-.32.1a8.18,8.18,0,0,1-.68,1.78c.85.35,2.07,1,2.07,2.22,0,.8-.44,1.25-.73,1.25-.07,0-.14,0-.28-.19a9,9,0,0,0-1.83-2.08,4.9,4.9,0,0,1-2.53,1.68,11,11,0,0,1-3.29.53v0c.78-.26,3.38-1.09,4.73-3a13.31,13.31,0,0,0-1.57-.7c-.42.82-.58,1-.81.93l-.73-.37c-.12-.06-.2-.1-.2-.21a.61.61,0,0,1,.08-.25c.77-1.43,1-1.86,1.19-2.33H99l0-.17h2.87a13.64,13.64,0,0,0,.53-1.43,5.42,5.42,0,0,1-1,.32v0a6.39,6.39,0,0,0,2.83-5.41h-.37a11.11,11.11,0,0,1-1.94,2.88l0-.05a22.07,22.07,0,0,0,1.15-5.05l1.49.64c.14.05.24.08.24.16s-.36.14-.4.14a10.69,10.69,0,0,1-.44,1.11h2.69l.44-.79c.09-.14.15-.25.22-.25a6.48,6.48,0,0,1,1.31,2c0,.18-.1.19-.25.19h-.39a16.79,16.79,0,0,1-1.56,1.11l0,0a12.27,12.27,0,0,0,.35-2.07h-1.13a3.35,3.35,0,0,0,3.05,3.44V266c-.17.1-.58.31-.72,1.41-.07.46-.1.5-.15.56a6.48,6.48,0,0,1,.87,1.17c0,.08,0,.09-.08.09Zm-3.35-7.42a21.13,21.13,0,0,1-.77,2.57,13.23,13.23,0,0,0-.59,1.83,2.76,2.76,0,0,0,.07.45,3.25,3.25,0,0,1,.12.88c0,.72-.35,1.07-.81,1.07s-.47-.21-.47-.5,0-.65,0-.76a3.62,3.62,0,0,0-.65-2.17v-.06a2.31,2.31,0,0,1,.89.35,38.94,38.94,0,0,0,2.17-3.69Zm-2.79-1.11c.39,0,2,.2,2,1.7,0,.78-.47,1.14-.82,1.14s-.23-.1-.32-.55a7,7,0,0,0-.88-2.24Zm3.65,8.53c-.12.28-.58,1.3-.93,2a12.81,12.81,0,0,1,1.95.15,9.47,9.47,0,0,0,.74-2.17Zm4.07-1.23a3.17,3.17,0,0,1-1.15-1.36,8.19,8.19,0,0,1-.72-3.41,5.09,5.09,0,0,1-2.58,4.18c.3.08,1.19.34,1.19.46s-.25.15-.31.16c-.13.31-.24.6-.42,1h3.44Z"/><path d="M114.73,271.72c.21.31.66.85,1,.85,1.33,0,1.77-4.4,1.77-6,0-.4,0-1.42-.58-1.42-.17,0-.42.17-1,.56a66,66,0,0,1-2.18,8.24c-.19.39-.39.58-.65.58s-.54-.66-.54-1.73c0-.26,0-.29.23-.54a11.78,11.78,0,0,0,.94-2.26c.4-1.2.55-1.83,1-3.43a2.61,2.61,0,0,1-1.18.52c-.41,0-.77-.53-.77-1.16a4,4,0,0,1,.49-1.58c0,.67,0,1,.46,1a4.66,4.66,0,0,0,1.36-.29,28,28,0,0,0,.6-3.28c0-.39-.2-.46-.29-.46a.22.22,0,0,0-.13,0c0-.82.56-.87.78-.87a1.05,1.05,0,0,1,1,1,3.74,3.74,0,0,1-.23.95c-.12.43-.27,1.07-.55,2.26a2.31,2.31,0,0,1,.65-.13c.25,0,1.72.14,1.72,3.39,0,2.16-.79,6.64-2.51,6.64a1,1,0,0,1-1-.91,6.93,6.93,0,0,0-.39-1.89Zm4.9-7.51c1.37,0,2,1.52,2,2.9,0,1.65-.73,1.84-.89,1.84-.49,0-.49-.77-.49-1,0-2.17-.13-3.44-1.42-3.63A3.2,3.2,0,0,1,119.63,264.21Z"/><path d="M126.68,274.86a5.88,5.88,0,0,0,2.87-1.23,4.13,4.13,0,0,0,1.25-3.16c0-1.36-.5-2.4-1.09-2.4-.74,0-1.56,2-2,3.27-.16.43-.33,1-.88,1-.13,0-.89-.08-.84-1.32,0-.09.15-3,.18-4a4.9,4.9,0,0,1,.68-2.77,2.3,2.3,0,0,1,1.86-1.41c.31,0,.49-.11.49-.51s-.34-.95-1-1.83c.17.07,1,.26,1.14.31a1.87,1.87,0,0,1,1.34,2c0,.18,0,1.2-.58,1.2-.22,0-.29-.09-.56-.41a1.24,1.24,0,0,0-1-.51c-.94,0-1.32,1.26-1.32,1.84,0,.16.06.83.06,1a12,12,0,0,1-.22,1.72,10.49,10.49,0,0,0-.11,1.48c0,.23,0,.55.2.55s.24-.13.36-.29c.56-.67,1.5-1.73,2.51-1.73,1.29,0,2.13,1.6,2.13,3.49a3.47,3.47,0,0,1-1.14,3,6.84,6.84,0,0,1-3.58.8,5.94,5.94,0,0,1-.74,0Z"/><path d="M136.65,270.86a3.38,3.38,0,0,1,2.29.85,2.36,2.36,0,0,1,.65,1.66c0,.74-.31,1.25-.76,1.25s-.72-.66-.76-.85a4.7,4.7,0,0,0-1.49-2.79Z"/><path d="M150.24,267.22h2.08l.64-1.4c0-.12.1-.2.13-.2a9,9,0,0,1,1.24,1.67c0,.09-.07.11-.14.11h-3.95v5.52c0,1.09,0,2-1.5,2-.34,0-.5-.07-.5-.47a2.75,2.75,0,0,0-.1-1.08c-.16-.42-.35-.47-1-.85v-.05c.22,0,1.25.08,1.46.08s.29-.05.29-.61V267.4h-4.15l0-.18h4.2v-2.64l1.17.18a19.86,19.86,0,0,0,1.35-3.19h-5.69l-.05-.19h5.71l.46-.69c.07-.11.13-.21.2-.21a7.88,7.88,0,0,1,1.34,2.15c0,.34-.47.37-.91.4a14.88,14.88,0,0,1-2.2,1.76c.07,0,.21,0,.21.15s-.17.15-.26.17Z"/><path d="M160.33,260.58a1.32,1.32,0,0,1,1.19,1.43c0,.14-.08,1-.11,1.21,0,.45-.1,1.25-.1,2s0,1.43.53,1.43c.66,0,1.28-1.06,1.45-1.7.08-.32.11-.46.34-.46.49,0,1.11.94,1.11,1.5s-.13.72-1.47,1.28a8.69,8.69,0,0,0-2.57,1.27,3.57,3.57,0,0,0-1.27,2.61,1.45,1.45,0,0,0,1.68,1.52,4.87,4.87,0,0,0,1.94-.42,5.63,5.63,0,0,1,.59-.24,1.77,1.77,0,0,1,1.19,1.34c0,.64-.36.77-.48.82a6.74,6.74,0,0,1-2.37.26c-1.8,0-2.25-.28-2.6-.6a2.7,2.7,0,0,1-.78-2,5.29,5.29,0,0,1,2.14-4.11c-.31-.19-.57-.34-.57-1.71,0-.33,0-1.78,0-2.07,0-1.39,0-2.53-.58-2.53a.64.64,0,0,0-.34.16A1.11,1.11,0,0,1,160.33,260.58Zm5.24,3.22c0,.35-.1.8-.4.8s-.28-.08-.52-.83a3.23,3.23,0,0,0-.91-1.54A1.55,1.55,0,0,1,165.57,263.8Zm-.37-3.11a1.35,1.35,0,0,1,1.5,1.33c0,.32-.11.72-.41.72s-.23-.08-.58-.78a2.79,2.79,0,0,0-1.06-1.2A2.55,2.55,0,0,1,165.2,260.69Z"/><path d="M175.8,270c.34,1.29.49,1.81.87,2.08s.58.4.58.81a2,2,0,0,1-.49,1.2,3.4,3.4,0,0,1-2.39.76c-1,0-2.42-.2-2.42-3.43,0,0,0-.56,0-1.63-.55-.1-1.82-.39-1.82-1.62a3.74,3.74,0,0,1,1.12-2.09,2.33,2.33,0,0,0-.38,1.15c0,.7.66.81,1.16.89,0-.22.14-2.41.15-2.49a1.74,1.74,0,0,1-1.64-1,2.71,2.71,0,0,1-.34-1.44c.15.33.4,1,1.64,1a2.18,2.18,0,0,0,.41,0c0-.76,0-.86,0-1.18,0-1.38-.21-1.44-.52-1.44a.8.8,0,0,0-.22,0c.18-.64.43-.88.82-.88.58,0,1.06.59,1.06,1.46,0,.3-.11,1.45-.15,1.84a2.46,2.46,0,0,0,.86-.4c.61.33.91.51.91,1.09s-.3,1-1.92,1.05c-.06.52-.21,2.13-.24,2.52a2.84,2.84,0,0,0,1.8-.61,1.41,1.41,0,0,0,.69.14c.14,0,.67,0,.67.85s-.43.88-.88,1a8.71,8.71,0,0,1-2.39.28c0,.94,0,1.42,0,1.52,0,1.07.18,1.65,1,1.65.06,0,1.57,0,1.95-.58a2.2,2.2,0,0,0,.14-.9c0-.24,0-.73-.09-1.5Z"/><path d="M183.84,267.69c-.07.3-.34,1.65-.37,1.85a12.71,12.71,0,0,0-.21,2,4.62,4.62,0,0,0,.15,1.29,3.57,3.57,0,0,1,.17.9c0,.34-.29.82-.57.82-.66,0-1.17-1.91-1.17-4.58a53.44,53.44,0,0,1,.5-6.08,16.41,16.41,0,0,0,.09-1.73,4.4,4.4,0,0,0-.23-1.51,5.7,5.7,0,0,1,1.27,3.43,20.22,20.22,0,0,1-.5,3.36,12.48,12.48,0,0,0-.24,2.4c0,.43,0,.56.09.56s.2-.42.27-.61c.2-.61.51-1.57.71-2.17Zm1.81,2.78c0,1.54.84,1.54,1.14,1.54a6.11,6.11,0,0,0,1.84-.4,2.09,2.09,0,0,1,.75-.19c.28,0,.66.16.66.88a1.38,1.38,0,0,1-.51,1.17,3.46,3.46,0,0,1-2,.57,1.8,1.8,0,0,1-1.78-.91,3.43,3.43,0,0,1-.48-1.74,4.13,4.13,0,0,1,.44-1.8A5,5,0,0,0,185.65,270.47Zm1.07-7.82a2.59,2.59,0,0,0,1-.32c.82-.48.85-.5,1-.5a1,1,0,0,1,.83,1c0,1.17-1.64,1.31-2,1.31s-1.16,0-1.54-2.05C186.17,262.42,186.38,262.65,186.72,262.65Z"/><path d="M197.21,261.51l.33-.72c.16-.35.18-.39.25-.39a4.67,4.67,0,0,1,1.2,1.41c0,.2-.28.34-.47.45v4.13c0,.27,0,.35-.2.37l-.81.08c-.21,0-.21,0-.21-.64H196v8.43c0,.29,0,.39-.17.4l-.89.1c-.19,0-.2-.11-.2-.34V261.11c.48.13,1,.25,1.46.4Zm-1.23.18v2h1.32v-2Zm0,2.22V266h1.32v-2.1Zm4.56,2.27c0,.47,0,.56-.22.58l-.81.08c-.19,0-.2-.13-.2-.37v-5.38c.32.1,1,.29,1.4.42h1.08l.37-.77c.08-.14.17-.32.23-.32s1.23,1.17,1.23,1.49c0,.14-.07.24-.43.45v11.51c0,.51,0,1.26-1.13,1.26-.36,0-.36-.14-.36-.27,0-1.17,0-1.39-.86-1.91v.42c0,.21,0,.35-.13.37l-.85.09c-.21,0-.21-.16-.21-.35v-.7h-1.48v.75c0,.26,0,.4-.19.42l-.75.08c-.25,0-.25-.07-.25-.39v-6.1c.21.08,1.15.37,1.33.42h1.25l.25-.54c.1-.2.16-.32.25-.32a4.26,4.26,0,0,1,1.16,1.37c0,.18-.12.24-.38.37v4l.9.08c.18,0,.18-.08.18-.51v-6.2Zm-2.37,2v2.07h1.48v-2.07Zm0,2.26v2.19h1.48v-2.19Zm3.75-6.68v-2h-1.38v2Zm0,2.26v-2.08h-1.38V266Z"/><path d="M207.66,267.26l0-.2h1.25l.29-.67c.09-.22.14-.35.21-.35a7,7,0,0,1,1.31,1.57c0,.19-.37.33-.42.35v3.39c0,1.52.65,1.64,2.75,1.64a28.69,28.69,0,0,0,4.45-.42v.06a2.07,2.07,0,0,0-.42,1.3c0,.61,0,.66-.16.74a18.45,18.45,0,0,1-2.87.14c-2.07,0-2.77-.37-3.32-1a2.85,2.85,0,0,1-.69-1.59,20.59,20.59,0,0,1-1.7,2.91c-.23-.72-.48-1.72-.62-2.4l1.3-.51v-4.94Zm.27-6.41c1.11.21,2.3,1,2.3,2.21,0,.9-.6,1.3-.88,1.3s-.25-.16-.33-.5a9.64,9.64,0,0,0-1.12-3Zm6.57,1.06.34-.62c.11-.2.21-.4.26-.4a10,10,0,0,1,.8.91c.25.3.28.33.28.45s0,.19-.38.43l-.07,1.17H216l.42-.93c0-.08.08-.18.11-.18a4.56,4.56,0,0,1,.68,1.17c0,.11-.07.11-.11.11h-6.91l-.05-.17H212l.16-1.75h-1.31l-.05-.19h1.38l.14-1.59a8.73,8.73,0,0,1,1.61.42c0,.11-.18.18-.33.24l-.08.93Zm-1.92,5.36c0,.24,0,.29-.2.31l-.81.09c-.26,0-.27-.05-.27-.41v-2.73a9.92,9.92,0,0,1,1.41.47h2l.27-.53c.06-.13.15-.35.21-.35s1.1,1,1.1,1.25-.07.2-.27.35v1.54a.5.5,0,0,1,0,.16,4.88,4.88,0,0,1,.81,1.13c0,.11-.07.11-.14.11h-2.07v1.94h.89l.53-1.14c0-.08.08-.19.12-.19a7.06,7.06,0,0,1,1,1.41c0,.11-.08.11-.13.11h-2.45v1.46c0,.22,0,.37-.16.38l-.87.08c-.14,0-.22,0-.22-.22v-1.7h-2.84l0-.19h.71v-2.67c.18.09,1.09.45,1.29.54h.89v-1.2Zm-.17,1.39v1.94h1v-1.94Zm2.41-1.58v-1.91h-2.24v1.91Zm-1.32-5-.16,1.75h1.15l.07-1.75Zm1.13,5.17v1.2h.83l.41-.88a.39.39,0,0,0,0-.09h-.09l-.83.08c-.17,0-.17-.09-.17-.32Z"/><path d="M224.75,266.65a3.84,3.84,0,0,1,2.53-1.28c2.25,0,2.72,2.69,2.72,4.3,0,2.93-1.22,3.6-2.17,4a10,10,0,0,1-2.29.52v-.06a4.52,4.52,0,0,0,3.15-4.64c0-2-.68-3.62-1.83-3.62a2.68,2.68,0,0,0-2.11,1.52c-.07,1.54-.1,2.85-.1,3.51a13.51,13.51,0,0,0,.13,2.13,8.63,8.63,0,0,1,.18,1.28.71.71,0,0,1-.65.8c-.34,0-.64-.31-.64-.87,0-.21,0-1.1,0-1.28a10.88,10.88,0,0,0-.4-2.69c-.09.31-.55,1.64-.61,1.92s-.09.74-.12.85c-.12.43-.41.53-.51.53-.53,0-.66-1.1-.66-1.55s0-.39.36-1c.22-.37.88-1.81,1.07-2.27-.2-.48-.42-.93-.65-1.38a2.28,2.28,0,0,1-.36-1.21,2,2,0,0,1,.52-1.48,4.83,4.83,0,0,1,1.72-1.23c0-.27,0-1.47,0-1.71s0-.7-.55-.83c.13-.35.33-.55.64-.55.48,0,1,.71,1,1.35,0,.24-.16,1.34-.18,1.57.23.12.34.17.47.62a3.62,3.62,0,0,1,.11.78c0,.25,0,.29-.33.77a9.35,9.35,0,0,0-.54.9Zm-.79-1.33a2,2,0,0,0-1.44,1.78,3.36,3.36,0,0,0,.42,1.47c.18-.42.68-1.49,1-2.23ZM223.4,270c.06.26.21.91.35.91s.11-.11.11-.25,0-1.57,0-1.76Z"/><path d="M243.72,270.36c-.51,2.42-1.07,3.06-2.07,3.06s-1.52-.64-1.52-2c0-.83.29-4.43.29-5.18,0-.93-.14-1.48-.6-1.48s-1.36.77-2.52,2.69c0,1.89,0,3.88.19,5.75,0,.17.1.93.1,1.09,0,.52-.32.72-.49.72s-.79-.44-.79-1.25c0-.19.05-1,.05-1.15a13.93,13.93,0,0,0-.18-2.13c-.21.75-.5,1.74-.64,2.24s-.25.67-.46.67c-.63,0-.63-.9-.63-1.2a1.48,1.48,0,0,1,.32-1,18.15,18.15,0,0,0,1-2.31c-.06-.27-.4-1.42-.47-1.66a3.82,3.82,0,0,1-.13-1c0-.72,0-1.38,1.52-2.5,0-1.41,0-2.7-.67-2.64.38-.4.54-.58.81-.58s.94.23.94,1.56a10.07,10.07,0,0,1-.15,1.5,1,1,0,0,1,.53.93c0,.18,0,.22-.25.75-.3.69-.35.87-.59,1.52a2.12,2.12,0,0,1,0,.31c0-.05,1.77-3.22,3-3.22.66,0,1.37.91,1.37,2.29a21.25,21.25,0,0,1-.21,2.56,18.83,18.83,0,0,0-.17,2.14c0,.53,0,1.08.74,1.08,1,0,1.5-1.14,1.63-1.47Zm-7-5a2.43,2.43,0,0,0-.74.61,1.19,1.19,0,0,0-.36.94,8.94,8.94,0,0,0,.25,1.71,10.74,10.74,0,0,0,.85-2.62Zm-.45,4.85c0,.14.12.53.14.65s.06.34.11.34.12-.35.13-.48,0-1.6,0-1.89Z"/><path d="M252,266.71c2.09,0,2.63,2.45,2.63,3.94,0,2.69-1.33,4-3.1,4a2,2,0,0,1-2.11-2.06c0-.87.44-1.78,1.31-1.78.7,0,1.15.59,1.15,1.44a1.39,1.39,0,0,1-.13.67c.47-.11,1.64-.4,1.64-3,0-.9-.16-2.67-1.59-2.67-.88,0-1.63.7-2.43,2.94a11.77,11.77,0,0,0-.49,1.88c-.06.24-.15.64-.54.64-.61,0-.69-1-.69-1.57s.07-.74.69-1.75c.15-.27,2.51-4.43,3.51-6.48a.8.8,0,0,0,.1-.35c0-.07,0-.13-.08-.13a3,3,0,0,0-.64.67c-.49.64-.66.75-1,.75-.72,0-1.08-1.12-1.15-1.69a1,1,0,0,0,.56.27c.45,0,1.43-.86,1.92-1.28s.52-.45.69-.45,1.22.24,1.22,1.6c0,.48-.12.59-.48,1A18.8,18.8,0,0,0,250.9,267,2.18,2.18,0,0,1,252,266.71Zm-1,5.65c0-.25-.13-.59-.44-.59s-.35.34-.35.48a.42.42,0,1,0,.79.11Z"/><path d="M259.45,269.29c0,2.45,1.12,2.59,2.83,2.59a4.36,4.36,0,0,0,2.05-.37,1.22,1.22,0,0,1,.46-.14c.2,0,1,.4,1,1.06,0,1-.65,1.53-2.92,1.53-1.55,0-3.64-.11-3.64-3.28a12.61,12.61,0,0,1,.25-2.08C259.46,268.94,259.45,269.06,259.45,269.29Zm1.48-4.39a12,12,0,0,1,1.27-1.36c-.24,0-.36,0-.56,0-1.21,0-1.47-.83-1.68-2.51a1.16,1.16,0,0,0,1.14.85,8.1,8.1,0,0,0,2.09-.5,2.31,2.31,0,0,1,.83-.2c.82,0,.94.89.94,1.26,0,.82-.42.86-1.3,1a5.66,5.66,0,0,0-2.73,1.49Z"/><path d="M272,260.53a1.34,1.34,0,0,1,1.18,1.44c0,.13-.08,1-.1,1.22,0,.43-.1,1.25-.1,2s0,1.43.53,1.43,1.28-1.06,1.44-1.72c.09-.3.12-.46.35-.46.49,0,1.11,1,1.11,1.5s-.14.74-1.48,1.3a8.89,8.89,0,0,0-2.57,1.25,3.6,3.6,0,0,0-1.27,2.61,1.46,1.46,0,0,0,1.69,1.53,5.22,5.22,0,0,0,1.93-.41,5.77,5.77,0,0,1,.6-.24,1.74,1.74,0,0,1,1.18,1.34c0,.63-.35.77-.48.82a6.79,6.79,0,0,1-2.37.24c-1.8,0-2.25-.26-2.6-.58a2.73,2.73,0,0,1-.77-2.05,5.29,5.29,0,0,1,2.13-4.09c-.31-.2-.57-.36-.57-1.72,0-.33,0-1.77,0-2.08,0-1.37,0-2.51-.57-2.51a.59.59,0,0,0-.34.14A1.13,1.13,0,0,1,272,260.53Z"/><path d="M286.69,270c.35,1.29.49,1.81.88,2.08s.57.4.57.81a2,2,0,0,1-.49,1.2,3.38,3.38,0,0,1-2.38.76c-1,0-2.43-.2-2.43-3.43,0,0,0-.56.05-1.63-.56-.1-1.83-.39-1.83-1.62a3.68,3.68,0,0,1,1.13-2.09,2.36,2.36,0,0,0-.39,1.15c0,.7.67.81,1.17.89,0-.22.13-2.41.14-2.49a1.75,1.75,0,0,1-1.64-1,2.78,2.78,0,0,1-.33-1.44c.14.33.39,1,1.63,1a2.3,2.3,0,0,0,.42,0c0-.76,0-.86,0-1.18,0-1.38-.22-1.44-.52-1.44a.9.9,0,0,0-.23,0c.19-.64.44-.88.82-.88.58,0,1.06.59,1.06,1.46,0,.3-.1,1.45-.14,1.84a2.49,2.49,0,0,0,.85-.4c.61.33.92.51.92,1.09s-.31,1-1.93,1.05c-.05.52-.21,2.13-.24,2.52a2.82,2.82,0,0,0,1.8-.61,1.46,1.46,0,0,0,.7.14c.14,0,.67,0,.67.85s-.43.88-.89,1a8.64,8.64,0,0,1-2.38.28c0,.94,0,1.42,0,1.52,0,1.07.17,1.65,1,1.65.06,0,1.57,0,1.94-.58a2.06,2.06,0,0,0,.15-.9c0-.24,0-.73-.1-1.5Z"/><path d="M299.81,267.85c.13-.23.2-.34.25-.34a4.68,4.68,0,0,1,.74.95c.54.8.6.89.6,1.07s-.08.27-.75.33a9.23,9.23,0,0,1-3.94,4.46,9.88,9.88,0,0,1-4.62.91v-.05a12.54,12.54,0,0,0,4.38-2.27l-.12,0c-.13,0-.17-.08-.26-.58a5.55,5.55,0,0,0-.66-1.92,7,7,0,0,1-3.12,1.52v0a12.56,12.56,0,0,0,4.16-5.07,8.56,8.56,0,0,1-4.38,1.26V268a14.46,14.46,0,0,0,4-2.42.89.89,0,0,1-.29.08c-.12,0-.19-.08-.29-.51a6.83,6.83,0,0,0-.63-1.71,8.27,8.27,0,0,1-2.59,2l0,0a14.07,14.07,0,0,0,2.93-5.32,14,14,0,0,1,1.53.58c.07,0,.16.08.16.16s-.29.18-.36.18a7.77,7.77,0,0,1-.46.83h2.57l.47-.64c.18-.24.2-.27.27-.27a4.61,4.61,0,0,1,1.35,1.71c0,.17-.17.27-.27.3s-.41.15-.58.18a10.36,10.36,0,0,1-2.93,3.36l1.21.69c.13.06.18.09.18.21s0,.09-.4.16c-.29.44-.46.68-.7,1h2.17Zm-3.87-5.78a9.53,9.53,0,0,1-.76,1,1.43,1.43,0,0,1,1.47,1.47,1.32,1.32,0,0,1-.12.58,14.25,14.25,0,0,0,2.11-3.09Zm1.13,6.69a11,11,0,0,1-1.19,1.3,1.59,1.59,0,0,1,1.41,1.58,1.22,1.22,0,0,1-.19.74,9.4,9.4,0,0,0,2.38-3.62Z"/><path d="M308.79,267.69a35.88,35.88,0,0,0-.56,4.22,2.74,2.74,0,0,0,.18,1,1.65,1.65,0,0,1,.18.66.79.79,0,0,1-.72.86c-.81,0-1.92-1.52-1.92-5.49,0-1,0-1.32.29-4.53,0-.27.12-1.32.12-1.95a7,7,0,0,0-.17-1.57,4.81,4.81,0,0,1,1.51,3.4,4.33,4.33,0,0,1-.17,1.21,13.43,13.43,0,0,0-.56,3.75c0,1.23.18,1.95.38,1.95s.31-.38.34-.46c.18-.48.88-2.55,1.07-3.14Zm2.72-2.79c1.39,0,2.91,1.25,2.91,4.07,0,.24,0,1.95-.85,1.95-.47,0-.71-.49-.72-1.06a7.88,7.88,0,0,0-.67-3.77,2.07,2.07,0,0,0-1.08-1.17Z"/><path d="M322.07,272.19c0,1.32-.69,2.43-1.58,2.43s-1.58-1.11-1.58-2.43.72-2.44,1.58-2.44S322.07,270.82,322.07,272.19Zm-2.74,0c0,1,.52,1.79,1.16,1.79s1.17-.82,1.17-1.79-.52-1.8-1.17-1.8S319.33,271.18,319.33,272.19Z"/><line class="cls-2" x1="18.76" y1="22.54" x2="18.76" y2="322.92"/><path d="M18.76,14.41a4.07,4.07,0,1,1-4.07,4.06A4.07,4.07,0,0,1,18.76,14.41Z"/><path class="cls-2" d="M18.76,12.53a5.94,5.94,0,1,1-5.94,5.94A5.94,5.94,0,0,1,18.76,12.53Z"/><polygon class="cls-2" points="18.76 6.23 24.07 15.43 29.38 24.59 18.76 24.59 8.14 24.59 13.45 15.43 18.76 6.23"/><path d="M10.05,77.42c0,1.69,0,2.11.22,2.11a.62.62,0,0,0,.42-.15,1,1,0,0,1,0,.78A4.53,4.53,0,0,0,9,80.81c-.07,0-.15-.11-.17-.26l0-.55c0-.15-.05-.2-.09-.15-.34.4-.69.78-1.05.78-1.11,0-1.86-1.61-1.86-3.55,0-2.54,1-4.16,2.32-4.16a1.53,1.53,0,0,1,.55.09.46.46,0,0,0,.1-.34V70.36c0-.72,0-.92-.19-1.13l-.17-.18a.68.68,0,0,1,0-.54,7.27,7.27,0,0,0,1.49-1,.19.19,0,0,1,.17.13c0,.73,0,1.49,0,2.62ZM8.78,75a2.29,2.29,0,0,0-.07-.62c-.12-.37-.33-.66-.55-.66-.5,0-1,1-1,2.84,0,1.19.29,2.83,1.09,2.83a.52.52,0,0,0,.4-.22,1.1,1.1,0,0,0,.12-.68Z"/><path d="M7.26,251.61c-.22,0-.24,0-.24.32,0,1.35.46,2.67,1.37,2.67.27,0,.64-.11.91-.94.1,0,.25.11.25.41-.4,1.53-1.12,2.06-1.71,2.06-1.31,0-2-1.71-2-3.68,0-2.27.88-4,2.1-4,1,0,1.56,1.21,1.56,2.59,0,.34-.05.6-.35.6Zm.64-.8a.48.48,0,0,0,.4-.16.79.79,0,0,0,.07-.41c0-.6-.18-1-.52-1s-.76.72-.76,1.29c0,.26.14.27.45.27Z"/><line class="cls-3" x1="21.82" y1="45.78" x2="15.29" y2="45.78"/><line class="cls-3" x1="21.82" y1="77.01" x2="15.29" y2="77.01"/><line class="cls-3" x1="21.82" y1="112.19" x2="15.29" y2="112.19"/><line class="cls-3" x1="21.82" y1="147.37" x2="15.29" y2="147.37"/><line class="cls-3" x1="21.82" y1="182.56" x2="15.29" y2="182.56"/><line class="cls-3" x1="21.82" y1="217.74" x2="15.29" y2="217.74"/><line class="cls-3" x1="21.82" y1="252.92" x2="15.29" y2="252.92"/><line class="cls-3" x1="21.82" y1="252.92" x2="15.29" y2="252.92"/><line class="cls-3" x1="21.82" y1="252.92" x2="15.29" y2="252.92"/><line class="cls-3" x1="21.8" y1="287.73" x2="15.27" y2="287.73"/><line class="cls-3" x1="21.8" y1="322.91" x2="15.27" y2="322.91"/><line class="cls-4" x1="96.08" y1="322.92" x2="33.44" y2="322.92"/><line class="cls-4" x1="104.36" y1="42.88" x2="34.58" y2="42.88"/><circle cx="9.51" cy="45.78" r="1.68"/><path d="M36.76,310.59l-.26,1.76h.57l-.07.77h-.61l-.33,2.18h-.39l.31-2.18h-.63L35,315.3h-.38l.31-2.18h-.64l.07-.77h.68l.25-1.76h-.64l.08-.78h.67l.28-2h.42l-.29,2h.62l.28-2h.42l-.28,2h.58l-.06.78Zm-1,0-.26,1.76h.64l.25-1.76Z"/><path d="M42.72,311.58c0,1.93-.44,3.92-1.5,3.92s-1.5-2-1.5-3.92.45-3.92,1.5-3.92S42.72,309.72,42.72,311.58ZM41.22,315c.5,0,.56-2.3.56-3.37s-.06-3.37-.56-3.37-.55,2.3-.55,3.37S40.73,315,41.22,315Z"/><path d="M46.71,312.23a1.18,1.18,0,0,1,.09.5,1.36,1.36,0,0,1-.08.47l-1.56.26a.93.93,0,0,1-.1-.48,1.06,1.06,0,0,1,.1-.49Z"/><path d="M50.38,311.19c-.08,0-.09,0-.09.27v1.8c0,.67,0,1.42.46,1.42.09,0,.19-.09.27-.18s.1.16.09.31a1.14,1.14,0,0,1-.94.69c-.54,0-.72-.57-.72-1.36v-2.68c0-.25,0-.27-.13-.27h-.2a.42.42,0,0,1,0-.38,2.51,2.51,0,0,0,.54-.54,3.31,3.31,0,0,0,.48-.93.13.13,0,0,1,.2.06v.9c0,.23,0,.24.12.24H51a.44.44,0,0,1,0,.23.9.9,0,0,1-.08.42Z"/><path d="M55.41,313.69c0,.82.16,1,.29,1s.14,0,.25-.14.09.17.07.28-.38.64-.75.64-.37-.14-.55-.42c0-.07-.07-.09-.1-.09s-.07.05-.14.13a.76.76,0,0,1-.55.38c-.38,0-.73-.42-.73-1.26a1.24,1.24,0,0,1,.68-1.24c.25-.15.43-.24.61-.34a.26.26,0,0,0,.16-.24c0-.13,0-.26,0-.41,0-.45-.1-1-.38-1s-.29.17-.34.69a.66.66,0,0,1-.11.38.8.8,0,0,1-.46.27c-.12,0-.15-.13-.15-.3a1.81,1.81,0,0,1,.31-.92,1.51,1.51,0,0,1,1.09-.73c.55,0,.86.5.83,1.74Zm-.78-.31c0-.19,0-.23-.05-.22-.29.08-.54.28-.54.84,0,.39.14.72.33.72s.24-.21.24-.58Z"/><path d="M58.32,308.67c0-.48,0-.61-.13-.76l-.11-.12a.45.45,0,0,1,0-.36,6.18,6.18,0,0,0,1-.67.11.11,0,0,1,.11.08c0,.5,0,1,0,1.76v3.76c0,.13,0,.17.09.17s.25-.06.38-.34l.27-.58a1.32,1.32,0,0,0,.16-.48.14.14,0,0,0-.12-.12l-.17-.05c-.05-.11-.05-.37,0-.42h.15a5.18,5.18,0,0,0,1.23-.17.54.54,0,0,1,0,.42l-.21.08a1.16,1.16,0,0,0-.44.42,6.4,6.4,0,0,0-.43.7.41.41,0,0,0,0,.16.6.6,0,0,0,.05.2,21.85,21.85,0,0,0,.85,2.29.6.6,0,0,0,.38.28l.1,0c0,.09,0,.37,0,.42s-.44,0-.82,0a7.64,7.64,0,0,0-.8,0,.54.54,0,0,1,0-.42l.08,0c.07,0,.11-.05.11-.1a2.19,2.19,0,0,0-.11-.38l-.47-1.3c0-.13-.09-.18-.16-.18s-.08.06-.08.29v.69c0,.84,0,.94.26,1l.1,0a.56.56,0,0,1,0,.42c-.2,0-.48,0-.78,0s-.56,0-.79,0a.56.56,0,0,1,0-.42l.13,0c.23-.05.26-.15.26-1Z"/><path d="M64.4,312.49c-.15,0-.16,0-.16.22,0,.9.31,1.77.92,1.77.18,0,.43-.07.6-.62.07,0,.17.07.17.28-.27,1-.75,1.36-1.14,1.36-.88,0-1.35-1.14-1.35-2.44,0-1.51.59-2.69,1.4-2.69s1,.8,1,1.73c0,.22,0,.39-.23.39Zm.43-.52a.36.36,0,0,0,.27-.11.63.63,0,0,0,0-.28c0-.39-.12-.66-.34-.66s-.51.48-.51.87c0,.16.09.18.3.18Z"/><path d="M74.61,311.58c0,1.93-.44,3.92-1.5,3.92s-1.5-2-1.5-3.92.45-3.92,1.5-3.92S74.61,309.72,74.61,311.58ZM73.11,315c.5,0,.55-2.3.55-3.37s0-3.37-.55-3.37-.55,2.3-.55,3.37S72.62,315,73.11,315Z"/><path d="M79.94,311.58c0,1.93-.44,3.92-1.5,3.92s-1.5-2-1.5-3.92.45-3.92,1.5-3.92S79.94,309.72,79.94,311.58ZM78.44,315c.5,0,.55-2.3.55-3.37s0-3.37-.55-3.37-.55,2.3-.55,3.37S78,315,78.44,315Z"/><path d="M85.25,310.74a7.27,7.27,0,0,1-.89,3.65,3.33,3.33,0,0,1-2,1.67.41.41,0,0,1,0-.4c1.27-.58,1.92-2.59,1.92-4.8,0-.91-.14-2.65-.68-2.65-.31,0-.49.69-.49,1.4,0,1,.22,2,.66,2.16a.45.45,0,0,0,.18,0s0,.15,0,.25a.74.74,0,0,1-.64.37c-.61,0-1.11-.92-1.11-2.13,0-1.54.64-2.63,1.45-2.63C84.7,307.66,85.25,309.07,85.25,310.74Z"/><path d="M37.36,33a1,1,0,0,1,.14.62c0,.36-.09.68-.17.68s-.09,0-.1-.06c-.19-.48-.44-.89-.67-.89-.43,0-.65.88-.65,1.71s.33,1.91.93,1.91c.24,0,.43-.15.57-.59.08,0,.17.07.17.26-.14.6-.53,1.29-1.15,1.29-.82,0-1.38-1-1.38-2.43,0-1.7.75-2.71,1.63-2.71A1.33,1.33,0,0,1,37.36,33Z"/><path d="M40,31.12c0-.48,0-.61-.13-.76l-.11-.12a.43.43,0,0,1,0-.35,5.69,5.69,0,0,0,1-.68.12.12,0,0,1,.11.09c0,.49,0,1,0,1.75v2.21c0,.1,0,.14.05.14a.35.35,0,0,0,.1-.1,1.09,1.09,0,0,1,.75-.48c.54,0,.82.69.82,1.51V36.4c0,.84,0,.93.26,1l.1,0a.61.61,0,0,1,0,.42c-.21,0-.48,0-.79,0a6.16,6.16,0,0,0-.7,0,.55.55,0,0,1,0-.42l.12,0c.15,0,.17-.13.17-.79V34.5c0-.42-.13-.8-.45-.8a.45.45,0,0,0-.37.29,1.13,1.13,0,0,0-.05.44v2.15c0,.66,0,.74.18.79l.11,0a.51.51,0,0,1,0,.42,7,7,0,0,0-.72,0c-.27,0-.54,0-.76,0a.55.55,0,0,1,0-.42l.12,0c.21-.05.24-.14.24-1Z"/><path d="M47.42,36.15c0,.81.17,1,.3,1s.14,0,.24-.15a.3.3,0,0,1,.08.28c-.08.19-.38.65-.75.65s-.37-.15-.55-.42c0-.08-.07-.1-.1-.1s-.07.05-.14.13S46.19,38,46,38s-.73-.42-.73-1.26a1.25,1.25,0,0,1,.68-1.25l.61-.34a.25.25,0,0,0,.15-.24c0-.13,0-.26,0-.4,0-.46-.1-1-.38-1s-.29.16-.34.68a.66.66,0,0,1-.11.38.84.84,0,0,1-.47.28c-.11,0-.15-.13-.15-.3a1.87,1.87,0,0,1,.31-.92,1.53,1.53,0,0,1,1.1-.74c.54,0,.86.51.83,1.74Zm-.78-.32c0-.19,0-.22,0-.21-.29.07-.55.27-.55.84,0,.38.15.72.33.72s.24-.22.25-.59Z"/><path d="M50.39,34.61c0-.48,0-.62-.13-.77l-.09-.11a.53.53,0,0,1,0-.35,3.84,3.84,0,0,0,.95-.72c.05,0,.09,0,.12.1,0,.24,0,.41,0,.52s0,.12.07.14c.17-.2.36-.6.64-.6s.35.25.35.71-.21.78-.41.78-.17-.07-.26-.22-.2-.23-.24-.23-.13.26-.13.71v1.85c0,.84,0,.94.24,1l.21,0a.56.56,0,0,1,0,.42,8.57,8.57,0,0,0-.87,0,6,6,0,0,0-.77,0,.56.56,0,0,1,0-.42l.13,0c.21,0,.24-.14.24-1Z"/><path d="M56.61,36.15c0,.81.17,1,.3,1s.14,0,.24-.15a.3.3,0,0,1,.08.28c-.08.19-.38.65-.75.65s-.37-.15-.55-.42c0-.08-.07-.1-.1-.1s-.07.05-.14.13-.31.39-.55.39-.73-.42-.73-1.26a1.25,1.25,0,0,1,.68-1.25l.61-.34a.25.25,0,0,0,.15-.24c0-.13,0-.26,0-.4,0-.46-.1-1-.38-1s-.29.16-.34.68a.66.66,0,0,1-.11.38.84.84,0,0,1-.47.28c-.11,0-.15-.13-.15-.3a1.78,1.78,0,0,1,.32-.92,1.5,1.5,0,0,1,1.09-.74c.54,0,.86.51.83,1.74Zm-.78-.32c0-.19,0-.22,0-.21-.29.07-.55.27-.55.84,0,.38.15.72.33.72s.24-.22.25-.59Z"/><path d="M61.54,33a1,1,0,0,1,.14.62c0,.36-.09.68-.17.68a.14.14,0,0,1-.11-.06c-.18-.48-.43-.89-.66-.89-.43,0-.65.88-.65,1.71S60.42,37,61,37c.25,0,.44-.15.58-.59.08,0,.17.07.17.26-.14.6-.53,1.29-1.15,1.29-.82,0-1.38-1-1.38-2.43,0-1.7.75-2.71,1.63-2.71A1.33,1.33,0,0,1,61.54,33Z"/><path d="M65.12,33.64c-.08,0-.09,0-.09.27v1.8c0,.68,0,1.42.46,1.42a.41.41,0,0,0,.27-.18c.06,0,.1.17.09.31a1.15,1.15,0,0,1-.94.7c-.53,0-.72-.58-.72-1.37V33.91c0-.25,0-.27-.13-.27h-.2a.4.4,0,0,1,0-.37,2.51,2.51,0,0,0,.54-.54,3.59,3.59,0,0,0,.48-.94.13.13,0,0,1,.2.06v.9c0,.23,0,.24.12.24h.58a.44.44,0,0,1,.05.23.88.88,0,0,1-.08.42Z"/><path d="M68.91,35c-.15,0-.17,0-.17.21,0,.9.31,1.78.92,1.78.18,0,.43-.08.6-.63.08,0,.17.08.17.28-.26,1-.74,1.37-1.13,1.37-.88,0-1.36-1.14-1.36-2.45,0-1.51.6-2.69,1.41-2.69s1,.81,1,1.73c0,.23,0,.4-.24.4Zm.43-.53a.34.34,0,0,0,.26-.11.6.6,0,0,0,.05-.28c0-.39-.13-.65-.35-.65s-.51.48-.51.86c0,.17.1.18.3.18Z"/><path d="M73,34.61c0-.48,0-.62-.12-.77l-.09-.11a.43.43,0,0,1,0-.35,4,4,0,0,0,1-.72s.09,0,.11.1c0,.24,0,.41,0,.52s0,.12.06.14c.18-.2.37-.6.64-.6s.36.25.36.71-.21.78-.42.78-.17-.07-.25-.22-.21-.23-.25-.23-.12.26-.12.71v1.85c0,.84,0,.94.24,1l.2,0a.51.51,0,0,1,0,.42,8.64,8.64,0,0,0-.88,0,6.08,6.08,0,0,0-.77,0,.51.51,0,0,1,0-.42l.12,0c.22,0,.24-.14.24-1Z"/><path d="M80.25,33.38c0-.09-.06-.38,0-.42.24,0,.47,0,.81,0l.72,0a.61.61,0,0,1,0,.42l-.1,0c-.08,0-.11,0-.11.12a4.08,4.08,0,0,0,.06.42c.13.66.27,1.29.41,1.86.14-.6.3-1.23.44-2a1.37,1.37,0,0,0,0-.3c0-.07,0-.1-.16-.15l-.09,0a.48.48,0,0,1,0-.42,5,5,0,0,0,.53,0c.21,0,.36,0,.5,0a.51.51,0,0,1,0,.42l-.11,0c-.19.06-.24.2-.37.66-.34,1.24-.63,2.52-.93,3.8a.19.19,0,0,1-.15.09.22.22,0,0,1-.16-.09c-.34-1.51-.47-2.08-.88-3.68-.16-.59-.2-.68-.36-.75Z"/><path d="M85.41,35.49c0-1.72.73-2.67,1.49-2.67s1.46.87,1.46,2.56S87.66,38,86.87,38,85.42,37.14,85.41,35.49Zm.93-.27c0,1.26.22,2.18.6,2.18s.49-.77.48-1.85-.18-2.17-.55-2.17S86.34,33.91,86.34,35.22Z"/><path d="M91.9,36.4c0,.84,0,1,.24,1l.13,0a.55.55,0,0,1,0,.42c-.23,0-.48,0-.78,0s-.57,0-.78,0a.55.55,0,0,1,0-.42l.13,0c.21,0,.24-.14.24-1V34.59c0-.48,0-.63-.13-.77l-.09-.11a.55.55,0,0,1,0-.36,4.22,4.22,0,0,0,1-.69.12.12,0,0,1,.12.1c0,.36,0,.89,0,1.43ZM92,31c0,.57-.24.87-.48.87S91,31.49,91,31s.23-.88.49-.88S92,30.5,92,31Z"/><path d="M96.83,33a1.12,1.12,0,0,1,.13.62c0,.36-.08.68-.16.68a.13.13,0,0,1-.11-.06c-.18-.48-.43-.89-.67-.89-.42,0-.65.88-.65,1.71S95.71,37,96.3,37c.24,0,.44-.15.58-.59.08,0,.17.07.17.26-.14.6-.53,1.29-1.15,1.29-.82,0-1.38-1-1.38-2.43,0-1.7.75-2.71,1.63-2.71A1.36,1.36,0,0,1,96.83,33Z"/><path d="M100.14,35c-.15,0-.16,0-.16.21,0,.9.31,1.78.92,1.78.18,0,.43-.08.6-.63.07,0,.17.08.17.28-.27,1-.75,1.37-1.14,1.37-.87,0-1.35-1.14-1.35-2.45,0-1.51.59-2.69,1.41-2.69.67,0,1,.81,1,1.73,0,.23,0,.4-.24.4Zm.43-.53a.36.36,0,0,0,.27-.11.63.63,0,0,0,0-.28c0-.39-.12-.65-.34-.65s-.51.48-.51.86c0,.17.09.18.3.18Z"/><rect x="34.21" y="295.85" width="17.75" height="3.94"/><rect x="34" y="95.31" width="118.43" height="11.94"/><path class="cls-5" d="M40.76,107.59a2.15,2.15,0,0,1-1.55-.68,15,15,0,0,1-.27-2.57c.05-.13.2-.17.24-.06.15.94.56,2.74,1.71,2.74.84,0,1.25-1,1.25-2.12a3.67,3.67,0,0,0-.82-2.56l-.94-1.14A4.9,4.9,0,0,1,39.3,98c0-1.74.74-3.16,2-3.16a2.25,2.25,0,0,1,.93.24.78.78,0,0,0,.34.11,14.35,14.35,0,0,1,.18,2.24c0,.11-.2.17-.25.06-.13-.88-.39-2.08-1.35-2.08s-1.18,1.2-1.18,2a3.46,3.46,0,0,0,.84,2.26l.8.91a5.07,5.07,0,0,1,1.24,3.53C42.88,106.21,42.06,107.59,40.76,107.59Z"/><path class="cls-5" d="M50.43,103c-.07-.4-.11-.46-.41-.46h-1.5c-.25,0-.31.06-.38.44l-.35,1.93a12,12,0,0,0-.22,1.53c0,.22.06.33.29.36l.33.06a.47.47,0,0,1,0,.46c-.26,0-.57,0-1-.06s-.69,0-1,.06a.61.61,0,0,1,0-.46l.33-.06c.24,0,.46-.24.6-.9.18-.84.45-2,.87-4.09l1-5a4.54,4.54,0,0,0,.17-1.3,1.58,1.58,0,0,0,.51-.7c.06,0,.13,0,.15.17.13.81.29,1.65.44,2.46l1.36,7.38c.29,1.58.42,1.85.85,1.94l.27.06a.61.61,0,0,1,0,.46,11.67,11.67,0,0,0-1.21-.06c-.47,0-.85,0-1.14.06a.5.5,0,0,1,0-.46l.29-.06c.21,0,.35-.14.35-.33a6.5,6.5,0,0,0-.13-1Zm-2-1.63c-.08.42-.07.44.21.44h1.22c.29,0,.31-.07.22-.57l-.54-3c-.08-.44-.16-.94-.22-1.16h0c0,.09-.13.53-.24,1.09Z"/><path class="cls-5" d="M58.9,104.5c0,2,.06,2.26.6,2.33l.38.06a.6.6,0,0,1,0,.46c-.62,0-1-.06-1.36-.06s-.77,0-1.3.06a.6.6,0,0,1,0-.46l.31-.06c.58-.11.6-.36.6-2.33v-.93a6.26,6.26,0,0,0-.32-2.28l-1.18-4.22c-.33-1.21-.48-1.31-.78-1.4l-.28-.09a.55.55,0,0,1,0-.46,9.18,9.18,0,0,0,1.15.06,7.26,7.26,0,0,0,1.07-.06c.09.06.09.35,0,.46l-.13,0c-.35.09-.42.18-.42.33a14.24,14.24,0,0,0,.31,1.41c.37,1.36.73,2.81,1.12,4.08.31-1,.64-2,.94-3.11a24.44,24.44,0,0,0,.65-2.42c0-.11-.18-.24-.42-.29l-.18,0a.49.49,0,0,1,0-.46,8.34,8.34,0,0,0,1,.06,7.62,7.62,0,0,0,.93-.06.5.5,0,0,1,0,.46l-.28.09c-.52.17-.82,1.32-1.31,2.9l-.63,2a7,7,0,0,0-.47,3Z"/><path class="cls-5" d="M70.27,99.78a24,24,0,0,0-.19-3.8.57.57,0,0,0-.5-.38l-.24,0a.55.55,0,0,1,0-.44,10.74,10.74,0,0,0,1.14.06,8.22,8.22,0,0,0,1-.06.52.52,0,0,1,0,.44l-.24,0a.59.59,0,0,0-.49.44,29.91,29.91,0,0,0-.14,3.74v2.08a10.55,10.55,0,0,1-.7,4.39,2.2,2.2,0,0,1-1.9,1.34,2.07,2.07,0,0,1-1.86-1c-.53-.81-.77-2.15-.77-4.34V97.91c0-1.91,0-2.22-.6-2.31l-.25,0a.56.56,0,0,1,0-.44c.5,0,.84.06,1.23.06s.74,0,1.23-.06a.56.56,0,0,1,0,.44l-.24,0c-.58.09-.6.4-.6,2.31v4c0,3,.5,4.9,2,4.9s2-2.09,2-4.88Z"/><path class="cls-5" d="M75.93,98c0-1.75,0-2.06-.44-2.15l-.32-.07a.5.5,0,0,1,0-.46,13.72,13.72,0,0,1,2.22-.15,2.18,2.18,0,0,1,1.66.55,3.47,3.47,0,0,1,.83,2.57,3.7,3.7,0,0,1-1.25,3.07.7.7,0,0,0,0,.44,23.66,23.66,0,0,0,2,4.88,1,1,0,0,0,.69.52c.05,0,.06.18,0,.25a.85.85,0,0,1-.44.09c-.84,0-1.35-.46-2.06-2.31-.26-.68-.67-2-1-2.77-.15-.41-.31-.59-.71-.59s-.47,0-.47.41v2.31c0,1.93,0,2.15.6,2.29l.21.06a.6.6,0,0,1,0,.46c-.45,0-.79-.06-1.19-.06s-.77,0-1.24.06a.59.59,0,0,1,0-.46l.25-.06c.58-.13.6-.36.6-2.29Zm.81,2.62a2.63,2.63,0,0,0,0,.61s.18.09.69.09a1.12,1.12,0,0,0,1-.48,3.83,3.83,0,0,0,.5-2.27c0-1.45-.49-2.83-1.59-2.83-.62,0-.65.07-.65.59Z"/><path class="cls-5" d="M85.33,98c0-2,0-2.26-.61-2.35l-.25,0a.61.61,0,0,1,0-.46c.5,0,.84.06,1.25.06s.74,0,1.24-.06a.61.61,0,0,1,0,.46l-.25,0c-.59.09-.61.4-.61,2.35v6.53c0,2,0,2.2.61,2.33l.25.06a.61.61,0,0,1,0,.46c-.5,0-.84-.06-1.24-.06s-.75,0-1.25.06a.6.6,0,0,1,0-.46l.25-.06c.58-.13.61-.38.61-2.33Z"/><path class="cls-5" d="M99.21,104.5c0,2,.06,2.26.6,2.33l.37.06a.6.6,0,0,1,0,.46c-.61,0-1-.06-1.35-.06s-.77,0-1.3.06a.6.6,0,0,1,0-.46l.31-.06c.57-.11.59-.36.59-2.33v-.93a6.26,6.26,0,0,0-.32-2.28L96.9,97.07c-.34-1.21-.49-1.31-.78-1.4l-.28-.09a.55.55,0,0,1,0-.46,9,9,0,0,0,1.15.06,7,7,0,0,0,1.06-.06c.09.06.09.35,0,.46l-.13,0c-.34.09-.41.18-.41.33a14.24,14.24,0,0,0,.31,1.41c.36,1.36.73,2.81,1.12,4.08.31-1,.64-2,.94-3.11s.64-2.2.64-2.42-.18-.24-.42-.29l-.18,0a.52.52,0,0,1,0-.46,8.07,8.07,0,0,0,1,.06,7.62,7.62,0,0,0,.93-.06.5.5,0,0,1,0,.46l-.27.09c-.52.17-.82,1.32-1.32,2.9l-.62,2a7,7,0,0,0-.47,3Z"/><path class="cls-5" d="M108.61,103c-.07-.4-.11-.46-.41-.46h-1.5c-.25,0-.31.06-.38.44l-.35,1.93a12,12,0,0,0-.22,1.53c0,.22,0,.33.29.36l.33.06a.47.47,0,0,1,0,.46c-.26,0-.57,0-1-.06s-.68,0-1,.06a.61.61,0,0,1,0-.46l.33-.06c.24,0,.46-.24.59-.9.18-.84.46-2,.88-4.09l1-5a4.54,4.54,0,0,0,.17-1.3,1.52,1.52,0,0,0,.52-.7c.06,0,.13,0,.15.17.13.81.29,1.65.44,2.46l1.36,7.38c.29,1.58.42,1.85.85,1.94l.26.06a.57.57,0,0,1,0,.46,11.33,11.33,0,0,0-1.2-.06c-.48,0-.85,0-1.14.06a.5.5,0,0,1,0-.46l.29-.06c.21,0,.34-.14.34-.33a6.5,6.5,0,0,0-.13-1Zm-2-1.63c-.08.42-.07.44.21.44h1.22c.29,0,.31-.07.22-.57l-.54-3c-.08-.44-.17-.94-.23-1.16h0c0,.09-.13.53-.24,1.09Z"/><path class="cls-5" d="M116.32,101.36c-.47,0-.49,0-.49.59v2.59c0,1.93,0,2.18.6,2.29l.29.06a.61.61,0,0,1,0,.46c-.54,0-.87-.06-1.26-.06s-.77,0-1.16.06a.6.6,0,0,1,0-.46l.17-.06c.56-.18.58-.36.58-2.29V97.93c0-1.93-.07-2.24-.59-2.31l-.26,0a.66.66,0,0,1,0-.46c.49,0,.83.06,1.26.06s.72,0,1.15-.06a.61.61,0,0,1,0,.46l-.19,0c-.57.11-.59.38-.59,2.31V100c0,.57,0,.59.49.59h2.85c.48,0,.5,0,.5-.59V97.93c0-1.93,0-2.2-.61-2.31l-.19,0a.61.61,0,0,1,0-.46c.46,0,.8.06,1.2.06s.73,0,1.18-.06a.61.61,0,0,1,0,.46l-.21,0c-.58.11-.6.38-.6,2.31v6.61c0,1.93,0,2.16.6,2.29l.24.06a.61.61,0,0,1,0,.46c-.48,0-.82-.06-1.21-.06s-.76,0-1.2.06a.6.6,0,0,1,0-.46l.19-.06c.61-.18.61-.36.61-2.29V102c0-.55,0-.59-.5-.59Z"/><path class="cls-5" d="M128.79,103c-.08-.4-.11-.46-.41-.46h-1.5c-.25,0-.31.06-.38.44l-.35,1.93a12,12,0,0,0-.22,1.53c0,.22,0,.33.29.36l.33.06a.47.47,0,0,1,0,.46c-.26,0-.57,0-1-.06s-.69,0-.95.06a.61.61,0,0,1,0-.46l.32-.06c.24,0,.46-.24.6-.9.18-.84.46-2,.88-4.09l1-5a4.54,4.54,0,0,0,.17-1.3,1.52,1.52,0,0,0,.52-.7c.06,0,.13,0,.15.17.13.81.29,1.65.44,2.46l1.36,7.38c.29,1.58.42,1.85.84,1.94l.27.06a.61.61,0,0,1,0,.46,11.47,11.47,0,0,0-1.2-.06c-.48,0-.86,0-1.15.06a.53.53,0,0,1,0-.46l.29-.06c.21,0,.35-.14.35-.33a6.5,6.5,0,0,0-.13-1Zm-2-1.63c-.08.42-.06.44.21.44h1.23c.29,0,.31-.07.22-.57l-.54-3c-.08-.44-.17-.94-.23-1.16h0c0,.09-.13.53-.24,1.09Z"/><path class="cls-5" d="M140.36,105.42c0,.73.06,1.17.24,1.3a.24.24,0,0,1,0,.22,1.43,1.43,0,0,0-.49.17,4.69,4.69,0,0,1-1.78.48,3.37,3.37,0,0,1-3-2,8.8,8.8,0,0,1-.92-4.17,9.81,9.81,0,0,1,.9-4.35,3.45,3.45,0,0,1,3.15-2.15,3.19,3.19,0,0,1,1.26.28,1.53,1.53,0,0,0,.62.16c0,.61.06,1.56.15,2.66a.15.15,0,0,1-.27.06c-.28-2-1-2.61-2-2.61-1.93,0-2.77,2.54-2.77,5.29,0,3.52,1,6.3,3,6.3.62,0,1-.24,1.1-.55a3.74,3.74,0,0,0,.09-1v-.73c0-1.55,0-1.66-.64-1.79l-.44-.09a.5.5,0,0,1,0-.46,12.61,12.61,0,0,0,1.42.06,8.67,8.67,0,0,0,1.06-.06.53.53,0,0,1,0,.46l-.16,0c-.42.09-.43.6-.43,1.54Z"/><path class="cls-5" d="M145.6,98c0-2,0-2.26-.61-2.35l-.25,0a.61.61,0,0,1,0-.46c.5,0,.84.06,1.26.06s.73,0,1.23-.06a.61.61,0,0,1,0,.46l-.25,0c-.58.09-.6.4-.6,2.35v6.53c0,2,0,2.2.6,2.33l.25.06a.61.61,0,0,1,0,.46c-.5,0-.83-.06-1.23-.06s-.76,0-1.26.06a.6.6,0,0,1,0-.46l.25-.06c.59-.13.61-.38.61-2.33Z"/><rect x="34.58" y="208.51" width="105.65" height="12.36"/><path class="cls-5" d="M42.13,215.59c.22.86.44,1.71.68,2.52h0c.27-.87.52-1.82.77-2.76l.93-3.5a17,17,0,0,0,.76-3.53,3.81,3.81,0,0,0,.75.06,7.36,7.36,0,0,0,.88-.06.66.66,0,0,1,0,.46l-.21,0c-.63.11-.71.46-.69,1.74,0,1.95,0,5.34.1,8,0,.91,0,1.41.49,1.48l.32.06a.56.56,0,0,1,0,.46c-.41,0-.82-.06-1.17-.06s-.8,0-1.21.06a.56.56,0,0,1,0-.46l.29-.06c.49-.09.49-.38.49-1.56l0-7.65h0c-.07.2-.45,1.67-.65,2.39l-.88,3.21c-.45,1.61-.9,3.34-1.08,4.18a.1.1,0,0,1-.1.08.11.11,0,0,1-.09-.08c-.17-1-.64-2.77-.87-3.67l-.9-3.54c-.21-.85-.42-1.8-.63-2.64h0c0,1.13-.07,2.2-.1,3.26s-.07,2.76-.07,4.32c0,1.36.06,1.65.44,1.7l.38.06a.52.52,0,0,1,0,.46,9.61,9.61,0,0,0-1.1-.06,9,9,0,0,0-1,.06.61.61,0,0,1,0-.46l.22-.06c.42-.11.56-.22.62-1.5s.11-2.22.17-4c.05-1.52.09-3.08.11-4.09,0-1.16-.06-1.43-.67-1.58l-.16,0a.56.56,0,0,1,0-.46,5.79,5.79,0,0,0,.79.06,4.26,4.26,0,0,0,.82-.06,11.59,11.59,0,0,0,.52,3Z"/><path class="cls-5" d="M54.36,216.23c-.07-.4-.11-.46-.41-.46h-1.5c-.25,0-.31.06-.38.45l-.35,1.92a12,12,0,0,0-.22,1.53c0,.22,0,.33.29.36l.33.06a.47.47,0,0,1,0,.46c-.26,0-.57,0-1-.06s-.68,0-1,.06a.61.61,0,0,1,0-.46l.33-.06c.24,0,.46-.23.59-.9.18-.84.46-2,.88-4.09l1-5a4.54,4.54,0,0,0,.17-1.3,1.52,1.52,0,0,0,.52-.7c.06,0,.13,0,.15.17.13.81.29,1.65.44,2.46l1.36,7.38c.29,1.58.42,1.85.85,1.94l.26.06a.57.57,0,0,1,0,.46,11.33,11.33,0,0,0-1.2-.06c-.48,0-.85,0-1.14.06a.5.5,0,0,1,0-.46l.29-.06c.21,0,.34-.14.34-.33a6.5,6.5,0,0,0-.13-1Zm-2-1.63c-.08.42-.07.44.21.44h1.22c.29,0,.31-.07.22-.57l-.54-3c-.08-.44-.17-.94-.23-1.16h0c0,.1-.13.54-.24,1.09Z"/><path class="cls-5" d="M62.07,214.56c-.47,0-.49,0-.49.59v2.59c0,1.93.05,2.18.6,2.29l.29.06a.61.61,0,0,1,0,.46c-.54,0-.87-.06-1.26-.06s-.77,0-1.16.06a.6.6,0,0,1,0-.46l.17-.06c.56-.18.58-.36.58-2.29v-6.61c0-1.93-.07-2.24-.59-2.31l-.26,0a.66.66,0,0,1,0-.46c.49,0,.83.06,1.26.06s.72,0,1.15-.06a.61.61,0,0,1,0,.46l-.19,0c-.57.11-.59.38-.59,2.31v2.11c0,.57,0,.59.49.59h2.85c.48,0,.5,0,.5-.59v-2.11c0-1.93,0-2.2-.61-2.31l-.19,0a.61.61,0,0,1,0-.46c.46,0,.8.06,1.2.06s.73,0,1.18-.06a.61.61,0,0,1,0,.46l-.21,0c-.58.11-.6.38-.6,2.31v6.61c0,1.93,0,2.16.6,2.29l.24.06a.61.61,0,0,1,0,.46c-.48,0-.82-.06-1.21-.06s-.76,0-1.2.06a.6.6,0,0,1,0-.46l.19-.06c.61-.18.61-.36.61-2.29v-2.59c0-.55,0-.59-.5-.59Z"/><path class="cls-5" d="M70.94,214.56c0-3.67,1.5-6.48,3.54-6.48,2.3,0,3.46,3.07,3.46,6.3,0,3.71-1.54,6.41-3.46,6.41C72.28,220.79,70.94,217.87,70.94,214.56Zm6,.39c0-3-.72-6.3-2.62-6.3-1,0-2.38,1.31-2.38,5.33,0,2.71.71,6.24,2.67,6.24C75.81,220.22,76.94,218.57,76.94,215Z"/><path class="cls-5" d="M89.43,214.56c-.48,0-.5,0-.5.59v2.59c0,1.93,0,2.18.61,2.29l.29.06a.61.61,0,0,1,0,.46c-.54,0-.88-.06-1.26-.06s-.77,0-1.16.06a.6.6,0,0,1,0-.46l.17-.06c.56-.18.58-.36.58-2.29v-6.61c0-1.93-.07-2.24-.59-2.31l-.26,0a.61.61,0,0,1,0-.46c.49,0,.83.06,1.26.06s.72,0,1.15-.06a.61.61,0,0,1,0,.46l-.19,0c-.58.11-.6.38-.6,2.31v2.11c0,.57,0,.59.5.59h2.85c.47,0,.49,0,.49-.59v-2.11c0-1.93,0-2.2-.6-2.31l-.19,0a.61.61,0,0,1,0-.46c.46,0,.79.06,1.2.06s.73,0,1.18-.06a.61.61,0,0,1,0,.46l-.21,0c-.58.11-.6.38-.6,2.31v6.61c0,1.93,0,2.16.6,2.29l.24.06a.61.61,0,0,1,0,.46c-.48,0-.82-.06-1.21-.06s-.76,0-1.2.06a.6.6,0,0,1,0-.46l.19-.06c.6-.18.6-.36.6-2.29v-2.59c0-.55,0-.59-.49-.59Z"/><path class="cls-5" d="M99.12,211.17c0-1.95,0-2.26-.61-2.35l-.25,0a.61.61,0,0,1,0-.46c.5,0,.84.06,1.26.06s.73,0,1.23-.06a.61.61,0,0,1,0,.46l-.25,0c-.59.09-.61.4-.61,2.35v6.53c0,2,0,2.2.61,2.33l.25.06a.61.61,0,0,1,0,.46c-.5,0-.84-.06-1.23-.06s-.76,0-1.26.06a.6.6,0,0,1,0-.46l.25-.06c.59-.13.61-.38.61-2.33Z"/><path class="cls-5" d="M107.53,217.7c0,2,.06,2.26.6,2.33l.38.06a.6.6,0,0,1,0,.46c-.62,0-1-.06-1.36-.06s-.77,0-1.3.06a.6.6,0,0,1,0-.46l.31-.06c.58-.11.6-.36.6-2.33v-.93a6.26,6.26,0,0,0-.32-2.28l-1.18-4.22c-.34-1.21-.48-1.3-.78-1.4l-.28-.09a.56.56,0,0,1,0-.46,9.18,9.18,0,0,0,1.15.06,7.26,7.26,0,0,0,1.07-.06c.09.06.09.35,0,.46l-.13,0c-.35.09-.42.18-.42.33a14.24,14.24,0,0,0,.31,1.41c.37,1.36.73,2.81,1.12,4.08.31-1,.64-2,.94-3.11a23.52,23.52,0,0,0,.64-2.42c0-.11-.17-.24-.41-.29l-.18,0a.49.49,0,0,1,0-.46,8.21,8.21,0,0,0,1,.06,7.62,7.62,0,0,0,.93-.06.5.5,0,0,1,0,.46l-.28.09c-.52.17-.82,1.32-1.31,2.9l-.63,2a7,7,0,0,0-.47,3Z"/><path class="cls-5" d="M116.93,216.23c-.07-.4-.11-.46-.41-.46H115c-.25,0-.31.06-.38.45l-.35,1.92a12,12,0,0,0-.22,1.53c0,.22.05.33.29.36l.33.06a.47.47,0,0,1,0,.46c-.26,0-.57,0-1-.06s-.69,0-1,.06a.61.61,0,0,1,0-.46L113,220c.24,0,.46-.23.6-.9.18-.84.45-2,.87-4.09l1-5a4.54,4.54,0,0,0,.17-1.3,1.58,1.58,0,0,0,.51-.7c.06,0,.13,0,.15.17.13.81.29,1.65.44,2.46l1.36,7.38c.29,1.58.42,1.85.85,1.94l.27.06a.61.61,0,0,1,0,.46,11.67,11.67,0,0,0-1.21-.06c-.47,0-.85,0-1.14.06a.5.5,0,0,1,0-.46l.29-.06c.21,0,.35-.14.35-.33a6.5,6.5,0,0,0-.13-1Zm-2-1.63c-.08.42-.07.44.21.44h1.22c.29,0,.31-.07.22-.57l-.54-3c-.08-.44-.17-.94-.22-1.16h0c0,.1-.13.54-.24,1.09Z"/><path class="cls-5" d="M123.48,211.17c0-2-.1-2.26-.69-2.35l-.24,0a.61.61,0,0,1,0-.46c.57,0,.91.06,1.33.06a10.55,10.55,0,0,0,1.13-.06.61.61,0,0,1,0,.46l-.15,0c-.58.15-.6.4-.6,2.35V218a18.34,18.34,0,0,1-.23,3.56c-.33,1.47-1,2.64-2,2.64a.37.37,0,0,1-.43-.38c0-.32.15-.85.36-.85a.78.78,0,0,1,.37.11.86.86,0,0,0,.42.13c.2,0,.32-.22.39-.48a29.89,29.89,0,0,0,.26-4.6Z"/><path class="cls-5" d="M128.93,214.56c0-3.67,1.49-6.48,3.54-6.48,2.3,0,3.45,3.07,3.45,6.3,0,3.71-1.53,6.41-3.45,6.41C130.26,220.79,128.93,217.87,128.93,214.56Zm6,.39c0-3-.73-6.3-2.63-6.3-1,0-2.37,1.31-2.37,5.33,0,2.71.71,6.24,2.67,6.24C133.8,220.22,134.93,218.57,134.93,215Z"/></svg>