<?xml version="1.0" encoding="utf-8"?><svg version="1.1" id="レイヤー_1" xmlns="http://www.w3.org/2000/svg" xmlns:xlink="http://www.w3.org/1999/xlink" x="0px" y="0px" viewBox="0 0 380.2 475.5" style="enable-background:new 0 0 380.2 475.5;" xml:space="preserve"><style type="text/css">.st0{fill:none;}.st1{fill:none;stroke:#000000;stroke-width:0.5;}.st2{fill:none;stroke:#000000;stroke-width:0.4;}.st3{fill:none;stroke:#000000;stroke-width:0.4375;}.st4{fill:#FFFFFF;}</style><title>アートボード 41</title><g><g id="letter_ol"><rect class="st0" width="380.2" height="475.5"/></g><g><g><g><path d="M33.9,59.8l-0.1-0.4h9.5v-8.5c0.6,0.1,3.4,0.5,3.6,0.5c0.1,0,0.2,0.1,0.2,0.2c0,0.1,0,0.3-0.8,0.6v7.1h4.7l1.5-3.3c0.2-0.3,0.2-0.4,0.3-0.4c0.2,0,3,3.6,3,3.9c0,0.3-0.2,0.3-0.3,0.3h-8.9c0.9,4.2,4.3,11.3,9.9,13.9v0.1c-1.2,1.1-1.5,2.1-1.9,4.3c-0.1,0.4-0.2,0.7-0.5,0.7c-0.9,0-3.6-3.1-5.5-8.1c-1.6-4.1-1.9-7.1-2.2-10.9h-0.1v15.4h0.5l1.2-2.5c0.2-0.4,0.2-0.4,0.3-0.4c0.2,0,2.1,2.8,2.1,3c0,0.3-0.1,0.3-0.3,0.3h-3.8v8.1c0,0.8,0,1-0.7,1l-1.7,0.2c-0.5,0.1-0.6,0.1-0.6-0.8v-8.5h-4.6l-0.1-0.4h4.7v-10c-3.1,6.8-6.8,11.4-9.8,13.4l0-0.1c4.5-6.7,7-14.6,7.8-18.7H33.9z"/><path d="M82.5,68.2c0.3-0.5,0.5-0.8,0.6-0.8c0.2,0,1.4,1.7,1.7,2.2c1.2,1.8,1.4,2.1,1.4,2.5c0,0.4-0.2,0.6-1.7,0.8c-1.6,3.6-4.8,8.2-9,10.2c-3.4,1.6-7,2.2-10.6,2.1V85c4.4-1.2,8.3-3.7,10-5.2c-0.1,0-0.2,0.1-0.3,0.1c-0.3,0-0.4-0.2-0.6-1.3c-0.4-2.4-1.1-3.7-1.5-4.4c-3.3,2.6-6,3.3-7.2,3.5v-0.1c5-3.5,7.9-8.1,9.5-11.6c-2.1,1.3-4.4,2.4-10,2.9v-0.1c1.7-0.7,5.7-2.5,9.1-5.5c-0.2,0.1-0.5,0.2-0.7,0.2c-0.3,0-0.4-0.2-0.7-1.2c-0.6-2.3-1.2-3.4-1.5-3.9c-1.1,1.2-2.8,3.1-5.9,4.6l0-0.1c3.8-4.1,6-9.5,6.7-12.2c1.7,0.6,2.1,0.7,3.5,1.3c0.2,0.1,0.4,0.2,0.4,0.4c0,0.3-0.7,0.4-0.8,0.4c-0.3,0.6-0.5,1.1-1,1.9h5.9l1.1-1.5c0.4-0.6,0.5-0.6,0.6-0.6c0.4,0,3.1,3.2,3.1,3.9c0,0.4-0.4,0.6-0.6,0.7c-0.3,0.1-1,0.3-1.3,0.4c-0.9,1.6-2.9,5-6.7,7.7c0.5,0.3,2.4,1.4,2.8,1.6c0.3,0.1,0.4,0.2,0.4,0.5c0,0.2-0.1,0.2-0.9,0.4c-0.6,1-1,1.6-1.6,2.3h5L82.5,68.2z M73.6,55c-0.4,0.6-0.7,1.2-1.7,2.4c0.9,0.1,3.4,0.4,3.4,3.4c0,0.7-0.2,1.1-0.3,1.3c1.6-1.7,3-3.8,4.8-7.1H73.6z M76.2,70.3c-0.6,0.8-1.5,1.8-2.7,3c0.6,0.1,3.2,0.8,3.2,3.6c0,1-0.3,1.5-0.4,1.7c3.5-3.3,4.9-6.9,5.4-8.3H76.2z"/><path d="M113.5,75.3l1.4-3c0.2-0.4,0.3-0.5,0.4-0.5c0.3,0,2.7,3.2,2.7,3.7c0,0.3-0.1,0.3-0.3,0.3H95.9l-0.1-0.4H113.5z M96.2,84.8c2.4-2.1,5.8-6.8,6.6-8.5c0.8,0.6,1.1,0.8,3.2,2.5c0,0,0.2,0.2,0.2,0.4c0,0.3-0.2,0.3-0.3,0.3c-0.1,0-0.4-0.1-0.5-0.1c-1.2,1.2-4.5,4.5-9.3,5.7V84.8z M103,72v1.1c0,0.5,0,0.7-0.5,0.7l-2,0.2c-0.4,0-0.5,0-0.5-0.6V57.9c0.5,0.1,3,0.8,3.6,1h1.6v-3.3h-8.9l-0.1-0.4h9v-4.3c0.5,0.1,2.9,0.3,3.3,0.3c0.2,0,0.5,0.1,0.5,0.3s-0.1,0.3-0.8,0.6v3.1h4.8l1.3-2.9c0.1-0.2,0.3-0.6,0.4-0.6c0.3,0,2.8,3,2.8,3.6c0,0.3-0.2,0.3-0.3,0.3h-8.9v3.3h2.4l0.6-1.2c0.5-1,0.5-1.1,0.6-1.1c0.3,0,2.9,3.2,2.9,3.5c0,0.4-0.7,0.8-1,0.9v11.6c0,0.7-0.1,0.8-0.5,0.9l-1.9,0.2c-0.4,0-0.5-0.1-0.5-0.7V72H103z M103,59.3V63h7.9v-3.7H103z M103,63.4v3.9h7.9v-3.9H103z M110.9,71.6v-3.9H103v3.9H110.9z M108.1,76.8c1.9,0.1,7.8,0.8,7.8,5.4c0,1.2-0.6,2.8-1.7,2.8c-0.2,0-0.5,0-0.9-1.1c-0.4-1-2.3-4.5-5.2-6.9V76.8z"/><path d="M126.9,72.8l-0.1-0.4h9.6v-3.9c0.5,0,2.9,0.2,3.2,0.3c0.3,0,0.4,0.1,0.4,0.2c0,0.2-0.2,0.3-0.7,0.6v2.8h5.7l1-2.4c-0.5,0.2-1.4,0.3-1.7,0.3c-0.3,0-0.4-0.2-0.4-0.5c0-1.7,0-2.5-2.7-3.8v-0.2c0.8,0.1,2.5,0.3,2.7,0.3c0.2,0,0.3-0.1,0.3-0.4V51.2c0.3,0,3.5,0.3,3.5,0.7c0,0.3-0.5,0.4-0.7,0.4v14.2c0,1.5-0.1,2.3-0.5,2.9c0.3,0.3,2.2,2.7,2.2,3c0,0.3-0.2,0.3-0.3,0.3h-8.8c0.9,2.3,4,5.6,9.2,6.5v0.1c-0.9,0.7-1.5,1.8-1.7,3.3c-0.1,0.8-0.1,1.4-0.6,1.4c-1,0-6.1-2.9-7.2-11.2h-0.1v11c0,0.7,0,0.8-0.4,0.9l-2.1,0.2c-0.4,0-0.5-0.1-0.5-0.8v-9.1c-1.4,2.8-4.6,6.5-9.6,9l0-0.1c2.9-3,6-8.2,7-11H126.9z M135.6,58.8l1.1-2.3c0.1-0.3,0.2-0.4,0.3-0.4c0.1,0,2.2,2.5,2.2,2.8c0,0.3-0.1,0.3-0.2,0.3h-4.2v1.9c1,0.1,3.8,0.8,3.8,3.2c0,1.4-0.8,2.6-1.5,2.6c-0.5,0-0.6-0.5-0.8-1.4c-0.3-1.4-1-2.9-1.5-3.8v7.8c0,0.4,0,0.7-0.4,0.8l-2,0.2c-0.4,0-0.4-0.1-0.4-0.7v-6.1c-1.7,3.2-3.9,5-5,5.8l0,0c1.9-3.1,3.3-7,4-10.3h-3.7l-0.1-0.4h4.9v-3.4c-1.1,0.1-3.1,0.1-4.7,0.2l0-0.1c3.7-1.6,6.3-3.3,7.7-4.7c0,0,2.3,2.9,2.9,3.7c0,0.1,0.2,0.3,0.2,0.5c0,0.1-0.1,0.2-0.2,0.2c-0.1,0-0.3-0.1-0.7-0.3c-0.8,0.1-1.7,0.3-2.4,0.3v3.6H135.6z M142.5,63.9c0,0.7,0,0.8-0.4,0.8l-1.8,0.2c-0.5,0-0.5,0-0.5-0.8V52.8c1.7,0.2,1.9,0.2,2.9,0.3c0.5,0.1,0.5,0.1,0.5,0.3c0,0.2-0.1,0.3-0.7,0.4V63.9z"/><path d="M170.5,66.8h4.8l1.5-3.2c0.1-0.3,0.2-0.4,0.3-0.4c0.2,0,2.8,3.5,2.8,3.8c0,0.2-0.1,0.3-0.3,0.3h-9.1v12.7c0,2.5,0,4.6-3.4,4.6c-0.8,0-1.1-0.1-1.1-1.1c0-1.2,0-1.8-0.2-2.5c-0.4-1-0.8-1.1-2.3-1.9v-0.1c0.5,0,2.9,0.2,3.4,0.2c0.5,0,0.7-0.1,0.7-1.4V67.2H158l-0.1-0.4h9.6v-6.1c0.4,0.1,2.3,0.3,2.7,0.4c0.6-1.2,2.1-4.1,3.1-7.3h-13l-0.1-0.4h13.1l1-1.6c0.2-0.3,0.3-0.5,0.5-0.5c0.2,0,3.1,4,3.1,4.9c0,0.8-1.1,0.8-2.1,0.9c-1.4,1.5-3.2,2.7-5.1,4c0.2,0,0.5,0.1,0.5,0.3c0,0.3-0.4,0.4-0.6,0.4V66.8z"/></g></g><g><g><path d="M48.8,151v-14.3c2.6,0.3,5.8,0.9,6,0.9c0.2,0.1,0.5,0.2,0.5,0.5c0,0.4-0.1,0.4-1.2,0.8v12h8.7l1.6-3.4c0.5-1.1,0.7-1.1,0.8-1.1c0.4,0,5.1,5.1,5.1,5.9c0,0.8-1.2,1.5-1.7,1.8v19.3c0,1.3,0,1.8-0.7,1.8l-3.7,0.3c-0.9,0.1-0.9-0.4-0.9-1.6v-3.3h-9.2v22.7c0,1,0,1.6-0.6,1.6l-3.9,0.4c-0.8,0.1-0.8-0.1-0.8-1.3v-23.4h-9.2v4.8c0,1,0,1.5-0.8,1.5l-3.7,0.3c-0.8,0.1-0.8-0.4-0.8-1.7v-26.8c1.2,0.3,5.1,1.7,6,2.1H48.8z M39.6,151.8v18.3h9.2v-18.3H39.6z M54.1,151.8v18.3h9.2v-18.3H54.1z"/><path d="M85.8,151.4c3.4,0.9,6.9,4,6.9,8.4c0,2-0.8,4.6-3.1,4.6c-1.3,0-1.4-1.3-1.5-2.2c-0.3-3.1-0.7-7.3-2.3-10.6L85.8,151.4z M117.2,151.4l1.3-2.6c0.5-0.9,0.6-1.2,0.9-1.2c0.1,0,4.5,3.9,4.5,5.2c0,0.7-0.2,0.8-1.9,1.8v24.2c0,1.1,0,1.6-0.7,1.7l-2.8,0.3c-0.8,0.1-0.9,0-0.9-1.1v-1.1h-3c0,1.8,0,2.2-0.7,2.3l-1,0.2c0.8,0.6,2.4,1.9,3.3,2.7c0.6,0.4,0.7,0.6,0.7,0.8c0,0.4-0.6,0.6-1.2,0.6c-2.2,3.3-5.4,7.1-10.3,10.2l0-0.1c2.5-3.6,5.5-10.6,6.5-14.1c-0.6,0.1-0.7,0.1-0.9,0.1c-0.7,0-0.7-0.7-0.7-1.5v-25.1c-0.5,0.4-0.7,0.5-1.2,0.8v12.1c0,1.1,0,1.5-0.7,1.6l-2.1,0.4c-0.7,0.1-0.8,0.1-0.8-0.9v-1.6h-1.2v3.9c3.4,1.9,5.6,5.8,5.6,9.3c0,1.1-0.2,4.3-2.8,4.3c-1.1,0-1.3-0.4-1.3-2.2c0-1.7-0.1-7.3-1.5-10.8v21.6c0,1.3,0,1.4-0.8,1.5l-2.3,0.4c-0.7,0.1-0.9,0.1-0.9-1.2v-14c-1.7,2.8-3.7,5.2-5.6,7.7c0,0.4,0.1,1.1,0.1,2c0,4.7-2.1,5.6-3.4,5.6c-1.6,0-2.2-1.1-2.2-2.7c0-3.9,0-11.5-3-18.1l0-0.1c0.7,0.6,1.8,1.6,2.8,2.7c1.7-5.4,5.8-22.3,6.2-25.1l0.1,0.1c-0.8,8.3-1.1,10.5-2,18c-1.1,8.7-1.1,8.9-1.1,9.9c0,1.1,0.2,1.6,0.7,2.5c0.9,1.8,1.4,3.2,1.7,4.7c4-9.4,5.2-17,5.6-20h-1v2.1c0,1.1,0,1.5-0.7,1.6l-2.1,0.3c-0.8,0.1-0.8-0.1-0.8-1.1V152c2.1,0.8,2.7,0.9,3.9,1.5h0.8v-6.9h-4.5c-0.3,2.5-2,3.5-3.5,3.5c-0.6,0-0.8-0.3-0.9-1.3c-1.1-7.7-2.8-10.1-3.7-11.1v-0.3c4.1,0.7,8.2,3.1,8.1,8.4h4.4v-9.2c0.3,0,4,0.6,4.7,0.7c0.3,0.1,0.6,0.1,0.6,0.4c0,0.5-0.1,0.6-1.3,1v7h1.4l1.5-3.6c0.3-0.8,0.5-1,0.6-1c0.3,0,3.9,4.2,3.9,4.9c0,0.4-0.2,0.4-0.5,0.4h-6.8v6.9h0.9l1.5-2.3c0.6-0.9,0.6-1,0.8-1c0.4,0,2.4,2.3,2.9,3v-3.2c0.6,0.2,3,0.9,3.5,1.1c0.1-2.6,0.2-6.6,0.2-9.1h-4.4l-0.2-0.8h8.6l1.9-3.8c0.2-0.3,0.4-0.9,0.6-0.9c0.4,0,3.6,4.4,3.6,4.9c0,0.5-0.3,0.5-0.5,0.5h-4c-0.9,2.2-3.2,6.3-5.1,9.4c0.2,0.1,0.2,0.1,0.4,0.1H117.2z M100.1,166.7v-12.5H99v12.5H100.1z M105.3,166.7v-12.5h-1.2v12.5H105.3z M114.6,152.2v7.7h3v-7.7H114.6z M114.6,168.2h3v-7.6h-3V168.2z M114.6,177.9h3v-8.9h-3V177.9z M115.6,181.3c2.2,0.9,7.9,3.2,7.9,9.2c0,2.7-1.4,4.5-2.8,4.5c-1.1,0-1.2-0.4-1.8-4c-0.7-4-1.8-7.5-3.3-9.6V181.3z"/><path d="M164.3,169.7v14.4c0,1.5,0,2,0.5,2.2c0.3,0.2,2.1,0.2,3.2,0.2c3.5,0,3.6,0,5.1-3.6c0.8-2,2.4-6.4,3.8-10.9h0.1c-0.2,2-1.3,11.7-1.3,12.1c0,0.9,0.1,1.1,1.2,2.7c0.2,0.4,0.5,1.5,0.5,2.6c0,4.7-2.8,4.8-10.3,4.8c-6.7,0-7.6-0.9-7.6-5.5v-18.9h-9.6v2.1c0,0.9,0,1.6-1,1.8l-2.9,0.3c-1,0.1-1.2-0.1-1.2-1.6v-19.5c0.6,0.1,4.9,1.4,5.9,1.6h5.1v-8.2h-16.2l-0.2-0.8h16.4v-8.9c0.9,0.1,4.8,0.5,5.6,0.6c0.6,0.1,0.8,0.4,0.8,0.6c0,0.5-0.9,0.9-1.2,1v6.6h8.7l2.5-5.2c0.3-0.6,0.4-0.8,0.6-0.8c0.6,0,4.8,5.6,4.8,6.3c0,0.4-0.2,0.4-0.5,0.4h-16.1v8.2h6l1.2-2.7c0.3-0.6,0.8-1.8,1.2-1.8c0.3,0,4.9,5.1,4.9,6.1c0,0.8-1,1.2-2,1.6v13.3c0,1.1,0,1.6-0.8,1.7l-3.1,0.4c-1,0.1-1.1-0.3-1.1-1.6v-1.9H164.3z M139.2,195.2c10.1-6.3,11.8-15.5,12.3-25.1c1.7,0.5,2.1,0.6,5.8,2c0.2,0.1,0.8,0.3,0.8,0.9c0,0.5-0.9,0.7-1.4,0.8c-1.2,8.2-3.8,19.2-17.5,21.6V195.2z M167.1,168.9v-13.7h-17.4v13.7H167.1z"/><path d="M214.3,148.7v7.4h4.6l1.9-4.5c0.2-0.6,0.3-0.8,0.5-0.8c0.1,0,4.4,4.8,4.4,5.6c0,0.4-0.3,0.4-0.5,0.4h-10.9v7.8h9.3l2.2-4.7c0.3-0.7,0.4-0.8,0.5-0.8c0.3,0,4.3,5,4.3,5.8c0,0.4-0.3,0.4-0.5,0.4h-20.4c0.6,0.1,5.5,1.3,5.5,1.8c0,0.2-0.1,0.3-1.4,0.9c-0.1,2.5-0.3,4.3-0.7,6.4h9.7l2.1-4.9c0.2-0.6,0.3-0.8,0.5-0.8c0.1,0,4.5,5.1,4.5,5.9c0,0.4-0.3,0.4-0.5,0.4h-15.7c3.9,10,15,10.5,17.2,10.6v0.2c-1.9,0.9-2.5,3.5-2.8,5.4c-0.3,2.3-0.4,3-1.2,3c-0.8,0-3.5-0.9-6.3-3c-3.4-2.5-6.4-7.1-7.5-16.2h-0.1c-0.4,2.4-1.2,7-3.7,10.4c-3.5,4.9-10.1,8.7-16.6,9.6l0-0.2c2.8-1.4,6.9-3.9,10.2-8.2c3.2-4,4.4-7.8,4.9-11.6h-14.2l-0.2-0.8H208c0.3-1.8,0.5-4.3,0.6-9.1H193l-0.2-0.8h16.2v-7.8h-11.6l-0.2-0.7h11.8v-7.4h-14.7l-0.2-0.8h10.7c-0.1-0.3-0.1-0.4-0.3-1.8c-0.5-3.3-1.4-6.7-3.2-9l0-0.2c6.1,0.9,8.2,4.4,8.2,7.1c0,1-0.4,2.8-1.7,3.9h5.7c0.9-4.1,1.2-7.1,1.5-10.9c5.7,1.7,6.3,2,7.2,2.3c0.2,0.1,0.5,0.2,0.5,0.6c0,0.4-0.7,0.6-1.7,0.7c-0.6,1-1.6,2.5-2.3,3.5c-1.4,2.1-2.5,3.2-3.3,3.9h7.1l2.1-4.7c0.2-0.4,0.3-0.8,0.5-0.8c0.4,0,4.4,5,4.4,5.8c0,0.4-0.3,0.4-0.5,0.4H214.3z"/></g></g><g><g><path d="M37,239.1c0.2,0.2,0.2,0.2,0.5,0.2c0.1,0,0.7,0,0.8,0c0.2,0,0.6,0,0.6,0.6c0,1.1-0.7,1.5-2.7,2c0,0.6,0.1,1.8,0.1,2.3c2,0.8,2.6,2.2,2.6,2.7c0,0.7-0.3,1-0.5,1c-0.2,0-0.4-0.1-0.6-0.4c-0.2-0.2-0.9-1.2-1.4-1.5c0,1.5-0.2,2.2-1.4,2.2c-1.2,0-2.6-0.6-2.6-2.3c0-2,1.6-2,2.1-2c0.4,0,0.7,0,0.9,0.1v-1.9c-0.8,0.1-1.2,0.1-1.4,0.1c-0.3,0-1.6,0-1.6-1.5c0-0.6,0.3-1.1,0.4-1.3c0,0.2,0,0.3,0,0.5c0,0.7,0.3,0.9,1,0.9c0.1,0,0.6,0,1.5-0.3c0-0.7,0-1.4,0-2.1c-0.4,0.1-0.7,0.2-0.9,0.2c-1,0-1.2-0.9-1.4-1.8c0.3,0.3,0.7,0.5,1.1,0.5c0.4,0,1.2-0.4,1.3-0.4c0-1.4,0-2.2-0.5-2.5c0.1-0.2,0.2-0.7,0.7-0.7c0.4,0,0.9,0.5,0.9,0.9c0,0.1-0.1,0.6-0.1,0.7c-0.1,0.3-0.1,0.9-0.1,1.3c0.2-0.1,0.9-0.6,1-0.6c0.1,0,0.7,0.3,0.7,1c0,0.8-0.3,0.9-1.8,1.3c0,0.7,0,1,0,2c0.5-0.2,1-0.4,1-0.7C37.2,239.4,37.1,239.2,37,239.1L37,239.1z M34.1,245.2c-0.4,0-1.3,0-1.3,0.7c0,0.7,1.1,0.8,1.5,0.8c0.9,0,1-0.6,1-1.3C34.9,245.2,34.4,245.2,34.1,245.2z"/><path d="M45.8,248.2c0.3-0.2,1.4-0.9,2.1-2.4c-0.8-0.6-1.2-1.5-1.2-4.5c0-0.7,0-0.9,0.1-2.9c-0.9,1.5-1.4,3.7-1.4,5.2c0,0.5,0.1,1.2,0.4,1.9c0.1,0.2,0.1,0.3,0.1,0.4c0,0.4-0.2,0.8-0.6,0.8c-0.2,0-0.5-0.1-0.8-0.6c-0.3-0.6-0.9-1.6-0.9-3.8c0-1.2,0.2-2.6,0.5-5.1c0.1-0.5,0.1-0.9,0.1-1.2c0-0.6-0.1-1.1-0.3-1.8c0.9,0.7,1.4,2.1,1.4,3.2c0,0.5-0.1,0.7-0.2,1.5c-0.3,1.4-0.5,2.9-0.5,3.5c0,0.1,0,0.7,0.2,0.7c0.1,0,0.1-0.1,0.2-0.7c0.3-1.1,1.4-5.4,3.7-5.9c0-0.7-0.1-1.5-0.7-1.5c-0.2,0-0.2,0.1-0.4,0.2c0.1-0.4,0.4-1.2,0.9-1.2c0.2,0,1.1,0.1,1.1,1.2c0,0.2,0,1.2,0,1.4c0.6,0.1,2.6,0.5,2.6,4.9c0,5-2.9,4.8-3.2,4.7C48.1,247.6,46.5,248.1,45.8,248.2L45.8,248.2z M48.7,239.7c0-0.4,0-1.7-0.1-2.8c-0.7,0.2-1.3,0.8-1.6,1.3c0,0.6,0,1.2,0,1.7c0,1.8,0.1,4,1.4,4.5C48.7,243.1,48.7,240.6,48.7,239.7z M49.7,242.2c0,1.2-0.1,1.9-0.1,2.1c0.4-0.2,1.4-0.7,1.4-3.6c0-2.3-0.8-3.4-1.4-3.7C49.7,239.6,49.7,240.9,49.7,242.2z"/><path d="M57.4,248.5c1.6-0.5,2.8-1.5,2.8-6.5c0-0.3,0-2.9-0.3-3.8c-0.1-0.2-0.2-0.3-0.4-0.3c-0.7,0-1.4,2.9-1.4,5.4c0,0.5,0,0.6,0.1,1.1c0,0.2,0,0.3,0,0.3c0,0.4-0.3,0.7-0.6,0.7c-0.9,0-1.1-2.1-1.1-3.7c0-1.7,0.2-2.7,0.9-5.2c0.1-0.5,0.4-1.5,0.4-2c0-0.5-0.2-0.5-0.5-0.6c0.1-0.1,0.3-0.3,0.6-0.3c0.4,0,1.1,0.3,1.1,1.6c0,0.8-0.2,1.2-0.3,1.5c-0.7,1.5-1.3,2.8-1.3,5c0,0.1,0,0.4,0.1,0.4c0.1,0,0.1,0,0.1-0.4c0.3-1.2,1-3.1,1.4-3.7c0.2-0.3,0.5-0.6,0.9-0.6c0.8,0,1.2,1.2,1.2,1.4c0.3,0.9,0.4,2.7,0.4,3.6c0,2.5-0.2,4.8-2.5,5.7C58.2,248.6,57.6,248.5,57.4,248.5L57.4,248.5z"/><path d="M70.5,247.7c0.9-0.4,3.4-1.5,3.4-6.5c0-2.3-0.7-5.7-3.1-5.7c0.4,0.8,0.5,1.4,0.5,1.9c0,1.6-1.1,9.3-3.3,9.3c-0.7,0-0.8-0.7-0.9-1.5c-0.1-0.8-0.2-1-0.5-1.7c-0.3-0.8-0.4-1.2-0.4-1.8c0-3.8,2.5-6.7,4.9-6.7c2.2,0,4.2,2.3,4.2,6.7c0,2.9-1,4.6-2.1,5.3C72.3,247.4,71.4,247.7,70.5,247.7L70.5,247.7z M67.1,242.8c0,0.8,0.1,1.1,0.2,1.3c0.1,0.4,0.4,0.7,0.6,0.7c0.8,0,2.8-5,2.8-9.2C67.5,236.2,67.1,241.5,67.1,242.8z"/><path d="M81.9,237.2c1.1,0,3.3-0.3,3.6-0.4c0.1-0.1,0.6-0.6,0.7-0.6c0.3,0,1.2,1.4,1.2,1.6c0,0.2-0.2,0.4-0.3,0.4c-0.1,1.1-0.5,5.7-0.6,5.7c0.4,0.4,0.6,0.6,0.6,1.1c0,0.2,0,0.8-0.4,0.8c-0.1,0-0.5-0.1-0.6-0.2c-0.5-0.2-0.7-0.2-1.1-0.2c-1.1,0-3.2,0.5-3.4,0.6c-0.1,0.1-0.6,0.4-0.7,0.4c-0.3,0-1.2-1-1.2-1.9c0-0.3,0.1-0.6,0.2-0.9c0.3,1,0.9,1,1.2,1c0.1,0,3.9-0.4,4.2-0.4c0.2-1.3,0.4-5,0.4-6.2c-1,0.1-3.2,0.4-3.9,0.8c-0.1,0.1-0.6,0.4-0.7,0.4c-0.4,0-1.1-1.5-1.1-2c0-0.5,0.2-0.7,0.3-0.9C80.5,237.2,80.8,237.2,81.9,237.2z"/><path d="M91.3,247.6c4-3.9,5.1-7.6,5.7-10.9c-0.4,0.1-1.9,0.5-2.6,0.9c-0.1,0.1-0.5,0.5-0.6,0.5c-0.3,0-1.2-1-1.2-1.9c0-0.5,0.2-0.8,0.3-0.9c0.1,1,0.8,1,1,1c0.3,0,2.7-0.2,3.3-0.6c0.1,0,0.2-0.3,0.3-0.4c0.1-0.1,0.1-0.1,0.2-0.1c0.2,0,1.3,1.1,1.3,1.6c0,0.4-0.2,0.4-0.5,0.5c-0.3,1.3-0.8,2.9-1.7,4.7c1.4,0.7,3.1,2.1,3.1,4c0,1.1-0.6,1.4-0.8,1.4c-0.3,0-0.4-0.4-0.6-1.1c-0.5-1.6-1.1-3-1.8-4C95.6,244.3,94,246.4,91.3,247.6L91.3,247.6z"/><path d="M104.1,248.1c2.9-2.1,4.7-4.7,5.4-10.6c-1.2,0.2-3.3,0.8-3.7,1c-0.1,0-0.6,0.4-0.6,0.4c-0.3,0-1-1.3-1-2c0-0.4,0.1-0.6,0.3-0.8c0.4,0.8,0.8,0.8,1,0.8c0.4,0,3.6-0.3,3.9-0.6c0.1-0.1,0.2-0.1,0.4-0.4c0.1-0.1,0.1-0.1,0.2-0.1c0.3,0,0.9,0.8,1.2,1.2c0.1,0.2,0.2,0.4,0.2,0.6c0,0.4-0.4,0.8-0.5,0.8C110.1,242,109.1,246.6,104.1,248.1L104.1,248.1z M112.7,234.8c0,0.9-0.5,1.7-1.1,1.7c-0.6,0-1.1-0.8-1.1-1.7c0-1,0.5-1.7,1.1-1.7C112.2,233.1,112.7,233.9,112.7,234.8z M110.9,234.8c0,0.6,0.3,1.1,0.7,1.1c0.4,0,0.7-0.5,0.7-1.1c0-0.6-0.3-1.1-0.7-1.1C111.2,233.7,110.9,234.2,110.9,234.8z"/><path d="M124.8,236.3c-1.9,6.4-3.8,8.1-6,10c-0.1,0.1-0.2,0.2-0.4,0.5c-0.1,0.2-0.2,0.4-0.4,0.4c-0.4,0-1.1-1.6-1.1-2c0-0.2,0.2-0.9,0.2-1.1c0.1-0.6,0.1-3.9,0.1-4.8c0-2.5-0.1-2.9-0.8-2.8c0.5-0.8,0.8-0.9,1-0.9c0.5,0,1.2,1.1,1.2,1.4c0,0.1-0.2,0.8-0.2,0.9c-0.1,0.6-0.1,6-0.1,6.3C120.2,243.2,123,239.6,124.8,236.3L124.8,236.3z"/><path d="M130.7,248.1c0,0.3-0.1,0.3-0.2,0.3l-0.8,0.1c-0.2,0-0.3,0-0.3-0.4v-7.7c-0.6,1.2-1.2,1.9-1.5,2.3l0,0c1-2.3,1.8-6.6,2.1-9c0.5,0.2,1.3,0.6,1.5,0.7c0.2,0.1,0.2,0.1,0.2,0.2c0,0.2-0.3,0.2-0.4,0.2c-0.2,1.1-0.5,2-0.9,3.1c0.1,0,0.4,0.1,0.4,0.2c0,0,0.1,0,0.1,0.1c0,0.1-0.2,0.2-0.3,0.2V248.1z M136,237.4l0.4-0.8c0.1-0.2,0.1-0.3,0.2-0.3c0.1,0,0.9,1,1,1.1c0.2,0.2,0.2,0.3,0.2,0.4c0,0.2-0.1,0.3-0.4,0.4v5.1c0,0.3,0,0.4-0.2,0.4l-0.8,0.1c-0.2,0-0.3,0-0.3-0.3v-1.1h-1v5.6c0,0.2,0,0.3-0.2,0.3l-0.8,0.1c-0.2,0-0.2,0-0.2-0.3v-5.7h-1v1.2c0,0.4,0,0.4-0.2,0.4l-0.7,0.1c-0.2,0-0.3,0-0.3-0.4v-6.9c0.4,0.1,1.1,0.4,1.4,0.5h0.9v-3.7c0.4,0,1.1,0.1,1.4,0.2c0.1,0,0.2,0.1,0.2,0.1c0,0.1-0.2,0.2-0.3,0.2v3.1H136z M133.8,242.3v-4.7h-1v4.7H133.8z M135.1,237.6v4.7h1v-4.7H135.1z"/><path d="M144.9,234.9l0.3-0.7c0.2-0.4,0.2-0.4,0.2-0.4c0.1,0,1.2,1.2,1.2,1.4c0,0.2-0.3,0.3-0.5,0.4v4.1c0,0.3,0,0.4-0.2,0.4l-0.8,0.1c-0.2,0-0.2,0-0.2-0.6h-1.3v8.4c0,0.3,0,0.4-0.2,0.4l-0.9,0.1c-0.2,0-0.2-0.1-0.2-0.3v-13.7c0.5,0.1,1,0.3,1.5,0.4H144.9z M143.6,235.1v2h1.3v-2H143.6z M143.6,237.3v2.1h1.3v-2.1H143.6z M148.2,239.6c0,0.5,0,0.6-0.2,0.6l-0.8,0.1c-0.2,0-0.2-0.1-0.2-0.4v-5.4c0.3,0.1,1,0.3,1.4,0.4h1.1l0.4-0.8c0.1-0.1,0.2-0.3,0.2-0.3c0,0,1.2,1.2,1.2,1.5c0,0.1-0.1,0.2-0.4,0.4v11.5c0,0.5,0,1.3-1.1,1.3c-0.4,0-0.4-0.1-0.4-0.3c0-1.2,0-1.4-0.9-1.9v0.4c0,0.2,0,0.4-0.1,0.4l-0.8,0.1c-0.2,0-0.2-0.2-0.2-0.4v-0.7h-1.5v0.8c0,0.3,0,0.4-0.2,0.4l-0.7,0.1c-0.2,0-0.2-0.1-0.2-0.4v-6.1c0.2,0.1,1.1,0.4,1.3,0.4h1.2l0.2-0.5c0.1-0.2,0.2-0.3,0.2-0.3c0.1,0,1.2,1.1,1.2,1.4c0,0.2-0.1,0.2-0.4,0.4v4c0.2,0,0.8,0.1,0.9,0.1c0.2,0,0.2-0.1,0.2-0.5v-6.2H148.2z M145.8,241.5v2.1h1.5v-2.1H145.8z M145.8,243.8v2.2h1.5v-2.2H145.8z M149.6,237.1v-2h-1.4v2H149.6z M149.6,239.4v-2.1h-1.4v2.1H149.6z"/><path d="M156.4,236.6c0.2,0,1.3-0.4,1.5-0.4c1.2-0.4,2.5-0.6,3.7-0.9c0.4-0.1,0.4-0.1,0.8-0.4c0.1,0,0.1-0.1,0.2-0.1c0.2,0,1.4,0.5,1.4,1.5c0,0.3-0.1,0.7-0.5,0.7c-0.1,0-0.2,0-0.6-0.2c-0.4-0.1-0.8-0.2-1-0.2c-1.3,0-1.7,1.1-1.9,1.5c-0.4,0.9-0.6,2.8-0.6,4.5c0,2.8,0.9,3.1,2,3.5c0.3,0.1,0.8,0.3,0.8,1.1c0,0.8-0.2,1.1-0.6,1.1c-0.1,0-0.6,0-1.3-0.4c-1.2-0.7-1.8-1.8-1.8-4.5c0-2.8,0.8-5.5,2-6.6c-0.9,0.1-2.3,0.8-3.1,1.3c-0.5,0.3-0.5,0.3-0.7,0.3c-0.7,0-1.1-0.9-1.1-1.8c0-0.2,0-0.6,0.1-0.9C155.8,236.1,155.9,236.6,156.4,236.6z M163.3,241.1c0,0.4-0.2,0.8-0.4,0.8c-0.2,0-0.3-0.2-0.5-0.8c-0.3-0.9-0.7-1.3-0.9-1.6C162.3,239.5,163.3,240.2,163.3,241.1z M162.8,238c1,0,1.6,0.6,1.6,1.3c0,0.4-0.2,0.7-0.4,0.7c-0.2,0-0.2-0.1-0.5-0.7c-0.2-0.3-0.7-1.1-1.2-1.3C162.4,238,162.5,238,162.8,238z"/><path d="M168.3,244.3c0.6,0,1.6,0.1,2.3,0.8c0.3,0.3,0.6,0.8,0.6,1.7c0,0.7-0.3,1.2-0.8,1.2c-0.6,0-0.7-0.7-0.8-0.8c-0.2-0.8-0.4-1.9-1.5-2.8L168.3,244.3z"/><path d="M178.9,237.2c1.1,0,3.3-0.3,3.6-0.4c0.1-0.1,0.6-0.6,0.7-0.6c0.3,0,1.2,1.4,1.2,1.6c0,0.2-0.2,0.4-0.3,0.4c-0.1,1.1-0.5,5.7-0.6,5.7c0.4,0.4,0.6,0.6,0.6,1.1c0,0.2,0,0.8-0.4,0.8c-0.1,0-0.5-0.1-0.6-0.2c-0.5-0.2-0.7-0.2-1.1-0.2c-1.1,0-3.2,0.5-3.4,0.6c-0.1,0.1-0.6,0.4-0.7,0.4c-0.3,0-1.2-1-1.2-1.9c0-0.3,0.1-0.6,0.2-0.9c0.3,1,0.9,1,1.2,1c0.1,0,3.9-0.4,4.2-0.4c0.2-1.3,0.4-5,0.4-6.2c-1,0.1-3.2,0.4-3.9,0.8c-0.1,0.1-0.6,0.4-0.7,0.4c-0.4,0-1.1-1.5-1.1-2c0-0.5,0.2-0.7,0.3-0.9C177.5,237.2,177.8,237.2,178.9,237.2z"/><path d="M188.3,247.6c4-3.9,5.1-7.6,5.7-10.9c-0.4,0.1-1.9,0.5-2.6,0.9c-0.1,0.1-0.5,0.5-0.6,0.5c-0.3,0-1.2-1-1.2-1.9c0-0.5,0.2-0.8,0.3-0.9c0.1,1,0.8,1,1,1c0.3,0,2.7-0.2,3.3-0.6c0.1,0,0.2-0.3,0.3-0.4c0.1-0.1,0.1-0.1,0.2-0.1c0.2,0,1.3,1.1,1.3,1.6c0,0.4-0.2,0.4-0.5,0.5c-0.3,1.3-0.8,2.9-1.7,4.7c1.4,0.7,3.1,2.1,3.1,4c0,1.1-0.6,1.4-0.8,1.4c-0.3,0-0.4-0.4-0.6-1.1c-0.5-1.6-1.1-3-1.8-4C192.6,244.3,191,246.4,188.3,247.6L188.3,247.6z"/><path d="M201.1,248.1c2.9-2.1,4.7-4.7,5.4-10.6c-1.2,0.2-3.3,0.8-3.7,1c-0.1,0-0.6,0.4-0.6,0.4c-0.3,0-1-1.3-1-2c0-0.4,0.1-0.6,0.3-0.8c0.4,0.8,0.8,0.8,1,0.8c0.4,0,3.6-0.3,3.9-0.6c0.1-0.1,0.2-0.1,0.4-0.4c0.1-0.1,0.1-0.1,0.2-0.1c0.3,0,0.9,0.8,1.2,1.2c0.1,0.2,0.2,0.4,0.2,0.6c0,0.4-0.4,0.8-0.5,0.8C207.1,242,206.1,246.6,201.1,248.1L201.1,248.1z M209.7,234.8c0,0.9-0.5,1.7-1.1,1.7c-0.6,0-1.1-0.8-1.1-1.7c0-1,0.5-1.7,1.1-1.7C209.2,233.1,209.7,233.9,209.7,234.8z M207.9,234.8c0,0.6,0.3,1.1,0.7,1.1c0.4,0,0.7-0.5,0.7-1.1c0-0.6-0.3-1.1-0.7-1.1C208.2,233.7,207.9,234.2,207.9,234.8z"/><path d="M221.8,236.3c-1.9,6.4-3.8,8.1-6,10c-0.1,0.1-0.2,0.2-0.4,0.5c-0.1,0.2-0.2,0.4-0.4,0.4c-0.4,0-1.1-1.6-1.1-2c0-0.2,0.2-0.9,0.2-1.1c0.1-0.6,0.1-3.9,0.1-4.8c0-2.5-0.1-2.9-0.8-2.8c0.5-0.8,0.8-0.9,1-0.9c0.5,0,1.2,1.1,1.2,1.4c0,0.1-0.2,0.8-0.2,0.9c-0.1,0.6-0.1,6-0.1,6.3C217.2,243.2,220,239.6,221.8,236.3L221.8,236.3z"/><path d="M225,245.5c2-1.5,3.9-4,5-6.9c-0.8,0.3-2.1,0.9-2.2,1c-0.4,0.4-0.5,0.4-0.6,0.4c-0.4,0-1-1.2-1-1.9c0-0.3,0.1-0.5,0.2-0.8c0.1,0.4,0.2,0.9,0.9,0.9c0.4,0,2.5-0.4,2.9-0.6c0.1-0.1,0.4-0.5,0.5-0.5c0.3,0,1.2,1,1.2,1.5c0,0.3-0.1,0.4-0.6,0.7c-0.7,1.4-1.4,2.3-1.5,2.4c0.3,0.3,0.4,0.4,0.4,0.6c0,0.1-0.1,0.5-0.1,0.5c0,0.2,0,0.4,0,1c0,0.5,0.1,2.9,0.1,3.2c0,0.8-0.3,1.4-0.6,1.4c-0.5,0-0.6-0.9-0.8-2.2c0.2-1,0.2-1.6,0.2-3.4C227.7,244.2,226.5,245.2,225,245.5L225,245.5z M228.9,234.1c1.1,0,1.8,0.7,1.8,1.6c0,0.7-0.3,1-0.6,1c-0.2,0-0.3,0-0.6-0.6c-0.6-1-1.5-1.5-2-1.8C227.8,234.2,228.3,234.1,228.9,234.1z M233.5,244.4c0,0.8-0.4,1.3-0.7,1.3c-0.3,0-0.4-0.2-0.6-1c-0.2-0.7-1-2.3-1.9-3.1C231,241.8,233.5,242.3,233.5,244.4z"/><path d="M239.2,240.5c0.4,0,5.3-0.2,5.7-0.2c0.1,0,0.7-0.1,0.8-0.1c0.1,0,1.3,0.2,1.3,0.9c0,0.2-0.1,0.5-0.5,0.7c-0.3,0.2-0.8,0.2-1.2,0.2c-4.8,0-5.3,0-5.7,0.2c-0.1,0-0.7,0.4-0.8,0.4c-0.3,0-1.2-1-1.2-2.1c0-0.4,0.1-0.6,0.3-0.9C238,240.4,238.7,240.5,239.2,240.5z"/><path d="M257.4,244.2c-0.4-1.9-1-2.9-1.4-3.5c1.7,1,3.1,2.7,3.1,4.7c0,1.1-0.6,1.4-0.9,1.4c-0.4,0-0.5-0.4-0.5-0.5c-0.1-0.2-0.2-1.4-0.2-1.6c-0.1,0.1-4,1.5-4.6,1.6c-0.3,0.1-0.4,0.1-0.7,0.4c-0.1,0.1-0.1,0.1-0.2,0.1c-0.2,0-1.2-1.2-1.2-2.1c0-0.2,0.1-0.6,0.3-1c0.2,0.9,0.5,0.9,1.2,0.9c0.7-2.6,1.6-7.5,1.6-8.9c0-0.2,0-0.6-0.6-0.6c0.2-0.3,0.4-0.7,1-0.7c0.4,0,1.3,0.6,1.3,1.1c0,0.1-0.1,0.3-0.2,0.7c-0.1,0.2-0.5,1.8-0.5,2.1c-0.2,0.6-1.1,4-1.9,6.3C255,244.4,255.3,244.4,257.4,244.2z"/><path d="M265.7,241.4c-0.2,1.2-0.5,3.2-0.5,4.2c0,0.4,0,0.5,0.2,1.2c0.1,0.2,0.1,0.4,0.1,0.5c0,0.4-0.3,0.7-0.6,0.7c-1.2,0-1.3-3.3-1.3-4.9c0-1.9,0.2-3.3,0.6-6.2c0.2-1.3,0.2-1.7,0.2-2c0-0.4,0-0.6-0.1-0.9c0.8,1,1.1,2.2,1.1,2.7c0,0.4-0.1,0.8-0.3,1.4c-0.2,0.8-0.7,2.6-0.7,5c0,0.6,0.1,0.6,0.2,0.6c0.1,0,0.1-0.1,0.2-0.4C265.2,242.8,265.6,241.5,265.7,241.4L265.7,241.4z M270.3,236.9c0.2,0.2,0.4,0.2,0.8,0.3c0.2,0,0.4,0.2,0.4,0.6c0,1.1-1.4,1.6-1.7,1.7c0.1,2.4,0.2,3.5,0.2,4.3c0.9,0.4,1.8,1.3,1.8,2.4c0,0.5-0.3,0.9-0.6,0.9c-0.2,0-0.3-0.1-0.7-0.7c-0.2-0.4-0.3-0.5-0.5-0.6c0.1,2-1.2,2.1-1.5,2.1c-0.2,0-1.7-0.1-1.9-1.3c0-0.2-0.2-1.2-0.2-1.5c0-1.6,1.7-1.6,2.1-1.6c0.2,0,0.4,0,0.5,0c-0.1-1.4-0.1-2.5-0.1-3.7c-0.1,0-0.3,0-0.5,0c-1.1,0-1.4-1.1-1.7-2c0.3,0.3,0.6,0.6,1.2,0.6c0.3,0,0.6-0.1,1-0.2c0-0.4,0-2.6-0.1-2.8c0-0.2-0.2-0.4-0.5-0.4c0.1-0.4,0.4-0.7,0.7-0.7c0.3,0,1,0.5,1,1.1c0,0.1-0.1,0.7-0.1,0.8c-0.1,0.8-0.2,1-0.2,1.6c0.3-0.2,0.5-0.4,0.5-0.6C270.4,237.1,270.3,237,270.3,236.9L270.3,236.9z M268.1,244.8c-0.2,0-1.1,0-1.1,0.7c0,0.7,0.4,0.7,0.8,0.7c0.9,0,1.3-0.3,1.2-1.2C268.8,244.8,268.3,244.8,268.1,244.8z"/><path d="M277.4,234c-1.1,0.8-1.1,2.3-1.1,2.6c0,0.1,0,0.1,0,0.2c0.1-0.4,0.3-0.7,0.6-0.7c0.4,0,0.7,0.4,0.7,1.1c0,0.7-0.3,1.2-0.7,1.2c-0.2,0-0.9-0.2-0.9-1.6c0-1.1,0.4-2.5,1.3-3L277.4,234z M279.9,234c-1.1,0.8-1.1,2.3-1.1,2.6c0,0,0,0.2,0,0.2c0.1-0.3,0.2-0.7,0.6-0.7c0.4,0,0.7,0.4,0.7,1.1c0,0.7-0.3,1.2-0.7,1.2c-0.2,0-0.9-0.2-0.9-1.6c0-1.2,0.4-2.5,1.3-3L279.9,234z"/><path d="M284.3,247.7c2.5-1.7,4.8-4.1,5.6-10.4c-0.4,0.1-3.6,0.6-4,1c-0.4,0.4-0.4,0.4-0.5,0.4c-0.4,0-0.9-1.2-0.9-2c0-0.3,0.1-0.5,0.2-1c0.4,0.9,0.7,1.1,1.2,1.1c0.9,0,3.7-0.3,3.9-0.5c0.1-0.1,0.2-0.3,0.4-0.5c0.1-0.1,0.2-0.3,0.3-0.3c0.3,0,1.3,1.5,1.3,1.9c0,0.2-0.3,0.5-0.5,0.7C290.3,242.4,289.3,246.4,284.3,247.7L284.3,247.7z"/><path d="M296,248.1c2.9-2.1,4.7-4.7,5.4-10.6c-1.2,0.2-3.3,0.8-3.7,1c-0.1,0-0.6,0.4-0.6,0.4c-0.3,0-1-1.3-1-2c0-0.4,0.1-0.6,0.3-0.8c0.4,0.8,0.8,0.8,1,0.8c0.4,0,3.6-0.3,3.9-0.6c0.1-0.1,0.2-0.1,0.4-0.4c0.1-0.1,0.1-0.1,0.2-0.1c0.3,0,0.9,0.8,1.2,1.2c0.1,0.2,0.2,0.4,0.2,0.6c0,0.4-0.4,0.8-0.5,0.8C302,242,301,246.6,296,248.1L296,248.1z M303.4,235.6c0,0.4-0.2,0.8-0.4,0.8c-0.3,0-0.3-0.1-0.5-0.9c-0.1-0.2-0.3-1-0.8-1.8C303.1,234.1,303.4,235.1,303.4,235.6z M304.6,235c0,0.5-0.2,0.7-0.4,0.7c-0.2,0-0.2-0.1-0.4-0.7c-0.1-0.2-0.4-1.1-1.1-1.8C304.1,233.4,304.6,234.2,304.6,235z"/><path d="M314,236.6c0.3-0.3,0.3-0.3,0.4-0.3c0.2,0,0.7,0.2,0.9,0.4c0.4,0.2,0.4,0.4,0.4,0.6c0,0.7-0.4,0.7-0.6,0.8c-1.1,0-1.2,0.1-2.3,0.3c0.1,1.1,0.2,2.1,0.3,3.2c0.6-0.2,1.6-0.5,1.7-0.5c0.1,0,0.1-0.1,0.3-0.4c0.1-0.1,0.2-0.3,0.4-0.3c0.1,0,1.5,0.7,1.5,1.4c0,0.6-0.3,0.6-0.4,0.6c-0.1,0-0.8-0.2-1-0.2c-0.1,0-0.2,0-0.4,0c-0.2,0-1,0-2.1,0.4c0.2,1.8,0.2,2,0.3,2.8c0,0.3,0.2,1.5,0.2,1.8c0,0.8-0.3,1.4-0.6,1.4c-0.4,0-0.7-1.2-0.8-1.8c0-0.2,0-1.3,0-1.5c0-0.7,0-1.3-0.1-2.4c-0.8,0.3-2.3,0.9-2.7,1.4c-0.2,0.2-0.3,0.2-0.4,0.2c-0.4,0-1.1-1.1-1.1-1.7c0-0.3,0.1-0.6,0.1-0.8c0.2,0.3,0.4,0.8,0.9,0.8c0.2,0,0.5-0.1,3-0.9c-0.1-1.1-0.1-1.7-0.2-3.2c-0.8,0.2-1.5,0.6-1.7,0.7c-0.3,0.2-0.3,0.2-0.5,0.2c-0.5,0-1.2-0.8-1.2-1.6c0-0.1,0-0.2,0.1-0.5c0.6,0.5,0.8,0.6,1.2,0.6c0.3,0,1.5-0.4,1.9-0.5c-0.3-2.5-0.3-2.8-0.8-2.8c0,0-0.1,0-0.2,0c0.2-0.6,0.4-1,0.9-1c0.4,0,1.1,0.4,1.1,0.8c0,0.1-0.1,0.4-0.1,0.5c0,0.1,0,0.2,0,0.4c0,0.2,0,0.3,0.1,1.8C313.6,237,313.8,236.9,314,236.6z"/><path d="M321.6,238.2c1.1-0.8,1.1-2.3,1.1-2.6c0,0,0-0.1,0-0.2c-0.1,0.3-0.3,0.7-0.6,0.7c-0.4,0-0.7-0.4-0.7-1.1c0-0.7,0.3-1.2,0.7-1.2c0.2,0,0.9,0.2,0.9,1.6c0,1.3-0.4,2.5-1.3,3L321.6,238.2z M324.1,238.2c1.1-0.8,1.1-2.3,1.1-2.6c0,0,0-0.1,0-0.2c-0.1,0.3-0.3,0.7-0.6,0.7c-0.4,0-0.7-0.4-0.7-1.1c0-0.7,0.3-1.2,0.7-1.2c0.2,0,0.9,0.2,0.9,1.6c0,1.2-0.4,2.5-1.3,3L324.1,238.2z"/><path d="M333,245.6c0,1.3-0.7,2.4-1.6,2.4s-1.6-1.1-1.6-2.4c0-1.4,0.7-2.4,1.6-2.4C332.2,243.1,333,244.2,333,245.6z M330.2,245.6c0,1,0.5,1.8,1.2,1.8c0.7,0,1.2-0.8,1.2-1.8c0-1-0.5-1.8-1.2-1.8C330.7,243.8,330.2,244.6,330.2,245.6z"/><path d="M34.5,268.7c0,1.2-0.4,2.8-1.4,2.8c-0.6,0-0.7-0.8-0.7-1c0-0.5,0.2-0.7,0.6-1.1c0.7-0.7,1-1.4,1.3-2.8C34.4,267.1,34.5,267.8,34.5,268.7z M34.8,270.1c0.7,0.2,0.8,0.2,0.9,0.2c0.2,0,0.3-0.2,0.3-0.8c0-0.6,0.1-3.2,0.1-5c-1.1,0.2-1.2,0.3-2,0.6c0,0-0.5,0.2-0.6,0.2c-0.4,0-1.1-0.9-1.1-1.8c0-0.4,0.1-0.6,0.2-0.8c0.2,0.6,0.7,0.9,1.3,0.9c0.3,0,0.4,0,2.2-0.3c0-0.5,0-2.4-0.2-2.8c-0.1-0.2-0.3-0.4-0.7-0.4c0.2-0.4,0.5-1,0.9-1c0.4,0,1.2,0.6,1.2,1c0,0.1-0.2,0.6-0.2,0.7c0,0.3,0,1.8,0,2.2c1.2-0.3,1.7-0.4,1.9-1c0.5,0.1,1,0.4,1.4,0.8c0.2,0.2,0.2,0.4,0.2,0.6c0,0.2-0.1,0.7-0.4,0.7c0,0-0.6-0.1-0.7-0.1c-0.4-0.1-0.7-0.1-0.9-0.1c-0.5,0-1.3,0.2-1.6,0.2c0,2.8,0,3.6,0.1,4.9c0,0.2,0.1,1.3,0.1,1.5c0,1-0.5,2.2-1,2.2c-0.3,0-0.3-0.2-0.4-0.8C35.8,271.7,35.6,270.8,34.8,270.1L34.8,270.1z M40.9,270c0,1.4-0.7,1.4-0.8,1.4c-0.5,0-0.5-0.6-0.6-1.1c-0.2-1.5-0.7-2.9-1.4-4.1C38.8,266.7,40.9,267.9,40.9,270z M40.2,261.1c0,0.5-0.2,0.8-0.4,0.8c-0.2,0-0.2-0.1-0.5-0.9c-0.4-1.1-0.6-1.4-0.9-1.7C39.5,259.5,40.2,260.2,40.2,261.1z M41.5,260c0,0.4-0.1,0.7-0.4,0.7c-0.2,0-0.2-0.1-0.5-0.7c-0.1-0.1-0.4-0.8-1-1.5C40.2,258.5,41.5,258.8,41.5,260z"/><path d="M46.7,265.5c0.4,0,5.3-0.2,5.7-0.2c0.1,0,0.7-0.1,0.8-0.1c0.1,0,1.3,0.2,1.3,0.9c0,0.2-0.1,0.5-0.5,0.7c-0.3,0.2-0.8,0.2-1.2,0.2c-4.8,0-5.3,0-5.7,0.2c-0.1,0-0.7,0.4-0.8,0.4c-0.3,0-1.2-1-1.2-2.1c0-0.4,0.1-0.6,0.3-0.9C45.5,265.4,46.2,265.5,46.7,265.5z"/><path d="M58.1,269.8c3.1-3,5.6-8.6,5.6-9.5c0-0.2,0-0.4-0.6-0.8c0.1-0.1,0.4-0.3,0.7-0.3c0.6,0,1.5,1.1,1.5,1.8c0,0.2,0,0.2-0.2,0.5c-0.3,0.3-1.3,2.4-1.6,2.8c0.1,0.1,0.5,0.4,0.5,0.7c0,0,0,0.1-0.1,0.4c-0.1,0.4-0.1,0.6-0.1,1.7c0,0.8,0.1,4.8,0.1,5c0,0.9-0.4,1.2-0.6,1.2c-0.6,0-0.8-1.5-0.8-1.8c0-0.2,0.1-1.2,0.1-1.4c0-0.5,0.1-1.3,0.1-3c0-0.5,0-1,0-1.5C61.1,267.9,59.3,269.3,58.1,269.8L58.1,269.8z"/><path d="M71.7,266.4c0,0.6-0.3,0.9-0.6,0.9c-0.3,0-0.4-0.2-0.6-1c-0.2-0.8-0.5-1.5-0.9-2C71.2,264.6,71.7,265.6,71.7,266.4z M70.1,273c2.8-1.3,3.8-3.8,4.5-6c0.2-0.9,0.6-2.2,0.6-2.5c0-0.4-0.2-0.5-0.6-0.5c0.1-0.2,0.3-0.5,0.6-0.5c0.5,0,1.3,0.8,1.3,1.3c0,0.2-0.1,0.3-0.2,0.5C75.4,268.5,74.4,272.4,70.1,273L70.1,273z M73.7,265.4c0,0.6-0.3,1.1-0.6,1.1c-0.3,0-0.4-0.2-0.5-1c0-0.1-0.2-1.5-0.9-2.4C72.9,263.5,73.7,264.5,73.7,265.4z"/><path d="M81.3,263.6c1.2,0,2.1,0.7,2.1,1.8c0,0.6-0.3,1.1-0.7,1.1c-0.3,0-0.4-0.2-0.7-1c-0.1-0.2-0.5-1.2-1.4-1.9C80.8,263.6,81,263.6,81.3,263.6z M89.1,261.7c-0.8,3.9-2.8,7.5-5.6,9.6c-0.6,0.4-0.9,0.7-1.1,0.9c-0.2,0.3-0.2,0.3-0.3,0.3c-0.3,0-1.3-1.6-1.3-2.5c0-0.5,0.2-0.8,0.3-1c0.1,0.6,0.2,1,0.6,1c0.5,0,1.7-0.8,2.6-1.6C86.3,266.7,88.2,264,89.1,261.7L89.1,261.7z M82.5,259.9c1.2,0,1.8,0.8,1.8,1.6c0,0.7-0.4,1.1-0.7,1.1c-0.3,0-0.3-0.1-0.8-1.1c-0.5-1-1-1.3-1.4-1.5C81.7,259.9,82.1,259.9,82.5,259.9z"/><path d="M99,269.8c0.1,0,0.3,0.1,0.8,0.4c0.3,0.2,0.6,0.4,0.6,0.9c0,0.5-0.3,0.6-0.5,0.6c-0.1,0-0.8-0.3-0.9-0.3c-0.3-0.1-0.7-0.1-0.9-0.1c-1.1,0-3.6,0.5-3.7,0.5c-0.1,0-0.5,0.3-0.6,0.3c-0.1,0-0.9-0.5-0.9-1.5c0-0.3,0.1-0.6,0.1-0.7c0.3,0.6,0.7,0.8,1,0.8c0,0,2.4-0.2,2.9-0.2c0-0.2,0.3-2.5,0.3-4.6c-0.2,0-1.4,0.2-1.9,0.5c-0.1,0-0.5,0.3-0.5,0.3c-0.3,0-0.8-1-0.8-1.5c0-0.3,0.1-0.4,0.1-0.5c0.2,0.5,0.6,0.5,0.8,0.5c0.3,0,2.2-0.1,2.3-0.2c0.1-0.1,0.5-0.6,0.6-0.6c0.2,0,1,0.8,1,1.1c0,0.1-0.3,0.6-0.4,0.7c0,0.1-0.3,3.4-0.4,4C98.6,270.3,98.7,270.2,99,269.8z"/><path d="M108.4,260.2c0.1,0.1,0.2,0.1,0.3,0.1c0.1,0,0.3,0,0.4,0c0.3,0,0.5,0.5,0.5,0.8c0,0.7-1.3,1.6-2,2c-0.1,0.6-0.4,1.5-0.5,2c0.7-1.2,2-3,3.8-3c1.2,0,2,1.4,2,2c0,0.4-0.2,1.1-0.6,1.1c-0.2,0-0.4-0.2-0.7-0.5c-0.2-0.2-0.4-0.4-0.8-0.4c-0.6,0-0.8,0.5-0.8,1.2c0,0.5,0.1,1.8,0.4,3.7c1.4,0.5,2,1.8,2,2.4c0,0.3-0.1,1.2-0.6,1.2c-0.2,0-0.3-0.1-0.8-0.8c-0.2-0.4-0.4-0.5-0.6-0.7c0,0.9-0.1,2-1.4,2c-0.5,0-2-0.1-2-2.2c0-2.2,1.6-2.2,2.2-2.1c0-0.5,0-1.1,0-1.6c0-2.7,1.2-3.2,1.4-3.3c0.4-0.2,0.6-0.2,0.6-0.5c0-0.3-0.5-0.8-1.2-0.8c-0.2,0-1.7,0.1-2.9,3c-0.6,1.4-1,2.9-1.4,4.4c-0.1,0.4-0.4,0.7-0.7,0.7c-0.3,0-0.5-0.8-0.5-1.6c0-0.3,0-0.3,0.3-0.8c0.2-0.3,1-1.7,1.7-4.9c-0.4,0.2-0.6,0.2-0.9,0.2c-1,0-1.2-1.9-1.2-2.6c0.3,0.6,0.5,0.9,1.1,0.9c0.4,0,0.7-0.1,1.3-0.4c0.2-0.9,0.2-1.5,0.2-1.8c0-0.5-0.1-0.7-0.6-0.7c0.3-0.3,0.5-0.5,0.9-0.5c0.3,0,0.9,0.3,0.9,1.2c0,0.4-0.1,0.7-0.2,1.3c0.2-0.1,0.5-0.4,0.5-0.5C108.5,260.4,108.5,260.4,108.4,260.2L108.4,260.2z M108.5,270.4c-0.2,0-0.9,0-0.9,0.5c0,0.7,0.8,0.8,0.9,0.8c0.8,0,0.8-0.8,0.8-1.3C109,270.4,108.7,270.4,108.5,270.4z"/><path d="M121.1,261.3c0.1-0.2,0.2-0.3,0.2-0.3c0.1,0,0.8,1.1,1,1.3c0.2,0.2,0.2,0.3,0.2,0.5c0,0.2-0.1,0.3-0.2,0.3c0.4,1,0.8,1.6,1,1.9v-6.2c0.6,0.1,0.7,0.1,1.4,0.2c0.1,0,0.2,0,0.2,0.1c0,0.2-0.2,0.3-0.3,0.3v6.8c0.4,0.2,1,0.6,2.2,0.7v0c-0.1,0.1-0.6,0.5-0.6,1.6c0,0.3,0,0.6-0.2,0.6c-0.1,0-0.7-0.2-1.3-0.7v4.6c0,0.2,0,0.4-0.2,0.4l-0.9,0.1c-0.2,0-0.2-0.1-0.2-0.3v-6.5c-0.3-0.7-0.8-1.8-1.1-3.6c0,0,0,0-0.1,0c-0.7,7.3-4.5,9.8-5.4,10.1l0,0c1.6-1.7,2.6-3.8,3.2-5.9c-0.2,0.4-0.5,0.5-0.7,0.5s-0.2-0.1-0.2-0.4c0-0.6-0.2-1.8-0.6-2.6c-0.4,0.8-0.9,1.6-1.6,2.5h-0.1c0.7-1.9,1.7-6.4,1.7-8.7c0.3,0.1,1.8,0.4,1.8,0.7c0,0.1-0.3,0.2-0.3,0.2c-0.2,1-0.3,1.7-0.5,2.4h1.3L121.1,261.3z M119.4,262.2c-0.1,0.4-0.4,1.3-0.8,2.3c0.2,0,1.7,0.3,1.5,2.1c0.2-1,0.6-2.3,0.7-4.4H119.4z"/><path d="M136.5,266.9v3.7c0,0.5,0,0.7,0.4,0.7h1.1c0.6,0,0.8-0.5,1.7-3h0c0,0.2-0.2,1.8-0.2,2.3c0,0.3,0,0.3,0.2,0.6c0.1,0.1,0.2,0.4,0.2,0.8c0,1.3-1.1,1.3-1.5,1.3h-1.8c-0.9,0-1.6,0-1.6-1.4v-4.9h-1.9v0.4c0.4,0.1,1.1,0.4,1.5,0.6c0.1,0.1,0.1,0.1,0.1,0.1c0,0.1,0,0.1-0.3,0.2c-0.4,2.1-1.1,4.5-4.3,5.3v0c1.7-1.3,2.7-3.5,2.9-5.6l-1,0.1c-0.2,0-0.2-0.1-0.2-0.3v-8.5c0.5,0.1,1.3,0.4,1.5,0.6h3.4l0.4-0.9c0.1-0.2,0.1-0.3,0.2-0.3c0.1,0,0.8,0.9,1,1.1c0.2,0.3,0.2,0.3,0.2,0.4c0,0.2,0,0.2-0.4,0.5v7c0,0.2,0,0.4-0.2,0.4l-0.9,0.1c-0.1,0-0.2,0-0.2-0.3v-0.8H136.5z M133.3,260v2.1h3.7V260H133.3z M133.3,262.2v2.1h3.7v-2.1H133.3z M137,266.8v-2.3h-3.7v2.3H137z"/><path d="M145,261.6c0.2,0,1.3-0.4,1.5-0.4c1.2-0.4,2.5-0.6,3.7-0.9c0.4-0.1,0.4-0.1,0.8-0.4c0.1,0,0.1-0.1,0.2-0.1c0.2,0,1.4,0.5,1.4,1.5c0,0.3-0.1,0.7-0.5,0.7c-0.1,0-0.2,0-0.6-0.2c-0.4-0.1-0.8-0.2-1-0.2c-1.3,0-1.7,1.1-1.9,1.5c-0.4,0.9-0.6,2.8-0.6,4.5c0,2.8,0.9,3.1,2,3.5c0.3,0.1,0.8,0.3,0.8,1.1c0,0.8-0.2,1.1-0.6,1.1c-0.1,0-0.6,0-1.3-0.4c-1.2-0.7-1.8-1.8-1.8-4.5c0-2.8,0.8-5.5,2-6.6c-0.9,0.1-2.3,0.8-3.1,1.3c-0.5,0.3-0.5,0.3-0.7,0.3c-0.7,0-1.1-0.9-1.1-1.8c0-0.2,0-0.6,0.1-0.9C144.4,261.1,144.5,261.6,145,261.6z M151.9,266.1c0,0.4-0.2,0.8-0.4,0.8c-0.2,0-0.3-0.2-0.5-0.8c-0.3-0.9-0.7-1.3-0.9-1.6C150.8,264.5,151.9,265.2,151.9,266.1z M151.4,263c1,0,1.6,0.6,1.6,1.3c0,0.4-0.2,0.7-0.4,0.7c-0.2,0-0.2-0.1-0.5-0.7c-0.2-0.3-0.7-1.1-1.2-1.3C151,263,151.1,263,151.4,263z"/><path d="M166.5,271.3c-0.7,0.4-0.8,0.8-0.9,1.5c0,0.2-0.1,0.3-0.3,0.3c-0.3,0-1.4-0.8-2.3-2.9c-1.1-2.6-1.2-6.6-1.3-8.5c-0.2,6.2-1.5,9.9-5.4,11.5l0,0c3.8-3.4,4-8.5,4-14.4c1,0.1,1.5,0.2,1.6,0.2c0,0,0.1,0,0.1,0.1c0,0.1,0,0.1-0.3,0.3c0,0.4,0,0.8,0,1C161.9,262.6,162.5,269,166.5,271.3L166.5,271.3z"/><path d="M177.7,260.8l0.6-1.3c0.1-0.1,0.1-0.2,0.1-0.2c0.1,0,1.3,1.5,1.3,1.6c0,0.1-0.1,0.1-0.1,0.1h-6.8c-0.5,1.1-1.4,2.9-2.7,4l0,0c0.8-1.7,1.3-3.5,1.8-6.2c0.3,0.1,1.4,0.5,1.6,0.6c0.1,0,0.1,0.1,0.1,0.1c0,0.2-0.3,0.2-0.4,0.2c-0.2,0.5-0.3,0.8-0.5,1.1H177.7z M170.2,273.6c1-1.2,2.1-3.2,2.7-4.6c-0.2-0.3-1.5-2.3-2.2-2.8v0c1.4,0.8,2,1.2,2.7,1.6c0.6-1.6,0.8-2.3,0.9-2.8c0.6,0.5,1.1,0.9,1.3,1.1c0,0,0.1,0.1,0.1,0.2c0,0.1-0.1,0.1-0.1,0.1c-0.1,0-0.2,0-0.2-0.1c-0.2,0.4-0.4,1.2-1,2.4c1,1.2,1.5,2.1,1.5,3.2c0,1.2-0.6,1.4-0.8,1.4c-0.2,0-0.3-0.1-0.4-0.4c-0.3-0.8-0.7-1.8-1.2-2.7C172.6,271.6,171.5,272.8,170.2,273.6L170.2,273.6z M170.7,264.7l-0.1-0.2h5.8l0.4-0.8c0.1-0.1,0.1-0.2,0.2-0.2c0.1,0,0.2,0.1,0.4,0.4c0.2,0.3,0.9,1.1,0.9,1.2c0,0.2-0.3,0.4-0.4,0.4c0,2.3,0.1,3.3,0.3,4.2c0.1,0.5,0.4,1,0.5,1c0.2,0,0.6-1,1-2h0c-0.1,0.4-0.3,2-0.3,2.4c0,0.3,0,0.5,0.1,0.7c0.2,0.4,0.2,0.5,0.2,0.7c0,0.5-0.2,1.1-0.7,1.1c-0.5,0-1.2-0.6-1.8-2.1c-0.7-1.7-0.7-4.4-0.7-6.4v-0.3H170.7z M177.2,262.6l0.6-1.1c0.1-0.1,0.1-0.2,0.1-0.2c0.1,0,1.1,1.2,1.1,1.4c0,0.1-0.1,0.1-0.1,0.1h-6.5l-0.1-0.2H177.2z"/><path d="M187.2,260c0-0.4-0.1-0.6-0.5-0.8c0.1-0.2,0.3-0.6,0.7-0.6c0.5,0,0.9,0.5,0.9,1c0,0.2,0,0.3-0.3,1c0.1-0.1,0.2-0.1,0.3-0.3c0.2-0.2,0.2-0.2,0.3-0.2c0.4,0,0.9,0.3,0.9,1c0,0.3-0.1,0.4-0.2,0.5c-0.2,0.2-1,0.5-2,1c-0.1,0.3-0.4,1.3-0.5,1.6c0.3-0.3,0.6-0.4,0.9-0.4c0.8,0,0.9,1.5,0.9,2c0.3-0.9,1.1-2.6,2.3-2.6c0.9,0,1.5,0.8,1.5,2.1c0,1-0.4,1.3-1.1,1.6c-1.4,0.6-2.2,0.9-2.8,1.3c0,0.2,0,1.3,0,1.5c0,0.3,0,0.8-0.6,0.8c-0.7,0-0.7-0.9-0.7-1.6c-0.4,0.3-0.8,0.7-0.8,1.5c0,0.7,0.5,0.8,1.1,0.8c0.7,0,1.3-0.2,1.8-0.3c0.1,0,0.2-0.1,0.3-0.1c0.2,0,0.9,0.3,0.9,1.1c0,1-1,1.2-2,1.2c-0.7,0-1.8-0.2-2.4-0.8c-0.3-0.3-0.4-0.7-0.4-1.3c0-0.8,0.3-1.6,1.6-2.6c0.1-1,0.2-1.6,0.2-2.4c0-0.6,0-1.7-0.5-1.7c-0.3,0-0.4,0.3-1.2,2.1c-0.5,1.2-1.2,2.5-1.7,2.5c-0.3,0-0.5-0.3-0.5-1c0-0.7,0.2-0.9,0.6-1.4c0.8-0.8,1.4-1.9,1.9-3.5c-0.2,0.1-0.4,0.1-0.5,0.1c-0.8,0-1-1.4-1.1-2.2c0.2,0.3,0.7,0.6,1,0.6c0.2,0,0.5-0.1,1.1-0.4C187.1,260.6,187.2,260.3,187.2,260z M191,265.7c0.2-0.2,0.4-0.5,0.4-0.9c0-0.4-0.3-0.9-0.8-0.9c-0.2,0-0.5,0-1,0.8c-0.5,0.7-0.6,1.3-0.8,3.1C189.8,266.9,190.3,266.5,191,265.7z"/><path d="M199.4,261.2l-0.1-0.2h2.7v-2.3c0.1,0,1.2,0.1,1.4,0.1c0,0,0-0.1-0.1-0.1l0,0c1.4,0.1,1.5,0.8,1.5,1.2c0,0.4-0.2,0.8-0.6,0.8c-0.4,0-0.4-0.3-0.5-0.7c0-0.2-0.1-0.6-0.3-1c-0.1,0.1-0.1,0.1-0.2,0.1v1.9h1.4l0.5-1.1c0.1-0.2,0.1-0.2,0.2-0.2c0.1,0,0.9,1.2,0.9,1.4c0,0.1-0.1,0.1-0.1,0.1h-2.8v1.3h0.9l0.3-0.6c0.1-0.3,0.2-0.4,0.2-0.4c0.1,0,1.1,1.1,1.1,1.4c0,0.1-0.1,0.2-0.2,0.3c-0.1,0.1-0.2,0.1-0.2,0.2v3.3c0,0.3,0,0.3-0.2,0.4l-0.8,0.1c-0.2,0-0.2,0-0.2-0.4h-3c0,0.7,0,0.8-0.2,0.8l-0.7,0.1c-0.2,0-0.3,0-0.3-0.4v-3.4h-1.1v9.3c0,0.3,0,0.4-0.3,0.5l-0.8,0.1c-0.2,0-0.2,0-0.2-0.4v-9.5h-1.1l0-0.2h1.1v-4.8c0.2,0,1.2,0.1,1.4,0.1c0,0,0.2,0,0.2,0.1c0,0.1,0,0.1-0.3,0.3v4.3h0.1l0.4-0.9c0-0.1,0.1-0.3,0.2-0.3s0.3,0.4,0.5,0.7v-1c0.3,0.1,0.4,0.1,1.4,0.5h0.7v-1.3H199.4z M204.7,268.4l0.5-1c0.1-0.2,0.1-0.2,0.2-0.2c0.1,0,0.9,1.2,0.9,1.3c0,0.1-0.1,0.1-0.1,0.1h-1.8v3.4c0,0.6,0,1.2-0.7,1.4c-0.2,0.1-0.6,0.2-0.8,0.2c-0.2,0-0.3-0.1-0.3-0.3c0-0.1,0-0.4,0-0.4c0-0.8-0.3-1-1.1-1.4v-0.1c0.2,0,1.1,0,1.2,0c0.3,0,0.4,0,0.4-0.4v-2.4h-4l0-0.2h4.1V267c0.6,0.1,0.7,0.1,1.3,0.2c0.1,0,0.2,0,0.2,0.1c0,0.1-0.1,0.1-0.2,0.2v0.8H204.7z M199.8,268.8c0.9,0.3,1.8,0.9,1.8,2c0,0.5-0.2,1.1-0.8,1.1c-0.4,0-0.4-0.2-0.5-0.9C200.3,270.9,200.3,269.9,199.8,268.8L199.8,268.8z M202,264.4v-1.8h-0.9v1.8H202z M202,266.5v-1.8h-0.9v1.8H202z M203.2,262.7v1.8h0.9v-1.8H203.2z M203.2,264.6v1.8h0.9v-1.8H203.2z"/><path d="M217.2,261.1c0.4,0.3,0.5,0.3,1.1,0.4c0.7,0.2,1,0.5,1,1c0,0.2-0.2,0.8-0.5,0.8c-0.2,0-1-0.4-1.2-0.4c-0.2-0.1-0.5-0.1-0.9-0.1c-0.4,0-0.9,0.1-1.1,0.1c0,1.1,0,1.6,0,2.2c0.1,0.2,0.3,0.6,0.4,1.2c0.1,0.6,0.3,1.4,0.3,2.4c0,4.3-3.2,4.8-4.3,4.8v-0.1c1.7-0.5,2.8-1.7,2.8-3.3c-0.2,0.3-0.5,0.4-0.6,0.4c-0.7,0-0.8-1-0.8-1.6c0-0.5-0.1-0.9-0.2-1.3c-0.1-0.6-0.1-0.8-0.1-1.1c0-1.2,0.7-2.1,1.4-2.1c0.1,0,0.1,0,0.2,0c0-0.2,0-0.3,0-1.4c-0.5,0.1-1.9,0.5-2.9,1.1c-0.4,0.2-0.4,0.3-0.5,0.3c-0.2,0-0.5-0.3-0.7-0.7c-0.2-0.5-0.2-0.9-0.3-1.6c0.3,0.2,0.6,0.4,1,0.4c0.4,0,1.4-0.2,1.5-0.2c0.3-0.1,1.7-0.4,1.9-0.4c0-2.3,0-2.6-0.5-2.7c0.1-0.3,0.2-0.6,0.6-0.6c0.1,0,1.2,0.2,1.2,1.4c0,0.1-0.2,1.5-0.2,1.7c0.1,0,1.4-0.2,1.4-0.2c0.1,0,0.1-0.1,0.1-0.1C217.3,261.3,217.3,261.3,217.2,261.1L217.2,261.1z M213.5,267c0,0.6,0.4,1.9,0.8,1.9c0.4,0,0.5-0.6,0.5-1.7c0-0.5,0-1.4-0.6-1.4C214.1,265.7,213.5,266.3,213.5,267z"/><path d="M226.8,270.6c0,1.3-0.7,2.4-1.6,2.4s-1.6-1.1-1.6-2.4c0-1.4,0.7-2.4,1.6-2.4C226.1,268.1,226.8,269.2,226.8,270.6z M224.1,270.6c0,1,0.5,1.8,1.2,1.8c0.7,0,1.2-0.8,1.2-1.8c0-1-0.5-1.8-1.2-1.8C224.6,268.8,224.1,269.6,224.1,270.6z"/></g></g><line class="st1" x1="17.8" y1="20.9" x2="17.8" y2="321.3"/><path d="M17.8,12.8c2.2,0,4.1,1.8,4.1,4.1c0,2.2-1.8,4.1-4.1,4.1s-4.1-1.8-4.1-4.1C13.7,14.6,15.5,12.8,17.8,12.8z"/><path class="st1" d="M17.8,10.9c3.3,0,5.9,2.7,5.9,5.9c0,3.3-2.7,5.9-5.9,5.9c-3.3,0-5.9-2.7-5.9-5.9C11.8,13.6,14.5,10.9,17.8,10.9z"/><polygon class="st1" points="17.8,4.6 23.1,13.8 28.4,23 17.8,23 7.1,23 12.4,13.8 "/><g><path d="M9,75.8c0,1.7,0,2.1,0.2,2.1c0.2,0,0.3,0,0.4-0.1c0.1,0.2,0.1,0.6,0,0.8c-1,0.1-1.7,0.6-1.8,0.6c-0.1,0-0.1-0.1-0.2-0.3l0-0.6c0-0.1,0-0.2-0.1-0.1C7.4,78.6,7,79,6.7,79c-1.1,0-1.9-1.6-1.9-3.5c0-2.5,1-4.2,2.3-4.2c0.2,0,0.4,0,0.6,0.1c0.1-0.1,0.1-0.2,0.1-0.3v-2.3c0-0.7,0-0.9-0.2-1.1l-0.2-0.2c-0.1-0.1-0.1-0.4,0-0.5c0.4-0.2,1-0.6,1.5-1c0.1,0,0.1,0,0.2,0.1c0,0.7,0,1.5,0,2.6V75.8z M7.8,73.4c0-0.3,0-0.5-0.1-0.6c-0.1-0.4-0.3-0.7-0.6-0.7c-0.5,0-1,1-1,2.8c0,1.2,0.3,2.8,1.1,2.8c0.1,0,0.3-0.1,0.4-0.2c0.1-0.1,0.1-0.4,0.1-0.7V73.4z"/></g><g><path d="M6.3,250C6,250,6,250,6,250.3c0,1.4,0.5,2.7,1.4,2.7c0.3,0,0.6-0.1,0.9-0.9c0.1,0,0.3,0.1,0.3,0.4c-0.4,1.5-1.1,2.1-1.7,2.1c-1.3,0-2-1.7-2-3.7c0-2.3,0.9-4,2.1-4c1,0,1.6,1.2,1.6,2.6c0,0.3,0,0.6-0.4,0.6H6.3z M6.9,249.2c0.1,0,0.3,0,0.4-0.2c0-0.1,0.1-0.2,0.1-0.4c0-0.6-0.2-1-0.5-1c-0.4,0-0.8,0.7-0.8,1.3c0,0.3,0.1,0.3,0.4,0.3H6.9z"/></g><line class="st2" x1="20.8" y1="44.2" x2="14.3" y2="44.2"/><line class="st2" x1="20.8" y1="75.4" x2="14.3" y2="75.4"/><line class="st2" x1="20.8" y1="110.6" x2="14.3" y2="110.6"/><line class="st2" x1="20.8" y1="145.8" x2="14.3" y2="145.8"/><line class="st2" x1="20.8" y1="180.9" x2="14.3" y2="180.9"/><line class="st2" x1="20.8" y1="216.1" x2="14.3" y2="216.1"/><line class="st2" x1="20.8" y1="251.3" x2="14.3" y2="251.3"/><line class="st2" x1="20.8" y1="251.3" x2="14.3" y2="251.3"/><line class="st2" x1="20.8" y1="251.3" x2="14.3" y2="251.3"/><line class="st2" x1="20.8" y1="286.1" x2="14.3" y2="286.1"/><line class="st2" x1="20.8" y1="321.3" x2="14.3" y2="321.3"/><line class="st3" x1="95.1" y1="321.3" x2="32.4" y2="321.3"/><line class="st3" x1="103.4" y1="41.3" x2="33.6" y2="41.3"/><circle cx="8.5" cy="44.2" r="1.7"/><g><path d="M35.8,309l-0.3,1.8h0.6l-0.1,0.8h-0.6l-0.3,2.2h-0.4l0.3-2.2h-0.6l-0.3,2.2h-0.4l0.3-2.2h-0.6l0.1-0.8h0.7l0.3-1.8h-0.6l0.1-0.8h0.7l0.3-2h0.4l-0.3,2h0.6l0.3-2h0.4l-0.3,2h0.6l-0.1,0.8H35.8z M34.7,309l-0.3,1.8h0.6l0.3-1.8H34.7z"/><path d="M41.7,310c0,1.9-0.4,3.9-1.5,3.9c-1.1,0-1.5-2-1.5-3.9c0-1.9,0.4-3.9,1.5-3.9C41.3,306.1,41.7,308.1,41.7,310z M40.2,313.3c0.5,0,0.6-2.3,0.6-3.4s-0.1-3.4-0.6-3.4s-0.6,2.3-0.6,3.4S39.7,313.3,40.2,313.3z"/><path d="M45.7,310.6c0.1,0.1,0.1,0.3,0.1,0.5c0,0.2,0,0.3-0.1,0.5l-1.6,0.3c-0.1-0.1-0.1-0.3-0.1-0.5c0-0.2,0-0.4,0.1-0.5L45.7,310.6z"/><path d="M49.4,309.6c-0.1,0-0.1,0-0.1,0.3v1.8c0,0.7,0,1.4,0.5,1.4c0.1,0,0.2-0.1,0.3-0.2c0.1,0,0.1,0.2,0.1,0.3c-0.2,0.4-0.5,0.7-0.9,0.7c-0.5,0-0.7-0.6-0.7-1.4v-2.7c0-0.3,0-0.3-0.1-0.3h-0.2c-0.1,0-0.1-0.3,0-0.4c0.2-0.1,0.4-0.3,0.5-0.5c0.1-0.2,0.3-0.4,0.5-0.9c0,0,0.2,0,0.2,0.1v0.9c0,0.2,0,0.2,0.1,0.2H50c0,0,0.1,0.1,0.1,0.2c0,0.1,0,0.3-0.1,0.4H49.4z"/><path d="M54.4,312.1c0,0.8,0.2,1,0.3,1c0.1,0,0.1,0,0.2-0.1c0.1,0,0.1,0.2,0.1,0.3c-0.1,0.2-0.4,0.6-0.8,0.6c-0.2,0-0.4-0.1-0.5-0.4c0-0.1-0.1-0.1-0.1-0.1c0,0-0.1,0-0.1,0.1c-0.1,0.2-0.3,0.4-0.6,0.4c-0.4,0-0.7-0.4-0.7-1.3c0-0.6,0.2-1,0.7-1.2c0.2-0.1,0.4-0.2,0.6-0.3c0.1-0.1,0.1-0.1,0.2-0.2c0-0.1,0-0.3,0-0.4c0-0.5-0.1-1-0.4-1c-0.2,0-0.3,0.2-0.3,0.7c0,0.2-0.1,0.3-0.1,0.4c-0.1,0.1-0.4,0.3-0.5,0.3c-0.1,0-0.1-0.1-0.1-0.3c0-0.3,0.2-0.7,0.3-0.9c0.2-0.3,0.6-0.7,1.1-0.7c0.5,0,0.9,0.5,0.8,1.7L54.4,312.1z M53.6,311.8c0-0.2,0-0.2,0-0.2c-0.3,0.1-0.5,0.3-0.5,0.8c0,0.4,0.1,0.7,0.3,0.7c0.2,0,0.2-0.2,0.2-0.6L53.6,311.8z"/><path d="M57.3,307.1c0-0.5,0-0.6-0.1-0.8l-0.1-0.1c0-0.1,0-0.3,0-0.4c0.3-0.1,0.7-0.4,1-0.7c0,0,0.1,0,0.1,0.1c0,0.5,0,1,0,1.8v3.8c0,0.1,0,0.2,0.1,0.2c0.1,0,0.2-0.1,0.4-0.3l0.3-0.6c0.1-0.3,0.2-0.4,0.2-0.5c0-0.1-0.1-0.1-0.1-0.1l-0.2,0c-0.1-0.1-0.1-0.4,0-0.4h0.2c0.3,0,0.8-0.1,1.2-0.2c0.1,0.1,0.1,0.3,0,0.4l-0.2,0.1c-0.1,0-0.3,0.2-0.4,0.4c-0.2,0.3-0.3,0.5-0.4,0.7c0,0.1,0,0.1,0,0.2s0,0.1,0,0.2c0.1,0.4,0.7,2,0.9,2.3c0.1,0.2,0.2,0.2,0.4,0.3l0.1,0c0.1,0.1,0,0.4,0,0.4c-0.2,0-0.4,0-0.8,0c-0.4,0-0.6,0-0.8,0c-0.1-0.1-0.1-0.3,0-0.4l0.1,0c0.1,0,0.1,0,0.1-0.1s-0.1-0.2-0.1-0.4l-0.5-1.3c0-0.1-0.1-0.2-0.2-0.2c0,0-0.1,0.1-0.1,0.3v0.7c0,0.8,0,0.9,0.3,1l0.1,0c0.1,0.1,0.1,0.3,0,0.4c-0.2,0-0.5,0-0.8,0c-0.3,0-0.6,0-0.8,0c-0.1-0.1-0.1-0.3,0-0.4l0.1,0c0.2,0,0.3-0.1,0.3-1V307.1z"/><path d="M63.4,310.9c-0.1,0-0.2,0-0.2,0.2c0,0.9,0.3,1.8,0.9,1.8c0.2,0,0.4-0.1,0.6-0.6c0.1,0,0.2,0.1,0.2,0.3c-0.3,1-0.7,1.4-1.1,1.4c-0.9,0-1.4-1.1-1.4-2.4c0-1.5,0.6-2.7,1.4-2.7c0.7,0,1,0.8,1,1.7c0,0.2,0,0.4-0.2,0.4H63.4z M63.8,310.4c0.1,0,0.2,0,0.3-0.1c0,0,0-0.2,0-0.3c0-0.4-0.1-0.7-0.3-0.7c-0.3,0-0.5,0.5-0.5,0.9c0,0.2,0.1,0.2,0.3,0.2H63.8z"/><path d="M72.8,312.1c0,0.8,0.2,1,0.3,1c0.1,0,0.1,0,0.2-0.1c0.1,0,0.1,0.2,0.1,0.3c-0.1,0.2-0.4,0.6-0.8,0.6c-0.2,0-0.4-0.1-0.5-0.4c0-0.1-0.1-0.1-0.1-0.1c0,0-0.1,0-0.1,0.1c-0.1,0.2-0.3,0.4-0.6,0.4c-0.4,0-0.7-0.4-0.7-1.3c0-0.6,0.2-1,0.7-1.2c0.2-0.1,0.4-0.2,0.6-0.3c0.1-0.1,0.1-0.1,0.2-0.2c0-0.1,0-0.3,0-0.4c0-0.5-0.1-1-0.4-1c-0.2,0-0.3,0.2-0.3,0.7c0,0.2-0.1,0.3-0.1,0.4c-0.1,0.1-0.4,0.3-0.5,0.3c-0.1,0-0.1-0.1-0.1-0.3c0-0.3,0.2-0.7,0.3-0.9c0.2-0.3,0.6-0.7,1.1-0.7c0.5,0,0.9,0.5,0.8,1.7L72.8,312.1z M72,311.8c0-0.2,0-0.2,0-0.2c-0.3,0.1-0.5,0.3-0.5,0.8c0,0.4,0.1,0.7,0.3,0.7c0.2,0,0.2-0.2,0.2-0.6L72,311.8z"/><path d="M75.8,310.5c0-0.5,0-0.6-0.1-0.8l-0.1-0.1c0-0.1,0-0.3,0-0.4c0.3-0.2,0.8-0.5,1-0.7c0.1,0,0.1,0,0.1,0.1c0,0.2,0,0.5,0,0.5c0,0.1,0,0.1,0,0.1s0.1-0.1,0.1-0.1c0.1-0.2,0.4-0.5,0.7-0.5c0.5,0,0.8,0.7,0.8,1.5v2.1c0,0.8,0,0.9,0.3,1l0.1,0c0.1,0.1,0.1,0.3,0,0.4c-0.2,0-0.5,0-0.8,0c-0.3,0-0.5,0-0.7,0c-0.1-0.1-0.1-0.3,0-0.4l0.1,0c0.1,0,0.2-0.1,0.2-0.8v-2c0-0.5-0.1-0.9-0.5-0.9c-0.2,0-0.3,0.2-0.4,0.3c0,0.1-0.1,0.2-0.1,0.4v2.1c0,0.7,0,0.8,0.2,0.8l0.1,0c0.1,0.1,0.1,0.3,0,0.4c-0.2,0-0.4,0-0.7,0c-0.3,0-0.5,0-0.8,0c-0.1-0.1-0.1-0.3,0-0.4l0.1,0c0.2,0,0.3-0.1,0.3-1V310.5z"/><path d="M81,311.4c0-1.7,0.7-2.7,1.5-2.7c0.8,0,1.5,0.9,1.5,2.6c0,1.8-0.7,2.6-1.5,2.6C81.7,313.9,81,313.1,81,311.4z M81.9,311.2c0,1.3,0.2,2.2,0.6,2.2c0.4,0,0.5-0.8,0.5-1.9c0-1.2-0.2-2.2-0.6-2.2C82.1,309.3,81.9,309.9,81.9,311.2z"/><path d="M87.5,309.6c-0.1,0-0.1,0-0.1,0.3v1.8c0,0.7,0,1.4,0.5,1.4c0.1,0,0.2-0.1,0.3-0.2c0.1,0,0.1,0.2,0.1,0.3c-0.2,0.4-0.5,0.7-0.9,0.7c-0.5,0-0.7-0.6-0.7-1.4v-2.7c0-0.3,0-0.3-0.1-0.3h-0.2c-0.1,0-0.1-0.3,0-0.4c0.2-0.1,0.4-0.3,0.5-0.5c0.1-0.2,0.3-0.4,0.5-0.9c0,0,0.2,0,0.2,0.1v0.9c0,0.2,0,0.2,0.1,0.2h0.6c0,0,0.1,0.1,0.1,0.2c0,0.1,0,0.3-0.1,0.4H87.5z"/><path d="M90.6,307.1c0-0.5,0-0.6-0.1-0.8l-0.1-0.1c0-0.1,0-0.3,0-0.4c0.3-0.1,0.7-0.4,1-0.7c0,0,0.1,0,0.1,0.1c0,0.5,0,1,0,1.8v2.2c0,0.1,0,0.1,0,0.1c0,0,0,0,0.1-0.1c0.1-0.2,0.4-0.5,0.7-0.5c0.5,0,0.8,0.7,0.8,1.5v2.1c0,0.8,0,0.9,0.3,1l0.1,0c0.1,0.1,0.1,0.3,0,0.4c-0.2,0-0.5,0-0.8,0c-0.3,0-0.6,0-0.7,0c-0.1-0.1-0.1-0.3,0-0.4l0.1,0c0.1,0,0.2-0.1,0.2-0.8v-2.1c0-0.4-0.1-0.8-0.5-0.8c-0.2,0-0.3,0.2-0.4,0.3c0,0.1-0.1,0.2-0.1,0.4v2.1c0,0.7,0,0.7,0.2,0.8l0.1,0c0.1,0.1,0.1,0.3,0,0.4c-0.2,0-0.4,0-0.7,0c-0.3,0-0.5,0-0.8,0c-0.1-0.1-0.1-0.3,0-0.4l0.1,0c0.2,0,0.2-0.1,0.2-1V307.1z"/><path d="M96.8,310.9c-0.1,0-0.2,0-0.2,0.2c0,0.9,0.3,1.8,0.9,1.8c0.2,0,0.4-0.1,0.6-0.6c0.1,0,0.2,0.1,0.2,0.3c-0.3,1-0.7,1.4-1.1,1.4c-0.9,0-1.4-1.1-1.4-2.4c0-1.5,0.6-2.7,1.4-2.7c0.7,0,1,0.8,1,1.7c0,0.2,0,0.4-0.2,0.4H96.8z M97.2,310.4c0.1,0,0.2,0,0.3-0.1c0,0,0-0.2,0-0.3c0-0.4-0.1-0.7-0.3-0.7c-0.3,0-0.5,0.5-0.5,0.9c0,0.2,0.1,0.2,0.3,0.2H97.2z"/><path d="M100.9,310.6c0-0.5,0-0.6-0.1-0.8l-0.1-0.1c0-0.1,0-0.3,0-0.4c0.3-0.2,0.7-0.5,0.9-0.7c0.1,0,0.1,0,0.1,0.1c0,0.2,0,0.4,0,0.5c0,0.1,0,0.1,0.1,0.1c0.2-0.2,0.4-0.6,0.6-0.6c0.2,0,0.4,0.3,0.4,0.7c0,0.6-0.2,0.8-0.4,0.8c-0.1,0-0.2-0.1-0.3-0.2c-0.1-0.2-0.2-0.2-0.2-0.2c-0.1,0-0.1,0.3-0.1,0.7v1.8c0,0.8,0,0.9,0.2,1l0.2,0c0.1,0.1,0.1,0.3,0,0.4c-0.3,0-0.6,0-0.9,0c-0.3,0-0.6,0-0.8,0c-0.1-0.1-0.1-0.3,0-0.4l0.1,0c0.2,0,0.2-0.1,0.2-1V310.6z"/></g><g><path d="M36.4,31.4c0.1,0.1,0.1,0.3,0.1,0.6c0,0.4-0.1,0.7-0.2,0.7c0,0-0.1,0-0.1-0.1c-0.2-0.5-0.4-0.9-0.7-0.9c-0.4,0-0.7,0.9-0.7,1.7c0,0.9,0.3,1.9,0.9,1.9c0.2,0,0.4-0.1,0.6-0.6c0.1,0,0.2,0.1,0.2,0.3c-0.1,0.6-0.5,1.3-1.2,1.3c-0.8,0-1.4-1-1.4-2.4c0-1.7,0.7-2.7,1.6-2.7C35.9,31.2,36.2,31.3,36.4,31.4z"/><path d="M39,29.5c0-0.5,0-0.6-0.1-0.8l-0.1-0.1c0-0.1,0-0.3,0-0.4c0.3-0.1,0.7-0.4,1-0.7c0,0,0.1,0,0.1,0.1c0,0.5,0,1,0,1.8v2.2c0,0.1,0,0.1,0,0.1c0,0,0,0,0.1-0.1c0.1-0.2,0.4-0.5,0.7-0.5c0.5,0,0.8,0.7,0.8,1.5v2.1c0,0.8,0,0.9,0.3,1l0.1,0c0.1,0.1,0.1,0.3,0,0.4c-0.2,0-0.5,0-0.8,0c-0.3,0-0.6,0-0.7,0c-0.1-0.1-0.1-0.3,0-0.4l0.1,0c0.1,0,0.2-0.1,0.2-0.8v-2.1c0-0.4-0.1-0.8-0.5-0.8c-0.2,0-0.3,0.2-0.4,0.3c0,0.1-0.1,0.2-0.1,0.4V35c0,0.7,0,0.7,0.2,0.8l0.1,0c0.1,0.1,0.1,0.3,0,0.4c-0.2,0-0.4,0-0.7,0c-0.3,0-0.5,0-0.8,0c-0.1-0.1-0.1-0.3,0-0.4l0.1,0c0.2,0,0.2-0.1,0.2-1V29.5z"/><path d="M46.4,34.5c0,0.8,0.2,1,0.3,1c0.1,0,0.1,0,0.2-0.1c0.1,0,0.1,0.2,0.1,0.3c-0.1,0.2-0.4,0.6-0.8,0.6c-0.2,0-0.4-0.1-0.5-0.4c0-0.1-0.1-0.1-0.1-0.1s-0.1,0-0.1,0.1c-0.1,0.2-0.3,0.4-0.6,0.4c-0.4,0-0.7-0.4-0.7-1.3c0-0.6,0.2-1,0.7-1.2c0.2-0.1,0.4-0.2,0.6-0.3c0.1-0.1,0.1-0.1,0.2-0.2c0-0.1,0-0.3,0-0.4c0-0.5-0.1-1-0.4-1c-0.2,0-0.3,0.2-0.3,0.7c0,0.2-0.1,0.3-0.1,0.4c-0.1,0.1-0.4,0.3-0.5,0.3c-0.1,0-0.1-0.1-0.1-0.3c0-0.3,0.2-0.7,0.3-0.9c0.2-0.3,0.6-0.7,1.1-0.7c0.5,0,0.9,0.5,0.8,1.7L46.4,34.5z M45.6,34.2c0-0.2,0-0.2,0-0.2c-0.3,0.1-0.5,0.3-0.5,0.8c0,0.4,0.1,0.7,0.3,0.7c0.2,0,0.2-0.2,0.2-0.6L45.6,34.2z"/><path d="M49.4,33c0-0.5,0-0.6-0.1-0.8l-0.1-0.1c0-0.1,0-0.3,0-0.4c0.3-0.2,0.7-0.5,0.9-0.7c0.1,0,0.1,0,0.1,0.1c0,0.2,0,0.4,0,0.5c0,0.1,0,0.1,0.1,0.1c0.2-0.2,0.4-0.6,0.6-0.6c0.2,0,0.4,0.3,0.4,0.7c0,0.6-0.2,0.8-0.4,0.8c-0.1,0-0.2-0.1-0.3-0.2c-0.1-0.2-0.2-0.2-0.2-0.2c-0.1,0-0.1,0.3-0.1,0.7v1.8c0,0.8,0,0.9,0.2,1l0.2,0c0.1,0.1,0.1,0.3,0,0.4c-0.3,0-0.6,0-0.9,0c-0.3,0-0.6,0-0.8,0c-0.1-0.1-0.1-0.3,0-0.4l0.1,0c0.2,0,0.2-0.1,0.2-1V33z"/><path d="M55.6,34.5c0,0.8,0.2,1,0.3,1c0.1,0,0.1,0,0.2-0.1c0.1,0,0.1,0.2,0.1,0.3c-0.1,0.2-0.4,0.6-0.8,0.6c-0.2,0-0.4-0.1-0.5-0.4c0-0.1-0.1-0.1-0.1-0.1s-0.1,0-0.1,0.1c-0.1,0.2-0.3,0.4-0.6,0.4c-0.4,0-0.7-0.4-0.7-1.3c0-0.6,0.2-1,0.7-1.2c0.2-0.1,0.4-0.2,0.6-0.3c0.1-0.1,0.1-0.1,0.2-0.2c0-0.1,0-0.3,0-0.4c0-0.5-0.1-1-0.4-1c-0.2,0-0.3,0.2-0.3,0.7c0,0.2-0.1,0.3-0.1,0.4c-0.1,0.1-0.4,0.3-0.5,0.3c-0.1,0-0.1-0.1-0.1-0.3c0-0.3,0.2-0.7,0.3-0.9c0.2-0.3,0.6-0.7,1.1-0.7c0.5,0,0.9,0.5,0.8,1.7L55.6,34.5z M54.8,34.2c0-0.2,0-0.2,0-0.2c-0.3,0.1-0.5,0.3-0.5,0.8c0,0.4,0.1,0.7,0.3,0.7c0.2,0,0.2-0.2,0.2-0.6L54.8,34.2z"/><path d="M60.5,31.4c0.1,0.1,0.1,0.3,0.1,0.6c0,0.4-0.1,0.7-0.2,0.7c0,0-0.1,0-0.1-0.1c-0.2-0.5-0.4-0.9-0.7-0.9c-0.4,0-0.6,0.9-0.6,1.7c0,0.9,0.3,1.9,0.9,1.9c0.2,0,0.4-0.1,0.6-0.6c0.1,0,0.2,0.1,0.2,0.3c-0.1,0.6-0.5,1.3-1.2,1.3c-0.8,0-1.4-1-1.4-2.4c0-1.7,0.7-2.7,1.6-2.7C60.1,31.2,60.4,31.3,60.5,31.4z"/><path d="M64.1,32C64,32,64,32,64,32.3v1.8c0,0.7,0,1.4,0.5,1.4c0.1,0,0.2-0.1,0.3-0.2c0.1,0,0.1,0.2,0.1,0.3c-0.2,0.4-0.5,0.7-0.9,0.7c-0.5,0-0.7-0.6-0.7-1.4v-2.7c0-0.3,0-0.3-0.1-0.3h-0.2c-0.1,0-0.1-0.3,0-0.4c0.2-0.1,0.4-0.3,0.5-0.5c0.1-0.2,0.3-0.4,0.5-0.9c0,0,0.2,0,0.2,0.1v0.9c0,0.2,0,0.2,0.1,0.2h0.6c0,0,0.1,0.1,0.1,0.2c0,0.1,0,0.3-0.1,0.4H64.1z"/><path d="M67.9,33.3c-0.1,0-0.2,0-0.2,0.2c0,0.9,0.3,1.8,0.9,1.8c0.2,0,0.4-0.1,0.6-0.6c0.1,0,0.2,0.1,0.2,0.3c-0.3,1-0.7,1.4-1.1,1.4c-0.9,0-1.4-1.1-1.4-2.4c0-1.5,0.6-2.7,1.4-2.7c0.7,0,1,0.8,1,1.7c0,0.2,0,0.4-0.2,0.4H67.9z M68.3,32.8c0.1,0,0.2,0,0.3-0.1c0,0,0-0.2,0-0.3c0-0.4-0.1-0.7-0.3-0.7c-0.3,0-0.5,0.5-0.5,0.9c0,0.2,0.1,0.2,0.3,0.2H68.3z"/><path d="M72,33c0-0.5,0-0.6-0.1-0.8l-0.1-0.1c0-0.1,0-0.3,0-0.4c0.3-0.2,0.7-0.5,0.9-0.7c0.1,0,0.1,0,0.1,0.1c0,0.2,0,0.4,0,0.5c0,0.1,0,0.1,0.1,0.1c0.2-0.2,0.4-0.6,0.6-0.6c0.2,0,0.4,0.3,0.4,0.7c0,0.6-0.2,0.8-0.4,0.8c-0.1,0-0.2-0.1-0.3-0.2c-0.2-0.2-0.2-0.2-0.2-0.2c-0.1,0-0.1,0.3-0.1,0.7v1.8c0,0.8,0,0.9,0.2,1l0.2,0c0.1,0.1,0.1,0.3,0,0.4c-0.3,0-0.6,0-0.9,0c-0.3,0-0.6,0-0.8,0c-0.1-0.1-0.1-0.3,0-0.4l0.1,0c0.2,0,0.2-0.1,0.2-1V33z"/><path d="M79.2,31.8c-0.1-0.1-0.1-0.4,0-0.4c0.2,0,0.5,0,0.8,0c0.2,0,0.5,0,0.7,0c0.1,0.1,0.1,0.4,0,0.4l-0.1,0c-0.1,0-0.1,0-0.1,0.1c0,0.1,0,0.2,0.1,0.4c0.1,0.7,0.3,1.3,0.4,1.9c0.1-0.6,0.3-1.2,0.4-2c0-0.1,0-0.2,0-0.3c0-0.1,0-0.1-0.2-0.1l-0.1,0c-0.1-0.1-0.1-0.4,0-0.4c0.2,0,0.3,0,0.5,0c0.2,0,0.4,0,0.5,0c0.1,0.1,0.1,0.3,0,0.4l-0.1,0C82,31.9,82,32,81.9,32.5c-0.3,1.2-0.6,2.5-0.9,3.8c0,0-0.1,0.1-0.1,0.1c-0.1,0-0.1,0-0.2-0.1c-0.3-1.5-0.5-2.1-0.9-3.7c-0.2-0.6-0.2-0.7-0.4-0.8L79.2,31.8z"/><path d="M84.4,33.9c0-1.7,0.7-2.7,1.5-2.7c0.8,0,1.5,0.9,1.5,2.6c0,1.8-0.7,2.6-1.5,2.6C85.1,36.4,84.4,35.5,84.4,33.9z M85.3,33.6c0,1.3,0.2,2.2,0.6,2.2c0.4,0,0.5-0.8,0.5-1.9c0-1.2-0.2-2.2-0.6-2.2C85.6,31.8,85.3,32.3,85.3,33.6z"/><path d="M90.9,34.8c0,0.8,0,0.9,0.2,1l0.1,0c0.1,0.1,0.1,0.3,0,0.4c-0.2,0-0.5,0-0.8,0c-0.3,0-0.6,0-0.8,0c-0.1-0.1-0.1-0.3,0-0.4l0.1,0c0.2,0,0.2-0.1,0.2-1V33c0-0.5,0-0.6-0.1-0.8l-0.1-0.1c0-0.1,0-0.3,0-0.4c0.3-0.2,0.8-0.5,1-0.7c0.1,0,0.1,0,0.1,0.1c0,0.4,0,0.9,0,1.4V34.8z M90.9,29.4c0,0.6-0.2,0.9-0.5,0.9c-0.3,0-0.5-0.4-0.5-0.9c0-0.5,0.2-0.9,0.5-0.9C90.8,28.5,90.9,28.9,90.9,29.4z"/><path d="M95.8,31.4c0.1,0.1,0.1,0.3,0.1,0.6c0,0.4-0.1,0.7-0.2,0.7c0,0-0.1,0-0.1-0.1c-0.2-0.5-0.4-0.9-0.7-0.9c-0.4,0-0.7,0.9-0.7,1.7c0,0.9,0.3,1.9,0.9,1.9c0.2,0,0.4-0.1,0.6-0.6c0.1,0,0.2,0.1,0.2,0.3c-0.1,0.6-0.5,1.3-1.2,1.3c-0.8,0-1.4-1-1.4-2.4c0-1.7,0.7-2.7,1.6-2.7C95.4,31.2,95.6,31.3,95.8,31.4z"/><path d="M99.1,33.3c-0.1,0-0.2,0-0.2,0.2c0,0.9,0.3,1.8,0.9,1.8c0.2,0,0.4-0.1,0.6-0.6c0.1,0,0.2,0.1,0.2,0.3c-0.3,1-0.7,1.4-1.1,1.4c-0.9,0-1.4-1.1-1.4-2.4c0-1.5,0.6-2.7,1.4-2.7c0.7,0,1,0.8,1,1.7c0,0.2,0,0.4-0.2,0.4H99.1z M99.6,32.8c0.1,0,0.2,0,0.3-0.1c0,0,0-0.2,0-0.3c0-0.4-0.1-0.7-0.3-0.7c-0.3,0-0.5,0.5-0.5,0.9c0,0.2,0.1,0.2,0.3,0.2H99.6z"/></g><rect x="33.2" y="294.2" width="17.8" height="3.9"/><rect x="33" y="93.7" width="125.4" height="11.9"/><g><path class="st4" d="M41.4,100.8c0.2,0.9,0.4,1.7,0.7,2.5h0c0.3-0.9,0.5-1.8,0.8-2.8l0.9-3.5c0.4-1.7,0.7-2.7,0.8-3.5c0.3,0.1,0.5,0.1,0.7,0.1c0.2,0,0.6,0,0.9-0.1c0.1,0.1,0.1,0.4,0,0.5L46,94c-0.6,0.1-0.7,0.5-0.7,1.7c0,1.9,0,5.3,0.1,8c0,0.9,0,1.4,0.5,1.5l0.3,0.1c0.1,0.1,0,0.4,0,0.5c-0.4,0-0.8-0.1-1.2-0.1c-0.3,0-0.8,0-1.2,0.1c-0.1-0.1-0.1-0.3,0-0.5l0.3-0.1c0.5-0.1,0.5-0.4,0.5-1.6l0-7.7h0c-0.1,0.2-0.4,1.7-0.6,2.4l-0.9,3.2c-0.4,1.6-0.9,3.3-1.1,4.2c0,0.1-0.1,0.1-0.1,0.1c0,0-0.1,0-0.1-0.1c-0.2-1-0.6-2.8-0.9-3.7L40,98.6c-0.2-0.8-0.4-1.8-0.6-2.6h0c0,1.1-0.1,2.2-0.1,3.3c0,1.1-0.1,2.8-0.1,4.3c0,1.4,0.1,1.7,0.4,1.7l0.4,0.1c0.1,0.1,0.1,0.4,0,0.5c-0.3,0-0.7-0.1-1.1-0.1c-0.3,0-0.7,0-1,0.1c-0.1-0.1-0.1-0.4,0-0.5l0.2-0.1c0.4-0.1,0.6-0.2,0.6-1.5c0.1-1.2,0.1-2.2,0.2-4c0-1.5,0.1-3.1,0.1-4.1c0-1.2-0.1-1.4-0.7-1.6l-0.2,0c0-0.1,0-0.4,0-0.5c0.3,0,0.5,0.1,0.8,0.1c0.2,0,0.5,0,0.8-0.1c0,0.7,0.2,1.9,0.5,3L41.4,100.8z"/><path class="st4" d="M53.6,101.4c-0.1-0.4-0.1-0.5-0.4-0.5h-1.5c-0.2,0-0.3,0.1-0.4,0.4l-0.3,1.9c-0.1,0.8-0.2,1.3-0.2,1.5c0,0.2,0,0.3,0.3,0.4l0.3,0.1c0.1,0.1,0.1,0.4,0,0.5c-0.3,0-0.6,0-1-0.1c-0.3,0-0.7,0-1,0.1c-0.1-0.1-0.1-0.4,0-0.5l0.3-0.1c0.2,0,0.5-0.2,0.6-0.9c0.2-0.8,0.5-2,0.9-4.1l1-5c0.1-0.7,0.2-1,0.2-1.3c0.2-0.1,0.4-0.5,0.5-0.7c0.1,0,0.1,0,0.1,0.2c0.1,0.8,0.3,1.7,0.4,2.5l1.4,7.4c0.3,1.6,0.4,1.9,0.8,1.9l0.3,0.1c0.1,0.1,0,0.4,0,0.5c-0.4,0-0.8-0.1-1.2-0.1c-0.5,0-0.9,0-1.1,0.1c-0.1-0.1-0.1-0.4,0-0.5l0.3-0.1c0.2,0,0.3-0.1,0.3-0.3c0-0.2,0-0.5-0.1-1L53.6,101.4z M51.7,99.8c-0.1,0.4-0.1,0.4,0.2,0.4h1.2c0.3,0,0.3-0.1,0.2-0.6l-0.5-3c-0.1-0.4-0.2-0.9-0.2-1.2h0c0,0.1-0.1,0.5-0.2,1.1L51.7,99.8z"/><path class="st4" d="M60,96.3c0-1.7,0-2.1-0.4-2.1l-0.3-0.1c-0.1-0.1-0.1-0.4,0-0.5c0.6-0.1,1.2-0.1,2.2-0.1c0.6,0,1.2,0.1,1.7,0.6c0.5,0.5,0.8,1.3,0.8,2.6c0,1.7-0.7,2.7-1.2,3.1c0,0.1,0,0.3,0,0.4c0.8,2.4,1.3,3.8,2,4.9c0.2,0.3,0.4,0.5,0.7,0.5c0,0,0.1,0.2,0,0.3c-0.1,0.1-0.2,0.1-0.4,0.1c-0.8,0-1.4-0.5-2.1-2.3c-0.3-0.7-0.7-1.9-1-2.8c-0.1-0.4-0.3-0.6-0.7-0.6c-0.4,0-0.5,0-0.5,0.4v2.3c0,1.9,0,2.1,0.6,2.3l0.2,0.1c0.1,0.1,0,0.4,0,0.5c-0.4,0-0.8-0.1-1.2-0.1c-0.4,0-0.8,0-1.2,0.1c-0.1-0.1-0.1-0.3,0-0.5l0.2-0.1c0.6-0.1,0.6-0.4,0.6-2.3V96.3z M60.9,99c0,0.3,0,0.5,0,0.6c0,0.1,0.2,0.1,0.7,0.1c0.4,0,0.7-0.1,1-0.5c0.3-0.4,0.5-1,0.5-2.3c0-1.5-0.5-2.8-1.6-2.8c-0.6,0-0.6,0.1-0.6,0.6V99z"/><path class="st4" d="M69.4,96.4c0-1.9,0-2.3-0.6-2.3l-0.2,0c-0.1-0.1,0-0.4,0-0.5c0.5,0,0.8,0.1,1.3,0.1c0.4,0,0.7,0,1.2-0.1c0.1,0.1,0.1,0.4,0,0.5l-0.2,0c-0.6,0.1-0.6,0.4-0.6,2.3v6.5c0,1.9,0,2.2,0.6,2.3l0.2,0.1c0.1,0.1,0,0.4,0,0.5c-0.5,0-0.8-0.1-1.2-0.1c-0.4,0-0.8,0-1.3,0.1c-0.1-0.1-0.1-0.3,0-0.5l0.2-0.1c0.6-0.1,0.6-0.4,0.6-2.3V96.4z"/><path class="st4" d="M75.8,96.3c0-1.9,0-2.2-0.6-2.3l-0.2,0c-0.1-0.1,0-0.4,0-0.5c0.5,0,0.8,0.1,1.3,0.1c0.4,0,0.7,0,1.2-0.1c0.1,0.1,0.1,0.4,0,0.5l-0.2,0c-0.6,0.1-0.6,0.4-0.6,2.3v2.1c0,0.3,0,0.7,0.1,0.7c0.1,0,0.2-0.1,0.3-0.2c0.1-0.2,0.4-0.7,0.5-0.9l1.1-2c0.2-0.3,0.7-1.3,0.8-1.5c0-0.1,0.1-0.2,0.1-0.3c0-0.1,0-0.1-0.2-0.2L79,94c-0.1-0.1-0.1-0.4,0-0.5c0.3,0,0.7,0.1,1.1,0.1s0.7,0,1-0.1c0.1,0.1,0.1,0.3,0,0.5c-0.3,0-0.6,0.2-0.9,0.5c-0.3,0.3-0.8,1.2-1.4,2.1l-0.9,1.6c-0.1,0.3-0.2,0.4-0.2,0.6c0,0.1,0.1,0.3,0.2,0.6c0.9,2,1.7,3.7,2.5,5.2c0.2,0.4,0.5,0.7,0.8,0.8l0.3,0.1c0.1,0.1,0,0.4,0,0.5c-0.3,0-0.6-0.1-1.1-0.1c-0.4,0-0.8,0-1.2,0.1c-0.1,0-0.1-0.3,0-0.5l0.2-0.1c0.1,0,0.2-0.1,0.2-0.2c0-0.1-0.1-0.3-0.1-0.4c-0.2-0.4-0.4-0.9-0.8-1.7l-0.8-1.7c-0.6-1.2-0.7-1.5-1-1.5c-0.1,0-0.2,0.2-0.2,0.9v2.4c0,1.9,0,2.2,0.6,2.3l0.3,0.1c0.1,0.1,0,0.4,0,0.5c-0.5,0-0.8-0.1-1.2-0.1c-0.4,0-0.7,0-1.2,0.1c-0.1-0.1-0.1-0.3,0-0.5l0.2-0.1c0.5-0.1,0.5-0.4,0.5-2.3V96.3z"/><path class="st4" d="M84.7,99.8c0-3.7,1.5-6.5,3.5-6.5c2.3,0,3.5,3.1,3.5,6.3c0,3.7-1.5,6.4-3.5,6.4C86,106,84.7,103.1,84.7,99.8z M90.7,100.1c0-3-0.7-6.3-2.6-6.3c-1,0-2.4,1.3-2.4,5.3c0,2.7,0.7,6.2,2.7,6.2C89.5,105.4,90.7,103.8,90.7,100.1z"/><path class="st4" d="M103.1,99.8c-0.5,0-0.5,0-0.5,0.6v2.6c0,1.9,0,2.2,0.6,2.3l0.3,0.1c0.1,0.1,0,0.4,0,0.5c-0.5,0-0.9-0.1-1.3-0.1c-0.4,0-0.8,0-1.2,0.1c-0.1-0.1-0.1-0.3,0-0.5l0.2-0.1c0.6-0.2,0.6-0.4,0.6-2.3v-6.6c0-1.9-0.1-2.2-0.6-2.3l-0.3,0c-0.1-0.1,0-0.4,0-0.5c0.5,0,0.8,0.1,1.3,0.1c0.4,0,0.7,0,1.2-0.1c0.1,0.1,0.1,0.4,0,0.5l-0.2,0c-0.6,0.1-0.6,0.4-0.6,2.3v2.1c0,0.6,0,0.6,0.5,0.6h2.8c0.5,0,0.5,0,0.5-0.6v-2.1c0-1.9,0-2.2-0.6-2.3l-0.2,0c-0.1-0.1,0-0.4,0-0.5c0.5,0,0.8,0.1,1.2,0.1c0.4,0,0.7,0,1.2-0.1c0.1,0.1,0.1,0.4,0,0.5l-0.2,0c-0.6,0.1-0.6,0.4-0.6,2.3v6.6c0,1.9,0,2.2,0.6,2.3l0.2,0.1c0.1,0.1,0,0.4,0,0.5c-0.5,0-0.8-0.1-1.2-0.1c-0.4,0-0.8,0-1.2,0.1c-0.1-0.1-0.1-0.3,0-0.5l0.2-0.1c0.6-0.2,0.6-0.4,0.6-2.3v-2.6c0-0.6,0-0.6-0.5-0.6H103.1z"/><path class="st4" d="M112,99.8c0-3.7,1.5-6.5,3.5-6.5c2.3,0,3.5,3.1,3.5,6.3c0,3.7-1.5,6.4-3.5,6.4C113.3,106,112,103.1,112,99.8z M118,100.1c0-3-0.7-6.3-2.6-6.3c-1,0-2.4,1.3-2.4,5.3c0,2.7,0.7,6.2,2.7,6.2C116.9,105.4,118,103.8,118,100.1z"/><path class="st4" d="M129.1,102.6c0,0.5,0,2.7,0,3.2c0,0.1-0.1,0.2-0.2,0.2c-0.1-0.3-0.4-1-1.3-2.8l-2.3-4.8c-0.3-0.6-0.9-2.1-1.2-2.5h0c0,0.2,0,0.6,0,1.2v4c0,0.9,0,3.2,0.2,3.8c0.1,0.2,0.3,0.3,0.5,0.3l0.3,0.1c0.1,0.1,0,0.4,0,0.5c-0.4,0-0.8-0.1-1.2-0.1c-0.4,0-0.7,0-1,0.1c-0.1-0.1-0.1-0.3,0-0.5l0.3-0.1c0.2-0.1,0.4-0.2,0.4-0.4c0.1-0.7,0.1-2.9,0.1-3.8v-5.3c0-0.5,0-0.9-0.2-1.3c-0.1-0.3-0.4-0.4-0.6-0.4l-0.2,0c-0.1-0.1-0.1-0.4,0-0.5c0.4,0.1,0.9,0.1,1.1,0.1c0.2,0,0.3,0,0.5-0.1c0.2,0.9,1.4,3.4,1.7,4l1,2c0.7,1.4,1.2,2.4,1.6,3.3h0c0-0.1,0-0.4,0-0.8v-3.9c0-0.9,0-3.2-0.2-3.8c-0.1-0.2-0.2-0.3-0.6-0.4l-0.2,0c-0.1-0.1-0.1-0.4,0-0.5c0.5,0,0.8,0.1,1.2,0.1c0.4,0,0.7,0,1-0.1c0.1,0.1,0.1,0.3,0,0.5l-0.1,0c-0.3,0.1-0.5,0.2-0.6,0.4c-0.2,0.7-0.1,2.9-0.1,3.8V102.6z"/><path class="st4" d="M134.5,96c0-1.3,0-1.7-0.5-1.8l-0.2-0.1c-0.1-0.1-0.1-0.4,0-0.5c0.8-0.1,1.7-0.1,2.5-0.1c0.8,0,1.5,0.1,2.2,0.6c1.3,0.9,2,3,2,5.4c0,2.3-0.6,4.3-1.7,5.5c-0.6,0.6-1.5,0.9-2.2,0.9c-0.6,0-1.3-0.1-1.6-0.1c-0.4,0-0.8,0-1.2,0.1c-0.1-0.1-0.1-0.3,0-0.5l0.2-0.1c0.6-0.1,0.6-0.4,0.6-2.3V96z M135.3,102.5c0,1,0,1.6,0.2,2c0.2,0.6,0.6,0.8,1.2,0.8c1.9,0,2.8-2.3,2.8-5.7c0-2-0.5-5.4-3.1-5.4c-0.6,0-0.9,0.1-1,0.3c-0.1,0.1-0.1,0.6-0.1,1.4V102.5z"/><path class="st4" d="M148,101.4c-0.1-0.4-0.1-0.5-0.4-0.5h-1.5c-0.2,0-0.3,0.1-0.4,0.4l-0.3,1.9c-0.1,0.8-0.2,1.3-0.2,1.5c0,0.2,0,0.3,0.3,0.4l0.3,0.1c0.1,0.1,0.1,0.4,0,0.5c-0.3,0-0.6,0-1-0.1c-0.3,0-0.7,0-1,0.1c-0.1-0.1-0.1-0.4,0-0.5l0.3-0.1c0.2,0,0.5-0.2,0.6-0.9c0.2-0.8,0.5-2,0.9-4.1l1-5c0.1-0.7,0.2-1,0.2-1.3c0.2-0.1,0.4-0.5,0.5-0.7c0.1,0,0.1,0,0.1,0.2c0.1,0.8,0.3,1.7,0.4,2.5l1.4,7.4c0.3,1.6,0.4,1.9,0.8,1.9l0.3,0.1c0.1,0.1,0,0.4,0,0.5c-0.4,0-0.8-0.1-1.2-0.1c-0.5,0-0.9,0-1.1,0.1c-0.1-0.1-0.1-0.4,0-0.5l0.3-0.1c0.2,0,0.3-0.1,0.3-0.3c0-0.2,0-0.5-0.1-1L148,101.4z M146,99.8c-0.1,0.4-0.1,0.4,0.2,0.4h1.2c0.3,0,0.3-0.1,0.2-0.6l-0.5-3c-0.1-0.4-0.2-0.9-0.2-1.2h0c0,0.1-0.1,0.5-0.2,1.1L146,99.8z"/></g><rect x="33.6" y="206.9" width="132.1" height="12.4"/><g><path class="st4" d="M38.5,209.5c0-1.9,0-2.2-0.6-2.3l-0.2,0c-0.1-0.1,0-0.4,0-0.5c0.5,0,0.8,0.1,1.3,0.1c0.4,0,0.7,0,1.2-0.1c0.1,0.1,0.1,0.4,0,0.5l-0.2,0c-0.6,0.1-0.6,0.4-0.6,2.3v2.1c0,0.3,0,0.7,0.1,0.7c0.1,0,0.2-0.1,0.3-0.2c0.1-0.2,0.4-0.7,0.5-0.9l1.1-2c0.2-0.3,0.7-1.3,0.8-1.5c0-0.1,0.1-0.2,0.1-0.3c0-0.1,0-0.1-0.2-0.2l-0.3-0.1c-0.1-0.1-0.1-0.4,0-0.5c0.3,0,0.7,0.1,1.1,0.1s0.7,0,1-0.1c0.1,0.1,0.1,0.3,0,0.5c-0.3,0-0.6,0.2-0.9,0.5c-0.3,0.3-0.8,1.2-1.4,2.1l-0.9,1.6c-0.1,0.3-0.2,0.4-0.2,0.6c0,0.1,0.1,0.3,0.2,0.6c0.9,2,1.7,3.7,2.5,5.2c0.2,0.4,0.5,0.7,0.8,0.8l0.3,0.1c0.1,0.1,0,0.4,0,0.5c-0.3,0-0.6-0.1-1.1-0.1c-0.4,0-0.8,0-1.2,0.1c-0.1,0-0.1-0.3,0-0.5l0.2-0.1c0.1,0,0.2-0.1,0.2-0.2c0-0.1-0.1-0.3-0.1-0.4c-0.2-0.4-0.4-0.9-0.8-1.7l-0.8-1.7c-0.6-1.2-0.7-1.5-1-1.5c-0.1,0-0.2,0.2-0.2,0.9v2.4c0,1.9,0,2.2,0.6,2.3l0.3,0.1c0.1,0.1,0,0.4,0,0.5c-0.5,0-0.8-0.1-1.2-0.1c-0.4,0-0.7,0-1.2,0.1c-0.1-0.1-0.1-0.3,0-0.5l0.2-0.1c0.5-0.1,0.5-0.4,0.5-2.3V209.5z"/><path class="st4" d="M51,214.6c-0.1-0.4-0.1-0.5-0.4-0.5h-1.5c-0.2,0-0.3,0.1-0.4,0.4l-0.3,1.9c-0.1,0.8-0.2,1.3-0.2,1.5c0,0.2,0,0.3,0.3,0.4l0.3,0.1c0.1,0.1,0.1,0.4,0,0.5c-0.3,0-0.6,0-1-0.1c-0.3,0-0.7,0-1,0.1c-0.1-0.1-0.1-0.4,0-0.5l0.3-0.1c0.2,0,0.5-0.2,0.6-0.9c0.2-0.8,0.5-2,0.9-4.1l1-5c0.1-0.7,0.2-1,0.2-1.3c0.2-0.1,0.4-0.5,0.5-0.7c0.1,0,0.1,0,0.1,0.2c0.1,0.8,0.3,1.7,0.4,2.5l1.4,7.4c0.3,1.6,0.4,1.9,0.8,1.9l0.3,0.1c0.1,0.1,0,0.4,0,0.5c-0.4,0-0.8-0.1-1.2-0.1c-0.5,0-0.9,0-1.1,0.1c-0.1-0.1-0.1-0.4,0-0.5l0.3-0.1c0.2,0,0.3-0.1,0.3-0.3c0-0.2,0-0.5-0.1-1L51,214.6z M49,213c-0.1,0.4-0.1,0.4,0.2,0.4h1.2c0.3,0,0.3-0.1,0.2-0.6l-0.5-3c-0.1-0.4-0.2-0.9-0.2-1.2h0c0,0.1-0.1,0.5-0.2,1.1L49,213z"/><path class="st4" d="M59.8,216.1c0,1.9,0,2.2,0.6,2.3l0.3,0.1c0.1,0.1,0,0.4,0,0.5c-0.6,0-0.9-0.1-1.3-0.1s-0.7,0-1.4,0.1c-0.1-0.1-0.1-0.4,0-0.5l0.4-0.1c0.6-0.1,0.6-0.4,0.6-2.3v-8.2c0-0.6,0-0.6-0.3-0.6h-0.5c-0.4,0-1,0-1.2,0.5c-0.2,0.4-0.3,0.8-0.4,1.3c-0.1,0.1-0.2,0-0.3-0.1c0.2-0.8,0.3-2,0.4-2.7c0,0,0.2-0.1,0.2,0c0.1,0.6,0.4,0.6,0.8,0.6h4c0.5,0,0.6,0,0.8-0.5c0,0,0.2,0,0.2,0.1c-0.1,0.8-0.2,2.2-0.1,2.8c0,0.1-0.2,0.1-0.3,0c0-0.5-0.1-1.1-0.2-1.3c-0.2-0.3-0.6-0.5-1.2-0.5h-0.7c-0.3,0-0.3,0-0.3,0.6V216.1z"/><path class="st4" d="M67.9,219.2c-0.8,0-1.4-0.5-1.6-0.7c-0.1-0.4-0.2-1.7-0.3-2.6c0-0.1,0.2-0.2,0.2-0.1c0.1,0.9,0.6,2.7,1.7,2.7c0.8,0,1.2-1,1.2-2.1c0-0.8-0.1-1.7-0.8-2.6l-0.9-1.1c-0.5-0.6-1.1-1.7-1.1-3.2c0-1.7,0.7-3.2,2-3.2c0.3,0,0.7,0.1,0.9,0.2c0.1,0.1,0.3,0.1,0.3,0.1c0.1,0.4,0.2,1.5,0.2,2.2c0,0.1-0.2,0.2-0.2,0.1c-0.1-0.9-0.4-2.1-1.4-2.1c-1,0-1.2,1.2-1.2,2c0,1.1,0.5,1.8,0.8,2.3l0.8,0.9c0.6,0.7,1.2,1.8,1.2,3.5C70,217.8,69.2,219.2,67.9,219.2z"/><path class="st4" d="M79.5,211.4c0-1.1,0-3.2-0.2-3.8c-0.1-0.2-0.2-0.3-0.5-0.4l-0.2,0c-0.1-0.1,0-0.4,0-0.4c0.4,0,0.7,0.1,1.1,0.1c0.4,0,0.7,0,1-0.1c0.1,0.1,0.1,0.3,0,0.4l-0.2,0c-0.2,0-0.4,0.2-0.5,0.4c-0.1,0.6-0.1,2.7-0.1,3.7v2.1c0,1.6-0.1,3.3-0.7,4.4c-0.4,0.9-1.2,1.3-1.9,1.3c-0.7,0-1.4-0.2-1.9-1c-0.5-0.8-0.8-2.1-0.8-4.3v-4.3c0-1.9,0-2.2-0.6-2.3l-0.2,0c-0.1-0.1,0-0.4,0-0.4c0.5,0,0.8,0.1,1.2,0.1c0.4,0,0.7,0,1.2-0.1c0.1,0.1,0.1,0.4,0,0.4l-0.2,0c-0.6,0.1-0.6,0.4-0.6,2.3v4c0,3,0.5,4.9,2,4.9c1.4,0,2-2.1,2-4.9V211.4z"/><path class="st4" d="M87.8,214c0.2,0.9,0.4,1.7,0.7,2.5h0c0.3-0.9,0.5-1.8,0.8-2.8l0.9-3.5c0.4-1.7,0.7-2.7,0.8-3.5c0.3,0.1,0.5,0.1,0.7,0.1c0.2,0,0.6,0,0.9-0.1c0.1,0.1,0.1,0.4,0,0.5l-0.2,0c-0.6,0.1-0.7,0.5-0.7,1.7c0,1.9,0,5.3,0.1,8c0,0.9,0,1.4,0.5,1.5l0.3,0.1c0.1,0.1,0,0.4,0,0.5c-0.4,0-0.8-0.1-1.2-0.1c-0.3,0-0.8,0-1.2,0.1c-0.1-0.1-0.1-0.3,0-0.5l0.3-0.1c0.5-0.1,0.5-0.4,0.5-1.6l0-7.7h0c-0.1,0.2-0.4,1.7-0.6,2.4l-0.9,3.2c-0.4,1.6-0.9,3.3-1.1,4.2c0,0.1-0.1,0.1-0.1,0.1c0,0-0.1,0-0.1-0.1c-0.2-1-0.6-2.8-0.9-3.7l-0.9-3.5c-0.2-0.8-0.4-1.8-0.6-2.6h0c0,1.1-0.1,2.2-0.1,3.3c0,1.1-0.1,2.8-0.1,4.3c0,1.4,0.1,1.7,0.4,1.7l0.4,0.1c0.1,0.1,0.1,0.4,0,0.5c-0.3,0-0.7-0.1-1.1-0.1c-0.3,0-0.7,0-1,0.1c-0.1-0.1-0.1-0.4,0-0.5l0.2-0.1c0.4-0.1,0.6-0.2,0.6-1.5c0.1-1.2,0.1-2.2,0.2-4c0-1.5,0.1-3.1,0.1-4.1c0-1.2-0.1-1.4-0.7-1.6l-0.2,0c0-0.1,0-0.4,0-0.5c0.3,0,0.5,0.1,0.8,0.1c0.2,0,0.5,0,0.8-0.1c0,0.7,0.2,1.9,0.5,3L87.8,214z"/><path class="st4" d="M97.2,209.6c0-1.9,0-2.3-0.6-2.3l-0.2,0c-0.1-0.1,0-0.4,0-0.5c0.5,0,0.8,0.1,1.3,0.1c0.4,0,0.7,0,1.2-0.1c0.1,0.1,0.1,0.4,0,0.5l-0.2,0c-0.6,0.1-0.6,0.4-0.6,2.3v6.5c0,1.9,0,2.2,0.6,2.3l0.2,0.1c0.1,0.1,0,0.4,0,0.5c-0.5,0-0.8-0.1-1.2-0.1c-0.4,0-0.8,0-1.3,0.1c-0.1-0.1-0.1-0.3,0-0.5l0.2-0.1c0.6-0.1,0.6-0.4,0.6-2.3V209.6z"/><path class="st4" d="M114.4,215.8c0,0.5,0,2.7,0,3.2c0,0.1-0.1,0.2-0.2,0.2c-0.1-0.3-0.4-1-1.3-2.8l-2.3-4.8c-0.3-0.6-0.9-2.1-1.2-2.5h0c0,0.2,0,0.6,0,1.2v4c0,0.9,0,3.2,0.2,3.8c0.1,0.2,0.3,0.3,0.5,0.3l0.3,0.1c0.1,0.1,0,0.4,0,0.5c-0.4,0-0.8-0.1-1.2-0.1c-0.4,0-0.7,0-1,0.1c-0.1-0.1-0.1-0.3,0-0.5l0.3-0.1c0.2-0.1,0.4-0.2,0.4-0.4c0.1-0.7,0.1-2.9,0.1-3.8V209c0-0.5,0-0.9-0.2-1.3c-0.1-0.3-0.4-0.4-0.6-0.4l-0.2,0c-0.1-0.1-0.1-0.4,0-0.5c0.4,0.1,0.9,0.1,1.1,0.1c0.2,0,0.3,0,0.5-0.1c0.2,0.9,1.4,3.4,1.7,4l1,2c0.7,1.4,1.2,2.4,1.6,3.3h0c0-0.1,0-0.4,0-0.8v-3.9c0-0.9,0-3.2-0.2-3.8c-0.1-0.2-0.2-0.3-0.6-0.4l-0.2,0c-0.1-0.1-0.1-0.4,0-0.5c0.5,0,0.8,0.1,1.2,0.1c0.4,0,0.7,0,1-0.1c0.1,0.1,0.1,0.3,0,0.5l-0.1,0c-0.3,0.1-0.5,0.2-0.6,0.4c-0.2,0.7-0.1,2.9-0.1,3.8V215.8z"/><path class="st4" d="M122.6,214.6c-0.1-0.4-0.1-0.5-0.4-0.5h-1.5c-0.2,0-0.3,0.1-0.4,0.4l-0.3,1.9c-0.1,0.8-0.2,1.3-0.2,1.5c0,0.2,0,0.3,0.3,0.4l0.3,0.1c0.1,0.1,0.1,0.4,0,0.5c-0.3,0-0.6,0-1-0.1c-0.3,0-0.7,0-1,0.1c-0.1-0.1-0.1-0.4,0-0.5l0.3-0.1c0.2,0,0.5-0.2,0.6-0.9c0.2-0.8,0.5-2,0.9-4.1l1-5c0.1-0.7,0.2-1,0.2-1.3c0.2-0.1,0.4-0.5,0.5-0.7c0.1,0,0.1,0,0.1,0.2c0.1,0.8,0.3,1.7,0.4,2.5l1.4,7.4c0.3,1.6,0.4,1.9,0.8,1.9l0.3,0.1c0.1,0.1,0,0.4,0,0.5c-0.4,0-0.8-0.1-1.2-0.1c-0.5,0-0.9,0-1.1,0.1c-0.1-0.1-0.1-0.4,0-0.5l0.3-0.1c0.2,0,0.3-0.1,0.3-0.3c0-0.2,0-0.5-0.1-1L122.6,214.6z M120.6,213c-0.1,0.4-0.1,0.4,0.2,0.4h1.2c0.3,0,0.3-0.1,0.2-0.6l-0.5-3c-0.1-0.4-0.2-0.9-0.2-1.2h0c0,0.1-0.1,0.5-0.2,1.1L120.6,213z"/><path class="st4" d="M129,209.5c0-1.9,0-2.2-0.6-2.3l-0.2,0c-0.1-0.1,0-0.4,0-0.5c0.5,0,0.8,0.1,1.3,0.1c0.4,0,0.7,0,1.2-0.1c0.1,0.1,0.1,0.4,0,0.5l-0.2,0c-0.6,0.1-0.6,0.4-0.6,2.3v2.1c0,0.3,0,0.7,0.1,0.7c0.1,0,0.2-0.1,0.3-0.2c0.1-0.2,0.4-0.7,0.5-0.9l1.1-2c0.2-0.3,0.7-1.3,0.8-1.5c0-0.1,0.1-0.2,0.1-0.3c0-0.1,0-0.1-0.2-0.2l-0.3-0.1c-0.1-0.1-0.1-0.4,0-0.5c0.3,0,0.7,0.1,1.1,0.1s0.7,0,1-0.1c0.1,0.1,0.1,0.3,0,0.5c-0.3,0-0.6,0.2-0.9,0.5c-0.3,0.3-0.8,1.2-1.4,2.1l-0.9,1.6c-0.1,0.3-0.2,0.4-0.2,0.6c0,0.1,0.1,0.3,0.2,0.6c0.9,2,1.7,3.7,2.5,5.2c0.2,0.4,0.5,0.7,0.8,0.8l0.3,0.1c0.1,0.1,0,0.4,0,0.5c-0.3,0-0.6-0.1-1.1-0.1c-0.4,0-0.8,0-1.2,0.1c-0.1,0-0.1-0.3,0-0.5l0.2-0.1c0.1,0,0.2-0.1,0.2-0.2c0-0.1-0.1-0.3-0.1-0.4c-0.2-0.4-0.4-0.9-0.8-1.7l-0.8-1.7c-0.6-1.2-0.7-1.5-1-1.5c-0.1,0-0.2,0.2-0.2,0.9v2.4c0,1.9,0,2.2,0.6,2.3l0.3,0.1c0.1,0.1,0,0.4,0,0.5c-0.5,0-0.8-0.1-1.2-0.1c-0.4,0-0.7,0-1.2,0.1c-0.1-0.1-0.1-0.3,0-0.5l0.2-0.1c0.5-0.1,0.5-0.4,0.5-2.3V209.5z"/><path class="st4" d="M141.5,214.6c-0.1-0.4-0.1-0.5-0.4-0.5h-1.5c-0.2,0-0.3,0.1-0.4,0.4l-0.3,1.9c-0.1,0.8-0.2,1.3-0.2,1.5c0,0.2,0,0.3,0.3,0.4l0.3,0.1c0.1,0.1,0.1,0.4,0,0.5c-0.3,0-0.6,0-1-0.1c-0.3,0-0.7,0-1,0.1c-0.1-0.1-0.1-0.4,0-0.5l0.3-0.1c0.2,0,0.5-0.2,0.6-0.9c0.2-0.8,0.5-2,0.9-4.1l1-5c0.1-0.7,0.2-1,0.2-1.3c0.2-0.1,0.4-0.5,0.5-0.7c0.1,0,0.1,0,0.1,0.2c0.1,0.8,0.3,1.7,0.4,2.5l1.4,7.4c0.3,1.6,0.4,1.9,0.8,1.9l0.3,0.1c0.1,0.1,0,0.4,0,0.5c-0.4,0-0.8-0.1-1.2-0.1c-0.5,0-0.9,0-1.1,0.1c-0.1-0.1-0.1-0.4,0-0.5l0.3-0.1c0.2,0,0.3-0.1,0.3-0.3c0-0.2,0-0.5-0.1-1L141.5,214.6z M139.5,213c-0.1,0.4-0.1,0.4,0.2,0.4h1.2c0.3,0,0.3-0.1,0.2-0.6l-0.5-3c-0.1-0.4-0.2-0.9-0.2-1.2h0c0,0.1-0.1,0.5-0.2,1.1L139.5,213z"/><path class="st4" d="M148.8,219.2c-0.8,0-1.4-0.5-1.6-0.7c-0.1-0.4-0.2-1.7-0.3-2.6c0-0.1,0.2-0.2,0.2-0.1c0.1,0.9,0.6,2.7,1.7,2.7c0.8,0,1.2-1,1.2-2.1c0-0.8-0.1-1.7-0.8-2.6l-0.9-1.1c-0.5-0.6-1.1-1.7-1.1-3.2c0-1.7,0.7-3.2,2-3.2c0.3,0,0.7,0.1,0.9,0.2c0.1,0.1,0.3,0.1,0.3,0.1c0.1,0.4,0.2,1.5,0.2,2.2c0,0.1-0.2,0.2-0.2,0.1c-0.1-0.9-0.4-2.1-1.4-2.1c-1,0-1.2,1.2-1.2,2c0,1.1,0.5,1.8,0.8,2.3l0.8,0.9c0.6,0.7,1.2,1.8,1.2,3.5C151,217.8,150.1,219.2,148.8,219.2z"/><path class="st4" d="M155.7,209.5c0-1.9,0-2.2-0.6-2.3l-0.2,0c-0.1-0.1,0-0.4,0-0.5c0.4,0,0.8,0.1,1.2,0.1h1.9c0.6,0,1.2,0,1.3-0.1c0.1,0.3,0.1,1.6,0.2,2.4c0,0.1-0.2,0.1-0.2,0c-0.1-0.9-0.2-1.5-0.8-1.7c-0.2-0.1-0.5-0.1-1-0.1h-0.7c-0.3,0-0.3,0-0.3,0.7v3.7c0,0.5,0,0.5,0.3,0.5h0.6c0.4,0,0.7,0,0.8-0.1c0.1-0.1,0.2-0.2,0.2-0.6l0.1-0.8c0-0.1,0.2-0.1,0.3,0c0,0.4,0,1.2,0,1.9c0,0.7,0,1.4,0,1.8c0,0.1-0.2,0.1-0.3,0l-0.1-0.7c0-0.3-0.1-0.6-0.3-0.7c-0.1-0.1-0.4-0.1-0.8-0.1h-0.6c-0.3,0-0.3,0-0.3,0.5v2.6c0,1,0,1.6,0.2,1.9c0.1,0.2,0.3,0.4,1.2,0.4c0.8,0,1.1-0.1,1.3-0.3c0.2-0.2,0.4-0.8,0.7-1.8c0.1-0.1,0.2,0,0.2,0.1c-0.1,0.6-0.3,2.1-0.4,2.6c-0.9,0-1.8-0.1-2.7-0.1h-0.9c-0.4,0-0.8,0-1.4,0.1c-0.1-0.1-0.1-0.3,0-0.5l0.3-0.1c0.6-0.1,0.6-0.4,0.6-2.3V209.5z"/></g></g></g></svg>