<svg xmlns="http://www.w3.org/2000/svg" viewBox="0 0 380.17 475.55"><defs><style>.cls-1,.cls-2,.cls-3,.cls-4,.cls-6{fill:none;}.cls-1,.cls-2,.cls-3,.cls-4{stroke:#000;}.cls-1{stroke-width:0.52px;}.cls-2{stroke-width:0.5px;}.cls-3{stroke-width:0.4px;}.cls-4{stroke-width:0.44px;}.cls-5{fill:#fff;}.cls-6{opacity:0.12;}</style></defs><title>アートボード 38</title><g id="letter_ol"><path d="M35.26,61.09c2.41.84,4.17,2.86,4.17,5s-1.21,2.75-2.12,2.75c-.57,0-.6-.18-.69-1.8a18.76,18.76,0,0,0-1.39-5.83Zm18.12,2.49,1.24-2.49c.19-.41.22-.44.29-.44a15.07,15.07,0,0,1,2.29,3.12c0,.25-.14.25-.29.25H50.69a9.54,9.54,0,0,0,7.08,4.66v.15A5.62,5.62,0,0,0,56.46,72c-.1,1-.1,1-.38,1-.45,0-4.53-1.62-5.75-9h-.26v7.42c0,.36,0,.51-.31.55l-2.1.22c-.31,0-.36-.11-.36-.52V66.12A14.68,14.68,0,0,1,42.44,72a26.83,26.83,0,0,1,3.07,1.18h6.61l.81-1.58c.1-.22.14-.26.24-.26S56,74.15,56,74.7s-.84,1-1,1.07v9.76c0,.7,0,.77-.31.81l-2.1.18c-.38,0-.38,0-.38-.44V84.43h-7v1.21c0,.51,0,.73-.41.77l-2,.18c-.36,0-.43-.11-.43-.62V72.06a24.61,24.61,0,0,1-2.36,1.54c-.09.66-.71,3.71-.71,4.33a4,4,0,0,0,.55,1.91,10,10,0,0,1,.71,3.34c0,1.43-.5,3.3-2.24,3.3-.91,0-1-.44-1-2A21.93,21.93,0,0,0,35.59,75l0-.11a14.14,14.14,0,0,1,1.62,1.35c.91-2.9,3.89-14.12,4.7-17.61h.1c-.43,4.33-.94,8.22-2,14.68A26.17,26.17,0,0,0,44.94,64h-3.1l-.12-.44H47.3V57.45a33.1,33.1,0,0,1-4.15.08c2.32.84,3.29,1.94,3.29,3.67,0,1-.4,2.09-1.5,2.09-.91,0-1-.33-1.22-2.2a9.51,9.51,0,0,0-1-3.56c-.14,0-.72,0-.84-.08v-.07a36.24,36.24,0,0,0,10.71-4.62c.7.69,3.37,3.48,3.37,4a.23.23,0,0,1-.24.25c-.17,0-.29-.11-.65-.36,0,0-2.26.25-3.38.4a21,21,0,0,1,3.43,1.62.4.4,0,0,1,.24.36c0,.3-.22.3-.62.26a25.44,25.44,0,0,1-3.84,4.29ZM36.52,52.79c3.25.74,4.72,2.61,4.72,4.7,0,1.8-1.07,2.83-2,2.83-.5,0-.52-.19-.74-1.58a16.66,16.66,0,0,0-2-5.8Zm8.71,20.85v5h2.05v-5ZM47.28,79H45.23v5h2.05ZM50,73.64v5h2.15v-5ZM52.19,79H50v5h2.15ZM50.57,63.58c.36-1.61.71-4.47,1-6.53l-1.5.19v6.34Z"/><path d="M74,85.86c4.51-1.29,9.11-4.29,9.11-13.73a18.86,18.86,0,0,0-1.34-7.34,4.12,4.12,0,0,0-3-2.56,68.58,68.58,0,0,1-2.34,11.19,6.16,6.16,0,0,1,1,3.56c0,.62-.07,1.83-.67,1.83a3.1,3.1,0,0,1-2-1.39c-1.66,3.89-3.14,5.47-4.67,5.47-.26,0-1.12,0-1.67-1.51-.14-.37-.57-2.31-.74-2.68a9.27,9.27,0,0,1-1.12-4.51,15.94,15.94,0,0,1,3.72-9.54c-.17-1.47-.28-2.5-.55-5.21-.19-2-.38-3-1.24-4a2.55,2.55,0,0,1,2.32,1.8c.5,1,.69,2.16,1.26,5.8a10.35,10.35,0,0,1,4.75-2,41.33,41.33,0,0,0,.43-5.65c0-1.65-.29-2.06-.6-2.46a1.19,1.19,0,0,1,.45-.15c.72,0,2,1.22,2,4,0,.48-.07,1.88-.31,4.33,6.92,1.51,7.3,10.72,7.3,12.63,0,2.53-.48,8.18-4.8,10.42A16.47,16.47,0,0,1,74,86ZM70.91,67.47a17.47,17.47,0,0,0-2.26,8.26c0,1.06,0,3.52.81,3.52s2.17-1,3.79-4.58A29.22,29.22,0,0,1,70.91,67.47Zm1.62-2.42a18.22,18.22,0,0,0,2.2,6,59.07,59.07,0,0,0,2-8.88A8.17,8.17,0,0,0,72.53,65.05Z"/><path d="M106,52.43c1.51,0,2.56,2.64,2.56,4.55,0,1.43-.46,1.87-1.77,3.15-2.29,2.24-4.82,4.7-7.23,7.16a3.28,3.28,0,0,0-1.07,1.87c0,.74.19.85,2,2.06,4.63,3.12,6.75,6,7.8,10.09a8.5,8.5,0,0,1,.29,2.16c0,1.47-.82,3.16-1.82,3.16-.62,0-.71-.26-1.4-2.68-2-6.75-4.7-9.14-7.16-11.23a3.9,3.9,0,0,1-1.6-3.08c0-2.09.84-3,2.46-5,3.72-4.36,6.51-7.81,6.51-9.79a1.38,1.38,0,0,0-1.19-1.51A2.33,2.33,0,0,1,106,52.43Zm6.59,13.06c0,1.1-.55,1.69-1,1.69s-.67-.4-1.1-2.17a9.05,9.05,0,0,0-1.55-3.48C110.31,61.75,112.58,63.14,112.58,65.49Zm2.5-3.81c0,.62-.21,1.61-.86,1.61-.38,0-.48-.15-1-1.58a7.94,7.94,0,0,0-2.53-3.34C112,58.23,115.08,58.92,115.08,61.68Z"/><path d="M130.61,86c3.12-1,6.41-2,7.53-11.27a12.31,12.31,0,0,0-7.08-1.8,70.34,70.34,0,0,0-2.15,7.27c-.52,2-1,3.56-2.24,3.56-.19,0-2.1,0-2.62-3.75a8.82,8.82,0,0,0-.46-2,6.1,6.1,0,0,1-.38-2c0-.88.53-5.83,6.94-6.72.46-1.32,3.7-10.64,3.7-10.86a.38.38,0,0,0-.29-.36c-.23,0-1,1.35-1.26,1.87-.91,1.65-1.38,2.13-2.24,2.13s-2.67-1.25-2.67-4.08a8.72,8.72,0,0,1,.07-1.14c.21.63.43,1.18,1.21,1.18,1.27,0,3.68-2.61,4.06-3,.57-.69,1-1.17,1.83-1.17A3.14,3.14,0,0,1,137.31,57c0,.81-.12,1-1,2.17-1.1,1.5-3.08,7.41-4,10.24a19,19,0,0,1,6.18,1.76c0-.7,0-1.17,0-1.36,0-1.39-.26-2.13-1.33-2.35.45-1.21.88-2.27,1.64-2.27,1,0,2.7,2.24,2.7,3.48a4.91,4.91,0,0,1-.48,1.69,9.07,9.07,0,0,0-.28,2c3.53,2.06,3.69,2.75,3.69,4.07s-.67,2.87-1.26,2.87c-.38,0-.74-.3-1.62-1.43a16.29,16.29,0,0,0-1.17-1.36c-.5,4.14-1.72,7.15-3.94,8.25a13.51,13.51,0,0,1-5.86,1.4Zm-5.94-8.11c0,.73.33,1.5,1,1.5.36,0,.55,0,1.36-1.87.24-.55,1.27-3.41,1.5-4A5.3,5.3,0,0,0,124.67,77.9Z"/><path d="M47.18,149.15c.24-.5.41-.82.53-.82.29,0,2.38,3.61,2.75,4.3,1.53-7.34,2.06-12.21,2.35-14.55.74.25,6.46,2.53,6.46,3.23,0,.38-.13.38-1.4.63a71.32,71.32,0,0,1-3,9.17c.74.26,2.63.76,3.25,1h1.61c.69-3.36,1.64-10.25,1.93-13.35a45.84,45.84,0,0,1,5.76,2.59c.82.44.9.44.9.82s-1,.38-1.48.38a79.88,79.88,0,0,1-6.42,9.56h5.35L68,147.76c.37-.69.41-.76.54-.76s4.07,4.68,4.07,5.44c0,.45-.29.45-.54.45H65v12.27h.7l1.89-4.3c.13-.26.37-.76.54-.76s3.45,4.74,3.45,5.37c0,.45-.29.45-.53.45H65v12.33h.7l2-4.49c.2-.44.32-.82.49-.82s3.66,5,3.66,5.63c0,.44-.29.44-.54.44H65v13.48h.7l2.39-4.94c.37-.76.37-.82.49-.82s4.4,5.44,4.4,6.07c0,.45-.29.45-.54.45H56.39v2c0,1.14,0,1.27-.74,1.33l-3.17.38c-.62.06-.95.06-.95-1.2V158.26a45.34,45.34,0,0,1-3.37,5.38,11.58,11.58,0,0,1,2.63,7.21c0,2.85-1.19,4.43-3,4.43-.9,0-1-.44-1.11-1.9-.29-4.8-.49-8.66-1.89-12.52v33.72c0,1.77,0,2-.7,2L40.8,197c-.74.06-.74-.06-.74-1.46V174.65a32.53,32.53,0,0,1-6.46,9.11l0-.13c1.32-3.16,4.44-10.69,6.29-29.73h-5l-.21-.7h5.39v-15c1.23.18,4.52.56,5.55.69.21.06.45.13.45.44s-.28.57-1.31,1.08V153.2h.45Zm-2.43,4.75v6.58a9.6,9.6,0,0,1,3.08,2.78,93.43,93.43,0,0,0,2.39-9.36Zm11.64-1v12.27h3.78V152.89Zm0,13v12.33h3.78V165.92ZM60.17,179H56.39v13.48h3.78Z"/><path d="M88.79,164.08c4.44-6.64,8.56-17,11.15-26.82.37.13,4.6,2,5.47,2.34,1.15.51,1.56.7,1.56,1.14s0,.5-1.6.88c-.42.95-.74,1.71-1.94,4.18h10.82l1.35-2.4c.7-1.21.79-1.33,1-1.33.41,0,5.27,5.18,5.76,6.13a1.39,1.39,0,0,1,.17.7c0,1.26-2.23,1.77-3.09,1.9A87.85,87.85,0,0,1,105,172.24H117.5l1.31-2.84c.54-1.2.74-1.65,1.07-1.65s2.39,2.41,3,3c.7.82,2.22,2.59,2.22,3.35s-1.07,1.77-1.81,2.22v17.77c0,.89,0,1.84-1,2l-3.33.38c-.7.07-1,.13-1-.95V192H103.31v3c0,1.14-.12,1.39-.9,1.45l-3.38.38c-.86.13-.86.07-.86-1.2V178.19A46.18,46.18,0,0,1,87.4,184l-.13-.19c2.31-1.71,5.43-4.11,10.9-10.44v-3.86c1.32.51,1.73.63,2.43.89a86.63,86.63,0,0,0,5.22-7.22,3.87,3.87,0,0,1-2.3,1c-1.16,0-1.32-.76-1.44-1.52A29.39,29.39,0,0,0,99.16,153a53.79,53.79,0,0,1-10.28,11.26Zm14.27-17.58a61.68,61.68,0,0,1-3.12,5.37,14,14,0,0,1,4.48,1.84,7.3,7.3,0,0,1,3,5.69,5.59,5.59,0,0,1-.29,1.71,116.67,116.67,0,0,0,7.53-14.61Zm1.15,26.5c-.12.13-.74.76-.9.89v17.33H118V173Z"/><path d="M150.93,183.38c.83,1.2,2.64,3.35,4.07,3.35,5.27,0,7-17.4,7-23.66,0-1.58,0-5.63-2.31-5.63-.66,0-1.64.7-3.74,2.21-3,13-6.5,28.41-8.59,32.59-.79,1.51-1.57,2.27-2.59,2.27-1.53,0-2.14-2.59-2.14-6.83,0-1,.08-1.14.9-2.15a43.87,43.87,0,0,0,3.74-8.92c1.57-4.75,2.18-7.21,3.75-13.54-1.2.76-3.17,2-4.65,2-1.65,0-3-2.09-3-4.56s1.44-5.31,1.93-6.26c.12,2.65.2,3.79,1.81,3.79a18.18,18.18,0,0,0,5.38-1.14,109.68,109.68,0,0,0,2.35-13c0-1.52-.78-1.84-1.15-1.84a.84.84,0,0,0-.5.13c0-3.23,2.22-3.42,3.09-3.42a4.14,4.14,0,0,1,3.74,3.92c0,.64-.12,1-.9,3.74-.46,1.7-1.07,4.23-2.18,8.92a10.62,10.62,0,0,1,2.59-.51c1,0,6.78.57,6.78,13.41,0,8.54-3.12,26.26-9.91,26.26a3.77,3.77,0,0,1-3.91-3.61,27.49,27.49,0,0,0-1.56-7.47Zm19.37-29.67c5.43,0,8,6,8,11.45,0,6.51-2.88,7.27-3.49,7.27-2,0-2-3-2-4,0-8.61-.49-13.6-5.59-14.36A13,13,0,0,1,170.3,153.71Z"/><path d="M203.37,183.63c.82,1.2,2.63,3.35,4.07,3.35,5.26,0,7-17.39,7-23.66,0-1.58,0-5.63-2.3-5.63-.66,0-1.65.7-3.75,2.22-3,13-6.49,28.4-8.59,32.58-.78,1.52-1.56,2.28-2.59,2.28-1.52,0-2.14-2.6-2.14-6.84,0-1,.08-1.14.91-2.15a45.11,45.11,0,0,0,3.74-8.92c1.56-4.74,2.18-7.21,3.74-13.54-1.19.76-3.17,2-4.65,2-1.64,0-3-2.09-3-4.56s1.44-5.31,1.93-6.26c.13,2.66.21,3.8,1.81,3.8a18.24,18.24,0,0,0,5.39-1.14,109.72,109.72,0,0,0,2.34-13c0-1.52-.78-1.84-1.15-1.84a.83.83,0,0,0-.49.13c0-3.23,2.22-3.42,3.08-3.42a4.14,4.14,0,0,1,3.74,3.93c0,.63-.12.95-.9,3.73-.45,1.71-1.07,4.24-2.18,8.92a10.72,10.72,0,0,1,2.59-.51c1,0,6.79.57,6.79,13.42,0,8.54-3.13,26.25-9.91,26.25a3.77,3.77,0,0,1-3.91-3.61,27.73,27.73,0,0,0-1.56-7.46ZM222.28,144c4.69,0,5,4.87,5,5.18,0,1.21-.49,2.85-1.73,2.85-.78,0-.86-.19-2.88-3.67-.2-.32-1.72-3-4-3.48A7.82,7.82,0,0,1,222.28,144Zm.46,10c5.42,0,8,6,8,11.45,0,6.52-2.88,7.28-3.5,7.28-2,0-2-3-2-4,0-8.6-.5-13.6-5.6-14.36A13.09,13.09,0,0,1,222.74,154ZM225.57,138c2.68,0,5.39,1.39,5.39,4.43,0,.88-.45,3-1.52,3-.49,0-.74-.38-1.69-1.9-1.11-1.77-3.49-4.36-5-5A8.4,8.4,0,0,1,225.57,138Z"/><path d="M251.07,196.73c6.5-2,11.23-5.76,11.23-25.62,0-1.27,0-11.58-1.15-14.94-.25-.69-.62-1.26-1.4-1.26-2.92,0-5.55,11.39-5.55,21.26a20.05,20.05,0,0,0,.41,4.42,6.82,6.82,0,0,1,.12,1.21,2.59,2.59,0,0,1-2.46,2.72c-3.5,0-4.16-8.29-4.16-14.62,0-6.89.78-10.56,3.5-20.68.53-2,1.56-5.89,1.56-7.72s-.9-2-2.06-2.22a3.32,3.32,0,0,1,2.47-1.26c1.4,0,4.2,1,4.2,6.51a12.65,12.65,0,0,1-1.28,6c-2.67,5.76-5.18,11.08-5.18,19.62,0,.38,0,1.58.37,1.58s.25-.13.53-1.58c1-4.75,3.79-12.34,5.47-14.74.95-1.33,2.06-2.22,3.42-2.22,3,0,4.56,4.68,4.89,5.7,1.15,3.66,1.44,10.69,1.44,14.1,0,9.87-.66,19-9.95,22.71a15.87,15.87,0,0,1-6.42,1.21Z"/><path d="M41,241.76l.63-1.43c.05-.12.08-.19.13-.19A12,12,0,0,1,43,241.82c0,.13-.07.13-.13.13H39.07a7,7,0,0,0,4.07,4.76v.06a2,2,0,0,0-.83,1.66c0,.39-.1.52-.23.52a3.9,3.9,0,0,1-1.29-1.12c-1.22-1.49-1.7-4-1.85-5.88h-.13v7.68c0,.2,0,.36-.17.37l-.88.12c-.21,0-.26,0-.26-.29V244a11.17,11.17,0,0,1-4.12,5.22l0,0A20.18,20.18,0,0,0,36.63,242h-3.2l0-.19H37.5v-3.2H34.2l-.05-.19H37.5v-3.06c.86.13,1,.14,1.46.24,0,0,.16,0,.16.16s-.07.14-.31.22v2.44h1.65l.62-1.27c.05-.09.09-.19.13-.19a9.49,9.49,0,0,1,1.12,1.52c0,.13-.07.13-.14.13H38.81v3.2Z"/><path d="M54.55,242.61l.62-1.39c.06-.13.09-.2.13-.2a9.24,9.24,0,0,1,1.18,1.65c0,.11-.06.11-.13.11H52.44a5.48,5.48,0,0,0,4.14,4.37v.07c-.52.16-.67.81-.79,1.6,0,.22-.09.43-.34.43-.08,0-2-.82-2.73-4a14.1,14.1,0,0,1-.36-2.44h-.1v6.84c0,.32,0,.41-.29.45l-.72.08c-.24,0-.3,0-.3-.34v-4.88a10.09,10.09,0,0,1-4.11,4.46v0a18.22,18.22,0,0,0,3.44-6.57H46.9l0-.17H51V238H47.44l0-.19H51v-2.48c.26,0,1.36.21,1.52.27s.12.06.12.16,0,.13-.33.22v1.83H54l.61-1.35c.07-.16.09-.2.12-.2a9.08,9.08,0,0,1,1.22,1.61c0,.13-.07.13-.13.13H52.26v4.66Zm-6.43-4.16a2.64,2.64,0,0,1,2.11,2.49c0,1.11-.77,1.27-.9,1.27s-.18-.08-.22-.32a13.35,13.35,0,0,0-1-3.4Zm4.36,4.06a36.19,36.19,0,0,0,1-4.1c.17.1,1.47.8,1.58.92a.22.22,0,0,1,.09.17c0,.15,0,.15-.38.13a13.4,13.4,0,0,1-2.31,2.93Z"/><path d="M65,249.28c1-.41,3.38-1.47,3.38-6.45,0-2.3-.67-5.7-3.06-5.68a4.08,4.08,0,0,1,.51,1.87c0,1.62-1.13,9.25-3.31,9.25-.71,0-.81-.67-.94-1.47a5.7,5.7,0,0,0-.49-1.66,4,4,0,0,1-.41-1.84c0-3.78,2.48-6.73,4.92-6.73,2.21,0,4.17,2.34,4.17,6.66,0,2.87-1.05,4.61-2.06,5.27a5.89,5.89,0,0,1-2.71.85Zm-3.34-4.91a3.59,3.59,0,0,0,.15,1.29c.14.36.4.71.61.71.82,0,2.77-5,2.8-9.19C62.05,237.85,61.68,243.12,61.68,244.37Z"/><path d="M79.63,245l-.26,3.82H74v-1.5a11.31,11.31,0,0,0,3.92-7.81c0-1.2-.26-2.45-1.47-2.45s-1.81,1.5-1.81,1.93c0,.12,0,.26.13.26a3.07,3.07,0,0,0,.46-.27.58.58,0,0,1,.2-.05c.35,0,.66.48.66,1.14s-.36,1.37-.9,1.37-1-.75-1-1.56c0-1,.53-3.09,2.53-3.09a2.8,2.8,0,0,1,2.81,3c0,1.92-.85,3.8-4.94,7.14h4.73l.15-2Z"/><path d="M86.52,236.77c1.56,0,2.76,2.2,2.76,6.14s-1.25,6.15-2.76,6.15-2.76-2.11-2.76-6.15S85,236.77,86.52,236.77Zm-.75,1.1a28,28,0,0,0-.35,5,29.76,29.76,0,0,0,.33,5c.13.48.31.87.79.87s.65-.48.74-.85a37.67,37.67,0,0,0,0-10.1c-.11-.46-.28-.86-.76-.86S85.87,237.45,85.77,237.87Z"/><path d="M95.73,242.51c.8,0,1.46-.57,1.46-2.93,0-.75,0-2.54-1.42-2.54a1.55,1.55,0,0,0-1.52,1.21c0,.05,0,.07,0,.07l.37,0c.55,0,.72.61.72,1.1,0,.77-.39,1.24-.81,1.24s-.88-.71-.88-1.43a2.32,2.32,0,0,1,2.42-2.41,2.51,2.51,0,0,1,2.65,2.75,2.88,2.88,0,0,1-2.41,3.1c.92.07,2.62.28,2.62,2.92,0,1.21-.58,3.52-3.15,3.52a2.47,2.47,0,0,1-2.45-2.55c0-.78.37-1.4.88-1.4s.84.36.84,1.28a1.35,1.35,0,0,1-.34,1.08c-.09.08-.5.39-.5.5a1.49,1.49,0,0,0,1.49.85c1.31,0,1.6-1.71,1.6-3.35,0-2.65-1.06-2.7-1.6-2.7h-.7v-.26Z"/><path d="M108.07,237c-2.52.46-3.13,3.66-3.27,5.25a1.66,1.66,0,0,1,1.42-1c1.87,0,2.43,2.06,2.43,3.79,0,2.42-1,4.07-2.73,4.07-2.17,0-2.84-2.87-2.84-5.06,0-3.95,1.74-7,5-7.3Zm-3.36,7.63c0,1,0,4.23,1.18,4.23.51,0,1.13-.31,1.13-3.78,0-1.46-.1-3.5-1-3.5-.58,0-.92.56-1.18,1A14.72,14.72,0,0,0,104.71,244.59Z"/><path d="M119.59,241.18l.62-1.28c.05-.11.09-.19.13-.19a7.74,7.74,0,0,1,1.13,1.55c0,.12-.06.12-.13.12h-2.69v4h1.61l.67-1.36c0-.1.08-.19.14-.19a8.08,8.08,0,0,1,1.16,1.61c0,.11-.07.11-.13.11h-3.45v4.1c0,.35,0,.4-.22.42l-.88.09c-.18,0-.23,0-.23-.33v-4.28h-4.61l0-.17h1.77v-4.84c.7.28,1.13.45,1.52.64h1.37v-3.39h-1.66a13,13,0,0,1-2.92,4.43h0a31,31,0,0,0,2.11-6.9c.5.16,1.11.35,1.65.56.07,0,.15.06.15.16s-.18.18-.42.19a13.37,13.37,0,0,1-.47,1.38H120l.59-1.3c0-.06.08-.19.12-.19a7.71,7.71,0,0,1,1.19,1.57c0,.11-.06.11-.14.11h-3.13v3.39Zm-2.27,4.2v-4h-1.6v4Z"/><path d="M128.78,242.69l-.37,1.85a12.59,12.59,0,0,0-.2,2,5,5,0,0,0,.14,1.29,3.57,3.57,0,0,1,.17.9c0,.34-.28.82-.56.82-.67,0-1.18-1.91-1.18-4.58a53.44,53.44,0,0,1,.5-6.08,16.41,16.41,0,0,0,.09-1.73,4.4,4.4,0,0,0-.23-1.51,5.64,5.64,0,0,1,1.27,3.43,20.74,20.74,0,0,1-.49,3.36,12.48,12.48,0,0,0-.24,2.4c0,.43,0,.56.08.56s.21-.41.27-.61c.21-.61.51-1.57.72-2.17Zm1.81,2.78c0,1.54.84,1.54,1.14,1.54a6.15,6.15,0,0,0,1.85-.4,2,2,0,0,1,.75-.19c.28,0,.65.16.65.88a1.38,1.38,0,0,1-.51,1.17,3.42,3.42,0,0,1-2,.57,1.79,1.79,0,0,1-1.77-.91,3.34,3.34,0,0,1-.48-1.74,4.21,4.21,0,0,1,.43-1.8A5,5,0,0,0,130.59,245.47Zm1.07-7.82a2.59,2.59,0,0,0,1-.32c.82-.48.85-.5,1-.5a1,1,0,0,1,.83,1c0,1.17-1.63,1.31-2,1.31s-1.15,0-1.54-2.05C131.11,237.42,131.32,237.65,131.66,237.65Z"/><path d="M139.35,245.86a3.4,3.4,0,0,1,2.29.85,2.36,2.36,0,0,1,.65,1.66c0,.74-.3,1.25-.76,1.25s-.72-.66-.76-.85a4.65,4.65,0,0,0-1.49-2.78Z"/><path d="M152.39,240.74a.59.59,0,0,0,.51.24l.76,0c.17,0,.57,0,.57.59,0,1.06-.67,1.49-2.68,2,0,.56.07,1.83.09,2.32,2,.8,2.61,2.16,2.61,2.69s-.28,1-.53,1-.36-.14-.58-.45a7,7,0,0,0-1.45-1.53c0,1.52-.21,2.2-1.43,2.2a2.3,2.3,0,0,1-2.57-2.3,1.83,1.83,0,0,1,2.1-2,4.86,4.86,0,0,1,.85.08v-1.86a7.19,7.19,0,0,1-1.38.15,1.38,1.38,0,0,1-1.55-1.52,2.6,2.6,0,0,1,.4-1.3,2.82,2.82,0,0,0,0,.48c0,.69.34.91,1,.91a5.49,5.49,0,0,0,1.54-.25c0-.74,0-1.41,0-2.13a3.79,3.79,0,0,1-1,.16c-.95,0-1.19-.92-1.43-1.8a1.64,1.64,0,0,0,1.09.5,5,5,0,0,0,1.3-.38c0-1.41,0-2.21-.51-2.5.08-.22.24-.74.72-.74a1,1,0,0,1,.87.87,6.18,6.18,0,0,1-.14.7c0,.34-.07.93-.08,1.28a6.53,6.53,0,0,1,1-.56,1,1,0,0,1,.71,1c0,.79-.32.88-1.77,1.28,0,.69,0,1,0,2.05.46-.19,1-.41,1-.72a.85.85,0,0,0-.12-.38Zm-3,6c-.37,0-1.31,0-1.31.65s1.08.8,1.52.8c.91,0,1-.56,1-1.28A3.39,3.39,0,0,0,149.42,246.79Z"/><path d="M161.15,249.79a5.86,5.86,0,0,0,2.12-2.43c-.79-.62-1.21-1.53-1.21-4.46,0-.74,0-1,.13-2.9a11,11,0,0,0-1.42,5.15,4.67,4.67,0,0,0,.37,1.92.9.9,0,0,1,.11.39c0,.4-.22.81-.64.81-.24,0-.47-.11-.78-.64a6.94,6.94,0,0,1-.86-3.8,45.19,45.19,0,0,1,.48-5.06,10.11,10.11,0,0,0,.08-1.22,6.5,6.5,0,0,0-.29-1.81,4.47,4.47,0,0,1,1.4,3.22,6.73,6.73,0,0,1-.22,1.53,21.35,21.35,0,0,0-.5,3.54c0,.1,0,.72.16.72s.06-.06.21-.65c.29-1.12,1.39-5.38,3.66-5.94,0-.66-.08-1.54-.66-1.54-.16,0-.25.08-.39.23.11-.36.39-1.24.92-1.24a1.11,1.11,0,0,1,1.11,1.16c0,.22,0,1.16,0,1.36.61.11,2.62.48,2.62,4.94,0,5-2.94,4.77-3.16,4.74a4.81,4.81,0,0,1-3.21,2.05ZM164,241.3c0-.36,0-1.75-.07-2.85a2.91,2.91,0,0,0-1.61,1.29c0,.58,0,1.17,0,1.75,0,1.82.05,4,1.43,4.5A28.58,28.58,0,0,0,164,241.3Zm1.06,2.48a14,14,0,0,1-.14,2.13c.44-.21,1.38-.66,1.38-3.64,0-2.33-.76-3.42-1.42-3.73C165,241.25,165.09,242.51,165.09,243.78Z"/><path d="M172.73,250.1c1.64-.51,2.84-1.46,2.84-6.48a19.09,19.09,0,0,0-.29-3.78c-.06-.18-.16-.32-.35-.32-.74,0-1.41,2.88-1.41,5.38a5.36,5.36,0,0,0,.1,1.12,1.32,1.32,0,0,1,0,.3.66.66,0,0,1-.63.69c-.88,0-1.05-2.1-1.05-3.7a17.35,17.35,0,0,1,.88-5.23,10.41,10.41,0,0,0,.4-2c0-.47-.23-.52-.52-.56a.83.83,0,0,1,.62-.33c.36,0,1.07.26,1.07,1.65a3.15,3.15,0,0,1-.33,1.52,10.76,10.76,0,0,0-1.31,5c0,.09,0,.4.1.4s.06,0,.13-.4a14.65,14.65,0,0,1,1.38-3.73,1.11,1.11,0,0,1,.87-.56c.77,0,1.15,1.18,1.24,1.44a15.24,15.24,0,0,1,.36,3.57c0,2.49-.17,4.8-2.52,5.74a4,4,0,0,1-1.62.31Z"/><path d="M183.65,246.79c.21.3.66.84,1,.84,1.33,0,1.77-4.4,1.77-6,0-.4,0-1.43-.58-1.43-.17,0-.42.18-1,.56a66.79,66.79,0,0,1-2.18,8.25c-.19.38-.39.57-.65.57s-.54-.65-.54-1.73c0-.25,0-.28.23-.54a11.48,11.48,0,0,0,.94-2.26c.4-1.2.55-1.82.95-3.42a2.71,2.71,0,0,1-1.18.51c-.41,0-.77-.53-.77-1.15a4.08,4.08,0,0,1,.49-1.59c0,.67.06,1,.46,1a4.36,4.36,0,0,0,1.36-.29,27.63,27.63,0,0,0,.6-3.28c0-.38-.2-.46-.29-.46a.22.22,0,0,0-.13,0c0-.81.56-.86.78-.86a1.05,1.05,0,0,1,.95,1,3.82,3.82,0,0,1-.23.94c-.11.44-.27,1.08-.55,2.26a2.84,2.84,0,0,1,.65-.13c.25,0,1.72.15,1.72,3.4,0,2.16-.79,6.64-2.51,6.64a1,1,0,0,1-1-.91,6.93,6.93,0,0,0-.39-1.89Zm4.79-10a1.31,1.31,0,0,1,1.27,1.31c0,.31-.13.72-.44.72s-.22-.05-.73-.93a1.91,1.91,0,0,0-1-.88A2.09,2.09,0,0,1,188.44,236.75Zm.11,2.53c1.37,0,2,1.52,2,2.9,0,1.65-.73,1.84-.89,1.84-.49,0-.49-.77-.49-1,0-2.18-.13-3.44-1.42-3.64A3.88,3.88,0,0,1,188.55,239.28Zm.72-4a1.21,1.21,0,0,1,1.36,1.13c0,.22-.11.75-.38.75s-.19-.1-.43-.48a3.84,3.84,0,0,0-1.27-1.27A2.51,2.51,0,0,1,189.27,235.24Z"/><path d="M200,237.65V239h1.29l.44-.95c.07-.14.09-.19.13-.19a6,6,0,0,1,1,1.22c0,.09-.07.09-.14.09H200v1.41h2.36l.53-1.1c.08-.18.09-.2.13-.2a6.69,6.69,0,0,1,1.08,1.38c0,.1-.08.1-.14.1h-3.25c.43,1.17,1.91,1.89,3.76,2.11v.06a1.49,1.49,0,0,0-.61,1.32c-.05.43-.07.67-.29.67a3.64,3.64,0,0,1-1.72-1.23v1.88c.15.07.84.5,1,.58s.19.13.19.21,0,.1-.31.18a7.4,7.4,0,0,1-1.76,1,6.71,6.71,0,0,0,2.33.36c.37,0,.61,0,.81,0V248a1.71,1.71,0,0,0-.53,1.49c0,.29,0,.51-.4.51a4.6,4.6,0,0,1-2.27-.88,3.87,3.87,0,0,1-1.05-1.23A21.36,21.36,0,0,1,196,250.2a22.18,22.18,0,0,1-.52-2.28l1.42-.09v-4.44a9.55,9.55,0,0,1-2.42,2h0a16.12,16.12,0,0,0,2.66-4.61h-2.4l-.05-.18h4.08v-1.41h-3.07l0-.17h3.12v-1.36h-3.66l-.06-.2h2.45c0-.12-.08-.52-.1-.62a4,4,0,0,0-.65-1.54v0c1.5.13,2,1,2,1.6a.88.88,0,0,1-.2.59h1.45c.1-.43.32-1.55.39-2.19.29.08,1.26.31,1.52.39.11,0,.16.06.16.12a.11.11,0,0,1-.08.12l-.19.09a11.3,11.3,0,0,1-1.2,1.47h1.54l.51-1.18c0-.1.09-.19.14-.19a7.41,7.41,0,0,1,1.12,1.45c0,.12-.07.12-.13.12Zm-1.22,5.15v-1.58l1.35.22c.07,0,.14,0,.14.1s0,.11-.3.25v1h.54l.45-.77a9.19,9.19,0,0,1-.35-1.26h-2a14.35,14.35,0,0,1-1.07,1.76l.62.27Zm-.67.19v1.25h2.51V243Zm2.51,2.77v-1.34h-2.51v1.34Zm-2.51.19v1.78l1.62-.11a5.52,5.52,0,0,1-.56-1.67Zm1.14,0a3.62,3.62,0,0,0,1.47,1.52,9,9,0,0,0,.57-1.13l-.48,0c-.19,0-.19,0-.19-.44Z"/><path d="M213.59,242.22h2.08l.65-1.4c.05-.12.09-.2.12-.2a8.53,8.53,0,0,1,1.24,1.67c0,.09-.06.11-.13.11h-4v5.52c0,1.09,0,2-1.5,2-.33,0-.5-.07-.5-.47a2.79,2.79,0,0,0-.09-1.08c-.17-.42-.35-.47-1-.85v0c.23,0,1.26.08,1.47.08s.29,0,.29-.61V242.4h-4.15l-.05-.18h4.2v-2.64c.18,0,1,.15,1.17.18a20.84,20.84,0,0,0,1.35-3.19H209.1l0-.19h5.71l.46-.69c.07-.11.13-.2.19-.2a7.59,7.59,0,0,1,1.35,2.14c0,.34-.47.37-.91.4a14.48,14.48,0,0,1-2.21,1.76c.08,0,.21,0,.21.15s-.16.15-.26.17Z"/><path d="M223.73,235.53a1.34,1.34,0,0,1,1.19,1.44c0,.13-.09,1-.11,1.22,0,.43-.1,1.25-.1,2s0,1.43.53,1.43,1.28-1.06,1.45-1.72c.08-.3.11-.46.34-.46.49,0,1.11,1,1.11,1.5s-.13.74-1.47,1.3a8.73,8.73,0,0,0-2.57,1.25,3.6,3.6,0,0,0-1.27,2.61,1.46,1.46,0,0,0,1.68,1.53,5.27,5.27,0,0,0,1.94-.41A5.63,5.63,0,0,1,227,247a1.75,1.75,0,0,1,1.19,1.34.76.76,0,0,1-.48.82,6.86,6.86,0,0,1-2.37.24c-1.81,0-2.25-.26-2.61-.58a2.77,2.77,0,0,1-.77-2.05,5.28,5.28,0,0,1,2.14-4.09c-.32-.2-.58-.36-.58-1.72,0-.33,0-1.77,0-2.08,0-1.37,0-2.51-.57-2.51a.62.62,0,0,0-.34.14A1.13,1.13,0,0,1,223.73,235.53Z"/><path d="M239.84,242.46c-.31,4.6-1.61,7-4.1,7-1.92,0-2.16-1.91-2.16-5,0-1.09.19-5.81.19-6.77,0-.51,0-.86-.78-.85.18-.4.43-.92,1.13-.92a1.11,1.11,0,0,1,1.1,1c0,.22-.23,1.18-.25,1.38-.14,1.2-.32,4.61-.32,7,0,1.14,0,2.16,1.19,2.16,1.92,0,3.15-2.06,4-5.09Z"/><path d="M244.61,238.16a15.56,15.56,0,0,0,1.5-.43c1.24-.36,2.47-.64,3.72-.88a1.39,1.39,0,0,0,.78-.39c.06-.05.1-.08.15-.08s1.43.53,1.43,1.46c0,.3-.15.72-.47.72a1.83,1.83,0,0,1-.6-.16,3.43,3.43,0,0,0-1-.16,2,2,0,0,0-1.85,1.52,14.47,14.47,0,0,0-.62,4.51c0,2.8.87,3.11,2,3.52.4.15.76.29.76,1.17,0,.2,0,1-.58,1a3.42,3.42,0,0,1-1.36-.43c-1.18-.67-1.76-1.84-1.76-4.48,0-2.84.79-5.49,2-6.65a8.92,8.92,0,0,0-3.09,1.33c-.46.31-.53.34-.71.34-.66,0-1.1-.91-1.1-1.84a2.39,2.39,0,0,1,.15-.93C244,237.71,244.13,238.16,244.61,238.16Z"/><path d="M259.65,242.88l.36-.82c.08-.19.09-.2.14-.2a5,5,0,0,1,1.27,1.63c0,.24-.1.29-.39.41-.28,5.42-1.27,5.93-2.26,5.93-.21,0-.36,0-.36-.37a1.89,1.89,0,0,0-1.06-2v-.07c.57.08,1.14.16,1.36.16s.55,0,.72-.78a18.55,18.55,0,0,0,.36-3.67H258a10.31,10.31,0,0,1-.21,1.12.33.33,0,0,1-.26.19h-.81c-.2,0-.23-.07-.23-.18a3.39,3.39,0,0,1,.05-.35c.32-2,.4-2.62.61-4.56a10.8,10.8,0,0,1,1.27.59h1.53v-3.36h-3.19l0-.19h3.16l.31-.74c.11-.24.14-.25.18-.25a7.25,7.25,0,0,1,1.28,1.61c0,.21-.25.37-.4.42v3.34c0,.2,0,.4-.18.42l-.92.1c-.2,0-.2,0-.2-.32v-.84h-1.58c-.05.45-.3,2.42-.35,2.82Zm5.09,6.64c0,.27,0,.4-.22.42l-.94.09c-.17,0-.17-.12-.17-.4V235.42a14.7,14.7,0,0,1,1.55.19.15.15,0,0,1,.08.15c0,.09-.09.14-.3.24Z"/><path d="M274.77,239.89a1.54,1.54,0,0,0,.94.33l.76,0c.19,0,.52,0,.52.56a1.64,1.64,0,0,1-.41,1.06,4.19,4.19,0,0,1-1.49.73c.2.61.35,1.09.56,1.65a4.08,4.08,0,0,1,.41,1.43c0,.8-.18,1.68-.71,1.68-.35,0-.46-.23-.69-.71a2.87,2.87,0,0,0-2.21-1.64c-1,0-1.48.89-1.48,1.77,0,1.11.52,1.15,1.14,1.15.34,0,1.8-.16,2.1-.16.52,0,.8.47.8,1.14,0,.45,0,1-1.78,1-3,0-3.27-1.54-3.27-2.69,0-2.15,1.39-2.5,2.17-2.5a5.08,5.08,0,0,1,1.86.51,1.35,1.35,0,0,0,.49.13c.23,0,.35-.09.35-.37a15.89,15.89,0,0,0-.43-2.14,8.88,8.88,0,0,1-2.17.43c-.35,0-1.28,0-1.28-1.36a2,2,0,0,1,.63-1.55,1.93,1.93,0,0,0-.2.75c0,.56.35.61.63.61a9,9,0,0,0,2-.43c0-.08-.24-.87-.5-1.69a4.75,4.75,0,0,1-1.68.34c-1.52,0-1.63-1.28-1.67-2,.38.59.6.72,1,.72a4,4,0,0,0,1.81-.67c-.29-.77-.55-1.44-1.36-1.62.11-.77.54-.91,1-.91s.62.18.77.82.16.73.3,1.26a.86.86,0,0,1,.54-.21.89.89,0,0,1,.91.9c0,.54-.47.83-1,1.1.27,1,.3,1.09.5,1.75.36-.15.55-.23.55-.48s-.3-.48-.41-.59Z"/><path d="M281.71,246.21v-9.6h-.8l-.05-.2h3.77l.57-1.07c0-.06.09-.19.12-.19a8.41,8.41,0,0,1,1.2,1.34c0,.12-.08.12-.14.12h-.83v13c0,.1,0,.39-.16.4l-.9.09c-.22,0-.22-.07-.22-.39v-3.55a28.18,28.18,0,0,1-3.07,2.51c0-.08-.35-1.79-.46-2.34Zm1.25-9.6v3h1.31v-3Zm0,3.13v3h1.31v-3Zm0,3.16V246l1.31-.21V242.9Zm2.82-4.92,0-.19h2.95l.42-.8c.07-.14.09-.19.13-.19a5.8,5.8,0,0,1,1.19,1.65c0,.25-.35.49-.45.54a24.06,24.06,0,0,1-1.48,6.72,6.14,6.14,0,0,0,2.36,2.18V248a2.24,2.24,0,0,0-.82,1.65c0,.24-.06.42-.19.42a6.43,6.43,0,0,1-2.14-2.74,8.68,8.68,0,0,1-2.13,2.47v-.05a15.67,15.67,0,0,0,1.7-3.49,24.72,24.72,0,0,1-.94-8.23Zm.65,0s.07.8.19,1.78a18.37,18.37,0,0,0,1.17,4.69,36.82,36.82,0,0,0,.91-6.47Z"/><path d="M298,249.14a4.68,4.68,0,0,0,3.1-4.37c0-.16,0-2.79-1.53-2.79-.86,0-2.3,1.24-3.1,2.15-.37.41-.57.64-.92.64-.52,0-.89-.59-.89-1.51a3,3,0,0,1,.09-.75.66.66,0,0,0,.56.55c.15,0,.31-.07.85-.44,1.53-1,2.59-1.71,3.62-1.71s2.49,1.41,2.49,4-1.29,3.34-1.67,3.55a6,6,0,0,1-2.59.69Z"/><path d="M310.19,237.76c.08.16.12.16.48.19s.5.21.5.7c0,.76-.56,1.16-1.73,1.8-.17,1.82-.22,2.22-.3,2.73.16-.28.87-1.6,1-1.84,1.27-2.06,2.21-2.25,2.82-2.25a1.8,1.8,0,0,1,1.93,1.79c0,.46-.22.91-.54.91a.31.31,0,0,1-.2-.06c-.41-.23-.52-.29-.7-.29-.39,0-.67.21-1.35.74v-.07a2.45,2.45,0,0,0,.66-1.21c0-.16-.08-.63-.76-.63s-2.11.88-3.11,4.77a26.16,26.16,0,0,0-.73,3.75c-.1.88-.61.92-.79.92-.45,0-.57-1.18-.57-1.56a2.28,2.28,0,0,1,.3-1.08,28,28,0,0,0,1.26-6.06,1.8,1.8,0,0,1-.74.19c-1.09,0-1.18-1.76-1.18-2.1a.9.9,0,0,0,.76.48,4.46,4.46,0,0,0,1.35-.49c.06-.58.16-1.65.16-2.18,0-.38,0-.78-.5-.9a.94.94,0,0,1,.81-.67c.48,0,.85.69.85,1.11,0,.17-.14,1-.17,1.15,0,.4-.05.46-.09.86.39-.27.45-.35.51-.7Zm.64,8.4c0,.71.27,1.39,1.13,1.39a6.3,6.3,0,0,0,1.35-.2c.05,0,.69-.2.73-.2.4,0,.65.68.65,1.22,0,.91-.76,1.14-1.83,1.14-1.24,0-2.36-.15-2.36-2.37a7.72,7.72,0,0,1,.59-2.85A8.7,8.7,0,0,0,310.83,246.16Z"/><path d="M319,244.24a31.09,31.09,0,0,0,2-6.55c.29.16,1.72,1,1.72,1.24,0,.08-.09.11-.15.11a1.32,1.32,0,0,1-.26,0c-1.35,3.49-2.59,4.79-3.24,5.3Zm.09,5.88c2-.82,5.34-2.47,7.17-8,.05,0,1.28,1.27,1.43,1.46a.31.31,0,0,1,.09.19.09.09,0,0,1-.11.1,1.09,1.09,0,0,1-.31-.08c-2.55,5.69-5.74,6.21-8.26,6.37Zm5.58-6.54c0,.92,0,1.4-.49,1.81a1.7,1.7,0,0,1-1.1.35c-.23,0-.23-.17-.23-.28a1.88,1.88,0,0,0-1.13-2.08v-.07c.21,0,1.23.07,1.38.07s.23,0,.23-.64v-7.45c.5.05,1.19.15,1.48.2.06,0,.2,0,.2.14s-.17.21-.34.29Zm.69-5.45c1.5.16,3.24,1,3.24,2.83,0,1-.55,1.42-.8,1.42s-.3-.19-.34-.32a8.94,8.94,0,0,0-2.11-3.87Z"/><path d="M340.22,239.78l.65-1.37c.05-.11.09-.17.13-.17a7.9,7.9,0,0,1,1.23,1.6c0,.11-.07.11-.13.11h-2.79c.29.16,1.27.66,1.27.83s-.26.18-.36.18a24.11,24.11,0,0,1-1.33,4.48c1,.66,2.28,1.78,2.28,3.2,0,.77-.38,1.35-.79,1.35-.24,0-.29-.08-.49-.52a12,12,0,0,0-1.61-2.83A7.32,7.32,0,0,1,332.8,250v-.05a9.34,9.34,0,0,0,4.53-4.36,20.31,20.31,0,0,0-1.7-1.44c-.08.26-.38,1.33-.43,1.4s-.1.08-.22,0l-1-.23s-.14,0-.14-.16a3.63,3.63,0,0,1,.14-.52c.67-2.24,1-3.26,1.34-4.72h-2.68l-.06-.17h2.78c.49-1.93.69-2.71,1-4.49l1.23.52c.3.12.37.19.37.28s-.11.18-.34.23c-.27,1.15-.55,2.3-.83,3.46Zm-3.5.17c-.73,2.87-.81,3.19-1.05,4l.12.05c1.14.43,1.35.51,1.88.75a21,21,0,0,0,1.19-4.83Z"/><path d="M349.62,247.19c0,1.32-.69,2.43-1.58,2.43s-1.58-1.11-1.58-2.43.72-2.44,1.58-2.44S349.62,245.83,349.62,247.19Zm-2.74,0c0,1,.52,1.79,1.16,1.79s1.17-.82,1.17-1.79-.52-1.8-1.17-1.8S346.88,246.18,346.88,247.19Z"/><path d="M35.08,269.29v.59c0,.29,0,.35-.23.39l-.77.09c-.19,0-.21-.14-.21-.3v-6c.19,0,.27.07.68.18.11,0,.59.24.66.24h1.52c.37-1.6.51-2.24.76-3.84.19.06,1.53.56,1.53.75s-.14.13-.29.15a16.41,16.41,0,0,1-1.82,2.94h.6l.35-.67c0-.08.09-.18.16-.18a6.59,6.59,0,0,1,1,1.54c0,.11,0,.14-.39.4v.4l.77-.16c-.08-2.63-.06-4.45,0-5.49.19,0,1.5.24,1.5.48s-.1.14-.24.21c0,.75,0,1.39,0,2.86,0,.95,0,1.22,0,1.67l.67-.13.38-1.27c0-.08.08-.22.12-.22s1.28,1,1.28,1.2c0,.08-.06.1-.13.11l-2.31.5c0,1.2.06,1.89.2,3.17a19.59,19.59,0,0,0,.82-2.58c.26.23,1.32,1.2,1.32,1.43a.1.1,0,0,1-.11.11l-.21,0a23.45,23.45,0,0,1-1.44,3c.25.83.66,1.65.87,1.65s.17-.1.21-.21.15-.42.58-1.84v0c0,.4-.14,2.08-.14,2.16a2.42,2.42,0,0,0,.14.78,2.19,2.19,0,0,1,.18.79c0,.91-.5.93-.68.93-.46,0-1.43-.77-2.14-2.87a7.66,7.66,0,0,1-3,2.35v0a15.77,15.77,0,0,0,2.68-3.67,33.69,33.69,0,0,1-.46-4.94l-.77.17v3.38c0,.27,0,.35-.2.37l-.76.09c-.17,0-.22-.06-.22-.35v-.35h-.57v2.14h.52l.49-1.1c0-.11.08-.19.12-.19a6.42,6.42,0,0,1,1,1.37c0,.1-.07.1-.12.1h-2v3.14c0,.09,0,.32-.18.33l-.85.08c-.19,0-.21,0-.21-.3v-3.25H33.36l0-.18h2.36v-2.14Zm-1.48-8.47a2.21,2.21,0,0,1,1.79,2c0,.85-.51,1.06-.74,1.06s-.32-.1-.37-.46a6.5,6.5,0,0,0-.7-2.58Zm2.08,5.94v-2.11h-.6v2.11Zm-.6.18v2.16h.6v-2.16Zm.12-6.55a2.29,2.29,0,0,1,1.65,2.11c0,1.09-.67,1.11-.72,1.11-.33,0-.34-.13-.43-1a8.36,8.36,0,0,0-.51-2.14Zm2.29,6.37v-2.11h-.57v2.11Zm0,2.34v-2.16h-.57v2.16Zm3.43-8.17c1.56.32,1.85,1.27,1.85,1.83s-.31,1.09-.69,1.09-.3-.15-.42-.74a6.62,6.62,0,0,0-.75-2.11Z"/><path d="M51.89,262.21l.61-.92c0-.08.12-.18.19-.18a3.88,3.88,0,0,1,.63.61c.21.22.77.83.77,1s-.11.16-.17.18l-.5.06a9.55,9.55,0,0,1-1.94,1.84h2l.4-.9c0-.09.11-.19.18-.19a5.27,5.27,0,0,1,1.23,1.57c0,.16-.13.26-.43.47v1.72H55l.55-1.28c0-.08.08-.17.12-.17a7.48,7.48,0,0,1,.88,1.53c0,.12,0,.12-.11.12H54.9v3.61c0,.23,0,.31-.17.32l-1,.08c-.18,0-.18,0-.18-.22v-1.07H52v2.81a3.79,3.79,0,0,1-.09,1.22c-.26.74-1.17.8-1.44.8s-.32-.18-.32-.42c0-.89,0-1.45-1.13-1.88v-.07c.27,0,1.09.05,1.36.05s.29-.05.29-.56v-1.95H47.52l-.05-.19H50.7v-2.53H46.88l-.05-.2H50.7V265H48.11c-.65.61-.89.81-1.14,1l0,0a19.68,19.68,0,0,0,2.38-5.59c.18.05,1.26.42,1.69.61,0,0,.12.07.12.15s-.14.16-.41.14c-.17.34-.29.56-.5.94Zm-1.76.18a10.86,10.86,0,0,1-1.83,2.4H51a15,15,0,0,0,1-2.4Zm3.46,5.07V265H52v2.49Zm0,2.73v-2.53H52v2.53Z"/><path d="M61.48,263.16a15.56,15.56,0,0,0,1.5-.43c1.24-.36,2.47-.64,3.71-.88a1.38,1.38,0,0,0,.79-.39c.06,0,.1-.08.15-.08s1.43.53,1.43,1.46c0,.3-.15.72-.47.72a1.77,1.77,0,0,1-.6-.16,3.43,3.43,0,0,0-1-.16,2,2,0,0,0-1.85,1.52,14.47,14.47,0,0,0-.62,4.51c0,2.8.87,3.12,2,3.52a1,1,0,0,1,.76,1.08c0,.81-.25,1.1-.59,1.1a3.09,3.09,0,0,1-1.35-.43c-1.18-.67-1.77-1.84-1.77-4.48,0-2.84.79-5.49,2-6.65a8.92,8.92,0,0,0-3.09,1.33c-.46.31-.53.34-.71.34-.66,0-1.1-.91-1.1-1.84a2.54,2.54,0,0,1,.14-.93C60.89,262.71,61,263.16,61.48,263.16Zm6.89,4.58c0,.4-.18.75-.42.75s-.32-.19-.53-.8a3.81,3.81,0,0,0-.94-1.55A1.81,1.81,0,0,1,68.37,267.74Zm-.5-3.16a1.37,1.37,0,0,1,1.55,1.33c0,.45-.25.69-.4.69s-.2-.06-.51-.66a3,3,0,0,0-1.25-1.29A4.22,4.22,0,0,1,67.87,264.58Z"/><path d="M79.19,271.15v-5.22c.16,0,1.25.21,1.33.22a.17.17,0,0,1,.12.15c0,.09-.09.14-.24.22v5.27c0,.22,0,.33-.17.35l-.83.08c-.21,0-.21-.08-.21-.37v-.53H76.75v1c0,.26,0,.35-.24.39l-.76.08c-.17,0-.22,0-.22-.24v-6.66a12.88,12.88,0,0,1,1.36.17.12.12,0,0,1,.11.13c0,.08,0,.13-.25.24v4.68h.61v-6.53H75v10c0,.26,0,.47-.23.5l-.82.1c-.22,0-.22-.15-.22-.42V263.91a9.75,9.75,0,0,1,1.37.51h2.3v-2.59H73.15l-.05-.19h7.75l.59-1.23c.08-.17.09-.2.13-.2a7,7,0,0,1,1.24,1.51c0,.11-.08.11-.14.11H78.6v2.59h2.3l.43-.93c.06-.12.07-.16.11-.16a6.84,6.84,0,0,1,1.25,1.53c0,.17-.11.27-.46.49v8.15c0,.82,0,1.68-1.57,1.68-.29,0-.29,0-.29-.48a1.56,1.56,0,0,0-1-1.71v-.07c.39.05,1,.1,1.28.1s.31-.07.31-.55v-7.85H78.6v6.53Z"/><path d="M86.71,268.74l0-.19h1.79v-2.13c.21,0,1.56.2,1.56.37s-.11.16-.33.24v1.52h.42l.43-1c.06-.16.07-.17.1-.17a7,7,0,0,1,.85,1.25V260.9a7.81,7.81,0,0,1,1.35.42h1.56l.42-.87c.06-.12.1-.21.16-.21a6.77,6.77,0,0,1,1.22,1.57c0,.18-.08.26-.48.44v6.67c0,.27,0,.32-.16.34l-.83.09h-.07v3.14c0,.46,0,.46.28.46s.42,0,.54-.32.54-2,.66-2.4l0,0c0,.33-.09,1.81-.09,2.11a1.2,1.2,0,0,0,.18.75,1,1,0,0,1,.15.58c0,1.15-.5,1.15-1.81,1.15-.87,0-1.14-.16-1.14-1.42V270l-.14.05c-.41,2.14-1.16,4.15-3.47,5.17v-.05A9.4,9.4,0,0,0,92,269.62l-.32.05c-.22,0-.24,0-.24-.33v-.68a.12.12,0,0,1,0,.07H89.68v.6c1.37.61,1.58,1.29,1.58,1.93s-.42,1.2-.76,1.2-.31-.19-.36-.83a6.87,6.87,0,0,0-.46-2.1v5.17c0,.26,0,.34-.22.37l-.85.1c-.14,0-.16-.05-.16-.29V271.4a9,9,0,0,1-1.8,2.43h0a19.67,19.67,0,0,0,1.45-5.09Zm3.34-6.19.34-.75c0-.1.09-.19.11-.19a5.8,5.8,0,0,1,.81,1c0,.12,0,.13-.09.13h-1.5c.31.13,1.06.45,1.3.59s.2.13.2.21,0,.16-.37.18a13.64,13.64,0,0,1-1.54,2.38h.75L90.5,265c0-.11.08-.17.11-.17a7.94,7.94,0,0,1,.83,1.31c0,.11-.06.13-.09.13H86.72l0-.2h2.54a27,27,0,0,0,.5-3.36H86.92l0-.19h1.54v-2.21a9.65,9.65,0,0,1,1.44.23c.14,0,.17.06.17.14s0,.13-.36.24v1.6Zm-2.59.38a2,2,0,0,1,1.54,1.8c0,.6-.29,1-.85,1-.34,0-.34-.16-.34-.6a6.06,6.06,0,0,0-.37-2.22Zm5.27-1.44v2.15h1.73v-2.15Zm0,2.34V266h1.73v-2.21Zm1.73,4.64v-2.24H92.73v2.24Zm-1.73,1a4.45,4.45,0,0,1,.71.3v-1.09h-.71Z"/><path d="M103.71,261.57a.7.7,0,0,0-.47-.75.78.78,0,0,1,.75-.56,1,1,0,0,1,.86,1,3.53,3.53,0,0,1-.27,1,1.9,1.9,0,0,0,.34-.26c.19-.18.21-.19.35-.19a.93.93,0,0,1,.92,1,.59.59,0,0,1-.2.48,11.5,11.5,0,0,1-2,1c-.08.26-.44,1.35-.51,1.57a1.36,1.36,0,0,1,.9-.43c.78,0,.91,1.5.93,2,.28-.88,1.11-2.56,2.3-2.56.86,0,1.54.84,1.54,2.09a1.45,1.45,0,0,1-1.06,1.6,16.55,16.55,0,0,0-2.79,1.3c0,.24,0,1.31,0,1.54s0,.78-.56.78-.7-.91-.66-1.55a1.85,1.85,0,0,0-.82,1.47c0,.74.52.83,1.07.83a5.75,5.75,0,0,0,1.77-.33.72.72,0,0,1,.27-.07,1.09,1.09,0,0,1,.94,1.07c0,1-1,1.19-2,1.19a3.49,3.49,0,0,1-2.37-.75,1.87,1.87,0,0,1-.38-1.27c0-.81.31-1.61,1.6-2.59a17.09,17.09,0,0,0,.2-2.42c0-.56,0-1.74-.52-1.74-.31,0-.44.32-1.17,2.14-.47,1.2-1.18,2.47-1.71,2.47-.26,0-.51-.34-.51-1a1.59,1.59,0,0,1,.62-1.39,9.08,9.08,0,0,0,1.94-3.48,1.56,1.56,0,0,1-.54.15c-.82,0-1-1.36-1.1-2.21a1.55,1.55,0,0,0,1,.64,2.89,2.89,0,0,0,1.15-.39A6.3,6.3,0,0,0,103.71,261.57Zm3.77,5.73a1.39,1.39,0,0,0,.37-.94c0-.37-.31-.95-.78-.95-.2,0-.46,0-1,.77s-.58,1.32-.82,3.14A11.46,11.46,0,0,0,107.48,267.3Z"/><path d="M117.22,264.09v-3.75c1.52.23,1.68.26,1.68.35s0,.12-.33.26v3.14H120l.62-1.32c.07-.16.09-.19.11-.19a7.75,7.75,0,0,1,1.18,1.57c0,.13,0,.13-.1.13h-3.25v.89c0,.63,0,1.33-.08,2.61h2.25l.59-1.26c.06-.13.09-.19.12-.19a8.93,8.93,0,0,1,1.2,1.53c0,.12-.06.12-.13.12h-3.86a5.47,5.47,0,0,0,4.22,4.67v.06c-.35.21-.68.52-.78,1.59-.07.56-.08.65-.26.65a3.51,3.51,0,0,1-1.4-1c-1.22-1.26-1.8-3.53-1.88-6h-.08c-.16,1.93-.47,5.93-5.41,7.14l0-.05a7.9,7.9,0,0,0,3.33-3.72,9.37,9.37,0,0,0,.73-3.37h-4l-.06-.2h4.07c.06-.91.09-2.29.09-2.62v-.88h-1.73a10.71,10.71,0,0,1-1.85,3.25l0,0a32.14,32.14,0,0,0,1.11-6.15c.47.16,1.22.38,1.67.58.06,0,.15.06.15.14s-.14.16-.38.18c-.15.51-.32,1.05-.62,1.84Z"/><path d="M131.21,260.26c.65,0,1.11,1.15,1.11,2,0,.62-.19.81-.76,1.37-1,1-2.11,2.05-3.15,3.12a1.4,1.4,0,0,0-.47.82c0,.32.08.37.85.9a7.2,7.2,0,0,1,3.4,4.4,3.38,3.38,0,0,1,.13.94c0,.64-.34,1.38-.78,1.38-.28,0-.31-.11-.62-1.17a8.74,8.74,0,0,0-3.13-4.9,1.68,1.68,0,0,1-.7-1.34c0-.91.38-1.35,1.08-2.16,1.63-1.92,2.84-3.41,2.84-4.28a.59.59,0,0,0-.52-.65A1,1,0,0,1,131.21,260.26Z"/><path d="M144,267.46c-.31,4.6-1.62,7-4.1,7-1.93,0-2.17-1.91-2.17-4.95,0-1.09.19-5.81.19-6.77,0-.51,0-.86-.78-.85.19-.4.44-.92,1.13-.92a1.11,1.11,0,0,1,1.11,1c0,.22-.23,1.18-.25,1.38-.15,1.2-.33,4.61-.33,7,0,1.14,0,2.16,1.19,2.16,1.93,0,3.15-2.06,4-5.09Z"/><path d="M148.74,263.16c.2,0,1.27-.37,1.5-.43,1.23-.36,2.46-.64,3.71-.88a1.39,1.39,0,0,0,.78-.39.27.27,0,0,1,.16-.08c.15,0,1.42.53,1.42,1.46,0,.3-.14.72-.47.72a1.89,1.89,0,0,1-.6-.16,3.43,3.43,0,0,0-1-.16,2,2,0,0,0-1.85,1.52,14.82,14.82,0,0,0-.61,4.51c0,2.8.86,3.11,2,3.52.4.15.76.29.76,1.17,0,.2,0,1-.58,1a3.44,3.44,0,0,1-1.35-.43c-1.19-.67-1.77-1.84-1.77-4.48,0-2.84.79-5.49,2-6.65a8.76,8.76,0,0,0-3.09,1.33c-.46.31-.54.34-.71.34-.67,0-1.11-.91-1.11-1.84a2.39,2.39,0,0,1,.15-.93C148.14,262.71,148.26,263.16,148.74,263.16Z"/><path d="M163.49,267.69a33.92,33.92,0,0,0-.57,4.22,2.74,2.74,0,0,0,.18,1c.17.44.19.48.19.66a.79.79,0,0,1-.73.86c-.8,0-1.92-1.52-1.92-5.49,0-1,0-1.32.3-4.53,0-.27.11-1.32.11-1.95a6.44,6.44,0,0,0-.17-1.57,4.81,4.81,0,0,1,1.51,3.4,4.69,4.69,0,0,1-.16,1.21,13.09,13.09,0,0,0-.57,3.75c0,1.23.18,1.95.38,1.95s.31-.38.34-.46c.18-.48.89-2.55,1.07-3.14Zm2.71-2.79c1.4,0,2.92,1.25,2.92,4.07,0,.24,0,1.95-.86,1.95-.47,0-.71-.49-.72-1.05a8,8,0,0,0-.66-3.78,2.1,2.1,0,0,0-1.08-1.17Z"/><path d="M177.79,266.71c2.09,0,2.63,2.45,2.63,3.94,0,2.69-1.33,4-3.1,4a2,2,0,0,1-2.11-2.06c0-.87.43-1.78,1.31-1.78.69,0,1.15.59,1.15,1.44a1.39,1.39,0,0,1-.13.67c.47-.11,1.64-.4,1.64-3,0-.9-.17-2.67-1.59-2.67-.89,0-1.64.7-2.44,2.94a13,13,0,0,0-.49,1.88c0,.24-.14.64-.54.64-.6,0-.68-1-.68-1.57s.07-.74.68-1.75c.16-.27,2.52-4.43,3.52-6.48a.89.89,0,0,0,.09-.35c0-.07,0-.13-.07-.13a3,3,0,0,0-.64.67c-.49.64-.66.75-1,.75-.72,0-1.09-1.12-1.15-1.69a1,1,0,0,0,.55.27c.46,0,1.44-.86,1.93-1.28s.52-.45.69-.45,1.21.24,1.21,1.6c0,.48-.11.59-.47,1A19.5,19.5,0,0,0,176.7,267,2.26,2.26,0,0,1,177.79,266.71Zm-1,5.65c0-.25-.13-.59-.44-.59s-.36.34-.36.48a.43.43,0,1,0,.8.11Z"/><path d="M188.18,272.19c0,1.32-.7,2.43-1.59,2.43s-1.58-1.11-1.58-2.43.72-2.44,1.58-2.44S188.18,270.83,188.18,272.19Zm-2.75,0c0,1,.52,1.79,1.16,1.79s1.17-.82,1.17-1.79-.52-1.8-1.17-1.8S185.43,271.18,185.43,272.19Z"/><path d="M36,290.32l.44-.9c.12-.25.15-.25.19-.25a4.07,4.07,0,0,1,1,1.23c0,.11-.06.11-.13.11H36.26v2.05h.15l.46-1c0-.07.1-.23.15-.23s.13.1.29.34a28.67,28.67,0,0,0,1.63-6.41s1.38.44,1.53.49.23.09.23.19-.22.21-.41.22a5,5,0,0,0,3,3.59v.06a2.42,2.42,0,0,0-.59,1.38c0,.48-.06.64-.22.64-.35,0-2.05-1.65-2.24-5.48a14.57,14.57,0,0,1-2.78,5.51,5.29,5.29,0,0,1,.4.78c0,.13-.06.13-.12.13H36.26v4.48l2-.36V297A20.22,20.22,0,0,1,33.93,300c-.14-.58-.36-1.65-.47-2.29l1.63-.29v-4.69H33.38l0-.19h1.75v-2.05h-.66A7.88,7.88,0,0,1,33.3,292l0,0A35.64,35.64,0,0,0,35,285.31l1.59.59c.12,0,.19.08.19.18s-.31.19-.41.21l0,.06c1.34.37,1.69,1.06,1.69,1.89s-.44,1.1-.81,1.1-.26-.11-.3-.59a6.33,6.33,0,0,0-.64-2.19,17.81,17.81,0,0,1-1.71,3.76Zm-2.39,3A2.91,2.91,0,0,1,35,295.79c0,.9-.64,1-.83,1s-.29-.22-.29-.65a18.18,18.18,0,0,0-.3-2.85Zm2.73,3.37a27.25,27.25,0,0,0,.54-3.37c.22.11,1.19.68,1.37.78,0,0,.13.08.13.18a.15.15,0,0,1-.17.16H38a10.61,10.61,0,0,1-1.61,2.27ZM41,293.09l.28-.66c.11-.25.18-.38.26-.38a7.72,7.72,0,0,1,1,1.18c.13.18.18.24.18.35s-.28.36-.41.45v3.14c0,.61,0,1.58-1.17,1.58-.34,0-.34-.16-.34-.56,0-1-.33-1.26-.88-1.48v3c0,.33-.06.38-.21.4l-.84.08c-.17,0-.22-.06-.22-.31v-6.59H37.58l0-.19Zm-1-1.95.42-.87c0-.1.12-.25.17-.25a3.87,3.87,0,0,1,.91,1.18c0,.13-.07.13-.13.13H38.2l-.05-.19ZM40,293.28v3.28l.83,0c.3,0,.3-.22.3-.57v-2.74Z"/><path d="M50.13,286.62H46.94l0-.19h3.16l.42-.77c.13-.24.14-.27.21-.27a7.86,7.86,0,0,1,1.21,1.49.43.43,0,0,1,0,.05c0,.19-.22.4-.48.48v10.9a1.8,1.8,0,0,1-.47,1.44,2.07,2.07,0,0,1-1.05.32c-.25,0-.26-.08-.28-.87a1.6,1.6,0,0,0-1.11-1.5v-.05l1.33.1c.29,0,.29-.13.29-.47v-4.62a24.17,24.17,0,0,1-2.72,4.09c-.07-.3-.33-1.36-.53-2.45.49-.27,1.18-.7,1.75-1.07l1.5-1ZM47.23,288a2.76,2.76,0,0,1,2.26,2.51c0,.93-.55,1.24-1,1.24-.2,0-.23-.15-.33-.76a7,7,0,0,0-1-2.93Zm7.49-1.33H51.94l-.06-.19h2.75l.45-.86c.08-.16.15-.29.21-.29a5.64,5.64,0,0,1,.61.73,2.9,2.9,0,0,1,.56.88c0,.28-.36.42-.45.45v10.85a2.69,2.69,0,0,1-.16,1.32,1.66,1.66,0,0,1-1.3.64c-.24,0-.26-.16-.26-.36,0-1,0-1.5-1.14-2v-.05c.33,0,1.12.1,1.35.1s.22-.1.22-.56v-4.79a23.94,23.94,0,0,1-2.36,4.15,21.13,21.13,0,0,1-.58-2.37,29.83,29.83,0,0,0,2.94-2.16ZM51.83,288c1.5.46,2.21,1.23,2.21,2.42s-.68,1.28-.85,1.28-.34-.23-.38-.51a8.19,8.19,0,0,0-1-3.13Z"/><path d="M62.57,285.53A1.34,1.34,0,0,1,63.76,287c0,.13-.08,1-.1,1.22a19.55,19.55,0,0,0-.11,2c0,.67,0,1.43.53,1.43s1.28-1.06,1.45-1.72c.08-.3.11-.46.34-.46.49,0,1.12,1,1.12,1.5s-.14.74-1.48,1.3a8.89,8.89,0,0,0-2.57,1.25,3.6,3.6,0,0,0-1.27,2.61,1.46,1.46,0,0,0,1.68,1.53,5.23,5.23,0,0,0,1.94-.41,5.63,5.63,0,0,1,.59-.24,1.73,1.73,0,0,1,1.19,1.34c0,.63-.35.77-.48.82a6.82,6.82,0,0,1-2.37.24c-1.8,0-2.25-.26-2.6-.58a2.73,2.73,0,0,1-.77-2.05A5.3,5.3,0,0,1,63,292.66c-.31-.2-.57-.36-.57-1.72,0-.33,0-1.77,0-2.08,0-1.37,0-2.51-.57-2.51a.65.65,0,0,0-.35.14A1.14,1.14,0,0,1,62.57,285.53Z"/><path d="M79,292.5l.66-1.51c0-.08.07-.19.12-.19a8.81,8.81,0,0,1,1.31,1.82c0,.12-.07.12-.13.12H71.45l0-.24Z"/><path d="M88.45,291.14l0-.18h1.72v-2.75H88.66l0-.2h1.5v-2.67c.31,0,1.16.15,1.41.21.08,0,.17.05.17.13s-.24.21-.31.22V288h0l.44-1s.09-.17.12-.17.1.09.52.81c.13-.43.23-.75.39-1.4l1.48.76c.05,0,.1.08.1.15s-.08.16-.34.11A20.15,20.15,0,0,1,92.35,291h.5l.55-1.12c0-.08.11-.22.14-.22a8,8,0,0,1,1.1,1.42c0,.1-.06.1-.1.1h-2.3a16.59,16.59,0,0,1-1.55,2.08l.23.09H92.5l.4-.88c0-.06.1-.17.14-.17a6.18,6.18,0,0,1,1.23,1.53c0,.23-.22.35-.41.47v5.49c0,.25,0,.28-.18.3l-.91.1c-.16,0-.18,0-.18-.28v-.76H90.75v.68c0,.23,0,.31-.18.33l-.85.09c-.21,0-.21-.06-.21-.35v-5.48a7.06,7.06,0,0,1-.89.71,3,3,0,0,1,.66,1.74c0,.77-.38,1.24-.77,1.24s-.33-.24-.35-.72a13.93,13.93,0,0,0-.43-3.13v5.53c0,.27,0,.33-.21.35l-.82.1c-.18,0-.2-.1-.2-.31V295.6a15.1,15.1,0,0,1-1.64,3.65h0c.21-1.16.43-3.37.49-4.39a10.28,10.28,0,0,1,1.17.32v-1.59a12.4,12.4,0,0,1-1.25.8c-.13-.73-.27-1.87-.3-2.11l1.12-.08a36.29,36.29,0,0,0,1.62-4.46c.54.35,1,.68,1.33.91s.18.11.18.19-.18.11-.32.11a15.85,15.85,0,0,1-2.58,3.24l1.72-.12a3.93,3.93,0,0,0-.34-1.16v0A2.64,2.64,0,0,1,89.22,293c0,.67-.35,1.12-.71,1.12s-.29-.2-.31-.47c0-.48,0-.56-.14-1.25a2.6,2.6,0,0,1-.33.29v1.44a6.12,6.12,0,0,1,.8.87c.39-.47.61-.74,1-1.27v-.88l.5.15c.38-.61.62-1,1-1.84Zm-3.37-3.4a4.13,4.13,0,0,1,1,.63c.19-.82.42-2.05.55-3.08l1.48.66c.08,0,.15.06.15.16s-.26.14-.33.14a14.28,14.28,0,0,1-1.69,2.28,2,2,0,0,1,.52,1.36c0,.65-.32,1.15-.73,1.15s-.31-.13-.39-.82a10.31,10.31,0,0,0-.52-2.45Zm5.67,5.76V296h1.84V293.5Zm0,2.71v2.7h1.84v-2.7Zm.64-5.76a21,21,0,0,0,.92-2.24h-.92Z"/><path d="M101.12,292.69c-.07.3-.34,1.65-.37,1.85a12.71,12.71,0,0,0-.21,2,5,5,0,0,0,.15,1.29,3.57,3.57,0,0,1,.17.9c0,.34-.29.82-.57.82-.66,0-1.17-1.91-1.17-4.58a53.44,53.44,0,0,1,.5-6.08,16.41,16.41,0,0,0,.09-1.73,4.4,4.4,0,0,0-.23-1.51,5.7,5.7,0,0,1,1.27,3.43,20.22,20.22,0,0,1-.5,3.36,12.48,12.48,0,0,0-.24,2.4c0,.43,0,.56.09.56s.2-.41.27-.61c.2-.61.51-1.57.71-2.17Zm1.81,2.78c0,1.54.84,1.54,1.14,1.54a6.11,6.11,0,0,0,1.84-.4,2.09,2.09,0,0,1,.75-.19c.28,0,.66.16.66.88a1.38,1.38,0,0,1-.51,1.17,3.46,3.46,0,0,1-2,.57,1.8,1.8,0,0,1-1.78-.91,3.43,3.43,0,0,1-.48-1.74,4.13,4.13,0,0,1,.44-1.8A5,5,0,0,0,102.93,295.47Zm1.07-7.82a2.59,2.59,0,0,0,1-.32c.82-.48.85-.5,1-.5a1,1,0,0,1,.83,1c0,1.17-1.64,1.31-2,1.31s-1.16,0-1.54-2.05C103.45,287.42,103.65,287.65,104,287.65Z"/><path d="M111.37,292.56l-.05-.19h1.18l.45-.79c0-.08.08-.16.15-.16a8,8,0,0,1,1.12,1.59c0,.14-.24.27-.34.32v2.83c0,1.44.54,1.87,3,1.87a23,23,0,0,0,4.49-.35v0a1.84,1.84,0,0,0-.63,1.65.6.6,0,0,1-.13.42,19.89,19.89,0,0,1-2.49.09c-2.45,0-4.09,0-4.48-2.76a22.08,22.08,0,0,1-1.73,3c-.11-.4-.54-2.15-.58-2.35l1.3-.48v-4.71Zm.4-6.51c.43.08,2.37.48,2.37,2.28,0,.88-.45,1.22-.79,1.22-.17,0-.27-.1-.36-.4a10.5,10.5,0,0,0-1.22-3.07Zm3.88,5.18v5.65c0,.24,0,.42-.23.45l-.67.1c-.16,0-.23,0-.23-.42v-6.55l.81.34v-4.88l1.15.48h1.93l.42-.83c0-.1.07-.16.12-.16a7.38,7.38,0,0,1,1.08,1.5c0,.1,0,.19-.42.42v3.13l.23-.41c0-.1.08-.13.12-.13a5.7,5.7,0,0,1,.92,1.42c0,.18-.32.32-.46.39v4.5c0,.72-.11.91-.19,1a1.66,1.66,0,0,1-1.15.51c-.22,0-.28-.13-.28-.43,0-.71,0-1-.64-1.44v-.05l.91.06c.19,0,.19-.16.19-.43v-4.21Zm2.08,1.38.38-.69c.06-.11.08-.16.15-.16a4.05,4.05,0,0,1,.8,1.26c0,.1,0,.13-.28.29v1.76c0,.32,0,.4-.25.44l-.58.09c-.22,0-.22,0-.22-.49h-.62v.72c0,.22,0,.36-.16.38l-.68.1c-.2,0-.2-.12-.2-.37v-3.78l1.15.45ZM116.9,291v-3.19c.24.1.9.37,1.09.47h.5v-1.75h-2.06V291Zm.21,1.76v2.11h.62V292.8Zm1.38-1.76v-2.55H118V291Z"/><path d="M132.1,288.65l.59-1.36c.06-.11.09-.19.13-.19a8.48,8.48,0,0,1,1.22,1.62c0,.11-.07.11-.14.11h-3.46v3.73h2.2l.62-1.38c.06-.14.09-.19.12-.19a10.82,10.82,0,0,1,1.22,1.63c0,.13-.06.13-.13.13h-3.91a19.73,19.73,0,0,1-2.93,4.6l4.49-.48a11.47,11.47,0,0,0-1.42-3c1.07.62,3.45,2.4,3.45,4.72,0,.88-.48,1.5-1,1.5-.27,0-.31-.13-.39-.53-.12-.59-.34-1.58-.6-2.41a38.52,38.52,0,0,1-5.85,2.94c-.06-.19-.48-2.05-.59-2.51l1.61-.18a30.59,30.59,0,0,0,1.25-4.61H125l0-.19h4.2v-3.73h-3.58l0-.18h3.63v-3.36c.5,0,1.24.12,1.49.13a.16.16,0,0,1,.15.13c0,.06,0,.08-.3.24v2.86Z"/><path d="M141.09,292.69c-.06.3-.33,1.65-.36,1.85a11.66,11.66,0,0,0-.21,2,4.62,4.62,0,0,0,.15,1.29,3.81,3.81,0,0,1,.16.9c0,.34-.28.82-.56.82-.67,0-1.17-1.91-1.17-4.58a53.44,53.44,0,0,1,.5-6.08,16.41,16.41,0,0,0,.09-1.73,4.66,4.66,0,0,0-.23-1.51,5.7,5.7,0,0,1,1.27,3.43,20.22,20.22,0,0,1-.5,3.36,12.48,12.48,0,0,0-.24,2.4c0,.43,0,.56.08.56s.21-.41.27-.61c.21-.61.51-1.57.72-2.17Zm1.81,2.78c0,1.54.85,1.54,1.15,1.54a6.11,6.11,0,0,0,1.84-.4,2.09,2.09,0,0,1,.75-.19c.28,0,.66.16.66.88a1.38,1.38,0,0,1-.51,1.17,3.46,3.46,0,0,1-2,.57,1.8,1.8,0,0,1-1.78-.91,3.43,3.43,0,0,1-.48-1.74,4.13,4.13,0,0,1,.44-1.8A4.87,4.87,0,0,0,142.9,295.47Zm1.08-7.82a2.55,2.55,0,0,0,1-.32c.83-.48.86-.5,1-.5a1,1,0,0,1,.84,1c0,1.17-1.64,1.31-2,1.31s-1.16,0-1.54-2.05A1,1,0,0,0,144,287.65Z"/><path d="M151.26,299.55a13.34,13.34,0,0,0,4.44-5.66A7,7,0,0,0,154,292a4.23,4.23,0,0,1,2.21.61,23,23,0,0,0,.89-3.48l-2.09.55a8.75,8.75,0,0,1-3.63,4.29v-.07a15,15,0,0,0,3-6.78c0-.44-.23-.52-.58-.58.17-.24.46-.67.88-.67s1.42.78,1.42,1.18a.29.29,0,0,1-.19.29c-.23.74-.34,1.06-.45,1.36a3.43,3.43,0,0,0,1.74-.48c.11-.1.52-.59.63-.59a3,3,0,0,1,1.17,1.52c0,.29-.06.32-.57.69a27.94,27.94,0,0,1-1.11,3.69,2.55,2.55,0,0,1,.61,1.53c0,.46-.19,1.07-.67,1.07-.31,0-.39-.16-.73-.83a8.77,8.77,0,0,1-5.21,4.35Z"/><path d="M162.73,296.39c3.15-3,5.64-8.63,5.64-9.46,0-.16,0-.4-.58-.85a1.65,1.65,0,0,1,.71-.26c.62,0,1.47,1.11,1.47,1.81,0,.21,0,.24-.25.46a25.17,25.17,0,0,0-1.56,2.77c.14.13.48.39.48.68a2.45,2.45,0,0,1-.07.44,7.48,7.48,0,0,0-.1,1.73c0,.8.14,4.77.14,5,0,.86-.37,1.18-.59,1.18-.63,0-.8-1.52-.8-1.84s.11-1.21.12-1.4c0-.47.08-1.32.08-3,0-.52,0-1,0-1.54a12.85,12.85,0,0,1-4.66,4.37Z"/><path d="M181,295.79a10.75,10.75,0,0,0-1.37-3.5,5.76,5.76,0,0,1,3.07,4.7c0,1.08-.55,1.44-.88,1.44s-.45-.4-.48-.52-.19-1.36-.23-1.59c-.15.08-4,1.51-4.58,1.62-.34.06-.36.09-.67.38-.08.07-.13.11-.21.11a3,3,0,0,1-1.15-2.06,2,2,0,0,1,.34-1c.17.91.48.9,1.24.88a53.56,53.56,0,0,0,1.63-8.93c0-.22,0-.64-.61-.56a1.17,1.17,0,0,1,1-.7c.41,0,1.33.57,1.33,1.1a1.81,1.81,0,0,1-.24.66c-.09.22-.46,1.76-.54,2.08-.17.59-1.1,4-1.92,6.32C178.67,296.05,178.91,296,181,295.79Z"/><path d="M192.08,293.26c0,.69-.28,1.17-.7,1.17s-.44-.29-.81-1.1a5.85,5.85,0,0,0-1.73-2.16c0,1.68,0,2.88,0,3.61,0,.57.2,3,.2,3.51s-.1,1.68-.69,1.68-.78-1.3-.87-2.24a43.7,43.7,0,0,0,.31-6.07c0-.52,0-4-.09-4.48-.06-.33-.24-.61-.57-.61a.89.89,0,0,0-.32.08c.22-.56.61-1.07,1-1.07s1.3.23,1.3,1c0,.19-.16,1-.19,1.13-.06.58-.09,2.4-.09,3.12C190.61,291,192.08,291.81,192.08,293.26Z"/><path d="M196.11,299.75c1.1-.51,4.52-2.08,5.72-8.52a15.47,15.47,0,0,0-4,1.27,2.89,2.89,0,0,1-.54.3A2.37,2.37,0,0,1,196,291a2.53,2.53,0,0,1,.28-1c.28,1,.71,1,1,1s4-.29,4.56-.72c.1-.06.44-.61.54-.61s1.24,1.14,1.24,1.64c0,.27-.17.43-.52.75-.63,2.61-2.13,7.28-7,7.82Zm2.5-12.86a3.68,3.68,0,0,0,2.6-.88c.26.08,1.21.55,1.21,1.09,0,.26-.17.69-.32.74s-3.2.45-3.46.45c-1,0-1.22-.84-1.5-1.92A1.73,1.73,0,0,0,198.61,286.89Z"/><path d="M208.66,291.7c.31,0,.91-.72,2.4-2.57.26-.32.4-.41.51-.41s.41.25.8.77a24,24,0,0,0,4.27,4.56,2.66,2.66,0,0,1,.75,1.82c0,.55-.28,1-.58,1-.89,0-3.59-4.17-4.87-6.17-.27-.43-.3-.48-.41-.48-.32,0-2,3.12-2.1,3.52s-.18.55-.34.55-.24,0-.74-.79a2.93,2.93,0,0,1-.52-1.58,2.69,2.69,0,0,1,.25-1.07C208.23,291.42,208.48,291.7,208.66,291.7Zm7.18-2.26c0,.45-.19.73-.45.73s-.26-.08-.5-.65a5,5,0,0,0-1-1.67C215.59,288,215.84,288.94,215.84,289.44Zm-.52-3.27c.79,0,1.58.34,1.58,1.33,0,.47-.2.8-.42.8s-.18,0-.51-.69a3.7,3.7,0,0,0-1.21-1.39A3,3,0,0,1,215.32,286.17Z"/><path d="M221,298.87a13.86,13.86,0,0,0,2.5-7.86c0-.31,0-1-.74-.95.43-.57.62-.8.92-.8a1.68,1.68,0,0,1,1.27,1.19,1,1,0,0,1-.13.45c-.3,3.66-1.23,6-3.82,8Zm10.3-10.23a16.14,16.14,0,0,1-3.63,7.75,3.18,3.18,0,0,0-.67,1c-.1.29-.14.42-.31.42s-1-1.7-1-2c0-.13.1-.69.12-.8.08-.56.08-2,.08-2.58s0-3.33-.09-3.75c-.16-.72-.5-.72-.69-.72.42-.59.57-.81.86-.81.6,0,1.28.94,1.28,1.33,0,.11-.19.56-.21.67-.12.43-.11,5.44-.1,5.49a16.12,16.12,0,0,0,4.37-6Z"/><path d="M242.12,292.46c-.31,4.6-1.61,7-4.1,7-1.92,0-2.16-1.91-2.16-4.95,0-1.09.19-5.81.19-6.77,0-.51-.05-.86-.78-.85.18-.4.43-.92,1.13-.92a1.11,1.11,0,0,1,1.1,1c0,.22-.23,1.18-.25,1.38-.14,1.2-.32,4.61-.32,7,0,1.14,0,2.16,1.19,2.16,1.92,0,3.15-2.06,4-5.09Z"/><path d="M246.17,295.86a3.4,3.4,0,0,1,2.29.85,2.36,2.36,0,0,1,.65,1.66c0,.74-.3,1.25-.76,1.25s-.72-.66-.76-.85A4.65,4.65,0,0,0,246.1,296Z"/><path d="M254.3,292.26l-.06-.2h1.23l.33-.78c.1-.21.12-.29.2-.29a4.56,4.56,0,0,1,1.28,1.59c0,.16-.18.33-.43.38v3.47c.06,1.08.09,1.56,2.48,1.56a23.63,23.63,0,0,0,4.73-.52v.07a2,2,0,0,0-.49,1.52c0,.46,0,.54-.14.62a13.51,13.51,0,0,1-2.63.16c-3.17,0-3.85-1.1-4.11-2.64a17.63,17.63,0,0,1-1.85,2.9c-.12-.39-.41-1.62-.6-2.43l1.29-.48v-4.93Zm.37-6.53c1,.44,2.34,1,2.34,2.48,0,.92-.55,1.23-.85,1.23s-.3-.1-.39-.47a10.46,10.46,0,0,0-1.11-3.2Zm2.2,5.28a17.24,17.24,0,0,0,2.51-5.81c.36.14,1.17.49,1.59.7,0,0,.09.05.09.11s0,.16-.28.18a4.06,4.06,0,0,0,3.29,2.67v.07a1.8,1.8,0,0,0-.69,1.44c-.05.51-.06.56-.18.56-.34,0-2.05-1.12-2.5-4.63a11.78,11.78,0,0,1-3.82,4.74Zm.06,5.92a16.79,16.79,0,0,0,1.05-4c.22.06,1.51.51,1.51.69s-.11.12-.3.19a11.51,11.51,0,0,1-2.26,3.23Zm1.24-6.6,0-.17h2.26l.46-1c.07-.16.09-.2.13-.2a6.63,6.63,0,0,1,1,1.25c0,.11-.07.11-.14.11h-1v1.94h.84l.46-1c.08-.16.09-.19.14-.19a7,7,0,0,1,1,1.25c0,.12-.07.12-.14.12h-2.34v3.67a1.94,1.94,0,0,1-.22,1.14,1.59,1.59,0,0,1-1.08.51c-.2,0-.2,0-.22-.66a1.31,1.31,0,0,0-.95-1.41v-.06l1,.05c.23,0,.23-.07.23-.53v-2.71h-2.15l0-.19h2.2v-1.94Zm3.06,2.84a2.94,2.94,0,0,1,2.06,2.56c0,1.12-.61,1.17-.74,1.17-.28,0-.31-.11-.44-.71a11,11,0,0,0-.9-3Z"/><path d="M271.89,288.94v-3.61a12.56,12.56,0,0,1,1.52.24.13.13,0,0,1,.12.12c0,.1,0,.12-.29.21v3h2.2l.4-.85c.12-.27.17-.28.2-.28a6,6,0,0,1,1.3,1.5c0,.19-.29.37-.43.45v4.88c0,.32,0,.45-.19.47l-.92.08c-.23,0-.23-.1-.23-.41V294h-2.33v5.75c0,.25,0,.4-.16.42l-1,.09c-.2,0-.2,0-.2-.34V294h-2.33v1.22c0,.26,0,.37-.19.38l-.94.08c-.21,0-.21-.11-.21-.43v-6.79c.3.08,1.3.44,1.51.53Zm-2.33.19v4.63h2.33v-4.63Zm3.68,0v4.63h2.33v-4.63Z"/><path d="M282.32,288.16a15.56,15.56,0,0,0,1.5-.43c1.24-.36,2.47-.64,3.72-.88a1.39,1.39,0,0,0,.78-.39c.06,0,.1-.08.15-.08s1.43.53,1.43,1.46c0,.3-.15.72-.47.72a1.89,1.89,0,0,1-.6-.16,3.43,3.43,0,0,0-1-.16,2,2,0,0,0-1.85,1.52,14.47,14.47,0,0,0-.62,4.51c0,2.8.87,3.12,2,3.52a1,1,0,0,1,.76,1.08c0,.81-.25,1.1-.59,1.1a3.07,3.07,0,0,1-1.34-.43c-1.19-.67-1.77-1.84-1.77-4.48,0-2.84.79-5.49,2-6.65a8.92,8.92,0,0,0-3.09,1.33c-.46.31-.53.34-.7.34-.67,0-1.11-.91-1.11-1.84a2.39,2.39,0,0,1,.15-.93C281.73,287.71,281.85,288.16,282.32,288.16Zm6.89,4.58c0,.4-.17.75-.41.75s-.33-.19-.53-.8a3.91,3.91,0,0,0-.95-1.55A1.81,1.81,0,0,1,289.21,292.74Zm-.5-3.16a1.37,1.37,0,0,1,1.55,1.33c0,.45-.25.69-.4.69s-.2-.06-.51-.66a3,3,0,0,0-1.25-1.29A4.22,4.22,0,0,1,288.71,289.58Z"/><path d="M296.76,293a28.74,28.74,0,0,0-.54,4.21,3.29,3.29,0,0,0,.22,1.19,2.31,2.31,0,0,1,.07.46.64.64,0,0,1-.63.69c-1.16,0-1.27-3.33-1.27-4.85a35.52,35.52,0,0,1,.61-6.16,12.72,12.72,0,0,0,.22-2,6.75,6.75,0,0,0-.06-.88,4.88,4.88,0,0,1,1.14,2.73,5.25,5.25,0,0,1-.26,1.41,18.32,18.32,0,0,0-.69,5c0,.56.09.64.19.64s.13-.06.24-.37l.72-2Zm4.62-4.48a1.33,1.33,0,0,0,.8.29c.23,0,.4.22.4.56,0,1.06-1.39,1.59-1.7,1.7.06,2.4.17,3.53.24,4.26a2.68,2.68,0,0,1,1.78,2.35c0,.53-.27.89-.56.89s-.29-.11-.67-.67a3.75,3.75,0,0,0-.5-.64c.09,2-1.16,2.11-1.55,2.11-.21,0-1.73-.11-1.94-1.29,0-.19-.22-1.25-.22-1.49,0-1.63,1.66-1.63,2.13-1.63a3.6,3.6,0,0,1,.53,0c-.05-1.41-.08-2.48-.1-3.67a2.57,2.57,0,0,1-.5.05c-1.07,0-1.42-1.14-1.69-2.05a1.48,1.48,0,0,0,1.2.63,2.74,2.74,0,0,0,1-.23c0-.41,0-2.64-.07-2.81a.51.51,0,0,0-.45-.42c.14-.38.37-.7.69-.7a1.25,1.25,0,0,1,1,1.12c0,.12-.07.65-.09.8a12,12,0,0,0-.18,1.56c.31-.2.51-.35.51-.56a.39.39,0,0,0,0-.14Zm-2.23,7.85c-.2,0-1,0-1,.65s.41.72.77.72c.9,0,1.26-.33,1.25-1.25A4.49,4.49,0,0,0,299.15,296.39Z"/><path d="M311.38,285.26c.66,0,1.12,1.15,1.12,2,0,.62-.2.81-.77,1.37-1,1-2.1,2.05-3.16,3.12a1.45,1.45,0,0,0-.46.82c0,.32.08.37.86.9a7.2,7.2,0,0,1,3.4,4.4,3.38,3.38,0,0,1,.13.94c0,.64-.36,1.38-.79,1.38-.27,0-.32-.11-.62-1.17a8.74,8.74,0,0,0-3.12-4.9,1.68,1.68,0,0,1-.7-1.34c0-.91.37-1.33,1.08-2.16,1.62-1.91,2.84-3.41,2.84-4.28a.59.59,0,0,0-.52-.65A1,1,0,0,1,311.38,285.26Zm2.88,5.7c0,.48-.24.74-.46.74s-.29-.18-.48-.95a4,4,0,0,0-.68-1.52A1.92,1.92,0,0,1,314.26,291Zm1.09-1.67c0,.28-.09.71-.38.71s-.2-.06-.45-.69a3.49,3.49,0,0,0-1.11-1.46C314,287.79,315.35,288.09,315.35,289.29Z"/><path d="M328.34,295.36c-.51,2.42-1.07,3.06-2.07,3.06s-1.52-.64-1.52-2c0-.83.29-4.43.29-5.18,0-.93-.15-1.48-.6-1.48s-1.37.77-2.52,2.69c0,1.89,0,3.88.18,5.75,0,.17.11.93.11,1.09,0,.52-.32.72-.49.72s-.79-.44-.79-1.25c0-.19,0-1,0-1.15a13.93,13.93,0,0,0-.18-2.13c-.2.75-.5,1.74-.63,2.24s-.25.67-.47.67c-.62,0-.62-.9-.62-1.2a1.48,1.48,0,0,1,.32-1,19.47,19.47,0,0,0,1-2.3c-.06-.28-.41-1.43-.47-1.67a3.82,3.82,0,0,1-.13-1c0-.72,0-1.38,1.51-2.5,0-1.41,0-2.7-.66-2.64.37-.4.54-.57.81-.57s.94.22.94,1.55a10.44,10.44,0,0,1-.16,1.5,1,1,0,0,1,.53.93c0,.18,0,.23-.25.75-.29.69-.34.87-.58,1.52a2.12,2.12,0,0,1,0,.31c0-.05,1.77-3.22,3-3.22.65,0,1.37.91,1.37,2.29a20.1,20.1,0,0,1-.22,2.56c-.14,1.36-.17,1.76-.17,2.14s0,1.08.74,1.08c1,0,1.5-1.14,1.64-1.47Zm-7-5a2.7,2.7,0,0,0-.74.61,1.19,1.19,0,0,0-.36.94,9.8,9.8,0,0,0,.25,1.71,10.74,10.74,0,0,0,.85-2.62Zm-.44,4.85c0,.14.11.53.13.66s.06.33.12.33.11-.35.12-.48,0-1.6,0-1.89Z"/><path d="M333.05,288.16c.2,0,1.26-.37,1.49-.43,1.24-.36,2.47-.64,3.72-.88a1.39,1.39,0,0,0,.78-.39c.06,0,.1-.08.15-.08s1.43.53,1.43,1.46c0,.3-.14.72-.47.72a1.89,1.89,0,0,1-.6-.16,3.43,3.43,0,0,0-1-.16,2,2,0,0,0-1.85,1.52,14.82,14.82,0,0,0-.61,4.51c0,2.8.86,3.11,1.95,3.52.4.15.76.29.76,1.17,0,.2,0,1-.58,1a3.4,3.4,0,0,1-1.35-.43c-1.19-.67-1.77-1.84-1.77-4.48,0-2.84.79-5.49,2-6.65a8.92,8.92,0,0,0-3.09,1.33c-.46.31-.53.34-.7.34-.67,0-1.11-.91-1.11-1.84a2.39,2.39,0,0,1,.15-.93C332.45,287.71,332.57,288.16,333.05,288.16Z"/><path d="M351.86,292.46c-.31,4.6-1.61,7-4.1,7-1.92,0-2.16-1.91-2.16-4.95,0-1.09.19-5.81.19-6.77,0-.51-.05-.86-.78-.85.18-.4.43-.92,1.13-.92a1.11,1.11,0,0,1,1.1,1c0,.22-.23,1.18-.25,1.38-.14,1.2-.32,4.61-.32,7,0,1.14,0,2.16,1.19,2.16,1.92,0,3.15-2.06,4-5.09Z"/><path d="M360.63,290.74a.58.58,0,0,0,.51.24l.76-.05c.16,0,.57,0,.57.59,0,1.06-.68,1.49-2.68,2,0,.56.07,1.83.09,2.32,2,.8,2.61,2.16,2.61,2.69s-.28,1-.53,1-.36-.14-.58-.45a7,7,0,0,0-1.45-1.53c0,1.52-.21,2.2-1.43,2.2a2.31,2.31,0,0,1-2.58-2.3,1.84,1.84,0,0,1,2.11-2,4.86,4.86,0,0,1,.85.08v-1.86a7.19,7.19,0,0,1-1.38.15,1.38,1.38,0,0,1-1.55-1.52,2.6,2.6,0,0,1,.4-1.3,2.82,2.82,0,0,0,0,.48c0,.69.34.91,1,.91a5.49,5.49,0,0,0,1.54-.25c0-.74,0-1.41,0-2.13a3.86,3.86,0,0,1-.95.16c-.95,0-1.19-.92-1.43-1.8a1.64,1.64,0,0,0,1.09.5,5,5,0,0,0,1.3-.38c0-1.41,0-2.21-.51-2.5.07-.22.24-.74.72-.74a1,1,0,0,1,.87.87,6.18,6.18,0,0,1-.14.7c0,.34-.07.93-.09,1.28a7.55,7.55,0,0,1,1-.56,1,1,0,0,1,.72,1c0,.79-.32.88-1.77,1.28,0,.69,0,1,0,2.05.46-.19,1-.41,1-.72a.85.85,0,0,0-.12-.38Zm-3,6.05c-.37,0-1.31,0-1.31.65s1.08.8,1.52.8c.91,0,1-.56,1-1.28A3.42,3.42,0,0,0,357.66,296.79Z"/><path d="M368.47,300.05c2.17-1.33,2.32-3.7,2.32-6.1a16.73,16.73,0,0,0-.18-2.78c-.06-.27-.15-.39-.32-.39-.33,0-.74.69-1.08,1.36-.63,1.24-.71,1.38-1,1.38s-1-.08-1-1.2a4.76,4.76,0,0,1,.77-2.46,4.74,4.74,0,0,0-.17,1.07c0,.49.16.51.24.51s.31-.1.92-.54c.93-.69,1.09-.81,1.48-.81,1.19,0,1.68,1.62,1.68,4.34,0,2.08-.19,5-3.63,5.67Zm.58-11.84c.11-.13.63-.68.73-.79a.78.78,0,0,0,.29-.56c0-.22-.12-.37-.52-.64a1,1,0,0,1-.5-.91,2.19,2.19,0,0,0,.85.26,1.81,1.81,0,0,1,1.68,1.82c0,.54-.21,1.31-.67,1.31-.08,0-.12,0-.47-.37a.94.94,0,0,0-.67-.27,1.63,1.63,0,0,0-.72.21Z"/><path d="M380,297.19c0,1.32-.69,2.43-1.58,2.43s-1.58-1.11-1.58-2.43.72-2.44,1.58-2.44S380,295.83,380,297.19Zm-2.74,0c0,1,.52,1.79,1.16,1.79s1.17-.82,1.17-1.79-.52-1.8-1.17-1.8S377.3,296.18,377.3,297.19Z"/><line class="cls-1" x1="19.08" y1="22.54" x2="19.08" y2="348.22"/><path d="M19.08,14.41A4.07,4.07,0,1,1,15,18.47,4.07,4.07,0,0,1,19.08,14.41Z"/><path class="cls-2" d="M19.08,12.53a5.94,5.94,0,1,1-5.94,5.94A5.94,5.94,0,0,1,19.08,12.53Z"/><polygon class="cls-2" points="19.08 6.23 24.39 15.43 29.7 24.59 19.08 24.59 8.47 24.59 13.78 15.43 19.08 6.23"/><path d="M10.37,77.42c0,1.69,0,2.11.23,2.11a.66.66,0,0,0,.42-.15,1.05,1.05,0,0,1,0,.78,4.61,4.61,0,0,0-1.75.65c-.07,0-.15-.11-.17-.26l0-.55c0-.15-.05-.2-.08-.15-.35.4-.7.77-1.06.77-1.11,0-1.86-1.6-1.86-3.54,0-2.54,1-4.16,2.32-4.16A1.42,1.42,0,0,1,9,73a.53.53,0,0,0,.09-.34V70.36c0-.72,0-.92-.19-1.13l-.17-.18a.68.68,0,0,1,0-.54,7,7,0,0,0,1.49-1,.17.17,0,0,1,.17.12c0,.74,0,1.5,0,2.63ZM9.1,75A2.91,2.91,0,0,0,9,74.41c-.12-.38-.34-.66-.56-.66-.5,0-1,1-1,2.84,0,1.19.3,2.83,1.1,2.83A.55.55,0,0,0,9,79.2a1.19,1.19,0,0,0,.11-.68Z"/><path d="M7.58,251.61c-.22,0-.24,0-.24.32,0,1.35.47,2.67,1.37,2.67.28,0,.65-.11.91-.94.11,0,.25.11.25.41-.4,1.53-1.12,2.05-1.7,2.05-1.32,0-2-1.7-2-3.67,0-2.27.89-4,2.11-4,1,0,1.56,1.2,1.56,2.59,0,.34-.05.6-.36.6Zm.65-.8a.51.51,0,0,0,.4-.16.94.94,0,0,0,.06-.41c0-.6-.18-1-.51-1s-.76.72-.76,1.29c0,.26.13.27.45.27Z"/><line class="cls-3" x1="22.14" y1="45.78" x2="15.61" y2="45.78"/><line class="cls-3" x1="22.14" y1="77.01" x2="15.61" y2="77.01"/><line class="cls-3" x1="22.14" y1="112.19" x2="15.61" y2="112.19"/><line class="cls-3" x1="22.14" y1="147.37" x2="15.61" y2="147.37"/><line class="cls-3" x1="22.14" y1="182.56" x2="15.61" y2="182.56"/><line class="cls-3" x1="22.14" y1="217.74" x2="15.61" y2="217.74"/><line class="cls-3" x1="22.14" y1="252.92" x2="15.61" y2="252.92"/><line class="cls-3" x1="22.12" y1="284.69" x2="15.59" y2="284.69"/><line class="cls-3" x1="22.12" y1="316.45" x2="15.59" y2="316.45"/><line class="cls-3" x1="22.12" y1="348.22" x2="15.59" y2="348.22"/><line class="cls-4" x1="96.41" y1="348.22" x2="33.76" y2="348.22"/><line class="cls-4" x1="104.68" y1="42.88" x2="34.9" y2="42.88"/><circle cx="9.83" cy="45.78" r="1.68"/><path d="M37.08,335.8l-.26,1.76h.57l-.07.77h-.61l-.32,2.18H36l.31-2.18h-.63l-.33,2.18H35l.31-2.18h-.64l.08-.77h.67l.26-1.76H35l.08-.78h.68l.28-2h.41l-.28,2h.61l.28-2h.42l-.28,2h.58l-.05.78Zm-1,0-.26,1.76h.63l.25-1.76Z"/><path d="M43.05,336.79c0,1.93-.45,3.92-1.5,3.92s-1.5-2-1.5-3.92.44-3.92,1.5-3.92S43.05,334.93,43.05,336.79Zm-1.5,3.37c.49,0,.55-2.3.55-3.37s-.06-3.37-.55-3.37-.55,2.3-.55,3.37S41.05,340.16,41.55,340.16Z"/><path d="M47,337.44a1.18,1.18,0,0,1,.09.5,1.36,1.36,0,0,1-.08.47l-1.56.26a1,1,0,0,1-.1-.47,1.22,1.22,0,0,1,.1-.5Z"/><path d="M50.71,336.4c-.09,0-.1,0-.1.27v1.8c0,.67,0,1.42.46,1.42a.42.42,0,0,0,.27-.18c.07,0,.11.16.09.31a1.14,1.14,0,0,1-.93.69c-.54,0-.73-.57-.73-1.36v-2.68c0-.25,0-.27-.12-.27h-.21a.39.39,0,0,1,0-.38,2.27,2.27,0,0,0,.53-.54,3.52,3.52,0,0,0,.49-.93.12.12,0,0,1,.19.06v.9c0,.23,0,.24.12.24h.58a.44.44,0,0,1,0,.23.9.9,0,0,1-.08.42Z"/><path d="M55.73,338.9c0,.82.16,1,.29,1a.32.32,0,0,0,.25-.14c.06,0,.1.17.08.28s-.39.64-.76.64-.37-.14-.54-.42c0-.07-.07-.09-.11-.09s-.07.05-.13.13a.78.78,0,0,1-.56.38c-.37,0-.72-.42-.72-1.26a1.25,1.25,0,0,1,.67-1.24c.25-.15.43-.24.61-.34a.26.26,0,0,0,.16-.24c0-.13,0-.26,0-.41,0-.45-.1-1-.38-1s-.29.17-.33.69a.75.75,0,0,1-.11.38.82.82,0,0,1-.47.27c-.11,0-.15-.13-.15-.29a1.81,1.81,0,0,1,.31-.93,1.51,1.51,0,0,1,1.09-.73c.55,0,.87.5.83,1.74Zm-.78-.31c0-.19,0-.23-.05-.22-.29.08-.54.28-.54.84,0,.39.15.72.33.72s.24-.21.25-.58Z"/><path d="M58.64,333.88c0-.48,0-.61-.13-.76L58.4,333a.56.56,0,0,1,0-.36,6.21,6.21,0,0,0,1-.67.12.12,0,0,1,.11.08c0,.5,0,1,0,1.76v3.76c0,.13,0,.17.09.17s.25-.06.37-.34l.28-.58a1.44,1.44,0,0,0,.15-.48.14.14,0,0,0-.12-.12l-.16-.05a.5.5,0,0,1,0-.42h.16a5.32,5.32,0,0,0,1.23-.17.55.55,0,0,1,0,.42l-.21.08a1.08,1.08,0,0,0-.43.42,5.49,5.49,0,0,0-.44.7.41.41,0,0,0,0,.16,1.08,1.08,0,0,0,.05.2c.12.38.69,2,.85,2.29a.63.63,0,0,0,.38.28l.1,0a.55.55,0,0,1,0,.42c-.21,0-.45,0-.82,0a7.38,7.38,0,0,0-.8,0,.5.5,0,0,1,0-.42l.08,0c.07,0,.11-.05.11-.1a2.19,2.19,0,0,0-.11-.38l-.46-1.3c0-.13-.1-.18-.17-.18s-.07.06-.07.29v.69c0,.84,0,.94.25,1l.11,0a.56.56,0,0,1,0,.42c-.21,0-.48,0-.78,0s-.57,0-.79,0a.56.56,0,0,1,0-.42l.12,0c.24-.05.26-.15.26-1Z"/><path d="M64.73,337.7c-.15,0-.17,0-.17.22,0,.9.31,1.77.92,1.77.18,0,.43-.07.6-.62.08,0,.17.07.17.28-.26,1-.74,1.36-1.13,1.36-.88,0-1.36-1.14-1.36-2.44,0-1.51.59-2.69,1.41-2.69.67,0,1,.8,1,1.73,0,.22,0,.39-.24.39Zm.42-.52a.35.35,0,0,0,.27-.11.6.6,0,0,0,0-.28c0-.39-.13-.66-.35-.66s-.51.48-.51.87c0,.16.1.18.3.18Z"/><path d="M74.94,336.79c0,1.93-.45,3.92-1.5,3.92s-1.51-2-1.51-3.92.45-3.92,1.51-3.92S74.94,334.93,74.94,336.79Zm-1.5,3.37c.49,0,.55-2.3.55-3.37s-.06-3.37-.55-3.37-.56,2.3-.56,3.37S72.94,340.16,73.44,340.16Z"/><path d="M79.22,339c0,1,0,1.08.36,1.13l.27,0c.05.07.05.39,0,.42-.23,0-.62,0-1,0s-.81,0-1,0c-.06,0-.07-.35,0-.42l.27,0c.31-.05.35-.17.35-1.13v-3.92c0-.8,0-1-.31-1.05l-.3-.07a.55.55,0,0,1,0-.42,4.48,4.48,0,0,0,.83-.33c.29-.16.53-.39.58-.39s.08,0,.09.13c0,.28,0,.83,0,1.43Z"/><path d="M85.6,336.79c0,1.93-.45,3.92-1.5,3.92s-1.51-2-1.51-3.92.45-3.92,1.51-3.92S85.6,334.93,85.6,336.79Zm-1.5,3.37c.49,0,.55-2.3.55-3.37s-.06-3.37-.55-3.37-.56,2.3-.56,3.37S83.6,340.16,84.1,340.16Z"/><path d="M37.69,32.94a1.13,1.13,0,0,1,.13.63c0,.35-.09.68-.17.68a.13.13,0,0,1-.1-.06c-.18-.48-.44-.9-.67-.9-.42,0-.65.89-.65,1.71s.33,1.91.93,1.91c.24,0,.44-.14.58-.59.08,0,.17.08.17.27-.15.6-.54,1.28-1.15,1.28-.82,0-1.38-1-1.38-2.42,0-1.71.75-2.71,1.62-2.71A1.38,1.38,0,0,1,37.69,32.94Z"/><path d="M40.35,31c0-.48,0-.61-.13-.75l-.11-.12a.45.45,0,0,1,0-.36,6.18,6.18,0,0,0,1-.67.13.13,0,0,1,.12.08c0,.49,0,1,0,1.75v2.21c0,.11,0,.14,0,.14s0,0,.11-.09a1.09,1.09,0,0,1,.74-.48c.55,0,.82.68.82,1.51v2.06c0,.84,0,.94.26,1l.11,0a.56.56,0,0,1,0,.42,5.82,5.82,0,0,0-.79,0,4.23,4.23,0,0,0-.7,0,.56.56,0,0,1,0-.42l.12,0c.15,0,.18-.13.18-.79V34.42c0-.42-.14-.81-.46-.81a.42.42,0,0,0-.36.29,1.19,1.19,0,0,0,0,.44v2.15c0,.66,0,.75.17.79l.12,0a.56.56,0,0,1,0,.42,4.75,4.75,0,0,0-.72,0,5.92,5.92,0,0,0-.76,0,.56.56,0,0,1,0-.42l.12,0c.21,0,.24-.14.24-1Z"/><path d="M47.75,36.06c0,.82.16,1,.29,1s.14,0,.25-.14.09.17.07.27-.38.65-.75.65-.37-.14-.55-.42c0-.07-.07-.09-.1-.09s-.07,0-.14.13-.31.38-.55.38-.73-.42-.73-1.26a1.28,1.28,0,0,1,.68-1.25l.61-.33a.27.27,0,0,0,.16-.24c0-.13,0-.27,0-.41,0-.46-.1-1-.38-1s-.29.17-.34.68a.72.72,0,0,1-.11.39.8.8,0,0,1-.46.27c-.11,0-.15-.13-.15-.3a1.81,1.81,0,0,1,.31-.92A1.51,1.51,0,0,1,47,32.74c.55,0,.87.5.83,1.74ZM47,35.75c0-.19,0-.23,0-.22-.29.07-.54.28-.54.84,0,.39.14.72.33.72s.24-.21.24-.59Z"/><path d="M50.71,34.52c0-.48,0-.62-.12-.76l-.09-.11a.45.45,0,0,1,0-.36,4,4,0,0,0,1-.72s.09,0,.11.11c0,.24,0,.41,0,.51s0,.12.06.15c.18-.21.37-.6.64-.6s.36.25.36.71-.21.77-.42.77-.17-.07-.25-.21-.21-.24-.25-.24-.12.26-.12.72v1.85c0,.84,0,.93.24,1l.21,0a.56.56,0,0,1,0,.42c-.31,0-.57,0-.88,0s-.55,0-.77,0a.61.61,0,0,1,0-.42l.12,0c.22,0,.24-.14.24-1Z"/><path d="M56.94,36.06c0,.82.16,1,.29,1s.14,0,.25-.14.1.17.08.27-.39.65-.76.65-.37-.14-.54-.42c0-.07-.08-.09-.11-.09s-.07,0-.13.13-.32.38-.56.38-.73-.42-.73-1.26a1.28,1.28,0,0,1,.68-1.25L56,35a.27.27,0,0,0,.16-.24c0-.13,0-.27,0-.41,0-.46-.1-1-.38-1s-.29.17-.33.68a.81.81,0,0,1-.12.39.8.8,0,0,1-.46.27c-.11,0-.15-.13-.15-.3a1.81,1.81,0,0,1,.31-.92,1.51,1.51,0,0,1,1.09-.73c.55,0,.87.5.83,1.74Zm-.78-.31c0-.19,0-.23,0-.22-.29.07-.54.28-.54.84,0,.39.15.72.33.72s.24-.21.24-.59Z"/><path d="M61.86,32.94a1,1,0,0,1,.14.63c0,.35-.09.68-.17.68a.13.13,0,0,1-.1-.06c-.18-.48-.44-.9-.67-.9-.42,0-.65.89-.65,1.71s.33,1.91.93,1.91c.24,0,.43-.14.58-.59.08,0,.17.08.17.27-.15.6-.54,1.28-1.15,1.28-.82,0-1.38-1-1.38-2.42,0-1.71.75-2.71,1.62-2.71A1.32,1.32,0,0,1,61.86,32.94Z"/><path d="M65.45,33.55c-.09,0-.1,0-.1.28v1.8c0,.67,0,1.41.46,1.41a.39.39,0,0,0,.27-.18.33.33,0,0,1,.09.32,1.16,1.16,0,0,1-.93.69c-.54,0-.73-.58-.73-1.37V33.83c0-.25,0-.28-.12-.28h-.2c-.08,0-.1-.28,0-.37a2.76,2.76,0,0,0,.54-.54,3.8,3.8,0,0,0,.48-.93.12.12,0,0,1,.19.06v.9c0,.22,0,.24.13.24h.57a.32.32,0,0,1,.06.22.75.75,0,0,1-.09.42Z"/><path d="M69.23,34.86c-.15,0-.16,0-.16.22,0,.9.31,1.77.91,1.77.19,0,.43-.07.61-.62.07,0,.17.07.17.27-.27,1-.75,1.37-1.14,1.37-.88,0-1.35-1.14-1.35-2.45,0-1.51.59-2.68,1.4-2.68s1,.8,1,1.72c0,.23,0,.4-.23.4Zm.43-.53a.34.34,0,0,0,.27-.11A.56.56,0,0,0,70,34c0-.4-.12-.66-.34-.66s-.51.48-.51.86c0,.17.09.18.3.18Z"/><path d="M73.28,34.52c0-.48,0-.62-.12-.76l-.09-.11a.45.45,0,0,1,0-.36,3.84,3.84,0,0,0,1-.72s.09,0,.12.11q0,.36,0,.51c0,.09,0,.12.07.15.17-.21.36-.6.63-.6s.36.25.36.71-.21.77-.42.77-.16-.07-.25-.21-.21-.24-.25-.24-.12.26-.12.72v1.85c0,.84,0,.93.24,1l.21,0a.56.56,0,0,1,0,.42c-.31,0-.57,0-.88,0s-.55,0-.76,0a.56.56,0,0,1,0-.42l.12,0c.22,0,.24-.14.24-1Z"/><path d="M80.58,33.29c-.06-.08-.07-.37,0-.42.24,0,.46,0,.8,0s.48,0,.72,0a.61.61,0,0,1,0,.42l-.11.05c-.07,0-.11,0-.11.12a4.08,4.08,0,0,0,.06.42c.13.66.28,1.28.41,1.86.14-.6.31-1.24.44-2a1.3,1.3,0,0,0,0-.3c0-.06,0-.1-.15-.14l-.09,0a.51.51,0,0,1,0-.42,5.29,5.29,0,0,0,.54,0c.2,0,.35,0,.5,0s0,.35,0,.42l-.11,0c-.2.06-.25.2-.38.66-.34,1.23-.63,2.51-.93,3.8a.19.19,0,0,1-.15.08.22.22,0,0,1-.15-.08c-.34-1.51-.48-2.09-.89-3.68-.15-.59-.19-.69-.36-.76Z"/><path d="M85.73,35.4c0-1.71.73-2.66,1.5-2.66s1.45.86,1.45,2.55-.69,2.58-1.49,2.58S85.74,37.06,85.73,35.4Zm.94-.26c0,1.26.21,2.18.59,2.18s.49-.78.49-1.86-.19-2.17-.56-2.17S86.67,33.83,86.67,35.14Z"/><path d="M92.23,36.31c0,.84,0,.95.24,1l.12,0a.56.56,0,0,1,0,.42,7.63,7.63,0,0,0-1.56,0,.51.51,0,0,1,0-.42l.12,0c.21,0,.24-.14.24-1V34.5c0-.48,0-.62-.12-.77l-.09-.11a.43.43,0,0,1,0-.35,4.4,4.4,0,0,0,1-.7c.05,0,.09,0,.12.11,0,.36,0,.89,0,1.43Zm0-5.42c0,.58-.24.88-.49.88s-.45-.36-.45-.86.22-.87.48-.87S92.28,30.41,92.28,30.89Z"/><path d="M97.15,32.94a1,1,0,0,1,.14.63c0,.35-.09.68-.17.68a.13.13,0,0,1-.1-.06c-.19-.48-.44-.9-.67-.9-.43,0-.65.89-.65,1.71s.33,1.91.93,1.91c.24,0,.43-.14.57-.59.08,0,.17.08.17.27-.14.6-.53,1.28-1.15,1.28-.82,0-1.37-1-1.37-2.42,0-1.71.74-2.71,1.62-2.71A1.32,1.32,0,0,1,97.15,32.94Z"/><path d="M100.47,34.86c-.15,0-.17,0-.17.22,0,.9.32,1.77.92,1.77.18,0,.43-.07.61-.62.07,0,.17.07.17.27-.27,1-.75,1.37-1.14,1.37-.88,0-1.35-1.14-1.35-2.45,0-1.51.59-2.68,1.4-2.68s1,.8,1,1.72c0,.23,0,.4-.23.4Zm.43-.53a.31.31,0,0,0,.26-.11.53.53,0,0,0,0-.27c0-.4-.12-.66-.35-.66s-.5.48-.5.86c0,.17.09.18.3.18Z"/><rect x="34.53" y="321.14" width="17.75" height="3.94"/><rect x="34.33" y="95.31" width="102.05" height="11.94"/><path class="cls-5" d="M42.73,102.39c.23.86.45,1.71.69,2.52h0c.26-.87.51-1.82.76-2.76l.94-3.5a17.49,17.49,0,0,0,.75-3.53,3.81,3.81,0,0,0,.75.06,7.1,7.1,0,0,0,.88-.06.66.66,0,0,1,0,.46l-.21,0c-.62.11-.7.46-.69,1.74,0,2,0,5.34.11,8,0,.91,0,1.41.49,1.48l.31.06a.56.56,0,0,1,0,.46c-.4,0-.81-.06-1.17-.06s-.8,0-1.2.06a.57.57,0,0,1,0-.46l.28-.06c.49-.09.49-.38.49-1.56l0-7.65h0c-.07.2-.45,1.67-.64,2.38l-.89,3.22c-.45,1.61-.89,3.34-1.07,4.18a.1.1,0,0,1-.1.08.11.11,0,0,1-.09-.08c-.17-1-.65-2.77-.88-3.67l-.89-3.54c-.21-.85-.42-1.8-.64-2.65h0c0,1.14-.07,2.21-.1,3.27s-.07,2.76-.07,4.32c0,1.35.06,1.65.45,1.7l.38.06a.56.56,0,0,1,0,.46,9.79,9.79,0,0,0-1.11-.06,8.81,8.81,0,0,0-1,.06.61.61,0,0,1,0-.46l.22-.06c.41-.11.55-.22.61-1.5s.11-2.22.17-4c0-1.52.09-3.08.11-4.09,0-1.16-.06-1.44-.67-1.58l-.15,0a.56.56,0,0,1,0-.46,5.54,5.54,0,0,0,.78.06,4.36,4.36,0,0,0,.83-.06,12,12,0,0,0,.51,3Z"/><path class="cls-5" d="M52.19,97.93c0-1.91,0-2.18-.61-2.31l-.16,0a.61.61,0,0,1,0-.46c.43,0,.76.06,1.17.06h1.87a6.75,6.75,0,0,0,1.35-.06c.06.31.11,1.64.15,2.44,0,.11-.19.15-.24,0-.15-.86-.24-1.51-.76-1.74a2.46,2.46,0,0,0-1-.11H53.3c-.3,0-.3,0-.3.73v3.67c0,.51,0,.51.33.51h.58a2.18,2.18,0,0,0,.84-.1c.12-.08.19-.19.24-.65l.08-.75a.14.14,0,0,1,.26,0c0,.44,0,1.15,0,1.85s0,1.36,0,1.76a.14.14,0,0,1-.26,0L55,102.1c0-.33-.11-.61-.31-.7a1.92,1.92,0,0,0-.76-.09h-.58c-.3,0-.33,0-.33.49v2.59a5.17,5.17,0,0,0,.19,1.91c.12.22.33.42,1.2.42s1.06-.07,1.28-.27a5.53,5.53,0,0,0,.7-1.78c.07-.09.21,0,.25.13-.07.64-.32,2-.45,2.55-.89,0-1.78-.06-2.66-.06h-.9c-.42,0-.76,0-1.35.06a.6.6,0,0,1,0-.46l.33-.06c.56-.09.62-.36.62-2.29Z"/><path class="cls-5" d="M66.15,105.42c0,.73.06,1.17.24,1.3a.24.24,0,0,1,0,.22,1.43,1.43,0,0,0-.49.17,4.51,4.51,0,0,1-1.78.48,3.37,3.37,0,0,1-3-2,8.8,8.8,0,0,1-.92-4.17,9.81,9.81,0,0,1,.9-4.35,3.45,3.45,0,0,1,3.15-2.15,3.24,3.24,0,0,1,1.26.28,1.53,1.53,0,0,0,.62.16c0,.61.06,1.56.15,2.67A.15.15,0,0,1,66,98c-.28-2-1-2.61-2-2.61-1.93,0-2.78,2.54-2.78,5.29,0,3.52,1,6.3,3,6.3.62,0,1-.24,1.09-.55a3.58,3.58,0,0,0,.1-1v-.73c0-1.55,0-1.66-.64-1.78l-.44-.1a.5.5,0,0,1,0-.46,12.49,12.49,0,0,0,1.42.06,8.67,8.67,0,0,0,1.06-.06.53.53,0,0,1,0,.46l-.16,0c-.42.09-.43.6-.43,1.54Z"/><path class="cls-5" d="M76.13,99.78a24,24,0,0,0-.19-3.8.57.57,0,0,0-.49-.38l-.25,0a.55.55,0,0,1,0-.44,10.55,10.55,0,0,0,1.13.06,8.5,8.5,0,0,0,1.05-.06.52.52,0,0,1,0,.44l-.24,0a.59.59,0,0,0-.5.44,29.91,29.91,0,0,0-.14,3.74v2.08a10.73,10.73,0,0,1-.69,4.39,2.21,2.21,0,0,1-1.91,1.34,2.08,2.08,0,0,1-1.86-1c-.52-.81-.77-2.15-.77-4.34V97.91c0-1.91,0-2.22-.6-2.31l-.25,0a.56.56,0,0,1,0-.44c.5,0,.84.06,1.24.06s.73,0,1.22-.06a.56.56,0,0,1,0,.44l-.24,0c-.58.09-.6.4-.6,2.31v4c0,3,.5,4.9,2,4.9s2-2.09,2-4.88Z"/><path class="cls-5" d="M84.39,102.39c.22.86.44,1.71.68,2.52h0c.27-.87.52-1.82.77-2.76l.93-3.5a17,17,0,0,0,.76-3.53,3.81,3.81,0,0,0,.75.06,7.22,7.22,0,0,0,.88-.06.66.66,0,0,1,0,.46l-.21,0c-.62.11-.7.46-.69,1.74,0,2,0,5.34.11,8,0,.91,0,1.41.48,1.48l.32.06a.56.56,0,0,1,0,.46c-.41,0-.81-.06-1.17-.06s-.8,0-1.21.06a.57.57,0,0,1,0-.46l.29-.06c.49-.09.49-.38.49-1.56l0-7.65h0c-.07.2-.45,1.67-.65,2.38L86,103.22c-.45,1.61-.9,3.34-1.08,4.18a.1.1,0,0,1-.1.08.11.11,0,0,1-.09-.08c-.16-1-.64-2.77-.87-3.67l-.9-3.54c-.2-.85-.41-1.8-.63-2.65h0c0,1.14-.07,2.21-.1,3.27s-.07,2.76-.07,4.32c0,1.35.06,1.65.45,1.7l.37.06a.52.52,0,0,1,0,.46,9.48,9.48,0,0,0-1.1-.06,9,9,0,0,0-1,.06.73.73,0,0,1,0-.46l.22-.06c.42-.11.56-.22.62-1.5s.11-2.22.17-4c0-1.52.09-3.08.11-4.09,0-1.16-.06-1.44-.67-1.58l-.16,0a.56.56,0,0,1,0-.46,5.79,5.79,0,0,0,.79.06,4.36,4.36,0,0,0,.83-.06,11.11,11.11,0,0,0,.51,3Z"/><path class="cls-5" d="M93.84,98c0-2,0-2.26-.6-2.35l-.25,0a.61.61,0,0,1,0-.46c.5,0,.83.06,1.25.06s.74,0,1.23-.06a.66.66,0,0,1,0,.46l-.25,0c-.59.09-.61.4-.61,2.35v6.53c0,2,0,2.2.61,2.33l.25.06a.66.66,0,0,1,0,.46c-.49,0-.83-.06-1.23-.06s-.75,0-1.25.06a.6.6,0,0,1,0-.46l.25-.06c.58-.13.6-.38.6-2.33Z"/><path class="cls-5" d="M107,101.36c-.48,0-.5,0-.5.59v2.59c0,1.93,0,2.18.61,2.29l.29.06a.61.61,0,0,1,0,.46c-.54,0-.88-.06-1.26-.06s-.77,0-1.16.06a.6.6,0,0,1,0-.46l.17-.06c.56-.18.58-.36.58-2.29V97.93c0-1.93-.07-2.24-.59-2.31l-.26,0a.61.61,0,0,1,0-.46c.49,0,.83.06,1.26.06s.72,0,1.15-.06a.61.61,0,0,1,0,.46l-.19,0c-.58.11-.6.38-.6,2.31V100c0,.57,0,.59.5.59h2.85c.47,0,.49,0,.49-.59V97.93c0-1.93,0-2.2-.6-2.31l-.19,0a.61.61,0,0,1,0-.46c.46,0,.79.06,1.2.06s.73,0,1.18-.06a.61.61,0,0,1,0,.46l-.21,0c-.58.11-.6.38-.6,2.31v6.61c0,1.93,0,2.16.6,2.29l.24.06a.61.61,0,0,1,0,.46c-.47,0-.81-.06-1.2-.06s-.76,0-1.2.06a.6.6,0,0,1,0-.46l.19-.06c.6-.18.6-.36.6-2.29V102c0-.55,0-.59-.49-.59Z"/><path class="cls-5" d="M119.43,103c-.07-.4-.11-.46-.41-.46h-1.5c-.25,0-.31.06-.38.44l-.34,1.93a12,12,0,0,0-.22,1.53c0,.22,0,.33.29.36l.32.06a.47.47,0,0,1,0,.46c-.25,0-.56,0-1-.06s-.69,0-1,.06a.57.57,0,0,1,0-.46l.33-.06c.24,0,.46-.24.6-.9.18-.84.46-2,.88-4.09l1-5a4.54,4.54,0,0,0,.17-1.3,1.52,1.52,0,0,0,.52-.7c.06,0,.13,0,.15.17.12.81.28,1.65.43,2.46l1.37,7.38c.28,1.58.41,1.85.84,1.94l.27.06a.61.61,0,0,1,0,.46,11.61,11.61,0,0,0-1.2-.06c-.48,0-.86,0-1.15.06a.5.5,0,0,1,0-.46l.29-.06c.21,0,.35-.14.35-.33a6.5,6.5,0,0,0-.13-1Zm-2-1.63c-.08.42-.07.44.21.44h1.22c.29,0,.31-.07.22-.57l-.53-3c-.08-.44-.17-.94-.23-1.16h0c0,.09-.13.54-.24,1.09Z"/><path class="cls-5" d="M131.19,104.17c0,.55,0,2.74,0,3.21,0,.11-.08.21-.19.21-.12-.32-.41-1-1.27-2.78L127.45,100c-.27-.57-1-2.08-1.16-2.48h0a8.42,8.42,0,0,0,0,1.19v4a26,26,0,0,0,.18,3.8.54.54,0,0,0,.51.35l.31.06a.56.56,0,0,1,0,.46c-.45,0-.8-.06-1.17-.06a8.17,8.17,0,0,0-1,.06.57.57,0,0,1,0-.46l.27-.06a.51.51,0,0,0,.44-.36,32.48,32.48,0,0,0,.13-3.79v-5.3a2.73,2.73,0,0,0-.22-1.32.88.88,0,0,0-.62-.44l-.17,0a.53.53,0,0,1,0-.46,8.76,8.76,0,0,0,1.12.06,1.65,1.65,0,0,0,.46-.06,29,29,0,0,0,1.7,4l1,2c.69,1.41,1.17,2.44,1.64,3.32h0a3.28,3.28,0,0,0,0-.77V99.78a23.38,23.38,0,0,0-.2-3.8c-.06-.16-.22-.27-.62-.36l-.17,0a.56.56,0,0,1,0-.46c.46,0,.8.06,1.18.06a7.57,7.57,0,0,0,1-.06.53.53,0,0,1,0,.46l-.14,0c-.31.09-.51.24-.55.38a27,27,0,0,0-.15,3.78Z"/><rect x="34.9" y="208.51" width="116.37" height="12.36"/><path class="cls-5" d="M39.85,211.13c0-1.93,0-2.22-.59-2.31l-.25,0a.61.61,0,0,1,0-.46c.48,0,.8.06,1.25.06s.73,0,1.15-.06a.61.61,0,0,1,0,.46l-.18,0c-.58.11-.6.38-.6,2.31v2.11c0,.35,0,.7.13.7s.21-.11.28-.2.39-.7.5-.88l1.08-2c.19-.33.67-1.26.77-1.52a.84.84,0,0,0,.07-.29c0-.08,0-.13-.17-.19l-.26-.11a.49.49,0,0,1,0-.46,9.82,9.82,0,0,0,1.09.06,7.37,7.37,0,0,0,1-.06.61.61,0,0,1,0,.46,1.77,1.77,0,0,0-.93.52,13.94,13.94,0,0,0-1.39,2.12L42,213a1.36,1.36,0,0,0-.23.56,1.57,1.57,0,0,0,.19.57c1,2,1.71,3.66,2.49,5.16.24.44.46.68.79.75l.27.06a.53.53,0,0,1,0,.46,7.89,7.89,0,0,0-1.11-.06c-.41,0-.76,0-1.21.06-.07,0-.1-.35,0-.46l.22-.07c.14,0,.24-.1.24-.19a1.36,1.36,0,0,0-.14-.42c-.19-.44-.44-.94-.82-1.73L41.8,216c-.57-1.17-.72-1.54-1-1.54s-.17.24-.17.88v2.37c0,1.93,0,2.18.57,2.29l.27.06a.61.61,0,0,1,0,.46c-.48,0-.82-.06-1.21-.06a10.93,10.93,0,0,0-1.15.06.59.59,0,0,1,0-.46l.19-.06c.53-.14.55-.36.55-2.29Z"/><path class="cls-5" d="M52.32,216.23c-.07-.4-.11-.45-.4-.45H50.41c-.24,0-.31.05-.37.44l-.35,1.92a12,12,0,0,0-.22,1.53c0,.22.05.33.29.36l.33.06a.47.47,0,0,1,0,.46c-.26,0-.57,0-1-.06s-.68,0-1,.06a.61.61,0,0,1,0-.46l.32-.06c.24,0,.46-.23.6-.9.18-.84.46-2,.88-4.09l1-5a4.5,4.5,0,0,0,.17-1.3,1.52,1.52,0,0,0,.52-.7c.06,0,.13,0,.15.17.13.81.29,1.65.43,2.46l1.37,7.38c.29,1.58.42,1.85.84,1.94l.27.06a.61.61,0,0,1,0,.46,11.47,11.47,0,0,0-1.2-.06c-.48,0-.86,0-1.15.06a.53.53,0,0,1,0-.46l.29-.06c.21,0,.35-.14.35-.33a6.5,6.5,0,0,0-.13-1Zm-2-1.63c-.08.42-.07.44.21.44h1.23c.29,0,.31-.07.22-.57l-.54-3c-.08-.44-.17-.94-.23-1.16h0c0,.1-.13.54-.24,1.09Z"/><path class="cls-5" d="M63.9,218.62c0,.74.06,1.18.24,1.3a.24.24,0,0,1,0,.22,1.43,1.43,0,0,0-.49.17,4.51,4.51,0,0,1-1.78.48,3.37,3.37,0,0,1-3-2,8.8,8.8,0,0,1-.92-4.17,9.81,9.81,0,0,1,.9-4.35,3.28,3.28,0,0,1,4.41-1.87,1.53,1.53,0,0,0,.62.16c0,.61.06,1.56.15,2.67a.15.15,0,0,1-.27.05c-.28-2-1-2.61-2-2.61-1.93,0-2.77,2.54-2.77,5.29,0,3.53,1,6.3,3,6.3.62,0,1-.24,1.09-.55a3.58,3.58,0,0,0,.1-1v-.73c0-1.55,0-1.66-.64-1.78L62,216a.48.48,0,0,1,0-.45c.29,0,.84.05,1.42.05.39,0,.73,0,1.06-.05a.5.5,0,0,1,0,.45l-.16,0c-.42.09-.43.61-.43,1.54Z"/><path class="cls-5" d="M71.92,216.23c-.07-.4-.11-.45-.41-.45H70c-.25,0-.31.05-.38.44l-.35,1.92a12,12,0,0,0-.22,1.53c0,.22,0,.33.29.36l.33.06a.47.47,0,0,1,0,.46c-.26,0-.57,0-1-.06s-.68,0-1,.06a.61.61,0,0,1,0-.46L68,220c.23,0,.45-.23.59-.9.18-.84.46-2,.88-4.09l1-5a4.5,4.5,0,0,0,.17-1.3,1.52,1.52,0,0,0,.52-.7c.06,0,.13,0,.15.17.13.81.29,1.65.44,2.46l1.36,7.38c.29,1.58.42,1.85.84,1.94l.27.06a.61.61,0,0,1,0,.46,11.33,11.33,0,0,0-1.2-.06c-.48,0-.86,0-1.15.06a.5.5,0,0,1,0-.46l.28-.06c.21,0,.35-.14.35-.33a6.5,6.5,0,0,0-.13-1Zm-2-1.63c-.08.42-.06.44.21.44h1.23c.29,0,.31-.07.22-.57l-.54-3c-.08-.44-.17-.94-.23-1.16h0c0,.1-.13.54-.24,1.09Z"/><path class="cls-5" d="M78.32,211.15c0-1.74,0-2.06-.44-2.15l-.32-.07a.5.5,0,0,1,0-.46,13.82,13.82,0,0,1,2.22-.15,2.18,2.18,0,0,1,1.66.55,3.47,3.47,0,0,1,.83,2.57A3.7,3.7,0,0,1,81,214.51a.7.7,0,0,0,0,.44,23.42,23.42,0,0,0,2,4.88,1,1,0,0,0,.69.52s.06.18,0,.25a.84.84,0,0,1-.44.1c-.84,0-1.35-.46-2.06-2.32-.26-.68-.66-1.94-1-2.77-.15-.4-.31-.59-.71-.59s-.47,0-.47.41v2.31c0,1.93,0,2.15.6,2.29l.21.06a.6.6,0,0,1,0,.46c-.45,0-.79-.06-1.18-.06s-.78,0-1.25.06a.59.59,0,0,1,0-.46l.25-.06c.58-.12.6-.36.6-2.29Zm.81,2.62a2.57,2.57,0,0,0,0,.61c0,.06.18.09.69.09a1.12,1.12,0,0,0,1-.48,3.83,3.83,0,0,0,.5-2.27c0-1.45-.49-2.83-1.59-2.83-.62,0-.65.08-.65.59Z"/><path class="cls-5" d="M87.72,211.17c0-1.95,0-2.26-.61-2.35l-.25,0a.61.61,0,0,1,0-.46c.5,0,.84.06,1.25.06s.74,0,1.24-.06a.61.61,0,0,1,0,.46l-.25,0c-.59.09-.61.4-.61,2.35v6.53c0,2,0,2.21.61,2.33l.25.06a.61.61,0,0,1,0,.46c-.5,0-.84-.06-1.24-.06s-.75,0-1.25.06a.6.6,0,0,1,0-.46l.25-.06c.59-.12.61-.38.61-2.33Z"/><path class="cls-5" d="M100.49,220.79a2.16,2.16,0,0,1-1.56-.68,15.14,15.14,0,0,1-.26-2.57c0-.13.19-.17.23-.06.15.94.56,2.74,1.71,2.74.84,0,1.25-1,1.25-2.11a3.67,3.67,0,0,0-.82-2.57l-.94-1.14A4.9,4.9,0,0,1,99,211.24c0-1.74.74-3.16,2-3.16a2.25,2.25,0,0,1,.93.24.73.73,0,0,0,.35.11,14.35,14.35,0,0,1,.18,2.24c0,.11-.2.17-.25.06-.13-.88-.4-2.08-1.36-2.08s-1.18,1.2-1.18,2a3.42,3.42,0,0,0,.85,2.26l.79.92a5,5,0,0,1,1.24,3.52C102.6,219.41,101.78,220.79,100.49,220.79Z"/><path class="cls-5" d="M108.69,214.56c-.48,0-.5,0-.5.59v2.59c0,1.93,0,2.18.61,2.29l.29.06a.61.61,0,0,1,0,.46c-.54,0-.88-.06-1.27-.06s-.76,0-1.15.06a.6.6,0,0,1,0-.46l.17-.06c.56-.18.58-.36.58-2.29v-6.61c0-1.93-.07-2.24-.59-2.31l-.26,0a.61.61,0,0,1,0-.46c.49,0,.83.06,1.25.06s.73,0,1.16-.06a.61.61,0,0,1,0,.46l-.19,0c-.58.11-.6.38-.6,2.31v2.11c0,.57,0,.59.5.59h2.85c.47,0,.49,0,.49-.59v-2.11c0-1.93,0-2.2-.6-2.31l-.19,0a.61.61,0,0,1,0-.46c.45,0,.79.06,1.2.06s.73,0,1.17-.06a.61.61,0,0,1,0,.46l-.2,0c-.58.11-.6.38-.6,2.31v6.61c0,1.93,0,2.17.6,2.29l.24.06a.66.66,0,0,1,0,.46c-.47,0-.81-.06-1.2-.06s-.77,0-1.2.06a.6.6,0,0,1,0-.46l.19-.06c.6-.18.6-.36.6-2.29v-2.59c0-.55,0-.59-.49-.59Z"/><path class="cls-5" d="M118.38,211.17c0-1.95,0-2.26-.61-2.35l-.25,0a.61.61,0,0,1,0-.46c.5,0,.84.06,1.25.06s.74,0,1.24-.06a.61.61,0,0,1,0,.46l-.25,0c-.59.09-.61.4-.61,2.35v6.53c0,2,0,2.21.61,2.33l.25.06a.61.61,0,0,1,0,.46c-.5,0-.84-.06-1.24-.06s-.75,0-1.25.06a.6.6,0,0,1,0-.46l.25-.06c.59-.12.61-.38.61-2.33Z"/><path class="cls-5" d="M124.72,211.17c0-1.95,0-2.26-.61-2.35l-.25,0a.66.66,0,0,1,0-.46c.49,0,.83.06,1.25.06s.73,0,1.23-.06a.61.61,0,0,1,0,.46l-.25,0c-.58.09-.6.4-.6,2.35v6.53c0,2,0,2.21.6,2.33l.25.06a.61.61,0,0,1,0,.46c-.5,0-.83-.06-1.23-.06s-.76,0-1.25.06a.65.65,0,0,1,0-.46l.25-.06c.59-.12.61-.38.61-2.33Z"/><path class="cls-5" d="M136.42,217.37c0,.55,0,2.74,0,3.21,0,.12-.08.21-.19.21-.12-.32-.41-1-1.27-2.78l-2.31-4.84c-.27-.57-1-2.08-1.16-2.48h0a8.42,8.42,0,0,0-.05,1.19v4a26.17,26.17,0,0,0,.18,3.8.55.55,0,0,0,.51.34l.31.06a.55.55,0,0,1,0,.46c-.45,0-.8-.06-1.17-.06a8.17,8.17,0,0,0-1,.06.56.56,0,0,1,0-.46l.27-.06a.51.51,0,0,0,.44-.36,32.3,32.3,0,0,0,.13-3.78v-5.31a2.73,2.73,0,0,0-.22-1.32.88.88,0,0,0-.62-.44l-.17,0a.53.53,0,0,1,0-.46,8.82,8.82,0,0,0,1.13.06,1.63,1.63,0,0,0,.45-.06,30.29,30.29,0,0,0,1.7,4l1,2c.69,1.42,1.17,2.44,1.64,3.32h0a3.28,3.28,0,0,0,0-.77V213a23.32,23.32,0,0,0-.2-3.8c-.06-.17-.22-.28-.62-.37l-.17,0a.56.56,0,0,1,0-.46c.46,0,.8.06,1.18.06a7.57,7.57,0,0,0,1-.06.53.53,0,0,1,0,.46l-.14,0c-.31.09-.51.24-.55.38a27.1,27.1,0,0,0-.15,3.79Z"/><path class="cls-5" d="M144.61,216.23c-.07-.4-.11-.45-.41-.45h-1.5c-.25,0-.31.05-.38.44l-.35,1.92a13.25,13.25,0,0,0-.21,1.53c0,.22.05.33.28.36l.33.06a.47.47,0,0,1,0,.46c-.26,0-.56,0-1-.06s-.69,0-1,.06a.61.61,0,0,1,0-.46l.33-.06c.24,0,.46-.23.6-.9.18-.84.46-2,.87-4.09l1-5a4.5,4.5,0,0,0,.17-1.3,1.52,1.52,0,0,0,.52-.7c.05,0,.12,0,.14.17.13.81.29,1.65.44,2.46l1.36,7.38c.29,1.58.42,1.85.85,1.94l.27.06a.61.61,0,0,1,0,.46,11.61,11.61,0,0,0-1.2-.06c-.48,0-.86,0-1.15.06a.5.5,0,0,1,0-.46l.29-.06c.21,0,.35-.14.35-.33a6.5,6.5,0,0,0-.13-1Zm-2-1.63c-.08.42-.07.44.21.44h1.22c.29,0,.31-.07.22-.57l-.53-3c-.08-.44-.17-.94-.23-1.16h0c0,.1-.13.54-.24,1.09Z"/><rect class="cls-6" width="380.17" height="475.55"/></g></svg>