<svg xmlns="http://www.w3.org/2000/svg" viewBox="0 0 380.17 475.55"><defs><style>.cls-1,.cls-2,.cls-3,.cls-5{fill:none;}.cls-1,.cls-2,.cls-3{stroke:#000;}.cls-1{stroke-width:0.5px;}.cls-2{stroke-width:0.4px;}.cls-3{stroke-width:0.44px;}.cls-4{fill:#fff;}.cls-5{opacity:0.12;}</style></defs><title>アートボード 32</title><g id="letter_ol"><path d="M57,66c-.85.26-1.71,1.61-1.95,3.26-.15,1-.19,1.18-.48,1.18S47.37,67,46.13,53.39c-2.79,7.71-6.94,14.13-12.21,17.66l-.05-.11a63.87,63.87,0,0,0,8.92-20.15c.88.26,3.75,1.1,4.18,1.32a.3.3,0,0,1,.21.29c0,.33-.57.44-.83.48C48.3,60.07,51.86,63.82,57,66Zm-7.63,4.51c.22-.29.34-.44.45-.44s.31.19,1.41,2.06a10.17,10.17,0,0,1,1,2c0,.69-.43.84-1.31,1.1-.84,3.52-1.91,8-2.58,9.65a.78.78,0,0,1-.72.59l-2.07-.08c-.41,0-.5-.07-.5-.4s2-7,2.53-9.07c.26-.95.57-2.45.69-3.15h-12l-.12-.44H48Zm-3.41-4.11L47,63.89c.12-.26.19-.44.28-.44a15.48,15.48,0,0,1,2.48,3.12c0,.26-.16.26-.31.26h-9.2l-.12-.41Z"/><path d="M78.3,59.82v-8.3c.77.08,3.2.37,3.49.44.09,0,.26.08.26.3,0,.4-.65.58-.69.58v7h1.07l1.24-2.54c.21-.4.21-.47.31-.47A12.56,12.56,0,0,1,86.44,60c0,.3-.17.3-.31.3H81.36v9.79h1.28L84.19,67c.19-.4.22-.44.29-.44a18,18,0,0,1,2.77,3.67c0,.26-.17.26-.31.26H81.36V84.11c0,.59,0,.88-.43.92l-2.15.22c-.26,0-.48,0-.48-.81v-14H74a17.43,17.43,0,0,1-2.82,9.8,12.71,12.71,0,0,1-5.91,4.58v-.11c4.2-3.55,5.55-8,5.72-14.27H65.19l-.12-.41H71V60.26H66.09L66,59.82h5V51.45c.29,0,3.29.48,3.51.55s.28.07.28.29-.21.41-.73.63v6.9ZM74,60.26V67c0,.95,0,1.5-.05,3H78.3V60.26Z"/><path d="M110.33,64.44V57.65c.69.07,2.67.37,3.27.48a.3.3,0,0,1,.24.26c0,.25-.1.29-.77.58v5.47h.74l1.48-3.08c.12-.26.22-.44.29-.44a17,17,0,0,1,2.5,3.67c0,.25-.14.25-.31.25h-4.55c.71,5.18,2.72,9.44,5.7,12V77a3.85,3.85,0,0,0-1.43,2.79c-.24,1.36-.27,1.54-.6,1.54-.71,0-2.38-3.45-3-6.93-.52-3.27-.76-7.2-.86-9.21V84.44c0,.62,0,.74-.52.81l-1.74.22c-.43,0-.48-.19-.48-.85V74.53a24.68,24.68,0,0,1-4.2,5.8l0,0a33.65,33.65,0,0,0,2.33-6.75,1.69,1.69,0,0,1-1.45,1c-.57,0-.62-.73-.64-1.69a17.68,17.68,0,0,0-.77-5.39V84.55c0,.4,0,.66-.47.7l-1.79.18c-.46,0-.46-.4-.46-.73v-9a22.47,22.47,0,0,1-3.76,5l0,0c2.22-4.4,3.15-9.43,3.79-15.89h-2.24v3.49c0,10.17-3.13,14.39-4.7,16.29l0,0c.88-2.13,1.89-5.47,1.89-14.42V55.05c.45.14,2.21.8,3,1.17h4.82V51.3c1.15.15,3.08.44,3.56.55.11,0,.28.08.28.26s-.69.51-.76.55v3.56h4.77L114.84,53c.12-.26.21-.48.29-.48a22.47,22.47,0,0,1,2.64,3.82c0,.25-.14.25-.28.25H100.58v7.82h2.26V57.61c1.46.19,3.06.41,3.27.48s.22.08.22.22c0,.3-.34.44-.77.63v5.5h.29l1.05-2.57c.09-.25.19-.44.28-.44.27,0,1.63,2.75,1.72,3Zm-4.77,2.5c1.36.66,3.22,2.42,3.39,4.33.74-3.64,1-5.58,1.07-6.43h-4.46Z"/><path d="M139.69,58.31v4.3h2.69L143.51,60c.14-.33.19-.48.28-.48s2.55,2.79,2.55,3.27c0,.22-.16.22-.31.22h-6.34v4.55h5.41l1.29-2.75c.19-.41.22-.44.29-.44a13.62,13.62,0,0,1,2.5,3.37c0,.26-.16.26-.31.26h-11.8c.35.07,3.19.77,3.19,1.06,0,.12,0,.15-.79.52a32.48,32.48,0,0,1-.38,3.7h5.61l1.24-2.82c.14-.33.19-.44.28-.44s2.63,3,2.63,3.45c0,.25-.17.25-.31.25h-9.11c2.24,5.8,8.68,6.1,10,6.17V80c-1.1.51-1.46,2-1.6,3.12-.17,1.36-.22,1.72-.69,1.72a8.84,8.84,0,0,1-3.65-1.72c-2-1.47-3.72-4.11-4.37-9.4H139a15,15,0,0,1-2.12,6.06,14.54,14.54,0,0,1-9.64,5.54l0-.11a17.45,17.45,0,0,0,5.94-4.73A13.05,13.05,0,0,0,136,73.72h-8.23l-.12-.44h8.39a35.56,35.56,0,0,0,.36-5.28h-9.08l-.12-.44h9.37V63h-6.75l-.12-.4h6.87v-4.3h-8.54l-.09-.44h6.2c0-.18,0-.26-.17-1a11.57,11.57,0,0,0-1.84-5.21l0-.11c3.55.52,4.74,2.53,4.74,4.11a3,3,0,0,1-1,2.24h3.32a42.45,42.45,0,0,0,.86-6.35c3.29,1,3.62,1.14,4.17,1.32a.37.37,0,0,1,.28.34c0,.25-.38.33-1,.4-.36.59-.93,1.43-1.34,2a11.53,11.53,0,0,1-1.93,2.27h4.13l1.24-2.75c.12-.26.19-.44.28-.44a13,13,0,0,1,2.55,3.37c0,.26-.16.26-.28.26Z"/><path d="M74.33,187.18c-2.14,1-3.12,5.31-3.25,6-.25,1.58-.25,1.77-.86,1.77-.82,0-4.61-2.4-9.42-11.32a33.7,33.7,0,0,1-12.17,11.83l0-.32a59.46,59.46,0,0,0,10-16.76c-1.52-4.5-2.76-13.54-2.8-20.82a45.23,45.23,0,0,1-4.85,8.1l-.12-.06c.7-2.47,1.81-6.33,3-12H48.09V168l5.84-1.14v.19a30.67,30.67,0,0,1-5.84,5v21.51c0,1.26,0,1.52-.78,1.58l-3.08.32c-1,.12-1.11.12-1.11-1.21V175.48a56,56,0,0,1-6.54,4c-.33-1.58-1.28-6.89-1.6-8.92L43.12,169V153.59h-2.3a58.3,58.3,0,0,1-4.53,14.23l-.16-.06c.29-3.42,1-12.59,1-21,0-1.26,0-3.22,0-4.17,1,.19,5.76,1.14,6,1.26V137c.9.13,4.73.76,5.63,1,.33.06.54.25.54.44,0,.38-.46.51-1.2.76v13.73h.33l1.85-4.18c.13-.31.29-.63.46-.63.32,0,1.76,2.09,3.29,4.3A120.61,120.61,0,0,0,56,137.14c1.68.44,6.78,2.15,6.78,2.72,0,.31-.16.38-1.43.5A87.28,87.28,0,0,1,58,152.19h7.94l2.22-4.87c.17-.31.33-.76.5-.76s4.44,5.32,4.44,5.89-.17.44-.33.44H66.64c.37.25,3.91,2.09,3.91,2.47s-1.11.57-1.44.57c-2,13.66-4.28,19.35-5.39,22,5,6.39,9,8.23,10.61,9.05ZM43.12,152.89v-8.41a7.1,7.1,0,0,1-.91.44c-.61,4.68-1.15,7.4-1.23,8Zm14.68,0c-.54,1.33-1,2.4-1.48,3.48a54.86,54.86,0,0,0,4.23,16.32A92,92,0,0,0,64,152.89Z"/><path d="M88.23,151.81c3.42.95,6.87,4,6.87,8.36,0,2-.78,4.55-3.08,4.55-1.28,0-1.4-1.33-1.48-2.21-.33-3.1-.74-7.28-2.35-10.57Zm31.42,0,1.32-2.59c.49-.95.61-1.2.86-1.2s4.52,3.92,4.52,5.19c0,.69-.16.76-1.93,1.77v24.23c0,1.07,0,1.64-.74,1.71l-2.76.31c-.82.07-.94,0-.94-1.14V179h-3c0,1.83,0,2.21-.74,2.34l-1,.19c.78.63,2.43,1.9,3.33,2.65.58.45.74.57.74.83,0,.44-.57.57-1.19.63a35.29,35.29,0,0,1-10.32,10.25l0-.13c2.55-3.6,5.46-10.63,6.45-14.11a5.92,5.92,0,0,1-.86.07c-.66,0-.66-.7-.66-1.46V155.23a5.85,5.85,0,0,1-1.23.82V168.2c0,1.14,0,1.52-.74,1.64l-2.14.38c-.7.13-.82.13-.82-.88v-1.58h-1.2v3.92a11.11,11.11,0,0,1,5.6,9.3c0,1.14-.25,4.3-2.8,4.3-1.07,0-1.28-.44-1.28-2.15s-.08-7.28-1.52-10.76V194c0,1.26,0,1.39-.78,1.52l-2.34.38c-.74.12-.91.12-.91-1.21v-14A69.93,69.93,0,0,1,97,188.32a20.14,20.14,0,0,1,.12,2c0,4.75-2.09,5.57-3.37,5.57-1.6,0-2.22-1.08-2.22-2.72,0-3.92,0-11.52-3-18.09l0-.13a34.22,34.22,0,0,1,2.76,2.72c1.72-5.38,5.75-22.27,6.21-25.12l.12.07c-.82,8.35-1.11,10.5-2,18-1.07,8.66-1.11,8.92-1.11,9.87a5.06,5.06,0,0,0,.66,2.53,18.37,18.37,0,0,1,1.69,4.68,78.71,78.71,0,0,0,5.63-20h-1v2.08c0,1.14,0,1.46-.65,1.59l-2.14.31c-.78.13-.78-.12-.78-1.07V152.38c2.13.76,2.67,1,3.9,1.46h.78v-6.9H98.06a3.64,3.64,0,0,1-3.49,3.55c-.58,0-.79-.32-.95-1.33C92.51,141.44,90.78,139.1,90,138v-.25c4.11.7,8.18,3.1,8.14,8.41h4.44V137c.33,0,4,.57,4.73.7.33.06.62.12.62.44,0,.51-.12.57-1.32,1v7h1.36l1.48-3.6c.33-.76.45-1,.62-1s3.86,4.23,3.86,4.93c0,.44-.24.44-.49.44h-6.83v6.9h.91L109,151.5c.57-.89.62-1,.82-1,.41,0,2.39,2.27,2.92,3V150.3c.58.19,3,.94,3.5,1.14.12-2.6.2-6.58.16-9.12H112l-.16-.75h8.59l1.89-3.8c.17-.32.41-.89.58-.89.37,0,3.62,4.37,3.62,4.94s-.29.5-.54.5h-4a73.14,73.14,0,0,1-5.14,9.37c.17.06.21.06.42.12Zm-17.11,15.25V154.53h-1.11v12.53Zm5.23,0V154.53h-1.2v12.53ZM117,152.57v7.72h3v-7.72Zm0,16h3V161h-3Zm0,9.68h3v-8.92h-3Zm1,3.48c2.18.88,7.93,3.22,7.93,9.17,0,2.72-1.44,4.49-2.83,4.49-1.11,0-1.24-.38-1.81-4-.66-4-1.77-7.53-3.29-9.55Z"/><path d="M153.91,172.88c3.25,1.71,6.62,3.48,6.62,8.35,0,2.53-1.23,4.43-3,4.43-1.19,0-1.24-.7-1.44-2.72a30.86,30.86,0,0,0-2.3-9.74v20.68c0,1.14,0,1.59-.78,1.65l-3.09.38c-1,.13-1-.51-1-1.46V176.8a4.28,4.28,0,0,1-.61.38c-3.13,9.94-5.19,13-6.75,15.25l-.12-.13a141.06,141.06,0,0,0,2.1-18.09,44.06,44.06,0,0,1,5.38,1.64v-6.13c-2,1.14-3.82,2.15-6.25,3.48-.16-1.33-.9-7.28-1-8.48l4.53-.25a172.25,172.25,0,0,0,7.44-18.41c.7.5,3.62,3,4.24,3.54s1.6,1.33,1.6,1.71a.45.45,0,0,1-.49.5,3.62,3.62,0,0,1-.83-.19A95.89,95.89,0,0,1,148,164.4l7.85-.38a21.9,21.9,0,0,0-1.73-5l0-.13c3.5,1.64,6.71,4,6.71,8.86,0,1.26-.29,4.3-2.84,4.3-1.07,0-1.11-.44-1.27-1.65-.21-1.77-.5-4.11-.75-5.44a23.21,23.21,0,0,1-2.13,1.65v6.45Zm-11.6-26.76a11.21,11.21,0,0,1,4.15,2.41A114.69,114.69,0,0,0,148.73,137s4.4,2.91,4.52,3c.7.44,1.73,1.14,1.73,1.45a.59.59,0,0,1-.58.64c-.16,0-.2-.07-.9-.19a39,39,0,0,1-6.21,7.4,7,7,0,0,1,1.93,5.06c0,3.48-1.85,4.36-3.08,4.36s-1.32-.5-1.52-2.78a29.4,29.4,0,0,0-2.39-9.74Zm28.79-2.78v47.19h1.52l2.47-5.38c.33-.69.37-.75.53-.75a42.68,42.68,0,0,1,4.61,6.45c0,.44-.25.44-.5.44H155.14l-.2-.76h10.94V143.34h-8.6l-.16-.7h15.5l2.14-4.81c.2-.5.33-.82.49-.82s4.44,5.44,4.44,6-.29.38-.53.38Z"/><path d="M208.4,166.87H210l2.18-4.62c.33-.69.37-.76.54-.76.37,0,4,5,4,5.63,0,.45-.25.45-.54.45H208.4v2.65c2.26.51,7.52,3.48,7.52,8.67,0,3.67-2.38,4.68-3.29,4.68-1.35,0-1.39-.88-1.68-3.48-.58-5.75-2.18-8.35-2.55-8.92v23.09c0,.7,0,1-.54,1.08l-3.74.32c-.66.06-.66-.32-.66-.95V180.85a47.14,47.14,0,0,1-9.12,11.83l-.13-.12a102.9,102.9,0,0,0,8.51-25h-7.07l-.2-.7h8V159.6a53.57,53.57,0,0,1-7.89.63l0-.25a70.27,70.27,0,0,0,13.07-8.1l-2.3.19c-.53.06-.57-.13-.57-.76v-5.69H195.28l-.2-.76h10.65v-7.72a48.43,48.43,0,0,1,5.71.76c.21.06.62.12.62.57s-.25.63-1.23.76v5.63h5.88v-7.72c2.71.31,5.09.69,5.75.82.37.06.62.19.62.57s-.25.63-1.23.76v5.57h3.86l2.3-5c.25-.51.37-.76.5-.76s4.89,5.38,4.89,6.07c0,.45-.29.45-.53.45h-11v5.18c0,.57,0,.89-.5.95l-4.07.32c-.49.06-.57-.13-.57-.76v-5.69h-5.88v5.69c1,1.14,4.72,5.25,4.72,5.82a.35.35,0,0,1-.37.38c-.16,0-.32-.06-.78-.32a31.83,31.83,0,0,1-6,1.58ZM222.05,181c0,.57,0,.89-.49,1l-3.95.38c-.53.06-.57-.13-.57-.82V155.23a47.14,47.14,0,0,1,5.63.76c.2.06.62.13.62.57s-.21.63-1.24.76Zm8.8,7.4c0,3.48,0,7.22-5.67,7.22-1.24,0-1.24-.32-1.28-2.47-.08-3.1-.37-4.18-4.36-6.77l0-.19a46.21,46.21,0,0,0,5,.51c1,0,1.19-.19,1.19-2.47V150.61c1,.13,5,.63,5.64.76.45.07.61.25.61.57,0,.57-.74.76-1.15.89Z"/><path d="M258.24,159.47a9.06,9.06,0,0,1,4.61,5.25V153.59a23.68,23.68,0,0,1,5.3,2h1V142.14h-8.26l-.21-.76h19.2l2.1-4c.37-.69.41-.76.49-.76a47.11,47.11,0,0,1,4.49,5.13c0,.38-.33.38-.54.38h-8v13.47h1.2l1.27-3.1c.25-.63.37-.95.62-.95s4.64,4.62,4.64,5.32c0,.5-.36.94-1.43,1.89v35c0,.69,0,1.07-.58,1.14l-3.54.38c-.49.06-.74.06-.74-.95v-3.8H267.7V194c0,.89,0,1.27-.74,1.33l-3.37.38c-.62.06-.74-.25-.74-1.14V171.24a2.52,2.52,0,0,1-2.22,1.89c-1.28,0-1.28-.88-1.32-3.22,0-1.77-.12-7-1.07-9.49v34c0,.57,0,.89-.49,1l-3.78.32c-.46.06-.54,0-.54-.76V173.7a32.73,32.73,0,0,1-5.43,8.92l-.08-.12c1.23-3.61,4.15-13.73,5.18-29.8h-4.48l-.21-.76h5V137.07c1.81.19,4.65.57,5.39.76.2.07.66.19.66.64s-.33.63-1.24.76v12.71l1.94-4.11c.37-.76.41-.89.49-.89a38.59,38.59,0,0,1,3.49,5.25c0,.51-.28.51-.53.51h-5.39Zm21.63,18.79h-2.26c-2.71,0-3.16-1.52-3.16-4.62V156.31h-1.32v5.94c0,7.28-1.52,13.86-5.43,19.42v8.17h12.17Zm-12.17,2.85c1.32-5.57,1.44-14,1.44-17.72v-7.08H267.7Zm5.43-39v13.47h1.32V142.14Zm6.74,14.17h-1.44v13.15c0,1.52.09,1.52,1.44,1.52Z"/><path d="M40.88,235.36l.35-.77c.11-.22.15-.33.23-.33a5.21,5.21,0,0,1,1.28,1.55c0,.21-.18.32-.49.53V247c0,.88,0,1.89-1.54,1.89-.22,0-.22-.11-.24-.53a1.84,1.84,0,0,0-1.11-1.76v-.06c.19,0,1.11.11,1.3.11s.32-.11.32-.59V235.55H35.12v12.92c0,.13,0,.42-.15.43l-.88.08c-.2,0-.26,0-.26-.37V234.82c.26.09,1.2.46,1.39.54Zm-5.57,4-.05-.19h2.83a33.38,33.38,0,0,0,.51-3.4l1.45.48c.05,0,.17.07.17.18s0,.13-.34.27a11.71,11.71,0,0,1-1.58,2.47h1.06l.48-1.12c0-.07.08-.2.12-.2a6.64,6.64,0,0,1,.83,1.4c0,.11-.07.11-.13.11H38.6V245h.6v-4.53l1.27.16s.21,0,.21.16-.23.23-.28.26v4.42c0,.3,0,.4-.16.41l-.77.1c-.27,0-.27,0-.27-.34v-.44H36.8v1.21c0,.35,0,.47-.16.48l-.79.1c-.2,0-.24,0-.24-.31v-6.21c.2,0,1.12.12,1.3.15s.18,0,.18.14-.11.18-.29.26v4h.62v-5.55ZM36,236a2.2,2.2,0,0,1,1.79,2c0,.36-.11,1.11-.71,1.11a.39.39,0,0,1-.44-.43,6.52,6.52,0,0,0-.65-2.61Z"/><path d="M54.63,235.42l.4-.78c.06-.1.1-.16.16-.16a5.84,5.84,0,0,1,1.24,1.7c0,.32-.35.43-.48.48a16.58,16.58,0,0,1-1.66,3.61,5.45,5.45,0,0,1,1,1.12,6.39,6.39,0,0,1,1,3.43c0,.58-.11,2.29-1.54,2.29-.24,0-.24-.08-.24-.45,0-1.18-.4-1.46-.74-1.68v3.46c0,.32,0,.43-.24.46l-.71.1c-.27,0-.33.05-.33-.39v-7.49c0,.07,0,.1-.12.1H46.74l-.05-.18h2.89a39,39,0,0,0,.53-4.06H47l-.05-.2h1.91v-2.72c.41.07,1.25.18,1.47.23a.13.13,0,0,1,.13.14c0,.15-.15.19-.31.24v2.11h.5l.47-1.12c.06-.16.07-.19.12-.19a6.24,6.24,0,0,1,1,1.41c0,.1-.07.1-.13.1H50.5c.22.08,1,.46,1.15.56s.15.09.15.16,0,.11-.37.24a28.61,28.61,0,0,1-1.56,3.1h.77l.54-1.36c.06-.13.08-.19.14-.19a7.61,7.61,0,0,1,1.16,1.62V234.9a10.1,10.1,0,0,1,1.41.52ZM50.38,243l.4-.83c.1-.21.11-.24.16-.24a5.94,5.94,0,0,1,1.21,1.54c0,.19-.15.3-.45.53v3.85c0,.28,0,.45-.24.48l-.74.08c-.26,0-.26,0-.26-.33v-1h-1.8v1.14c0,.28,0,.41-.28.44l-.67.1c-.3,0-.32-.07-.32-.34v-5.94a14,14,0,0,1,1.4.53Zm-2.78-5.84a3,3,0,0,1,1.64,2.53c0,1.17-.64,1.17-.8,1.17-.39,0-.41-.23-.42-.59a10.9,10.9,0,0,0-.43-3.08Zm1.06,6v3.71h1.8v-3.71Zm5.1-7.52v9.2a2.29,2.29,0,0,0,.6.08c.3,0,.67,0,.67-1.2a8.84,8.84,0,0,0-.87-3.43,43.49,43.49,0,0,0,.52-4.65Z"/><path d="M62.69,245.59c.21.3.67.85,1,.85,1.34,0,1.77-4.41,1.77-6,0-.4,0-1.42-.58-1.42-.17,0-.41.17-.95.56a67.46,67.46,0,0,1-2.17,8.24c-.2.38-.4.58-.66.58s-.54-.66-.54-1.73c0-.26,0-.29.23-.55a11.38,11.38,0,0,0,1-2.25c.39-1.2.55-1.83.95-3.43a2.82,2.82,0,0,1-1.18.51c-.42,0-.77-.53-.77-1.15a4,4,0,0,1,.49-1.59c0,.68.05,1,.46,1a4.8,4.8,0,0,0,1.36-.29,27.93,27.93,0,0,0,.59-3.28c0-.39-.2-.47-.29-.47a.21.21,0,0,0-.12,0c0-.81.56-.86.78-.86a1,1,0,0,1,.94,1,3.94,3.94,0,0,1-.23.95c-.11.43-.27,1.07-.55,2.25a3,3,0,0,1,.66-.12c.25,0,1.72.14,1.72,3.39,0,2.16-.79,6.64-2.51,6.64a1,1,0,0,1-1-.91,6.61,6.61,0,0,0-.4-1.89Zm4.79-10a1.3,1.3,0,0,1,1.27,1.31c0,.31-.12.72-.44.72s-.21,0-.72-.92c-.06-.08-.44-.76-1-.88A1.9,1.9,0,0,1,67.48,235.55Zm.12,2.53c1.37,0,2,1.52,2,2.9,0,1.65-.73,1.84-.89,1.84-.5,0-.5-.77-.5-1,0-2.18-.12-3.44-1.41-3.63A3.07,3.07,0,0,1,67.6,238.08Zm.71-4c.68,0,1.37.35,1.37,1.12,0,.22-.12.75-.39.75s-.19-.1-.42-.48a3.9,3.9,0,0,0-1.27-1.26A2.08,2.08,0,0,1,68.31,234.05Z"/><path d="M75.87,245.52c.21.31.67.85,1,.85,1.33,0,1.77-4.4,1.77-6,0-.4,0-1.43-.58-1.43-.17,0-.42.18-1,.56A66.43,66.43,0,0,1,75,247.76c-.2.39-.4.58-.66.58s-.54-.66-.54-1.73c0-.25,0-.29.23-.54a11.94,11.94,0,0,0,1-2.26c.39-1.2.55-1.82.94-3.42a2.72,2.72,0,0,1-1.17.51c-.42,0-.77-.53-.77-1.15a3.92,3.92,0,0,1,.49-1.59c0,.67,0,1,.45,1a4.48,4.48,0,0,0,1.37-.29,27.57,27.57,0,0,0,.59-3.28c0-.38-.2-.46-.29-.46a.26.26,0,0,0-.13,0c0-.82.57-.86.78-.86a1,1,0,0,1,1,1,3.82,3.82,0,0,1-.23.94c-.11.43-.27,1.07-.55,2.26a2.83,2.83,0,0,1,.66-.13c.25,0,1.71.15,1.71,3.39,0,2.17-.79,6.65-2.5,6.65a1,1,0,0,1-1-.92,7.3,7.3,0,0,0-.4-1.88Zm4.9-7.5c1.38,0,2,1.52,2,2.89,0,1.65-.73,1.85-.88,1.85-.5,0-.5-.77-.5-1,0-2.18-.13-3.45-1.42-3.64A3.25,3.25,0,0,1,80.77,238Z"/><path d="M90.87,247.24A6.91,6.91,0,0,0,94,244.61a5.34,5.34,0,0,0,.73-2.91c0-.48-.09-3.48-1.88-3.48-1.06,0-2.92,1.62-3.91,2.74-.46.53-.69.79-1.14.79-.64,0-1.12-.71-1.12-1.86a3.5,3.5,0,0,1,.12-.94.83.83,0,0,0,.7.67c.24,0,.25,0,2-1.14s2.73-1.54,3.6-1.54c1.42,0,3.11,1.77,3.11,5.05s-1.62,4.17-2.08,4.43a7.65,7.65,0,0,1-3.25.86Z"/><path d="M101.22,237a15.39,15.39,0,0,0,1.49-.43c1.24-.35,2.47-.64,3.72-.88a1.39,1.39,0,0,0,.78-.39c.06,0,.1-.08.16-.08s1.42.53,1.42,1.46c0,.3-.14.72-.47.72a1.89,1.89,0,0,1-.6-.16,3.43,3.43,0,0,0-1-.16,2,2,0,0,0-1.85,1.52,14.82,14.82,0,0,0-.61,4.51c0,2.81.86,3.11,2,3.53.4.14.76.28.76,1.16,0,.2,0,1-.58,1a3.4,3.4,0,0,1-1.35-.43c-1.19-.67-1.77-1.84-1.77-4.48,0-2.83.79-5.49,2-6.64a8.73,8.73,0,0,0-3.09,1.33c-.45.3-.53.33-.7.33-.67,0-1.11-.91-1.11-1.84a2.39,2.39,0,0,1,.15-.93C100.62,236.51,100.74,237,101.22,237Z"/><path d="M115.85,247.36c0,.57,0,1.56-1.37,1.56-.29,0-.32-.08-.32-.36,0-1.15-.19-1.34-1-1.79v-.05c.29,0,1.16.1,1.25.1s.2-.06.2-.43v-3.3a17.55,17.55,0,0,1-1.34,2.72c-.12-.43-.17-.61-.55-2.17l1.89-1.14v-4.64H112.8l0-.2h1.91v-3.48a12.09,12.09,0,0,1,1.37.2s.09.05.09.12-.12.17-.27.22v2.94h.81l.32-.7a.42.42,0,0,1-.27-.38,10.28,10.28,0,0,0-.51-2.1l0,0c.39.11,1.54.45,1.54,1.59a1.17,1.17,0,0,1-.19.67,6.94,6.94,0,0,1,.58,1.05c0,.12-.07.12-.14.12h-2.16v3.89l.2.12c.22-.89.36-2,.57-3.4.73.49,1.09.73,1.26.87a.24.24,0,0,1,.09.17c0,.11-.06.12-.24.12a20.75,20.75,0,0,1-1.62,2.29,3.31,3.31,0,0,1,1.68,2.52c0,.62-.32,1.18-.78,1.18s-.36-.18-.41-.67a10,10,0,0,0-.75-3.14ZM113,238.42c1.2,1.12,1.53,1.87,1.53,2.72,0,.22,0,1.12-.71,1.12-.3,0-.34-.13-.38-.69a19.53,19.53,0,0,0-.46-3.14Zm9.72,8.38a1.64,1.64,0,0,0-.76,1.17c-.13.69-.15.79-.29.79s-1.14-.74-2.1-2.79a7.9,7.9,0,0,1-3.7,3V249a12.42,12.42,0,0,0,3.25-4.27,15.81,15.81,0,0,1-.51-4.69,18.58,18.58,0,0,1-1.19,2.54v0a52.23,52.23,0,0,0,1.23-8.37l1.57.48a.12.12,0,0,1,.1.11c0,.11-.16.16-.33.21-.29,1.36-.45,2-.75,3.1h1.38l.56-1.18c.06-.13.09-.18.13-.18a6.13,6.13,0,0,1,1.09,1.43c0,.12-.07.12-.13.12H121c.2.1.62.31.85.44,0,0,.08.06.08.11s-.3.18-.38.18a18.65,18.65,0,0,1-1.26,5.69,7.47,7.47,0,0,0,2.42,2.1Zm-3.55-8.58c-.12.42-.24.84-.45,1.43a13,13,0,0,0,.86,3.7,27.21,27.21,0,0,0,.81-5.13Z"/><path d="M131,237c.24.22.33.28.68.56a.57.57,0,0,1,.27.56c0,.8-.44,1.16-1.64,1.74,0,.71,0,1.92,0,3,1.13-1.12,1.75-1.5,2.48-1.5,1.28,0,2.38,1.36,2.38,3.44,0,2.5-1.53,3.33-2.53,3.33s-1.35-1-1.35-1.94a9.2,9.2,0,0,1,.37-2.45h0c0,.64,0,1.16,0,1.2,0,.71.06,1.38.75,1.38,1.12,0,1.47-1.34,1.47-2.16s-.4-2.19-1.4-2.19c-.57,0-1.06.28-2.16,1.71,0,1.38.07,2.22.09,2.75,0,.18.06.95.06,1.11,0,.88-.47,1.15-.75,1.15s-.44-.21-.67-1.09a2.91,2.91,0,0,0-.57-1.14c-.29.47-.73,1.22-.85,1.38a.52.52,0,0,1-.41.27c-.36,0-.75-.62-.75-1.47a1.93,1.93,0,0,1,.87-1.71,1.29,1.29,0,0,0-.07.4c0,.3.07.38.19.38s.44-.27.52-.33c.23-.24,1.24-1.38,1.45-1.6,0-.58,0-3.24,0-3.56a2.82,2.82,0,0,1-1.06.24c-1,0-1.09-.89-1.09-1.63,0-.42,0-.87.08-1.17.14.83.27,1.07.83,1.07a5.29,5.29,0,0,0,1.29-.25c0-1.19,0-1.86,0-2.53s-.06-.9-.29-.9l-.18,0c.07-.25.21-.78.71-.78s.93,1,.93,1.39a9.61,9.61,0,0,1-.23,1,7.86,7.86,0,0,0-.17,1.47c.7-.36.7-.57.7-.73A.83.83,0,0,0,131,237Zm-2.33,9.15a3,3,0,0,0,.56.26c.23,0,.23-.15.23-1.49Zm5.49-8.74c.29,0,1.43.43,1.43,2.4,0,1.27-.68,1.27-.76,1.27-.27,0-.29-.15-.43-1.09-.17-1.15-.33-1.71-.7-1.71-.2,0-.38.14-.72.45C133.19,238.22,133.53,237.39,134.17,237.39Z"/><path d="M141.06,248.85c2.17-1.33,2.32-3.69,2.32-6.09a16.78,16.78,0,0,0-.18-2.79c-.06-.27-.15-.38-.32-.38-.33,0-.74.68-1.08,1.36-.63,1.23-.71,1.37-1.05,1.37s-1-.08-1-1.2a4.76,4.76,0,0,1,.77-2.46,4.74,4.74,0,0,0-.17,1.07c0,.5.16.51.24.51s.31-.09.92-.54c.93-.69,1.09-.8,1.48-.8,1.19,0,1.68,1.61,1.68,4.33,0,2.09-.19,5-3.63,5.67Zm.58-11.84c.11-.13.63-.67.73-.79a.78.78,0,0,0,.29-.56c0-.22-.12-.36-.52-.64a1,1,0,0,1-.5-.91,2,2,0,0,0,.86.26,1.82,1.82,0,0,1,1.67,1.82c0,.55-.21,1.32-.67,1.32-.08,0-.12,0-.47-.37a.91.91,0,0,0-.67-.28,1.63,1.63,0,0,0-.72.21Z"/><path d="M151.27,234.34a1.34,1.34,0,0,1,1.19,1.44c0,.12-.09,1-.11,1.21,0,.44-.1,1.25-.1,2s0,1.43.53,1.43c.66,0,1.28-1.06,1.45-1.71.08-.31.11-.47.34-.47.49,0,1.11,1,1.11,1.51s-.13.73-1.47,1.29a8.73,8.73,0,0,0-2.57,1.25,3.6,3.6,0,0,0-1.27,2.61,1.46,1.46,0,0,0,1.68,1.54A5.09,5.09,0,0,0,154,246a5.63,5.63,0,0,1,.59-.24,1.75,1.75,0,0,1,1.19,1.34.76.76,0,0,1-.48.82,6.62,6.62,0,0,1-2.37.24c-1.8,0-2.25-.25-2.61-.58a2.76,2.76,0,0,1-.77-2,5.29,5.29,0,0,1,2.14-4.1c-.31-.19-.58-.35-.58-1.71,0-.34,0-1.78,0-2.09,0-1.37,0-2.51-.58-2.51a.56.56,0,0,0-.34.15A1.12,1.12,0,0,1,151.27,234.34Z"/><path d="M167.38,241.27c-.31,4.59-1.61,7-4.1,7-1.92,0-2.16-1.9-2.16-4.95,0-1.08.19-5.8.19-6.77,0-.51,0-.86-.78-.84.18-.4.43-.93,1.13-.93a1.11,1.11,0,0,1,1.1,1c0,.23-.22,1.19-.25,1.38-.14,1.2-.32,4.61-.32,7,0,1.13,0,2.16,1.19,2.16,1.92,0,3.15-2.07,4-5.09Z"/><path d="M175,236.56c.08.16.12.16.47.19s.5.21.5.71c0,.75-.55,1.15-1.72,1.79-.17,1.82-.22,2.22-.3,2.74.16-.29.87-1.6,1-1.84,1.27-2.07,2.21-2.26,2.82-2.26a1.81,1.81,0,0,1,1.93,1.79c0,.47-.22.91-.54.91a.31.31,0,0,1-.2-.06c-.41-.22-.52-.29-.7-.29-.39,0-.67.21-1.35.74v-.07a2.41,2.41,0,0,0,.66-1.21c0-.16-.09-.63-.76-.63-.83,0-2.11.88-3.11,4.77a24.85,24.85,0,0,0-.73,3.75c-.11.88-.62.93-.79.93-.45,0-.58-1.19-.58-1.57a2.28,2.28,0,0,1,.31-1.07,28.08,28.08,0,0,0,1.26-6.07,1.8,1.8,0,0,1-.74.19c-1.1,0-1.18-1.76-1.18-2.1a.89.89,0,0,0,.76.49,4.45,4.45,0,0,0,1.35-.5c.06-.58.16-1.65.16-2.18,0-.38,0-.78-.5-.89a.94.94,0,0,1,.81-.68c.48,0,.85.69.85,1.11,0,.17-.14,1-.17,1.15,0,.4-.05.46-.09.86.39-.27.45-.35.51-.7Zm.64,8.4c0,.71.27,1.4,1.13,1.4a6.46,6.46,0,0,0,1.35-.21c.05,0,.68-.19.73-.19.4,0,.65.67.65,1.21,0,.92-.76,1.14-1.83,1.14-1.24,0-2.36-.14-2.36-2.37a7.78,7.78,0,0,1,.59-2.85A8.7,8.7,0,0,0,175.68,245Z"/><path d="M184.19,244.66a3.39,3.39,0,0,1,2.28.85,2.34,2.34,0,0,1,.65,1.66c0,.74-.3,1.25-.76,1.25s-.72-.66-.76-.85a4.65,4.65,0,0,0-1.49-2.78Z"/><path d="M192.49,248.55c1.1-.51,4.51-2.08,5.72-8.52a16,16,0,0,0-4,1.27,2.6,2.6,0,0,1-.54.3,2.39,2.39,0,0,1-1.28-1.82,2.7,2.7,0,0,1,.28-1c.28,1,.72,1,1,1s4-.28,4.57-.72c.09-.06.44-.6.53-.6S200,239.52,200,240c0,.27-.18.43-.52.75-.64,2.61-2.13,7.28-7,7.83ZM195,235.7a3.71,3.71,0,0,0,2.6-.88c.26.08,1.21.54,1.21,1.08,0,.26-.16.69-.31.74s-3.21.45-3.47.45c-1,0-1.21-.83-1.49-1.92A1.72,1.72,0,0,0,195,235.7Z"/><path d="M206.64,244.15c0,1.25-.39,2.78-1.43,2.78-.6,0-.68-.8-.68-1,0-.5.18-.67.61-1.07a4.8,4.8,0,0,0,1.28-2.82A9.54,9.54,0,0,1,206.64,244.15Zm.32,1.31a4,4,0,0,0,.95.24c.24,0,.3-.21.33-.8s.09-3.23.09-5a7.62,7.62,0,0,0-2,.64,5.59,5.59,0,0,1-.57.22c-.42,0-1.07-.92-1.07-1.79a1.62,1.62,0,0,1,.17-.78,1.41,1.41,0,0,0,1.31.93,19,19,0,0,0,2.18-.28,16,16,0,0,0-.17-2.78.7.7,0,0,0-.73-.39c.21-.41.51-1,.94-1s1.16.56,1.16,1c0,.12-.17.62-.19.73s-.05,1.78-.05,2.24c1.2-.25,1.69-.4,2-1a3.22,3.22,0,0,1,1.42.75.77.77,0,0,1,.25.58c0,.19-.08.72-.43.72l-.7-.13a5.35,5.35,0,0,0-.89-.13,10.45,10.45,0,0,0-1.6.21c0,2.85,0,3.65.07,4.93,0,.24.07,1.31.07,1.54,0,1-.46,2.24-1,2.24-.26,0-.29-.19-.41-.85a3.19,3.19,0,0,0-1-2Zm6.13-.08c0,1.38-.73,1.41-.81,1.41-.46,0-.54-.56-.61-1.09a11.33,11.33,0,0,0-1.39-4.07C211,242.08,213.09,243.35,213.09,245.38Zm-.72-8.85c0,.48-.19.77-.43.77s-.25-.1-.53-.92a4.8,4.8,0,0,0-.86-1.68A1.89,1.89,0,0,1,212.37,236.53Zm1.26-1.15c0,.36-.13.73-.4.73s-.21-.06-.48-.67a6.14,6.14,0,0,0-1-1.51C212.4,233.92,213.63,234.24,213.63,235.38Z"/><path d="M221.75,248.09c.95-.42,3.38-1.48,3.38-6.46,0-2.3-.67-5.69-3-5.68a4.25,4.25,0,0,1,.51,1.87c0,1.62-1.14,9.26-3.31,9.26-.71,0-.82-.68-.95-1.48a5.7,5.7,0,0,0-.49-1.66,4.09,4.09,0,0,1-.41-1.84c0-3.78,2.48-6.72,4.93-6.72,2.2,0,4.16,2.33,4.16,6.65,0,2.87-1,4.61-2.06,5.27a5.89,5.89,0,0,1-2.71.85Zm-3.34-4.92a3.61,3.61,0,0,0,.16,1.3c.13.35.39.7.6.7.82,0,2.77-5,2.8-9.19C218.79,236.66,218.41,241.92,218.41,243.17Z"/><path d="M230.87,248.53c2.93-2.14,4.66-4.67,5.42-10.56a22.17,22.17,0,0,0-3.69,1c-.1.05-.55.45-.65.45-.3,0-1-1.27-1-2a1.58,1.58,0,0,1,.26-.85c.44.83.83.83,1,.83a20.56,20.56,0,0,0,3.94-.56c.1-.06.16-.13.39-.42.1-.11.15-.12.2-.12.26,0,.92.78,1.25,1.24a1,1,0,0,1,.22.58c0,.39-.45.79-.51.85-.77,3.44-1.8,8-6.79,9.57Zm7.4-12.48c0,.41-.16.77-.43.77s-.28-.1-.5-.88a5.67,5.67,0,0,0-.82-1.78C238,234.53,238.27,235.47,238.27,236.05Zm1.21-.67c0,.49-.21.73-.4.73s-.2-.06-.41-.67a5.79,5.79,0,0,0-1.07-1.79C239,233.81,239.48,234.58,239.48,235.38Z"/><path d="M251.51,236.7c-1.86,6.42-3.79,8.07-6,10a2.1,2.1,0,0,0-.42.48c-.12.17-.24.35-.39.35-.38,0-1.14-1.62-1.14-2,0-.18.19-.91.21-1.07.1-.64.1-3.94.1-4.8,0-2.55-.08-2.87-.8-2.84.54-.81.77-.94,1-.94.51,0,1.25,1.1,1.25,1.37s-.19.79-.21.92c-.1.62-.15,5.95-.15,6.27,2-.81,4.82-4.4,6.53-7.76Z"/><path d="M256.77,240.9c.44,0,5.25-.18,5.66-.21.12,0,.67-.1.78-.1s1.26.2,1.26.87a.87.87,0,0,1-.49.73,2.55,2.55,0,0,1-1.19.18c-4.76,0-5.29,0-5.72.16a5.77,5.77,0,0,1-.77.35,2.36,2.36,0,0,1-1.2-2.11,1.41,1.41,0,0,1,.31-.9A1.21,1.21,0,0,0,256.77,240.9Z"/><path d="M277.14,237.22a17.29,17.29,0,0,1-6.52,10,1.57,1.57,0,0,0-.48.48c0,.05-.14.17-.24.17-.35,0-1.37-1.58-1.37-2.59a1.61,1.61,0,0,1,.34-1c.12.45.24.95.63.95.71,0,4.41-1.81,7.59-8Zm-6.27-.76a2.11,2.11,0,0,1,.94,1.78c0,.77-.4,1.33-.78,1.33s-.4-.21-.72-1a7.47,7.47,0,0,0-1.6-2.48A3.89,3.89,0,0,1,270.87,236.46Z"/><path d="M283.63,237.41l.47-.8c.08-.13.16-.27.22-.27a5.74,5.74,0,0,1,1,1.55c0,.17-.3.33-.43.4v2.37a27.63,27.63,0,0,0,1.17-6.6c.23.08.44.15,1.26.47.16.06.55.21.55.32s-.15.16-.36.21a15.2,15.2,0,0,1-.65,2.2h1.6l.4-.73c.1-.21.16-.32.23-.32a6.92,6.92,0,0,1,1.18,1.58c0,.18,0,.19-.4.39a60.7,60.7,0,0,1-.37,7.7c-.24,1.93-.63,3-2.16,3-.26,0-.26-.11-.26-.65a1.89,1.89,0,0,0-1.11-1.8v0c.46.07,1.15.16,1.36.16.58,0,.8-.6.94-1.53a56.28,56.28,0,0,0,.29-7.57h-1.77a16.26,16.26,0,0,1-1.9,3.57v5.21c0,.37,0,.48-.28.52l-.75.09c-.21,0-.23,0-.23-.29v-1.18h-1.33v1.73c0,.25,0,.41-.26.45l-.76.08c-.23,0-.26,0-.26-.32V236.93c.52.17.8.27,1.2.43.14-1.28.21-1.9.25-3.3.26,0,1.29.34,1.62.42.17.05.25.08.25.19s-.26.16-.37.18a12.84,12.84,0,0,1-1.4,2.56Zm-1.29.19v3.59h1.33V237.6Zm1.33,3.78h-1.33v3.82h1.33Zm2.11-1.44a3.11,3.11,0,0,1,2,2.72c0,.91-.54,1.36-.88,1.36s-.35-.27-.43-.9a13.29,13.29,0,0,0-.73-3.13Z"/><path d="M302,236.61l.53-1.33c0-.08.1-.19.14-.19a11.14,11.14,0,0,1,1.16,1.58c0,.08,0,.11-.13.11h-5.39a20.77,20.77,0,0,1-.89,3c.05,0,.17.05.17.18s-.14.19-.31.24v8.18c0,.27,0,.38-.18.39l-.85.1c-.24,0-.25,0-.25-.35v-6.08a7.59,7.59,0,0,1-2,1.95v0a16.23,16.23,0,0,0,2-4V239.3a2,2,0,0,1,.32.11,20.75,20.75,0,0,0,.6-2.63H294.3l-.05-.17H297c.14-.87.21-1.46.29-2.52,1.7.5,1.82.57,1.82.68s-.23.19-.43.21c-.12.8-.2,1.16-.29,1.63Zm0,6.42.62-1.27c.06-.14.09-.17.12-.17a9.62,9.62,0,0,1,1.09,1.52c0,.11,0,.11-.1.11h-2.38v3.94c0,.8,0,1.77-1.45,1.77-.31,0-.32,0-.32-.64,0-1-.07-1.13-.95-1.61v-.05c.3,0,.77.05,1.08.05s.35-.13.35-.64v-2.82h-2.55l-.06-.19h2.61v-2c.12,0,.73.08.9.1a11.6,11.6,0,0,0,.56-2.34h-3.21l-.06-.17h3.21l.42-.85c.07-.15.11-.21.16-.21a6.22,6.22,0,0,1,1.39,2c0,.18-.07.2-.7.31a12.07,12.07,0,0,1-1.46,1.34c.22,0,.37.07.37.16s-.13.15-.29.19V243Z"/><path d="M315.38,237.2l.61-1.36c.05-.13.08-.18.12-.18a6.79,6.79,0,0,1,1.23,1.62c0,.11-.06.11-.12.11h-5.35a27.5,27.5,0,0,1-1.06,2.92c.14.06.2.09.2.17s-.06.18-.3.26v7.74c0,.24,0,.39-.15.41l-.93.09c-.18,0-.2,0-.2-.22v-5.92a12.32,12.32,0,0,1-1.9,2.35l0,0a28.78,28.78,0,0,0,1.93-4.37v-1l.29.09c.35-1.09.48-1.5.74-2.53h-2.6l-.05-.19h2.69a28.92,28.92,0,0,0,.62-3.09c.7.24,1.08.37,1.58.56a.21.21,0,0,1,.14.18c0,.16-.26.17-.32.17-.24,1-.37,1.43-.6,2.18Zm-.37,4.91.56-1.2c.08-.16.09-.17.13-.17a6.37,6.37,0,0,1,1.16,1.44c0,.11-.06.11-.12.11h-2.38V248h1.09l.56-1.33c.05-.12.07-.17.12-.17a7.54,7.54,0,0,1,1.24,1.57c0,.13-.06.13-.12.13H310.9l0-.2h2.2v-5.68h-2l-.06-.18h2.05v-3.85c.25,0,1.26.14,1.45.19s.16.08.16.14-.21.23-.3.24v3.28Z"/><path d="M324.8,246c0,1.33-.7,2.43-1.59,2.43s-1.58-1.1-1.58-2.43.72-2.44,1.58-2.44S324.8,244.63,324.8,246Zm-2.75,0c0,1,.52,1.79,1.16,1.79s1.17-.82,1.17-1.79-.52-1.79-1.17-1.79S322.05,245,322.05,246Z"/><path d="M39.05,260.82c-.42,1-2.25,5.67-2.25,8.28a10.72,10.72,0,0,0,.13,1.5,6.64,6.64,0,0,1,.1,1c0,1-.56,1.33-.93,1.33-.88,0-1-1.09-1-1.43,0-1.14.43-2.61,1.81-6,.19-.45,1.2-2.72,1.24-2.82H33.75L33.43,265h-.17l.57-4.13Z"/><path d="M48.9,260.28l.37-.8c.11-.21.16-.35.22-.35a3.53,3.53,0,0,1,.6.64c.57.65.68.78.68.89s-.16.29-.44.52v11a1.51,1.51,0,0,1-.45,1.28,1.89,1.89,0,0,1-1.2.42c-.26,0-.31-.1-.31-.48,0-.85,0-1.34-1-1.86v0a11,11,0,0,0,1.21.11c.41,0,.44-.05.44-.69v-3.55H45.77c-.09,2.21-.55,5-3.12,6.43l0-.05c.89-1.25,1.82-2.78,1.82-6.94v-7.17a13.48,13.48,0,0,1,1.43.62Zm-3.11.18v3.2H49v-3.2Zm0,3.39v3.34H49v-3.34Z"/><path d="M61.16,268.78l-.26,3.82H55.52v-1.5a11.31,11.31,0,0,0,3.92-7.81c0-1.2-.26-2.45-1.48-2.45s-1.81,1.5-1.81,1.94c0,.11,0,.25.14.25a3,3,0,0,0,.45-.27.71.71,0,0,1,.2-.05c.36,0,.67.48.67,1.14s-.37,1.38-.91,1.38-1-.76-1-1.57c0-1,.54-3.09,2.53-3.09a2.8,2.8,0,0,1,2.81,3.06c0,1.92-.84,3.79-4.93,7.13h4.73l.14-2Z"/><path d="M65.44,263.67c0-1.92,1.06-3.1,2.62-3.1,1.24,0,2.61.86,2.61,3,0,1.2-.53,2.59-1.85,2.75,1.29.23,2.05,1.28,2.05,3.16,0,2.49-1.55,3.32-2.81,3.32s-2.82-.73-2.82-3.37,1.72-3,2.05-3.11C65.94,266.19,65.44,264.75,65.44,263.67Zm2.62,8.93c.5,0,1.23-.14,1.23-3.21,0-.84-.09-3-1.23-3s-1.24,2-1.24,3C66.82,272.4,67.52,272.6,68.06,272.6Zm0-6.41c.34,0,1.09,0,1.09-2.72,0-1.27-.19-2.66-1.11-2.66s-1.12,1.29-1.12,2.82C66.94,266.19,67.72,266.19,68.08,266.19Z"/><path d="M81.07,260.57l.34-.71c.13-.27.16-.36.24-.36a5.8,5.8,0,0,1,1.21,1.55c0,.24-.22.35-.4.43V273c0,.25,0,.44-.22.46l-.9.08c-.2,0-.21-.07-.21-.35V272H77.32v1.17c0,.38,0,.43-.26.46l-.76.1c-.22,0-.32-.08-.32-.41V260a8.6,8.6,0,0,1,1.52.53Zm-3.75.19v5.31h3.81v-5.31Zm0,5.51v5.55h3.81v-5.55Z"/><path d="M90.19,266.49c-.06.3-.33,1.65-.36,1.86a11.56,11.56,0,0,0-.21,2,5.13,5.13,0,0,0,.14,1.3,3.46,3.46,0,0,1,.17.89c0,.34-.28.82-.56.82-.67,0-1.18-1.91-1.18-4.58a56.25,56.25,0,0,1,.5-6.08,14.69,14.69,0,0,0,.1-1.73,4.55,4.55,0,0,0-.23-1.5,5.64,5.64,0,0,1,1.27,3.42,20.07,20.07,0,0,1-.5,3.36,12.54,12.54,0,0,0-.24,2.4c0,.44,0,.56.08.56s.21-.41.27-.6c.21-.61.51-1.57.72-2.18ZM92,269.28c0,1.53.85,1.53,1.15,1.53a6.17,6.17,0,0,0,1.84-.4,2.31,2.31,0,0,1,.75-.19c.28,0,.65.16.65.88a1.36,1.36,0,0,1-.51,1.17,3.34,3.34,0,0,1-2,.57,1.8,1.8,0,0,1-1.78-.91,3.43,3.43,0,0,1-.48-1.74,4.13,4.13,0,0,1,.44-1.8A4.21,4.21,0,0,0,92,269.28Zm1.07-7.83a2.37,2.37,0,0,0,1-.32c.82-.48.85-.5,1-.5a1,1,0,0,1,.83,1c0,1.17-1.63,1.31-2,1.31s-1.15,0-1.54-2C92.52,261.22,92.73,261.45,93.07,261.45Z"/><path d="M103.64,263.75l.45-1c0-.11.1-.26.15-.26a5,5,0,0,1,.86,1.35c0,.13-.08.13-.14.13h-1.48v1.68A3.1,3.1,0,0,1,105,268c0,.72-.3,1.2-.71,1.2s-.37-.12-.38-.52a9.5,9.5,0,0,0-.39-2.93v7.74c0,.27,0,.34-.22.36l-.77.08c-.22,0-.26,0-.26-.36v-5.52a9.55,9.55,0,0,1-1.86,2.71v-.05a28.18,28.18,0,0,0,1.72-6.8h-1.66l0-.2h1.86V261.4c-.65.06-1,.06-1.61.08v-.06a15.16,15.16,0,0,0,3-2.29c.23.22,1.29,1.26,1.47,1.45a.56.56,0,0,1,.17.32c0,.07,0,.08-.09.08a.82.82,0,0,1-.25-.06c-.56.14-.64.16-1.46.32v2.51Zm6.9,8.25a1.83,1.83,0,0,0-.94,1.5c0,.18-.11.26-.22.26-.3,0-.89-.92-1.28-2.2a21.57,21.57,0,0,1-.5-5.34c-.15,2.33-.36,6-4,7.65v-.07c2.64-2.6,2.72-5.53,2.72-10.09v-4.63c.18,0,1.63.18,1.63.37s0,.11-.34.19v4.82c0,.91,0,1.2,0,1.76a25.48,25.48,0,0,0,.9-4.31,13,13,0,0,1,1.67,1.28c0,.13-.23.13-.3.13a23.25,23.25,0,0,1-2.25,3.11,6.89,6.89,0,0,0,2.83,5.52Zm-5-9.48a9.79,9.79,0,0,1,.45,2.82c0,1.09-.32,1.87-.79,1.87s-.74-.59-.74-1.14a.73.73,0,0,1,.19-.52,5.43,5.43,0,0,0,.87-3Z"/><path d="M114.12,269.24l-.05-.19h4.21v-1.73h-1.23V268c0,.22,0,.28-.2.3l-.83.1c-.19,0-.19-.05-.19-.32v-4h-1.77l0-.19h1.82v-1.44c.51.08,1.16.18,1.45.26.07,0,.11,0,.11.09s-.11.15-.34.23v.86h1.11v-1.71c.46.05,1.12.16,1.32.21s.18,0,.18.13-.2.19-.29.22v1.15h1.17v-1.6c1,.1,1.52.16,1.52.34s-.26.19-.32.2v1.06h.32l.5-.94c0-.12.1-.2.15-.2a4.87,4.87,0,0,1,.89,1.22c0,.11,0,.11-.11.11h-1.75v2c0,.23,0,.34-.19.35l-.8.08c-.2,0-.21,0-.21-.27v-.32h-1.17v.32c0,.26,0,.37-.17.39l-.84.09c-.2,0-.2,0-.2-.35V264h-1.11v3.14h4.52l.49-1c.07-.16.11-.19.14-.19a6.11,6.11,0,0,1,.94,1.24c0,.13,0,.13-.1.13h-3.55v1.73h2.34l.55-1.12c.07-.11.1-.21.13-.21a5.24,5.24,0,0,1,1,1.41c0,.11,0,.11-.1.11h-3.91a5.47,5.47,0,0,0,3.89,2.28l0,0a2.24,2.24,0,0,0-.58,1.43c0,.43-.1.54-.22.54a4.06,4.06,0,0,1-1.42-.83,7.47,7.47,0,0,1-1.73-3.46h0v4.29c0,.24,0,.34-.22.37l-.74.1c-.24,0-.25,0-.25-.4v-3.43a8.83,8.83,0,0,1-4.15,3.41l0-.05a13.7,13.7,0,0,0,3-4.29Zm5.42-8.38v-1.77a3.61,3.61,0,0,1,1.59.39c0,.08-.12.16-.32.24v1.14h1l.52-1.09c0-.1.09-.21.14-.21a5.43,5.43,0,0,1,1,1.36c0,.1,0,.11-.11.11h-2.55v.72c0,.23,0,.37-.21.39l-.83.08c-.15,0-.23,0-.23-.36V261H118v.8c0,.19,0,.34-.21.35l-.85.1c-.15,0-.21,0-.21-.32V261h-2.52l0-.17h2.57v-1.72c.16,0,1.58.15,1.58.34s-.07.14-.31.24v1.14Zm-.17,3.13v1.62h1.17V264Z"/><path d="M133.75,267.51V272c0,.71,0,1.08-.25,1.4a2.16,2.16,0,0,1-1.24.51c-.23,0-.26-.15-.26-.34,0-1-.07-1.52-1.08-1.95v-.05c.21,0,1.11.1,1.3.1s.29-.11.29-.58v-3.62h-.89c0,.47,0,.61-.25.64l-.72.1c-.27,0-.27-.05-.27-.29v-5.79c.48.19,1.25.59,1.31.62h.24c.06-.53.15-1.45.19-2h-2.47V265c0,3.87-.41,6.93-2.41,8.87l0,0c1-2,1.14-4.66,1.14-7.67v-6.18a14.75,14.75,0,0,1,1.38.63h5.32l.58-1.27c.06-.12.1-.21.13-.21a8.42,8.42,0,0,1,1.21,1.54c0,.13-.07.13-.13.13h-3a14.87,14.87,0,0,1-1.24,2h1.91l.36-.8c.13-.29.15-.32.19-.32a6,6,0,0,1,1.29,1.57.3.3,0,0,1-.13.21c-.05.05-.31.22-.36.27v4c0,.32,0,.43-.28.46l-.77.1c-.18,0-.22,0-.22-.22v-.52Zm-5.37,5.77a15,15,0,0,0,2.51-4.66,11.63,11.63,0,0,1,1.35,1.18s0,.08-.09.08a.88.88,0,0,1-.27-.06,8.27,8.27,0,0,1-3.49,3.51Zm3.25-10.3v2.07h3V263Zm3,4.34v-2.08h-3v2.08Zm-.45,1.65c1,.23,2.64.74,2.64,2.59,0,.87-.43,1.33-.78,1.33s-.25-.14-.31-.33a9.48,9.48,0,0,0-1.56-3.56Z"/><path d="M143.69,266.49l-.37,1.86a12.48,12.48,0,0,0-.2,2,5.13,5.13,0,0,0,.14,1.3,3.46,3.46,0,0,1,.17.89c0,.34-.28.82-.56.82-.67,0-1.18-1.91-1.18-4.58a53.44,53.44,0,0,1,.5-6.08,16.3,16.3,0,0,0,.09-1.73,4.3,4.3,0,0,0-.23-1.5,5.58,5.58,0,0,1,1.27,3.42,20.59,20.59,0,0,1-.49,3.36,12.54,12.54,0,0,0-.24,2.4c0,.44,0,.56.08.56s.21-.41.27-.6c.21-.61.51-1.57.72-2.18Zm1.81,2.79c0,1.53.84,1.53,1.14,1.53a6.15,6.15,0,0,0,1.85-.4,2.31,2.31,0,0,1,.75-.19c.28,0,.65.16.65.88a1.38,1.38,0,0,1-.51,1.17,3.34,3.34,0,0,1-2,.57,1.81,1.81,0,0,1-1.78-.91,3.42,3.42,0,0,1-.47-1.74,4.21,4.21,0,0,1,.43-1.8A5.1,5.1,0,0,0,145.5,269.28Zm1.07-7.83a2.43,2.43,0,0,0,1-.32c.82-.48.85-.5,1-.5a1,1,0,0,1,.83,1c0,1.17-1.63,1.31-2,1.31s-1.15,0-1.54-2C146,261.22,146.23,261.45,146.57,261.45Z"/><path d="M155,262a15.56,15.56,0,0,0,1.5-.43c1.24-.35,2.47-.64,3.72-.88a1.39,1.39,0,0,0,.78-.39c.06,0,.1-.08.15-.08s1.43.53,1.43,1.46c0,.3-.15.72-.47.72a1.83,1.83,0,0,1-.6-.16,3.43,3.43,0,0,0-1-.16,2,2,0,0,0-1.85,1.52,14.47,14.47,0,0,0-.62,4.51c0,2.81.87,3.11,2,3.53.4.14.76.28.76,1.16,0,.2,0,1-.58,1a3.42,3.42,0,0,1-1.36-.43c-1.18-.67-1.77-1.84-1.77-4.48,0-2.83.8-5.49,2-6.64a8.73,8.73,0,0,0-3.09,1.33c-.46.3-.53.33-.71.33-.66,0-1.1-.91-1.1-1.84a2.39,2.39,0,0,1,.15-.93C154.39,261.51,154.5,262,155,262Z"/><path d="M176.56,263.9a2.23,2.23,0,0,0-.77,1.6c0,.46-.07.56-.22.56-.59,0-3.37-2.23-3.94-6.16-1.31,3-3.08,5.52-5.31,6.64v-.05a21.43,21.43,0,0,0,4-7.64c.36.13,1.3.49,1.6.63a.15.15,0,0,1,.11.16c0,.18-.21.16-.3.14a6.75,6.75,0,0,0,4.85,4.09Zm-6.95,2.38.3-.7c0-.11.08-.23.15-.23a6.85,6.85,0,0,1,.64.66c.26.3.56.64.56.82s0,.24-.39.43V272c0,.32,0,.35-.21.37l-.8.1c-.19,0-.22,0-.22-.34v-.78H169v1.32c0,.28,0,.33-.22.36l-.79.09c-.24,0-.24,0-.24-.37v-6.89a6,6,0,0,1,1.26.41Zm-.62.18v4.72h.65v-4.72Zm2.48-2.08.48-1.08c.05-.11.08-.19.12-.19a7.15,7.15,0,0,1,1.1,1.33c0,.13-.08.13-.14.13h-3.91l-.06-.19Zm2.23,1.9.26-.65c0-.13.09-.23.16-.23a8.7,8.7,0,0,1,1.14,1.11.42.42,0,0,1,.14.3c0,.21-.26.38-.39.48v3.89c0,.56,0,.85-.24,1.1a1.53,1.53,0,0,1-1,.42c-.28,0-.28-.32-.28-.54,0-.64,0-1.22-.78-1.54v3c0,.3,0,.32-.19.33l-.83.1c-.23,0-.23,0-.23-.32v-7.92a6.22,6.22,0,0,1,1.32.49Zm-1,.18v4.06s.69.1.87.1.22,0,.22-.43v-3.73Z"/><path d="M183.57,260.38a.7.7,0,0,0-.47-.76.81.81,0,0,1,.75-.56,1,1,0,0,1,.87,1,3.53,3.53,0,0,1-.27,1,2.34,2.34,0,0,0,.34-.26c.19-.17.21-.19.34-.19a.93.93,0,0,1,.93,1,.56.56,0,0,1-.21.48,11.5,11.5,0,0,1-2,1c-.07.26-.43,1.35-.51,1.57a1.41,1.41,0,0,1,.91-.43c.78,0,.9,1.5.92,2,.29-.88,1.12-2.56,2.3-2.56.87,0,1.54.85,1.54,2.09a1.44,1.44,0,0,1-1.06,1.6,17.37,17.37,0,0,0-2.79,1.3c0,.24,0,1.31,0,1.54s0,.78-.56.78-.7-.91-.65-1.55a1.83,1.83,0,0,0-.83,1.47c0,.74.53.83,1.08.83a5.81,5.81,0,0,0,1.77-.33.9.9,0,0,1,.27-.07,1.11,1.11,0,0,1,.93,1.08c0,1-1,1.18-2,1.18a3.46,3.46,0,0,1-2.36-.75,1.87,1.87,0,0,1-.38-1.27c0-.81.31-1.61,1.6-2.59a18.58,18.58,0,0,0,.2-2.42c0-.56,0-1.74-.52-1.74-.32,0-.44.32-1.17,2.14-.48,1.2-1.19,2.47-1.72,2.47-.26,0-.51-.34-.51-1a1.61,1.61,0,0,1,.63-1.39,9,9,0,0,0,1.93-3.47,1.66,1.66,0,0,1-.54.14c-.81,0-1-1.36-1.09-2.21a1.55,1.55,0,0,0,1,.64,2.9,2.9,0,0,0,1.14-.38A5.86,5.86,0,0,0,183.57,260.38Zm3.78,5.73a1.44,1.44,0,0,0,.36-.95c0-.37-.31-.94-.78-.94-.19,0-.45,0-1,.77s-.59,1.31-.83,3.13A11.85,11.85,0,0,0,187.35,266.11Z"/><path d="M199.93,263.67l.45-.72c.07-.13.15-.24.19-.24s.19.1,1,1.19c.19.24.21.27.21.38s-.18.26-.68.26a19.57,19.57,0,0,1-1.25,1.87,7.45,7.45,0,0,0,3,.8v0a2.57,2.57,0,0,0-.63,1.46c-.05.46-.07.61-.23.61a2.56,2.56,0,0,1-.86-.31,3.7,3.7,0,0,1,.61.93c0,.23-.22.34-.38.4v3.2c0,.27,0,.31-.21.32l-.83.1c-.17,0-.23-.11-.23-.31v-.54h-2.06v.35c0,.26,0,.37-.24.4l-.79.1c-.25,0-.26-.06-.26-.35v-4.71a8.05,8.05,0,0,1-1.16.42l0-.05a12.62,12.62,0,0,0,2.95-3,7.29,7.29,0,0,1-.52-1.39,9.26,9.26,0,0,1-2,2.26v0a18.11,18.11,0,0,0,1.78-4.92l.83.32a.55.55,0,0,1,0-.19V261h-1.51v1.17c0,.24,0,.32-.23.33l-.83.08c-.19,0-.22-.09-.22-.3V261h-2.68l-.05-.19h2.73v-1.64c1.42.21,1.57.23,1.57.36s-.14.16-.29.2v1.08h1.51v-1.69a8.24,8.24,0,0,1,1.43.23s.14.08.14.16-.12.13-.3.18v1.12h.91l.55-1.2c.06-.13.09-.21.12-.21a5.54,5.54,0,0,1,1.16,1.49c0,.11-.07.11-.14.11h-2.6v1.18c0,.21,0,.31-.18.32l-.86.08.43.18a.13.13,0,0,1,.09.11c0,.11-.17.14-.35.18l-.3.65Zm-6.79,1.17c.68.15,1.82.56,1.82,1.73,0,.7-.41,1.14-.76,1.14s-.27-.1-.42-.88a6.81,6.81,0,0,0-.65-1.92Zm.14,4.64c.12.07.62.36.8.45l2.45-6.46,0,0c-.32,1.74-.37,1.93-1.33,5.86a10.06,10.06,0,0,0-.24,1.13,1.36,1.36,0,0,0,.23.72,2.87,2.87,0,0,1,.25,1.19c0,.91-.49,1.36-.85,1.36-.53,0-.57-.53-.57-.79a6.11,6.11,0,0,0-.8-3.45Zm.59-7.2c.39.06,1.94.27,1.94,1.76,0,.72-.41,1.17-.72,1.17s-.2-.08-.31-.54a6.14,6.14,0,0,0-.92-2.36Zm6.19,6.92.31-.68a5.06,5.06,0,0,1-1.22-1.26A7.23,7.23,0,0,1,197,268.8a8.61,8.61,0,0,1,1.08.4Zm-2,.19v3.54h2.06v-3.54Zm.53-5.54-.4.74a5.74,5.74,0,0,0,.76,1.05,13.92,13.92,0,0,0,1-1.79Z"/><path d="M208.69,259.34a1.34,1.34,0,0,1,1.19,1.44c0,.12-.09,1-.11,1.21,0,.44-.1,1.25-.1,2s0,1.43.53,1.43,1.28-1.06,1.44-1.71c.09-.31.12-.47.35-.47.49,0,1.11,1,1.11,1.51s-.13.73-1.48,1.29a8.89,8.89,0,0,0-2.57,1.25,3.64,3.64,0,0,0-1.27,2.61,1.46,1.46,0,0,0,1.69,1.54,5.13,5.13,0,0,0,1.94-.42,5.63,5.63,0,0,1,.59-.24,1.74,1.74,0,0,1,1.18,1.34c0,.63-.35.77-.47.82a6.65,6.65,0,0,1-2.38.24c-1.8,0-2.24-.25-2.6-.58a2.72,2.72,0,0,1-.77-2,5.31,5.31,0,0,1,2.13-4.1c-.31-.19-.57-.35-.57-1.71,0-.34,0-1.78,0-2.09,0-1.37,0-2.51-.57-2.51a.56.56,0,0,0-.34.15A1.12,1.12,0,0,1,208.69,259.34Z"/><path d="M224.8,266.27c-.31,4.59-1.61,7-4.1,7-1.92,0-2.16-1.9-2.16-4.95,0-1.08.18-5.8.18-6.77,0-.51,0-.86-.78-.84.19-.4.44-.93,1.14-.93a1.11,1.11,0,0,1,1.1,1c0,.23-.23,1.19-.25,1.38-.14,1.2-.32,4.61-.32,7,0,1.13,0,2.16,1.19,2.16,1.92,0,3.15-2.07,4-5.09Z"/><path d="M229.57,262a15.56,15.56,0,0,0,1.5-.43c1.24-.35,2.47-.64,3.71-.88a1.38,1.38,0,0,0,.79-.39c.06,0,.1-.08.15-.08s1.43.53,1.43,1.46c0,.3-.15.72-.47.72a1.77,1.77,0,0,1-.6-.16,3.49,3.49,0,0,0-1-.16,2,2,0,0,0-1.85,1.52,14.47,14.47,0,0,0-.62,4.51c0,2.81.86,3.11,2,3.53.39.14.76.28.76,1.16,0,.2,0,1-.59,1a3.44,3.44,0,0,1-1.35-.43c-1.18-.67-1.77-1.84-1.77-4.48,0-2.83.79-5.49,2-6.64a8.73,8.73,0,0,0-3.09,1.33c-.46.3-.53.33-.71.33-.66,0-1.1-.91-1.1-1.84a2.54,2.54,0,0,1,.14-.93C229,261.51,229.09,262,229.57,262Z"/><path d="M244.32,266.49a34,34,0,0,0-.56,4.23,3,3,0,0,0,.17,1c.17.43.19.48.19.65a.8.8,0,0,1-.73.87c-.8,0-1.91-1.52-1.91-5.49,0-1,0-1.33.29-4.53,0-.28.11-1.33.11-2a7,7,0,0,0-.16-1.56,4.79,4.79,0,0,1,1.51,3.39,4.29,4.29,0,0,1-.17,1.21,13.43,13.43,0,0,0-.56,3.75c0,1.23.17,2,.37,2s.32-.38.35-.46c.17-.48.88-2.55,1.07-3.14Zm2.72-2.78c1.39,0,2.91,1.24,2.91,4.06,0,.24,0,2-.85,2-.47,0-.71-.49-.72-1.05a7.89,7.89,0,0,0-.67-3.78,2.1,2.1,0,0,0-1.08-1.17Z"/><path d="M258.62,265.51c2.09,0,2.63,2.45,2.63,3.94,0,2.69-1.33,4-3.1,4a2,2,0,0,1-2.11-2.06c0-.87.44-1.78,1.31-1.78.7,0,1.16.59,1.16,1.44a1.36,1.36,0,0,1-.14.67c.47-.11,1.64-.4,1.64-3,0-.89-.16-2.67-1.59-2.67-.88,0-1.63.7-2.43,3a11.56,11.56,0,0,0-.49,1.87c-.05.24-.15.64-.54.64-.61,0-.69-1-.69-1.57s.07-.74.69-1.75c.15-.27,2.52-4.43,3.51-6.48a.77.77,0,0,0,.1-.35c0-.06,0-.13-.07-.13a2.72,2.72,0,0,0-.65.67c-.49.64-.66.76-1,.76-.72,0-1.08-1.12-1.14-1.7a.9.9,0,0,0,.55.27c.46,0,1.43-.86,1.92-1.28s.52-.45.69-.45,1.22.24,1.22,1.6c0,.48-.12.6-.48,1a18.8,18.8,0,0,0-2.06,3.65A2.18,2.18,0,0,1,258.62,265.51Zm-1,5.65c0-.25-.12-.59-.44-.59s-.35.34-.35.48a.57.57,0,0,0,.56.58A.56.56,0,0,0,257.58,271.16Z"/><path d="M269,271c0,1.33-.7,2.43-1.58,2.43s-1.58-1.1-1.58-2.43.71-2.44,1.58-2.44S269,269.63,269,271Zm-2.75,0c0,1,.52,1.79,1.17,1.79s1.16-.82,1.16-1.79-.52-1.79-1.16-1.79S266.26,270,266.26,271Z"/><path d="M283.74,271.87a2.17,2.17,0,0,0-.78,1.61c0,.28-.12.49-.29.49s-1.51-.87-2.43-2.82A6.81,6.81,0,0,1,276.5,274v-.07a9.46,9.46,0,0,0,3.23-4.22,23,23,0,0,1-.6-4.95,12.8,12.8,0,0,1-.9,1.52,3.31,3.31,0,0,1,.51.71c0,.11-.19.3-.41.51v4c0,.37,0,.35-.24.39l-.84.09c-.15,0-.17,0-.17-.29v-.54h-1.53v1.66c0,.37,0,.45-.25.49l-.78.09c-.16,0-.22,0-.22-.3v-6.81c.2.05,1.24.4,1.28.4v-3.5h-1.74l-.05-.18h1.79v-3.9l1.38.25c.06,0,.19.05.19.15s0,.11-.29.25V263h.3l.5-1.18c0-.07.08-.19.13-.19a8.06,8.06,0,0,1,.91,1.44c0,.11-.06.11-.12.11h-1.72v3.5H277l.38-.78c.11-.21.15-.26.21-.26s.32.29.49.47a38.3,38.3,0,0,0,1.48-7.11c.41.26.95.55,1.45.85.07,0,.14.1.14.14s-.15.13-.33.12a30.44,30.44,0,0,1-1,3.05h1.68l.6-1.26c.08-.18.09-.19.12-.19a7.44,7.44,0,0,1,1.17,1.53c0,.12-.07.12-.13.12h-1.54c.17.06,1,.41,1,.54s-.24.19-.35.21a20.13,20.13,0,0,1-1.39,5.55,6.3,6.3,0,0,0,2.73,2.11Zm-8.2-5V271h1.53v-4.11Zm4.21-3.5c-.11.27-.23.54-.52,1.15a16,16,0,0,0,1,3.76,22.89,22.89,0,0,0,.85-4.91Z"/><path d="M297.21,271.74c-.75.45-.8.78-.94,1.54,0,.2-.14.32-.26.32-.34,0-1.36-.8-2.28-2.93-1.12-2.58-1.22-6.64-1.26-8.45-.25,6.21-1.49,9.86-5.36,11.47l0-.05c3.76-3.36,4-8.53,4-14.38,1,.09,1.52.19,1.61.2s.15,0,.15.15,0,.11-.27.3c0,.45,0,.8,0,1,0,2.13.57,8.51,4.65,10.79Z"/><path d="M304.37,271c0,1.33-.7,2.43-1.58,2.43s-1.58-1.1-1.58-2.43.71-2.44,1.58-2.44S304.37,269.63,304.37,271Zm-2.75,0c0,1,.52,1.79,1.17,1.79S304,272,304,271s-.52-1.79-1.16-1.79S301.62,270,301.62,271Z"/><line class="cls-1" x1="18.93" y1="21.34" x2="18.93" y2="321.72"/><path d="M18.93,13.21a4.07,4.07,0,1,1-4.06,4.06A4.07,4.07,0,0,1,18.93,13.21Z"/><path class="cls-1" d="M18.93,11.33A5.95,5.95,0,1,1,13,17.27,5.94,5.94,0,0,1,18.93,11.33Z"/><polygon class="cls-1" points="18.93 5.03 24.24 14.23 29.55 23.39 18.93 23.39 8.32 23.39 13.63 14.23 18.93 5.03"/><path d="M10.22,76.22c0,1.7,0,2.11.23,2.11a.7.7,0,0,0,.42-.14,1.08,1.08,0,0,1,0,.77,4.62,4.62,0,0,0-1.76.65c-.07,0-.15-.11-.17-.25l0-.56c0-.15-.05-.2-.08-.15-.35.4-.7.78-1.06.78C6.73,79.43,6,77.83,6,75.88c0-2.54,1-4.16,2.32-4.16a1.63,1.63,0,0,1,.56.09A.51.51,0,0,0,9,71.47v-2.3c0-.73,0-.92-.19-1.14l-.17-.18a.68.68,0,0,1,0-.54,7.31,7.31,0,0,0,1.5-1,.18.18,0,0,1,.16.13c0,.74,0,1.49,0,2.63ZM9,73.83a2.73,2.73,0,0,0-.06-.61c-.12-.38-.34-.67-.56-.67-.5,0-1,1-1,2.84,0,1.19.3,2.83,1.1,2.83a.57.57,0,0,0,.4-.21A1.23,1.23,0,0,0,9,77.32Z"/><path d="M7.43,250.41c-.22,0-.24,0-.24.32,0,1.35.47,2.67,1.37,2.67.28,0,.65-.11.91-.94.11,0,.25.11.25.42-.4,1.53-1.12,2.05-1.7,2.05-1.32,0-2-1.71-2-3.67,0-2.27.89-4,2.11-4,1,0,1.56,1.21,1.56,2.59,0,.35-.05.6-.36.6Zm.65-.79a.52.52,0,0,0,.4-.17.94.94,0,0,0,.06-.41c0-.59-.18-1-.51-1s-.76.72-.76,1.3c0,.25.13.27.45.27Z"/><line class="cls-2" x1="21.99" y1="44.58" x2="15.46" y2="44.58"/><line class="cls-2" x1="21.99" y1="75.81" x2="15.46" y2="75.81"/><line class="cls-2" x1="21.99" y1="110.99" x2="15.46" y2="110.99"/><line class="cls-2" x1="21.99" y1="146.18" x2="15.46" y2="146.18"/><line class="cls-2" x1="21.99" y1="181.36" x2="15.46" y2="181.36"/><line class="cls-2" x1="21.99" y1="216.54" x2="15.46" y2="216.54"/><line class="cls-2" x1="21.99" y1="251.72" x2="15.46" y2="251.72"/><line class="cls-2" x1="21.99" y1="251.72" x2="15.46" y2="251.72"/><line class="cls-2" x1="21.99" y1="251.72" x2="15.46" y2="251.72"/><line class="cls-2" x1="21.97" y1="286.53" x2="15.44" y2="286.53"/><line class="cls-2" x1="21.97" y1="321.72" x2="15.44" y2="321.72"/><line class="cls-3" x1="96.26" y1="321.72" x2="33.62" y2="321.72"/><line class="cls-3" x1="104.53" y1="41.68" x2="34.75" y2="41.68"/><circle cx="9.68" cy="44.58" r="1.68"/><path d="M36.93,309.3l-.26,1.77h.57l-.07.76h-.61L36.24,314h-.39l.31-2.19h-.63L35.2,314h-.38l.31-2.19h-.64l.08-.76h.67l.26-1.77h-.65l.08-.78h.68l.28-1.95h.41L36,308.52h.61l.28-1.95h.43l-.29,1.95h.58l-.05.78Zm-1,0-.26,1.77h.63l.25-1.77Z"/><path d="M42.9,310.3c0,1.93-.45,3.92-1.5,3.92s-1.5-2-1.5-3.92.44-3.92,1.5-3.92S42.9,308.44,42.9,310.3Zm-1.5,3.37c.49,0,.55-2.3.55-3.37s-.06-3.37-.55-3.37-.55,2.3-.55,3.37S40.9,313.67,41.4,313.67Z"/><path d="M46.88,311a1.18,1.18,0,0,1,.09.5,1.36,1.36,0,0,1-.08.47l-1.56.26a1,1,0,0,1-.1-.48,1.16,1.16,0,0,1,.1-.49Z"/><path d="M50.56,309.9c-.09,0-.1,0-.1.28V312c0,.67,0,1.41.46,1.41a.39.39,0,0,0,.27-.18.32.32,0,0,1,.09.31,1.15,1.15,0,0,1-.93.7c-.54,0-.73-.58-.73-1.37v-2.67c0-.25,0-.28-.12-.28h-.2a.35.35,0,0,1,0-.37,2.76,2.76,0,0,0,.54-.54,4.12,4.12,0,0,0,.48-.94.13.13,0,0,1,.19.07V309c0,.23,0,.24.12.24h.58a.36.36,0,0,1,0,.23.77.77,0,0,1-.08.42Z"/><path d="M55.58,312.41c0,.81.16,1,.29,1a.36.36,0,0,0,.25-.14c.06,0,.1.16.08.27s-.39.65-.76.65c-.22,0-.37-.14-.54-.42,0-.07-.07-.1-.11-.1s-.07.05-.13.14-.31.38-.56.38-.72-.42-.72-1.26a1.27,1.27,0,0,1,.67-1.25l.61-.33a.27.27,0,0,0,.16-.24c0-.13,0-.27,0-.41,0-.46-.1-1-.37-1s-.3.17-.34.68a.63.63,0,0,1-.58.66c-.11,0-.15-.13-.15-.3a1.9,1.9,0,0,1,.31-.92,1.48,1.48,0,0,1,1.09-.73c.55,0,.87.5.84,1.74Zm-.78-.31c0-.19,0-.23,0-.22-.29.07-.54.28-.54.84,0,.38.15.72.33.72s.24-.22.25-.59Z"/><path d="M58.49,307.38c0-.48,0-.61-.13-.75l-.11-.12a.55.55,0,0,1,0-.36,6.21,6.21,0,0,0,1-.67.12.12,0,0,1,.11.08c0,.49,0,1,0,1.75v3.77c0,.13,0,.17.09.17s.25-.06.37-.34l.28-.59a1.37,1.37,0,0,0,.15-.48.14.14,0,0,0-.12-.12l-.16-.05a.51.51,0,0,1,0-.42h.16a5.85,5.85,0,0,0,1.23-.16.55.55,0,0,1,0,.42l-.21.08a1.08,1.08,0,0,0-.43.42,5.49,5.49,0,0,0-.44.7.41.41,0,0,0,0,.15,1,1,0,0,0,0,.21c.12.38.69,2,.85,2.29a.66.66,0,0,0,.38.27l.1,0a.55.55,0,0,1,0,.42,5.83,5.83,0,0,0-.82,0,5.09,5.09,0,0,0-.8,0,.5.5,0,0,1,0-.42l.09,0c.06,0,.1-.05.1-.09a2.51,2.51,0,0,0-.11-.39l-.46-1.29c0-.14-.1-.18-.16-.18s-.08.06-.08.29v.69c0,.84,0,.94.25,1l.11,0a.56.56,0,0,1,0,.42,5.85,5.85,0,0,0-.78,0,6.11,6.11,0,0,0-.79,0,.56.56,0,0,1,0-.42l.12,0c.24,0,.26-.14.26-1Z"/><path d="M64.58,311.21c-.15,0-.17,0-.17.22,0,.89.31,1.77.92,1.77.18,0,.43-.07.6-.62.08,0,.17.07.17.27-.26,1-.74,1.37-1.13,1.37-.88,0-1.36-1.14-1.36-2.45,0-1.51.6-2.68,1.41-2.68s1,.8,1,1.72c0,.23,0,.4-.24.4Zm.42-.53a.32.32,0,0,0,.27-.11.53.53,0,0,0,0-.27c0-.4-.13-.66-.35-.66s-.51.48-.51.86c0,.17.1.18.3.18Z"/><path d="M74.79,310.3c0,1.93-.45,3.92-1.5,3.92s-1.51-2-1.51-3.92.45-3.92,1.51-3.92S74.79,308.44,74.79,310.3Zm-1.5,3.37c.49,0,.55-2.3.55-3.37s-.06-3.37-.55-3.37-.56,2.3-.56,3.37S72.79,313.67,73.29,313.67Z"/><path d="M80.12,310.3c0,1.93-.45,3.92-1.5,3.92s-1.51-2-1.51-3.92.45-3.92,1.51-3.92S80.12,308.44,80.12,310.3Zm-1.5,3.37c.49,0,.55-2.3.55-3.37s-.06-3.37-.55-3.37-.56,2.3-.56,3.37S78.12,313.67,78.62,313.67Z"/><path d="M84.06,312.17c0-.31,0-.35-.15-.35H82.4a.49.49,0,0,1-.07-.38l2.12-5.57c.07-.19.12-.29.21-.29h.19c.11,0,.16.09.06.33l-2,5c0,.15-.06.25.15.25h.8c.13,0,.15,0,.15-.35v-1.68c0-.27,0-.36.14-.43a2.16,2.16,0,0,1,.63-.37c.06,0,.08.08.08.2v2.28c0,.31,0,.35.15.35h.43a.79.79,0,0,1,0,.67h-.43c-.13,0-.15,0-.15.35v.34c0,1,0,1.09.33,1.13l.14,0c.05.07.05.38,0,.42a7.78,7.78,0,0,0-.88,0,9.2,9.2,0,0,0-1,0c-.07,0-.08-.35,0-.42l.27,0c.32-.05.36-.14.36-1.12Z"/><path d="M37.54,31.74a1.16,1.16,0,0,1,.13.63c0,.36-.09.68-.17.68s-.09,0-.1-.06c-.18-.48-.44-.9-.67-.9-.42,0-.65.89-.65,1.72s.33,1.9.93,1.9c.24,0,.44-.14.58-.58.08,0,.17.07.17.26-.15.6-.54,1.28-1.15,1.28-.82,0-1.38-1-1.38-2.42,0-1.7.75-2.71,1.62-2.71A1.38,1.38,0,0,1,37.54,31.74Z"/><path d="M40.2,29.84c0-.48,0-.62-.13-.76L40,29a.45.45,0,0,1,0-.36,6.69,6.69,0,0,0,1-.67.13.13,0,0,1,.11.08c0,.5,0,1,0,1.75V32c0,.11,0,.15,0,.15l.11-.1a1.09,1.09,0,0,1,.74-.48c.55,0,.82.68.82,1.51v2.06c0,.84,0,.94.26,1l.11,0a.56.56,0,0,1,0,.42c-.2,0-.48,0-.79,0a6.16,6.16,0,0,0-.7,0,.56.56,0,0,1,0-.42l.12,0c.15-.05.18-.14.18-.8V33.22c0-.42-.14-.8-.46-.8a.41.41,0,0,0-.36.28,1.22,1.22,0,0,0-.05.45v2.14c0,.66,0,.75.17.8l.12,0a.56.56,0,0,1,0,.42,7,7,0,0,0-.72,0c-.27,0-.54,0-.76,0a.56.56,0,0,1,0-.42l.12,0c.21-.05.24-.15.24-1Z"/><path d="M47.6,34.86c0,.82.16,1,.29,1s.14,0,.25-.14.09.17.07.28-.38.64-.75.64-.37-.14-.54-.42c-.05-.07-.08-.09-.11-.09s-.07.05-.14.13a.76.76,0,0,1-.55.38c-.37,0-.73-.42-.73-1.26a1.26,1.26,0,0,1,.68-1.24c.25-.15.43-.24.61-.34a.26.26,0,0,0,.16-.24c0-.13,0-.26,0-.41,0-.45-.1-1-.38-1s-.29.17-.34.69a.66.66,0,0,1-.11.38.8.8,0,0,1-.46.27c-.11,0-.15-.13-.15-.3a1.81,1.81,0,0,1,.31-.92,1.51,1.51,0,0,1,1.09-.73c.55,0,.87.5.83,1.74Zm-.78-.31c0-.19,0-.23,0-.22-.29.08-.54.28-.54.84,0,.39.15.72.33.72s.24-.21.24-.58Z"/><path d="M50.56,33.33c0-.48,0-.63-.12-.77l-.09-.11a.45.45,0,0,1,0-.36,3.78,3.78,0,0,0,.95-.72c.05,0,.09,0,.11.11,0,.24,0,.41,0,.52s0,.12.06.14c.18-.2.37-.6.64-.6s.36.25.36.71S52.24,33,52,33s-.17-.07-.25-.22-.21-.24-.25-.24-.12.27-.12.72v1.85c0,.84,0,.93.24,1l.21,0a.53.53,0,0,1,0,.41c-.31,0-.57,0-.88,0s-.55,0-.77,0a.58.58,0,0,1,0-.41l.12,0c.22,0,.24-.14.24-1Z"/><path d="M56.79,34.86c0,.82.16,1,.29,1s.14,0,.25-.14.1.17.08.28-.39.64-.76.64-.37-.14-.54-.42c0-.07-.08-.09-.11-.09s-.07.05-.13.13a.8.8,0,0,1-.56.38c-.37,0-.73-.42-.73-1.26a1.26,1.26,0,0,1,.68-1.24c.25-.15.43-.24.61-.34a.26.26,0,0,0,.16-.24c0-.13,0-.26,0-.41,0-.45-.1-1-.38-1s-.29.17-.33.69a.73.73,0,0,1-.12.38.8.8,0,0,1-.46.27c-.11,0-.15-.13-.15-.3a1.81,1.81,0,0,1,.31-.92A1.51,1.51,0,0,1,56,31.54c.55,0,.87.5.83,1.74ZM56,34.55c0-.19,0-.23,0-.22-.29.08-.54.28-.54.84,0,.39.15.72.33.72s.24-.21.25-.58Z"/><path d="M61.71,31.74a1.06,1.06,0,0,1,.14.63c0,.36-.09.68-.17.68s-.09,0-.1-.06c-.18-.48-.44-.9-.67-.9-.42,0-.65.89-.65,1.72s.33,1.9.93,1.9c.24,0,.43-.14.58-.58.08,0,.17.07.17.26-.15.6-.54,1.28-1.15,1.28-.82,0-1.38-1-1.38-2.42,0-1.7.75-2.71,1.62-2.71A1.32,1.32,0,0,1,61.71,31.74Z"/><path d="M65.3,32.36c-.09,0-.09,0-.09.27v1.8c0,.67,0,1.42.45,1.42a.42.42,0,0,0,.27-.18c.07,0,.11.16.09.31a1.14,1.14,0,0,1-.93.69c-.54,0-.73-.57-.73-1.36V32.63c0-.25,0-.27-.12-.27H64A.37.37,0,0,1,64,32a2.51,2.51,0,0,0,.54-.54,3.61,3.61,0,0,0,.48-.93.12.12,0,0,1,.19.06v.9c0,.23,0,.24.13.24h.57a.35.35,0,0,1,.06.23.79.79,0,0,1-.09.42Z"/><path d="M69.08,33.66c-.15,0-.16,0-.16.22,0,.9.31,1.77.91,1.77.19,0,.43-.07.61-.62.07,0,.17.07.17.28-.27,1-.75,1.36-1.14,1.36-.88,0-1.35-1.14-1.35-2.44,0-1.51.59-2.69,1.4-2.69s1,.8,1,1.73c0,.22,0,.39-.23.39Zm.43-.52a.38.38,0,0,0,.27-.11.63.63,0,0,0,0-.28c0-.39-.12-.66-.34-.66S69,32.57,69,33c0,.16.09.18.3.18Z"/><path d="M73.13,33.33c0-.48,0-.63-.12-.77l-.09-.11a.55.55,0,0,1,0-.36,3.61,3.61,0,0,0,1-.72s.09,0,.12.11c0,.24,0,.41,0,.52s0,.12.07.14c.17-.2.36-.6.63-.6s.36.25.36.71-.21.78-.42.78-.16-.07-.25-.22-.21-.24-.25-.24-.12.27-.12.72v1.85c0,.84,0,.93.24,1l.21,0a.53.53,0,0,1,0,.41c-.31,0-.57,0-.87,0s-.56,0-.77,0a.53.53,0,0,1,0-.41l.12,0c.22,0,.24-.14.24-1Z"/><path d="M80.43,32.09c-.06-.08-.07-.37,0-.42a6.07,6.07,0,0,0,.8,0c.24,0,.48,0,.72,0a.61.61,0,0,1,0,.42l-.11,0c-.07,0-.11,0-.11.12a4.08,4.08,0,0,0,.06.42c.13.66.28,1.28.41,1.86.14-.6.31-1.24.44-2a1.3,1.3,0,0,0,0-.3c0-.06,0-.09-.15-.14l-.09,0a.51.51,0,0,1,0-.42,3.44,3.44,0,0,0,.54,0c.2,0,.35,0,.5,0s0,.35,0,.42l-.11,0c-.2.06-.25.2-.38.66-.34,1.23-.63,2.52-.93,3.8a.16.16,0,0,1-.15.08.19.19,0,0,1-.15-.08c-.34-1.51-.48-2.09-.89-3.68-.15-.59-.19-.69-.36-.76Z"/><path d="M85.58,34.2c0-1.71.73-2.66,1.5-2.66s1.45.86,1.45,2.55-.69,2.58-1.49,2.58S85.59,35.86,85.58,34.2Zm.94-.26c0,1.26.21,2.18.59,2.18s.49-.78.49-1.86-.19-2.17-.56-2.17S86.52,32.63,86.52,33.94Z"/><path d="M92.08,35.11c0,.84,0,1,.24,1l.12,0a.56.56,0,0,1,0,.42q-.33,0-.78,0c-.29,0-.56,0-.78,0a.51.51,0,0,1,0-.42l.12,0c.22,0,.24-.15.24-1V33.3c0-.48,0-.62-.12-.76L91,32.43a.45.45,0,0,1,0-.36,4.4,4.4,0,0,0,1-.7s.09,0,.12.11c0,.36,0,.89,0,1.43Zm0-5.42c0,.58-.24.88-.49.88s-.45-.36-.45-.85.22-.88.48-.88S92.13,29.21,92.13,29.69Z"/><path d="M97,31.74a1.06,1.06,0,0,1,.14.63c0,.36-.09.68-.17.68s-.09,0-.1-.06c-.19-.48-.44-.9-.67-.9-.43,0-.65.89-.65,1.72s.33,1.9.93,1.9c.24,0,.43-.14.57-.58.08,0,.17.07.17.26-.14.6-.53,1.28-1.15,1.28-.82,0-1.37-1-1.37-2.42,0-1.7.74-2.71,1.62-2.71A1.32,1.32,0,0,1,97,31.74Z"/><path d="M100.32,33.66c-.15,0-.17,0-.17.22,0,.9.32,1.77.92,1.77.18,0,.43-.07.61-.62.07,0,.17.07.17.28-.27,1-.75,1.36-1.14,1.36-.88,0-1.35-1.14-1.35-2.44,0-1.51.59-2.69,1.4-2.69s1,.8,1,1.73c0,.22,0,.39-.23.39Zm.43-.52A.34.34,0,0,0,101,33a.5.5,0,0,0,0-.28c0-.39-.12-.66-.35-.66s-.5.48-.5.87c0,.16.09.18.3.18Z"/><rect x="34.38" y="294.65" width="17.75" height="3.94"/><rect x="34.18" y="94.12" width="89.09" height="11.94"/><path class="cls-4" d="M42.76,101.84c-.07-.41-.11-.46-.41-.46h-1.5c-.25,0-.31.05-.38.44l-.35,1.92a12.23,12.23,0,0,0-.22,1.53c0,.22.05.33.29.37l.33,0a.47.47,0,0,1,0,.46c-.26,0-.57,0-1-.06s-.68,0-1,.06a.61.61,0,0,1,0-.46l.33,0c.24,0,.46-.24.6-.9.17-.85.45-2,.87-4.1l1-5a4.6,4.6,0,0,0,.17-1.31,1.52,1.52,0,0,0,.52-.7c.06,0,.13,0,.15.17.13.81.29,1.65.44,2.46l1.36,7.38c.29,1.58.42,1.85.85,2l.27,0a.61.61,0,0,1,0,.46,11.67,11.67,0,0,0-1.21-.06c-.47,0-.85,0-1.14.06a.5.5,0,0,1,0-.46l.29,0c.21,0,.34-.15.34-.34a6.16,6.16,0,0,0-.12-1Zm-2-1.64c-.08.42-.07.44.21.44h1.22c.29,0,.31-.07.22-.57l-.54-3c-.08-.44-.17-.94-.23-1.15h0c0,.09-.13.53-.24,1.08Z"/><path class="cls-4" d="M50.12,106.39a2.16,2.16,0,0,1-1.56-.68,14.17,14.17,0,0,1-.26-2.57c0-.13.19-.17.23-.06.15.94.56,2.74,1.72,2.74.83,0,1.24-1,1.24-2.11a3.67,3.67,0,0,0-.82-2.57L49.73,100a4.9,4.9,0,0,1-1.08-3.16c0-1.74.74-3.16,2-3.16a2.41,2.41,0,0,1,.93.24A.73.73,0,0,0,52,94a14.52,14.52,0,0,1,.17,2.24c0,.11-.19.17-.24.06-.13-.88-.4-2.08-1.36-2.08s-1.18,1.2-1.18,2a3.42,3.42,0,0,0,.85,2.26l.79.92A5,5,0,0,1,52.23,103C52.23,105,51.41,106.39,50.12,106.39Z"/><path class="cls-4" d="M59.78,101.84c-.07-.41-.11-.46-.4-.46H57.87c-.25,0-.31.05-.38.44l-.34,1.92a12.23,12.23,0,0,0-.22,1.53c0,.22,0,.33.29.37l.32,0a.47.47,0,0,1,0,.46c-.25,0-.56,0-1-.06s-.69,0-1,.06a.61.61,0,0,1,0-.46l.33,0c.24,0,.46-.24.6-.9.18-.85.46-2,.88-4.1l1-5a4.6,4.6,0,0,0,.17-1.31,1.52,1.52,0,0,0,.52-.7c.06,0,.13,0,.15.17.13.81.28,1.65.43,2.46L61,103.69c.28,1.58.41,1.85.84,2l.27,0a.61.61,0,0,1,0,.46,11.61,11.61,0,0,0-1.2-.06c-.48,0-.86,0-1.15.06a.5.5,0,0,1,0-.46l.29,0c.21,0,.35-.15.35-.34a6.5,6.5,0,0,0-.13-1Zm-2-1.64c-.08.42-.07.44.21.44h1.23c.28,0,.3-.07.21-.57l-.53-3c-.08-.44-.17-.94-.23-1.15h0c0,.09-.13.53-.24,1.08Z"/><path class="cls-4" d="M68.78,101.19c.23.87.45,1.71.69,2.52h0c.27-.87.52-1.82.76-2.76l.94-3.5A17,17,0,0,0,72,93.92a3.67,3.67,0,0,0,.74.06,7.38,7.38,0,0,0,.89-.06.66.66,0,0,1,0,.46l-.21,0c-.63.11-.71.46-.7,1.74,0,2,0,5.35.11,8,0,.92,0,1.41.49,1.49l.32,0a.56.56,0,0,1,0,.46c-.41,0-.82-.06-1.18-.06s-.79,0-1.2.06a.56.56,0,0,1,0-.46l.29,0c.49-.1.49-.39.49-1.57l0-7.65h0c-.07.2-.45,1.67-.65,2.39L70.37,102c-.44,1.61-.89,3.34-1.07,4.18a.1.1,0,0,1-.1.08.11.11,0,0,1-.09-.08c-.17-1-.65-2.77-.88-3.67L67.34,99c-.21-.84-.42-1.8-.64-2.64h0c0,1.13-.07,2.2-.1,3.26s-.07,2.76-.07,4.32c0,1.36.06,1.65.45,1.71l.38,0a.52.52,0,0,1,0,.46,9.79,9.79,0,0,0-1.11-.06,9,9,0,0,0-1,.06.61.61,0,0,1,0-.46l.22,0c.42-.12.56-.22.62-1.51s.11-2.22.17-4c0-1.52.09-3.08.1-4.09s0-1.43-.66-1.58l-.16,0a.56.56,0,0,1,0-.46,5.77,5.77,0,0,0,.78.06,4.36,4.36,0,0,0,.83-.06,11.59,11.59,0,0,0,.52,3Z"/><path class="cls-4" d="M78.24,96.77c0-2,0-2.26-.61-2.35l-.25,0a.61.61,0,0,1,0-.46c.5,0,.84.06,1.26.06s.73,0,1.23-.06a.61.61,0,0,1,0,.46l-.25,0c-.59.09-.61.4-.61,2.35v6.53c0,2,0,2.21.61,2.34l.25,0a.61.61,0,0,1,0,.46c-.5,0-.84-.06-1.23-.06s-.76,0-1.26.06a.6.6,0,0,1,0-.46l.25,0c.59-.13.61-.39.61-2.34Z"/><path class="cls-4" d="M90.05,96.77c0-2,0-2.26-.6-2.35l-.25,0a.61.61,0,0,1,0-.46c.49,0,.83.06,1.25.06s.74,0,1.24-.06a.57.57,0,0,1,0,.46l-.24,0c-.59.09-.61.4-.61,2.35v6.53c0,2,0,2.21.61,2.34l.24,0a.57.57,0,0,1,0,.46c-.5,0-.84-.06-1.24-.06s-.76,0-1.25.06a.6.6,0,0,1,0-.46l.25,0c.58-.13.6-.39.6-2.34Z"/><path class="cls-4" d="M99,101.19c.22.87.44,1.71.68,2.52h0c.27-.87.52-1.82.77-2.76l.93-3.5a17,17,0,0,0,.76-3.53,3.77,3.77,0,0,0,.74.06,7.38,7.38,0,0,0,.89-.06.66.66,0,0,1,0,.46l-.21,0c-.63.11-.71.46-.7,1.74,0,2,0,5.35.11,8,0,.92,0,1.41.49,1.49l.32,0a.56.56,0,0,1,0,.46c-.41,0-.82-.06-1.17-.06s-.8,0-1.21.06a.56.56,0,0,1,0-.46l.29,0c.49-.1.49-.39.49-1.57l0-7.65h0c-.07.2-.45,1.67-.65,2.39l-.88,3.21c-.45,1.61-.9,3.34-1.08,4.18a.1.1,0,0,1-.1.08.11.11,0,0,1-.09-.08c-.17-1-.64-2.77-.87-3.67L97.55,99c-.21-.84-.42-1.8-.63-2.64h0c0,1.13-.07,2.2-.1,3.26s-.07,2.76-.07,4.32c0,1.36.06,1.65.44,1.71l.38,0a.52.52,0,0,1,0,.46,9.61,9.61,0,0,0-1.1-.06,9,9,0,0,0-1,.06.61.61,0,0,1,0-.46l.22,0c.42-.12.56-.22.62-1.51s.11-2.22.17-4c0-1.52.09-3.08.11-4.09s-.06-1.43-.67-1.58l-.16,0a.56.56,0,0,1,0-.46,5.79,5.79,0,0,0,.79.06,4.21,4.21,0,0,0,.82-.06,11.59,11.59,0,0,0,.52,3Z"/><path class="cls-4" d="M111.23,101.84c-.07-.41-.11-.46-.41-.46h-1.5c-.25,0-.31.05-.38.44l-.35,1.92a12.23,12.23,0,0,0-.22,1.53c0,.22,0,.33.29.37l.33,0a.47.47,0,0,1,0,.46c-.26,0-.57,0-1-.06s-.68,0-1,.06a.61.61,0,0,1,0-.46l.33,0c.24,0,.45-.24.59-.9.18-.85.46-2,.88-4.1l1-5a4.6,4.6,0,0,0,.17-1.31,1.52,1.52,0,0,0,.52-.7c.06,0,.13,0,.15.17.13.81.29,1.65.44,2.46l1.36,7.38c.29,1.58.42,1.85.85,2l.27,0a.72.72,0,0,1,0,.46,11.67,11.67,0,0,0-1.21-.06c-.48,0-.85,0-1.14.06a.5.5,0,0,1,0-.46l.29,0c.2,0,.34-.15.34-.34a6.5,6.5,0,0,0-.13-1Zm-2-1.64c-.08.42-.07.44.21.44h1.22c.29,0,.31-.07.22-.57l-.54-3c-.08-.44-.17-.94-.23-1.15h0c0,.09-.13.53-.24,1.08Z"/><path class="cls-4" d="M117.63,96.77c0-2,0-2.26-.61-2.35l-.25,0a.57.57,0,0,1,0-.46c.49,0,.83.06,1.25.06s.73,0,1.23-.06a.61.61,0,0,1,0,.46l-.25,0c-.59.09-.6.4-.6,2.35v6.53c0,2,0,2.21.6,2.34l.25,0a.61.61,0,0,1,0,.46c-.5,0-.83-.06-1.23-.06s-.76,0-1.25.06a.56.56,0,0,1,0-.46l.25,0c.59-.13.61-.39.61-2.34Z"/><rect x="34.75" y="207.32" width="118.3" height="12.36"/><path class="cls-4" d="M39.7,209.93c0-1.92,0-2.22-.59-2.31l-.25,0a.58.58,0,0,1,0-.45c.48,0,.8.05,1.25.05s.73,0,1.15-.05a.58.58,0,0,1,0,.45l-.18,0c-.58.11-.6.39-.6,2.31V212c0,.35,0,.7.13.7s.21-.11.28-.2.39-.7.5-.88l1.08-2c.19-.33.67-1.26.77-1.52a.84.84,0,0,0,.07-.29c0-.08,0-.13-.17-.19l-.26-.11a.48.48,0,0,1,0-.45c.34,0,.74.05,1.09.05a9.71,9.71,0,0,0,1-.05.58.58,0,0,1,0,.45,1.77,1.77,0,0,0-.93.52,13.66,13.66,0,0,0-1.39,2.13l-.9,1.56a1.34,1.34,0,0,0-.23.57,1.7,1.7,0,0,0,.19.57c.95,2,1.71,3.65,2.49,5.15.24.44.46.68.79.76l.27,0a.52.52,0,0,1,0,.46,8.17,8.17,0,0,0-1.11,0c-.41,0-.76,0-1.21,0-.07,0-.1-.35,0-.46l.22-.07c.14,0,.24-.09.24-.19a1.36,1.36,0,0,0-.14-.42c-.18-.44-.44-.93-.82-1.72l-.8-1.66c-.56-1.17-.72-1.54-1-1.54s-.17.24-.17.88v2.37c0,1.93,0,2.19.57,2.3l.27,0a.6.6,0,0,1,0,.46c-.48,0-.82,0-1.21,0a10.94,10.94,0,0,0-1.15,0,.59.59,0,0,1,0-.46l.19,0c.53-.15.55-.37.55-2.3Z"/><path class="cls-4" d="M54.14,211.79A25.39,25.39,0,0,0,54,208a.59.59,0,0,0-.5-.39l-.25,0a.55.55,0,0,1,0-.44c.38,0,.74.05,1.13.05s.69,0,1-.05a.52.52,0,0,1,0,.44l-.24,0a.59.59,0,0,0-.5.44,30,30,0,0,0-.14,3.75v2.07a10.67,10.67,0,0,1-.69,4.39,2.21,2.21,0,0,1-1.9,1.34,2.09,2.09,0,0,1-1.87-1c-.52-.81-.77-2.15-.77-4.33v-4.33c0-1.91,0-2.23-.6-2.32l-.25,0a.56.56,0,0,1,0-.44c.5,0,.84.05,1.24.05s.73,0,1.22-.05a.56.56,0,0,1,0,.44l-.24,0c-.58.09-.6.41-.6,2.32v4c0,3,.5,4.9,2,4.9s2-2.09,2-4.88Z"/><path class="cls-4" d="M59.8,210c0-1.74,0-2-.44-2.15l-.31-.07a.47.47,0,0,1,0-.46,14,14,0,0,1,2.22-.14,2.17,2.17,0,0,1,1.66.55,3.45,3.45,0,0,1,.83,2.57,3.73,3.73,0,0,1-1.24,3.06.7.7,0,0,0,0,.44,22.36,22.36,0,0,0,2,4.88,1,1,0,0,0,.68.52s.06.18,0,.26a1,1,0,0,1-.44.09c-.84,0-1.35-.46-2-2.32-.26-.67-.67-1.94-1-2.77-.15-.4-.31-.58-.71-.58s-.46,0-.46.4v2.31c0,1.93,0,2.15.59,2.3l.21,0a.6.6,0,0,1,0,.46c-.44,0-.78,0-1.18,0s-.78,0-1.25,0a.64.64,0,0,1,0-.46l.24,0c.58-.13.6-.37.6-2.3Zm.82,2.63a2.52,2.52,0,0,0,0,.6c0,.06.18.09.68.09a1.16,1.16,0,0,0,1-.47,3.89,3.89,0,0,0,.5-2.28c0-1.45-.49-2.83-1.6-2.83-.61,0-.64.08-.64.59Z"/><path class="cls-4" d="M69.2,210c0-1.95,0-2.26-.61-2.35l-.25,0a.58.58,0,0,1,0-.45c.5,0,.84.05,1.26.05s.73,0,1.23-.05a.58.58,0,0,1,0,.45l-.25,0c-.59.09-.61.4-.61,2.35v6.54c0,1.94,0,2.2.61,2.33l.25,0a.6.6,0,0,1,0,.46c-.5,0-.84,0-1.23,0s-.76,0-1.26,0a.6.6,0,0,1,0-.46l.25,0c.59-.13.61-.39.61-2.33Z"/><path class="cls-4" d="M76.5,219.59a2.13,2.13,0,0,1-1.55-.68,14.86,14.86,0,0,1-.27-2.57c0-.13.2-.16.24-.06.15.94.55,2.74,1.71,2.74.83,0,1.24-1,1.24-2.11a3.71,3.71,0,0,0-.81-2.57l-1-1.14A4.9,4.9,0,0,1,75,210c0-1.74.73-3.15,2-3.15a2.24,2.24,0,0,1,.92.24.82.82,0,0,0,.35.1,14.46,14.46,0,0,1,.18,2.24c0,.11-.2.17-.25.06-.13-.88-.4-2.07-1.35-2.07s-1.19,1.19-1.19,2a3.42,3.42,0,0,0,.85,2.26l.79.92a5,5,0,0,1,1.25,3.52C78.62,218.21,77.79,219.59,76.5,219.59Z"/><path class="cls-4" d="M88.14,211.79A23.94,23.94,0,0,0,88,208a.58.58,0,0,0-.5-.39l-.25,0a.55.55,0,0,1,0-.44c.38,0,.75.05,1.13.05s.69,0,1.05-.05a.52.52,0,0,1,0,.44l-.24,0a.59.59,0,0,0-.5.44,30,30,0,0,0-.14,3.75v2.07a10.67,10.67,0,0,1-.69,4.39,2.21,2.21,0,0,1-1.9,1.34,2.06,2.06,0,0,1-1.86-1c-.53-.81-.78-2.15-.78-4.33v-4.33c0-1.91,0-2.23-.6-2.32l-.25,0a.66.66,0,0,1,0-.44c.5,0,.84.05,1.24.05s.74,0,1.22-.05a.56.56,0,0,1,0,.44l-.24,0c-.57.09-.59.41-.59,2.32v4c0,3,.49,4.9,2,4.9s2-2.09,2-4.88Z"/><path class="cls-4" d="M101.86,214.39c.23.87.45,1.71.69,2.52h0c.26-.86.51-1.82.76-2.75l.94-3.51a17.57,17.57,0,0,0,.75-3.52,4.55,4.55,0,0,0,.75.05c.25,0,.58,0,.88-.05a.63.63,0,0,1,0,.45l-.2,0c-.63.11-.71.46-.7,1.74,0,1.95,0,5.35.11,8,0,.92,0,1.41.49,1.49l.31,0a.56.56,0,0,1,0,.46c-.4,0-.81,0-1.17,0s-.8,0-1.2,0a.56.56,0,0,1,0-.46l.29,0c.48-.1.48-.39.48-1.56l0-7.66h0c-.07.2-.44,1.67-.64,2.39l-.89,3.21c-.45,1.62-.9,3.34-1.07,4.19a.1.1,0,0,1-.1.07.11.11,0,0,1-.09-.07c-.17-1-.65-2.78-.88-3.68l-.89-3.54c-.21-.84-.42-1.8-.64-2.64h0c0,1.14-.07,2.2-.1,3.27s-.07,2.75-.07,4.31c0,1.36.06,1.65.45,1.71l.38,0a.52.52,0,0,1,0,.46,9.86,9.86,0,0,0-1.11,0,8.75,8.75,0,0,0-1,0,.61.61,0,0,1,0-.46l.22,0c.41-.11.55-.22.61-1.51s.11-2.22.17-4c0-1.52.09-3.08.11-4.09s-.06-1.43-.67-1.58l-.15,0a.54.54,0,0,1,0-.45,7.43,7.43,0,0,0,.78.05,5.21,5.21,0,0,0,.83-.05,12,12,0,0,0,.51,3Z"/><path class="cls-4" d="M114.09,215c-.07-.41-.11-.46-.41-.46h-1.5c-.25,0-.31,0-.38.44l-.35,1.93a11.14,11.14,0,0,0-.21,1.52c0,.22.05.33.28.37l.33,0a.47.47,0,0,1,0,.46,8.63,8.63,0,0,0-1,0c-.33,0-.69,0-1,0a.61.61,0,0,1,0-.46l.33,0c.24,0,.46-.24.6-.9.18-.85.46-2,.87-4.1l1-5a4.56,4.56,0,0,0,.17-1.31,1.43,1.43,0,0,0,.51-.69c.06,0,.13,0,.15.16.13.81.29,1.65.44,2.46l1.36,7.38c.29,1.58.42,1.85.85,2l.27,0a.61.61,0,0,1,0,.46,11.67,11.67,0,0,0-1.2,0c-.48,0-.86,0-1.15,0a.5.5,0,0,1,0-.46l.29,0c.21,0,.35-.15.35-.33a6.43,6.43,0,0,0-.13-1Zm-2-1.64c-.08.43-.07.44.21.44h1.22c.29,0,.31-.07.22-.57l-.54-3c-.07-.44-.16-.93-.22-1.15h0c0,.09-.13.53-.24,1.08Z"/><path class="cls-4" d="M120.49,209.93c0-1.92,0-2.22-.59-2.31l-.25,0a.58.58,0,0,1,0-.45c.49,0,.8.05,1.25.05s.73,0,1.16-.05a.63.63,0,0,1,0,.45l-.19,0c-.58.11-.6.39-.6,2.31V212c0,.35,0,.7.13.7s.21-.11.28-.2.4-.7.5-.88l1.08-2c.19-.33.68-1.26.78-1.52a.78.78,0,0,0,.06-.29c0-.08,0-.13-.16-.19l-.27-.11a.48.48,0,0,1,0-.45c.35,0,.74.05,1.09.05s.69,0,1-.05a.54.54,0,0,1,0,.45,1.77,1.77,0,0,0-.93.52,14.45,14.45,0,0,0-1.39,2.13l-.9,1.56a1.34,1.34,0,0,0-.23.57,1.7,1.7,0,0,0,.19.57c1,2,1.71,3.65,2.49,5.15.24.44.46.68.8.76l.27,0a.56.56,0,0,1,0,.46,8.08,8.08,0,0,0-1.11,0c-.41,0-.76,0-1.21,0-.07,0-.1-.35,0-.46l.23-.07c.14,0,.24-.09.24-.19a1.7,1.7,0,0,0-.14-.42c-.19-.44-.45-.93-.83-1.72l-.8-1.66c-.56-1.17-.72-1.54-1-1.54s-.17.24-.17.88v2.37c0,1.93,0,2.19.58,2.3l.27,0a.6.6,0,0,1,0,.46c-.48,0-.82,0-1.21,0a11.06,11.06,0,0,0-1.15,0,.59.59,0,0,1,0-.46l.2,0c.52-.15.54-.37.54-2.3Z"/><path class="cls-4" d="M130.19,210c0-1.95,0-2.26-.61-2.35l-.25,0a.63.63,0,0,1,0-.45c.5,0,.84.05,1.26.05s.73,0,1.23-.05a.58.58,0,0,1,0,.45l-.25,0c-.58.09-.6.4-.6,2.35v6.54c0,1.94,0,2.2.6,2.33l.25,0a.6.6,0,0,1,0,.46c-.5,0-.83,0-1.23,0s-.76,0-1.26,0a.64.64,0,0,1,0-.46l.25,0c.59-.13.61-.39.61-2.33Z"/><path class="cls-4" d="M137.49,219.59a2.13,2.13,0,0,1-1.55-.68,14.86,14.86,0,0,1-.27-2.57c.05-.13.2-.16.24-.06.15.94.55,2.74,1.71,2.74.84,0,1.24-1,1.24-2.11a3.71,3.71,0,0,0-.81-2.57l-1-1.14A4.9,4.9,0,0,1,136,210c0-1.74.73-3.15,2-3.15a2.2,2.2,0,0,1,.92.24.82.82,0,0,0,.35.1,14.46,14.46,0,0,1,.18,2.24c0,.11-.2.17-.25.06-.13-.88-.4-2.07-1.35-2.07s-1.19,1.19-1.19,2a3.42,3.42,0,0,0,.85,2.26l.8.92a5.07,5.07,0,0,1,1.24,3.52C139.61,218.21,138.78,219.59,137.49,219.59Z"/><path class="cls-4" d="M144.38,209.93c0-1.91,0-2.18-.61-2.31l-.15,0a.58.58,0,0,1,0-.45c.43,0,.77.05,1.18.05h1.87a7.93,7.93,0,0,0,1.34-.05c.06.31.12,1.63.16,2.44a.14.14,0,0,1-.25,0c-.15-.86-.24-1.5-.75-1.74a2.7,2.7,0,0,0-1-.11h-.71c-.3,0-.3,0-.3.73v3.67c0,.52,0,.52.33.52h.57a2.15,2.15,0,0,0,.85-.11c.12-.08.19-.18.24-.64l.08-.76a.13.13,0,0,1,.25,0c0,.44,0,1.16,0,1.86s0,1.35,0,1.76a.13.13,0,0,1-.25,0l-.09-.72c0-.33-.11-.61-.31-.7a1.94,1.94,0,0,0-.77-.09h-.57c-.3,0-.33,0-.33.5v2.58a5.14,5.14,0,0,0,.19,1.91c.11.22.32.43,1.2.43s1-.08,1.27-.28a5.36,5.36,0,0,0,.71-1.78c.07-.09.21,0,.25.13-.07.64-.32,2-.45,2.55-.9,0-1.78,0-2.67,0h-.89c-.43,0-.77,0-1.35,0a.6.6,0,0,1,0-.46l.32,0c.57-.1.62-.37.62-2.3Z"/><rect class="cls-5" width="380.17" height="475.55"/></g></svg>