<svg xmlns="http://www.w3.org/2000/svg" viewBox="0 0 108 14" preserveAspectRatio="none"><defs><style>.cls-1{fill:#fff;}.cls-2{fill:none;opacity:0.1;}</style></defs><title>アートボード 42</title><g id="letter"><path class="cls-1" d="M6.58,1.32c0,.32,0,1.76.13,2.81,0,.21-.33.29-.41.12-.29-1.67-1-2.57-2-2.57S1.79,3.39,1.79,7,3,12.48,4.32,12.48s1.92-1.56,2.21-2.79c.08-.14.34-.09.41.13a12.94,12.94,0,0,1-.41,2.83,5.32,5.32,0,0,1-2.2.66,3.65,3.65,0,0,1-2.9-1.37A7.37,7.37,0,0,1,.06,7.23a8,8,0,0,1,1.3-4.78,3.69,3.69,0,0,1,3-1.6A8.06,8.06,0,0,1,6.58,1.32Z"/><path class="cls-1" d="M15.7,7.32c-.45,0-.46,0-.46.52v2.59c0,1.67.07,1.84.55,1.94l.35.08a.77.77,0,0,1,0,.63C15.52,13,15,13,14.5,13s-1.06,0-1.61.06a.77.77,0,0,1,0-.63l.26-.06c.49-.11.55-.29.55-2V3.73c0-1.67-.06-1.85-.55-2l-.26-.05a.79.79,0,0,1,0-.64c.53,0,1.09.06,1.61.06s1,0,1.5-.06a.88.88,0,0,1,0,.64l-.23.05c-.46.11-.53.29-.53,2V5.82c0,.52,0,.54.46.54h2.24c.46,0,.46,0,.46-.54V3.73c0-1.67-.06-1.82-.55-1.94l-.3-.07a.88.88,0,0,1,0-.64c.6,0,1.13.06,1.65.06s1,0,1.52-.06a.79.79,0,0,1,0,.64l-.22.05c-.49.13-.56.29-.56,2v6.7c0,1.67.07,1.8.56,1.94l.26.08a.77.77,0,0,1,0,.63c-.54,0-1.07-.06-1.56-.06s-1.07,0-1.59.06a.77.77,0,0,1,0-.63l.24-.06c.49-.11.55-.29.55-2V7.84c0-.51,0-.52-.46-.52Z"/><path class="cls-1" d="M28.78,9c-.25,0-.29,0-.35.36L28,11.4a3.14,3.14,0,0,0-.08.65c0,.11.14.22.44.31l.33.09c.06.12.08.54,0,.63-.38,0-.77,0-1.22-.06s-.62.06-1.12.06a.73.73,0,0,1,0-.63l.29-.06c.26-.05.48-.2.66-.9s.39-1.58.68-2.88l1-4.39a10,10,0,0,0,.39-2.29c.52-.2.92-1.08.94-1.08s.21.09.25.36c.09.52.22,1.19.49,2.47l1.47,7.06c.23,1.08.32,1.49.72,1.6l.41.11a.81.81,0,0,1,0,.63c-.52,0-1.1-.06-1.66-.06s-1,0-1.46.06a.59.59,0,0,1,0-.63l.34-.09c.25-.08.3-.2.3-.31a11.92,11.92,0,0,0-.21-1.22l-.29-1.55C30.53,9,30.45,9,30.07,9ZM30,8c.24,0,.3,0,.21-.52L30,6c-.15-.77-.34-1.75-.44-2.13-.09.42-.3,1.39-.47,2.22l-.27,1.35c-.09.49,0,.54.23.54Z"/><path class="cls-1" d="M39.94,4.06c0-1.81,0-2-.47-2.11l-.3-.07a.62.62,0,0,1,0-.63,23.11,23.11,0,0,1,2.68-.17A3.07,3.07,0,0,1,44,1.73a3.6,3.6,0,0,1,.95,2.67A3.14,3.14,0,0,1,43.8,7.1c-.11.09-.11.2-.06.4A18.21,18.21,0,0,0,45.42,12a1.14,1.14,0,0,0,.72.5.52.52,0,0,1,0,.47,1.74,1.74,0,0,1-.86.16c-1,0-1.62-.59-2.09-1.89-.35-1-.6-1.84-.85-2.79-.13-.49-.3-.63-.57-.63s-.4,0-.4.4v2.21c0,1.66.07,1.78.55,1.93l.29.09a.86.86,0,0,1,0,.63c-.57,0-1.07-.06-1.58-.06s-1,0-1.58.06a.77.77,0,0,1,0-.63l.29-.09c.49-.15.55-.27.55-1.93Zm1.48,2.28c0,.63,0,.69.67.69a.87.87,0,0,0,.82-.51,3.68,3.68,0,0,0,.39-1.94c0-1.62-.57-2.67-1.41-2.67-.45,0-.47.06-.47.92Z"/><path class="cls-1" d="M53.5,9c-.26,0-.3,0-.36.36l-.42,2.09a3.14,3.14,0,0,0-.08.65c0,.11.14.22.44.31l.33.09c.06.12.09.54,0,.63-.38,0-.77,0-1.22-.06s-.62.06-1.12.06a.73.73,0,0,1,0-.63l.29-.06c.26-.05.48-.2.66-.9s.39-1.58.68-2.88l1-4.39A10.83,10.83,0,0,0,54,1.93c.51-.2.91-1.08.94-1.08s.2.09.24.36c.09.52.22,1.19.49,2.47l1.47,7.06c.23,1.08.32,1.49.72,1.6l.41.11a.81.81,0,0,1,0,.63c-.52,0-1.1-.06-1.66-.06s-1,0-1.46.06a.59.59,0,0,1,0-.63l.34-.09c.25-.08.3-.2.3-.31a11.92,11.92,0,0,0-.21-1.22L55.3,9.28c0-.29-.14-.33-.52-.33ZM54.73,8c.25,0,.3,0,.21-.52L54.66,6c-.15-.77-.34-1.75-.44-2.13-.09.42-.3,1.39-.47,2.22l-.27,1.35c-.09.49,0,.54.23.54Z"/><path class="cls-1" d="M70.38,1.32c0,.32,0,1.76.13,2.81-.05.21-.34.29-.41.12-.3-1.67-1-2.57-2-2.57-1.2,0-2.49,1.71-2.49,5.29s1.24,5.51,2.54,5.51,1.91-1.56,2.2-2.79c.09-.14.35-.09.41.13a12.34,12.34,0,0,1-.41,2.83,5.27,5.27,0,0,1-2.19.66,3.66,3.66,0,0,1-2.91-1.37,7.44,7.44,0,0,1-1.37-4.71,8,8,0,0,1,1.31-4.78,3.69,3.69,0,0,1,3-1.6A8.26,8.26,0,0,1,70.38,1.32Z"/><path class="cls-1" d="M79,2.49c0-.43,0-.52-.26-.52h-.67c-.79,0-1,.72-1.34,2a.24.24,0,0,1-.4-.16c.22-1.24.28-2.36.35-3.06a.24.24,0,0,1,.15-.09A.21.21,0,0,1,77,.76c0,.31.08.38.9.38h4c.72,0,.88,0,1-.4A.24.24,0,0,1,83,.69a.21.21,0,0,1,.17.13A20.79,20.79,0,0,0,83,3.91c-.05.17-.34.2-.39.06-.19-1.16-.34-2-1.15-2h-.65c-.26,0-.29.05-.29.52v7.94c0,1.67.06,1.82.55,1.93l.43.09a.86.86,0,0,1,0,.63c-.7,0-1.24-.06-1.73-.06s-1.08,0-1.83.06a.77.77,0,0,1,0-.63l.48-.09c.49-.09.56-.26.56-1.93Z"/><path class="cls-1" d="M91.4,5.82c0,.51,0,.54.31.54h.74c.56,0,.69-.12.8-1l0-.45c.08-.14.35-.14.4,0,0,.57,0,1.22,0,1.91s0,1.33,0,1.9a.22.22,0,0,1-.4,0l0-.45c-.11-.86-.24-1-.8-1h-.74c-.3,0-.31,0-.31.55V10a5.18,5.18,0,0,0,.18,1.71c.14.32.34.46,1.13.46.94,0,1.31,0,1.9-2.08.09-.2.36-.13.4.09a15.89,15.89,0,0,1-.45,2.88C94,13,93,13,92.06,13h-1.4c-.52,0-1,0-1.86.06a.77.77,0,0,1,0-.63l.51-.13c.48-.13.55-.23.55-1.89V3.71c0-1.63-.07-1.74-.55-1.9L89,1.72a.69.69,0,0,1,0-.64c.51,0,1,.06,1.55.06H92.9a10.21,10.21,0,0,0,1.45-.06c0,.29.09,1.59.14,2.8a.22.22,0,0,1-.4.07,5.67,5.67,0,0,0-.41-1.42A1.11,1.11,0,0,0,92.62,2h-.86c-.36,0-.36,0-.36.7Z"/><path class="cls-1" d="M101.66,4.06c0-1.81,0-2-.47-2.11l-.29-.07a.6.6,0,0,1,0-.63,23.11,23.11,0,0,1,2.68-.17,3.07,3.07,0,0,1,2.11.65,3.6,3.6,0,0,1,1,2.67,3.14,3.14,0,0,1-1.14,2.7c-.11.09-.11.2,0,.4a17.91,17.91,0,0,0,1.67,4.5,1.14,1.14,0,0,0,.72.5.52.52,0,0,1,0,.47,1.74,1.74,0,0,1-.86.16c-1,0-1.62-.59-2.09-1.89a26.89,26.89,0,0,1-.84-2.79c-.13-.49-.31-.63-.58-.63s-.4,0-.4.4v2.21c0,1.66.07,1.78.55,1.93l.3.09a1,1,0,0,1,0,.63c-.58,0-1.07-.06-1.59-.06s-1,0-1.58.06a.77.77,0,0,1,0-.63l.29-.09c.49-.15.55-.27.55-1.93Zm1.48,2.28c0,.63,0,.69.67.69a.87.87,0,0,0,.82-.51A3.68,3.68,0,0,0,105,4.58c0-1.62-.57-2.67-1.41-2.67-.45,0-.47.06-.47.92Z"/><rect class="cls-2" width="108" height="14"/></g></svg>