<svg xmlns="http://www.w3.org/2000/svg" viewBox="0 0 380.17 475.55"><defs><style>.cls-1,.cls-2,.cls-3,.cls-5{fill:none;}.cls-1,.cls-2,.cls-3{stroke:#000;}.cls-1{stroke-width:0.5px;}.cls-2{stroke-width:0.4px;}.cls-3{stroke-width:0.44px;}.cls-4{fill:#fff;}.cls-5{opacity:0.12;}</style></defs><title>アートボード 36</title><g id="letter_ol"><path d="M48.94,55.62l.91-1.87c.33-.66.38-.66.45-.66s2.86,3,2.86,3.78c0,.22,0,.4-.93.88v26.6c0,.81,0,.85-.55.92l-1.93.22c-.35,0-.52,0-.52-.7V82H36.35v2.67c0,.63,0,.81-.48.85l-1.95.22c-.58.07-.58-.15-.58-.7V54.37a16,16,0,0,1,3.39,1.25ZM36.35,56V68.28h5V56Zm0,12.7V81.56h5V68.72ZM44.29,56V68.28h4.94V56Zm0,12.7V81.56h4.94V68.72Z"/><path d="M62.82,61.86l-.09-.44h3.86V52.5c.67.11,1.86.29,3.29.66.22.07.38.18.38.37s-.07.22-.74.48v7.41h.29L71,58.92c.16-.36.19-.4.26-.4a17.1,17.1,0,0,1,1.93,3c0,.26-.09.3-.17.3H69.52v4.62c3.27,1.14,3.84,3.38,3.84,4.81,0,1.28-.45,2.94-1.9,2.94-.48,0-.53-.26-.58-.85a20.36,20.36,0,0,0-1.36-6.46V85.49c0,.63,0,.81-.45.85l-1.91.18c-.55,0-.57.07-.57-.59V72.68a23.64,23.64,0,0,1-4.53,7.2c2.29-4.55,3.81-13.58,4.22-18Zm10.23,3.08c2.82,2,4.51,4.37,4.51,6.86,0,2-1,3.12-2.17,3.12-.6,0-.69-.22-.74-1.06A27.4,27.4,0,0,0,73,65Zm8.52-3.52,1.21-2.86c.15-.33.17-.41.24-.41a18.46,18.46,0,0,1,2,3.45c0,.22-.1.26-.19.26H81.43v20.7c0,1.68,0,3.81-3.51,3.81-.55,0-.6-.29-.6-.88,0-1.72,0-3.12-2.38-4.44v-.11c1,.15,2.76.22,2.79.22.71,0,.71-.22.71-1.76V61.86H73.91l-.12-.44h4.65v-9c1.08.19,3.34.59,3.53.7s.22.11.22.26,0,.26-.76.55v7.45Z"/><path d="M99.62,85.75a13.67,13.67,0,0,0,4.84-5.58c-1.81-1.43-2.76-3.52-2.76-10.24,0-1.69,0-2.16.28-6.64a25.52,25.52,0,0,0-3.24,11.82,10.69,10.69,0,0,0,.86,4.4,2.2,2.2,0,0,1,.24.88c0,.92-.51,1.87-1.46,1.87-.55,0-1.1-.25-1.79-1.47s-2-3.74-2-8.73a103.57,103.57,0,0,1,1.1-11.6,22.4,22.4,0,0,0,.19-2.78,14.84,14.84,0,0,0-.67-4.15,10.19,10.19,0,0,1,3.22,7.37,15.31,15.31,0,0,1-.52,3.53,51,51,0,0,0-1.15,8.11c0,.22,0,1.65.38,1.65.12,0,.15-.15.48-1.51.67-2.56,3.17-12.33,8.4-13.61-.08-1.51-.2-3.52-1.53-3.52-.36,0-.57.18-.88.51.24-.81.88-2.83,2.1-2.83a2.54,2.54,0,0,1,2.55,2.65c0,.51-.1,2.68-.1,3.12,1.41.25,6,1.1,6,11.34,0,11.52-6.75,10.93-7.25,10.86-2,3.3-5.63,4.33-7.34,4.69Zm6.58-19.49c0-.81,0-4-.14-6.53a6.67,6.67,0,0,0-3.7,3c0,1.32-.07,2.68-.07,4,0,4.19.12,9.1,3.27,10.31C106.2,74.12,106.2,68.32,106.2,66.26ZM108.64,72a32.63,32.63,0,0,1-.31,4.88c1-.48,3.14-1.5,3.14-8.33,0-5.36-1.74-7.85-3.24-8.55C108.49,66.15,108.64,69.05,108.64,72Z"/><path d="M128.72,78.7c.47.7,1.52,2,2.36,2,3,0,4-10.09,4-13.73,0-.91,0-3.26-1.33-3.26-.39,0-1,.4-2.17,1.28-1.74,7.56-3.77,16.48-5,18.9-.45.88-.91,1.32-1.5,1.32-.88,0-1.24-1.5-1.24-4,0-.59,0-.66.52-1.25a25.66,25.66,0,0,0,2.17-5.17c.91-2.76,1.27-4.19,2.17-7.86a6.19,6.19,0,0,1-2.69,1.18c-.95,0-1.77-1.21-1.77-2.65a9.07,9.07,0,0,1,1.13-3.63c.07,1.54.11,2.2,1,2.2a10.62,10.62,0,0,0,3.13-.66A63.83,63.83,0,0,0,131,55.84c0-.88-.45-1.06-.67-1.06a.52.52,0,0,0-.29.07c0-1.87,1.29-2,1.79-2A2.4,2.4,0,0,1,134,55.14a9.15,9.15,0,0,1-.52,2.17c-.26,1-.62,2.46-1.27,5.17a6.62,6.62,0,0,1,1.51-.29c.57,0,3.93.33,3.93,7.78,0,5-1.81,15.23-5.75,15.23a2.18,2.18,0,0,1-2.26-2.09,16.22,16.22,0,0,0-.91-4.33ZM140,61.49c3.15,0,4.65,3.49,4.65,6.64,0,3.78-1.67,4.22-2,4.22-1.14,0-1.14-1.76-1.14-2.31,0-5-.29-7.89-3.25-8.33A7.6,7.6,0,0,1,140,61.49Z"/><path d="M156.26,86.45c3.77-1.18,6.51-3.34,6.51-14.87,0-.73,0-6.71-.67-8.66-.14-.4-.35-.73-.81-.73-1.69,0-3.22,6.6-3.22,12.33a11.77,11.77,0,0,0,.24,2.57,3.84,3.84,0,0,1,.07.69A1.5,1.5,0,0,1,157,79.36c-2,0-2.41-4.8-2.41-8.47,0-4,.46-6.13,2-12a24.92,24.92,0,0,0,.91-4.48c0-1.07-.53-1.18-1.19-1.29a1.9,1.9,0,0,1,1.43-.73c.81,0,2.43.59,2.43,3.78a7.47,7.47,0,0,1-.74,3.49c-1.55,3.34-3,6.42-3,11.37,0,.22,0,.92.22.92s.14-.07.31-.92a33.07,33.07,0,0,1,3.17-8.55,2.52,2.52,0,0,1,2-1.28c1.76,0,2.65,2.71,2.84,3.3a34.7,34.7,0,0,1,.83,8.18c0,5.73-.38,11-5.77,13.18a9.31,9.31,0,0,1-3.72.7Z"/><path d="M44.13,143.59l.9-2.09c.37-.89.54-1.27.79-1.27s.45.26.61.51c.33.44,1.89,2.4,2.26,2.85H66.42l2.14-4.31c.2-.38.33-.76.45-.76s4.56,4.62,4.56,5.38c0,.45-.2.45-.41.45H69.34v43.33c0,3.67,0,5.31-1,6.52-1.6,1.89-4.85,2.46-5.63,2.46s-1-.31-1-2.08c0-4.5-1.32-5.25-4.24-7l0-.25c1.89.19,3.94.32,5.83.32.79,0,.83-.45.83-1.59V144.35H49.27c1,1.32,1.44,1.83,1.44,2.59s-.17.69-1.65,1.2c-.37.89-.86,2-1.64,3.54-.58,1.21-3.78,6.46-4.48,7.72,6,6.9,6.37,12.65,6.37,15.56,0,4-1.11,6-2.3,7.22A5.88,5.88,0,0,1,43.59,184c-.49,0-.49-.19-.49-2.21,0-1.52,0-3.86-1.6-5v18.47c0,1.27-.33,1.39-.78,1.46l-3.42.38c-.82.06-.82-.51-.82-1.08V141.69c2.63.82,4.48,1.58,5.31,1.9Zm-2.63.76v31.31c.16,0,.45.06.86.06,1.56,0,2.8-.88,2.8-5.25,0-5.31-1.52-8.54-2.92-11.64a86.31,86.31,0,0,0,2.18-14.48ZM57,153.71l1.32-2.6c.49-.94.57-1.07.74-1.07.37,0,4.19,4.55,4.19,5.44a1.22,1.22,0,0,1-.45,1c-.41.44-.49.5-.78.82v20.62c0,1.21-.13,1.52-.7,1.59l-3.33.38c-.41.06-.7.06-.7-1.14v-4.43H54.9v6.39c0,1.26,0,2-.82,2l-2.84.32c-.78.06-1.07.12-1.07-1.2V152.06c1.2.32,4.24,1.39,5,1.65Zm-2.1.76v19h2.39v-19Z"/><path d="M114.58,159.53l1.56-3.48c.37-.82.53-1.14.78-1.14.53,0,5.18,5.5,5.18,6.26a1.22,1.22,0,0,1-.53,1,6.31,6.31,0,0,0-1.16.7c0,6.07-.41,21.82-2.3,28.15-1.19,4-4.23,6.07-7.28,6.07-1.68,0-1.68-.95-1.68-1.89,0-4.62,0-5.07-4-7.91V187a37.92,37.92,0,0,0,5.76,1c2,0,2.59-1.21,3.08-4.68,1.11-7.66,1.11-20,1.11-23h-9.38c-.86,16-4.6,32.2-17.35,37.32l-.08-.19c2.14-2.15,8.72-8.73,11-24.73,1.11-7.78,1.15-11.83,1.15-28.22h-12l-.2-.76H119l2.5-5.12c.21-.44.37-.76.58-.76.49,0,4.44,5.5,4.44,6.14s-.29.5-.53.5H106c0,4.3,0,10.12-.25,15.06Z"/><path d="M170.22,146.62l2.42-5c.25-.5.33-.76.5-.76a54.11,54.11,0,0,1,4.48,5.95c0,.45-.17.51-.33.51h-10c2.3,1.58,4.15,2.85,4.48,3.1a.55.55,0,0,1,.33.51c0,.37-.33.37-.54.37s-.9.07-1.07.07c-.57,1-2,3.1-3.16,4.87-.83,1.2-2.76,3.86-4,5.31h8.8l2.55-5.37c.12-.32.33-.76.49-.76s4.65,5.63,4.65,6.39c0,.44-.16.5-.29.5H142.13l-.2-.76h20.6c.45-2,2.09-11.83,2.34-14.23H151.22c3,1.58,6.74,5,6.74,9.49,0,3.22-2,4.62-4,4.62-1.15,0-1.19-.64-1.31-3.36a36.26,36.26,0,0,0-2.06-10.75h-6l-.21-.7h13.78V138.4c1.31.12,4.36.38,5.92.7.29.06.58.12.58.5s-.33.63-1.24.89v6.13Zm-3.09,22.08,1.48-3.48c.41-.95.46-1,.62-1,.33,0,5.14,5,5.14,6.14,0,.75-.16.88-1.6,1.83V195c0,.95-.17,1.14-.83,1.2l-3.57.38c-.7.06-.83-.13-.83-1.26v-3.93h-13.2v3.42c0,1,0,1.26-.9,1.39l-3.5.38c-.65.06-.82.06-.82-1.14v-29.1a36.09,36.09,0,0,1,5.72,2.34Zm-12.79.76v9.87h13.2v-9.87Zm0,10.63v10.63h13.2V180.09Z"/><path d="M205.67,158.07l1.72-3.54c.5-1,.62-1,.75-1,.45,0,3.9,4.11,3.9,4.87,0,.44-.24.44-.53.44h-4.69v8.1h.57l1.81-4.05c.13-.25.42-.88.62-.88s.49.37,1.15,1.32a114.11,114.11,0,0,0,6.42-25.3c.12.06,5.47,1.71,6,1.9s.91.38.91.76c0,.69-.87.82-1.61.88a19.7,19.7,0,0,0,11.76,14.17V156a9.46,9.46,0,0,0-2.3,5.44c-.2,1.89-.24,2.53-.86,2.53-1.4,0-8.1-6.52-8.88-21.64a57.06,57.06,0,0,1-11,21.76,19.26,19.26,0,0,1,1.6,3.1c0,.51-.25.51-.49.51h-5.76V185.4l7.81-1.45v.38a79.25,79.25,0,0,1-17,12.08c-.58-2.28-1.44-6.52-1.85-9l6.41-1.13V167.69h-6.74l-.17-.76h6.91v-8.1h-2.59a31.35,31.35,0,0,1-4.48,5.7l-.12-.13c2.5-6.14,5.47-17.72,6.78-26.13,1,.38,5.39,2,6.29,2.34.46.13.74.32.74.7,0,.63-1.23.76-1.64.82l-.08.25c5.26,1.46,6.66,4.18,6.66,7.47,0,3.1-1.73,4.36-3.21,4.36-.86,0-1-.44-1.19-2.34a24.86,24.86,0,0,0-2.51-8.66A68.82,68.82,0,0,1,200,158.07Zm-9.46,11.77a11.53,11.53,0,0,1,5.59,9.87c0,3.54-2.55,4.11-3.29,4.11-1,0-1.15-.89-1.15-2.59A73.3,73.3,0,0,0,196.17,170ZM207,183.19a110.09,110.09,0,0,0,2.14-13.35c.87.44,4.69,2.72,5.39,3.1.08.06.54.32.54.7,0,.56-.42.63-.7.63h-.83a40.09,40.09,0,0,1-6.37,9ZM225.61,169l1.11-2.6c.46-1,.7-1.51,1-1.51.49,0,3.29,3.73,4,4.68.54.69.7.95.7,1.39s-1.11,1.39-1.6,1.77v12.4c0,2.4,0,6.26-4.61,6.26-1.36,0-1.36-.63-1.36-2.21,0-3.92-1.31-5-3.49-5.88v11.83c0,1.32-.21,1.51-.82,1.58l-3.34.31c-.65.07-.86-.25-.86-1.2V169.78H212l-.2-.76Zm-4-7.72,1.65-3.42c.16-.38.49-1,.7-1,.45,0,3.58,4,3.58,4.68s-.25.51-.5.51H214.47l-.21-.76Zm-.24,8.48v13c.45,0,3,.12,3.29.12,1.19,0,1.19-.88,1.19-2.27V169.78Z"/><path d="M261.64,143.46H249.06l-.21-.76h12.5l1.65-3c.53-.95.57-1.07.82-1.07.45,0,4.69,5.31,4.81,5.88,0,.06,0,.13,0,.19,0,.76-.9,1.58-1.93,1.9v43.08c0,1.52,0,4.3-1.85,5.7a7.91,7.91,0,0,1-4.16,1.26c-1,0-1-.32-1.11-3.42-.08-3.48-2.13-4.87-4.36-5.94v-.19c.58.06,4.94.38,5.27.38,1.11,0,1.11-.51,1.11-1.84V167.31a95.58,95.58,0,0,1-10.73,16.2c-.29-1.21-1.32-5.38-2.1-9.68,1.93-1.08,4.65-2.79,6.91-4.24l5.92-3.8Zm-11.43,5.25c2.63.89,8.92,3.1,8.92,9.93,0,3.67-2.18,4.87-3.78,4.87-.83,0-.91-.57-1.32-3-1.11-6.9-2.59-9.81-3.78-11.58Zm29.56-5.25h-11l-.2-.76h10.85l1.77-3.42c.33-.63.58-1.13.83-1.13a21.05,21.05,0,0,1,2.42,2.91c1,1.2,2.22,2.84,2.22,3.47,0,1.08-1.44,1.65-1.81,1.78V189.2c0,2.91,0,4-.61,5.19-.95,1.77-3.75,2.53-5.14,2.53-.95,0-1-.64-1-1.4,0-4,0-5.94-4.48-7.84v-.19c1.27.13,4.4.38,5.3.38s.86-.38.86-2.21V166.74a94.56,94.56,0,0,1-9.29,16.38,79.71,79.71,0,0,1-2.3-9.36,112.07,112.07,0,0,0,11.59-8.54Zm-11.39,5.25c5.92,1.83,8.72,4.87,8.72,9.55s-2.67,5.06-3.37,5.06c-1.11,0-1.32-.88-1.48-2-.62-4.37-2-9.49-3.95-12.34Z"/><path d="M39.69,241.76l.64-1.43c.05-.12.08-.19.12-.19a12.09,12.09,0,0,1,1.22,1.68c0,.13-.07.13-.14.13H37.78a7,7,0,0,0,4.07,4.76v.06a2,2,0,0,0-.84,1.66c0,.39-.09.52-.23.52a4,4,0,0,1-1.29-1.12c-1.21-1.49-1.69-4-1.85-5.88h-.12v7.68c0,.2,0,.36-.17.37l-.88.11c-.21,0-.26,0-.26-.28V244a11.25,11.25,0,0,1-4.13,5.22l0,0A20,20,0,0,0,35.33,242H32.14l-.06-.19h4.13v-3.2h-3.3l-.06-.19h3.36v-3.06c.86.13,1,.14,1.45.24.05,0,.17,0,.17.16s-.07.14-.31.22v2.44h1.64l.63-1.27c.05-.09.09-.19.12-.19A9.49,9.49,0,0,1,41,238.43c0,.13-.07.13-.13.13H37.52v3.2Z"/><path d="M53.25,242.61l.63-1.39c0-.13.08-.2.12-.2a8.81,8.81,0,0,1,1.19,1.65c0,.11-.06.11-.14.11H51.14a5.48,5.48,0,0,0,4.14,4.37v.07c-.52.16-.66.81-.79,1.6,0,.22-.08.43-.33.43-.08,0-2-.82-2.74-4a13.56,13.56,0,0,1-.35-2.44H51v6.84c0,.32,0,.41-.29.45l-.72.08c-.23,0-.3,0-.3-.34v-4.88a10,10,0,0,1-4.11,4.46v0A18.39,18.39,0,0,0,49,242.78H45.6l-.05-.17h4.1V238h-3.5l-.06-.19h3.56v-2.48a13.53,13.53,0,0,1,1.52.27.19.19,0,0,1,.13.16c0,.13,0,.13-.34.22v1.83h1.71l.61-1.35c.08-.16.1-.2.13-.2a9.58,9.58,0,0,1,1.22,1.61c0,.13-.08.13-.14.13H51v4.66Zm-6.43-4.16a2.64,2.64,0,0,1,2.11,2.49c0,1.11-.77,1.27-.89,1.27s-.19-.08-.23-.32a13.35,13.35,0,0,0-1-3.4Zm4.36,4.06a32.39,32.39,0,0,0,1-4.1c.18.1,1.47.8,1.58.92a.2.2,0,0,1,.1.17c0,.15,0,.15-.39.13a12.83,12.83,0,0,1-2.31,2.93Z"/><path d="M61.41,246.72c.21.31.67.85,1,.85,1.34,0,1.77-4.4,1.77-6,0-.4,0-1.42-.58-1.42-.17,0-.42.17-1,.56A66.43,66.43,0,0,1,60.51,249c-.2.39-.4.58-.66.58s-.54-.66-.54-1.73c0-.26,0-.29.23-.54a11.57,11.57,0,0,0,1-2.26c.39-1.2.55-1.83.94-3.43a2.63,2.63,0,0,1-1.17.52c-.42,0-.77-.53-.77-1.16a3.87,3.87,0,0,1,.49-1.58c0,.67.05,1,.46,1A4.8,4.8,0,0,0,61.8,240a27.57,27.57,0,0,0,.59-3.28c0-.39-.2-.46-.29-.46a.21.21,0,0,0-.12,0c0-.82.56-.87.78-.87a1,1,0,0,1,.94,1,3.94,3.94,0,0,1-.23.95c-.11.43-.27,1.07-.55,2.26a2.47,2.47,0,0,1,.66-.13c.25,0,1.72.14,1.72,3.39,0,2.16-.79,6.64-2.51,6.64a1,1,0,0,1-1-.91,7,7,0,0,0-.4-1.89Zm4.91-7.51c1.37,0,2,1.52,2,2.9,0,1.65-.72,1.84-.88,1.84-.5,0-.5-.77-.5-1,0-2.17-.12-3.44-1.41-3.63A3.07,3.07,0,0,1,66.32,239.21Z"/><path d="M73.36,249.86a5.91,5.91,0,0,0,2.88-1.23,4.12,4.12,0,0,0,1.24-3.16c0-1.36-.49-2.4-1.09-2.4s-1.56,2-2,3.27c-.15.43-.33,1-.87,1-.14,0-.89-.08-.84-1.32,0-.09.14-3,.17-4a4.84,4.84,0,0,1,.69-2.77,2.29,2.29,0,0,1,1.85-1.41c.32,0,.49-.11.49-.51,0-.55-.33-1-1-1.83.18.06,1,.26,1.15.31a1.87,1.87,0,0,1,1.34,2c0,.18,0,1.2-.58,1.2-.22,0-.29-.09-.57-.41a1.22,1.22,0,0,0-1-.51c-.94,0-1.33,1.26-1.33,1.84,0,.16.07.83.07,1a13.83,13.83,0,0,1-.22,1.72,9.51,9.51,0,0,0-.12,1.48c0,.23,0,.55.2.55s.24-.13.37-.29c.56-.67,1.49-1.73,2.5-1.73,1.29,0,2.14,1.6,2.14,3.49a3.47,3.47,0,0,1-1.15,3,6.82,6.82,0,0,1-3.58.8,6.11,6.11,0,0,1-.74,0Z"/><path d="M87.9,242.83a1.71,1.71,0,0,0,1.34.83,2.38,2.38,0,0,0,2.2-2.56c0-1.33-.66-2-1.21-2-.76,0-2.06,1.33-3.43,2.82.64,1.39,1.89,4.23,1.89,5.92,0,1.19-.42,1.89-.92,1.89s-.41-.35-.43-1a18.75,18.75,0,0,0-1.24-6c-.17.21-.79.93-.95,1.09a1.16,1.16,0,0,1-.71.4c-.7,0-1.18-.83-1.18-1.73a4.8,4.8,0,0,1,.25-1.23c.09.48.18,1,.6,1,.27,0,.38-.1,1.42-.87-.11-.24-.71-1.28-.82-1.5a1.51,1.51,0,0,1-.22-.82c0-1,.55-1.53,1-1.53a1.91,1.91,0,0,1,.63.28,3.54,3.54,0,0,0,1.16.47c.21,0,.34-.08.34-.55a1.8,1.8,0,0,0-.89-1.44,3.3,3.3,0,0,1,1.43.27,2.2,2.2,0,0,1,.84,1.7,2,2,0,0,1-.17.77,2.7,2.7,0,0,1,1.51-.61c1.13,0,2.27,1.39,2.27,3.3,0,2.54-1.59,3.41-2.63,3.41s-1.59-.93-2.08-2.31Zm-.52-3.68a2,2,0,0,0-1.46-1c-.31,0-.37.36-.37.57,0,.43,0,.53.76,2.15l1.43-1.08C87.65,239.63,87.47,239.29,87.38,239.15Z"/><path d="M100.1,249.14a4.66,4.66,0,0,0,3.1-4.37c0-.16,0-2.79-1.53-2.79-.85,0-2.3,1.24-3.1,2.15-.36.41-.56.64-.91.64-.52,0-.9-.59-.9-1.51a2.54,2.54,0,0,1,.1-.75.66.66,0,0,0,.56.55c.14,0,.31-.07.85-.44,1.53-1,2.58-1.71,3.61-1.71s2.5,1.41,2.5,4-1.29,3.35-1.68,3.56a5.89,5.89,0,0,1-2.59.69Z"/><path d="M109.45,238.16a15.56,15.56,0,0,0,1.5-.43c1.24-.36,2.47-.64,3.71-.88a1.38,1.38,0,0,0,.79-.39c.06-.05.1-.08.15-.08s1.43.53,1.43,1.46c0,.3-.15.72-.47.72a1.77,1.77,0,0,1-.6-.16,3.49,3.49,0,0,0-1-.16,2,2,0,0,0-1.85,1.52,14.47,14.47,0,0,0-.62,4.51c0,2.8.86,3.11,2,3.52.39.15.76.29.76,1.17,0,.19,0,1-.59,1a3.44,3.44,0,0,1-1.35-.43c-1.18-.67-1.77-1.84-1.77-4.48,0-2.84.79-5.49,2-6.65a8.92,8.92,0,0,0-3.09,1.33c-.46.31-.53.34-.71.34-.66,0-1.1-.91-1.1-1.84a2.54,2.54,0,0,1,.14-.93C108.86,237.71,109,238.16,109.45,238.16Z"/><path d="M126.08,239.89a1.59,1.59,0,0,0,1,.33l.76,0c.19,0,.52,0,.52.56a1.6,1.6,0,0,1-.42,1.06,4.1,4.1,0,0,1-1.48.73c.19.61.35,1.09.56,1.65a4.19,4.19,0,0,1,.4,1.43c0,.8-.17,1.68-.7,1.68-.36,0-.46-.23-.69-.71a2.86,2.86,0,0,0-2.22-1.65c-1,0-1.47.9-1.47,1.78,0,1.11.51,1.15,1.14,1.15.33,0,1.8-.16,2.1-.16.52,0,.79.47.79,1.14,0,.45,0,1-1.78,1-3,0-3.26-1.54-3.26-2.69,0-2.15,1.39-2.5,2.17-2.5a4.84,4.84,0,0,1,1.85.51,1.47,1.47,0,0,0,.5.13c.23,0,.35-.1.35-.37a17.62,17.62,0,0,0-.43-2.14,9,9,0,0,1-2.18.43c-.34,0-1.28,0-1.28-1.36a2,2,0,0,1,.64-1.55,1.88,1.88,0,0,0-.2.75c0,.56.35.61.63.61a8.88,8.88,0,0,0,2-.43c0-.08-.24-.87-.5-1.69a4.7,4.7,0,0,1-1.67.34c-1.52,0-1.64-1.28-1.68-2,.39.59.61.72,1,.72a4,4,0,0,0,1.81-.67c-.29-.77-.55-1.44-1.36-1.62.1-.77.54-.91,1-.91s.62.17.77.82.15.73.3,1.26a.84.84,0,0,1,.54-.21.89.89,0,0,1,.91.9c0,.54-.47.83-1,1.1.27,1,.3,1.09.5,1.75.36-.15.55-.23.55-.48s-.3-.48-.42-.6Z"/><path d="M136.11,237.76c.08.16.12.16.48.19s.5.21.5.7c0,.76-.56,1.16-1.73,1.8-.17,1.82-.22,2.22-.3,2.73.16-.28.87-1.6,1-1.84,1.27-2.06,2.21-2.25,2.82-2.25a1.8,1.8,0,0,1,1.93,1.79c0,.46-.22.91-.54.91a.31.31,0,0,1-.2-.06c-.41-.23-.52-.29-.7-.29-.39,0-.67.21-1.35.74v-.07a2.44,2.44,0,0,0,.66-1.22c0-.16-.08-.62-.76-.62s-2.11.88-3.11,4.77a26.16,26.16,0,0,0-.73,3.75c-.1.88-.61.92-.79.92-.45,0-.57-1.18-.57-1.56a2.28,2.28,0,0,1,.3-1.08,27.52,27.52,0,0,0,1.26-6.06,1.8,1.8,0,0,1-.74.19c-1.09,0-1.18-1.76-1.18-2.1a.9.9,0,0,0,.76.48,4.64,4.64,0,0,0,1.36-.49c.05-.58.15-1.65.15-2.18s0-.78-.5-.9a.94.94,0,0,1,.81-.67c.48,0,.85.69.85,1.1,0,.18-.14,1-.17,1.16,0,.4-.05.46-.09.86.39-.27.45-.35.51-.7Zm.64,8.4c0,.71.27,1.39,1.13,1.39a6.3,6.3,0,0,0,1.35-.2c.05,0,.69-.2.73-.2.4,0,.65.68.65,1.22,0,.91-.76,1.14-1.83,1.14-1.24,0-2.36-.15-2.36-2.37a7.72,7.72,0,0,1,.59-2.85A8.63,8.63,0,0,0,136.75,246.16Z"/><path d="M144.85,249.55a13.42,13.42,0,0,0,4.44-5.66,7.14,7.14,0,0,0-1.7-1.92,4.23,4.23,0,0,1,2.21.61,23,23,0,0,0,.89-3.48l-2.09.55a8.75,8.75,0,0,1-3.63,4.29v-.07a15,15,0,0,0,3-6.78c0-.44-.23-.52-.58-.58.17-.24.46-.67.87-.67s1.43.78,1.43,1.18a.3.3,0,0,1-.19.29c-.23.74-.34,1.06-.46,1.36a3.43,3.43,0,0,0,1.75-.48c.11-.1.52-.59.63-.59a3,3,0,0,1,1.17,1.52c0,.29-.06.32-.57.69a29.53,29.53,0,0,1-1.11,3.69,2.55,2.55,0,0,1,.61,1.52c0,.47-.19,1.08-.68,1.08-.3,0-.38-.16-.72-.83a8.77,8.77,0,0,1-5.21,4.35Z"/><path d="M156.32,246.39c3.15-3,5.64-8.63,5.64-9.46,0-.16,0-.41-.58-.85a1.65,1.65,0,0,1,.71-.26c.62,0,1.47,1.11,1.47,1.81,0,.21,0,.24-.25.46a27,27,0,0,0-1.57,2.77c.15.13.48.39.48.68a2.84,2.84,0,0,1-.06.44,7.48,7.48,0,0,0-.1,1.73c0,.8.14,4.77.14,5,0,.86-.37,1.18-.59,1.18-.64,0-.8-1.52-.8-1.84s.11-1.21.12-1.4c0-.47.08-1.32.08-3,0-.52,0-1,0-1.54a12.76,12.76,0,0,1-4.65,4.37Z"/><path d="M174.6,245.79a11,11,0,0,0-1.37-3.5,5.75,5.75,0,0,1,3.07,4.7c0,1.08-.56,1.44-.88,1.44s-.46-.4-.48-.52-.19-1.36-.24-1.59c-.14.08-4,1.51-4.57,1.62-.34.06-.36.09-.67.38a.33.33,0,0,1-.21.11,3,3,0,0,1-1.15-2.06,2,2,0,0,1,.34-1c.17.91.48.9,1.24.88a53.56,53.56,0,0,0,1.63-8.93c0-.22,0-.64-.61-.56a1.14,1.14,0,0,1,1-.7c.41,0,1.33.57,1.33,1.1a2,2,0,0,1-.24.66c-.09.22-.46,1.76-.54,2.08-.17.59-1.11,4-1.92,6.32C172.26,246.05,172.5,246,174.6,245.79Z"/><path d="M185.67,243.26c0,.69-.28,1.17-.7,1.17s-.44-.29-.81-1.1a5.85,5.85,0,0,0-1.73-2.16c0,1.68,0,2.88,0,3.61,0,.57.2,3,.2,3.51S182.54,250,182,250s-.78-1.3-.87-2.24a43.7,43.7,0,0,0,.31-6.07c0-.52,0-4-.09-4.48-.06-.33-.24-.61-.57-.61a.69.69,0,0,0-.32.08c.22-.56.6-1.07,1-1.07s1.3.23,1.3,1c0,.2-.17,1-.19,1.14-.06.58-.09,2.4-.09,3.12C184.2,241,185.67,241.81,185.67,243.26Z"/><path d="M189.7,249.75c1.1-.52,4.51-2.08,5.72-8.52a15.55,15.55,0,0,0-4,1.27,2.37,2.37,0,0,1-.54.3,2.39,2.39,0,0,1-1.28-1.82,2.75,2.75,0,0,1,.28-1c.29,1,.72,1,1,1s4-.29,4.57-.72c.1-.06.44-.61.53-.61s1.25,1.14,1.25,1.64c0,.27-.17.43-.52.75-.63,2.61-2.13,7.28-7,7.82Zm2.49-12.86a3.69,3.69,0,0,0,2.61-.88c.26.08,1.2.55,1.2,1.09,0,.26-.16.69-.31.74s-3.2.45-3.46.45c-1,0-1.22-.84-1.5-1.93A1.72,1.72,0,0,0,192.19,236.89Z"/><path d="M202.25,241.7c.31,0,.9-.72,2.4-2.57.26-.32.4-.41.51-.41s.41.25.79.77a24.42,24.42,0,0,0,4.28,4.56,2.66,2.66,0,0,1,.75,1.82c0,.55-.28,1-.58,1-.89,0-3.59-4.17-4.87-6.17-.27-.43-.3-.48-.41-.48-.32,0-2,3.12-2.1,3.52s-.18.55-.34.55-.24,0-.74-.79a2.93,2.93,0,0,1-.52-1.58,2.69,2.69,0,0,1,.25-1.07C201.82,241.42,202.07,241.7,202.25,241.7Zm7.18-2.26c0,.45-.19.73-.45.73s-.26-.08-.5-.65a5,5,0,0,0-1-1.67C209.18,238,209.43,238.94,209.43,239.44Zm-.52-3.27c.79,0,1.58.34,1.58,1.33,0,.47-.2.8-.43.8s-.17,0-.51-.69a3.6,3.6,0,0,0-1.2-1.39A2.9,2.9,0,0,1,208.91,236.17Z"/><path d="M215.2,249.75c1.1-.52,4.51-2.08,5.72-8.52a15.35,15.35,0,0,0-4,1.27,2.62,2.62,0,0,1-.55.3,2.39,2.39,0,0,1-1.28-1.82,2.57,2.57,0,0,1,.29-1c.28,1,.71,1,1,1s4-.29,4.57-.72c.1-.06.44-.61.53-.61s1.25,1.14,1.25,1.64c0,.27-.17.43-.52.75-.63,2.61-2.13,7.28-7,7.82Zm2.5-12.86a3.68,3.68,0,0,0,2.6-.88c.26.08,1.2.55,1.2,1.09,0,.26-.16.69-.31.74s-3.2.45-3.46.45c-1,0-1.22-.84-1.5-1.93A1.73,1.73,0,0,0,217.7,236.89Z"/><path d="M228.67,242.1c.43,0,5.25-.18,5.66-.21.12,0,.66-.1.78-.1s1.26.19,1.26.87a.88.88,0,0,1-.49.73,2.55,2.55,0,0,1-1.19.18c-4.76,0-5.3,0-5.72.16a6.4,6.4,0,0,1-.77.35A2.37,2.37,0,0,1,227,242a1.45,1.45,0,0,1,.3-.9A1.23,1.23,0,0,0,228.67,242.1Z"/><path d="M243.77,247.19c0,1.32-.7,2.43-1.58,2.43s-1.59-1.11-1.59-2.43.72-2.44,1.59-2.44S243.77,245.82,243.77,247.19Zm-2.75,0c0,1,.52,1.79,1.17,1.79s1.16-.82,1.16-1.79-.52-1.8-1.16-1.8S241,246.18,241,247.19Z"/><path d="M37.77,265.75V263H36.12l0-.2h1.7v-2.48c.51.07.77.11,1.13.19s.48.1.48.21,0,.12-.31.23v1.85h.54l.61-1.28c.05-.11.09-.17.12-.17a10,10,0,0,1,1.09,1.52c0,.11,0,.13-.08.13H39.07v2.78h.8l.62-1.31c.06-.13.09-.18.12-.18a11,11,0,0,1,1.12,1.55c0,.12,0,.13-.07.12h-1.5v2.35h.16l.47-1.15c0-.08.07-.18.12-.18a7.59,7.59,0,0,1,.82,1.39c0,.12,0,.13-.07.13h-1.5v4.82c0,.74,0,1.12-.34,1.42a1.94,1.94,0,0,1-1.2.39c-.23,0-.23-.11-.23-.45a1.72,1.72,0,0,0-1.14-1.81v0c.33,0,.93.1,1.28.1s.34-.05.34-.6v-3.84h-3v4.13c0,.34,0,.47-.21.48l-.71.08c-.25,0-.25,0-.25-.35v-1.33h-1v1.67c0,.4,0,.46-.12.48l-.84.09c-.24,0-.25,0-.25-.4v-12a9.69,9.69,0,0,1,1.28.48h.79l.29-.72c.08-.17.11-.21.16-.21a5.87,5.87,0,0,1,1.25,1.44c0,.21-.25.37-.41.48v3ZM33.71,262v4.39h1V262Zm0,4.57v4.77h1v-4.77Zm2.15-.61v2.35h3v-2.35Zm.46,2.77a2.62,2.62,0,0,1,1.86,2.2c0,.84-.47,1.22-.85,1.22-.23,0-.27-.05-.3-.41a7.78,7.78,0,0,0-.72-3Z"/><path d="M48.18,274.7c0,.29,0,.33-.22.37l-.87.09c-.22,0-.22-.08-.22-.35v-7.94a12.66,12.66,0,0,1-1.58,2.58v0a48.49,48.49,0,0,0,2.16-9.19l1.63.94s.16.1.16.18,0,.11-.15.11l-.26,0c-.18.67-.41,1.55-.91,2.94.21.07.57.16.57.26s0,.18-.3.26Zm5.21-9.25.46-1.28c0-.15.08-.23.11-.23s1.24,1.06,1.24,1.25-.05.1-.13.11l-3.21.63c.09,1.39.29,4.11,1.33,5.63.31.47.74.85.9.85s.13-.06.22-.29a24.07,24.07,0,0,0,.82-2.74l0,0c0,.26-.23,2.82-.23,3.12a1.57,1.57,0,0,0,.11.66,2,2,0,0,1,.21.75c0,.58-.28,1-.73,1A3.85,3.85,0,0,1,52,272.76a16.37,16.37,0,0,1-1.47-6.59l-2.12.41-.07-.17,2.18-.42c-.06-.93-.06-1.34-.12-5.36,0-.1,0-.31,0-.4.59.09,1.21.22,1.53.29.12,0,.17.09.17.16s-.25.22-.37.27c0,2.62,0,3.31.09,4.78Zm-1.23-4.66c.68.14,2,.5,2,2,0,.53-.22,1.22-.75,1.22-.33,0-.38-.18-.45-.55a6.26,6.26,0,0,0-.85-2.62Z"/><path d="M63.14,270.23a2.82,2.82,0,0,1,.58,0,18.35,18.35,0,0,0,1.47-2.77,21.54,21.54,0,0,1-.87-5H61.14V264h2l.41-.87c0-.05.08-.16.11-.16a4.79,4.79,0,0,1,.79,1.09c0,.11,0,.13-.07.13H61.14v.72c0,3.14-.58,4.88-2,6.58v-.05a19.44,19.44,0,0,0,.73-5.8v-3.8c.61.19,1,.33,1.32.44h3.09c0-.81-.07-1.28-.07-2,.19,0,.82.1,1.39.2.06,0,.14.06.14.11s-.09.16-.29.22c0,.47,0,.93,0,1.44h1.56l.49-1.13c0-.1.09-.21.13-.21a8.5,8.5,0,0,1,.86,1.42c0,.12-.06.12-.12.12H65.51a19.1,19.1,0,0,0,.4,3,19.32,19.32,0,0,0,.58-2.31c.14.07,1.49.67,1.49.85s-.09.13-.33.14a16.62,16.62,0,0,1-1.19,2.92c.43.86.94,1.29,1.08,1.29s.71-1.28.92-1.87l0,0c0,.32-.15,1.77-.15,2.06a2.52,2.52,0,0,0,.09.59,3.52,3.52,0,0,1,.15.85c0,.58-.26.85-.54.85s-1.49-.45-2.45-2.43a8.22,8.22,0,0,1-1.72,1.78,1.22,1.22,0,0,1,1.17,1.28c0,.49-.25,1-.64,1s-.44-.19-.56-.77a3.07,3.07,0,0,0-.71-1.47Zm-2.41.75a8.66,8.66,0,0,1,.29,2c0,.83-.28,1.53-.89,1.53-.41,0-.65-.49-.65-.89a1,1,0,0,1,.28-.61A4.81,4.81,0,0,0,60.7,271Zm.6-5.63a6.27,6.27,0,0,1,1.15.35h.6l.27-.49c.1-.19.21-.37.28-.37a2,2,0,0,1,.31.33c.6.74.66.84.66,1s-.06.19-.32.4v1.95c0,.29,0,.44-.21.45l-.74.08c-.16,0-.16-.06-.16-.33v-.37h-.73v.78c0,.4,0,.47-.17.48l-.69.08c-.21,0-.25,0-.25-.37ZM63,272.43c0,.57,0,.59.49.59,1.64,0,1.78,0,2-.16a1.6,1.6,0,0,0,.41-.8c.14-.53.16-.59.21-.77h0a4.93,4.93,0,0,0,.17,1.46,1.32,1.32,0,0,1,.32.89,1,1,0,0,1-.42.93,6.39,6.39,0,0,1-2.49.19c-1.89,0-2-.09-2-1.37v-2.68c.38,0,.92.13,1.31.19.18,0,.26.05.26.13a1.06,1.06,0,0,1-.3.21Zm.22-6.55h-.73v2.27h.73Zm2.49-5.7c.25.05,1.42.29,1.42,1.23a.83.83,0,0,1-.72.87c-.24,0-.27-.19-.31-.58a3.68,3.68,0,0,0-.4-1.47Zm.8,10.55a2.86,2.86,0,0,1,2,2.53c0,.88-.46,1.12-.74,1.12s-.43-.26-.49-.77a7.79,7.79,0,0,0-.73-2.82Z"/><path d="M74.23,263.81a7.82,7.82,0,0,1,.11,1.17c0,.88-.31,1.73-.94,1.73-.47,0-.69-.54-.69-1.06A.86.86,0,0,1,73,265a4.91,4.91,0,0,0,1-2.36h0c.09.34.14.56.22,1h4.3a15.09,15.09,0,0,0,.86-3.33c.18.09.43.24,1.17.7.4.26.44.28.44.37s0,.11-.38.14a8.84,8.84,0,0,1-1.87,2.12h1.74l.35-.63c.18-.32.2-.35.27-.35a6.28,6.28,0,0,1,1.23,1.94c0,.24-.39.21-.63.19a6.67,6.67,0,0,1-1.32.54c.26.36.29.39.29.53a.34.34,0,0,1-.17.28c-.06,0-.15.11-.21.14v4.35c0,.18,0,.43-.24.45l-1,.1v1.1c0,.67,0,.72.56.72h.61a.8.8,0,0,0,.88-.49,9.34,9.34,0,0,0,.79-2h0c0,.29-.07,1.76-.07,1.84,0,.29,0,.29.21.55a1.32,1.32,0,0,1,.2.75c0,1.07-.57,1.23-2.28,1.23-2.1,0-2.2-.06-2.2-1.44v-2.94H75.93v.22a8.61,8.61,0,0,1,1.27,1c0,.08,0,.09-.35.19a6.07,6.07,0,0,1-4.2,3.33v-.07a7.88,7.88,0,0,0,2.72-3.85l-.4.05c-.3,0-.31-.15-.31-.34v-6.23c.22.08,1.21.37,1.41.45h2.87l.17-.42c.17-.44.19-.49.28-.49s.55.51.8.85a7.29,7.29,0,0,0,.31-1.32Zm-.08-3.31c.63.11,2,.39,2,1.86,0,.83-.54,1.15-.88,1.15s-.26-.08-.38-.78a5.53,5.53,0,0,0-.74-2.18Zm1.78,4.88v1.47H79v-1.47Zm0,1.65v1.49H79V267ZM79,270.27v-1.56H75.93v1.56Zm-2.65-9.91a2,2,0,0,1,1.8,1.95c0,1.14-.77,1.15-.82,1.15-.29,0-.37-.22-.4-.65a6,6,0,0,0-.6-2.42Z"/><path d="M90.76,274.28c.95-.41,3.39-1.47,3.39-6.45,0-2.3-.68-5.7-3.06-5.68A4.21,4.21,0,0,1,91.6,264c0,1.62-1.14,9.25-3.31,9.25-.71,0-.82-.67-1-1.47a5.41,5.41,0,0,0-.49-1.66,4.14,4.14,0,0,1-.41-1.84c0-3.78,2.48-6.73,4.93-6.73,2.2,0,4.16,2.34,4.16,6.66,0,2.87-1,4.61-2.06,5.27a5.86,5.86,0,0,1-2.71.85Zm-3.34-4.91a3.5,3.5,0,0,0,.16,1.29c.13.36.39.71.6.71.83,0,2.77-5,2.8-9.19C87.8,262.85,87.42,268.12,87.42,269.37Z"/><path d="M99.68,267.26l-.05-.2h1.25l.29-.67c.1-.22.15-.35.21-.35a7,7,0,0,1,1.31,1.57c0,.19-.36.33-.41.35v3.39c0,1.52.64,1.64,2.74,1.64a28.89,28.89,0,0,0,4.46-.42v.06a2,2,0,0,0-.43,1.3c0,.61,0,.66-.16.74a18.45,18.45,0,0,1-2.87.14c-2.07,0-2.77-.37-3.32-1a2.92,2.92,0,0,1-.69-1.59,18.71,18.71,0,0,1-1.7,2.91c-.23-.72-.48-1.72-.62-2.4l1.31-.51v-4.94Zm.27-6.41c1.12.21,2.3,1,2.3,2.21,0,.9-.6,1.3-.88,1.3s-.25-.16-.32-.5a10,10,0,0,0-1.13-3Zm6.57,1.06.34-.62c.11-.2.21-.4.26-.4a8.38,8.38,0,0,1,.81.91c.25.3.28.33.28.45s0,.19-.39.43l-.07,1.17H108l.43-.93c0-.08.07-.18.1-.18a4.58,4.58,0,0,1,.69,1.17c0,.11-.08.11-.12.11h-6.91l0-.17H104l.16-1.75h-1.3l-.05-.19h1.37l.15-1.59a9,9,0,0,1,1.61.42c0,.11-.19.18-.33.24l-.09.93Zm-1.91,5.36c0,.24,0,.29-.2.31l-.81.09c-.26,0-.27-.05-.27-.41v-2.73a9.88,9.88,0,0,1,1.4.47h2l.27-.53c.06-.13.16-.35.21-.35s1.1,1,1.1,1.25-.07.2-.27.35v1.54a.5.5,0,0,1,0,.16,4.6,4.6,0,0,1,.81,1.13c0,.11-.07.11-.13.11h-2.07v1.94h.88l.53-1.14c0-.08.08-.19.13-.19a7.06,7.06,0,0,1,1,1.41c0,.11-.09.11-.14.11h-2.44v1.46c0,.22,0,.37-.17.38l-.86.08c-.15,0-.22,0-.22-.22v-1.7h-2.84l-.06-.19h.71v-2.67c.18.09,1.09.45,1.29.54h.9v-1.2Zm-.18,1.39v1.94h1v-1.94Zm2.41-1.58v-1.91h-2.23v1.91Zm-1.32-5-.15,1.75h1.14l.07-1.75Zm1.14,5.17v1.2h.83l.4-.88s0-.06,0-.09h-.1l-.83.08c-.17,0-.17-.09-.17-.32Z"/><path d="M116.38,267.69a33.89,33.89,0,0,0-.56,4.22,2.9,2.9,0,0,0,.17,1c.17.44.19.48.19.66a.79.79,0,0,1-.73.86c-.8,0-1.91-1.52-1.91-5.49,0-1,0-1.32.29-4.53,0-.27.11-1.32.11-1.95a7.14,7.14,0,0,0-.16-1.57,4.81,4.81,0,0,1,1.51,3.4,4.74,4.74,0,0,1-.17,1.21,13.07,13.07,0,0,0-.56,3.75c0,1.23.17,1.95.37,1.95s.31-.38.35-.46c.17-.48.88-2.55,1.07-3.14Zm2.71-2.79c1.4,0,2.92,1.25,2.92,4.07,0,.24,0,1.95-.86,1.95-.46,0-.7-.49-.71-1.06a8,8,0,0,0-.67-3.77,2.1,2.1,0,0,0-1.08-1.17Z"/><path d="M128.43,271.72c.21.31.67.85,1,.85,1.33,0,1.77-4.4,1.77-6,0-.4,0-1.42-.58-1.42-.17,0-.42.17-1,.56a66.43,66.43,0,0,1-2.17,8.24c-.2.39-.4.58-.66.58s-.54-.66-.54-1.73c0-.26,0-.29.23-.54a12.27,12.27,0,0,0,1-2.26c.39-1.2.55-1.83.94-3.43a2.63,2.63,0,0,1-1.17.52c-.42,0-.77-.53-.77-1.16a3.87,3.87,0,0,1,.49-1.58c0,.67,0,1,.45,1a4.8,4.8,0,0,0,1.37-.29,27.57,27.57,0,0,0,.59-3.28c0-.39-.2-.46-.29-.46a.26.26,0,0,0-.13,0c0-.82.56-.87.78-.87a1.05,1.05,0,0,1,.95,1,3.94,3.94,0,0,1-.23.95c-.11.43-.27,1.07-.55,2.26a2.39,2.39,0,0,1,.66-.13c.25,0,1.71.14,1.71,3.39,0,2.16-.79,6.64-2.51,6.64a1,1,0,0,1-1-.91,7.36,7.36,0,0,0-.4-1.89Zm4.9-7.51c1.38,0,2,1.52,2,2.9,0,1.65-.73,1.84-.88,1.84-.5,0-.5-.77-.5-1,0-2.17-.13-3.44-1.42-3.63A3.2,3.2,0,0,1,133.33,264.21Z"/><path d="M140.38,274.86a5.85,5.85,0,0,0,2.87-1.23,4.09,4.09,0,0,0,1.25-3.16c0-1.36-.5-2.4-1.09-2.4-.74,0-1.56,2-2,3.27-.15.43-.33,1-.87,1-.14,0-.9-.08-.85-1.32,0-.09.15-3,.18-4a4.84,4.84,0,0,1,.69-2.77,2.27,2.27,0,0,1,1.85-1.41c.31,0,.49-.11.49-.51s-.33-.95-1-1.83c.18.06,1,.26,1.14.31a1.88,1.88,0,0,1,1.35,2c0,.18,0,1.2-.59,1.2-.22,0-.29-.09-.56-.41a1.24,1.24,0,0,0-1-.51c-.93,0-1.32,1.26-1.32,1.84,0,.16.06.83.06,1a13,13,0,0,1-.21,1.72,9.51,9.51,0,0,0-.12,1.48c0,.23,0,.55.2.55s.24-.13.36-.29c.56-.67,1.5-1.73,2.51-1.73,1.29,0,2.13,1.6,2.13,3.49a3.47,3.47,0,0,1-1.14,3,6.84,6.84,0,0,1-3.58.8,5.94,5.94,0,0,1-.74,0Z"/><path d="M152.37,271.72c.21.31.67.85,1,.85,1.33,0,1.77-4.4,1.77-6,0-.4,0-1.42-.58-1.42-.17,0-.42.17-1,.56a66.43,66.43,0,0,1-2.17,8.24c-.2.39-.4.58-.66.58s-.54-.66-.54-1.73c0-.26,0-.29.23-.54a12.27,12.27,0,0,0,.95-2.26c.39-1.2.55-1.83.94-3.43a2.63,2.63,0,0,1-1.17.52c-.42,0-.77-.53-.77-1.16a3.87,3.87,0,0,1,.49-1.58c0,.67.05,1,.45,1a4.8,4.8,0,0,0,1.37-.29,27.57,27.57,0,0,0,.59-3.28c0-.39-.2-.46-.29-.46a.26.26,0,0,0-.13,0c0-.82.57-.87.78-.87a1.05,1.05,0,0,1,.95,1,3.94,3.94,0,0,1-.23.95c-.11.43-.27,1.07-.55,2.26a2.39,2.39,0,0,1,.66-.13c.25,0,1.71.14,1.71,3.39,0,2.16-.79,6.64-2.5,6.64a1,1,0,0,1-1-.91,7.36,7.36,0,0,0-.4-1.89Zm4.9-7.51c1.38,0,2,1.52,2,2.9,0,1.65-.73,1.84-.88,1.84-.5,0-.5-.77-.5-1,0-2.17-.13-3.44-1.42-3.63A3.2,3.2,0,0,1,157.27,264.21Z"/><path d="M163.48,270.86a3.38,3.38,0,0,1,2.29.85,2.36,2.36,0,0,1,.64,1.66c0,.74-.3,1.25-.76,1.25s-.72-.66-.76-.85A4.59,4.59,0,0,0,163.4,271Z"/><path d="M178.78,266.47l.57-1.36c0-.08.09-.19.13-.19a9.5,9.5,0,0,1,1.18,1.62c0,.12-.07.12-.13.12h-3.81a6.72,6.72,0,0,0,4.63,6.07v.06a2,2,0,0,0-.85,1.46c-.05.43-.09.75-.32.75s-2.11-1.1-3-3.81a12.48,12.48,0,0,1-.53-4.21,19.57,19.57,0,0,1-.36,2.56c-.85,3.85-3.29,5.11-4.92,5.43l0-.05c3.65-2.22,3.88-6.54,4-8.26H172l-.05-.19h3.36c0-.53,0-1,0-1.55v-3.09h-3.81l0-.18h7.64l.61-1.29c0-.13.08-.2.12-.2a7.88,7.88,0,0,1,1.18,1.56c0,.11-.06.11-.14.11h-4.19v3.09c0,.43,0,.81,0,1.55Z"/><path d="M190.57,260.26l1.44.32c.06,0,.11,0,.11.1s-.08.16-.29.19v1.82c0,.31,0,1.41-.06,2h1.09l.42-.85c-.18.05-.48.07-.56-.38a6.06,6.06,0,0,0-.73-2.38l0-.05c.45.11,1.78.41,1.78,1.81a1.38,1.38,0,0,1-.17.72,5.9,5.9,0,0,1,.91,1.2c0,.12-.06.12-.11.12h-2.63a5,5,0,0,0,3,4.29v.07c-.25,0-.66.65-.75,1.25,0,.27-.09.56-.26.56s-1.91-1.41-2.12-5.45c-.47,3.62-2.41,4.78-3.92,5.41v0a8.42,8.42,0,0,0,2.75-6.1h-1.08a11.5,11.5,0,0,1-4.21,6.55l0,0a16.47,16.47,0,0,0,2-3.41.56.56,0,0,1-.39.16c-.17,0-.23-.06-.26-.35a7,7,0,0,0-.29-1.58,9.91,9.91,0,0,1-1,1.68l0-.05a34.71,34.71,0,0,0,1.28-7.46c.23.05,1.67.47,1.67.66s-.11.16-.31.17c-.26,1.09-.39,1.51-.46,1.78h1.09l.48-.8c.07-.13.1-.18.14-.18a7.64,7.64,0,0,1,1.08,1.67c0,.25-.42.27-.47.27-.09.32-.12.45-.2.75h1c0-.35,0-.86,0-1.47ZM187,270.87a11.4,11.4,0,0,1,.14,1.67c0,1.26-.49,2.41-1.19,2.41-.48,0-.72-.51-.72-1a.68.68,0,0,1,.3-.59,4.78,4.78,0,0,0,1.45-2.45Zm.91-5.09a.73.73,0,0,1-.4.13c-.14,0-.15-.06-.19-.38a4.07,4.07,0,0,0-.35-1.27c-.11.35-.27.8-.54,1.44,1.06.55,1,1.08,1,1.44C187.57,266.9,187.67,266.6,187.92,265.78Zm-.6-2.65c0,.09-.06.22-.18.62.26.1,1,.34,1.05,1,.21-.9.32-1.52.33-1.6Zm.86,7.84a3.21,3.21,0,0,1,1.44,2.59c0,.61-.16,1.31-.8,1.31-.31,0-.46-.2-.46-.62,0-.16,0-.75,0-.88a10.74,10.74,0,0,0-.22-2.37Zm1.87,0a2.85,2.85,0,0,1,1.78,2.61c0,.43-.07,1.31-.77,1.31-.36,0-.46-.26-.48-.69A10.38,10.38,0,0,0,190,271Zm2-.1a3.25,3.25,0,0,1,2.24,2.85c0,.9-.35,1.27-.79,1.27s-.53-.23-.61-.79a10.42,10.42,0,0,0-.84-3.3Z"/><path d="M206.06,262.39l.57-1.33c.06-.14.09-.19.13-.19a10.44,10.44,0,0,1,1.28,1.6c0,.11-.07.11-.14.11h-6.75a12.56,12.56,0,0,1-2.67,4l0,0a25.29,25.29,0,0,0,1.81-6.25l1.64.61c.1,0,.14.07.14.15s-.28.2-.36.2a11.07,11.07,0,0,1-.46,1.14Zm-7.48,12.77a23.5,23.5,0,0,0,2.68-4.62,18.79,18.79,0,0,0-2.17-2.79v0a20.46,20.46,0,0,1,2.67,1.63,20.85,20.85,0,0,0,.93-2.8c.58.47,1.11.93,1.34,1.12a.34.34,0,0,1,.11.21c0,.1-.06.11-.09.11s-.18-.05-.24-.06a16.71,16.71,0,0,1-1,2.35,5,5,0,0,1,1.52,3.19c0,1.16-.63,1.39-.79,1.39s-.26-.15-.38-.45a17.42,17.42,0,0,0-1.17-2.74,11,11,0,0,1-3.36,3.52Zm.53-8.82-.05-.19h5.82l.37-.82c.05-.11.09-.2.17-.2s.17.08.42.38a5.71,5.71,0,0,1,.85,1.23c0,.24-.32.4-.42.45a14.14,14.14,0,0,0,.32,4.16c.13.48.4,1,.54,1s.58-1,1-2h0c-.05.4-.28,2-.28,2.37a1.39,1.39,0,0,0,.14.69,1.38,1.38,0,0,1,.21.74c0,.46-.22,1.1-.68,1.1s-1.23-.58-1.82-2.13a20.67,20.67,0,0,1-.7-6.4v-.34Zm6.47-2.13.56-1.1c.08-.14.09-.21.13-.21a8.36,8.36,0,0,1,1.11,1.39c0,.12-.07.12-.13.12h-6.48l-.05-.2Z"/><path d="M217.52,267v-3.13h-1.67l0-.18h1.72v-3.35c.23,0,1.36.23,1.48.28s.1,0,.1.11-.06.13-.29.19v2.77h.58l.56-1.2c0-.08.09-.18.13-.18a6.93,6.93,0,0,1,1.13,1.44c0,.12-.06.12-.13.12h-2.27V267h.9l.61-1.29c0-.08.08-.2.12-.2a9.43,9.43,0,0,1,1.2,1.56c0,.11-.06.11-.14.11h-2.63c.54,2.61,1.45,3.94,3,4.64v.07a2.09,2.09,0,0,0-.67,1.36c-.07.59-.08.68-.23.68a4.41,4.41,0,0,1-1.46-2.48,20.84,20.84,0,0,1-.62-4.27h0v7.49c0,.26,0,.38-.2.4l-.88.1c-.2,0-.21,0-.21-.31v-5.09a11.92,11.92,0,0,1-3.52,4.8v0a20.44,20.44,0,0,0,2.86-7.36H215.5v3.11c0,.3,0,.35-.21.36l-.8.08c-.19,0-.19,0-.19-.3v-.77h-.66v2.27c0,.28,0,.36-.19.37l-.84.1c-.2,0-.21,0-.21-.37V262a6.76,6.76,0,0,1,1.3.56h.52l.41-.84c.1-.22.11-.24.17-.24A4.6,4.6,0,0,1,216,263a.29.29,0,0,1-.13.27,1.56,1.56,0,0,1-.35.18V267Zm-3.22,2.47v-6.71h-.66v6.71Z"/><path d="M230.21,274.28c.94-.41,3.38-1.47,3.38-6.45,0-2.3-.68-5.7-3.06-5.68A4.21,4.21,0,0,1,231,264c0,1.62-1.14,9.25-3.31,9.25-.71,0-.81-.67-.95-1.47a5.41,5.41,0,0,0-.49-1.66,4.12,4.12,0,0,1-.4-1.84c0-3.78,2.47-6.73,4.92-6.73,2.21,0,4.16,2.34,4.16,6.66,0,2.87-1,4.61-2.06,5.27a5.86,5.86,0,0,1-2.7.85Zm-3.34-4.91a3.59,3.59,0,0,0,.15,1.29c.14.36.4.71.61.71.82,0,2.76-5,2.8-9.19C227.24,262.85,226.87,268.12,226.87,269.37Z"/><path d="M238.88,270.43a27.62,27.62,0,0,0,2.7-6.46c.28.16,1.6.93,1.6,1.14s-.21.14-.35.14c-.34.64-.56,1.05-.84,1.51.3.14.33.16.33.24s-.21.24-.29.29v7.3c0,.3,0,.41-.22.43l-.87.09c-.21,0-.21,0-.21-.35v-6.18a10.87,10.87,0,0,1-1.84,1.89Zm.16-4.81a20.66,20.66,0,0,0,2.15-5.34c.25.16,1.63,1.05,1.63,1.26,0,0,0,.11-.14.11l-.23,0a11.52,11.52,0,0,1-3.39,4Zm3.79.24,0-.19h4l.64-1.31c.06-.13.08-.18.13-.18a8.82,8.82,0,0,1,1.21,1.57c0,.11-.06.11-.13.11h-1.74v7.4c0,.89,0,1.92-1.38,1.92-.34,0-.4-.07-.4-.43a4.61,4.61,0,0,0,0-.93,1.85,1.85,0,0,0-1.16-1v-.07a9.31,9.31,0,0,0,1.47.2c.2,0,.2-.07.2-.53v-6.52Zm3.58-4.09.61-1.24c.09-.16.1-.17.14-.17a7.17,7.17,0,0,1,1.16,1.47c0,.13-.07.13-.14.13h-4.81l-.05-.19Z"/><path d="M256.76,263.62l.49-1.09c.05-.11.08-.19.12-.19a6.66,6.66,0,0,1,1,1.35c0,.11-.06.11-.12.11H256v1.41h.47l.32-.72c.06-.15.12-.29.21-.29a5.79,5.79,0,0,1,.66.7l-.05-.16h1.11v-4.4c.59.06.93.11,1.41.19.11,0,.2,0,.2.15s-.09.14-.32.25v3.81h.59l.32-.86c.08-.21.13-.29.19-.29s1.21,1.17,1.21,1.5-.13.29-.39.42c0,1.38,0,6.42-.6,8.2-.27.84-.65,1.44-1.57,1.44-.33,0-.34-.07-.34-.56a1.68,1.68,0,0,0-.81-1.75,8.36,8.36,0,0,1-2,2.32v0a12.32,12.32,0,0,0,1.19-2.35,50.24,50.24,0,0,1-4.67,2.29c-.19-.77-.29-1.28-.45-2.15l2.16-.17v-1.59h-2l-.05-.18h2.07v-1.66h-.51v.35c0,.15,0,.43-.21.45l-.78.08c-.21,0-.21-.08-.21-.4v-5a9.86,9.86,0,0,1,1.28.4h.43V263.8h-2.21l-.06-.18h2.27v-1.28c-.72.07-1.7.1-2.06.11v0a13.76,13.76,0,0,0,3.85-2.09c.28.24,1.19,1.08,1.37,1.25s.14.18.14.24-.06.13-.1.13a.68.68,0,0,1-.26-.08,10.63,10.63,0,0,1-1.75.35v1.41Zm-1.9,3.48v-1.7h-.51v1.7Zm0,2v-1.87h-.51v1.87Zm1.18.18V271h.6l.46-.89c0-.1.09-.19.12-.19a4.48,4.48,0,0,1,.92,1.16c0,.1-.08.1-.13.1h-2v1.51l1.86-.15c.29-.86.86-2.54.86-6.85v-.75h-1.05c.4.51.45.56.45.72s-.26.37-.38.46v3.24c0,.14,0,.43-.17.44l-.78.08c-.23,0-.23,0-.23-.54Zm0-3.92v1.7h.56v-1.7Zm0,1.87v1.87h.56v-1.87Zm4-2.35v.43c0,4.92-.91,6.58-1.34,7.38a4.55,4.55,0,0,0,1,.19c.35,0,.63,0,.79-2.16.11-1.28.19-3.94.19-5.84Z"/><path d="M272,270c.35,1.29.49,1.81.88,2.08s.57.4.57.81a2,2,0,0,1-.49,1.2,3.4,3.4,0,0,1-2.38.76c-1,0-2.43-.2-2.43-3.43,0,0,0-.56,0-1.63-.55-.1-1.82-.39-1.82-1.62a3.68,3.68,0,0,1,1.13-2.09,2.36,2.36,0,0,0-.39,1.15c0,.7.67.81,1.17.89,0-.22.13-2.41.14-2.49a1.75,1.75,0,0,1-1.64-1,2.78,2.78,0,0,1-.33-1.44c.14.33.39,1,1.63,1a2.3,2.3,0,0,0,.42,0c0-.76,0-.86,0-1.18,0-1.38-.22-1.44-.52-1.44a.86.86,0,0,0-.23,0c.19-.64.44-.88.82-.88.58,0,1.06.59,1.06,1.46,0,.3-.1,1.45-.14,1.84a2.49,2.49,0,0,0,.85-.4c.61.33.92.51.92,1.09s-.31,1-1.93,1.05c-.05.52-.21,2.13-.24,2.52a2.84,2.84,0,0,0,1.8-.61,1.43,1.43,0,0,0,.7.14c.13,0,.67,0,.67.85s-.43.88-.89,1a8.68,8.68,0,0,1-2.38.28c0,.94,0,1.42,0,1.52,0,1.07.17,1.65,1,1.65.07,0,1.58,0,1.95-.58a2.21,2.21,0,0,0,.15-.9c0-.24,0-.73-.1-1.5Z"/><path d="M283.81,261.43l.35-.75c.06-.13.11-.23.17-.23a6,6,0,0,1,.77.8c.33.4.53.64.53.77s-.12.26-.4.4v12.17c0,.24,0,.33-.21.35l-1,.09c-.16,0-.17,0-.17-.3v-1.15h-4.24v1.05c0,.31,0,.34-.23.36l-.92.08c-.19,0-.21,0-.21-.36V260.79c.39.14,1.19.48,1.5.64Zm-4.17.17v3.65h4.24V261.6Zm0,3.83v3.78h4.24v-3.78Zm0,3.95v4h4.24v-4Z"/><path d="M297.73,274.11l.63-1.38c.08-.18.09-.21.13-.21a7.11,7.11,0,0,1,1.24,1.65c0,.11-.07.11-.13.11h-9.47l-.05-.17h5a83.43,83.43,0,0,0,1.14-9.58,17,17,0,0,1,1.85.71.14.14,0,0,1,.09.14c0,.11-.06.15-.33.15a56.59,56.59,0,0,1-2.46,8.58Zm-.38-10.34.62-1.44c0-.07.09-.2.13-.2a6.92,6.92,0,0,1,1.27,1.72c0,.11-.07.11-.14.11h-8.71l0-.19h3.73v-3.38c.2,0,1.66.22,1.66.45s-.22.19-.32.22v2.71Zm-5.14,1.07a12.75,12.75,0,0,1,2.27,6.21c0,.43-.08,1.94-1,1.94-.42,0-.42-.31-.43-.77a37.78,37.78,0,0,0-.82-7.35Z"/><path d="M307.8,273.43a6.84,6.84,0,0,0,3.14-2.62,5.34,5.34,0,0,0,.73-2.91c0-.48-.09-3.48-1.88-3.48-1.06,0-2.92,1.62-3.9,2.74-.47.53-.7.78-1.15.78-.63,0-1.12-.7-1.12-1.85a3.59,3.59,0,0,1,.12-.95c.15.5.49.67.7.67s.25,0,2-1.13,2.73-1.54,3.6-1.54c1.42,0,3.11,1.76,3.11,5s-1.61,4.18-2.08,4.44a7.65,7.65,0,0,1-3.25.86Z"/><path d="M320.68,272.19c0,1.32-.7,2.43-1.59,2.43s-1.58-1.11-1.58-2.43.72-2.44,1.58-2.44S320.68,270.82,320.68,272.19Zm-2.75,0c0,1,.52,1.79,1.16,1.79s1.17-.82,1.17-1.79-.52-1.8-1.17-1.8S317.93,271.18,317.93,272.19Z"/><line class="cls-1" x1="17.79" y1="22.54" x2="17.79" y2="322.92"/><path d="M17.79,14.41a4.07,4.07,0,1,1-4.07,4.06A4.07,4.07,0,0,1,17.79,14.41Z"/><path class="cls-1" d="M17.79,12.53a5.94,5.94,0,1,1-5.94,5.94A5.94,5.94,0,0,1,17.79,12.53Z"/><polygon class="cls-1" points="17.79 6.23 23.1 15.43 28.4 24.59 17.79 24.59 7.17 24.59 12.48 15.43 17.79 6.23"/><path d="M9.08,77.42c0,1.69,0,2.11.22,2.11a.64.64,0,0,0,.42-.15,1,1,0,0,1,0,.78A4.62,4.62,0,0,0,8,80.81c-.06,0-.14-.11-.16-.26l0-.55c0-.15,0-.2-.09-.15-.34.4-.69.78-1,.78-1.11,0-1.86-1.61-1.86-3.55,0-2.54,1-4.16,2.32-4.16a1.57,1.57,0,0,1,.55.09.46.46,0,0,0,.1-.34V70.36c0-.72,0-.92-.2-1.13l-.16-.18a.68.68,0,0,1,0-.54,7.27,7.27,0,0,0,1.49-1,.19.19,0,0,1,.17.13c0,.73,0,1.49,0,2.62ZM7.81,75a2.29,2.29,0,0,0-.07-.62c-.12-.37-.33-.66-.55-.66-.5,0-1,1-1,2.84,0,1.19.29,2.83,1.09,2.83a.52.52,0,0,0,.4-.22,1.1,1.1,0,0,0,.12-.68Z"/><path d="M6.29,251.61c-.23,0-.25,0-.25.32,0,1.35.47,2.67,1.38,2.67.27,0,.64-.11.91-.94.1,0,.25.11.25.41-.4,1.53-1.12,2.06-1.71,2.06-1.31,0-2-1.71-2-3.68,0-2.27.88-4,2.1-4,1,0,1.56,1.21,1.56,2.59,0,.34,0,.6-.35.6Zm.64-.8a.49.49,0,0,0,.4-.16.79.79,0,0,0,.07-.41c0-.6-.19-1-.52-1s-.76.72-.76,1.29c0,.26.14.27.45.27Z"/><line class="cls-2" x1="20.85" y1="45.78" x2="14.32" y2="45.78"/><line class="cls-2" x1="20.85" y1="77.01" x2="14.32" y2="77.01"/><line class="cls-2" x1="20.85" y1="112.19" x2="14.32" y2="112.19"/><line class="cls-2" x1="20.85" y1="147.37" x2="14.32" y2="147.37"/><line class="cls-2" x1="20.85" y1="182.56" x2="14.32" y2="182.56"/><line class="cls-2" x1="20.85" y1="217.74" x2="14.32" y2="217.74"/><line class="cls-2" x1="20.85" y1="252.92" x2="14.32" y2="252.92"/><line class="cls-2" x1="20.85" y1="252.92" x2="14.32" y2="252.92"/><line class="cls-2" x1="20.85" y1="252.92" x2="14.32" y2="252.92"/><line class="cls-2" x1="20.83" y1="287.73" x2="14.3" y2="287.73"/><line class="cls-2" x1="20.83" y1="322.91" x2="14.3" y2="322.91"/><line class="cls-3" x1="95.11" y1="322.92" x2="32.47" y2="322.92"/><line class="cls-3" x1="103.39" y1="42.88" x2="33.6" y2="42.88"/><circle cx="8.54" cy="45.78" r="1.68"/><path d="M35.79,310.5l-.26,1.76h.57L36,313h-.61l-.33,2.18H34.7L35,313h-.63l-.32,2.18h-.39L34,313h-.64l.07-.77h.68l.25-1.76h-.64l.07-.78h.68l.28-2h.42l-.29,2h.62l.28-2h.42l-.29,2h.59l-.06.78Zm-1,0-.26,1.76h.63l.26-1.76Z"/><path d="M41.75,311.5c0,1.93-.44,3.92-1.5,3.92s-1.5-2-1.5-3.92.45-3.93,1.5-3.93S41.75,309.64,41.75,311.5Zm-1.5,3.37c.5,0,.55-2.31.55-3.37s0-3.37-.55-3.37-.55,2.3-.55,3.37S39.76,314.87,40.25,314.87Z"/><path d="M45.74,312.14a1.2,1.2,0,0,1,.09.51,1.14,1.14,0,0,1-.09.46l-1.56.27a1.13,1.13,0,0,1-.09-.48,1.19,1.19,0,0,1,.09-.49Z"/><path d="M49.41,311.1c-.08,0-.09,0-.09.28v1.79c0,.68,0,1.42.45,1.42a.4.4,0,0,0,.28-.18.37.37,0,0,1,.09.31,1.15,1.15,0,0,1-.94.7c-.54,0-.73-.58-.73-1.37v-2.67c0-.26,0-.28-.12-.28h-.2a.4.4,0,0,1,0-.37,2.76,2.76,0,0,0,.54-.54,3.59,3.59,0,0,0,.48-.94.13.13,0,0,1,.2.06v.9c0,.23,0,.24.12.24H50a.44.44,0,0,1,0,.23.88.88,0,0,1-.08.42Z"/><path d="M54.43,313.61c0,.81.17,1,.3,1s.14,0,.24-.15a.3.3,0,0,1,.08.28c-.08.19-.38.65-.75.65s-.37-.15-.55-.42c0-.07-.07-.1-.1-.1s-.07.05-.14.13-.31.39-.55.39-.73-.42-.73-1.26a1.25,1.25,0,0,1,.68-1.25l.61-.34a.23.23,0,0,0,.15-.23c0-.14,0-.27,0-.41,0-.46-.1-1-.38-1s-.29.16-.34.68a.66.66,0,0,1-.11.38.78.78,0,0,1-.47.28c-.11,0-.15-.13-.15-.3a1.78,1.78,0,0,1,.32-.92,1.5,1.5,0,0,1,1.09-.74c.54,0,.86.51.83,1.74Zm-.78-.32c0-.19,0-.22,0-.21-.29.07-.55.27-.55.84,0,.38.15.72.33.72s.25-.22.25-.59Z"/><path d="M57.35,308.58c0-.48,0-.61-.13-.75l-.11-.12a.45.45,0,0,1,0-.36,5.69,5.69,0,0,0,1-.68.12.12,0,0,1,.11.09c0,.49,0,1,0,1.75v3.76c0,.14,0,.17.09.17s.25-.06.38-.33l.27-.59a1.32,1.32,0,0,0,.16-.48c0-.06-.07-.11-.12-.12l-.17-.05c-.06-.11,0-.37,0-.42H59a5.18,5.18,0,0,0,1.23-.17.55.55,0,0,1,0,.42l-.21.09a1.09,1.09,0,0,0-.44.42,7.82,7.82,0,0,0-.43.69.3.3,0,0,0,0,.16.68.68,0,0,0,0,.2,22.41,22.41,0,0,0,.86,2.29.6.6,0,0,0,.38.28l.1,0a.51.51,0,0,1,0,.42,5.65,5.65,0,0,0-.82,0,5.18,5.18,0,0,0-.8,0,.51.51,0,0,1,0-.42l.08,0c.07,0,.1-.05.1-.1a1.68,1.68,0,0,0-.11-.38l-.46-1.29c0-.14-.1-.19-.16-.19s-.08.06-.08.29v.7c0,.84,0,.93.26,1l.1,0a.56.56,0,0,1,0,.42,5.85,5.85,0,0,0-.78,0,6.21,6.21,0,0,0-.79,0,.56.56,0,0,1,0-.42l.13,0c.23,0,.26-.14.26-1Z"/><path d="M63.43,312.41c-.15,0-.16,0-.16.21,0,.9.31,1.78.91,1.78.19,0,.43-.07.61-.63.07,0,.17.08.17.28-.27,1-.75,1.37-1.14,1.37-.88,0-1.35-1.14-1.35-2.45,0-1.51.59-2.69,1.4-2.69s1,.81,1,1.73c0,.23,0,.4-.23.4Zm.43-.53a.38.38,0,0,0,.27-.11.56.56,0,0,0,0-.27c0-.4-.12-.66-.34-.66s-.51.48-.51.86c0,.17.09.18.3.18Z"/><path d="M73.64,311.5c0,1.93-.45,3.92-1.5,3.92s-1.5-2-1.5-3.92.45-3.93,1.5-3.93S73.64,309.64,73.64,311.5Zm-1.5,3.37c.49,0,.55-2.31.55-3.37s-.06-3.37-.55-3.37-.55,2.3-.55,3.37S71.65,314.87,72.14,314.87Z"/><path d="M79,311.5c0,1.93-.45,3.92-1.5,3.92s-1.5-2-1.5-3.92.45-3.93,1.5-3.93S79,309.64,79,311.5Zm-1.5,3.37c.49,0,.55-2.31.55-3.37s-.06-3.37-.55-3.37-.55,2.3-.55,3.37S77,314.87,77.47,314.87Z"/><path d="M81.34,313.47a2.58,2.58,0,0,1,.86-2,2.49,2.49,0,0,1-.69-1.84c0-1.18.53-2.07,1.34-2.07s1.25.74,1.25,1.87a2.16,2.16,0,0,1-.71,1.66,2.8,2.8,0,0,1,.87,2.24c0,1.13-.47,2.08-1.49,2.08C82,315.42,81.34,314.78,81.34,313.47Zm2.07.27a2.28,2.28,0,0,0-.9-1.92,3.21,3.21,0,0,0-.33,1.52c0,.84.27,1.53.69,1.53S83.41,314.46,83.41,313.74Zm-1.1-4.5a1.83,1.83,0,0,0,.75,1.49,2.19,2.19,0,0,0,.31-1.31c0-.83-.28-1.29-.54-1.29S82.31,308.59,82.31,309.24Z"/><path d="M36.39,32.94a1,1,0,0,1,.14.62c0,.36-.09.69-.17.69a.17.17,0,0,1-.11-.06c-.18-.48-.43-.9-.66-.9-.43,0-.66.89-.66,1.71s.34,1.91.93,1.91c.24,0,.44-.14.58-.59.08,0,.17.07.17.27-.14.6-.53,1.28-1.15,1.28-.82,0-1.38-1-1.38-2.42,0-1.71.75-2.71,1.63-2.71A1.32,1.32,0,0,1,36.39,32.94Z"/><path d="M39.06,31c0-.48,0-.61-.13-.75l-.12-.12a.55.55,0,0,1,0-.36,5.8,5.8,0,0,0,1-.67.12.12,0,0,1,.11.08c0,.49,0,1,0,1.75v2.21c0,.11,0,.14.05.14a.38.38,0,0,0,.1-.09,1.09,1.09,0,0,1,.75-.48c.54,0,.82.68.82,1.51v2.06c0,.84,0,.94.26,1l.1,0a.56.56,0,0,1,0,.42,5.66,5.66,0,0,0-.78,0,4.23,4.23,0,0,0-.7,0,.56.56,0,0,1,0-.42l.12,0c.15-.05.17-.13.17-.79V34.42c0-.42-.13-.81-.45-.81a.45.45,0,0,0-.37.29,1.16,1.16,0,0,0-.05.44v2.15c0,.66,0,.74.18.79l.11,0a.51.51,0,0,1,0,.42,4.75,4.75,0,0,0-.72,0,6.18,6.18,0,0,0-.77,0,.61.61,0,0,1,0-.42l.11,0c.22,0,.25-.14.25-1Z"/><path d="M46.45,36.06c0,.82.17,1,.3,1s.14,0,.24-.14.1.16.08.27-.38.65-.75.65-.37-.14-.55-.42c-.05-.07-.07-.1-.1-.1s-.08,0-.14.14-.31.38-.55.38-.73-.42-.73-1.26a1.26,1.26,0,0,1,.68-1.25c.24-.14.42-.24.61-.33a.26.26,0,0,0,.15-.24c0-.13,0-.27,0-.41,0-.46-.1-1-.38-1S45,33.52,45,34a.72.72,0,0,1-.11.39.82.82,0,0,1-.47.27c-.11,0-.15-.13-.15-.3a1.9,1.9,0,0,1,.31-.92,1.5,1.5,0,0,1,1.1-.73c.54,0,.86.5.83,1.74Zm-.78-.31c0-.19,0-.23,0-.22-.3.07-.55.28-.55.84,0,.39.15.72.33.72s.24-.21.25-.59Z"/><path d="M49.42,34.52c0-.48,0-.62-.13-.76l-.09-.11a.55.55,0,0,1,0-.36,3.84,3.84,0,0,0,.95-.72c.05,0,.09,0,.12.11,0,.24,0,.41,0,.51s0,.12.07.15c.17-.21.36-.6.63-.6s.36.25.36.7-.21.78-.41.78-.17-.07-.26-.21-.21-.24-.24-.24-.13.26-.13.72v1.85c0,.84,0,.93.24,1l.21,0a.56.56,0,0,1,0,.42c-.31,0-.57,0-.87,0s-.56,0-.77,0a.56.56,0,0,1,0-.42l.13,0c.21,0,.24-.14.24-1Z"/><path d="M55.64,36.06c0,.82.17,1,.3,1s.14,0,.24-.14.1.16.08.27-.38.65-.75.65-.37-.14-.55-.42c0-.07-.07-.1-.1-.1s-.07,0-.14.14-.31.38-.55.38-.73-.42-.73-1.26a1.26,1.26,0,0,1,.68-1.25c.24-.14.42-.24.61-.33a.26.26,0,0,0,.15-.24c0-.13,0-.27,0-.41,0-.46-.1-1-.38-1s-.29.17-.34.68a.72.72,0,0,1-.11.39.82.82,0,0,1-.47.27c-.11,0-.15-.13-.15-.3a1.9,1.9,0,0,1,.31-.92,1.5,1.5,0,0,1,1.1-.73c.54,0,.86.5.83,1.74Zm-.78-.31c0-.19,0-.23,0-.22-.3.07-.55.28-.55.84,0,.39.15.72.33.72s.24-.21.25-.59Z"/><path d="M60.57,32.94a1.1,1.1,0,0,1,.14.62c0,.36-.09.69-.17.69a.17.17,0,0,1-.11-.06c-.18-.48-.43-.9-.67-.9-.42,0-.65.89-.65,1.71s.34,1.91.93,1.91c.24,0,.44-.14.58-.59.08,0,.17.07.17.27-.14.6-.53,1.28-1.15,1.28-.82,0-1.38-1-1.38-2.42,0-1.71.75-2.71,1.63-2.71A1.35,1.35,0,0,1,60.57,32.94Z"/><path d="M64.15,33.55c-.08,0-.09,0-.09.28v1.8c0,.67,0,1.41.46,1.41a.41.41,0,0,0,.27-.18.38.38,0,0,1,.09.32,1.16,1.16,0,0,1-.94.69c-.54,0-.72-.58-.72-1.37V33.83c0-.25,0-.28-.13-.28h-.2c-.07,0-.09-.28,0-.37a2.76,2.76,0,0,0,.54-.54,3.47,3.47,0,0,0,.48-.93.13.13,0,0,1,.2.06v.9c0,.22,0,.23.12.23h.58a.44.44,0,0,1,0,.23.85.85,0,0,1-.08.42Z"/><path d="M67.93,34.86c-.14,0-.16,0-.16.22,0,.9.31,1.77.92,1.77.18,0,.43-.07.6-.62.07,0,.17.07.17.27-.26,1-.74,1.37-1.14,1.37-.87,0-1.35-1.14-1.35-2.45,0-1.51.59-2.68,1.41-2.68s1,.8,1,1.72c0,.23,0,.4-.24.4Zm.43-.53a.33.33,0,0,0,.27-.11.53.53,0,0,0,.05-.27c0-.4-.13-.66-.35-.66s-.51.48-.51.86c0,.17.1.18.3.18Z"/><path d="M72,34.52c0-.48,0-.62-.12-.76l-.09-.11a.45.45,0,0,1,0-.36,4,4,0,0,0,.94-.72c.06,0,.1,0,.12.11,0,.24,0,.41,0,.51s0,.12.06.15c.18-.21.37-.6.64-.6s.36.25.36.7-.21.78-.42.78-.17-.07-.25-.21-.21-.24-.25-.24-.12.26-.12.72v1.85c0,.84,0,.93.24,1l.2,0a.51.51,0,0,1,0,.42c-.31,0-.57,0-.88,0s-.55,0-.77,0a.51.51,0,0,1,0-.42l.12,0c.21,0,.24-.14.24-1Z"/><path d="M79.28,33.29c-.06-.08-.06-.37,0-.42.24,0,.46,0,.81,0l.72,0a.61.61,0,0,1,0,.42l-.1.05c-.08,0-.11,0-.11.12a2.4,2.4,0,0,0,.06.42c.13.66.27,1.28.41,1.86.14-.6.3-1.24.44-2a2.27,2.27,0,0,0,0-.3c0-.06,0-.1-.16-.15l-.09,0a.48.48,0,0,1,0-.42,5,5,0,0,0,.53,0c.21,0,.36,0,.5,0a.51.51,0,0,1,0,.42l-.11,0c-.19.07-.24.21-.37.66-.34,1.24-.63,2.52-.93,3.81a.22.22,0,0,1-.15.08.25.25,0,0,1-.16-.08c-.34-1.51-.47-2.09-.88-3.69-.16-.58-.2-.68-.36-.75Z"/><path d="M84.44,35.4c0-1.72.73-2.66,1.49-2.66s1.46.86,1.46,2.55-.7,2.58-1.5,2.58S84.44,37.06,84.44,35.4Zm.93-.26c0,1.25.22,2.18.6,2.18s.49-.78.48-1.86-.19-2.17-.56-2.17S85.37,33.83,85.37,35.14Z"/><path d="M90.93,36.31c0,.84,0,.95.24,1l.12,0a.51.51,0,0,1,0,.42,6,6,0,0,0-.78,0,5.94,5.94,0,0,0-.78,0,.56.56,0,0,1,0-.42l.12,0c.22,0,.25-.14.25-1V34.5c0-.48,0-.62-.13-.77l-.09-.11a.53.53,0,0,1,0-.35,4,4,0,0,0,1-.7c.06,0,.09,0,.12.11,0,.36,0,.88,0,1.42Zm0-5.42c0,.58-.24.88-.48.88s-.46-.36-.46-.86.23-.87.49-.87S91,30.41,91,30.89Z"/><path d="M95.86,32.94a1.12,1.12,0,0,1,.13.62c0,.36-.09.69-.16.69a.14.14,0,0,1-.11-.06c-.18-.48-.43-.9-.67-.9-.42,0-.65.89-.65,1.71s.33,1.91.93,1.91c.24,0,.44-.14.58-.59.08,0,.17.07.17.27-.14.6-.53,1.28-1.15,1.28-.82,0-1.38-1-1.38-2.42,0-1.71.75-2.71,1.63-2.71A1.35,1.35,0,0,1,95.86,32.94Z"/><path d="M99.17,34.86c-.15,0-.16,0-.16.22,0,.9.31,1.77.92,1.77.18,0,.43-.07.6-.62.07,0,.17.07.17.27-.27,1-.75,1.37-1.14,1.37-.88,0-1.35-1.14-1.35-2.45,0-1.51.59-2.68,1.4-2.68s1,.8,1,1.72c0,.23,0,.4-.23.4Zm.43-.53a.33.33,0,0,0,.27-.11.56.56,0,0,0,0-.27c0-.4-.12-.66-.34-.66s-.51.48-.51.86c0,.17.09.18.3.18Z"/><rect x="33.23" y="295.85" width="17.75" height="3.94"/><rect x="33.03" y="95.31" width="125.42" height="11.94"/><path class="cls-4" d="M40.91,104.5c0,2,.06,2.26.59,2.33l.38.06a.6.6,0,0,1,0,.46c-.62,0-1-.06-1.35-.06s-.78,0-1.31.06a.71.71,0,0,1,0-.46l.31-.06c.58-.11.6-.36.6-2.33v-.94a6.24,6.24,0,0,0-.32-2.27L38.6,97.07c-.34-1.21-.49-1.31-.79-1.4l-.28-.09a.55.55,0,0,1,0-.46,9.24,9.24,0,0,0,1.16.06,7.2,7.2,0,0,0,1.06-.06c.09.06.09.35,0,.46l-.13,0c-.35.09-.42.18-.42.33a14.24,14.24,0,0,0,.31,1.41c.37,1.36.74,2.81,1.13,4.08.31-1,.63-2,.93-3.11a24.44,24.44,0,0,0,.65-2.42c0-.11-.18-.24-.42-.29l-.18,0a.49.49,0,0,1,0-.46,8.37,8.37,0,0,0,1,.06,7.47,7.47,0,0,0,.92-.06.5.5,0,0,1,0,.46l-.28.09c-.51.17-.81,1.32-1.31,2.9l-.63,2a7.16,7.16,0,0,0-.46,3Z"/><path class="cls-4" d="M52.27,99.78a24,24,0,0,0-.19-3.8.55.55,0,0,0-.49-.38l-.25,0a.55.55,0,0,1,0-.44,10.55,10.55,0,0,0,1.13.06,8.5,8.5,0,0,0,1-.06.52.52,0,0,1,0,.44l-.24,0a.59.59,0,0,0-.5.44,29.83,29.83,0,0,0-.14,3.74v2.08a10.73,10.73,0,0,1-.69,4.39,2.21,2.21,0,0,1-1.91,1.34,2.08,2.08,0,0,1-1.86-1c-.52-.81-.77-2.15-.77-4.34V97.91c0-1.91,0-2.22-.6-2.31l-.25,0a.56.56,0,0,1,0-.44c.5,0,.84.06,1.24.06s.73,0,1.22-.06a.56.56,0,0,1,0,.44l-.24,0c-.58.09-.6.4-.6,2.31v4c0,3,.5,4.9,2,4.9s2-2.1,2-4.89Z"/><path class="cls-4" d="M57.93,97.93c0-1.93,0-2.22-.6-2.31l-.25,0a.72.72,0,0,1,0-.46c.49,0,.81.06,1.26.06s.72,0,1.15-.06a.61.61,0,0,1,0,.46l-.19,0c-.57.11-.59.38-.59,2.31V100c0,.35,0,.7.13.7s.2-.11.27-.2.4-.7.51-.89l1.08-2c.19-.33.67-1.27.77-1.52a.84.84,0,0,0,.07-.3c0-.07,0-.12-.17-.18l-.27-.11a.49.49,0,0,1,0-.46,10.14,10.14,0,0,0,1.1.06,7.47,7.47,0,0,0,1-.06.56.56,0,0,1,0,.46,1.79,1.79,0,0,0-.92.51A14.75,14.75,0,0,0,61,98.22l-.9,1.56a1.44,1.44,0,0,0-.23.57,1.57,1.57,0,0,0,.19.57c.94,2,1.71,3.65,2.49,5.16.24.44.45.68.79.75l.27.06a.53.53,0,0,1,0,.46,8,8,0,0,0-1.11-.06c-.41,0-.76,0-1.22.06-.07,0-.1-.35,0-.46l.23-.08c.14,0,.24-.09.24-.18a1.28,1.28,0,0,0-.14-.42c-.19-.44-.45-.94-.82-1.73l-.8-1.65c-.57-1.17-.73-1.54-1-1.54s-.17.24-.17.88v2.37c0,1.93,0,2.18.57,2.29l.27.06a.61.61,0,0,1,0,.46c-.49,0-.82-.06-1.21-.06a11.27,11.27,0,0,0-1.16.06.59.59,0,0,1,0-.46l.2-.06c.53-.14.55-.36.55-2.29Z"/><path class="cls-4" d="M70.4,103c-.07-.4-.11-.46-.41-.46h-1.5c-.25,0-.31.06-.38.44l-.34,1.93a12,12,0,0,0-.22,1.53c0,.22,0,.33.29.36l.32.06a.47.47,0,0,1,0,.46c-.25,0-.56,0-1-.06s-.69,0-1,.06a.61.61,0,0,1,0-.46l.33-.06c.24,0,.46-.24.6-.9.18-.84.46-2,.88-4.09l1-5a4.54,4.54,0,0,0,.17-1.3,1.52,1.52,0,0,0,.52-.7c.06,0,.13,0,.15.17.12.81.28,1.65.43,2.46l1.37,7.38c.28,1.58.41,1.85.84,1.94l.27.06a.61.61,0,0,1,0,.46,11.61,11.61,0,0,0-1.2-.06c-.48,0-.86,0-1.15.06a.5.5,0,0,1,0-.46l.29-.06c.21,0,.35-.14.35-.33a6.5,6.5,0,0,0-.13-1Zm-2-1.63c-.08.42-.07.44.21.44h1.22c.29,0,.31-.07.22-.57l-.53-3c-.08-.44-.17-.94-.23-1.16h0c0,.09-.13.53-.24,1.09Z"/><path class="cls-4" d="M76.81,98c0-1.75,0-2.06-.44-2.15l-.32-.07a.5.5,0,0,1,0-.46,13.72,13.72,0,0,1,2.22-.15,2.2,2.2,0,0,1,1.66.55,3.47,3.47,0,0,1,.82,2.57,3.71,3.71,0,0,1-1.24,3.07.7.7,0,0,0,0,.44,23.11,23.11,0,0,0,2,4.88,1,1,0,0,0,.69.51.24.24,0,0,1,0,.26.85.85,0,0,1-.44.09c-.85,0-1.35-.46-2.06-2.31-.26-.68-.67-2-1-2.77-.15-.41-.31-.59-.71-.59s-.47,0-.47.41v2.31c0,1.93,0,2.15.6,2.29l.21.06a.6.6,0,0,1,0,.46c-.45,0-.79-.06-1.19-.06s-.77,0-1.24.06a.59.59,0,0,1,0-.46l.25-.06c.58-.13.6-.36.6-2.29Zm.81,2.62a2.68,2.68,0,0,0,0,.61s.18.09.69.09a1.13,1.13,0,0,0,1-.48,3.83,3.83,0,0,0,.5-2.27c0-1.45-.49-2.83-1.59-2.83-.62,0-.65.07-.65.59Z"/><path class="cls-4" d="M86.2,98c0-2,0-2.26-.6-2.35l-.25,0a.61.61,0,0,1,0-.46c.5,0,.83.06,1.25.06s.74,0,1.24-.06a.72.72,0,0,1,0,.46l-.25,0C87,95.71,87,96,87,98v6.53c0,2,0,2.2.61,2.33l.25.06a.72.72,0,0,1,0,.46c-.5,0-.84-.06-1.24-.06s-.75,0-1.25.06a.6.6,0,0,1,0-.46l.25-.06c.58-.13.6-.38.6-2.33Z"/><path class="cls-4" d="M100.41,104.54c0,1.93,0,2.2.59,2.29l.32.06a.61.61,0,0,1,0,.46c-.57,0-.9-.06-1.3-.06s-.75,0-1.39.06a.61.61,0,0,1,0-.46l.36-.06c.57-.09.62-.36.62-2.29V96.33c0-.57,0-.58-.3-.58h-.55c-.42,0-1,0-1.22.45a4.37,4.37,0,0,0-.45,1.27c-.08.11-.22,0-.26-.13.16-.82.31-2,.38-2.73,0,0,.16-.06.19,0,.06.58.39.57.85.57h4c.53,0,.62,0,.77-.52,0,0,.16,0,.18.06a20.12,20.12,0,0,0-.15,2.79.14.14,0,0,1-.26,0,3.8,3.8,0,0,0-.25-1.34,1.3,1.3,0,0,0-1.15-.45h-.71c-.29,0-.28,0-.28.62Z"/><path class="cls-4" d="M110.34,103c-.07-.4-.11-.46-.41-.46h-1.5c-.25,0-.31.06-.38.44l-.35,1.93a13.25,13.25,0,0,0-.21,1.53c0,.22.05.33.28.36l.33.06a.47.47,0,0,1,0,.46c-.26,0-.56,0-1-.06s-.69,0-1,.06a.61.61,0,0,1,0-.46l.33-.06c.24,0,.46-.24.6-.9.18-.84.46-2,.87-4.09l1-5a4.54,4.54,0,0,0,.17-1.3,1.44,1.44,0,0,0,.51-.7c.06,0,.13,0,.15.17.13.81.29,1.65.44,2.46l1.36,7.38c.29,1.58.42,1.85.85,1.94l.27.06a.61.61,0,0,1,0,.46,11.61,11.61,0,0,0-1.2-.06c-.48,0-.86,0-1.15.06a.5.5,0,0,1,0-.46l.29-.06c.21,0,.35-.14.35-.33a6.5,6.5,0,0,0-.13-1Zm-2-1.63c-.08.42-.07.44.21.44h1.22c.29,0,.31-.07.22-.57l-.53-3c-.08-.44-.17-.94-.23-1.16h0c0,.09-.13.53-.24,1.09Z"/><path class="cls-4" d="M119.34,102.39c.23.86.45,1.71.69,2.51h0c.27-.86.51-1.81.76-2.75l.94-3.5a16.81,16.81,0,0,0,.75-3.53,3.81,3.81,0,0,0,.75.06,7.38,7.38,0,0,0,.89-.06.66.66,0,0,1,0,.46l-.21,0c-.63.11-.71.46-.7,1.74,0,2,0,5.34.11,8,0,.91,0,1.41.49,1.48l.32.06a.56.56,0,0,1,0,.46c-.41,0-.82-.06-1.18-.06s-.79,0-1.2.06a.57.57,0,0,1,0-.46l.29-.06c.48-.09.48-.38.48-1.56l0-7.65h0c-.07.2-.44,1.67-.64,2.38l-.89,3.22c-.45,1.61-.89,3.34-1.07,4.18a.1.1,0,0,1-.1.08.11.11,0,0,1-.09-.08c-.17-1-.65-2.77-.88-3.67l-.89-3.54c-.21-.85-.42-1.8-.64-2.65h0c0,1.14-.07,2.21-.1,3.27s-.07,2.75-.07,4.32c0,1.35.06,1.65.45,1.7l.38.06a.52.52,0,0,1,0,.46,9.79,9.79,0,0,0-1.11-.06,9,9,0,0,0-1,.06.61.61,0,0,1,0-.46l.22-.06c.42-.11.56-.22.61-1.5s.11-2.22.17-4c0-1.52.09-3.08.11-4.09,0-1.16-.06-1.44-.66-1.58l-.16,0a.56.56,0,0,1,0-.46,5.65,5.65,0,0,0,.78.06,4.36,4.36,0,0,0,.83-.06,11.59,11.59,0,0,0,.52,3Z"/><path class="cls-4" d="M133.54,99.78a24,24,0,0,0-.19-3.8.57.57,0,0,0-.49-.38l-.25,0a.55.55,0,0,1,0-.44,10.55,10.55,0,0,0,1.13.06,8.5,8.5,0,0,0,1.05-.06.52.52,0,0,1,0,.44l-.24,0a.59.59,0,0,0-.5.44,29.83,29.83,0,0,0-.14,3.74v2.08a10.55,10.55,0,0,1-.7,4.39,2.19,2.19,0,0,1-1.9,1.34,2.08,2.08,0,0,1-1.86-1c-.52-.81-.77-2.15-.77-4.34V97.91c0-1.91,0-2.22-.6-2.31l-.25,0a.56.56,0,0,1,0-.44c.5,0,.84.06,1.24.06s.73,0,1.22-.06a.56.56,0,0,1,0,.44l-.24,0c-.58.09-.6.4-.6,2.31v4c0,3,.5,4.9,2,4.9s2-2.1,2-4.89Z"/><path class="cls-4" d="M139.2,98c0-1.75,0-2.06-.44-2.15l-.32-.07a.5.5,0,0,1,0-.46,13.82,13.82,0,0,1,2.22-.15,2.17,2.17,0,0,1,1.66.55,3.47,3.47,0,0,1,.83,2.57,3.74,3.74,0,0,1-1.24,3.07.7.7,0,0,0,.05.44,22.58,22.58,0,0,0,2,4.88,1,1,0,0,0,.68.51.24.24,0,0,1,0,.26.85.85,0,0,1-.44.09c-.84,0-1.35-.46-2.06-2.31-.25-.68-.66-2-1-2.77-.15-.41-.31-.59-.71-.59s-.46,0-.46.41v2.31c0,1.93,0,2.15.59,2.29l.21.06a.6.6,0,0,1,0,.46c-.45,0-.78-.06-1.18-.06s-.78,0-1.25.06a.59.59,0,0,1,0-.46l.25-.06c.58-.13.6-.36.6-2.29Zm.82,2.62a2.68,2.68,0,0,0,0,.61s.17.09.68.09a1.14,1.14,0,0,0,1-.48,3.85,3.85,0,0,0,.49-2.27c0-1.45-.48-2.83-1.59-2.83-.61,0-.64.07-.64.59Z"/><path class="cls-4" d="M151.37,103c-.07-.4-.11-.46-.4-.46h-1.51c-.25,0-.31.06-.38.44l-.34,1.93a12,12,0,0,0-.22,1.53c0,.22,0,.33.29.36l.32.06a.47.47,0,0,1,0,.46c-.25,0-.56,0-1-.06s-.69,0-1,.06a.66.66,0,0,1,0-.46l.32-.06c.24,0,.46-.24.6-.9.18-.84.46-2,.88-4.09l1-5a4.54,4.54,0,0,0,.17-1.3,1.52,1.52,0,0,0,.52-.7c.06,0,.13,0,.15.17.13.81.28,1.65.43,2.46l1.37,7.38c.29,1.58.41,1.85.84,1.94l.27.06a.61.61,0,0,1,0,.46,11.47,11.47,0,0,0-1.2-.06c-.48,0-.86,0-1.15.06a.5.5,0,0,1,0-.46l.29-.06c.21,0,.35-.14.35-.33a6.5,6.5,0,0,0-.13-1Zm-2-1.63c-.08.42-.07.44.21.44h1.23c.28,0,.3-.07.21-.57l-.53-3c-.08-.44-.17-.94-.23-1.16h0c0,.09-.13.53-.24,1.09Z"/><rect x="33.6" y="208.51" width="118.7" height="12.36"/><path class="cls-4" d="M39.51,220.79a2.15,2.15,0,0,1-1.55-.68,15,15,0,0,1-.27-2.57c.05-.13.2-.17.24-.06.15.94.56,2.74,1.71,2.74.84,0,1.25-1,1.25-2.11a3.67,3.67,0,0,0-.82-2.57l-1-1.14a5,5,0,0,1-1.07-3.16c0-1.74.74-3.16,2-3.16a2.16,2.16,0,0,1,.92.24.73.73,0,0,0,.35.11,14.35,14.35,0,0,1,.18,2.24c0,.11-.2.17-.25.06-.13-.88-.39-2.08-1.35-2.08s-1.18,1.2-1.18,2a3.42,3.42,0,0,0,.84,2.26l.8.92a5.07,5.07,0,0,1,1.24,3.52C41.63,219.41,40.81,220.79,39.51,220.79Z"/><path class="cls-4" d="M51.15,213a24.08,24.08,0,0,0-.19-3.8.58.58,0,0,0-.5-.38l-.25,0a.55.55,0,0,1,0-.44,10.74,10.74,0,0,0,1.14.06,8.33,8.33,0,0,0,1-.06.52.52,0,0,1,0,.44l-.24,0a.58.58,0,0,0-.49.44,29.91,29.91,0,0,0-.14,3.74v2.08a10.5,10.5,0,0,1-.7,4.39,2.2,2.2,0,0,1-1.9,1.34,2.07,2.07,0,0,1-1.86-1c-.53-.81-.78-2.15-.78-4.34v-4.33c0-1.91,0-2.22-.59-2.31l-.25,0a.56.56,0,0,1,0-.44c.5,0,.83.06,1.23.06s.74,0,1.23-.06a.61.61,0,0,1,0,.44l-.23,0c-.58.09-.6.4-.6,2.31v4c0,2.95.5,4.9,2,4.9s2-2.09,2-4.88Z"/><path class="cls-4" d="M59,212.2c.52-1.36.81-2.06,1-2.61a1.84,1.84,0,0,0,.12-.5c0-.09-.1-.14-.36-.14H58.28c-.8,0-1.25.12-1.48.6a6.77,6.77,0,0,0-.44,1.25c-.09.07-.21,0-.25-.13.12-.64.29-1.74.41-2.75a.1.1,0,0,1,.17,0c0,.44.17.46,1,.46H60.3a5.16,5.16,0,0,0,1.14-.06s.06.09.06.17c-.27.42-1.11,2.55-1.63,3.93l-1.64,4.36c-.11.3-1,2.57-1,2.85s.1.22.28.26.78,0,1.47,0a2.77,2.77,0,0,0,1.84-.42,4,4,0,0,0,.7-1.69.16.16,0,0,1,.25.13,17.12,17.12,0,0,1-.45,2.61c-.55,0-1.11-.06-1.81-.06H57c-.52,0-.88,0-1.11.06a.34.34,0,0,1-.05-.22,26.48,26.48,0,0,0,1.09-2.5Z"/><path class="cls-4" d="M70.91,213a24.08,24.08,0,0,0-.19-3.8.58.58,0,0,0-.5-.38l-.25,0a.55.55,0,0,1,0-.44,10.74,10.74,0,0,0,1.14.06,8.33,8.33,0,0,0,1-.06.52.52,0,0,1,0,.44l-.24,0a.58.58,0,0,0-.49.44,29.91,29.91,0,0,0-.14,3.74v2.08a10.5,10.5,0,0,1-.7,4.39,2.2,2.2,0,0,1-1.9,1.34,2.07,2.07,0,0,1-1.86-1c-.53-.81-.78-2.15-.78-4.34v-4.33c0-1.91,0-2.22-.59-2.31l-.25,0a.56.56,0,0,1,0-.44c.5,0,.83.06,1.23.06s.74,0,1.23-.06a.56.56,0,0,1,0,.44l-.24,0c-.58.09-.6.4-.6,2.31v4c0,2.95.5,4.9,2,4.9s2-2.09,2-4.88Z"/><path class="cls-4" d="M77.88,214.56c-.48,0-.5,0-.5.59v2.59c0,1.93.05,2.18.61,2.29l.29.06a.61.61,0,0,1,0,.46c-.54,0-.88-.06-1.27-.06s-.76,0-1.15.06a.6.6,0,0,1,0-.46L76,220c.56-.18.58-.36.58-2.29v-6.61c0-1.93-.07-2.24-.59-2.31l-.26,0a.61.61,0,0,1,0-.46c.49,0,.83.06,1.25.06s.73,0,1.16-.06a.61.61,0,0,1,0,.46l-.19,0c-.58.11-.6.38-.6,2.31v2.11c0,.57,0,.59.5.59h2.84c.48,0,.5,0,.5-.59v-2.11c0-1.93,0-2.2-.61-2.31l-.18,0a.61.61,0,0,1,0-.46c.45,0,.79.06,1.2.06s.73,0,1.17-.06a.61.61,0,0,1,0,.46l-.21,0c-.57.11-.59.38-.59,2.31v6.61c0,1.93,0,2.16.59,2.29l.24.06a.61.61,0,0,1,0,.46c-.47,0-.81-.06-1.2-.06s-.77,0-1.2.06a.6.6,0,0,1,0-.46l.18-.06c.61-.18.61-.36.61-2.29v-2.59c0-.55,0-.59-.5-.59Z"/><path class="cls-4" d="M90.34,216.23c-.07-.4-.11-.46-.41-.46h-1.5c-.25,0-.31.06-.38.45l-.35,1.92a13.25,13.25,0,0,0-.21,1.53c0,.22.05.33.28.36l.33.06a.47.47,0,0,1,0,.46c-.26,0-.56,0-1-.06s-.69,0-1,.06a.61.61,0,0,1,0-.46l.33-.06c.24,0,.46-.23.6-.9.18-.84.46-2,.87-4.09l1-5a4.54,4.54,0,0,0,.17-1.3,1.44,1.44,0,0,0,.51-.7c.06,0,.13,0,.15.17.13.81.29,1.65.44,2.46l1.36,7.38c.29,1.58.42,1.85.85,1.94l.27.06a.61.61,0,0,1,0,.46,11.61,11.61,0,0,0-1.2-.06c-.48,0-.86,0-1.15.06a.5.5,0,0,1,0-.46l.29-.06c.21,0,.35-.14.35-.33a6.5,6.5,0,0,0-.13-1Zm-2-1.63c-.08.42-.07.44.21.44H89.8c.29,0,.31-.07.22-.57l-.53-3c-.08-.44-.17-.94-.23-1.16h0c0,.1-.13.54-.24,1.09Z"/><path class="cls-4" d="M105,216.23c-.07-.4-.11-.46-.41-.46h-1.5c-.25,0-.31.06-.38.45l-.35,1.92a12,12,0,0,0-.22,1.53c0,.22.05.33.29.36l.33.06a.47.47,0,0,1,0,.46c-.26,0-.57,0-1-.06s-.69,0-1,.06a.61.61,0,0,1,0-.46l.33-.06c.24,0,.46-.23.6-.9.18-.84.45-2,.87-4.09l1-5a4.54,4.54,0,0,0,.17-1.3,1.58,1.58,0,0,0,.51-.7c.06,0,.13,0,.15.17.13.81.29,1.65.44,2.46l1.36,7.38c.29,1.58.42,1.85.85,1.94l.27.06a.61.61,0,0,1,0,.46,11.67,11.67,0,0,0-1.21-.06c-.47,0-.85,0-1.14.06a.5.5,0,0,1,0-.46l.29-.06c.21,0,.35-.14.35-.33a6.5,6.5,0,0,0-.13-1Zm-2-1.63c-.08.42-.07.44.21.44h1.22c.29,0,.31-.07.22-.57l-.54-3c-.08-.44-.17-.94-.22-1.16h0c0,.1-.13.54-.24,1.09Z"/><path class="cls-4" d="M114,215.59c.23.86.45,1.71.69,2.52h0c.26-.87.51-1.82.76-2.76l.94-3.5a17.49,17.49,0,0,0,.75-3.53,3.81,3.81,0,0,0,.75.06,7.1,7.1,0,0,0,.88-.06.66.66,0,0,1,0,.46l-.2,0c-.63.11-.71.46-.7,1.74,0,1.95,0,5.34.11,8,0,.91,0,1.41.49,1.48l.31.06a.56.56,0,0,1,0,.46c-.4,0-.81-.06-1.17-.06s-.8,0-1.2.06a.56.56,0,0,1,0-.46l.29-.06c.48-.09.48-.38.48-1.56l0-7.65h0c-.07.2-.44,1.67-.64,2.39l-.89,3.21c-.45,1.61-.89,3.34-1.07,4.18a.1.1,0,0,1-.1.08.11.11,0,0,1-.09-.08c-.17-1-.65-2.77-.88-3.67l-.89-3.54c-.21-.85-.42-1.8-.64-2.64h0c0,1.13-.07,2.2-.1,3.26s-.07,2.76-.07,4.32c0,1.35.06,1.65.45,1.7l.38.06a.52.52,0,0,1,0,.46,9.79,9.79,0,0,0-1.11-.06,8.81,8.81,0,0,0-1,.06.61.61,0,0,1,0-.46l.22-.06c.41-.11.55-.22.61-1.5s.11-2.22.17-4c0-1.52.09-3.08.11-4.09,0-1.16-.06-1.43-.67-1.58l-.15,0a.56.56,0,0,1,0-.46,5.54,5.54,0,0,0,.78.06,4.36,4.36,0,0,0,.83-.06,12,12,0,0,0,.51,3Z"/><path class="cls-4" d="M126.22,216.23c-.07-.4-.11-.46-.41-.46h-1.5c-.25,0-.31.06-.38.45l-.35,1.92a13.25,13.25,0,0,0-.21,1.53c0,.22,0,.33.28.36l.33.06a.47.47,0,0,1,0,.46c-.26,0-.56,0-1-.06s-.69,0-1,.06a.61.61,0,0,1,0-.46l.33-.06c.24,0,.46-.23.6-.9.18-.84.46-2,.87-4.09l1-5a4.54,4.54,0,0,0,.17-1.3,1.44,1.44,0,0,0,.51-.7c.06,0,.13,0,.15.17.13.81.29,1.65.44,2.46l1.36,7.38c.29,1.58.42,1.85.85,1.94l.27.06a.61.61,0,0,1,0,.46,11.61,11.61,0,0,0-1.2-.06c-.48,0-.86,0-1.15.06a.5.5,0,0,1,0-.46l.29-.06c.21,0,.35-.14.35-.33a6.5,6.5,0,0,0-.13-1Zm-2-1.63c-.08.42-.07.44.21.44h1.22c.29,0,.31-.07.22-.57l-.54-3c-.07-.44-.16-.94-.22-1.16h0c0,.1-.13.54-.24,1.09Z"/><path class="cls-4" d="M138,217.37c0,.55,0,2.74,0,3.21,0,.11-.08.21-.19.21-.12-.32-.41-1-1.28-2.78l-2.3-4.84c-.27-.57-1-2.08-1.16-2.48h0a8.42,8.42,0,0,0-.05,1.19v4a26,26,0,0,0,.18,3.79.54.54,0,0,0,.51.35l.31.06a.55.55,0,0,1,0,.46c-.45,0-.8-.06-1.17-.06a8.17,8.17,0,0,0-1,.06.56.56,0,0,1,0-.46L132,220a.49.49,0,0,0,.43-.36,32.3,32.3,0,0,0,.13-3.78v-5.31a2.85,2.85,0,0,0-.21-1.32.88.88,0,0,0-.62-.44l-.17,0a.53.53,0,0,1,0-.46,8.68,8.68,0,0,0,1.12.06,1.65,1.65,0,0,0,.46-.06,29,29,0,0,0,1.7,4l1,2c.68,1.41,1.17,2.44,1.64,3.32h0a3.28,3.28,0,0,0,0-.77V213a23.45,23.45,0,0,0-.2-3.8c-.06-.16-.22-.27-.62-.36l-.17,0a.49.49,0,0,1,0-.46c.46,0,.8.06,1.18.06a7.78,7.78,0,0,0,1-.06.53.53,0,0,1,0,.46l-.14,0c-.32.09-.51.24-.55.38A27,27,0,0,0,138,213Z"/><path class="cls-4" d="M143.39,211.13c0-1.91,0-2.18-.6-2.31l-.16,0a.61.61,0,0,1,0-.46c.43,0,.76.06,1.17.06h1.87a6.57,6.57,0,0,0,1.34-.06c.06.31.12,1.64.16,2.44,0,.11-.19.15-.24,0-.15-.86-.24-1.5-.76-1.74a2.7,2.7,0,0,0-1-.11h-.71c-.3,0-.3,0-.3.73v3.67c0,.52,0,.52.33.52h.57a2.15,2.15,0,0,0,.85-.11c.12-.08.19-.19.24-.65l.08-.75a.14.14,0,0,1,.26,0c0,.44,0,1.16,0,1.85s0,1.36,0,1.77a.14.14,0,0,1-.26,0l-.09-.71c0-.33-.11-.61-.31-.7a1.94,1.94,0,0,0-.77-.09h-.57c-.3,0-.33,0-.33.49v2.59a5.17,5.17,0,0,0,.19,1.91c.12.22.33.42,1.2.42s1.06-.07,1.28-.27a5.79,5.79,0,0,0,.7-1.78c.07-.09.21,0,.25.13-.07.64-.32,2.05-.45,2.55-.89,0-1.78-.06-2.66-.06h-.9c-.43,0-.76,0-1.35.06a.6.6,0,0,1,0-.46l.33-.06c.56-.09.61-.36.61-2.29Z"/><rect class="cls-5" width="380.17" height="475.55"/></g></svg>