<?xml version="1.0" encoding="utf-8"?><svg version="1.1" id="レイヤー_1" xmlns="http://www.w3.org/2000/svg" xmlns:xlink="http://www.w3.org/1999/xlink" x="0px" y="0px" viewBox="0 0 380.2 475.5" style="enable-background:new 0 0 380.2 475.5;" xml:space="preserve"><style type="text/css">.st0{fill:none;}.st1{fill:none;stroke:#000000;stroke-width:0.6108;}.st2{fill:none;stroke:#000000;stroke-width:0.5;}.st3{fill:none;stroke:#000000;stroke-width:0.4;}.st4{fill:none;stroke:#000000;stroke-width:0.4375;}.st5{fill:#FFFFFF;}</style><title>アートボード 43</title><g><g id="letter_ol"><rect class="st0" width="380.2" height="475.5"/></g><g><g><g><path d="M50.7,65l1.3-3.2c0.1-0.2,0.2-0.4,0.3-0.4c0.1,0,2.9,3.3,2.9,3.7c0,0.3-0.1,0.3-0.3,0.3h-7.8v18h5.4l1.5-3.1c0.1-0.3,0.2-0.5,0.3-0.5c0.1,0,2.8,3.4,2.8,3.7c0,0.3-0.2,0.3-0.3,0.3H35.2l-0.1-0.4H44V52.1c0.1,0,3.6,0.4,3.8,0.6c0,0,0.1,0.1,0.1,0.2c0,0.3-0.6,0.6-0.8,0.7V65H50.7z"/><path d="M83.1,54.9L84,53c0.3-0.7,0.4-0.7,0.5-0.7c0.1,0,2.9,3,2.9,3.8c0,0.2,0,0.4-0.9,0.9v26.6c0,0.8,0,0.8-0.5,0.9l-1.9,0.2c-0.4,0-0.5,0-0.5-0.7v-2.8H70.5V84c0,0.6,0,0.8-0.5,0.8l-2,0.2c-0.6,0.1-0.6-0.1-0.6-0.7V53.7c1.2,0.2,3,1,3.4,1.2H83.1z M70.5,55.3v12.3h5V55.3H70.5z M70.5,68v12.8h5V68H70.5z M78.5,55.3v12.3h4.9V55.3H78.5z M78.5,68v12.8h4.9V68H78.5z"/><path d="M98.3,59.8c0.7,1.8,1.2,3.9,1.2,6c0,1.6-0.4,3.5-1.6,3.5c-0.6,0-1.2-0.7-1.2-1.6c0-0.5,0.8-2.6,0.9-3C97.9,63.1,98.2,61.5,98.3,59.8L98.3,59.8z M108.5,59h-3.4l-0.1-0.4h3.5v-3.9h-3.9l-0.1-0.4h3.9l0.7-1.6c0.1-0.3,0.2-0.5,0.4-0.5c0.2,0,1.7,1.7,2,2.1h3.8l0.7-1.7c0.1-0.3,0.2-0.5,0.4-0.5c0.2,0,2.5,2.5,2.5,2.9c0,0.3-0.1,0.5-0.8,1v8.1c0,0.4,0,0.6-0.3,0.6l-1.9,0.2c-0.3,0-0.4,0-0.4-0.5v-0.8h-3.9l-0.1-0.4h4v-4h-3.6l-0.1-0.4h3.7v-3.9h-3.6c0.1,0.2,0.1,0.3,0.1,0.3c0,0.2,0,0.3-0.8,1V64c0,0.4,0,0.6-0.3,0.6l-1.9,0.2c-0.3,0-0.4,0-0.4-0.5v-0.8h-3.9l-0.1-0.4c-0.6,0.8-1.2,1.5-1.9,2.2c0,5.2-0.2,6.8-0.4,8.6c0.2,0.2,0.7,0.6,1.3,1.4c1.2-3.3,2.2-7.7,2.7-11c1.2,0.5,1.7,0.8,2.9,1.4c0.5,0.3,0.5,0.3,0.5,0.5c0,0.3-0.2,0.3-0.5,0.3c-0.5,1.3-0.9,2.1-1.4,3c0.4,0.1,0.5,0.2,0.7,0.3h2.3c0-0.1,0.6-2.9,0.8-5.1c0.5,0.3,2.6,1.2,3.2,1.5c0.1,0,0.2,0.1,0.2,0.3c0,0.3-0.2,0.3-0.7,0.3c-0.6,0.9-2.3,2.6-2.8,3h3.5l1-2.3c0.1-0.2,0.2-0.4,0.3-0.4c0.2,0,2.3,2.6,2.3,2.9c0,0.3-0.2,0.3-0.3,0.3h-4.9v3.9h1.1l1.1-2.5c0-0.1,0.2-0.4,0.3-0.4c0.2,0,2.3,2.8,2.3,3.2c0,0.3-0.1,0.3-0.3,0.3h-4.6v4h1.1l1.1-2.5c0.1-0.1,0.2-0.5,0.3-0.5c0.1,0,2.5,2.8,2.5,3.2c0,0.3-0.2,0.3-0.3,0.3h-4.7v4.3h1.7l1.1-2.7c0-0.1,0.2-0.4,0.3-0.4c0.1,0,2.5,2.9,2.5,3.3c0,0.3-0.2,0.3-0.3,0.3h-10.4v1c0,0.5,0,0.7-0.5,0.8l-2,0.2c-0.4,0-0.5-0.2-0.5-0.7V73.3c-0.5,0.8-0.9,1.3-1.8,2.4c0.5,0.7,1.2,1.9,1.2,3.6c0,1.6-0.7,2.6-1.6,2.6c-0.7,0-0.8-0.3-0.8-1.2c0-2.6,0-4-0.3-5.8c-0.9,6.1-3.6,9.4-5.2,11l0-0.1c2.4-5.2,2.9-9.9,2.9-21V51.8c1.2,0.1,2.8,0.4,3,0.5c0.1,0,0.3,0.1,0.3,0.3c0,0.2-0.2,0.3-0.5,0.4v11.8c0.3-1.3,0.8-4.2,1-6.4c0.3,0.2,2.7,2.2,2.7,2.6c0,0.3-0.2,0.3-0.5,0.3c-0.3,0.5-0.4,0.7-1.3,1.8h4V59z M108.4,70.3v3.9h2.2v-3.9H108.4z M108.4,74.7v4h2.2v-4H108.4z M108.4,79.1v4.3h2.2v-4.3H108.4z"/><path d="M128.5,54.8l-0.1-0.4h16.8l0.7-1.4c0.5-1,0.6-1,0.7-1c0.2,0,2.8,2.9,2.8,3.6c0,0.6-0.7,0.9-1,1v25.4c0,1.2,0,3.7-3.3,3.7c-0.5,0-0.8-0.1-0.8-1c0-2.2,0-3.5-2.3-4.5v-0.1c0.8,0.1,2.3,0.2,3,0.2c0.4,0,0.4-0.1,0.4-1.1V54.8H128.5z M139.7,60.4l1.2-2.9c0.1-0.3,0.2-0.4,0.3-0.4c0.1,0,2.7,3.2,2.7,3.5c0,0.3-0.1,0.3-0.3,0.3h-14.5l-0.1-0.4H139.7z M138.5,65.8l0.7-1.6c0.3-0.6,0.4-1,0.6-1c0.2,0,2.7,2.8,2.7,3.5c0,0.5-0.2,0.7-0.9,1.2v10.5c0,0.7-0.1,0.7-0.5,0.7l-2,0.2c-0.5,0.1-0.5-0.2-0.5-0.7v-2.9h-4.6v4.3c0,0.7,0,0.8-0.5,0.9l-2,0.2c-0.6,0.1-0.6-0.3-0.6-0.9V64.7c1.5,0.4,3.1,1.1,3.4,1.2H138.5z M134.1,66.3v9.1h4.6v-9.1H134.1z"/></g></g><g><g><path d="M38.5,194.5c1.9-1.9,7.3-7.4,9.9-21.5c1-5.1,1.4-9.9,1.4-12.4c0-0.6,0-2.4-1.5-2.4c-0.2,0-0.4,0.1-1.2,0.2c0.6-1.5,1.2-3.3,3.5-3.3c1.1,0,5.3,1.7,5.3,3.5c0,0.2-0.4,2.2-0.5,3.1c1.6-2.6,5.1-8.9,6.1-13.2c-4.6,0.5-13.9,1.8-17.7,4.2c-2.2,1.3-2.5,1.5-3.1,1.5c-2,0-5.1-4.4-5.1-7.7c0-1.7,0.4-2.3,1.4-3.8c0.4,1.4,1.7,4.8,3.9,4.8c1.1,0,19.3-2.1,19.5-2.2c1-0.3,1.3-0.7,2.2-1.5c0.3-0.3,0.7-0.6,1.1-0.6c1.5,0,5,5.9,5,8.6c0,1.5-0.5,1.5-3,1.6c-3.7,4.1-8.4,7.7-10.6,9.1c-1.9,10.8-2.4,13.6-4.3,18.2c-3.7,9.3-9.2,12.4-12.5,14V194.5z"/><path d="M114.9,148.2c-7.4,25.7-15.1,32.3-24,39.9c-0.6,0.5-1,1-1.7,1.9c-0.5,0.7-1,1.4-1.5,1.4c-1.5,0-4.6-6.5-4.6-7.9c0-0.7,0.7-3.6,0.8-4.3c0.4-2.6,0.4-15.7,0.4-19.2c0-10.2-0.3-11.5-3.2-11.3c2.2-3.3,3.1-3.8,4-3.8c2,0,5,4.4,5,5.5c0,0.6-0.7,3.1-0.8,3.6c-0.4,2.5-0.6,23.8-0.6,25.1C96.8,175.9,108,161.5,114.9,148.2L114.9,148.2z"/><path d="M124.4,194.7c3.7-2.8,9.6-7.6,14.8-16.8c3-5.2,6.8-14.2,8.5-24.5c-0.4,0.1-4.7,0.9-5.3,1l-3.4,0.7c-3.3,7.1-7.2,12.7-14.6,17.4l-0.1-0.2c8.9-11.6,12.4-26.4,12.4-28c0-2.2-1.3-2.4-2.3-2.6c0.5-0.9,1.2-2,2.6-2c2.7,0,6,4,6,5.8c0,0.7-0.1,0.8-1.1,2.2c-0.1,0.1-1.1,3-1.2,3.4c1.2-0.1,4.1-0.3,5.7-1c0.5-0.3,2.7-2,3.2-2c0.7,0,5.4,4.7,5.4,6.5c0,1.3-0.9,2-2,2.8c-4.9,16.6-11.5,31.8-28.5,37.8V194.7z"/><path d="M170.1,157.3c4.6,0,8.6,2.6,8.6,7.3c0,2.5-1.4,4.5-2.9,4.5c-1.2,0-1.6-0.8-2.9-4c-0.4-1-1.9-4.7-5.6-7.5C168.2,157.5,168.9,157.3,170.1,157.3z M201.3,149.9c-3,15.7-11.3,30.1-22.4,38.5c-2.2,1.7-3.6,2.7-4.2,3.5c-0.8,1.2-0.9,1.3-1.3,1.3c-1.3,0-5.3-6.2-5.3-10.1c0-2,0.7-3.1,1.3-4c0.5,2.4,0.9,4.2,2.3,4.2c2,0,6.9-3.3,10.4-6.3c8.1-7,15.6-17.9,19-27.1L201.3,149.9z M175,142.5c5,0,7.1,3.3,7.1,6.5c0,2.9-1.7,4.5-3,4.5c-1,0-1.2-0.4-3.1-4.4c-1.9-4-4-5.2-5.4-6.1C171.8,142.7,173.2,142.5,175,142.5z"/><path d="M210.6,193.4c15.8-15.5,20.3-30.4,22.9-43.6c-1.6,0.4-7.8,2-10.4,3.8c-0.4,0.3-2.1,1.9-2.5,1.9c-1.2,0-4.9-4.1-4.9-7.7c0-2,0.7-3,1.3-3.7c0.2,4,3.1,4,3.9,4c1.3,0,10.9-0.7,13-2.5c0.2-0.2,0.9-1.1,1.3-1.5c0.2-0.3,0.4-0.4,0.7-0.4c1,0,5.2,4.5,5.2,6.3c0,1.5-1,1.8-2,2.1c-1.3,5.4-3.2,11.8-6.7,18.8c5.6,2.6,12.5,8.3,12.5,15.8c0,4.3-2.2,5.8-3.2,5.8c-1.2,0-1.6-1.5-2.5-4.4c-2-6.5-4.3-11.8-7.3-16.2c-4.3,8.3-10.8,16.7-21.5,22L210.6,193.4z"/><path d="M269.4,167.4c0,3.1-1.6,5.5-3.6,5.5c-2,0-3.6-2.4-3.6-5.5c0-3.1,1.6-5.5,3.6-5.5C267.7,161.9,269.4,164.3,269.4,167.4z"/></g></g><g><g><path d="M69.6,217.2c-7.4,25.7-15.1,32.3-24,39.9c-0.6,0.5-1,1-1.7,1.9c-0.5,0.7-1,1.4-1.5,1.4c-1.5,0-4.6-6.5-4.6-7.9c0-0.7,0.7-3.6,0.8-4.3c0.4-2.6,0.4-15.7,0.4-19.2c0-10.2-0.3-11.5-3.2-11.3c2.2-3.3,3.1-3.8,4-3.8c2,0,5,4.4,5,5.5c0,0.6-0.7,3.1-0.8,3.6c-0.4,2.5-0.6,23.8-0.6,25.1C51.5,244.9,62.7,230.6,69.6,217.2L69.6,217.2z"/><path d="M78.6,262.5c15.8-15.5,20.3-30.4,22.9-43.6c-1.6,0.4-7.8,2-10.4,3.8c-0.4,0.3-2.1,1.9-2.5,1.9c-1.2,0-4.9-4.1-4.9-7.7c0-2,0.7-3,1.3-3.7c0.2,4,3.1,4,3.9,4c1.3,0,10.9-0.7,13-2.5c0.2-0.2,0.9-1.1,1.3-1.5c0.2-0.3,0.4-0.4,0.7-0.4c1,0,5.2,4.5,5.2,6.3c0,1.5-1,1.8-2,2.1c-1.3,5.4-3.2,11.8-6.7,18.8c5.6,2.6,12.5,8.3,12.5,15.8c0,4.3-2.2,5.8-3.2,5.8c-1.2,0-1.6-1.5-2.5-4.4c-2-6.5-4.3-11.8-7.3-16.2c-4.3,8.3-10.8,16.7-21.5,22L78.6,262.5z"/><path d="M149,218.4c1.2-1.2,1.3-1.3,1.8-1.3c0.7,0,2.9,1,3.7,1.5c1.5,0.9,1.7,1.5,1.7,2.3c0,2.8-1.6,2.9-2.6,3c-4.2,0.2-4.7,0.3-9.1,1.3c0.3,4.4,0.7,8.3,1,12.7c2.3-0.7,6.4-1.9,6.9-2.2c0.4-0.2,0.6-0.4,1.3-1.5c0.2-0.3,0.9-1.2,1.4-1.2c0.5,0,5.9,2.9,5.9,5.8c0,2.4-1.1,2.4-1.6,2.4c-0.2,0-3.3-0.8-4-0.8c-0.5-0.1-1-0.1-1.4-0.1c-0.8,0-4,0.1-8.3,1.4c0.6,7.1,0.7,7.9,1,11c0.1,1.2,0.8,6.1,0.8,7.2c0,3-1.3,5.7-2.5,5.7c-1.7,0-2.8-4.7-3.3-7.2c0-1,0.1-5.1,0.1-6c0-2.9-0.1-5.2-0.2-9.4c-3,1.1-9.1,3.8-10.7,5.4c-0.8,0.8-1,1-1.4,1c-1.4,0-4.2-4.4-4.2-6.8c0-1.1,0.3-2.4,0.5-3.3c0.7,1.3,1.7,3.1,3.5,3.1c0.7,0,1.9-0.3,12-3.5c-0.2-4.3-0.4-6.9-1-12.7c-3.1,1-6.1,2.4-6.7,2.8c-1.2,0.8-1.3,0.9-1.8,0.9c-2.1,0-4.7-3.2-4.7-6.4c0-0.5,0-1,0.3-1.9c2.5,1.9,3,2.2,4.8,2.2c1.1,0,6-1.5,7.6-1.9c-1-10-1.2-11.4-3.2-11.4c-0.2,0-0.4,0.1-0.8,0.1c1-2.4,1.5-3.8,3.6-3.8c1.7,0,4.5,1.7,4.5,3.2c0,0.3-0.3,1.7-0.3,1.9c-0.1,0.4-0.2,0.9-0.2,1.4c0,0.6,0.1,1.3,0.5,7.4C147.1,219.9,147.9,219.5,149,218.4z"/><path d="M172,254c8.1-6.1,15.5-15.8,20.2-27.7c-3.3,1.2-8.4,3.5-8.9,4c-1.8,1.5-2,1.7-2.4,1.7c-1.4,0-4-4.7-4-7.5c0-1.2,0.3-2.2,0.7-3.1c0.4,1.6,0.9,3.6,3.7,3.6c1.7,0,10.1-1.4,11.5-2.3c0.3-0.3,1.8-1.9,2.2-1.9c1,0,4.9,4,4.9,6c0,1.2-0.5,1.7-2.5,2.6c-2.9,5.5-5.5,9-5.9,9.4c1.2,1.2,1.4,1.7,1.4,2.3c0,0.4-0.5,1.9-0.5,2.2c-0.1,0.7-0.1,1.5-0.1,3.9c0,2,0.3,11.6,0.3,12.7c0,3.3-1,5.7-2.5,5.7c-2.2,0-2.6-3.7-3.1-8.7c0.8-3.9,0.9-6.5,1-13.7c-5,5.8-9.9,9.5-15.8,11L172,254z M187.9,208.6c4.4,0,7.2,2.6,7.2,6.5c0,2.6-1.3,3.8-2.5,3.8c-1,0-1.1-0.2-2.5-2.4c-2.6-4.2-6-6.1-8.1-7.3C183.3,209,185.3,208.6,187.9,208.6z M206.2,249.8c0,3.3-1.6,5.2-2.8,5.2c-1.1,0-1.5-1-2.5-3.8c-1-2.8-3.8-9.2-7.6-12.5C196.1,239.2,206.2,241.3,206.2,249.8z"/><path d="M252.9,219.3c-3,10.8-8.8,27.5-26,39.9c-1,0.7-1.1,0.8-1.9,1.9c-0.2,0.2-0.6,0.7-1,0.7c-1.4,0-5.5-6.3-5.5-10.4c0-2.2,0.9-3.5,1.4-4c0.5,1.8,1,3.8,2.5,3.8c2.9,0,17.6-7.2,30.4-32L252.9,219.3z M227.8,216.3c2,1.2,3.7,3.9,3.7,7.1c0,3.1-1.6,5.3-3.1,5.3c-1.2,0-1.6-0.8-2.9-4.2c-0.7-1.8-2.5-5.8-6.4-9.9C223.8,214.7,225.9,215.1,227.8,216.3z"/></g></g><g><g><path d="M34.8,318.9c1.5-0.8,2.9-2.6,3.6-4.1c0.4-0.9,1.1-2.7,1.4-5.7c-0.5,0-3,0.2-3.4,0.3c-0.3,0-0.3,0-0.4,0c-0.1,0-0.1,0-0.3,0c0,0.2,0.1,1.9,0.1,2.2c0,0.2,0.1,1.1,0.1,1.3c0,0.9-0.4,0.9-0.5,0.9c-0.3,0-0.7-0.6-0.7-1.6c0-0.2,0-1.2,0-1.4c0-2.4-0.5-2.5-0.7-2.6c0.3-0.4,0.6-0.5,0.7-0.5c0.2,0,0.3,0.1,0.7,0.5c0.3,0.3,0.4,0.3,0.6,0.3c0.1,0,1.1-0.1,1.3-0.1c0-1.3,0-1.6,0-2.1c0-0.4-0.2-0.6-0.5-0.6c0,0-0.1,0-0.2,0c0.4-0.8,0.8-0.8,1-0.8c0.3,0,1.1,0.4,1.1,0.9c0,0.1-0.1,0.7-0.2,0.8c0,0.5-0.1,1.3-0.1,1.7c1.3-0.1,1.5-0.1,1.7-0.3c0.2-0.2,0.2-0.2,0.3-0.2c0.2,0,1.2,1.3,1.2,1.6c0,0.1,0,0.3-0.4,0.5c-0.4,2.7-1.3,5-2,6.1C38.2,317.4,36.4,318.8,34.8,318.9L34.8,318.9z M41.7,307c0,0.3-0.1,0.7-0.4,0.7c-0.2,0-0.3-0.2-0.5-0.6c-0.3-0.6-0.8-1.3-1.3-1.7C39.9,305.4,41.7,305.4,41.7,307z M41.1,304.3c0.7,0,1.7,0.3,1.7,1.4c0,0.4-0.2,0.7-0.4,0.7c-0.2,0-0.2-0.1-0.4-0.5c-0.2-0.3-0.6-1.2-1.3-1.5C40.8,304.3,40.9,304.3,41.1,304.3z"/><path d="M45.7,316.1c2.4-2.3,4.5-6.9,4.5-7.6c0-0.1,0-0.3-0.5-0.7c0.1-0.1,0.4-0.2,0.6-0.2c0.5,0,1.2,0.9,1.2,1.5c0,0.2,0,0.2-0.2,0.4c-0.3,0.3-1.1,1.9-1.2,2.2c0.2,0.1,0.4,0.3,0.4,0.5c0,0,0,0.1-0.1,0.4c-0.1,0.4-0.1,0.4-0.1,1.4c0,0.6,0.1,3.6,0.1,4c0,0.7-0.3,1-0.5,1c-0.5,0-0.7-1.2-0.7-1.5c0-0.2,0.1-1,0.1-1.1c0.1-1.6,0-3.5,0-3.6C48.6,314,47.1,315.5,45.7,316.1L45.7,316.1z"/><path d="M55.7,318.7c0.9-0.7,2.4-1.9,3.7-4.2c0.7-1.3,1.7-3.6,2.1-6.1c-0.1,0-1.2,0.2-1.3,0.3l-0.9,0.2c-0.8,1.8-1.8,3.2-3.6,4.4l0,0c2.2-2.9,3.1-6.6,3.1-7c0-0.6-0.3-0.6-0.6-0.6c0.1-0.2,0.3-0.5,0.7-0.5c0.7,0,1.5,1,1.5,1.4c0,0.2,0,0.2-0.3,0.6c0,0-0.3,0.8-0.3,0.8c0.3,0,1-0.1,1.4-0.3c0.1-0.1,0.7-0.5,0.8-0.5c0.2,0,1.4,1.2,1.4,1.6c0,0.3-0.2,0.5-0.5,0.7C61.6,313.5,60,317.3,55.7,318.7L55.7,318.7z"/><path d="M72.9,312.5c0,0.7-0.3,1.2-0.7,1.2c-0.3,0-0.4-0.3-0.8-1.1c-0.2-0.5-0.8-1.5-1.7-2.2c0,1.7,0,2.9,0,3.6c0,0.6,0.2,3,0.2,3.5c0,0.6-0.1,1.7-0.7,1.7c-0.6,0-0.8-1.3-0.9-2.2c0.3-1.3,0.3-4.5,0.3-6.1c0-0.5,0-4-0.1-4.5c-0.1-0.3-0.2-0.6-0.6-0.6c-0.1,0-0.2,0-0.3,0.1c0.2-0.6,0.6-1.1,1-1.1c0.4,0,1.3,0.2,1.3,1c0,0.2-0.2,1-0.2,1.1c-0.1,0.6-0.1,2.4-0.1,3.1C71.4,310.2,72.9,311,72.9,312.5z"/><path d="M76.3,318.1c2.3-2.9,2.5-6.9,2.5-7.9c0-0.3,0-1-0.7-0.9c0.4-0.6,0.6-0.8,0.9-0.8c0.5,0,1.3,0.8,1.3,1.2c0,0.2-0.1,0.3-0.1,0.4C79.8,313.8,78.9,316.1,76.3,318.1L76.3,318.1z M86.6,307.8c-0.6,3.1-1.9,5.9-3.6,7.7c-0.2,0.2-0.5,0.6-0.7,1c-0.1,0.3-0.1,0.4-0.3,0.4c-0.3,0-1-1.7-1-2c0-0.1,0.1-0.7,0.1-0.8c0.1-0.6,0.1-2,0.1-2.6c0-0.6,0-3.3-0.1-3.7c-0.2-0.7-0.5-0.7-0.7-0.7c0.4-0.6,0.6-0.8,0.9-0.8c0.6,0,1.3,0.9,1.3,1.3c0,0.1-0.2,0.6-0.2,0.7c-0.1,0.4-0.1,5.4-0.1,5.5C83.9,312.6,85.8,309.7,86.6,307.8L86.6,307.8z"/><path d="M93.3,311.9c0,0.8-0.4,1.4-0.9,1.4c-0.5,0-0.9-0.6-0.9-1.4c0-0.8,0.4-1.4,0.9-1.4C92.9,310.5,93.3,311.2,93.3,311.9z"/><path d="M101.1,308.1c1.1,0,3.3-0.3,3.6-0.4c0.1-0.1,0.6-0.6,0.7-0.6c0.3,0,1.2,1.4,1.2,1.6c0,0.2-0.2,0.4-0.3,0.4c-0.1,1.1-0.5,5.7-0.6,5.7c0.4,0.4,0.6,0.6,0.6,1.1c0,0.2,0,0.8-0.4,0.8c-0.1,0-0.5-0.1-0.6-0.2c-0.5-0.2-0.7-0.2-1.1-0.2c-1.1,0-3.2,0.5-3.4,0.6c-0.1,0.1-0.6,0.4-0.7,0.4c-0.3,0-1.2-1-1.2-1.9c0-0.3,0.1-0.6,0.2-0.9c0.3,1,0.9,1,1.2,1c0.1,0,3.9-0.4,4.2-0.4c0.2-1.3,0.4-5,0.4-6.2c-1,0.1-3.2,0.4-3.9,0.8c-0.1,0.1-0.6,0.4-0.7,0.4c-0.4,0-1.1-1.5-1.1-2c0-0.5,0.2-0.7,0.3-0.9C99.6,308.1,99.9,308.1,101.1,308.1z"/><path d="M119.5,307.6c-0.8,2.7-2.2,6.9-6.5,10c-0.2,0.2-0.3,0.2-0.5,0.5c0,0-0.1,0.2-0.2,0.2c-0.4,0-1.4-1.6-1.4-2.6c0-0.5,0.2-0.9,0.3-1c0.1,0.4,0.2,0.9,0.6,0.9C112.6,315.6,116.3,313.8,119.5,307.6L119.5,307.6z M113.2,306.9c0.5,0.3,0.9,1,0.9,1.8c0,0.8-0.4,1.3-0.8,1.3c-0.3,0-0.4-0.2-0.7-1c-0.2-0.4-0.6-1.5-1.6-2.5C112.2,306.5,112.7,306.6,113.2,306.9z"/><path d="M128.6,312.5c0,0.7-0.3,1.2-0.7,1.2c-0.3,0-0.4-0.3-0.8-1.1c-0.2-0.5-0.8-1.5-1.7-2.2c0,1.7,0,2.9,0,3.6c0,0.6,0.2,3,0.2,3.5c0,0.6-0.1,1.7-0.7,1.7c-0.6,0-0.8-1.3-0.9-2.2c0.3-1.3,0.3-4.5,0.3-6.1c0-0.5,0-4-0.1-4.5c-0.1-0.3-0.2-0.6-0.6-0.6c-0.1,0-0.2,0-0.3,0.1c0.2-0.6,0.6-1.1,1-1.1c0.4,0,1.3,0.2,1.3,1c0,0.2-0.2,1-0.2,1.1c-0.1,0.6-0.1,2.4-0.1,3.1C127.1,310.2,128.6,311,128.6,312.5z M128.9,308.3c0,0.4-0.2,0.7-0.4,0.7c-0.2,0-0.3-0.1-0.5-0.6c-0.1-0.3-0.4-1-1.1-1.6C128.1,306.8,128.9,307.4,128.9,308.3z M128.2,305.1c0.6,0,1.3,0.3,1.5,0.6c0.1,0.2,0.2,0.4,0.2,0.7c0,0.4-0.2,0.7-0.4,0.7c-0.2,0-0.2-0.1-0.5-0.6c-0.5-0.9-1-1.2-1.2-1.3C127.9,305.1,128,305.1,128.2,305.1z"/><path d="M134.2,306.1c0.3,0,1.2,0.5,1.2,1c0,0.1-0.1,0.4-0.1,0.5c0,0.2-0.1,2-0.1,2.3c0,0.4,0.1,1.9,0.1,2.2c0,0.6-0.1,1.6-0.6,1.6c-0.5,0-0.7-1-0.7-1.3c0-0.1,0.1-0.7,0.1-0.8c0-0.7,0.1-2.5,0.1-3.1c0-0.6,0-1.5-0.8-1.5C133.6,306.4,133.9,306.1,134.2,306.1z M134,319.1c2.8-2.1,3.2-4.3,3.2-10.2c0-2.5,0-2.9-0.5-2.9c-0.1,0-0.2,0-0.4,0.1c0.1-0.4,0.3-1,1.1-1c0.6,0,1.2,0.7,1.2,1.1c0,0.1-0.1,0.7-0.1,0.8c0,0.2,0,2.6,0,4C138.5,315.5,137.7,317.8,134,319.1L134,319.1z"/><path d="M143.8,318.7c0.5-0.5,1.8-1.9,2.5-5.4c0.2-1.3,0.4-2.5,0.4-3.1c0-0.1,0-0.6-0.4-0.6c-0.1,0-0.1,0-0.3,0c0.1-0.4,0.3-0.8,0.9-0.8c0.3,0,1.3,0.4,1.3,0.9c0,0-0.1,0.6-0.1,0.8c0.4-0.7,1.3-2.2,1.5-3.3c-1.1,0.1-3.5,0.4-4.4,1c-0.6,0.3-0.6,0.4-0.8,0.4c-0.5,0-1.3-1.1-1.3-1.9c0-0.4,0.1-0.6,0.4-1c0.1,0.4,0.4,1.2,1,1.2c0.3,0,4.8-0.5,4.9-0.5c0.2-0.1,0.3-0.2,0.6-0.4c0.1-0.1,0.2-0.1,0.3-0.1c0.4,0,1.2,1.5,1.2,2.2c0,0.4-0.1,0.4-0.8,0.4c-0.9,1-2.1,1.9-2.6,2.3c-0.5,2.7-0.6,3.4-1.1,4.6C146.1,317.6,144.7,318.4,143.8,318.7L143.8,318.7z"/><path d="M160.7,309.5c0.2,1.8,0.7,3.8,1.5,5c0.3,0.5,1.3,2,3.2,2.6v0c-0.7,0.2-0.9,1.1-0.9,1.2c-0.2,0.7-0.2,0.8-0.3,0.8c-0.3,0-1.2-0.8-2-2c-1.2-2-1.5-4.7-1.5-7.4c-0.1,2.2-0.4,3.8-1,5.2c-0.8,2-2.3,3.7-4.5,4.4l0,0c3.8-2.7,4.1-8.3,4.2-9.9h-3.9l-0.1-0.2h3.9c0-0.4,0-0.8,0-1.2v-3.6c0.3,0,0.9,0.2,1.2,0.2c0.2,0,0.5,0.1,0.5,0.2c0,0.1-0.1,0.1-0.3,0.2v2.8c0,0.4,0,1.1,0,1.5h2.4l0.6-1.4c0.1-0.2,0.1-0.2,0.1-0.2c0,0,1.2,1.5,1.2,1.7c0,0.1-0.1,0.1-0.1,0.1H160.7z"/><path d="M176.5,314l0.6-1.4c0.1-0.2,0.1-0.2,0.1-0.2c0.1,0,1.2,1.5,1.2,1.6s-0.1,0.1-0.1,0.1h-4.1v3.2c0,1,0,1.9-1.6,1.9c-0.4,0-0.4-0.1-0.4-0.4c0-0.4,0-0.8-0.1-1.1c-0.1-0.2-0.4-0.7-1-0.9v0c0.2,0,1.3,0.1,1.5,0.1c0.3,0,0.3-0.1,0.3-0.7v-2.2h-4.1l0-0.2h4.1v-1.7c0.1,0,0.6,0.1,0.9,0.2c0.3-0.5,0.7-1.4,0.8-1.8h-3.9l0-0.2h3.9l0.3-0.6c0.1-0.1,0.1-0.3,0.2-0.3s0.1,0.1,0.2,0.2c0.1,0.1,0.7,0.9,0.7,1c0.2-0.6,0.4-1.8,0.5-2.2h-6.1c0,0.2,0.1,0.7,0.1,1.3c0,1.2-0.5,2-1,2c-0.5,0-0.7-0.7-0.7-1.1c0-0.2,0-0.3,0.2-0.5c0.3-0.4,0.9-1.3,1.2-3.1h0c0.1,0.3,0.2,0.6,0.2,1.3h4.3c0.4-1.2,0.6-2.5,0.8-3.9c1,0.6,1.1,0.6,1.6,1c0,0,0.1,0.1,0.1,0.2c0,0,0,0.2-0.3,0.1c-0.2,0.4-0.9,1.6-1.9,2.7h1.5l0.4-0.6c0.1-0.1,0.1-0.2,0.2-0.2c0.1,0,0.4,0.4,0.5,0.6c0.2,0.3,0.9,1.4,0.9,1.6s-0.2,0.3-0.3,0.3c-0.1,0-0.3,0-0.5-0.1c-0.2,0.1-0.9,0.7-1.5,1c0.3,0.4,0.3,0.4,0.3,0.6c0,0.4-0.4,0.3-0.7,0.3c-0.4,0.3-0.8,0.5-1.5,0.7c0.1,0,0.2,0,0.2,0.1c0,0.1-0.2,0.2-0.3,0.2v1H176.5z M170.2,304.6c0.4,0.1,2.2,0.6,2.2,2.3c0,0.9-0.4,1.2-0.9,1.2c-0.2,0-0.3-0.1-0.3-0.5C171.1,307.4,170.9,306.1,170.2,304.6L170.2,304.6z M172.3,304.5c1,0.3,2.2,0.8,2.2,2.2c0,0.9-0.5,1.4-0.9,1.4c-0.2,0-0.2-0.1-0.2-0.4C173.2,306.6,172.7,305.2,172.3,304.5L172.3,304.5z"/><path d="M186.4,309.6c-0.4,0.8-0.7,1.1-1.1,1.7h0.6l0.3-0.6c0-0.1,0.1-0.2,0.1-0.2c0.1,0,1.1,1.3,1.1,1.5c0,0.2-0.2,0.2-0.5,0.3c-0.3,0.3-0.6,0.5-0.8,0.8c0,0,0.2,0,0.2,0.2c0,0.2-0.2,0.2-0.3,0.2v0.7l2-0.3v0.1c-0.8,0.6-1.1,0.7-2,1.3v2.4c0,0.8,0,1.8-1.3,1.8c-0.4,0-0.4-0.1-0.4-0.5c0-1.2-0.9-1.5-1.1-1.6v-0.1c0.2,0,1.1,0.1,1.2,0.1c0.4,0,0.4-0.1,0.4-0.6v-0.8c-0.5,0.3-0.8,0.4-1.7,0.8c-0.1-0.3-0.1-0.4-0.3-1.9l2-0.3v-1.6c0.1,0,0.7,0.1,0.8,0.2c0.2-0.5,0.4-1.1,0.4-1.4h-0.7c-0.4,0.5-1.4,1.9-3,2.8l0-0.1c1-1.1,1.8-2.4,2-2.8h-1.4l-0.1-0.2h1.5c0.5-0.8,0.9-1.6,0.9-1.7h-2.8l-0.1-0.2h1.7v-2.2h-1.3l-0.1-0.2h1.3v-2.6c0.2,0,1.3,0.2,1.5,0.3c0,0,0.1,0.1,0.1,0.1c0,0.2-0.2,0.2-0.3,0.2v1.9l0.3-0.8c0-0.1,0.1-0.2,0.1-0.2c0.1,0,0.5,0.6,0.6,0.7c0.2-0.6,0.3-1,0.5-1.7c0.3,0.2,0.9,0.7,1.2,0.8c0.3,0.2,0.3,0.3,0.3,0.4c0,0.1-0.1,0.1-0.2,0.1c-0.1,0-0.2,0-0.3-0.1c-0.6,1.4-0.9,2.1-1.4,3h0.5l0.4-0.9c0-0.1,0.1-0.2,0.1-0.2c0.1,0,0.6,0.8,0.6,0.9c0.2-1.6,0.4-3.1,0.5-4.8c0.3,0.1,0.7,0.2,1.2,0.4c0.5,0.1,0.5,0.2,0.5,0.3c0,0.2-0.1,0.2-0.3,0.2c-0.2,1.4-0.4,2.3-0.8,3.7h1.1l0.6-1.2c0-0.1,0.1-0.2,0.1-0.2c0,0,1.1,1.3,1.1,1.4c0,0.1,0,0.1-0.1,0.1h-1.3c0.8,0.6,0.9,0.6,0.9,0.8c0,0.1-0.1,0.1-0.3,0.2c-0.5,3-0.8,4.3-1.4,5.5c0.6,0.8,1.3,1.3,2.4,1.8v0.1c-0.5,0.3-0.7,1-0.7,1.2c-0.1,0.6-0.1,0.6-0.2,0.6c0,0-1.2-0.4-2.2-2.5c-1.4,2-3,2.4-3.5,2.6l0,0c1.5-0.9,2.6-2.8,3-3.8c-0.3-1.2-0.4-2.2-0.5-4c-0.4,0.9-0.7,1.4-1,1.8l0,0c0.4-1.2,0.6-2.3,0.8-3.7H186.4z M185.3,309.4c0.4-1,0.6-1.3,0.9-2.2h-0.9L185.3,309.4L185.3,309.4z M189.1,309.2c-0.3,1-0.5,1.5-0.7,2c0.1,0.5,0.2,1.9,0.7,3.1c0.2-0.8,0.7-2.5,0.8-5.1H189.1z"/><path d="M198.6,308.5l0.3-0.9c0.1-0.1,0.1-0.2,0.1-0.2c0.1,0,0.8,1.1,0.8,1.2c0,0.1-0.1,0.1-0.1,0.1h-1.2v2.4c0.1,0,0.8-0.2,0.9-0.3v0c-0.5,0.7-0.7,0.9-0.9,1.1v5.7c0,0.7,0,0.9-0.1,1.1c-0.2,0.5-0.9,0.7-1.2,0.7c-0.2,0-0.2-0.2-0.2-0.5c0-0.8-0.1-1.3-0.9-1.7v0c0.1,0,0.8,0,1,0c0.2,0,0.2,0,0.2-0.6v-3.2c-0.6,0.6-0.8,0.7-1,0.9c-0.1-0.5-0.3-1.6-0.4-2.5c0.2,0,1.2-0.3,1.4-0.4v-2.8h-1.2l0-0.2h1.3v-3.9c0.2,0,1.4,0.2,1.5,0.2c0,0,0.1,0,0.1,0.1c0,0.1-0.2,0.2-0.3,0.2v3.3H198.6z M203,310.2c0,0,0.4-2.1,0.4-3.6c-1.3,0.2-1.7,0.2-4.1,0.3v-0.1c1.1-0.4,3.4-1.6,4.3-2.4c0.2,0.3,1.3,1.3,1.5,1.6c0.1,0.1,0.1,0.1,0.1,0.2s-0.1,0.1-0.1,0.1c-0.1,0-0.1,0-0.2-0.1c-0.3,0.1-1,0.2-1.5,0.3c0.3,0.1,1.2,0.5,1.4,0.6c0.1,0,0.2,0.1,0.2,0.2c0,0.1,0,0.1-0.3,0.2c-0.2,0.4-0.5,1.2-1.5,2.6h0.7l0.4-0.6c0.1-0.1,0.1-0.2,0.2-0.2c0.1,0,1.1,1.5,1.1,1.7c0,0.2-0.1,0.2-0.5,0.2c-0.5,0.4-0.7,0.6-1.1,0.9c0.1,0.1,0.5,0.5,0.6,0.6c0.1,0.1,0.1,0.2,0.1,0.2c0,0.2-0.1,0.2-0.6,0.3c-0.6,1.4-0.9,2-1.3,2.6c0.6,0.4,1.6,1,2.9,1.1l0,0c-0.6,0.4-0.7,1.2-0.7,1.8c0,0.1-0.1,0.3-0.2,0.3c-0.2,0-1.6-0.5-2.8-2.1c-1.2,1.5-2.5,2-3.2,2.2v-0.1c1.4-1.2,2.5-2.9,2.7-3.2c-0.5-1.2-0.7-2.4-0.8-3.4h-0.3c-0.2,0.7-0.6,0.7-0.7,0.7c-0.3,0-0.6-0.3-0.6-0.9c0-0.3,0.1-0.4,0.2-0.5c0.5-0.7,0.7-1.2,0.7-2.4h0c0.1,0.2,0.2,0.4,0.3,0.7H203z M199.8,307.1c0.4,0.1,1.5,0.5,1.5,1.8c0,0.7-0.3,1.1-0.7,1.1c-0.3,0-0.3-0.2-0.4-0.8C200.1,307.8,199.9,307.4,199.8,307.1L199.8,307.1z M200,310.4c0.2,0.6,0.2,1.2,0.2,1.4c0,0.3,0,0.5-0.1,0.6h2.5l0.4-0.6c0.1-0.2,0.1-0.2,0.2-0.2c0,0,0.1,0,0.3,0.3c0.1-0.5,0.2-1,0.3-1.5H200z M200.6,312.6c0.3,1,0.7,1.8,1.2,2.5c0.3-0.7,0.7-1.5,1-2.5H200.6z M201.3,307c0.9,0.4,1.6,1,1.6,1.9c0,0.5-0.2,1.1-0.7,1.1c-0.4,0-0.5-0.4-0.5-0.6C201.7,308.4,201.6,307.6,201.3,307L201.3,307z"/><path d="M210.5,307.4c0.2,0,1.3-0.4,1.5-0.4c1.2-0.4,2.5-0.6,3.7-0.9c0.4-0.1,0.4-0.1,0.8-0.4c0.1,0,0.1-0.1,0.2-0.1c0.2,0,1.4,0.5,1.4,1.5c0,0.3-0.1,0.7-0.5,0.7c-0.1,0-0.2,0-0.6-0.2c-0.4-0.1-0.8-0.2-1-0.2c-1.3,0-1.7,1.1-1.9,1.5c-0.4,0.9-0.6,2.8-0.6,4.5c0,2.8,0.9,3.1,2,3.5c0.3,0.1,0.8,0.3,0.8,1.1c0,0.8-0.2,1.1-0.6,1.1c-0.1,0-0.6,0-1.3-0.4c-1.2-0.7-1.8-1.8-1.8-4.5c0-2.8,0.8-5.5,2-6.6c-0.9,0.1-2.3,0.8-3.1,1.3c-0.5,0.3-0.5,0.3-0.7,0.3c-0.7,0-1.1-0.9-1.1-1.8c0-0.2,0-0.6,0.1-0.9C209.9,306.9,210,307.4,210.5,307.4z M217.4,311.9c0,0.4-0.2,0.8-0.4,0.8c-0.2,0-0.3-0.2-0.5-0.8c-0.3-0.9-0.7-1.3-0.9-1.6C216.4,310.4,217.4,311,217.4,311.9z M216.9,308.8c1,0,1.6,0.6,1.6,1.3c0,0.4-0.2,0.7-0.4,0.7c-0.2,0-0.2-0.1-0.5-0.7c-0.2-0.3-0.7-1.1-1.2-1.3C216.5,308.8,216.6,308.8,216.9,308.8z"/><path d="M222.4,315.1c0.6,0,1.6,0.1,2.3,0.8c0.3,0.3,0.6,0.8,0.6,1.7c0,0.7-0.3,1.2-0.8,1.2c-0.6,0-0.7-0.7-0.8-0.8c-0.2-0.8-0.4-1.9-1.5-2.8L222.4,315.1z"/><path d="M36.1,330.5l0.3-0.5c0.2-0.3,0.2-0.4,0.3-0.4s1.1,1.2,1.1,1.4c0,0.1,0,0.2-0.4,0.4v11.5c0,0.6,0,1.4-1.2,1.4c-0.4,0-0.4-0.1-0.4-0.7c0-0.4-0.1-0.9-0.9-1.4c-0.4,1.1-0.9,1.7-1.2,2.1l0,0c0.3-0.8,0.7-2,0.7-6.4v-7.8c0.6,0.2,0.7,0.2,1.2,0.4H36.1z M35.5,337.9c0,0.7-0.1,2.7-0.6,4.3c0.2,0,0.8,0,1,0c0.3,0,0.3-0.1,0.3-0.6v-3.7H35.5z M36.1,334v-3.3h-0.6v3.3H36.1z M36.1,337.7v-3.5h-0.6v3.5H36.1z M37.6,329.9c0.6,0.4,1.9,1.5,1.9,3.1c0,1-0.5,1.3-0.9,1.3c-0.2,0-0.2-0.1-0.3-0.7C38.2,331.8,37.9,330.6,37.6,329.9L37.6,329.9z M39.1,336.1c0.4,0.5,0.7,0.8,1,1.2c0.2-1.1,0.2-1.6,0.3-2.3c0.3,0.1,0.5,0.2,1,0.4c0.4,0.2,0.5,0.2,0.5,0.3c0,0.1-0.1,0.1-0.2,0.2c-0.3,1.5-0.5,2-0.6,2.6c0.5,0.9,0.7,1.8,0.7,2.4c0,0.8-0.4,1.2-0.8,1.2c-0.2,0-0.3-0.1-0.4-0.5c0-0.3-0.1-1-0.2-1.5c-0.3,0.7-0.6,1.2-1.3,2.2v0.6h2.9v-7.7c0.2,0,1.1,0.2,1.4,0.2c0.1,0,0.2,0,0.2,0.1c0,0.1-0.1,0.2-0.3,0.2v7.9c0,0.3-0.1,0.3-0.2,0.4l-0.8,0.1c-0.2,0-0.2,0-0.2-0.4v-0.6H39v0.6c0,0.3,0,0.4-0.2,0.4l-0.7,0.1c-0.2,0-0.3,0-0.3-0.3v-8.7c0.3,0,1.1,0.2,1.3,0.2c0.1,0,0.2,0.1,0.2,0.1c0,0.1-0.1,0.2-0.3,0.2v6.3c0.2-0.7,0.5-1.6,0.9-3.7C39.6,337.5,39.3,336.7,39.1,336.1L39.1,336.1z M39.1,329.6c0.4,0.3,2,1.4,2,3.2c0,0.6-0.3,1.3-0.9,1.3c-0.2,0-0.3-0.1-0.4-0.7C39.8,331.7,39.5,330.4,39.1,329.6L39.1,329.6z M41,334.8c0.4-1.2,0.7-3.8,0.9-5.1c0.3,0.1,0.9,0.4,1.2,0.5c0.3,0.1,0.4,0.2,0.4,0.3c0,0.1-0.1,0.2-0.4,0.2C42.6,332.2,42.1,333.5,41,334.8L41,334.8z"/><path d="M50.7,334.2l0.5-1.2c0-0.1,0.1-0.2,0.1-0.2c0.1,0,0.9,1.3,0.9,1.5s-0.1,0.1-0.1,0.1h-1.7v1.2c1.5,0.9,1.5,1.8,1.5,2.4s-0.2,1.2-0.8,1.2c-0.3,0-0.3-0.1-0.4-0.5c-0.1-0.9-0.1-2-0.4-2.8v8.1c0,0.3,0,0.4-0.2,0.4l-0.7,0.1c-0.2,0-0.3,0-0.3-0.4v-5.3c-0.5,1.1-1,1.9-2,3.1l0,0c0.9-2,1.6-4.9,1.9-7.4h-1.7l-0.1-0.2h1.9v-2.4c-0.4,0-0.8,0-1.9,0v0c1.2-0.6,2.5-1.7,3.2-2.3c0.1,0.2,1.2,1.5,1.4,1.8c0.1,0.1,0.1,0.2,0.1,0.2c0,0.1,0,0.1-0.1,0.1s-0.2,0-0.3-0.1c-0.6,0.1-0.8,0.1-1.2,0.2v2.5H50.7z M55.7,338.3l0.4-1.5c0-0.2,0.1-0.4,0.1-0.4c0.1,0,1,1.3,1,1.4c0,0.1,0,0.1-0.1,0.1l-1.5,0.5v5.3c0,0.3,0,0.4-0.3,0.4l-0.8,0.1c-0.2,0-0.3-0.1-0.3-0.4v-5l-3.5,1.2l-0.1-0.2l3.5-1.2v-9.3c0.4,0,1.3,0.2,1.5,0.2c0.1,0,0.1,0,0.1,0.1c0,0.1-0.1,0.1-0.3,0.2L55.7,338.3L55.7,338.3z M51.9,334.9c0.7,0.2,2,0.9,2,2.4c0,0.8-0.4,1.2-0.9,1.2c-0.2,0-0.2-0.1-0.3-0.5C52.5,336.6,52.3,336,51.9,334.9L51.9,334.9z M52,330.9c1,0.4,1.9,1.2,1.9,2.4c0,0.9-0.5,1.4-1,1.4c-0.2,0-0.2-0.1-0.3-0.8C52.7,333.1,52.4,332,52,330.9L52,330.9z"/><path d="M68.6,339l0.6-1.4c0.1-0.2,0.1-0.2,0.1-0.2c0.1,0,1.2,1.5,1.2,1.6s-0.1,0.1-0.1,0.1h-4.1v3.2c0,1,0,1.9-1.6,1.9c-0.4,0-0.4-0.1-0.4-0.4c0-0.4,0-0.8-0.1-1.1c-0.1-0.2-0.4-0.7-1-0.9v0c0.2,0,1.3,0.1,1.5,0.1c0.3,0,0.3-0.1,0.3-0.7v-2.2H61l0-0.2H65v-1.7c0.1,0,0.6,0.1,0.9,0.2c0.3-0.5,0.7-1.4,0.8-1.8h-3.9l0-0.2h3.9l0.3-0.6c0.1-0.1,0.1-0.3,0.2-0.3s0.1,0.1,0.2,0.2c0.1,0.1,0.7,0.9,0.7,1c0.2-0.6,0.4-1.8,0.5-2.2h-6.1c0,0.2,0.1,0.7,0.1,1.3c0,1.2-0.5,2-1,2c-0.5,0-0.7-0.7-0.7-1.1c0-0.2,0-0.3,0.2-0.5c0.3-0.4,0.9-1.3,1.2-3.1h0c0.1,0.3,0.2,0.6,0.2,1.3h4.3c0.4-1.2,0.6-2.5,0.8-3.9c1,0.6,1.1,0.6,1.6,1c0,0,0.1,0.1,0.1,0.2c0,0,0,0.2-0.3,0.1c-0.2,0.4-0.9,1.6-1.9,2.7h1.5l0.4-0.6c0.1-0.1,0.1-0.2,0.2-0.2c0.1,0,0.4,0.4,0.5,0.6c0.2,0.3,0.9,1.4,0.9,1.6s-0.2,0.3-0.3,0.3c-0.1,0-0.3,0-0.5-0.1c-0.2,0.1-0.9,0.7-1.5,1c0.3,0.4,0.3,0.4,0.3,0.6c0,0.4-0.4,0.3-0.7,0.3c-0.4,0.3-0.8,0.5-1.5,0.7c0.1,0,0.2,0,0.2,0.1c0,0.1-0.2,0.2-0.3,0.2v1H68.6z M62.2,329.6c0.4,0.1,2.2,0.6,2.2,2.3c0,0.9-0.4,1.2-0.9,1.2c-0.2,0-0.3-0.1-0.3-0.5C63.1,332.4,63,331.1,62.2,329.6L62.2,329.6z M64.4,329.5c1,0.3,2.2,0.8,2.2,2.2c0,0.9-0.5,1.4-0.9,1.4c-0.2,0-0.2-0.1-0.2-0.4C65.3,331.6,64.8,330.2,64.4,329.5L64.4,329.5z"/><path d="M82.2,330.8l0.6-1.2c0.1-0.1,0.1-0.2,0.1-0.2c0.1,0,1.1,1.3,1.1,1.4c0,0.1-0.1,0.1-0.1,0.1h-1.1v4.8h0.1l0.5-1.3c0-0.1,0.1-0.2,0.1-0.2c0.1,0,0.8,1.4,0.8,1.6s-0.1,0.1-0.1,0.1h-1.4v7.9c0,0.3,0,0.4-0.2,0.4l-0.8,0.1c-0.2,0-0.2,0-0.2-0.3V336h-0.8c0,5.7-0.9,6.9-3.4,8.4l0,0c1.9-2.1,2.1-3.8,2.1-8.4h-0.5c0,0.2,0,0.3-0.4,0.5v5.4c0,0.2,0,0.3-0.2,0.4l-0.8,0.1c-0.2,0-0.2,0-0.2-0.3v-0.9h-0.6v2.3c0,0.2,0,0.3-0.2,0.4l-0.9,0.1c-0.2,0-0.2-0.1-0.2-0.3v-6.2c-0.5,1-1,1.6-1.3,2l0,0c1.4-3.3,1.6-6.9,1.7-8.3h-1.3l-0.1-0.2H77l0.6-1.1c0.1-0.2,0.1-0.2,0.1-0.2c0.1,0,1.1,1.2,1.1,1.3H82.2z M79.3,331h-2.2c-0.2,2.1-0.7,3.6-0.9,4.1c0.1,0,0.3,0.1,0.4,0.2h0.5l0.3-0.7c0.1-0.1,0.1-0.2,0.2-0.2c0.2,0,1,1.2,1.1,1.4h0.5V331z M76.6,335.5v5.4h0.6v-5.4H76.6z M81.4,335.8V331h-0.8v4.8H81.4z"/><path d="M93.4,337.9l0.4-0.8c0-0.1,0.1-0.2,0.2-0.2c0.2,0,1.3,1.2,1.3,1.5c0,0.2-0.1,0.2-0.5,0.5l-0.1,2.7c0,0.4,0,0.5,0.2,0.5c0.2,0,0.7,0,0.9,0c0.4,0,0.5,0,0.6-0.3c0.2-0.6,0.6-1.7,0.7-2.3l0,0c0,0.6-0.1,1.2-0.1,1.8c0,0.5,0.1,0.6,0.2,0.8c0.1,0.2,0.2,0.4,0.2,0.7c0,1.2-0.7,1.2-1.4,1.2c-2.7,0-2.9,0-2.8-1.6l0.1-4.4l-1.2,0.1c-0.2,2.4-0.9,5.3-4.3,6.2l0,0c2.4-1.6,2.8-4.2,3-6.1l-2.7,0.2l-0.1-0.2L91,338c0.1-0.9,0.1-1.5,0.1-2.7c0.2,0,1.6,0.2,1.6,0.5c0,0.1-0.2,0.1-0.3,0.2c0,1,0,1.4-0.1,2L93.4,337.9z M94.3,331.7v1.9c0,0.7,0,0.7,1.2,0.7c0.8,0,1.1,0,1.5-1.6l0,0c0,0.2,0,0.5,0,0.8c0,0.4,0,0.5,0.1,0.7c0.2,0.3,0.2,0.5,0.2,0.8c0,1.2-0.8,1.2-2.1,1.2c-2.2,0-2.2-0.4-2.2-2v-2.4h-1.7c0.1,0.1,0.8,0.5,1,0.7c0.1,0.1,0.1,0.1,0.1,0.2c0,0.1-0.1,0.1-0.3,0.1c-0.8,2.2-1.8,3.6-3.9,4.6l0,0c2.1-2.2,2.6-4.7,2.7-5.5h-1.3c0,0.2,0.1,0.5,0.1,1c0,1.3-0.5,1.8-0.9,1.8c-0.3,0-0.8-0.5-0.8-1.1c0-0.2,0.1-0.3,0.3-0.7c0.5-0.8,0.8-1.4,0.9-2.3h0c0.1,0.3,0.2,0.6,0.2,1.1h2.5v-2c0.2,0,1.6,0.1,1.6,0.4c0,0.1-0.1,0.1-0.3,0.2v1.4h2.3l0.4-0.8c0.1-0.2,0.1-0.2,0.2-0.2c0.1,0,1.3,1.5,1.3,1.8c0,0.2-0.2,0.3-0.5,0.3c-0.6,0.4-1.1,0.7-1.7,1l0,0c0.1-0.3,0.3-0.8,0.5-1.9H94.3z"/><path d="M104.6,334l0.4-0.8c0.1-0.1,0.1-0.3,0.2-0.3c0.1,0,0.9,1.1,1.1,1.4c0,0,0,0.1,0,0.1c0,0.1,0,0.2-0.3,0.4v3.6c0,0.3,0,0.5-0.2,0.5l-0.8,0.1c-0.2,0-0.2-0.1-0.2-0.4v-0.6h-1.1c0,3.7-1.2,5.1-2.1,5.8l0,0c0.5-1.1,0.8-2.4,0.8-5.5v-5.2c0.2,0.1,1.2,0.5,1.4,0.6H104.6z M104.4,331.1l0.5-1.3c0-0.1,0.1-0.2,0.1-0.2c0.1,0,1.2,1.4,1.2,1.5c0,0.1-0.1,0.1-0.1,0.1h-4.4l-0.1-0.2H104.4z M103.5,334.2v3.9h1.1v-3.9H103.5z M107.8,335.6h1.4l0.6-1.4c0-0.1,0.1-0.2,0.1-0.2c0.1,0,1.2,1.5,1.2,1.6c0,0.1-0.1,0.1-0.1,0.1h-1.1v8.1c0,0.2,0,0.4-0.2,0.4l-0.8,0.1c-0.2,0-0.2-0.1-0.2-0.4v-8.2h-0.9c0,3.4-0.1,6.9-3.4,8.5l0,0c2.1-2.3,2.1-4.9,2.1-8.3v-5.1c0.2,0.1,1,0.4,1.3,0.5c0.5-0.4,1.2-1.1,1.7-1.7c0.2,0.1,0.9,0.8,1.1,1c0.2,0.2,0.5,0.4,0.5,0.5s-0.1,0.1-0.2,0.1c0,0-0.2,0-0.2,0c-0.9,0.3-2.4,0.4-2.8,0.4V335.6z"/><path d="M120.5,333.3v4.7h1.3l0.6-1.3c0.1-0.2,0.1-0.2,0.1-0.2c0,0,1.2,1.4,1.2,1.6c0,0.1-0.1,0.1-0.1,0.1h-3.1v5.6h2.1l0.7-1.4c0.1-0.2,0.1-0.2,0.1-0.2c0,0,1.2,1.5,1.2,1.6c0,0.1-0.1,0.1-0.1,0.1H115l-0.1-0.2h4.1v-5.6h-3.2l0-0.2h3.2v-4.7h-3.6l-0.1-0.2h6.9l0.6-1.4c0.1-0.2,0.1-0.2,0.1-0.2c0.1,0,1.2,1.6,1.2,1.7c0,0.1-0.1,0.1-0.1,0.1H120.5z M117.6,329.3c0.5,0,3,0.3,3,2.3c0,1-0.5,1.4-1,1.4c-0.2,0-0.2-0.1-0.5-0.8C118.7,330.6,118,329.8,117.6,329.3L117.6,329.3z"/><path d="M131,343.9c0,0.2,0,0.4-0.2,0.4l-0.8,0.1c-0.2,0-0.3,0-0.3-0.4v-8c-0.6,1.1-1.2,1.7-1.5,2.1l0,0c1-2.2,1.8-6.4,2-8.6c0.2,0.1,1.8,0.7,1.8,0.9c0,0.1-0.2,0.2-0.4,0.2c-0.3,1.2-0.6,2.1-0.9,3c0.1,0,0.5,0.1,0.5,0.2c0,0.1,0,0.1-0.3,0.3V343.9z M133.9,336.9v-4.5c-1.4,0.3-2.2,0.3-2.7,0.3v0c1-0.4,3.4-1.7,4.7-2.9c0,0,1.8,1.5,1.8,1.6c0,0.1-0.1,0.1-0.5,0.1c-0.5,0.2-1.2,0.4-2,0.7v4.8h1l0.6-1.4c0.1-0.1,0.1-0.2,0.1-0.2s1.3,1.4,1.3,1.6c0,0.1-0.1,0.1-0.1,0.1h-3v6.2h0.7l0.6-1.4c0-0.1,0.1-0.2,0.1-0.2c0,0,1.2,1.4,1.2,1.6c0,0.1,0,0.1-0.1,0.1h-6.4l0-0.2h2.5v-6.2h-2.7l-0.1-0.2H133.9z"/><path d="M149.8,330.8l0.6-1.2c0.1-0.1,0.1-0.2,0.1-0.2c0.1,0,1.1,1.3,1.1,1.4c0,0.1-0.1,0.1-0.1,0.1h-1.1v4.8h0.1l0.5-1.3c0-0.1,0.1-0.2,0.1-0.2c0.1,0,0.8,1.4,0.8,1.6s-0.1,0.1-0.1,0.1h-1.4v7.9c0,0.3,0,0.4-0.2,0.4l-0.8,0.1c-0.2,0-0.2,0-0.2-0.3V336h-0.8c0,5.7-0.9,6.9-3.4,8.4l0,0c1.9-2.1,2.1-3.8,2.1-8.4h-0.5c0,0.2,0,0.3-0.4,0.5v5.4c0,0.2,0,0.3-0.2,0.4l-0.8,0.1c-0.2,0-0.2,0-0.2-0.3v-0.9h-0.6v2.3c0,0.2,0,0.3-0.2,0.4l-0.9,0.1c-0.2,0-0.2-0.1-0.2-0.3v-6.2c-0.5,1-1,1.6-1.3,2l0,0c1.4-3.3,1.6-6.9,1.7-8.3H142l-0.1-0.2h2.7l0.6-1.1c0.1-0.2,0.1-0.2,0.1-0.2c0.1,0,1.1,1.2,1.1,1.3H149.8z M146.9,331h-2.2c-0.2,2.1-0.7,3.6-0.9,4.1c0.1,0,0.3,0.1,0.4,0.2h0.5l0.3-0.7c0.1-0.1,0.1-0.2,0.2-0.2c0.2,0,1,1.2,1.1,1.4h0.5V331z M144.2,335.5v5.4h0.6v-5.4H144.2z M149,335.8V331h-0.8v4.8H149z"/><path d="M161,337.9l0.4-0.8c0-0.1,0.1-0.2,0.2-0.2c0.2,0,1.3,1.2,1.3,1.5c0,0.2-0.1,0.2-0.5,0.5l-0.1,2.7c0,0.4,0,0.5,0.2,0.5c0.2,0,0.7,0,0.9,0c0.4,0,0.5,0,0.6-0.3c0.2-0.6,0.6-1.7,0.7-2.3l0,0c0,0.6-0.1,1.2-0.1,1.8c0,0.5,0.1,0.6,0.2,0.8c0.1,0.2,0.2,0.4,0.2,0.7c0,1.2-0.7,1.2-1.4,1.2c-2.7,0-2.9,0-2.8-1.6l0.1-4.4l-1.2,0.1c-0.2,2.4-0.9,5.3-4.3,6.2l0,0c2.4-1.6,2.8-4.2,3-6.1l-2.7,0.2l-0.1-0.2l2.8-0.2c0.1-0.9,0.1-1.5,0.1-2.7c0.2,0,1.6,0.2,1.6,0.5c0,0.1-0.2,0.1-0.3,0.2c0,1,0,1.4-0.1,2L161,337.9z M161.9,331.7v1.9c0,0.7,0,0.7,1.2,0.7c0.8,0,1.1,0,1.5-1.6l0,0c0,0.2,0,0.5,0,0.8c0,0.4,0,0.5,0.1,0.7c0.2,0.3,0.2,0.5,0.2,0.8c0,1.2-0.8,1.2-2.1,1.2c-2.2,0-2.2-0.4-2.2-2v-2.4h-1.7c0.1,0.1,0.8,0.5,1,0.7c0.1,0.1,0.1,0.1,0.1,0.2c0,0.1-0.1,0.1-0.3,0.1c-0.8,2.2-1.8,3.6-3.9,4.6l0,0c2.1-2.2,2.6-4.7,2.7-5.5h-1.3c0,0.2,0.1,0.5,0.1,1c0,1.3-0.5,1.8-0.9,1.8c-0.3,0-0.8-0.5-0.8-1.1c0-0.2,0.1-0.3,0.3-0.7c0.5-0.8,0.8-1.4,0.9-2.3h0c0.1,0.3,0.2,0.6,0.2,1.1h2.5v-2c0.2,0,1.6,0.1,1.6,0.4c0,0.1-0.1,0.1-0.3,0.2v1.4h2.3l0.4-0.8c0.1-0.2,0.1-0.2,0.2-0.2c0.1,0,1.3,1.5,1.3,1.8c0,0.2-0.2,0.3-0.5,0.3c-0.6,0.4-1.1,0.7-1.7,1l0,0c0.1-0.3,0.3-0.8,0.5-1.9H161.9z"/><path d="M169,344.2c0.8-0.6,2.8-2.3,3.4-3.5c0.2,0.2,0.7,0.7,1,1.1c0.1,0.1,0.4,0.5,0.4,0.5c0,0.1-0.1,0.1-0.1,0.1c-0.1,0-0.1,0-0.3-0.1C172.3,343.4,169.9,344.2,169,344.2L169,344.2z M171.6,340.6v0.3c0,0.2,0,0.3-0.2,0.3l-0.9,0.1c-0.2,0-0.2-0.1-0.2-0.3v-6.7c0.4,0.1,1,0.3,1.3,0.4h4.4l0.3-0.8c0-0.1,0.1-0.1,0.1-0.2l-0.8,0.1c-0.1,0-0.1,0-0.1-0.3v-0.4h-3.5v0.4c0,0.3,0,0.3-0.2,0.4L171,334c-0.2,0-0.2-0.1-0.2-0.3v-3.6c0.8,0.2,1.1,0.3,1.4,0.4h3.3l0.4-0.9c0.1-0.2,0.1-0.3,0.2-0.3s1.2,1.3,1.2,1.5c0,0.1,0,0.2-0.4,0.4v2.2c0,0.2,0,0.2-0.2,0.3c0.2,0.2,1.2,1.2,1.2,1.5c0,0.2-0.3,0.3-0.4,0.4v5.2c0,0.3-0.1,0.3-0.2,0.3l-0.8,0.1c-0.1,0-0.2,0-0.2-0.3v-0.3H171.6z M176.2,336.6v-1.7h-4.6v1.7H176.2z M176.2,338.4v-1.7h-4.6v1.7H176.2z M176.2,340.4v-1.8h-4.6v1.8H176.2z M172.1,330.7v2.3h3.5v-2.3H172.1z M174,341c3.9-0.1,4.1,1.8,4.1,2.3c0,0.7-0.4,1.1-0.8,1.1c-0.2,0-0.2,0-0.5-0.5C176.4,343.2,175.3,341.7,174,341L174,341z"/><path d="M186.1,341.4c0,1.3-0.7,2.4-1.6,2.4s-1.6-1.1-1.6-2.4c0-1.4,0.7-2.4,1.6-2.4C185.4,339,186.1,340,186.1,341.4z M183.4,341.4c0,1,0.5,1.8,1.2,1.8c0.7,0,1.2-0.8,1.2-1.8c0-1-0.5-1.8-1.2-1.8C183.9,339.6,183.4,340.4,183.4,341.4z"/><path d="M37,363.6c0.8,0.4,1.7,0.9,1.7,2.1c0,0.6-0.3,1.1-0.7,1.1c-0.3,0-0.3-0.2-0.4-0.7C37.5,365.6,37.4,364.6,37,363.6l0,5.3c0,0.3,0,0.4-0.2,0.4l-0.8,0.1c-0.3,0-0.3-0.1-0.3-0.4v-4.5c-0.1,0-0.1,0-0.2,0.1c-0.8,2.5-1.3,3.3-1.7,3.9l0,0c0.3-1.4,0.5-3.8,0.5-4.6c0.3,0.1,1.2,0.3,1.4,0.4v-1.6c-0.5,0.3-1,0.5-1.6,0.9c0-0.3-0.2-1.8-0.3-2.1l1.1-0.1c0.4-0.8,1.3-2.9,1.9-4.7c0.2,0.1,0.9,0.8,1.1,0.9c0.2,0.1,0.4,0.3,0.4,0.4c0,0.1-0.1,0.1-0.1,0.1c0,0-0.1,0-0.2,0c-0.9,1.3-1.9,2.6-2.6,3.2l2-0.1c-0.1-0.4-0.2-0.8-0.4-1.3l0,0c0.9,0.4,1.7,1,1.7,2.2c0,0.3-0.1,1.1-0.7,1.1c-0.3,0-0.3-0.1-0.3-0.4c-0.1-0.4-0.1-1-0.2-1.4c-0.2,0.2-0.3,0.3-0.5,0.4L37,363.6L37,363.6z M34,356.8c0.3,0.1,0.7,0.3,1.1,0.6c0.2-0.7,0.4-1.9,0.6-2.9c0,0,1.1,0.7,1.1,0.8c0.2,0.1,0.4,0.3,0.4,0.4c0,0.1-0.1,0.2-0.1,0.2c0,0-0.1,0-0.2,0c-0.7,1.1-0.9,1.3-1.6,1.9c0.3,0.3,0.5,0.7,0.5,1.3c0,0.9-0.5,1.1-0.8,1.1c-0.3,0-0.3-0.1-0.4-0.7C34.5,358.1,34.3,357.3,34,356.8L34,356.8z M41.3,356.1V368h0.4l0.6-1.4c0.1-0.2,0.1-0.2,0.1-0.2c0.1,0,1.2,1.5,1.2,1.6c0,0.1-0.1,0.1-0.1,0.1h-6.2l-0.1-0.2H40v-11.9h-2.2l0-0.2h3.9l0.5-1.2c0.1-0.1,0.1-0.2,0.1-0.2c0.1,0,1.1,1.4,1.1,1.5c0,0.1-0.1,0.1-0.1,0.1H41.3z"/><path d="M50.8,362.1h0.4l0.6-1.2c0.1-0.2,0.1-0.2,0.1-0.2c0.1,0,1,1.3,1,1.4c0,0.1-0.1,0.1-0.1,0.1h-2v0.7c0.6,0.1,1.9,0.9,1.9,2.2c0,0.9-0.6,1.2-0.8,1.2c-0.3,0-0.4-0.2-0.4-0.9c-0.1-1.5-0.6-2.1-0.6-2.3v5.8c0,0.2,0,0.3-0.1,0.3l-0.9,0.1c-0.2,0-0.2-0.1-0.2-0.2v-3.5c-0.7,1.2-1.5,2.2-2.3,3l0,0c0.9-1.9,1.7-4,2.2-6.3h-1.8l-0.1-0.2h2v-1.8c-0.9,0.1-1.5,0.1-2,0.2l0-0.1c1.4-0.6,2.7-1.5,3.3-2l-0.6,0c-0.1,0-0.1,0-0.1-0.2v-1.4h-2.6l-0.1-0.2h2.7v-2c0.7,0.1,1.3,0.1,1.4,0.2c0.1,0,0.2,0,0.2,0.1c0,0.1-0.1,0.2-0.3,0.2v1.4h1.5v-2c0.7,0.1,1.3,0.2,1.5,0.2c0.1,0,0.2,0,0.2,0.1c0,0.1-0.1,0.2-0.3,0.2v1.4h1l0.6-1.3c0.1-0.1,0.1-0.2,0.1-0.2c0.1,0,1.2,1.4,1.2,1.5c0,0.1-0.1,0.1-0.1,0.1h-2.8v1.3c0,0.1,0,0.2-0.1,0.2l-1,0.1c-0.1,0-0.1,0-0.1-0.2v-1.4h-1.5v1.4c0.3,0.3,1.2,1.3,1.2,1.5c0,0.1-0.1,0.1-0.1,0.1c0,0-0.1,0-0.2-0.1c-0.4,0.1-0.9,0.3-1.5,0.4V362.1z M54.2,365.6c0,0.1,0,0.2-0.1,0.2l-1,0.1c-0.1,0-0.1,0-0.1-0.2v-6.7c1,0.1,1.2,0.1,1.4,0.2c0.1,0,0.2,0,0.2,0.1s-0.1,0.2-0.3,0.2V365.6z M56.4,367.5c0,0.9,0,1.8-1.4,1.8c-0.3,0-0.3-0.1-0.3-0.6c0-0.8-0.1-1.1-1.1-1.7l0,0c0.3,0,1,0.1,1.3,0.1c0.3,0,0.3,0,0.3-0.6v-8.5c0.3,0,1.3,0.2,1.4,0.2c0.1,0,0.2,0.1,0.2,0.1c0,0.1-0.2,0.2-0.3,0.2V367.5z"/><path d="M63.4,360.2c0.5,0.3,0.9,0.7,1.2,1.3v-2.8c0.5,0.1,0.8,0.2,1.3,0.5h0.2v-3.4H64l-0.1-0.2h4.9l0.5-1c0.1-0.2,0.1-0.2,0.1-0.2c0.1,0,1.1,1.2,1.1,1.3c0,0.1-0.1,0.1-0.1,0.1h-2v3.4h0.3l0.3-0.8c0.1-0.2,0.1-0.2,0.2-0.2c0.1,0,1.2,1.2,1.2,1.3c0,0.1-0.1,0.2-0.4,0.5v8.9c0,0.2,0,0.3-0.1,0.3l-0.9,0.1c-0.1,0-0.2,0-0.2-0.2v-1h-3.1v0.9c0,0.2,0,0.3-0.2,0.3l-0.9,0.1c-0.2,0-0.2-0.1-0.2-0.3v-5.9c-0.1,0.2-0.2,0.5-0.6,0.5c-0.3,0-0.3-0.2-0.3-0.8c0-0.4,0-1.8-0.3-2.4v8.6c0,0.1,0,0.2-0.1,0.2l-1,0.1c-0.1,0-0.1,0-0.1-0.2v-5.4c-0.6,1.3-1.1,1.9-1.4,2.3l0,0c0.3-0.9,1.1-3.5,1.3-7.5h-1.1l-0.1-0.2h1.3v-3.8c0.5,0,1.2,0.1,1.4,0.2c0.1,0,0.2,0,0.2,0.2c0,0.1-0.1,0.2-0.3,0.2v3.2l0.5-1C63.9,357,64,357,64,357c0,0,0.9,1.2,0.9,1.3c0,0.1-0.1,0.1-0.1,0.1h-1.4V360.2z M68.8,364.9h-0.6c-0.7,0-0.8-0.4-0.8-1.2v-4.4h-0.3v1.5c0,1.8-0.4,3.5-1.4,4.9v2.1h3.1V364.9z M65.8,365.7c0.3-1.4,0.4-3.5,0.4-4.5v-1.8h-0.4V365.7z M67.1,355.8v3.4h0.3v-3.4H67.1z M68.8,359.4h-0.4v3.3c0,0.4,0,0.4,0.4,0.4V359.4z"/><path d="M79.3,362c0.4,0.5,0.8,0.8,1.3,0.8c0.7,0,2.2-0.6,2.2-2.6c0-1.3-0.7-2-1.2-2c-0.8,0-2.1,1.3-3.4,2.8c0.6,1.4,1.9,4.2,1.9,5.9c0,1.2-0.4,1.9-0.9,1.9c-0.4,0-0.4-0.4-0.4-1c-0.1-2.1-0.6-4.3-1.2-6c-0.2,0.2-0.8,0.9-1,1.1c-0.1,0.1-0.4,0.4-0.7,0.4c-0.7,0-1.2-0.8-1.2-1.7c0-0.4,0.1-0.9,0.2-1.2c0.1,0.5,0.2,1,0.6,1c0.3,0,0.4-0.1,1.4-0.9c-0.1-0.2-0.7-1.3-0.8-1.5c-0.2-0.3-0.2-0.5-0.2-0.8c0-1,0.6-1.5,1-1.5c0.1,0,0.2,0.1,0.6,0.3c0.3,0.2,0.9,0.5,1.2,0.5c0.2,0,0.3-0.1,0.3-0.5c0-0.8-0.6-1.2-0.9-1.4c0.3,0,1,0,1.4,0.3c0.5,0.3,0.8,1.2,0.8,1.7c0,0.4-0.1,0.6-0.2,0.8c0.9-0.6,1.3-0.6,1.5-0.6c1.1,0,2.3,1.4,2.3,3.3c0,2.5-1.6,3.4-2.6,3.4C80.2,364.4,79.8,363.4,79.3,362L79.3,362z M78.8,358.4c-0.5-0.8-1.3-1-1.5-1c-0.3,0-0.4,0.4-0.4,0.6c0,0.4,0,0.5,0.8,2.1c1.2-0.9,1.3-1,1.4-1.1C79,358.8,78.9,358.5,78.8,358.4z"/><path d="M95.7,365.2l0.6-1.3c0.1-0.2,0.1-0.2,0.2-0.2c0.1,0,1.2,1.4,1.2,1.6c0,0.1-0.1,0.1-0.1,0.1H88l-0.1-0.2H95.7z M88.1,369.3c1-0.9,2.5-3,2.9-3.7c0.4,0.3,0.5,0.3,1.4,1.1c0,0,0.1,0.1,0.1,0.2c0,0.1-0.1,0.1-0.1,0.1c-0.1,0-0.2,0-0.2,0C91.6,367.4,90.2,368.8,88.1,369.3L88.1,369.3z M91.1,363.7v0.5c0,0.2,0,0.3-0.2,0.3l-0.9,0.1c-0.2,0-0.2,0-0.2-0.3v-6.8c0.2,0,1.3,0.4,1.6,0.4h0.7v-1.4h-3.9l-0.1-0.2h3.9v-1.9c0.2,0,1.3,0.1,1.4,0.1c0.1,0,0.2,0,0.2,0.1s0,0.1-0.3,0.3v1.3h2.1l0.6-1.3c0-0.1,0.1-0.2,0.2-0.2c0.1,0,1.2,1.3,1.2,1.6c0,0.1-0.1,0.1-0.1,0.1h-3.9v1.4h1l0.2-0.5c0.2-0.4,0.2-0.5,0.3-0.5c0.1,0,1.3,1.4,1.3,1.5c0,0.2-0.3,0.3-0.4,0.4v5.1c0,0.3-0.1,0.4-0.2,0.4l-0.8,0.1c-0.2,0-0.2-0.1-0.2-0.3v-0.4H91.1z M91.1,358.2v1.6h3.4v-1.6H91.1z M91.1,360v1.7h3.4V360H91.1z M94.5,363.5v-1.7h-3.4v1.7H94.5z M93.3,365.8c0.8,0.1,3.4,0.4,3.4,2.3c0,0.5-0.2,1.2-0.7,1.2c-0.1,0-0.2,0-0.4-0.5C95.4,368.4,94.6,366.9,93.3,365.8L93.3,365.8z"/><path d="M102.8,357.9v7.9c0,0.3,0,0.4-0.1,0.4l-0.7,0.1c-0.2,0-0.2,0-0.2-0.3v-8.7c0.4,0.1,0.9,0.3,1.1,0.5h0.3v-3.2c0.1,0,1.2,0.2,1.3,0.2c0.1,0,0.2,0,0.2,0.1c0,0.2-0.2,0.2-0.3,0.2v2.6h0.3l0.2-0.4c0.1-0.3,0.2-0.4,0.3-0.4c0.1,0,0.9,1.1,1,1.2v-2.8c0.3,0.1,0.7,0.2,1.3,0.5h1.1l0.4-0.7c0.1-0.3,0.2-0.4,0.2-0.4c0.1,0,0.7,0.7,1.1,1.2c0.1,0.1,0.2,0.2,0.2,0.4c0,0.3-0.4,0.4-0.6,0.6v9.8c0,0.4,0,0.4,0.1,0.4c0.2,0,0.2,0,0.3-0.2c0.1-0.4,0.6-2,0.9-3.3l0,0c0,0.4-0.3,2.8-0.3,3c0,0.2,0,0.3,0.2,0.6c0.1,0.2,0.2,0.4,0.2,0.7c0,1.1-0.8,1.1-1.9,1.1c-0.9,0-0.9-0.4-0.9-1.5v-4.3c-0.3,0.5-0.6,0.5-0.7,0.5c-0.3,0-0.3-0.3-0.3-0.6c0-1.2,0-2.7-0.2-3.6v2c0,3.4-0.2,5.7-2.9,7.7l0,0c1.2-1.8,1.7-3.2,1.7-6.8v-4.1c0,0-0.3,0.3-0.4,0.4v5.5c0,0.5,0,1.5-0.9,1.5c-0.2,0-0.2-0.1-0.2-0.3c0-0.9-0.1-1.2-0.2-1.4v4.9c0,0.2,0,0.3-0.1,0.3l-0.7,0.1c-0.2,0-0.2,0-0.2-0.3v-11.1H102.8z M104.2,357.9v5.9c0.1,0,0.2,0,0.2,0c0.1,0,0.1,0,0.1-0.6v-5.3H104.2z M107.2,359.3c0.5,0.4,0.9,0.9,1.2,1.4V356h-1.2V359.3z"/><path d="M118.5,355.8c0-0.4-0.1-0.6-0.5-0.8c0.1-0.2,0.3-0.6,0.8-0.6c0.5,0,0.9,0.5,0.9,1c0,0.2,0,0.3-0.3,1c0.1-0.1,0.2-0.1,0.3-0.3c0.2-0.2,0.2-0.2,0.3-0.2c0.4,0,0.9,0.3,0.9,1c0,0.3-0.1,0.4-0.2,0.5c-0.2,0.2-1,0.5-2,1c-0.1,0.3-0.4,1.3-0.5,1.6c0.3-0.3,0.6-0.4,0.9-0.4c0.8,0,0.9,1.5,0.9,2c0.3-0.9,1.1-2.6,2.3-2.6c0.9,0,1.5,0.8,1.5,2.1c0,1-0.4,1.3-1.1,1.6c-1.4,0.6-2.2,0.9-2.8,1.3c0,0.2,0,1.3,0,1.5c0,0.3,0,0.8-0.6,0.8c-0.7,0-0.7-0.9-0.7-1.6c-0.4,0.3-0.8,0.7-0.8,1.5c0,0.7,0.5,0.8,1.1,0.8c0.7,0,1.3-0.2,1.8-0.3c0.1,0,0.2-0.1,0.3-0.1c0.2,0,0.9,0.3,0.9,1.1c0,1-1,1.2-2,1.2c-0.7,0-1.8-0.2-2.4-0.8c-0.3-0.3-0.4-0.7-0.4-1.3c0-0.8,0.3-1.6,1.6-2.6c0.1-1,0.2-1.6,0.2-2.4c0-0.6,0-1.7-0.5-1.7c-0.3,0-0.4,0.3-1.2,2.1c-0.5,1.2-1.2,2.5-1.7,2.5c-0.3,0-0.5-0.3-0.5-1c0-0.7,0.2-0.9,0.6-1.4c0.8-0.8,1.4-1.9,1.9-3.5c-0.2,0.1-0.4,0.1-0.5,0.1c-0.8,0-1-1.4-1.1-2.2c0.2,0.3,0.7,0.6,1,0.6c0.2,0,0.5-0.1,1.1-0.4C118.5,356.4,118.5,356.1,118.5,355.8z M122.3,361.5c0.2-0.2,0.4-0.5,0.4-0.9c0-0.4-0.3-0.9-0.8-0.9c-0.2,0-0.5,0-1,0.8c-0.5,0.7-0.6,1.3-0.8,3.1C121.1,362.7,121.7,362.3,122.3,361.5z"/><path d="M130.9,358.4l0.5-1.1c0-0.1,0.1-0.2,0.1-0.2c0.1,0,0.9,1.1,0.9,1.3v-3.9c0.3,0,1.3,0.2,1.5,0.2c0.1,0,0.1,0.1,0.1,0.1c0,0.1,0,0.1-0.3,0.2v2.6c0.7-0.8,1.4-1.7,2-2.7c0.1,0.1,1.5,1.4,1.5,1.5c0,0.1-0.1,0.1-0.1,0.1c-0.1,0-0.2,0-0.3,0c-1.4,0.9-2.6,1.2-3.1,1.3v0.9c0,0.2,0,0.3,0.1,0.4c0.1,0.1,1.1,0.1,1.3,0.1c0.9,0,1.2,0,1.5-0.5c0.2-0.4,0.7-1.8,0.8-2.2h0c0,0.3-0.2,1.7-0.2,2c0,0.3,0.1,0.3,0.2,0.5c0.3,0.3,0.3,0.7,0.3,0.8c0,1-0.4,1.2-2.5,1.2c-2.1,0-2.7,0-2.7-1.6v-1c0,0-0.1,0-0.1,0h-1.5v2.8l1.4-0.6v0.1c-0.3,0.4-0.7,0.9-1.4,1.7v4.8c0,0.9,0,2-1.4,2c-0.2,0-0.3,0-0.3-0.2c0-1.3,0-1.3-1-2V367c0.7,0.1,0.9,0.1,1.2,0.1c0.2,0,0.2-0.1,0.2-0.4v-2.8c-0.3,0.3-0.7,0.7-1.1,1c-0.1-0.3-0.2-0.5-0.6-2.3l1.7-0.7v-3.3h-1.6l-0.1-0.2h1.6v-3.9c0.3,0,1.3,0.2,1.5,0.3c0,0,0.1,0,0.1,0.1c0,0.1-0.1,0.2-0.3,0.2L130.9,358.4L130.9,358.4z M135.6,362.5l0.3-0.8c0-0.1,0.1-0.2,0.2-0.2c0.1,0,1.3,1.4,1.3,1.6c0,0.1,0,0.2-0.4,0.4v5.2c0,0.3,0,0.4-0.2,0.4l-0.9,0.1c-0.1,0-0.2,0-0.2-0.2v-0.8h-2.1v0.7c0,0.4,0,0.4-0.1,0.4l-0.9,0.1c-0.2,0-0.2,0-0.2-0.3v-7c0.6,0.1,1.2,0.4,1.4,0.5H135.6z M133.6,362.7v2.4h2.1v-2.4H133.6z M133.6,365.3v2.6h2.1v-2.6H133.6z"/><path d="M148.8,365.4v2.3c0,0.7,0,1.7-1.4,1.7c-0.3,0-0.3,0-0.3-0.6c0-0.6,0-1.3-1-1.6v-0.1c0.3,0.1,1.1,0.1,1.2,0.1c0.3,0,0.3-0.2,0.3-0.6v-1.2h-6.1l0-0.2h6.1v-0.9c-2.6-0.1-3.2-0.5-3.8-2.4c-0.5,1.1-1.2,2.4-1.6,3.1c-0.3-1-0.5-1.6-0.7-2.5l1.2-0.4v-3.1h-1.2l-0.1-0.2h1.2l0.4-0.8c0,0,0.1-0.1,0.1-0.1c0.1,0,1.1,1.1,1.1,1.4c0,0.1,0,0.1-0.4,0.4v1.3c0,1.3,0.2,1.8,2.8,1.8c1,0,3.5-0.1,4.4-0.4l0,0c-0.3,0.3-0.4,0.8-0.4,1.3c0,0,0,0.4,0,0.5c0,0.1-0.2,0.1-0.4,0.1c0.6,0.8,0.7,0.9,0.7,1c0,0.1-0.1,0.1-0.1,0.1H148.8z M142,354.6c0.6,0.1,2.2,0.3,2.2,1.8c0,0.6-0.3,1.1-0.8,1.1c-0.2,0-0.3-0.1-0.4-0.4C142.9,356.6,142.6,355.5,142,354.6L142,354.6z M143.4,365.6c0.8,0.3,2,0.7,2,2.1c0,1-0.7,1.2-0.9,1.2c-0.2,0-0.2-0.1-0.3-0.4C144.2,367.6,143.8,366.3,143.4,365.6L143.4,365.6z M148.7,357.7l0.3-0.5c0.1-0.1,0.1-0.2,0.2-0.2c0.2,0,1,1,1.1,1.2c0,0,0.1,0.1,0.1,0.1c0,0.1,0,0.2-0.4,0.5v3.3c0,0.2,0,0.4-0.2,0.4l-0.8,0.1c-0.2,0-0.2-0.1-0.2-0.3v-0.3h-2.5c0,0.4,0,0.5-0.2,0.6l-0.9,0.1c-0.1,0-0.2,0-0.2-0.4v-4.8c0.2,0.1,0.3,0.1,1.2,0.5h0.2c0.1-0.4,0.1-0.6,0.1-1.1h-2.2l-0.1-0.2h1.7c-0.3-1.1-0.4-1.4-0.8-1.9l0,0c0.3,0,1.9,0.1,1.9,1.3c0,0.3-0.1,0.5-0.1,0.7h0.5c0.1-0.4,0.2-1.2,0.3-2c0.2,0,1.6,0.4,1.6,0.6c0,0.1-0.1,0.2-0.3,0.2c-0.6,0.6-0.6,0.7-1.1,1.2h1.1l0.5-1c0-0.1,0.1-0.2,0.1-0.2c0.1,0,1,1.1,1,1.3c0,0.1-0.1,0.1-0.1,0.1h-2.6c-0.4,0.5-0.7,0.9-0.9,1.1H148.7z M146.3,357.9v1.1h2.5v-1.1H146.3z M146.3,359.2v1h2.5v-1H146.3z M146.3,360.4v1.2h2.5v-1.2H146.3z M149.8,364.4c-0.1,0-0.9,0-1.1,0v0.8h0.7L149.8,364.4z"/><path d="M162.2,361.7c-0.3,4.6-1.6,7-4.1,7c-1.9,0-2.2-1.9-2.2-4.9c0-1.1,0.2-5.8,0.2-6.8c0-0.5,0-0.9-0.8-0.8c0.2-0.4,0.4-0.9,1.1-0.9c0.6,0,1.1,0.5,1.1,1c0,0.2-0.2,1.2-0.2,1.4c-0.1,1.2-0.3,4.6-0.3,7c0,1.1,0,2.2,1.2,2.2C160.2,366.8,161.4,364.7,162.2,361.7L162.2,361.7z"/><path d="M167,357.4c0.2,0,1.3-0.4,1.5-0.4c1.2-0.4,2.5-0.6,3.7-0.9c0.4-0.1,0.4-0.1,0.8-0.4c0.1,0,0.1-0.1,0.2-0.1c0.2,0,1.4,0.5,1.4,1.5c0,0.3-0.1,0.7-0.5,0.7c-0.1,0-0.2,0-0.6-0.2c-0.4-0.1-0.8-0.2-1-0.2c-1.3,0-1.7,1.1-1.9,1.5c-0.4,0.9-0.6,2.8-0.6,4.5c0,2.8,0.9,3.1,2,3.5c0.4,0.1,0.8,0.3,0.8,1.2c0,0.2,0,1-0.6,1c-0.1,0-0.7,0-1.4-0.4c-1.2-0.7-1.8-1.8-1.8-4.5c0-2.8,0.8-5.5,2-6.6c-0.9,0.1-2.3,0.8-3.1,1.3c-0.5,0.3-0.5,0.3-0.7,0.3c-0.7,0-1.1-0.9-1.1-1.8c0-0.2,0-0.6,0.1-0.9C166.4,356.9,166.5,357.4,167,357.4z"/><path d="M181.8,361.9c-0.2,0.9-0.6,3.3-0.6,4.2c0,0.2,0,0.6,0.2,1c0.2,0.4,0.2,0.5,0.2,0.7c0,0.4-0.3,0.9-0.7,0.9c-0.8,0-1.9-1.5-1.9-5.5c0-1,0-1.3,0.3-4.5c0-0.3,0.1-1.3,0.1-2c0-0.8-0.1-1.2-0.2-1.6c1,1,1.5,2.3,1.5,3.4c0,0.4,0,0.7-0.2,1.2c-0.4,1.5-0.6,2.3-0.6,3.7c0,1.2,0.2,2,0.4,2c0.2,0,0.3-0.4,0.3-0.5C180.8,364.5,181.5,362.4,181.8,361.9L181.8,361.9z M184.5,359.1c1.4,0,2.9,1.2,2.9,4.1c0,0.2,0,2-0.9,2c-0.5,0-0.7-0.5-0.7-1.1c0-1.5-0.1-2.6-0.7-3.8c-0.4-0.9-0.8-1.1-1.1-1.2C184.3,359.1,184.4,359.1,184.5,359.1z"/><path d="M196.1,360.9c2.1,0,2.6,2.4,2.6,3.9c0,2.7-1.3,4-3.1,4c-1.5,0-2.1-1-2.1-2.1c0-0.9,0.4-1.8,1.3-1.8c0.7,0,1.2,0.6,1.2,1.4c0,0.4-0.1,0.5-0.1,0.7c0.5-0.1,1.6-0.4,1.6-3c0-0.9-0.2-2.7-1.6-2.7c-0.9,0-1.6,0.7-2.4,2.9c-0.2,0.6-0.2,0.7-0.5,1.9c-0.1,0.2-0.1,0.6-0.5,0.6c-0.6,0-0.7-1-0.7-1.6c0-0.6,0.1-0.7,0.7-1.7c0.2-0.3,2.5-4.4,3.5-6.5c0.1-0.2,0.1-0.3,0.1-0.4c0-0.1,0-0.1-0.1-0.1c0,0-0.3,0.3-0.6,0.7c-0.5,0.6-0.7,0.8-1,0.8c-0.7,0-1.1-1.1-1.1-1.7c0.2,0.1,0.3,0.3,0.6,0.3c0.5,0,1.4-0.9,1.9-1.3c0.5-0.4,0.5-0.4,0.7-0.4c0.3,0,1.2,0.2,1.2,1.6c0,0.5-0.1,0.6-0.5,1c-0.7,0.8-2,3.4-2.1,3.6C195.2,361,195.5,360.9,196.1,360.9z M195,366.6c0-0.3-0.1-0.6-0.4-0.6c-0.3,0-0.4,0.3-0.4,0.5c0,0.2,0.1,0.5,0.6,0.6C194.9,366.9,195,366.8,195,366.6z"/><path d="M207,359.6c-0.4,0.8-0.7,1.1-1.1,1.7h0.6l0.3-0.6c0-0.1,0.1-0.2,0.1-0.2c0.1,0,1.1,1.3,1.1,1.5c0,0.2-0.2,0.2-0.5,0.3c-0.3,0.3-0.6,0.5-0.8,0.8c0,0,0.2,0,0.2,0.2c0,0.2-0.2,0.2-0.3,0.2v0.7l2-0.3v0.1c-0.8,0.6-1.1,0.7-2,1.3v2.4c0,0.8,0,1.8-1.3,1.8c-0.4,0-0.4-0.1-0.4-0.5c0-1.2-0.9-1.5-1.1-1.6v-0.1c0.2,0,1.1,0.1,1.2,0.1c0.4,0,0.4-0.1,0.4-0.6v-0.8c-0.5,0.3-0.8,0.4-1.7,0.8c-0.1-0.3-0.1-0.4-0.3-1.9l2-0.3v-1.6c0.1,0,0.7,0.1,0.8,0.2c0.2-0.5,0.4-1.1,0.4-1.4h-0.8c-0.4,0.5-1.4,1.9-3,2.8l0-0.1c1-1.1,1.8-2.4,2-2.8h-1.4l-0.1-0.2h1.5c0.5-0.8,0.9-1.6,0.9-1.7H203l-0.1-0.2h1.7v-2.2h-1.3l-0.1-0.2h1.3v-2.6c0.2,0,1.3,0.2,1.5,0.3c0,0,0.1,0.1,0.1,0.1c0,0.2-0.2,0.2-0.3,0.2v1.9l0.3-0.8c0-0.1,0.1-0.2,0.1-0.2c0.1,0,0.5,0.6,0.6,0.7c0.2-0.6,0.3-1,0.5-1.7c0.3,0.2,0.9,0.7,1.2,0.8c0.3,0.2,0.3,0.3,0.3,0.4c0,0.1-0.1,0.1-0.2,0.1c-0.1,0-0.2,0-0.3-0.1c-0.6,1.4-0.9,2.1-1.4,3h0.5l0.4-0.9c0-0.1,0.1-0.2,0.1-0.2c0.1,0,0.6,0.8,0.6,0.9c0.2-1.6,0.4-3.1,0.5-4.8c0.3,0.1,0.7,0.2,1.2,0.4c0.5,0.1,0.5,0.2,0.5,0.3c0,0.2-0.1,0.2-0.3,0.2c-0.2,1.4-0.4,2.3-0.8,3.7h1.1l0.6-1.2c0-0.1,0.1-0.2,0.1-0.2c0,0,1.1,1.3,1.1,1.4c0,0.1,0,0.1-0.1,0.1h-1.3c0.8,0.6,0.9,0.6,0.9,0.8c0,0.1-0.1,0.1-0.3,0.2c-0.5,3-0.8,4.3-1.4,5.5c0.6,0.8,1.3,1.3,2.4,1.8v0.1c-0.5,0.3-0.7,1-0.7,1.2c-0.1,0.6-0.1,0.6-0.2,0.6c0,0-1.2-0.4-2.2-2.5c-1.4,2-3,2.4-3.5,2.6l0,0c1.5-0.9,2.6-2.8,3-3.8c-0.3-1.2-0.4-2.2-0.5-4c-0.4,0.9-0.7,1.4-1,1.8l0,0c0.4-1.2,0.6-2.3,0.8-3.7H207z M205.9,359.4c0.4-1,0.6-1.3,0.9-2.2h-0.9L205.9,359.4L205.9,359.4z M209.7,359.2c-0.3,1-0.5,1.5-0.7,2c0.1,0.5,0.2,1.9,0.7,3.1c0.2-0.8,0.7-2.5,0.8-5.1H209.7z"/><path d="M219.1,358.5l0.3-0.9c0.1-0.1,0.1-0.2,0.1-0.2c0.1,0,0.8,1.1,0.8,1.2c0,0.1-0.1,0.1-0.1,0.1H219v2.4c0.1,0,0.8-0.2,0.9-0.3v0c-0.5,0.7-0.7,0.9-0.9,1.1v5.7c0,0.7,0,0.9-0.1,1.1c-0.2,0.5-0.9,0.7-1.2,0.7c-0.2,0-0.2-0.2-0.2-0.5c0-0.8-0.1-1.3-0.9-1.7v0c0.1,0,0.8,0,1,0c0.2,0,0.2,0,0.2-0.6v-3.2c-0.6,0.6-0.7,0.7-1,0.9c-0.1-0.5-0.3-1.6-0.4-2.5c0.2,0,1.2-0.3,1.4-0.4v-2.8h-1.2l0-0.2h1.3v-3.9c0.2,0,1.4,0.2,1.5,0.2c0,0,0.1,0,0.1,0.1c0,0.1-0.2,0.2-0.3,0.2v3.3H219.1z M223.5,360.2c0,0,0.4-2.1,0.4-3.6c-1.3,0.2-1.7,0.2-4.1,0.3v-0.1c1.1-0.4,3.4-1.6,4.3-2.4c0.2,0.3,1.3,1.3,1.5,1.6c0.1,0.1,0.1,0.1,0.1,0.2s-0.1,0.1-0.1,0.1c-0.1,0-0.1,0-0.2-0.1c-0.3,0.1-1,0.2-1.5,0.3c0.3,0.1,1.2,0.5,1.4,0.6c0.1,0,0.2,0.1,0.2,0.2c0,0.1,0,0.1-0.3,0.2c-0.2,0.4-0.5,1.2-1.5,2.6h0.7l0.4-0.6c0.1-0.1,0.1-0.2,0.2-0.2c0.1,0,1.1,1.5,1.1,1.7c0,0.2-0.1,0.2-0.5,0.2c-0.5,0.4-0.7,0.6-1.1,0.9c0.1,0.1,0.5,0.5,0.6,0.6c0.1,0.1,0.1,0.2,0.1,0.2c0,0.2-0.1,0.2-0.6,0.3c-0.6,1.4-0.9,2-1.3,2.6c0.6,0.4,1.6,1,2.9,1.1l0,0c-0.6,0.4-0.7,1.2-0.7,1.8c0,0.1-0.1,0.3-0.2,0.3c-0.2,0-1.6-0.5-2.8-2.1c-1.2,1.5-2.5,2-3.2,2.2v-0.1c1.4-1.2,2.5-2.9,2.7-3.2c-0.5-1.2-0.7-2.4-0.8-3.4h-0.3c-0.2,0.7-0.6,0.7-0.7,0.7c-0.3,0-0.6-0.3-0.6-0.9c0-0.3,0.1-0.4,0.2-0.5c0.5-0.7,0.7-1.2,0.7-2.4h0c0.1,0.2,0.2,0.4,0.3,0.7H223.5z M220.3,357.1c0.4,0.1,1.5,0.5,1.5,1.8c0,0.7-0.3,1.1-0.7,1.1c-0.3,0-0.3-0.2-0.4-0.8C220.7,357.8,220.5,357.4,220.3,357.1L220.3,357.1z M220.6,360.4c0.2,0.6,0.2,1.2,0.2,1.4c0,0.3,0,0.5-0.1,0.6h2.5l0.4-0.6c0.1-0.2,0.1-0.2,0.2-0.2c0,0,0.1,0,0.3,0.3c0.1-0.5,0.2-1,0.3-1.5H220.6z M221.1,362.6c0.3,1,0.7,1.8,1.2,2.5c0.3-0.7,0.7-1.5,1-2.5H221.1z M221.9,357c0.9,0.4,1.6,1,1.6,1.9c0,0.5-0.2,1.1-0.7,1.1c-0.4,0-0.5-0.4-0.5-0.6C222.2,358.4,222.2,357.6,221.9,357L221.9,357z"/><path d="M233.5,366.4c0,1.3-0.7,2.4-1.6,2.4s-1.6-1.1-1.6-2.4c0-1.4,0.7-2.4,1.6-2.4S233.5,365,233.5,366.4z M230.7,366.4c0,1,0.5,1.8,1.2,1.8c0.7,0,1.2-0.8,1.2-1.8c0-1-0.5-1.8-1.2-1.8C231.3,364.6,230.7,365.4,230.7,366.4z"/><path d="M39.5,388.4c0.6-1.2,1.3-3.4,1.5-4c-1.1,0.6-1.8,1-2.9,1.7c0,0.1-0.1,4.4-0.1,4.5c0,0.9,0.2,1.1,0.8,1.1c0.6,0,1.3-0.1,1.9-0.3c0.1,0,0.6-0.2,0.8-0.2c0.3,0,0.6,0.8,0.6,1.1c0,0.4-0.2,0.5-0.4,0.7c-0.2,0.2-1.1,0.4-2.2,0.4c-1.9,0-2.5-0.5-2.5-3.5c0-0.9,0-2.3,0-3.2c-0.3,0.2-0.8,0.5-1,0.7c-0.3,0.4-0.4,0.6-0.6,0.6c-0.4,0-1.3-0.9-1.3-1.9c0-0.3,0.1-0.5,0.2-0.8c0.2,0.4,0.4,0.8,0.9,0.8c0.3,0,0.8-0.2,1.8-0.7c0-0.3,0-1.5,0-1.6c0-2.5,0-2.6-0.8-2.8c0.2-0.5,0.5-0.8,1-0.8c0.5,0,1.2,0.8,1.2,1.2c0,0.1-0.2,0.5-0.2,0.6c-0.1,0.4-0.1,2.3-0.2,2.9c0.8-0.4,2.7-1.3,3-1.6c0.1-0.1,0.4-0.5,0.5-0.5c0.1,0,1.3,1.3,1.3,2c0,0.4-0.2,0.4-0.6,0.6C41.3,386.7,40.7,387.4,39.5,388.4L39.5,388.4z"/><path d="M50.1,391.5c0.1,0,0.5,0,0.6,0c0.6,0,1.1,0.8,1.1,1.6s-0.4,0.8-0.6,0.8c-0.2,0-2.3-0.7-2.8-1c-0.7-0.4-1.2-1-1.2-2.2c0-0.5,0.1-0.9,0.2-1.1C47.5,391,49.1,391.5,50.1,391.5z M48.7,379.9c1.1,0,2.7,0.5,2.7,2.1c0,1.1-0.5,1.3-0.7,1.3c-0.2,0-0.2,0-0.7-0.8c-0.4-0.7-1.5-1.9-2.6-2.3C47.6,380.1,48,379.9,48.7,379.9z M48.5,388.2c0.2-0.2,0.7-0.8,0.7-0.9c0-0.2-0.1-0.2-0.6-0.5c-1-0.6-1.1-1.4-1.1-1.7c0-0.4,0.1-0.9,0.4-1.4c0,0.2,0,0.3,0,0.4c0,0.8,1,1.1,1.5,1.2c0.6,0.1,1.5,0.4,1.5,1.6c0,0.7-0.4,0.9-0.6,0.9C49.4,387.9,49.3,387.9,48.5,388.2L48.5,388.2z"/><path d="M56.5,394.2c3.3-2.6,3.5-7.2,3.6-8.8c-0.6,0.2-2.2,0.5-2.5,0.9c-0.2,0.3-0.3,0.3-0.4,0.3c-0.3,0-1.3-1-1.3-2.1c0-0.3,0.1-0.5,0.2-0.8c0.2,1,0.9,1,1.1,1c0.3,0,1-0.1,2.8-0.4c0-3.6,0-3.6-0.8-3.7c0.2-0.5,0.4-0.9,0.9-0.9c0.7,0,1.4,0.8,1.4,1.2c0,0.2-0.1,0.4-0.2,0.8c0,0.5,0,1-0.1,2.4c0.8-0.2,1.2-0.2,1.7-1c0.8,0.3,1.5,0.9,1.5,1.3c0,0.2-0.1,0.7-0.4,0.7c-0.1,0-0.4-0.1-0.5-0.1c-0.5-0.1-0.9-0.1-1.1-0.1c-0.5,0-0.8,0-1.3,0.1C61.2,387.9,60.9,392.6,56.5,394.2L56.5,394.2z"/><path d="M70.4,386.3c0.4,0,5.3-0.2,5.7-0.2c0.1,0,0.7-0.1,0.8-0.1c0.1,0,1.3,0.2,1.3,0.9c0,0.2-0.1,0.5-0.5,0.7c-0.3,0.2-0.8,0.2-1.2,0.2c-4.8,0-5.3,0-5.7,0.2c-0.1,0-0.7,0.4-0.8,0.4c-0.3,0-1.2-1-1.2-2.1c0-0.4,0.1-0.6,0.3-0.9C69.2,386.2,69.9,386.3,70.4,386.3z"/><path d="M84.6,386.9c-0.1,0.3-0.3,1.6-0.4,1.9c-0.1,0.7-0.2,1.5-0.2,2c0,0.6,0,0.8,0.1,1.3c0.2,0.7,0.2,0.7,0.2,0.9c0,0.3-0.3,0.8-0.6,0.8c-0.7,0-1.2-1.9-1.2-4.6c0-1.3,0.1-1.8,0.5-6.1c0.1-0.9,0.1-1.5,0.1-1.7c0-0.7-0.1-1-0.2-1.5c0.6,0.7,1.3,2,1.3,3.4c0,0.5-0.1,0.8-0.5,3.4c-0.2,1.2-0.2,1.8-0.2,2.4c0,0.4,0,0.6,0.1,0.6c0.1,0,0.2-0.4,0.3-0.6C84.1,388.4,84.4,387.5,84.6,386.9L84.6,386.9z M86.4,389.7c0,1.5,0.8,1.5,1.1,1.5c0.2,0,0.8,0,1.8-0.4c0.5-0.2,0.6-0.2,0.7-0.2c0.3,0,0.7,0.2,0.7,0.9c0,0.6-0.2,0.9-0.5,1.2c-0.7,0.5-1.6,0.6-2,0.6c-1.1,0-1.5-0.4-1.8-0.9c-0.3-0.5-0.5-1.2-0.5-1.7c0-0.1,0-0.9,0.4-1.8C86.5,389,86.4,389.3,86.4,389.7z M87.5,381.9c0.3,0,0.7-0.2,1-0.3c0.8-0.5,0.9-0.5,1-0.5c0,0,0.8,0.1,0.8,1c0,1.2-1.6,1.3-2,1.3c-0.3,0-1.2,0-1.5-2C87,381.6,87.2,381.9,87.5,381.9z"/><path d="M96.7,382.7l0.5-1.2c0.1-0.2,0.1-0.2,0.1-0.2s1.1,1.3,1.1,1.4c0,0.1-0.1,0.1-0.1,0.1H95l-0.1-0.2H96.7z M96.6,384.7l0.5-1c0.1-0.2,0.1-0.2,0.1-0.2c0.1,0,1,1.2,1,1.3c0,0.1-0.1,0.1-0.1,0.1h-2.8l-0.1-0.2H96.6z M98.8,390.4v-4.1c0.4,0.1,0.7,0.2,1.3,0.5h0.5v-1.6h-2.4l-0.1-0.2h1.3v-1.6h-0.9l-0.1-0.2h0.9v-1.5h-1l-0.1-0.2h1.1v-2c0.2,0,1.2,0.3,1.4,0.3c0,0,0.1,0,0.1,0.1c0,0.1,0,0.1-0.3,0.2v1.4h0.8v-2c0.2,0,1.2,0.2,1.4,0.2c0.1,0,0.1,0,0.1,0.1c0,0.1,0,0.1-0.3,0.2v1.4h0.3l0.4-0.9c0,0,0.1-0.2,0.1-0.2c0.1,0,0.8,1.1,0.8,1.2c0,0.1-0.1,0.1-0.1,0.1h-1.5v1.5h0.1l0.4-1c0.1-0.2,0.1-0.2,0.1-0.2c0,0,0.8,1.2,0.8,1.2c0,0.1-0.1,0.1-0.1,0.1h-1.3v1.6h0.3l0.5-1.1c0.1-0.2,0.1-0.2,0.1-0.2c0,0,0.9,1.2,0.9,1.4c0,0.1-0.1,0.1-0.1,0.1h-2.6v1.6h0.5l0.4-0.8c0.1-0.2,0.1-0.2,0.1-0.2c0.1,0,1.2,1.2,1.2,1.4c0,0.1,0,0.1-0.4,0.4v2.7l0.4-0.9c0,0,0.1-0.2,0.1-0.2c0.1,0,0.8,1.2,0.8,1.3c0,0.1-0.1,0.1-0.1,0.1h-1.1v2.3c0,0.6,0,1.4-1.2,1.4c-0.3,0-0.3-0.1-0.3-0.3c0-0.8,0-1.4-1-1.9v0c0.2,0,1,0.1,1.1,0.1c0.3,0,0.3-0.2,0.3-0.7v-0.9H100v3.4c0,0.3,0,0.3-0.2,0.4l-0.8,0.1c-0.2,0-0.2,0-0.2-0.3v-3.5h-0.7v2.8c0,0.3,0,0.4-0.2,0.4l-0.7,0.1c-0.2,0-0.2-0.1-0.2-0.3v-1h-0.5v1.4c0,0.3,0,0.4-0.2,0.4l-0.8,0.1c-0.2,0-0.2,0-0.2-0.3v-5.9c0.3,0.1,0.9,0.3,1.2,0.5h0.4l0.4-0.9c0.1-0.1,0.1-0.2,0.1-0.2c0.1,0,1.1,1.2,1.1,1.4c0,0.1-0.2,0.4-0.4,0.5v0.9H98.8z M96.6,380.8l0.5-1c0.1-0.2,0.1-0.2,0.1-0.2c0,0,1,1.2,1,1.3c0,0.1-0.1,0.1-0.1,0.1h-2.8l0-0.2H96.6z M96.5,386.7l0.5-1.1c0.1-0.2,0.1-0.2,0.1-0.2c0.1,0,1,1.2,1,1.3c0,0.1-0.1,0.1-0.1,0.1h-2.7l-0.1-0.2H96.5z M96.5,388.9v3.5H97v-3.5H96.5z M100.6,388.5V387H100v1.5H100.6z M100.6,390.4v-1.7H100v1.7H100.6z M100.6,381.7v1.5h0.8v-1.5H100.6z M101.5,385v-1.6h-0.8v1.6H101.5z M101.8,387v1.5h0.6V387H101.8z M101.8,388.7v1.7h0.6v-1.7H101.8z"/><path d="M118,380.9h-2.2v2.7h0.5l0.3-0.7c0.1-0.2,0.2-0.4,0.2-0.4c0.1,0,1.2,1.3,1.2,1.5c0,0.1-0.1,0.2-0.4,0.5v6.3c0,0.4,0,1.2-1,1.2c-0.2,0-0.3-0.1-0.3-0.4c0-0.9,0-1.4-0.5-1.7v3.8c0,0.3,0,0.4-0.2,0.4l-0.7,0.1c-0.2,0-0.2,0-0.2-0.4v-10.2h-0.6v7.9c0,0.3,0,0.3-0.2,0.4l-0.8,0.1c-0.2,0-0.2,0-0.2-0.3v-3.2c0,0.1-0.1,0.2-0.2,0.2c-0.1,0.1-0.2,0.1-0.2,0.2v4c0,0.3,0,0.4-0.2,0.4l-0.8,0.1c-0.2,0-0.2,0-0.2-0.3v-1.2h-1.1v1.5c0,0.3,0,0.3-0.2,0.4l-0.8,0.1c-0.2,0-0.2,0-0.2-0.4v-12c0.4,0.1,0.6,0.2,1.1,0.4c0-0.4,0.1-2.1,0.1-2.6c0.1,0,1.4,0.4,1.5,0.4c0.1,0,0.2,0.1,0.2,0.2c0,0.1,0,0.1-0.3,0.3c-0.3,0.6-1,1.6-1.2,1.9l0,0h0.9l0.3-0.7c0.1-0.2,0.2-0.4,0.2-0.4c0.1,0,1.2,1.2,1.2,1.5c0,0.2-0.3,0.4-0.5,0.4v3.2c0,0.3,0,0.4-0.2,0.4l-0.9,0.1c-0.2,0-0.2-0.1-0.2-0.3V386h-1v2.3h1l0.3-0.6c0.2-0.4,0.2-0.4,0.3-0.4c0.1,0,1,0.9,1.2,1.3v-5.4c0.5,0.1,1.1,0.3,1.4,0.4h0.4v-2.7h-2.1l-0.1-0.2h3.9l0.5-1.1c0.1-0.1,0.1-0.2,0.1-0.2c0.1,0,1.1,1.3,1.1,1.4S118.1,380.9,118,380.9z M111.2,382.4h-1v3.4h1V382.4z M111.2,388.5h-1.1v3.5h1.1V388.5z M116.4,383.8h-0.6v6.2c0.2,0,0.3,0,0.3,0c0.2,0,0.2-0.2,0.2-0.5V383.8z"/><path d="M124.1,379.7c0.6,0,1.2,0.6,1.2,1.4c0,0.1-0.1,1-0.1,1.2c0,0.4-0.1,1.2-0.1,2c0,0.7,0,1.4,0.5,1.4c0.7,0,1.3-1.1,1.4-1.7c0.1-0.3,0.1-0.5,0.3-0.5c0.5,0,1.1,1,1.1,1.5c0,0.4-0.1,0.7-1.5,1.3c-1.8,0.8-2,0.8-2.6,1.2c-0.7,0.6-1.3,1.6-1.3,2.6c0,1.5,1.3,1.5,1.7,1.5c0.6,0,1.3-0.2,1.9-0.4c0.1,0,0.5-0.2,0.6-0.2c0.3,0,1.2,0.7,1.2,1.3c0,0.6-0.4,0.8-0.5,0.8c-0.6,0.2-1.2,0.2-2.4,0.2c-1.8,0-2.2-0.3-2.6-0.6c-0.4-0.4-0.8-1.1-0.8-2c0-1.6,0.8-2.9,2.1-4.1c-0.3-0.2-0.6-0.4-0.6-1.7c0-0.3,0-1.8,0-2.1c0-1.4,0-2.5-0.6-2.5c-0.1,0-0.3,0.1-0.3,0.1C123.2,380,123.7,379.7,124.1,379.7z"/><path d="M140.2,386.7c-0.3,4.6-1.6,7-4.1,7c-1.9,0-2.2-1.9-2.2-4.9c0-1.1,0.2-5.8,0.2-6.8c0-0.5,0-0.9-0.8-0.8c0.2-0.4,0.4-0.9,1.1-0.9c0.6,0,1.1,0.5,1.1,1c0,0.2-0.2,1.2-0.2,1.4c-0.1,1.2-0.3,4.6-0.3,7c0,1.1,0,2.2,1.2,2.2C138.2,391.8,139.4,389.7,140.2,386.7L140.2,386.7z"/><path d="M145,382.4c0.2,0,1.3-0.4,1.5-0.4c1.2-0.4,2.5-0.6,3.7-0.9c0.4-0.1,0.4-0.1,0.8-0.4c0.1,0,0.1-0.1,0.2-0.1c0.2,0,1.4,0.5,1.4,1.5c0,0.3-0.1,0.7-0.5,0.7c-0.1,0-0.2,0-0.6-0.2c-0.4-0.1-0.8-0.2-1-0.2c-1.3,0-1.7,1.1-1.9,1.5c-0.4,0.9-0.6,2.8-0.6,4.5c0,2.8,0.9,3.1,2,3.5c0.4,0.1,0.8,0.3,0.8,1.2c0,0.2,0,1-0.6,1c-0.1,0-0.7,0-1.4-0.4c-1.2-0.7-1.8-1.8-1.8-4.5c0-2.8,0.8-5.5,2-6.6c-0.9,0.1-2.3,0.8-3.1,1.3c-0.5,0.3-0.5,0.3-0.7,0.3c-0.7,0-1.1-0.9-1.1-1.8c0-0.2,0-0.6,0.1-0.9C144.4,381.9,144.5,382.4,145,382.4z"/><path d="M164.5,387.8l0.6-1.2c0.1-0.1,0.1-0.2,0.1-0.2c0.1,0,1.1,1.3,1.1,1.6c0,0.1,0,0.1-0.1,0.1h-2.8v4.5c0,1,0,1.9-1.5,1.9c-0.2,0-0.3,0-0.3-0.4c0-0.9,0-1.4-1.1-2v0c0.5,0,1.3,0.1,1.4,0.1c0.2,0,0.2-0.1,0.2-0.5V388h-2.1v1.9c0,0.3,0,0.4-0.2,0.4l-0.7,0.1c-0.3,0-0.3,0-0.3-0.3v-1h-0.7v2.2c0,0.3,0,0.4-0.2,0.4l-0.8,0.1c-0.2,0-0.2-0.1-0.2-0.4v-10.7c0.4,0.1,1.1,0.4,1.3,0.5h0.5l0.4-0.8c0.1-0.1,0.1-0.2,0.2-0.2c0.1,0,1.2,1.2,1.2,1.5c0.9-0.3,2.6-1.4,3.7-2.4c0.3,0.3,1.4,1.6,1.6,1.9c0.1,0.1,0.1,0.2,0.1,0.3c0,0.1,0,0.1-0.1,0.1c0,0-0.2,0-0.3-0.1c-0.2,0-1.8,0.2-2.1,0.2v5.9H164.5z M158.2,381.6v7.4h0.7v-7.4H158.2z M162.2,387.8V382c-0.8,0.1-0.9,0.1-1.8,0.1c0,0-0.2,0.2-0.3,0.2v5.4H162.2z M160.1,383.2c0.9,0.5,1.7,1.3,1.7,2.5c0,1.2-0.7,1.3-0.9,1.3c-0.4,0-0.4-0.3-0.4-1C160.6,385.8,160.6,384.4,160.1,383.2L160.1,383.2z M163.7,387.3c0.3-1.4,0.5-3.2,0.6-4.5c0.4,0.2,0.5,0.3,1.4,0.7c0.1,0.1,0.2,0.1,0.2,0.2c0,0.1-0.1,0.1-0.3,0.1C165.3,384.8,164.7,386.3,163.7,387.3L163.7,387.3z"/><path d="M172.9,387c-0.1,0.6-0.7,3.1-0.7,4.3c0,0.4,0.1,0.6,0.1,1c0.1,0.5,0.2,0.8,0.2,1c0,0.6-0.4,0.8-0.6,0.8c-1,0-1.3-2.8-1.3-4.8c0-2.5,0.3-4.5,0.6-6.4c0.1-0.4,0.2-0.9,0.2-1.7c0-0.6,0-0.8-0.1-1.1c0.9,0.6,1.1,2.4,1.1,2.8c0,0.4-0.1,0.7-0.3,1.5c-0.6,2.2-0.6,3.8-0.6,4.2c0,0.4,0,1.3,0.2,1.3c0.1,0,0.1-0.1,0.2-0.3C172.1,389.1,172.6,387.8,172.9,387L172.9,387z M177.8,382.9c0.2,0.3,0.2,0.3,0.6,0.5c0.3,0.1,0.4,0.3,0.4,0.6c0,0.3-0.1,0.8-0.4,0.9c-0.2,0.1-0.3,0.1-1.5,0.4c0,0.5,0.1,2.8,0.2,4.2c0.7,0.3,1.9,1.3,1.9,2.2c0,0.5-0.2,1.1-0.6,1.1c-0.2,0-0.3-0.1-0.5-0.4c-0.2-0.3-0.6-0.8-0.7-0.9c0,0.8-0.1,2.1-1.6,2.1c-0.9,0-1.8-0.5-1.9-1.3c-0.1-0.5-0.1-0.6-0.2-1.1c0-0.1-0.1-0.2-0.1-0.4c0-0.4,0.2-0.9,0.3-1c0.3-0.5,1.1-0.7,1.7-0.7c0.3,0,0.5,0,0.6,0.1c0-0.6-0.1-3.2-0.1-3.7c-0.3,0.1-0.6,0.1-0.6,0.1c-0.7,0-0.9-0.2-1.2-0.9c-0.1-0.1-0.3-0.8-0.3-0.9c0.1,0.1,0.4,0.4,1.1,0.4c0.3,0,0.6,0,1-0.1c0-0.9,0-2.4-0.1-2.6c0-0.2-0.1-0.5-0.4-0.5c-0.1,0-0.1,0-0.2,0c0.1-0.3,0.3-0.8,0.8-0.8c0.4,0,1,0.3,1,1.1c0,0.2-0.1,0.9-0.1,1c0,0.4-0.1,0.8-0.1,1.4c0.2-0.1,0.8-0.3,0.8-0.6C177.8,383,177.7,383,177.8,382.9L177.8,382.9z M175.1,390.7c-0.8,0-1,0.3-1,0.7c0,0.7,0.8,0.7,1,0.7c1.1,0,1.1-0.8,1.1-1.2C175.8,390.8,175.4,390.7,175.1,390.7z M179,381.9c0,0.4-0.2,0.8-0.4,0.8c-0.3,0-0.3-0.2-0.6-1c-0.1-0.5-0.4-1-0.9-1.4C178.4,380.2,179,381.1,179,381.9z M180,380.5c0,0.3-0.1,0.8-0.4,0.8c-0.2,0-0.2-0.1-0.4-0.7c-0.2-0.5-0.6-1.1-1-1.3C180,379.1,180,380.4,180,380.5z"/><path d="M193,389.6c-0.5,2.4-1.1,3.1-2.1,3.1c-1.1,0-1.5-0.6-1.5-2c0-0.8,0.3-4.4,0.3-5.2c0-0.9-0.1-1.5-0.6-1.5c-0.5,0-1.4,0.8-2.5,2.7c0,1.9,0,3.9,0.2,5.7c0,0.2,0.1,0.9,0.1,1.1c0,0.5-0.3,0.7-0.5,0.7c-0.3,0-0.8-0.4-0.8-1.2c0-0.2,0-1,0-1.2c0,0,0-1.1-0.2-2.1c-0.2,0.8-0.5,1.7-0.6,2.2c-0.1,0.4-0.2,0.7-0.5,0.7c-0.6,0-0.6-0.9-0.6-1.2c0-0.5,0-0.5,0.3-1c0.2-0.3,0.8-1.7,1-2.3c-0.1-0.3-0.4-1.4-0.5-1.7c-0.1-0.4-0.1-0.7-0.1-1c0-0.7,0-1.4,1.5-2.5c0-1.4,0-2.7-0.7-2.6c0.4-0.4,0.5-0.6,0.8-0.6c0.2,0,0.9,0.2,0.9,1.6c0,0.4,0,0.7-0.2,1.5c0.5,0.2,0.5,0.8,0.5,0.9c0,0.2,0,0.2-0.2,0.8c-0.3,0.7-0.3,0.9-0.6,1.5c0,0.2,0,0.2,0,0.3c0,0,1.8-3.2,3-3.2c0.7,0,1.4,0.9,1.4,2.3c0,0.6,0,0.8-0.2,2.6c-0.1,1.4-0.2,1.8-0.2,2.1c0,0.5,0,1.1,0.7,1.1C192.3,391,192.9,389.9,193,389.6L193,389.6z M186,384.6c-0.1,0-0.5,0.3-0.7,0.6c-0.3,0.3-0.4,0.5-0.4,0.9c0,0.5,0.1,1.1,0.2,1.7c0.6-1.2,0.8-2.5,0.9-2.6V384.6z M185.5,389.5c0,0.1,0.1,0.5,0.1,0.7c0,0.2,0.1,0.3,0.1,0.3c0.1,0,0.1-0.4,0.1-0.5c0-0.1,0-1.6,0-1.9L185.5,389.5z"/><path d="M197,390.1c0.6,0,1.6,0.1,2.3,0.8c0.3,0.3,0.6,0.8,0.6,1.7c0,0.7-0.3,1.2-0.8,1.2c-0.6,0-0.7-0.7-0.8-0.8c-0.2-0.8-0.4-1.9-1.5-2.8L197,390.1z"/><path d="M41.6,415.2l0.6-1.3c0.1-0.2,0.1-0.2,0.2-0.2c0.1,0,1.2,1.4,1.2,1.6c0,0.1-0.1,0.1-0.1,0.1h-9.5l-0.1-0.2H41.6z M34,419.3c1-0.9,2.5-3,2.9-3.7c0.4,0.3,0.5,0.3,1.4,1.1c0,0,0.1,0.1,0.1,0.2c0,0.1-0.1,0.1-0.1,0.1c-0.1,0-0.2,0-0.2,0C37.5,417.4,36.1,418.8,34,419.3L34,419.3z M37,413.7v0.5c0,0.2,0,0.3-0.2,0.3l-0.9,0.1c-0.2,0-0.2,0-0.2-0.3v-6.8c0.2,0,1.3,0.4,1.6,0.4H38v-1.4h-3.9l-0.1-0.2H38v-1.9c0.2,0,1.3,0.1,1.4,0.1c0.1,0,0.2,0,0.2,0.1s0,0.1-0.3,0.3v1.3h2.1l0.6-1.3c0-0.1,0.1-0.2,0.2-0.2c0.1,0,1.2,1.3,1.2,1.6c0,0.1-0.1,0.1-0.1,0.1h-3.9v1.4h1l0.2-0.5c0.2-0.4,0.2-0.5,0.3-0.5c0.1,0,1.3,1.4,1.3,1.5c0,0.2-0.3,0.3-0.4,0.4v5.1c0,0.3-0.1,0.4-0.2,0.4l-0.8,0.1c-0.2,0-0.2-0.1-0.2-0.3v-0.4H37z M37,408.2v1.6h3.4v-1.6H37z M37,410v1.7h3.4V410H37z M40.5,413.5v-1.7H37v1.7H40.5z M39.3,415.8c0.8,0.1,3.4,0.4,3.4,2.3c0,0.5-0.2,1.2-0.7,1.2c-0.1,0-0.2,0-0.4-0.5C41.3,418.4,40.5,416.9,39.3,415.8L39.3,415.8z"/><path d="M48.7,407.9v7.9c0,0.3,0,0.4-0.1,0.4l-0.7,0.1c-0.2,0-0.2,0-0.2-0.3v-8.7c0.4,0.1,0.9,0.3,1.1,0.5h0.3v-3.2c0.1,0,1.2,0.2,1.3,0.2c0.1,0,0.2,0,0.2,0.1c0,0.2-0.2,0.2-0.3,0.2v2.6h0.3l0.2-0.4c0.1-0.3,0.2-0.4,0.3-0.4c0.1,0,0.9,1.1,1,1.2v-2.8c0.3,0.1,0.7,0.2,1.3,0.5h1.1l0.4-0.7c0.1-0.3,0.2-0.4,0.2-0.4c0.1,0,0.7,0.7,1.1,1.2c0.1,0.1,0.2,0.2,0.2,0.4c0,0.3-0.4,0.4-0.6,0.6v9.8c0,0.4,0,0.4,0.1,0.4c0.2,0,0.2,0,0.3-0.2c0.1-0.4,0.6-2,0.9-3.3l0,0c0,0.4-0.3,2.8-0.3,3c0,0.2,0,0.3,0.2,0.6c0.1,0.2,0.2,0.4,0.2,0.7c0,1.1-0.8,1.1-1.9,1.1c-0.9,0-0.9-0.4-0.9-1.5v-4.3c-0.3,0.5-0.6,0.5-0.7,0.5c-0.3,0-0.3-0.3-0.3-0.6c0-1.2,0-2.7-0.2-3.6v2c0,3.4-0.2,5.7-2.9,7.7l0,0c1.2-1.8,1.7-3.2,1.7-6.8v-4.1c0,0-0.3,0.3-0.4,0.4v5.5c0,0.5,0,1.5-0.9,1.5c-0.2,0-0.2-0.1-0.2-0.3c0-0.9-0.1-1.2-0.2-1.4v4.9c0,0.2,0,0.3-0.1,0.3l-0.7,0.1c-0.2,0-0.2,0-0.2-0.3v-11.1H48.7z M50.2,407.9v5.9c0.1,0,0.2,0,0.2,0c0.1,0,0.1,0,0.1-0.6v-5.3H50.2z M53.1,409.3c0.5,0.4,0.9,0.9,1.2,1.4V406h-1.2V409.3z"/><path d="M64.4,405.8c0-0.4-0.1-0.6-0.5-0.8c0.1-0.2,0.3-0.6,0.7-0.6c0.5,0,0.9,0.5,0.9,1c0,0.2,0,0.3-0.3,1c0.1-0.1,0.2-0.1,0.3-0.3c0.2-0.2,0.2-0.2,0.3-0.2c0.4,0,0.9,0.3,0.9,1c0,0.3-0.1,0.4-0.2,0.5c-0.2,0.2-1,0.5-2,1c-0.1,0.3-0.4,1.3-0.5,1.6c0.3-0.3,0.6-0.4,0.9-0.4c0.8,0,0.9,1.5,0.9,2c0.3-0.9,1.1-2.6,2.3-2.6c0.9,0,1.5,0.8,1.5,2.1c0,1-0.4,1.3-1.1,1.6c-1.4,0.6-2.2,0.9-2.8,1.3c0,0.2,0,1.3,0,1.5c0,0.3,0,0.8-0.6,0.8c-0.7,0-0.7-0.9-0.7-1.6c-0.4,0.3-0.8,0.7-0.8,1.5c0,0.7,0.5,0.8,1.1,0.8c0.7,0,1.3-0.2,1.8-0.3c0.1,0,0.2-0.1,0.3-0.1c0.2,0,0.9,0.3,0.9,1.1c0,1-1,1.2-2,1.2c-0.7,0-1.8-0.2-2.4-0.8c-0.3-0.3-0.4-0.7-0.4-1.3c0-0.8,0.3-1.6,1.6-2.6c0.1-1,0.2-1.6,0.2-2.4c0-0.6,0-1.7-0.5-1.7c-0.3,0-0.4,0.3-1.2,2.1c-0.5,1.2-1.2,2.5-1.7,2.5c-0.3,0-0.5-0.3-0.5-1c0-0.7,0.2-0.9,0.6-1.4c0.8-0.8,1.4-1.9,1.9-3.5c-0.2,0.1-0.4,0.1-0.5,0.1c-0.8,0-1-1.4-1.1-2.2c0.2,0.3,0.7,0.6,1,0.6c0.2,0,0.5-0.1,1.1-0.4C64.4,406.4,64.4,406.1,64.4,405.8z M68.2,411.5c0.2-0.2,0.4-0.5,0.4-0.9c0-0.4-0.3-0.9-0.8-0.9c-0.2,0-0.5,0-1,0.8c-0.5,0.7-0.6,1.3-0.8,3.1C67,412.7,67.6,412.3,68.2,411.5z"/><path d="M79.6,404.5c0.1,0,0.9,0.2,1.4,0.3c0.1,0,0.2,0.1,0.2,0.2c0,0.1-0.1,0.1-0.3,0.2v3.4h0.9l0.4-0.8c0.1-0.1,0.1-0.3,0.2-0.3c0.1,0,0.8,0.9,1.1,1.3c0.1,0.2,0.1,0.2,0.1,0.3c0,0.3-0.3,0.3-0.4,0.4c-0.1,5.2-0.3,7.7-0.8,8.8c-0.3,0.8-0.9,1.1-1.4,1.1c-0.4,0-0.4-0.1-0.4-0.6c0-0.6,0-1.3-1.1-1.9c-0.5,0.8-1.2,1.7-2.8,2.6l0,0c1.3-1.3,2-2.8,2.4-4c-1.5,1-3.1,2-4.7,2.8c-0.1-0.4-0.5-2-0.6-2.4l0.8-0.1v-10.3c0.4,0.2,1.1,0.4,1.4,0.6H77l0.3-0.8c0.1-0.2,0.1-0.3,0.2-0.3c0.1,0,1.2,1.2,1.2,1.5c0,0.2-0.1,0.3-0.4,0.5v1.7h1.3V404.5z M75.8,406.1v3H77v-3H75.8z M75.8,409.3v2.8H77v-2.8H75.8z M75.8,412.3v3.2l1.2-0.2v-3H75.8z M79.6,408.8h-1.3v6.4l0.8-0.1c0.1-0.3,0.2-0.9,0.3-1.9c0.1-1.1,0.1-2.6,0.1-3.4V408.8z M80.9,409.1c0,4-0.4,5.9-1.4,7.6c0.1,0,1.2,0.2,1.3,0.2c0.4,0,0.6-0.2,0.7-0.9c0.2-0.9,0.4-3.6,0.4-7.3h-1V409.1z"/><path d="M92.9,409.7h1.8l0.6-1.4c0.1-0.1,0.1-0.2,0.1-0.2c0.1,0,1.3,1.5,1.3,1.7c0,0.1-0.1,0.1-0.1,0.1h-3.7v3H95l0.7-1.4c0.1-0.2,0.1-0.2,0.1-0.2c0.1,0,1.3,1.5,1.3,1.6c0,0.1-0.1,0.1-0.1,0.1h-4v4.3c0,1.1,0,2-1.6,2c-0.4,0-0.5-0.2-0.5-0.5c0-0.6,0-0.7-0.1-0.8c-0.1-0.2-0.4-0.7-1.1-1v-0.1c0.3,0,1.4,0.1,1.7,0.1c0.2,0,0.2-0.1,0.2-0.5v-3.4h-4.1l-0.1-0.2h4.1v-3h-3.7l-0.1-0.2h3.8v-2.6c-1.2,0.1-2.3,0.1-3.6,0.1v-0.1c3.3-1,5.1-1.9,6.2-2.9l1.5,1.9c0.1,0.1,0.1,0.2,0.1,0.2c0,0.1-0.1,0.1-0.1,0.1c0,0-0.1,0-0.3-0.1c-0.4,0.1-1.2,0.3-2.4,0.4V409.7z"/><path d="M103.1,404.7c0.6,0,1.2,0.6,1.2,1.4c0,0.1-0.1,1-0.1,1.2c0,0.4-0.1,1.2-0.1,2c0,0.7,0,1.4,0.5,1.4c0.7,0,1.3-1.1,1.4-1.7c0.1-0.3,0.1-0.5,0.3-0.5c0.5,0,1.1,1,1.1,1.5c0,0.4-0.1,0.7-1.5,1.3c-1.8,0.8-2,0.8-2.6,1.2c-0.7,0.6-1.3,1.6-1.3,2.6c0,1.5,1.3,1.5,1.7,1.5c0.6,0,1.3-0.2,1.9-0.4c0.1,0,0.5-0.2,0.6-0.2c0.3,0,1.2,0.7,1.2,1.3c0,0.6-0.4,0.8-0.5,0.8c-0.6,0.2-1.2,0.2-2.4,0.2c-1.8,0-2.2-0.3-2.6-0.6c-0.4-0.4-0.8-1.1-0.8-2c0-1.6,0.8-2.9,2.1-4.1c-0.3-0.2-0.6-0.4-0.6-1.7c0-0.3,0-1.8,0-2.1c0-1.4,0-2.5-0.6-2.5c-0.1,0-0.3,0.1-0.3,0.1C102.2,405,102.6,404.7,103.1,404.7z"/><path d="M119.2,411.7c-0.3,4.6-1.6,7-4.1,7c-1.9,0-2.2-1.9-2.2-4.9c0-1.1,0.2-5.8,0.2-6.8c0-0.5,0-0.9-0.8-0.8c0.2-0.4,0.4-0.9,1.1-0.9c0.6,0,1.1,0.5,1.1,1c0,0.2-0.2,1.2-0.2,1.4c-0.1,1.2-0.3,4.6-0.3,7c0,1.1,0,2.2,1.2,2.2C117.1,416.8,118.3,414.7,119.2,411.7L119.2,411.7z"/><path d="M124,407.4c0.2,0,1.3-0.4,1.5-0.4c1.2-0.4,2.5-0.6,3.7-0.9c0.4-0.1,0.4-0.1,0.8-0.4c0.1,0,0.1-0.1,0.2-0.1c0.2,0,1.4,0.5,1.4,1.5c0,0.3-0.1,0.7-0.5,0.7c-0.1,0-0.2,0-0.6-0.2c-0.4-0.1-0.8-0.2-1-0.2c-1.3,0-1.7,1.1-1.9,1.5c-0.4,0.9-0.6,2.8-0.6,4.5c0,2.8,0.9,3.1,2,3.5c0.4,0.1,0.8,0.3,0.8,1.2c0,0.2,0,1-0.6,1c-0.1,0-0.7,0-1.4-0.4c-1.2-0.7-1.8-1.8-1.8-4.5c0-2.8,0.8-5.5,2-6.6c-0.9,0.1-2.3,0.8-3.1,1.3c-0.5,0.3-0.5,0.3-0.7,0.3c-0.7,0-1.1-0.9-1.1-1.8c0-0.2,0-0.6,0.1-0.9C123.4,406.9,123.5,407.4,124,407.4z"/><path d="M135.6,411.7l-0.1-0.2h1.1l0.5-0.9c0-0.1,0.1-0.2,0.1-0.2c0.1,0,1.2,1.3,1.2,1.6c0,0.1-0.1,0.2-0.5,0.4v2.7c0,1.9,0.4,2.1,2.7,2.1c1.2,0,3.5-0.1,4.6-0.4v0c-0.5,0.7-0.5,1.4-0.5,1.8c0,0.2-0.1,0.3-0.2,0.4c-0.2,0.1-1.9,0.1-2.5,0.1c-2.5,0-3.8-0.4-4.2-2.7c-0.4,0.8-1.3,2.4-1.8,3.1c-0.1-0.4-0.5-1.7-0.7-2.4l1.3-0.4v-4.8H135.6z M135.8,404.9c1.9,0.5,2.3,1.7,2.3,2.3c0,0.8-0.5,1.3-0.9,1.3c-0.2,0-0.2-0.1-0.4-0.8C136.7,407.4,136.4,406,135.8,404.9L135.8,404.9z M142.1,414.8v1.7c0,0.3,0,0.3-0.2,0.4l-0.8,0.1c-0.1,0-0.2,0-0.2-0.4v-1.8h-2.6l0-0.2h2.6v-1.9h-0.8v0.7c0,0.3,0,0.4-0.2,0.4l-0.7,0.1c-0.2,0-0.2-0.1-0.2-0.4v-5.9c0.6,0.1,1.2,0.4,1.3,0.5h0.6v-1.7h-2.4l-0.1-0.2h2.5v-1.7c0.2,0,1.5,0.2,1.5,0.4c0,0.1-0.1,0.1-0.3,0.2v1.1h1.1l0.5-1.1c0-0.1,0.1-0.2,0.1-0.2c0.1,0,1.1,1.2,1.1,1.4c0,0.1-0.1,0.1-0.1,0.1h-2.7v1.7h0.7l0.4-0.7c0.1-0.1,0.1-0.2,0.1-0.2c0.1,0,1.2,1.4,1.2,1.5c0,0.2,0,0.2-0.4,0.4v3.8c0,0.2,0,0.3-0.1,0.4c0.1,0.1,1.1,1.2,1.1,1.4c0,0.1-0.1,0.1-0.1,0.1H142.1z M140.9,410.3v-2h-0.8v2H140.9z M140.9,412.6v-2.1h-0.8v2.1H140.9z M142.9,410.3v-2h-0.8v2H142.9z M142.9,412.6v-2.1h-0.8v2.1H142.9z M143.8,413.5c0,0,0.1-0.1,0.1-0.1l-0.7,0.1c-0.2,0-0.3-0.1-0.3-0.4v-0.3h-0.8v1.9h1.2L143.8,413.5z"/><path d="M158.7,414.6c-0.5,2.4-1.1,3.1-2.1,3.1c-1.1,0-1.5-0.6-1.5-2c0-0.8,0.3-4.4,0.3-5.2c0-0.9-0.1-1.5-0.6-1.5c-0.5,0-1.4,0.8-2.5,2.7c0,1.9,0,3.9,0.2,5.7c0,0.2,0.1,0.9,0.1,1.1c0,0.5-0.3,0.7-0.5,0.7c-0.3,0-0.8-0.4-0.8-1.2c0-0.2,0-1,0-1.2c0,0,0-1.1-0.2-2.1c-0.2,0.8-0.5,1.7-0.6,2.2c-0.1,0.4-0.2,0.7-0.5,0.7c-0.6,0-0.6-0.9-0.6-1.2c0-0.5,0-0.5,0.3-1c0.2-0.3,0.8-1.7,1-2.3c-0.1-0.3-0.4-1.4-0.5-1.7c-0.1-0.4-0.1-0.7-0.1-1c0-0.7,0-1.4,1.5-2.5c0-1.4,0-2.7-0.7-2.6c0.4-0.4,0.5-0.6,0.8-0.6c0.2,0,0.9,0.2,0.9,1.6c0,0.4,0,0.7-0.2,1.5c0.5,0.2,0.5,0.8,0.5,0.9c0,0.2,0,0.2-0.2,0.8c-0.3,0.7-0.3,0.9-0.6,1.5c0,0.2,0,0.2,0,0.3c0,0,1.8-3.2,3-3.2c0.7,0,1.4,0.9,1.4,2.3c0,0.6,0,0.8-0.2,2.6c-0.1,1.4-0.2,1.8-0.2,2.1c0,0.5,0,1.1,0.7,1.1C158,416,158.5,414.9,158.7,414.6L158.7,414.6z M151.6,409.6c-0.1,0-0.5,0.3-0.7,0.6c-0.3,0.3-0.4,0.5-0.4,0.9c0,0.5,0.1,1.1,0.2,1.7c0.6-1.2,0.8-2.5,0.9-2.6V409.6z M151.2,414.5c0,0.1,0.1,0.5,0.1,0.7c0,0.2,0.1,0.3,0.1,0.3c0.1,0,0.1-0.4,0.1-0.5c0-0.1,0-1.6,0-1.9L151.2,414.5z"/><path d="M163.4,407.4c0.2,0,1.3-0.4,1.5-0.4c1.2-0.4,2.5-0.6,3.7-0.9c0.4-0.1,0.4-0.1,0.8-0.4c0.1,0,0.1-0.1,0.2-0.1c0.2,0,1.4,0.5,1.4,1.5c0,0.3-0.1,0.7-0.5,0.7c-0.1,0-0.2,0-0.6-0.2c-0.4-0.1-0.8-0.2-1-0.2c-1.3,0-1.7,1.1-1.9,1.5c-0.4,0.9-0.6,2.8-0.6,4.5c0,2.8,0.9,3.1,2,3.5c0.4,0.1,0.8,0.3,0.8,1.2c0,0.2,0,1-0.6,1c-0.1,0-0.7,0-1.4-0.4c-1.2-0.7-1.8-1.8-1.8-4.5c0-2.8,0.8-5.5,2-6.6c-0.9,0.1-2.3,0.8-3.1,1.3c-0.5,0.3-0.5,0.3-0.7,0.3c-0.7,0-1.1-0.9-1.1-1.8c0-0.2,0-0.6,0.1-0.9C162.8,406.9,162.9,407.4,163.4,407.4z"/><path d="M182.6,411.8l0.6-1.4c0.1-0.1,0.1-0.2,0.1-0.2c0.1,0,1.2,1.5,1.2,1.6c0,0.1-0.1,0.1-0.1,0.1h-3.9c0.6,2.9,2.6,3.9,4.1,4.4v0.1c-0.5,0.2-0.7,0.8-0.8,1.6c0,0.2-0.1,0.4-0.3,0.4c-0.1,0-2-0.8-2.7-4c-0.3-1.3-0.4-2.3-0.4-2.4h-0.1v6.8c0,0.3,0,0.4-0.3,0.4l-0.7,0.1c-0.2,0-0.3,0-0.3-0.3v-4.9c-1.1,2.1-2.5,3.6-4.1,4.5l0,0c1.2-1.4,2.8-4.2,3.4-6.6h-3.4l-0.1-0.2h4.1v-4.7h-3.5l-0.1-0.2h3.6v-2.5c0.3,0,1.4,0.2,1.5,0.3c0,0,0.1,0.1,0.1,0.2c0,0.1,0,0.1-0.3,0.2v1.8h1.7l0.6-1.3c0.1-0.2,0.1-0.2,0.1-0.2c0.1,0,1.2,1.5,1.2,1.6s-0.1,0.1-0.1,0.1h-3.5v4.7H182.6z M176.2,407.7c0.3,0.1,2.1,0.6,2.1,2.5c0,1.1-0.8,1.3-0.9,1.3c-0.1,0-0.2-0.1-0.2-0.3C176.9,410.1,176.7,408.6,176.2,407.7L176.2,407.7z M180.5,411.7c0.4-1.1,0.8-3,1-4.1c0.2,0.1,1.5,0.8,1.6,0.9c0,0,0.1,0.1,0.1,0.2c0,0.1,0,0.1-0.4,0.1C182,410.3,181.4,410.9,180.5,411.7L180.5,411.7z"/><path d="M194.7,406l0.3-0.7c0.1-0.3,0.2-0.4,0.2-0.4c0.1,0,1.2,1.3,1.2,1.6c0,0.2-0.2,0.4-0.4,0.4v11.5c0,0.3,0,0.4-0.2,0.5L195,419c-0.2,0-0.2-0.1-0.2-0.4v-1.2H191v1.2c0,0.4,0,0.4-0.3,0.5l-0.8,0.1c-0.2,0-0.3-0.1-0.3-0.4v-13.3c0.2,0,0.4,0.1,1.5,0.5H194.7z M191,406.2v5.3h3.8v-5.3H191z M191,411.7v5.6h3.8v-5.6H191z"/><path d="M208.3,406.9c0.4,0.3,0.5,0.3,1.1,0.4c0.7,0.2,1,0.5,1,1c0,0.2-0.2,0.8-0.5,0.8c-0.2,0-1-0.4-1.2-0.4c-0.2-0.1-0.5-0.1-0.9-0.1c-0.4,0-0.9,0.1-1.1,0.1c0,1.1,0,1.6,0,2.2c0.1,0.2,0.3,0.6,0.4,1.2c0.1,0.6,0.3,1.4,0.3,2.4c0,4.3-3.2,4.8-4.3,4.8v-0.1c1.7-0.5,2.8-1.7,2.8-3.3c-0.2,0.3-0.5,0.4-0.6,0.4c-0.7,0-0.8-1-0.8-1.6c0-0.5-0.1-0.9-0.2-1.3c-0.1-0.6-0.1-0.8-0.1-1.1c0-1.2,0.7-2.1,1.4-2.1c0.1,0,0.1,0,0.2,0c0-0.2,0-0.3,0-1.4c-0.5,0.1-1.9,0.5-2.9,1.1c-0.4,0.2-0.4,0.3-0.5,0.3c-0.2,0-0.5-0.3-0.7-0.7c-0.2-0.5-0.2-0.9-0.3-1.6c0.3,0.2,0.6,0.4,1,0.4c0.4,0,1.4-0.2,1.5-0.2c0.3-0.1,1.7-0.4,1.9-0.4c0-2.3,0-2.6-0.5-2.7c0.1-0.3,0.2-0.6,0.6-0.6c0.1,0,1.2,0.2,1.2,1.4c0,0.1-0.2,1.5-0.2,1.7c0.1,0,1.4-0.2,1.4-0.2c0.1,0,0.1-0.1,0.1-0.1C208.4,407.1,208.4,407.1,208.3,406.9L208.3,406.9z M204.5,412.8c0,0.6,0.4,1.9,0.8,1.9c0.4,0,0.5-0.6,0.5-1.7c0-0.5,0-1.4-0.6-1.4C205.1,411.5,204.5,412.1,204.5,412.8z"/><path d="M218.9,410.9c2.1,0,2.6,2.4,2.6,3.9c0,2.7-1.3,4-3.1,4c-1.5,0-2.1-1-2.1-2.1c0-0.9,0.4-1.8,1.3-1.8c0.7,0,1.2,0.6,1.2,1.4c0,0.4-0.1,0.5-0.1,0.7c0.5-0.1,1.6-0.4,1.6-3c0-0.9-0.2-2.7-1.6-2.7c-0.9,0-1.6,0.7-2.4,2.9c-0.2,0.6-0.2,0.7-0.5,1.9c-0.1,0.2-0.1,0.6-0.5,0.6c-0.6,0-0.7-1-0.7-1.6c0-0.6,0.1-0.7,0.7-1.7c0.2-0.3,2.5-4.4,3.5-6.5c0.1-0.2,0.1-0.3,0.1-0.4c0-0.1,0-0.1-0.1-0.1c0,0-0.3,0.3-0.6,0.7c-0.5,0.6-0.7,0.8-1,0.8c-0.7,0-1.1-1.1-1.1-1.7c0.2,0.1,0.3,0.3,0.6,0.3c0.5,0,1.4-0.9,1.9-1.3c0.5-0.4,0.5-0.4,0.7-0.4c0.3,0,1.2,0.2,1.2,1.6c0,0.5-0.1,0.6-0.5,1c-0.7,0.8-2,3.4-2.1,3.6C218.1,411,218.3,410.9,218.9,410.9z M217.8,416.6c0-0.3-0.1-0.6-0.4-0.6c-0.3,0-0.4,0.3-0.4,0.5c0,0.2,0.1,0.5,0.6,0.6C217.7,416.9,217.8,416.8,217.8,416.6z"/><path d="M229.3,416.4c0,1.3-0.7,2.4-1.6,2.4c-0.9,0-1.6-1.1-1.6-2.4c0-1.4,0.7-2.4,1.6-2.4S229.3,415,229.3,416.4z M226.5,416.4c0,1,0.5,1.8,1.2,1.8c0.7,0,1.2-0.8,1.2-1.8c0-1-0.5-1.8-1.2-1.8C227,414.6,226.5,415.4,226.5,416.4z"/></g></g><line class="st1" x1="19.6" y1="21.8" x2="19.6" y2="470"/><path d="M19.6,13.7c2.2,0,4.1,1.8,4.1,4.1c0,2.2-1.8,4.1-4.1,4.1s-4.1-1.8-4.1-4.1C15.5,15.5,17.4,13.7,19.6,13.7z"/><path class="st2" d="M19.6,11.8c3.3,0,5.9,2.7,5.9,5.9c0,3.3-2.7,5.9-5.9,5.9c-3.3,0-5.9-2.7-5.9-5.9C13.7,14.5,16.3,11.8,19.6,11.8z"/><polygon class="st2" points="19.6,5.5 24.9,14.7 30.2,23.9 19.6,23.9 9,23.9 14.3,14.7 "/><g><path d="M10.9,76.7c0,1.7,0,2.1,0.2,2.1c0.2,0,0.3,0,0.4-0.1c0.1,0.2,0.1,0.6,0,0.8c-1,0.1-1.7,0.6-1.8,0.6c-0.1,0-0.1-0.1-0.2-0.3l0-0.6c0-0.1,0-0.2-0.1-0.1c-0.3,0.4-0.7,0.8-1.1,0.8c-1.1,0-1.9-1.6-1.9-3.5c0-2.5,1-4.2,2.3-4.2c0.2,0,0.4,0,0.6,0.1c0.1-0.1,0.1-0.2,0.1-0.3v-2.3c0-0.7,0-0.9-0.2-1.1l-0.2-0.2c-0.1-0.1-0.1-0.4,0-0.5c0.4-0.2,1-0.6,1.5-1c0.1,0,0.1,0,0.2,0.1c0,0.7,0,1.5,0,2.6V76.7z M9.6,74.3c0-0.3,0-0.5-0.1-0.6C9.4,73.3,9.2,73,9,73c-0.5,0-1,1-1,2.8c0,1.2,0.3,2.8,1.1,2.8c0.1,0,0.3-0.1,0.4-0.2c0.1-0.1,0.1-0.4,0.1-0.7V74.3z"/></g><g><path d="M8.1,356.3c-0.2,0-0.2,0-0.2,0.3c0,1.4,0.5,2.7,1.4,2.7c0.3,0,0.6-0.1,0.9-0.9c0.1,0,0.3,0.1,0.3,0.4c-0.4,1.5-1.1,2.1-1.7,2.1c-1.3,0-2-1.7-2-3.7c0-2.3,0.9-4,2.1-4c1,0,1.6,1.2,1.6,2.6c0,0.3,0,0.6-0.4,0.6H8.1z M8.7,355.6c0.1,0,0.3,0,0.4-0.2c0-0.1,0.1-0.2,0.1-0.4c0-0.6-0.2-1-0.5-1c-0.4,0-0.8,0.7-0.8,1.3c0,0.3,0.1,0.3,0.4,0.3H8.7z"/></g><line class="st3" x1="22.7" y1="45.1" x2="16.1" y2="45.1"/><line class="st3" x1="22.7" y1="76.3" x2="16.1" y2="76.3"/><line class="st3" x1="22.7" y1="111.5" x2="16.1" y2="111.5"/><line class="st3" x1="22.7" y1="146.7" x2="16.1" y2="146.7"/><line class="st3" x1="22.7" y1="181.8" x2="16.1" y2="181.8"/><line class="st3" x1="22.7" y1="217" x2="16.1" y2="217"/><line class="st3" x1="22.7" y1="252.2" x2="16.1" y2="252.2"/><line class="st3" x1="22.7" y1="252.2" x2="16.1" y2="252.2"/><line class="st3" x1="22.7" y1="252.2" x2="16.1" y2="252.2"/><line class="st3" x1="22.6" y1="287" x2="16.1" y2="287"/><line class="st3" x1="22.6" y1="322.2" x2="16.1" y2="322.2"/><line class="st3" x1="22.6" y1="357.4" x2="16.1" y2="357.4"/><line class="st3" x1="22.6" y1="322.2" x2="16.1" y2="322.2"/><line class="st3" x1="22.6" y1="392.6" x2="16.1" y2="392.6"/><line class="st3" x1="22.6" y1="423.7" x2="16.1" y2="423.7"/><line class="st3" x1="22.6" y1="446.8" x2="16.1" y2="446.8"/><line class="st3" x1="22.6" y1="469.9" x2="16.1" y2="469.9"/><line class="st4" x1="96.9" y1="469.9" x2="34.3" y2="469.9"/><line class="st4" x1="105.2" y1="42.2" x2="35.4" y2="42.2"/><circle cx="10.4" cy="45.1" r="1.7"/><g><path d="M37.6,457.6l-0.3,1.8h0.6l-0.1,0.8h-0.6l-0.3,2.2h-0.4l0.3-2.2h-0.6l-0.3,2.2h-0.4l0.3-2.2h-0.6l0.1-0.8h0.7l0.3-1.8h-0.6l0.1-0.8h0.7l0.3-2H37l-0.3,2h0.6l0.3-2H38l-0.3,2h0.6l-0.1,0.8H37.6z M36.6,457.6l-0.3,1.8h0.6l0.3-1.8H36.6z"/><path d="M43.6,458.6c0,1.9-0.4,3.9-1.5,3.9c-1.1,0-1.5-2-1.5-3.9c0-1.9,0.4-3.9,1.5-3.9C43.1,454.6,43.6,456.7,43.6,458.6z M42.1,461.9c0.5,0,0.6-2.3,0.6-3.4c0-1.1-0.1-3.4-0.6-3.4s-0.6,2.3-0.6,3.4C41.5,459.6,41.6,461.9,42.1,461.9z"/><path d="M47.6,459.2c0.1,0.1,0.1,0.3,0.1,0.5c0,0.2,0,0.3-0.1,0.5l-1.6,0.3c-0.1-0.1-0.1-0.3-0.1-0.5c0-0.2,0-0.4,0.1-0.5L47.6,459.2z"/><path d="M51.2,458.2c-0.1,0-0.1,0-0.1,0.3v1.8c0,0.7,0,1.4,0.5,1.4c0.1,0,0.2-0.1,0.3-0.2c0.1,0,0.1,0.2,0.1,0.3c-0.2,0.4-0.5,0.7-0.9,0.7c-0.5,0-0.7-0.6-0.7-1.4v-2.7c0-0.3,0-0.3-0.1-0.3H50c-0.1,0-0.1-0.3,0-0.4c0.2-0.1,0.4-0.3,0.5-0.5c0.1-0.2,0.3-0.4,0.5-0.9c0,0,0.2,0,0.2,0.1v0.9c0,0.2,0,0.2,0.1,0.2h0.6c0,0,0.1,0.1,0.1,0.2c0,0.1,0,0.3-0.1,0.4H51.2z"/><path d="M56.2,460.7c0,0.8,0.2,1,0.3,1c0.1,0,0.1,0,0.2-0.1c0.1,0,0.1,0.2,0.1,0.3c-0.1,0.2-0.4,0.6-0.8,0.6c-0.2,0-0.4-0.1-0.5-0.4c0-0.1-0.1-0.1-0.1-0.1s-0.1,0-0.1,0.1c-0.1,0.2-0.3,0.4-0.6,0.4c-0.4,0-0.7-0.4-0.7-1.3c0-0.6,0.2-1,0.7-1.2c0.2-0.1,0.4-0.2,0.6-0.3c0.1-0.1,0.1-0.1,0.2-0.2c0-0.1,0-0.3,0-0.4c0-0.5-0.1-1-0.4-1c-0.2,0-0.3,0.2-0.3,0.7c0,0.2-0.1,0.3-0.1,0.4c-0.1,0.1-0.4,0.3-0.5,0.3c-0.1,0-0.1-0.1-0.1-0.3c0-0.3,0.2-0.7,0.3-0.9c0.2-0.3,0.6-0.7,1.1-0.7c0.5,0,0.9,0.5,0.8,1.7L56.2,460.7z M55.5,460.3c0-0.2,0-0.2,0-0.2c-0.3,0.1-0.5,0.3-0.5,0.8c0,0.4,0.1,0.7,0.3,0.7c0.2,0,0.2-0.2,0.2-0.6L55.5,460.3z"/><path d="M59.2,455.6c0-0.5,0-0.6-0.1-0.8l-0.1-0.1c0-0.1,0-0.3,0-0.4c0.3-0.1,0.7-0.4,1-0.7c0,0,0.1,0,0.1,0.1c0,0.5,0,1,0,1.8v3.8c0,0.1,0,0.2,0.1,0.2c0.1,0,0.2-0.1,0.4-0.3l0.3-0.6c0.1-0.3,0.2-0.4,0.2-0.5c0-0.1-0.1-0.1-0.1-0.1l-0.2,0c-0.1-0.1-0.1-0.4,0-0.4h0.2c0.3,0,0.8-0.1,1.2-0.2c0.1,0.1,0.1,0.3,0,0.4l-0.2,0.1c-0.1,0-0.3,0.2-0.4,0.4c-0.2,0.3-0.3,0.5-0.4,0.7c0,0.1,0,0.1,0,0.2c0,0,0,0.1,0,0.2c0.1,0.4,0.7,2,0.9,2.3c0.1,0.2,0.2,0.2,0.4,0.3l0.1,0c0.1,0.1,0,0.4,0,0.4c-0.2,0-0.4,0-0.8,0c-0.4,0-0.6,0-0.8,0c-0.1-0.1-0.1-0.3,0-0.4l0.1,0c0.1,0,0.1,0,0.1-0.1c0,0-0.1-0.2-0.1-0.4l-0.5-1.3c0-0.1-0.1-0.2-0.2-0.2c0,0-0.1,0.1-0.1,0.3v0.7c0,0.8,0,0.9,0.3,1l0.1,0c0.1,0.1,0.1,0.3,0,0.4c-0.2,0-0.5,0-0.8,0s-0.6,0-0.8,0c-0.1-0.1-0.1-0.3,0-0.4l0.1,0c0.2,0,0.3-0.1,0.3-1V455.6z"/><path d="M65.2,459.5c-0.1,0-0.2,0-0.2,0.2c0,0.9,0.3,1.8,0.9,1.8c0.2,0,0.4-0.1,0.6-0.6c0.1,0,0.2,0.1,0.2,0.3c-0.3,1-0.7,1.4-1.1,1.4c-0.9,0-1.4-1.1-1.4-2.4c0-1.5,0.6-2.7,1.4-2.7c0.7,0,1,0.8,1,1.7c0,0.2,0,0.4-0.2,0.4H65.2z M65.7,458.9c0.1,0,0.2,0,0.3-0.1c0,0,0-0.2,0-0.3c0-0.4-0.1-0.7-0.3-0.7c-0.3,0-0.5,0.5-0.5,0.9c0,0.2,0.1,0.2,0.3,0.2H65.7z"/><path d="M74.7,460.7c0,0.8,0.2,1,0.3,1c0.1,0,0.1,0,0.2-0.1c0.1,0,0.1,0.2,0.1,0.3c-0.1,0.2-0.4,0.6-0.8,0.6c-0.2,0-0.4-0.1-0.5-0.4c0-0.1-0.1-0.1-0.1-0.1c0,0-0.1,0-0.1,0.1c-0.1,0.2-0.3,0.4-0.6,0.4c-0.4,0-0.7-0.4-0.7-1.3c0-0.6,0.2-1,0.7-1.2c0.2-0.1,0.4-0.2,0.6-0.3c0.1-0.1,0.1-0.1,0.2-0.2c0-0.1,0-0.3,0-0.4c0-0.5-0.1-1-0.4-1c-0.2,0-0.3,0.2-0.3,0.7c0,0.2-0.1,0.3-0.1,0.4c-0.1,0.1-0.4,0.3-0.5,0.3c-0.1,0-0.1-0.1-0.1-0.3c0-0.3,0.2-0.7,0.3-0.9c0.2-0.3,0.6-0.7,1.1-0.7c0.5,0,0.9,0.5,0.8,1.7L74.7,460.7z M73.9,460.3c0-0.2,0-0.2,0-0.2c-0.3,0.1-0.5,0.3-0.5,0.8c0,0.4,0.1,0.7,0.3,0.7c0.2,0,0.2-0.2,0.2-0.6L73.9,460.3z"/><path d="M77.6,459.1c0-0.5,0-0.6-0.1-0.8l-0.1-0.1c0-0.1,0-0.3,0-0.4c0.3-0.2,0.8-0.5,1-0.7c0.1,0,0.1,0,0.1,0.1c0,0.2,0,0.5,0,0.5c0,0.1,0,0.1,0,0.1s0.1-0.1,0.1-0.1c0.1-0.2,0.4-0.5,0.7-0.5c0.5,0,0.8,0.7,0.8,1.5v2.1c0,0.8,0,0.9,0.3,1l0.1,0c0.1,0.1,0.1,0.3,0,0.4c-0.2,0-0.5,0-0.8,0c-0.3,0-0.5,0-0.7,0c-0.1-0.1-0.1-0.3,0-0.4l0.1,0c0.1,0,0.2-0.1,0.2-0.8v-2c0-0.5-0.1-0.9-0.5-0.9c-0.2,0-0.3,0.2-0.4,0.3c0,0.1-0.1,0.2-0.1,0.4v2.1c0,0.7,0,0.8,0.2,0.8l0.1,0c0.1,0.1,0.1,0.3,0,0.4c-0.2,0-0.4,0-0.7,0c-0.3,0-0.5,0-0.8,0c-0.1-0.1-0.1-0.3,0-0.4l0.1,0c0.2,0,0.3-0.1,0.3-1V459.1z"/><path d="M82.8,460c0-1.7,0.7-2.7,1.5-2.7s1.5,0.9,1.5,2.6c0,1.8-0.7,2.6-1.5,2.6C83.5,462.5,82.8,461.7,82.8,460z M83.8,459.7c0,1.3,0.2,2.2,0.6,2.2c0.4,0,0.5-0.8,0.5-1.9c0-1.2-0.2-2.2-0.6-2.2C84,457.9,83.8,458.4,83.8,459.7z"/><path d="M89.4,458.2c-0.1,0-0.1,0-0.1,0.3v1.8c0,0.7,0,1.4,0.5,1.4c0.1,0,0.2-0.1,0.3-0.2c0.1,0,0.1,0.2,0.1,0.3c-0.2,0.4-0.5,0.7-0.9,0.7c-0.5,0-0.7-0.6-0.7-1.4v-2.7c0-0.3,0-0.3-0.1-0.3h-0.2c-0.1,0-0.1-0.3,0-0.4c0.2-0.1,0.4-0.3,0.5-0.5c0.1-0.2,0.3-0.4,0.5-0.9c0,0,0.2,0,0.2,0.1v0.9c0,0.2,0,0.2,0.1,0.2H90c0,0,0.1,0.1,0.1,0.2c0,0.1,0,0.3-0.1,0.4H89.4z"/><path d="M92.5,455.6c0-0.5,0-0.6-0.1-0.8l-0.1-0.1c0-0.1,0-0.3,0-0.4c0.3-0.1,0.7-0.4,1-0.7c0,0,0.1,0,0.1,0.1c0,0.5,0,1,0,1.8v2.2c0,0.1,0,0.1,0,0.1c0,0,0,0,0.1-0.1c0.1-0.2,0.4-0.5,0.7-0.5c0.5,0,0.8,0.7,0.8,1.5v2.1c0,0.8,0,0.9,0.3,1l0.1,0c0.1,0.1,0.1,0.3,0,0.4c-0.2,0-0.5,0-0.8,0c-0.3,0-0.6,0-0.7,0c-0.1-0.1-0.1-0.3,0-0.4l0.1,0c0.1,0,0.2-0.1,0.2-0.8V459c0-0.4-0.1-0.8-0.5-0.8c-0.2,0-0.3,0.2-0.4,0.3c0,0.1-0.1,0.2-0.1,0.4v2.1c0,0.7,0,0.7,0.2,0.8l0.1,0c0.1,0.1,0.1,0.3,0,0.4c-0.2,0-0.4,0-0.7,0c-0.3,0-0.5,0-0.8,0c-0.1-0.1-0.1-0.3,0-0.4l0.1,0c0.2,0,0.2-0.1,0.2-1V455.6z"/><path d="M98.6,459.5c-0.1,0-0.2,0-0.2,0.2c0,0.9,0.3,1.8,0.9,1.8c0.2,0,0.4-0.1,0.6-0.6c0.1,0,0.2,0.1,0.2,0.3c-0.3,1-0.7,1.4-1.1,1.4c-0.9,0-1.4-1.1-1.4-2.4c0-1.5,0.6-2.7,1.4-2.7c0.7,0,1,0.8,1,1.7c0,0.2,0,0.4-0.2,0.4H98.6z M99.1,458.9c0.1,0,0.2,0,0.3-0.1c0,0,0-0.2,0-0.3c0-0.4-0.1-0.7-0.3-0.7c-0.3,0-0.5,0.5-0.5,0.9c0,0.2,0.1,0.2,0.3,0.2H99.1z"/><path d="M102.7,459.1c0-0.5,0-0.6-0.1-0.8l-0.1-0.1c0-0.1,0-0.3,0-0.4c0.3-0.2,0.7-0.5,0.9-0.7c0.1,0,0.1,0,0.1,0.1c0,0.2,0,0.4,0,0.5c0,0.1,0,0.1,0.1,0.1c0.2-0.2,0.4-0.6,0.6-0.6c0.2,0,0.4,0.2,0.4,0.7c0,0.6-0.2,0.8-0.4,0.8c-0.1,0-0.2-0.1-0.3-0.2c-0.2-0.2-0.2-0.2-0.2-0.2c-0.1,0-0.1,0.3-0.1,0.7v1.8c0,0.8,0,0.9,0.2,1l0.2,0c0.1,0.1,0.1,0.3,0,0.4c-0.3,0-0.6,0-0.9,0c-0.3,0-0.6,0-0.8,0c-0.1-0.1-0.1-0.3,0-0.4l0.1,0c0.2,0,0.2-0.1,0.2-1V459.1z"/></g><g><path d="M38.2,32.3c0.1,0.1,0.1,0.3,0.1,0.6c0,0.4-0.1,0.7-0.2,0.7c0,0-0.1,0-0.1-0.1c-0.2-0.5-0.4-0.9-0.7-0.9c-0.4,0-0.6,0.9-0.6,1.7c0,0.9,0.3,1.9,0.9,1.9c0.2,0,0.4-0.1,0.6-0.6c0.1,0,0.2,0.1,0.2,0.3c-0.1,0.6-0.5,1.3-1.2,1.3c-0.8,0-1.4-1-1.4-2.4c0-1.7,0.7-2.7,1.6-2.7C37.7,32.1,38,32.2,38.2,32.3z"/><path d="M40.9,30.4c0-0.5,0-0.6-0.1-0.8l-0.1-0.1c0-0.1,0-0.3,0-0.4c0.3-0.1,0.7-0.4,1-0.7c0,0,0.1,0,0.1,0.1c0,0.5,0,1,0,1.8v2.2c0,0.1,0,0.1,0,0.1c0,0,0,0,0.1-0.1c0.1-0.2,0.4-0.5,0.7-0.5c0.5,0,0.8,0.7,0.8,1.5v2.1c0,0.8,0,0.9,0.3,1l0.1,0c0.1,0.1,0.1,0.3,0,0.4c-0.2,0-0.5,0-0.8,0c-0.3,0-0.6,0-0.7,0c-0.1-0.1-0.1-0.3,0-0.4l0.1,0c0.2,0,0.2-0.1,0.2-0.8v-2.1c0-0.4-0.1-0.8-0.5-0.8c-0.2,0-0.3,0.2-0.4,0.3c0,0.1-0.1,0.2-0.1,0.4v2.1c0,0.7,0,0.7,0.2,0.8l0.1,0c0.1,0.1,0.1,0.3,0,0.4c-0.2,0-0.4,0-0.7,0c-0.3,0-0.5,0-0.8,0c-0.1-0.1-0.1-0.3,0-0.4l0.1,0c0.2,0,0.2-0.1,0.2-1V30.4z"/><path d="M48.3,35.4c0,0.8,0.2,1,0.3,1c0.1,0,0.1,0,0.2-0.1c0.1,0,0.1,0.2,0.1,0.3c-0.1,0.2-0.4,0.6-0.8,0.6c-0.2,0-0.4-0.1-0.5-0.4c0-0.1-0.1-0.1-0.1-0.1c0,0-0.1,0-0.1,0.1c-0.1,0.2-0.3,0.4-0.6,0.4c-0.4,0-0.7-0.4-0.7-1.3c0-0.6,0.2-1,0.7-1.2c0.2-0.1,0.4-0.2,0.6-0.3c0.1-0.1,0.1-0.1,0.2-0.2c0-0.1,0-0.3,0-0.4c0-0.5-0.1-1-0.4-1c-0.2,0-0.3,0.2-0.3,0.7c0,0.2-0.1,0.3-0.1,0.4c-0.1,0.1-0.4,0.3-0.5,0.3c-0.1,0-0.2-0.1-0.2-0.3c0-0.3,0.2-0.7,0.3-0.9c0.2-0.3,0.6-0.7,1.1-0.7c0.5,0,0.9,0.5,0.8,1.7L48.3,35.4z M47.5,35.1c0-0.2,0-0.2,0-0.2c-0.3,0.1-0.5,0.3-0.5,0.8c0,0.4,0.1,0.7,0.3,0.7c0.2,0,0.2-0.2,0.2-0.6L47.5,35.1z"/><path d="M51.2,33.9c0-0.5,0-0.6-0.1-0.8L51,33c0-0.1,0-0.3,0-0.4c0.3-0.2,0.7-0.5,0.9-0.7c0.1,0,0.1,0,0.1,0.1c0,0.2,0,0.4,0,0.5c0,0.1,0,0.1,0.1,0.1c0.2-0.2,0.4-0.6,0.6-0.6c0.2,0,0.4,0.3,0.4,0.7c0,0.6-0.2,0.8-0.4,0.8c-0.1,0-0.2-0.1-0.3-0.2c-0.2-0.2-0.2-0.2-0.2-0.2c-0.1,0-0.1,0.3-0.1,0.7v1.8c0,0.8,0,0.9,0.2,1l0.2,0c0.1,0.1,0.1,0.3,0,0.4c-0.3,0-0.6,0-0.9,0c-0.3,0-0.6,0-0.8,0c-0.1-0.1-0.1-0.3,0-0.4l0.1,0c0.2,0,0.2-0.1,0.2-1V33.9z"/><path d="M57.5,35.4c0,0.8,0.2,1,0.3,1c0.1,0,0.1,0,0.2-0.1c0.1,0,0.1,0.2,0.1,0.3c-0.1,0.2-0.4,0.6-0.8,0.6c-0.2,0-0.4-0.1-0.5-0.4c0-0.1-0.1-0.1-0.1-0.1s-0.1,0-0.1,0.1c-0.1,0.2-0.3,0.4-0.6,0.4c-0.4,0-0.7-0.4-0.7-1.3c0-0.6,0.2-1,0.7-1.2c0.2-0.1,0.4-0.2,0.6-0.3c0.1-0.1,0.1-0.1,0.2-0.2c0-0.1,0-0.3,0-0.4c0-0.5-0.1-1-0.4-1c-0.2,0-0.3,0.2-0.3,0.7c0,0.2-0.1,0.3-0.1,0.4c-0.1,0.1-0.4,0.3-0.5,0.3c-0.1,0-0.1-0.1-0.1-0.3c0-0.3,0.2-0.7,0.3-0.9c0.2-0.3,0.6-0.7,1.1-0.7c0.5,0,0.9,0.5,0.8,1.7L57.5,35.4z M56.7,35.1c0-0.2,0-0.2,0-0.2c-0.3,0.1-0.5,0.3-0.5,0.8c0,0.4,0.1,0.7,0.3,0.7c0.2,0,0.2-0.2,0.2-0.6L56.7,35.1z"/><path d="M62.4,32.3c0.1,0.1,0.1,0.3,0.1,0.6c0,0.4-0.1,0.7-0.2,0.7c0,0-0.1,0-0.1-0.1c-0.2-0.5-0.4-0.9-0.7-0.9c-0.4,0-0.6,0.9-0.6,1.7c0,0.9,0.3,1.9,0.9,1.9c0.2,0,0.4-0.1,0.6-0.6c0.1,0,0.2,0.1,0.2,0.3c-0.1,0.6-0.5,1.3-1.2,1.3c-0.8,0-1.4-1-1.4-2.4c0-1.7,0.7-2.7,1.6-2.7C61.9,32.1,62.2,32.2,62.4,32.3z"/><path d="M66,32.9c-0.1,0-0.1,0-0.1,0.3V35c0,0.7,0,1.4,0.5,1.4c0.1,0,0.2-0.1,0.3-0.2c0.1,0,0.1,0.2,0.1,0.3c-0.2,0.4-0.5,0.7-0.9,0.7c-0.5,0-0.7-0.6-0.7-1.4v-2.7c0-0.3,0-0.3-0.1-0.3h-0.2c-0.1,0-0.1-0.3,0-0.4c0.2-0.1,0.4-0.3,0.5-0.5c0.1-0.2,0.3-0.4,0.5-0.9c0,0,0.2,0,0.2,0.1V32c0,0.2,0,0.2,0.1,0.2h0.6c0,0,0.1,0.1,0.1,0.2c0,0.1,0,0.3-0.1,0.4H66z"/><path d="M69.7,34.2c-0.1,0-0.2,0-0.2,0.2c0,0.9,0.3,1.8,0.9,1.8c0.2,0,0.4-0.1,0.6-0.6c0.1,0,0.2,0.1,0.2,0.3c-0.3,1-0.7,1.4-1.1,1.4c-0.9,0-1.4-1.1-1.4-2.4c0-1.5,0.6-2.7,1.4-2.7c0.7,0,1,0.8,1,1.7c0,0.2,0,0.4-0.2,0.4H69.7z M70.2,33.7c0.1,0,0.2,0,0.3-0.1c0,0,0-0.2,0-0.3c0-0.4-0.1-0.7-0.3-0.7c-0.3,0-0.5,0.5-0.5,0.9c0,0.2,0.1,0.2,0.3,0.2H70.2z"/><path d="M73.8,33.9c0-0.5,0-0.6-0.1-0.8L73.6,33c0-0.1,0-0.3,0-0.4c0.3-0.2,0.7-0.5,0.9-0.7c0.1,0,0.1,0,0.1,0.1c0,0.2,0,0.4,0,0.5c0,0.1,0,0.1,0.1,0.1c0.2-0.2,0.4-0.6,0.6-0.6c0.2,0,0.4,0.3,0.4,0.7c0,0.6-0.2,0.8-0.4,0.8c-0.1,0-0.2-0.1-0.3-0.2c-0.1-0.2-0.2-0.2-0.2-0.2c-0.1,0-0.1,0.3-0.1,0.7v1.8c0,0.8,0,0.9,0.2,1l0.2,0c0.1,0.1,0.1,0.3,0,0.4c-0.3,0-0.6,0-0.9,0c-0.3,0-0.6,0-0.8,0c-0.1-0.1-0.1-0.3,0-0.4l0.1,0c0.2,0,0.2-0.1,0.2-1V33.9z"/><path d="M81.1,32.7c-0.1-0.1-0.1-0.4,0-0.4c0.2,0,0.5,0,0.8,0c0.2,0,0.5,0,0.7,0c0.1,0.1,0.1,0.4,0,0.4l-0.1,0c-0.1,0-0.1,0-0.1,0.1c0,0.1,0,0.2,0.1,0.4c0.1,0.7,0.3,1.3,0.4,1.9c0.1-0.6,0.3-1.2,0.4-2c0-0.1,0-0.2,0-0.3c0-0.1,0-0.1-0.2-0.1l-0.1,0c-0.1-0.1-0.1-0.4,0-0.4c0.2,0,0.3,0,0.5,0c0.2,0,0.4,0,0.5,0c0.1,0.1,0.1,0.3,0,0.4l-0.1,0c-0.2,0.1-0.2,0.2-0.4,0.7c-0.3,1.2-0.6,2.5-0.9,3.8c0,0-0.1,0.1-0.2,0.1c-0.1,0-0.1,0-0.2-0.1c-0.3-1.5-0.5-2.1-0.9-3.7c-0.2-0.6-0.2-0.7-0.4-0.8L81.1,32.7z"/><path d="M86.3,34.8c0-1.7,0.7-2.7,1.5-2.7s1.5,0.9,1.5,2.6c0,1.8-0.7,2.6-1.5,2.6C86.9,37.2,86.3,36.4,86.3,34.8z M87.2,34.5c0,1.3,0.2,2.2,0.6,2.2c0.4,0,0.5-0.8,0.5-1.9c0-1.2-0.2-2.2-0.6-2.2C87.4,32.7,87.2,33.2,87.2,34.5z"/><path d="M92.7,35.7c0,0.8,0,0.9,0.2,1l0.1,0c0.1,0.1,0.1,0.3,0,0.4c-0.2,0-0.5,0-0.8,0c-0.3,0-0.6,0-0.8,0c-0.1-0.1-0.1-0.3,0-0.4l0.1,0c0.2,0,0.2-0.1,0.2-1v-1.8c0-0.5,0-0.6-0.1-0.8L91.7,33c0-0.1,0-0.3,0-0.4c0.3-0.2,0.8-0.5,1-0.7c0.1,0,0.1,0,0.1,0.1c0,0.4,0,0.9,0,1.4V35.7z M92.8,30.3c0,0.6-0.2,0.9-0.5,0.9c-0.3,0-0.5-0.4-0.5-0.9c0-0.5,0.2-0.9,0.5-0.9C92.6,29.4,92.8,29.8,92.8,30.3z"/><path d="M97.7,32.3c0.1,0.1,0.1,0.3,0.1,0.6c0,0.4-0.1,0.7-0.2,0.7c0,0-0.1,0-0.1-0.1c-0.2-0.5-0.4-0.9-0.7-0.9c-0.4,0-0.6,0.9-0.6,1.7c0,0.9,0.3,1.9,0.9,1.9c0.2,0,0.4-0.1,0.6-0.6c0.1,0,0.2,0.1,0.2,0.3c-0.1,0.6-0.5,1.3-1.2,1.3c-0.8,0-1.4-1-1.4-2.4c0-1.7,0.7-2.7,1.6-2.7C97.2,32.1,97.5,32.2,97.7,32.3z"/><path d="M101,34.2c-0.1,0-0.2,0-0.2,0.2c0,0.9,0.3,1.8,0.9,1.8c0.2,0,0.4-0.1,0.6-0.6c0.1,0,0.2,0.1,0.2,0.3c-0.3,1-0.7,1.4-1.1,1.4c-0.9,0-1.4-1.1-1.4-2.4c0-1.5,0.6-2.7,1.4-2.7c0.7,0,1,0.8,1,1.7c0,0.2,0,0.4-0.2,0.4H101z M101.4,33.7c0.1,0,0.2,0,0.3-0.1c0,0,0-0.2,0-0.3c0-0.4-0.1-0.7-0.3-0.7c-0.3,0-0.5,0.5-0.5,0.9c0,0.2,0.1,0.2,0.3,0.2H101.4z"/></g><rect x="35" y="440" width="17.8" height="3.9"/><rect x="34.8" y="94.6" width="93.6" height="11.9"/><g><path class="st5" d="M42.7,103.8c0,2,0.1,2.3,0.6,2.3l0.4,0.1c0.1,0.1,0,0.4,0,0.5c-0.6,0-1-0.1-1.4-0.1c-0.4,0-0.8,0-1.3,0.1c-0.1-0.1-0.1-0.3,0-0.5l0.3-0.1c0.6-0.1,0.6-0.4,0.6-2.3v-0.9c0-1,0-1.2-0.3-2.3l-1.2-4.2c-0.3-1.2-0.5-1.3-0.8-1.4l-0.3-0.1c-0.1-0.1,0-0.4,0-0.5c0.3,0,0.7,0.1,1.2,0.1c0.5,0,0.8,0,1.1-0.1c0.1,0.1,0.1,0.3,0,0.5l-0.1,0c-0.3,0.1-0.4,0.2-0.4,0.3c0,0.2,0.3,1.2,0.3,1.4c0.4,1.4,0.7,2.8,1.1,4.1c0.3-1,0.6-2,0.9-3.1c0.3-1,0.6-2.2,0.6-2.4c0-0.1-0.2-0.2-0.4-0.3l-0.2,0c-0.1-0.1-0.1-0.4,0-0.5c0.4,0,0.6,0.1,1,0.1c0.3,0,0.6,0,0.9-0.1c0.1,0.1,0.1,0.3,0,0.5L45.1,95c-0.5,0.2-0.8,1.3-1.3,2.9l-0.6,2c-0.4,1.4-0.5,1.6-0.5,3V103.8z"/><path class="st5" d="M48.5,100.6c0-3.7,1.5-6.5,3.5-6.5c2.3,0,3.5,3.1,3.5,6.3c0,3.7-1.5,6.4-3.5,6.4C49.9,106.9,48.5,103.9,48.5,100.6z M54.5,101c0-3-0.7-6.3-2.6-6.3c-1,0-2.4,1.3-2.4,5.3c0,2.7,0.7,6.2,2.7,6.2C53.4,106.3,54.5,104.6,54.5,101z"/><path class="st5" d="M65,99.1c0-1.1,0-3.2-0.2-3.8c-0.1-0.2-0.2-0.3-0.5-0.4l-0.2,0c-0.1-0.1,0-0.4,0-0.4c0.4,0,0.7,0.1,1.1,0.1c0.4,0,0.7,0,1-0.1c0.1,0.1,0.1,0.3,0,0.4l-0.2,0c-0.2,0-0.4,0.2-0.5,0.4c-0.1,0.6-0.1,2.7-0.1,3.7v2.1c0,1.6-0.1,3.3-0.7,4.4c-0.4,0.9-1.2,1.3-1.9,1.3c-0.7,0-1.4-0.2-1.9-1c-0.5-0.8-0.8-2.1-0.8-4.3v-4.3c0-1.9,0-2.2-0.6-2.3l-0.2,0c-0.1-0.1,0-0.4,0-0.4c0.5,0,0.8,0.1,1.2,0.1c0.4,0,0.7,0,1.2-0.1c0.1,0.1,0.1,0.4,0,0.4l-0.2,0C61,95,61,95.3,61,97.2v4c0,3,0.5,4.9,2,4.9c1.4,0,2-2.1,2-4.9V99.1z"/><path class="st5" d="M70.8,97.2c0-2-0.1-2.3-0.7-2.3l-0.2,0c-0.1-0.1,0-0.4,0-0.5c0.6,0,0.9,0.1,1.3,0.1c0.4,0,0.7,0,1.1-0.1c0.1,0.1,0.1,0.4,0,0.5l-0.1,0c-0.6,0.1-0.6,0.4-0.6,2.3v6.8c0,1.5,0,2.7-0.2,3.6c-0.3,1.5-1,2.6-2,2.6c-0.1,0-0.4,0-0.4-0.4c0-0.3,0.1-0.8,0.4-0.8c0.1,0,0.2,0,0.4,0.1c0.1,0.1,0.3,0.1,0.4,0.1c0.2,0,0.3-0.2,0.4-0.5c0.2-0.9,0.3-3.6,0.3-4.6V97.2z"/><path class="st5" d="M77,97.2c0-1.9,0-2.3-0.6-2.3l-0.2,0c-0.1-0.1,0-0.4,0-0.5c0.5,0,0.8,0.1,1.3,0.1c0.4,0,0.7,0,1.2-0.1c0.1,0.1,0.1,0.4,0,0.5l-0.2,0c-0.6,0.1-0.6,0.4-0.6,2.3v6.5c0,1.9,0,2.2,0.6,2.3l0.2,0.1c0.1,0.1,0,0.4,0,0.5c-0.5,0-0.8-0.1-1.2-0.1c-0.4,0-0.8,0-1.3,0.1c-0.1-0.1-0.1-0.3,0-0.5l0.2-0.1c0.6-0.1,0.6-0.4,0.6-2.3V97.2z"/><path class="st5" d="M93.6,99.1c0-1.1,0-3.2-0.2-3.8c-0.1-0.2-0.2-0.3-0.5-0.4l-0.2,0c-0.1-0.1,0-0.4,0-0.4c0.4,0,0.7,0.1,1.1,0.1c0.4,0,0.7,0,1-0.1c0.1,0.1,0.1,0.3,0,0.4l-0.2,0c-0.2,0-0.4,0.2-0.5,0.4C94,95.9,94,98,94,99.1v2.1c0,1.6-0.1,3.3-0.7,4.4c-0.4,0.9-1.2,1.3-1.9,1.3c-0.7,0-1.4-0.2-1.9-1c-0.5-0.8-0.8-2.1-0.8-4.3v-4.3c0-1.9,0-2.2-0.6-2.3l-0.2,0c-0.1-0.1,0-0.4,0-0.4c0.5,0,0.8,0.1,1.2,0.1c0.4,0,0.7,0,1.2-0.1c0.1,0.1,0.1,0.4,0,0.4l-0.2,0c-0.6,0.1-0.6,0.4-0.6,2.3v4c0,3,0.5,4.9,2,4.9c1.4,0,2-2.1,2-4.9V99.1z"/><path class="st5" d="M99.3,97.2c0-1.9,0-2.2-0.6-2.3l-0.2,0c-0.1-0.1,0-0.4,0-0.5c0.4,0,0.8,0.1,1.2,0.1h1.9c0.6,0,1.2,0,1.3-0.1c0.1,0.3,0.1,1.6,0.2,2.4c0,0.1-0.2,0.1-0.2,0c-0.2-0.9-0.2-1.5-0.8-1.7c-0.2-0.1-0.5-0.1-1-0.1h-0.7c-0.3,0-0.3,0-0.3,0.7v3.7c0,0.5,0,0.5,0.3,0.5h0.6c0.4,0,0.7,0,0.8-0.1c0.1-0.1,0.2-0.2,0.2-0.6l0.1-0.8c0-0.1,0.2-0.1,0.3,0c0,0.4,0,1.2,0,1.9c0,0.7,0,1.4,0,1.8c0,0.1-0.2,0.1-0.3,0l-0.1-0.7c0-0.3-0.1-0.6-0.3-0.7c-0.1-0.1-0.4-0.1-0.8-0.1h-0.6c-0.3,0-0.3,0-0.3,0.5v2.6c0,1,0,1.6,0.2,1.9c0.1,0.2,0.3,0.4,1.2,0.4c0.8,0,1.1-0.1,1.3-0.3c0.2-0.2,0.4-0.8,0.7-1.8c0.1-0.1,0.2,0,0.2,0.1c-0.1,0.6-0.3,2.1-0.4,2.6c-0.9,0-1.8-0.1-2.7-0.1h-0.9c-0.4,0-0.8,0-1.4,0.1c-0.1-0.1-0.1-0.3,0-0.5l0.3-0.1c0.6-0.1,0.6-0.4,0.6-2.3V97.2z"/><path class="st5" d="M108.1,96.8c0-1.3,0-1.7-0.5-1.8l-0.2-0.1c-0.1-0.1-0.1-0.4,0-0.5c0.8-0.1,1.7-0.1,2.5-0.1c0.8,0,1.5,0.1,2.2,0.6c1.3,0.9,2,3,2,5.4c0,2.3-0.6,4.3-1.7,5.5c-0.6,0.6-1.5,0.9-2.2,0.9c-0.6,0-1.3-0.1-1.6-0.1c-0.4,0-0.8,0-1.2,0.1c-0.1-0.1-0.1-0.3,0-0.5l0.2-0.1c0.6-0.1,0.6-0.4,0.6-2.3V96.8z M108.9,103.4c0,1,0,1.6,0.2,2c0.2,0.6,0.6,0.8,1.2,0.8c1.9,0,2.8-2.3,2.8-5.7c0-2-0.5-5.4-3.1-5.4c-0.6,0-0.9,0.1-1,0.3c-0.1,0.1-0.1,0.6-0.1,1.4V103.4z"/><path class="st5" d="M121,102.3c-0.1-0.4-0.1-0.5-0.4-0.5h-1.5c-0.2,0-0.3,0.1-0.4,0.4l-0.3,1.9c-0.1,0.8-0.2,1.3-0.2,1.5c0,0.2,0,0.3,0.3,0.4l0.3,0.1c0.1,0.1,0.1,0.4,0,0.5c-0.3,0-0.6,0-1-0.1c-0.3,0-0.7,0-1,0.1c-0.1-0.1-0.1-0.4,0-0.5l0.3-0.1c0.2,0,0.5-0.2,0.6-0.9c0.2-0.8,0.5-2,0.9-4.1l1-5c0.1-0.7,0.2-1,0.2-1.3c0.2-0.1,0.4-0.5,0.5-0.7c0.1,0,0.1,0,0.1,0.2c0.1,0.8,0.3,1.7,0.4,2.5l1.4,7.4c0.3,1.6,0.4,1.9,0.8,1.9l0.3,0.1c0.1,0.1,0,0.4,0,0.5c-0.4,0-0.8-0.1-1.2-0.1c-0.5,0-0.9,0-1.1,0.1c-0.1-0.1-0.1-0.4,0-0.5l0.3-0.1c0.2,0,0.3-0.1,0.3-0.3c0-0.2,0-0.5-0.1-1L121,102.3z M119,100.7c-0.1,0.4-0.1,0.4,0.2,0.4h1.2c0.3,0,0.3-0.1,0.2-0.6l-0.5-3c-0.1-0.4-0.2-0.9-0.2-1.2h0c0,0.1-0.1,0.5-0.2,1.1L119,100.7z"/></g><rect x="35.4" y="277.7" width="136.1" height="12.4"/><g><path class="st5" d="M43.1,285.4c-0.1-0.4-0.1-0.5-0.4-0.5h-1.5c-0.2,0-0.3,0.1-0.4,0.4l-0.3,1.9c-0.1,0.8-0.2,1.3-0.2,1.5c0,0.2,0,0.3,0.3,0.4l0.3,0.1c0.1,0.1,0.1,0.4,0,0.5c-0.3,0-0.6,0-1-0.1c-0.3,0-0.7,0-1,0.1c-0.1-0.1-0.1-0.4,0-0.5l0.3-0.1c0.2,0,0.5-0.2,0.6-0.9c0.2-0.8,0.5-2,0.9-4.1l1-5c0.1-0.7,0.2-1,0.2-1.3c0.2-0.1,0.4-0.5,0.5-0.7c0.1,0,0.1,0,0.1,0.2c0.1,0.8,0.3,1.7,0.4,2.5l1.4,7.4c0.3,1.6,0.4,1.9,0.8,1.9l0.3,0.1c0.1,0.1,0,0.4,0,0.5c-0.4,0-0.8-0.1-1.2-0.1c-0.5,0-0.9,0-1.1,0.1c-0.1-0.1-0.1-0.4,0-0.5l0.3-0.1c0.2,0,0.3-0.1,0.3-0.3c0-0.2-0.1-0.5-0.1-1L43.1,285.4z M41.2,283.8c-0.1,0.4-0.1,0.4,0.2,0.4h1.2c0.3,0,0.3-0.1,0.2-0.6l-0.5-3c-0.1-0.4-0.2-0.9-0.2-1.2h0c0,0.1-0.1,0.5-0.2,1.1L41.2,283.8z"/><path class="st5" d="M49.6,280.3c0-1.9,0-2.2-0.6-2.3l-0.2,0c-0.1-0.1,0-0.4,0-0.5c0.6,0,0.9,0.1,1.3,0.1c0.4,0,0.7,0,1.2-0.1c0.1,0.1,0.1,0.4,0,0.5l-0.2,0c-0.6,0.1-0.6,0.4-0.6,2.3v6.4c0,1.2,0,1.6,0.2,2c0.1,0.2,0.3,0.4,1.1,0.4c0.8,0,1.1-0.1,1.2-0.2c0.2-0.2,0.5-0.9,0.7-1.8c0.1-0.1,0.2,0,0.2,0.1c0,0.2-0.3,2.1-0.4,2.6c-0.5,0-1.5-0.1-2.5-0.1H50c-0.4,0-0.7,0-1.3,0.1c-0.1-0.1-0.1-0.3,0-0.5l0.3-0.1c0.6-0.1,0.6-0.4,0.6-2.3V280.3z"/><path class="st5" d="M58,280.3c0-1.9,0-2.2-0.6-2.3l-0.2,0c-0.1-0.1,0-0.4,0-0.5c0.4,0,0.8,0.1,1.2,0.1h1.9c0.6,0,1.2,0,1.3-0.1c0.1,0.3,0.1,1.6,0.2,2.4c0,0.1-0.2,0.1-0.2,0c-0.1-0.9-0.2-1.5-0.8-1.7c-0.2-0.1-0.5-0.1-1-0.1h-0.7c-0.3,0-0.3,0-0.3,0.7v3.7c0,0.5,0,0.5,0.3,0.5h0.6c0.4,0,0.7,0,0.8-0.1c0.1-0.1,0.2-0.2,0.2-0.6l0.1-0.8c0.1-0.1,0.2-0.1,0.3,0c0,0.4,0,1.2,0,1.9c0,0.7,0,1.4,0,1.8c0,0.1-0.2,0.1-0.3,0l-0.1-0.7c0-0.3-0.1-0.6-0.3-0.7c-0.1-0.1-0.4-0.1-0.8-0.1h-0.6c-0.3,0-0.3,0-0.3,0.5v2.6c0,1,0,1.6,0.2,1.9c0.1,0.2,0.3,0.4,1.2,0.4c0.8,0,1.1-0.1,1.3-0.3c0.2-0.2,0.4-0.8,0.7-1.8c0.1-0.1,0.2,0,0.2,0.1c-0.1,0.6-0.3,2.1-0.4,2.6c-0.9,0-1.8-0.1-2.7-0.1h-0.9c-0.4,0-0.8,0-1.4,0.1c-0.1-0.1-0.1-0.3,0-0.5l0.3-0.1c0.6-0.1,0.6-0.4,0.6-2.3V280.3z"/><path class="st5" d="M72.2,289.3c0.1,0.1,0.1,0.4,0,0.5c-0.5,0-0.8-0.1-1.3-0.1c-0.4,0-0.9,0-1.3,0.1c-0.1-0.1-0.1-0.3,0-0.5l0.3-0.1c0.2,0,0.3-0.1,0.3-0.2c0-0.1,0-0.3-0.2-0.8c-0.4-1.1-1-2.6-1.4-3.7c-0.3,0.6-1,2.6-1.4,3.9c-0.1,0.3-0.1,0.5-0.1,0.6c0,0.1,0.1,0.2,0.3,0.2l0.3,0.1c0.1,0.1,0,0.4,0,0.5c-0.4,0-0.7-0.1-1.1-0.1c-0.3,0-0.7,0-1,0.1c-0.1-0.1-0.1-0.3,0-0.5l0.2-0.1c0.5-0.1,0.9-0.9,1.2-1.6c0.1-0.3,0.8-1.9,1.4-3.4c0.1-0.2,0.1-0.3,0.1-0.4s0-0.2-0.1-0.4l-1.5-3.9c-0.3-0.9-0.5-1.2-0.9-1.4l-0.3-0.1c0-0.1,0-0.4,0-0.5c0.5,0,0.8,0.1,1.2,0.1c0.4,0,0.8,0,1.1-0.1c0.1,0.1,0.1,0.3,0,0.5l-0.3,0c-0.2,0-0.3,0.1-0.3,0.2c0,0.2,0.1,0.5,0.3,1c0.3,0.9,0.9,2.5,1.3,3.4c0.3-0.6,1.2-3.2,1.3-3.7c0.1-0.2,0.1-0.5,0.1-0.6c0-0.1-0.1-0.2-0.3-0.2l-0.3-0.1c-0.1-0.1-0.1-0.4,0-0.5c0.3,0,0.7,0.1,1.1,0.1c0.4,0,0.6,0,1-0.1c0.1,0.1,0.1,0.3,0,0.5l-0.2,0c-0.3,0.1-0.7,0.6-1.1,1.6c-0.4,0.9-0.8,2-1.3,3.2c-0.1,0.2-0.1,0.3-0.1,0.3c0,0.1,0,0.2,0.1,0.5l1.7,4.4c0.3,0.9,0.6,1.2,0.9,1.2L72.2,289.3z"/><path class="st5" d="M76.2,280.4c0-1.9,0-2.3-0.6-2.3l-0.2,0c-0.1-0.1,0-0.4,0-0.5c0.5,0,0.8,0.1,1.3,0.1c0.4,0,0.7,0,1.2-0.1c0.1,0.1,0.1,0.4,0,0.5l-0.2,0c-0.6,0.1-0.6,0.4-0.6,2.3v6.5c0,1.9,0,2.2,0.6,2.3l0.2,0.1c0.1,0.1,0,0.4,0,0.5c-0.5,0-0.8-0.1-1.2-0.1c-0.4,0-0.8,0-1.3,0.1c-0.1-0.1-0.1-0.3,0-0.5l0.2-0.1c0.6-0.1,0.6-0.4,0.6-2.3V280.4z"/><path class="st5" d="M83.5,290c-0.8,0-1.4-0.5-1.6-0.7c-0.1-0.4-0.2-1.7-0.3-2.6c0-0.1,0.2-0.2,0.2-0.1c0.2,0.9,0.6,2.7,1.7,2.7c0.8,0,1.2-1,1.2-2.1c0-0.8-0.1-1.7-0.8-2.6l-0.9-1.1c-0.5-0.6-1.1-1.7-1.1-3.2c0-1.7,0.7-3.2,2-3.2c0.3,0,0.7,0.1,0.9,0.2c0.1,0.1,0.3,0.1,0.3,0.1c0.1,0.4,0.2,1.5,0.2,2.2c0,0.1-0.2,0.2-0.2,0.1c-0.1-0.9-0.4-2.1-1.4-2.1c-1,0-1.2,1.2-1.2,2c0,1.1,0.5,1.8,0.8,2.3l0.8,0.9c0.6,0.7,1.2,1.8,1.2,3.5C85.6,288.6,84.8,290,83.5,290z"/><path class="st5" d="M95.9,280.3c0-1.9,0-2.2-0.6-2.3l-0.2,0c-0.1-0.1,0-0.4,0-0.5c0.6,0,0.9,0.1,1.3,0.1c0.4,0,0.7,0,1.2-0.1c0.1,0.1,0.1,0.4,0,0.5l-0.2,0c-0.6,0.1-0.6,0.4-0.6,2.3v6.4c0,1.2,0,1.6,0.2,2c0.1,0.2,0.3,0.4,1.1,0.4c0.8,0,1.1-0.1,1.2-0.2c0.2-0.2,0.5-0.9,0.7-1.8c0.1-0.1,0.2,0,0.2,0.1c0,0.2-0.3,2.1-0.4,2.6c-0.5,0-1.5-0.1-2.5-0.1h-0.9c-0.4,0-0.7,0-1.3,0.1c-0.1-0.1-0.1-0.3,0-0.5l0.3-0.1c0.6-0.1,0.6-0.4,0.6-2.3V280.3z"/><path class="st5" d="M104.3,280.3c0-1.9,0-2.2-0.6-2.3l-0.2,0c-0.1-0.1,0-0.4,0-0.5c0.4,0,0.8,0.1,1.2,0.1h1.9c0.6,0,1.2,0,1.3-0.1c0.1,0.3,0.1,1.6,0.2,2.4c0,0.1-0.2,0.1-0.2,0c-0.2-0.9-0.2-1.5-0.8-1.7c-0.2-0.1-0.5-0.1-1-0.1h-0.7c-0.3,0-0.3,0-0.3,0.7v3.7c0,0.5,0,0.5,0.3,0.5h0.6c0.4,0,0.7,0,0.8-0.1c0.1-0.1,0.2-0.2,0.2-0.6l0.1-0.8c0-0.1,0.2-0.1,0.3,0c0,0.4,0,1.2,0,1.9c0,0.7,0,1.4,0,1.8c0,0.1-0.2,0.1-0.3,0l-0.1-0.7c0-0.3-0.1-0.6-0.3-0.7c-0.1-0.1-0.4-0.1-0.8-0.1h-0.6c-0.3,0-0.3,0-0.3,0.5v2.6c0,1,0,1.6,0.2,1.9c0.1,0.2,0.3,0.4,1.2,0.4c0.8,0,1.1-0.1,1.3-0.3c0.2-0.2,0.4-0.8,0.7-1.8c0.1-0.1,0.2,0,0.2,0.1c-0.1,0.6-0.3,2.1-0.4,2.6c-0.9,0-1.8-0.1-2.7-0.1h-0.9c-0.4,0-0.8,0-1.4,0.1c-0.1-0.1-0.1-0.3,0-0.5l0.3-0.1c0.6-0.1,0.6-0.4,0.6-2.3V280.3z"/><path class="st5" d="M114.1,290c-0.8,0-1.4-0.5-1.6-0.7c-0.1-0.4-0.2-1.7-0.3-2.6c0-0.1,0.2-0.2,0.2-0.1c0.2,0.9,0.6,2.7,1.7,2.7c0.8,0,1.2-1,1.2-2.1c0-0.8-0.1-1.7-0.8-2.6l-0.9-1.1c-0.5-0.6-1.1-1.7-1.1-3.2c0-1.7,0.7-3.2,2-3.2c0.3,0,0.7,0.1,0.9,0.2c0.1,0.1,0.3,0.1,0.3,0.1c0.1,0.4,0.2,1.5,0.2,2.2c0,0.1-0.2,0.2-0.2,0.1c-0.1-0.9-0.4-2.1-1.4-2.1c-1,0-1.2,1.2-1.2,2c0,1.1,0.5,1.8,0.8,2.3l0.8,0.9c0.6,0.7,1.2,1.8,1.2,3.5C116.2,288.6,115.4,290,114.1,290z"/><path class="st5" d="M121,280.3c0-1.9,0-2.2-0.6-2.3l-0.2,0c-0.1-0.1,0-0.4,0-0.5c0.5,0,0.8,0.1,1.3,0.1c0.4,0,0.7,0,1.2-0.1c0.1,0.1,0.1,0.4,0,0.5l-0.2,0c-0.6,0.1-0.6,0.4-0.6,2.3v2.1c0,0.3,0,0.7,0.1,0.7c0.1,0,0.2-0.1,0.3-0.2c0.1-0.2,0.4-0.7,0.5-0.9l1.1-2c0.2-0.3,0.7-1.3,0.8-1.5c0.1-0.1,0.1-0.2,0.1-0.3s0-0.1-0.2-0.2l-0.3-0.1c-0.1-0.1-0.1-0.4,0-0.5c0.3,0,0.7,0.1,1.1,0.1c0.3,0,0.7,0,1-0.1c0.1,0.1,0.1,0.3,0,0.5c-0.3,0-0.6,0.2-0.9,0.5c-0.3,0.3-0.8,1.2-1.4,2.1l-0.9,1.6c-0.1,0.3-0.2,0.4-0.2,0.6c0,0.1,0.1,0.3,0.2,0.6c0.9,2,1.7,3.7,2.5,5.2c0.2,0.4,0.5,0.7,0.8,0.8l0.3,0.1c0.1,0.1,0,0.4,0,0.5c-0.3,0-0.6-0.1-1.1-0.1c-0.4,0-0.8,0-1.2,0.1c-0.1,0-0.1-0.3,0-0.5l0.2-0.1c0.1,0,0.2-0.1,0.2-0.2c0-0.1-0.1-0.3-0.1-0.4c-0.2-0.4-0.4-0.9-0.8-1.7l-0.8-1.7c-0.6-1.2-0.7-1.5-1-1.5c-0.2,0-0.2,0.2-0.2,0.9v2.4c0,1.9,0,2.2,0.6,2.3l0.3,0.1c0.1,0.1,0,0.4,0,0.5c-0.5,0-0.8-0.1-1.2-0.1c-0.4,0-0.7,0-1.2,0.1c-0.1-0.1-0.1-0.3,0-0.5l0.2-0.1c0.5-0.1,0.5-0.4,0.5-2.3V280.3z"/><path class="st5" d="M130.7,280.4c0-1.9,0-2.3-0.6-2.3l-0.2,0c-0.1-0.1,0-0.4,0-0.5c0.5,0,0.8,0.1,1.3,0.1c0.4,0,0.7,0,1.2-0.1c0.1,0.1,0.1,0.4,0,0.5l-0.2,0c-0.6,0.1-0.6,0.4-0.6,2.3v6.5c0,1.9,0,2.2,0.6,2.3l0.2,0.1c0.1,0.1,0,0.4,0,0.5c-0.5,0-0.8-0.1-1.2-0.1c-0.4,0-0.8,0-1.3,0.1c-0.1-0.1-0.1-0.3,0-0.5l0.2-0.1c0.6-0.1,0.6-0.4,0.6-2.3V280.4z"/><path class="st5" d="M142.4,286.6c0,0.6,0,2.7,0,3.2c0,0.1-0.1,0.2-0.2,0.2c-0.1-0.3-0.4-1-1.3-2.8l-2.3-4.8c-0.3-0.6-0.9-2.1-1.2-2.5h0c0,0.2-0.1,0.6-0.1,1.2v4c0,0.9,0,3.2,0.2,3.8c0.1,0.2,0.3,0.3,0.5,0.3l0.3,0.1c0.1,0.1,0,0.4,0,0.5c-0.4,0-0.8-0.1-1.2-0.1c-0.4,0-0.7,0-1,0.1c-0.1-0.1-0.1-0.3,0-0.5l0.3-0.1c0.2-0.1,0.4-0.2,0.4-0.4c0.1-0.7,0.1-2.9,0.1-3.8v-5.3c0-0.5,0-0.9-0.2-1.3c-0.1-0.3-0.4-0.4-0.6-0.4l-0.2,0c-0.1-0.1-0.1-0.4,0-0.5c0.4,0.1,0.9,0.1,1.1,0.1c0.2,0,0.3,0,0.5-0.1c0.2,0.9,1.4,3.4,1.7,4l1,2c0.7,1.4,1.2,2.4,1.6,3.3h0c0-0.1,0-0.4,0-0.8v-3.9c0-0.9,0-3.2-0.2-3.8c-0.1-0.2-0.2-0.3-0.6-0.4l-0.2,0c-0.1-0.1-0.1-0.4,0-0.5c0.5,0,0.8,0.1,1.2,0.1c0.4,0,0.7,0,1-0.1c0.1,0.1,0.1,0.3,0,0.5l-0.1,0c-0.3,0.1-0.5,0.2-0.6,0.4c-0.2,0.7-0.1,2.9-0.1,3.8V286.6z"/><path class="st5" d="M147.8,280.3c0-1.9,0-2.2-0.6-2.3l-0.2,0c-0.1-0.1,0-0.4,0-0.5c0.4,0,0.8,0.1,1.2,0.1h1.9c0.6,0,1.2,0,1.3-0.1c0.1,0.3,0.1,1.6,0.2,2.4c0,0.1-0.2,0.1-0.2,0c-0.1-0.9-0.2-1.5-0.8-1.7c-0.2-0.1-0.5-0.1-1-0.1h-0.7c-0.3,0-0.3,0-0.3,0.7v3.7c0,0.5,0,0.5,0.3,0.5h0.6c0.4,0,0.7,0,0.8-0.1c0.1-0.1,0.2-0.2,0.2-0.6l0.1-0.8c0-0.1,0.2-0.1,0.3,0c0,0.4,0,1.2,0,1.9c0,0.7,0,1.4,0,1.8c0,0.1-0.2,0.1-0.3,0l-0.1-0.7c0-0.3-0.1-0.6-0.3-0.7c-0.1-0.1-0.4-0.1-0.8-0.1h-0.6c-0.3,0-0.3,0-0.3,0.5v2.6c0,1,0,1.6,0.2,1.9c0.1,0.2,0.3,0.4,1.2,0.4c0.8,0,1.1-0.1,1.3-0.3c0.2-0.2,0.4-0.8,0.7-1.8c0.1-0.1,0.2,0,0.2,0.1c-0.1,0.6-0.3,2.1-0.4,2.6c-0.9,0-1.8-0.1-2.7-0.1h-0.9c-0.4,0-0.8,0-1.4,0.1c-0.1-0.1-0.1-0.3,0-0.5l0.3-0.1c0.6-0.1,0.6-0.4,0.6-2.3V280.3z"/><path class="st5" d="M161.9,286.6c0,0.6,0,2.7,0,3.2c0,0.1-0.1,0.2-0.2,0.2c-0.1-0.3-0.4-1-1.3-2.8l-2.3-4.8c-0.3-0.6-0.9-2.1-1.2-2.5h0c0,0.2,0,0.6,0,1.2v4c0,0.9,0,3.2,0.2,3.8c0.1,0.2,0.3,0.3,0.5,0.3l0.3,0.1c0.1,0.1,0,0.4,0,0.5c-0.4,0-0.8-0.1-1.2-0.1c-0.4,0-0.7,0-1,0.1c-0.1-0.1-0.1-0.3,0-0.5l0.3-0.1c0.2-0.1,0.4-0.2,0.4-0.4c0.1-0.7,0.1-2.9,0.1-3.8v-5.3c0-0.5,0-0.9-0.2-1.3c-0.1-0.3-0.4-0.4-0.6-0.4l-0.2,0c-0.1-0.1-0.1-0.4,0-0.5c0.4,0.1,0.9,0.1,1.1,0.1c0.2,0,0.3,0,0.5-0.1c0.2,0.9,1.4,3.4,1.7,4l1,2c0.7,1.4,1.2,2.4,1.6,3.3h0c0-0.1,0-0.4,0-0.8v-3.9c0-0.9,0-3.2-0.2-3.8c-0.1-0.2-0.2-0.3-0.6-0.4l-0.2,0c-0.1-0.1-0.1-0.4,0-0.5c0.5,0,0.8,0.1,1.2,0.1c0.4,0,0.7,0,1-0.1c0.1,0.1,0.1,0.3,0,0.5l-0.1,0c-0.3,0.1-0.5,0.2-0.6,0.4c-0.2,0.7-0.1,2.9-0.1,3.8V286.6z"/></g></g></g></svg>