<svg xmlns="http://www.w3.org/2000/svg" viewBox="0 0 86 14" preserveAspectRatio="none"><defs><style>.cls-1{fill:#fff;}.cls-2{fill:none;opacity:0.1;}</style></defs><title>アートボード 43</title><g id="letter"><path class="cls-1" d="M1.32,4.06c0-1.82,0-2-.47-2.13L.51,1.86a.63.63,0,0,1,0-.61A19.78,19.78,0,0,1,3,1.09a3.65,3.65,0,0,1,2,.46A3.47,3.47,0,0,1,6.33,4.67c0,3-1.79,3.38-2.36,3.38H3.63a.53.53,0,0,1,0-.49C4.49,7.08,4.67,6,4.67,4.69S4.26,1.91,3.29,1.91c-.4,0-.42.2-.42.92v7.6c0,1.67.06,1.82.55,1.94l.35.09a.62.62,0,0,1,0,.62C3.16,13,2.63,13,2.11,13s-1,0-1.62.06a.58.58,0,0,1,0-.62l.3-.09c.49-.14.55-.27.55-1.94Z"/><path class="cls-1" d="M13.22,4.06c0-1.8,0-2-.48-2.11l-.29-.07a.6.6,0,0,1,0-.63,23.27,23.27,0,0,1,2.68-.16,3.08,3.08,0,0,1,2.12.64,3.64,3.64,0,0,1,.95,2.67,3.13,3.13,0,0,1-1.15,2.7c-.11.09-.11.2-.05.4A17.91,17.91,0,0,0,18.69,12a1.13,1.13,0,0,0,.73.5.55.55,0,0,1,0,.47,1.59,1.59,0,0,1-.85.16c-1,0-1.62-.59-2.1-1.89-.35-1-.59-1.84-.84-2.79-.13-.49-.31-.63-.58-.63s-.4,0-.4.4v2.21c0,1.66.07,1.78.56,1.93l.29.09a1,1,0,0,1,0,.63C15,13,14.47,13,14,13s-1,0-1.58.06a.86.86,0,0,1,0-.63l.29-.09c.49-.15.56-.27.56-1.93Zm1.47,2.28c0,.63,0,.69.67.69a.9.9,0,0,0,.83-.51,3.81,3.81,0,0,0,.38-1.94c0-1.62-.57-2.67-1.41-2.67-.44,0-.47.06-.47.92Z"/><path class="cls-1" d="M32.63,7c0,3.92-1.57,6.28-3.89,6.28S25,10.93,25,7.17C25,3.61,26.59.85,28.84.85S32.63,3.37,32.63,7ZM28.76,1.68c-1.33,0-2,2.07-2,5.08,0,2.19.46,5.72,2.22,5.72,1.42,0,2-2.3,2-5.22C30.91,4.18,30.1,1.68,28.76,1.68Z"/><path class="cls-1" d="M39.7,4.06c0-1.71,0-2.06-.52-2.15l-.21,0c-.11-.09-.11-.61,0-.63a27.2,27.2,0,0,1,2.9-.16,4.84,4.84,0,0,1,2.52.59c1.41.85,2.19,3,2.19,5.22,0,2.41-.69,4.36-1.93,5.38a4,4,0,0,1-2.74.85c-.51,0-1-.11-1.43-.11s-1.07,0-1.69.06a.77.77,0,0,1,0-.63l.34-.09c.48-.13.55-.27.55-1.93Zm1.54,5.7a5,5,0,0,0,.22,2,1,1,0,0,0,.89.52c1.87,0,2.51-2.77,2.51-5.22,0-3.24-1-5.17-3-5.17-.29,0-.5.09-.56.24a3.26,3.26,0,0,0-.08,1Z"/><path class="cls-1" d="M53.61,3.73c0-1.67-.07-1.78-.55-1.94l-.27-.09a.63.63,0,0,1,0-.61c.52,0,1.06,0,1.57,0s1.06,0,1.58,0a.72.72,0,0,1,0,.61l-.26.07c-.48.14-.55.29-.55,2V7.89c0,2.11.14,4.43,1.78,4.43,1.39,0,1.81-2,1.81-4.48V5.66a20.64,20.64,0,0,0-.16-3.3A.78.78,0,0,0,58,1.79l-.29-.09a.8.8,0,0,1,0-.61c.58,0,1,0,1.45,0s.8,0,1.21,0a.91.91,0,0,1,0,.61l-.2.07a.78.78,0,0,0-.58.59,20.64,20.64,0,0,0-.16,3.3v2a9.45,9.45,0,0,1-.7,4.34,2.57,2.57,0,0,1-4.27.28c-.57-.77-.8-2.1-.8-4.07Z"/><path class="cls-1" d="M72.78,1.32c0,.32,0,1.76.13,2.81,0,.21-.34.29-.41.12-.29-1.67-1-2.57-2-2.57C69.27,1.68,68,3.39,68,7s1.24,5.51,2.54,5.51,1.91-1.56,2.2-2.79c.09-.14.35-.09.41.13a11.79,11.79,0,0,1-.41,2.83,5.43,5.43,0,0,1-2.19.66,3.63,3.63,0,0,1-2.9-1.37,7.37,7.37,0,0,1-1.38-4.71,8,8,0,0,1,1.31-4.78,3.69,3.69,0,0,1,3-1.6A8.26,8.26,0,0,1,72.78,1.32Z"/><path class="cls-1" d="M81.42,2.49c0-.43,0-.52-.26-.52h-.67c-.79,0-1,.72-1.34,2a.24.24,0,0,1-.4-.16C79,2.6,79,1.48,79.1.78a.24.24,0,0,1,.16-.09.21.21,0,0,1,.15.07c0,.31.08.38.9.38h4c.72,0,.88,0,1-.4a.2.2,0,0,1,.14-.05.22.22,0,0,1,.16.12,19.87,19.87,0,0,0-.16,3.1c-.06.16-.35.2-.4.06-.19-1.16-.34-2-1.15-2h-.65C83,2,83,2,83,2.49v7.94c0,1.67.07,1.82.55,1.93l.43.09a.86.86,0,0,1,0,.63c-.7,0-1.24-.06-1.72-.06s-1.08,0-1.84.06a.77.77,0,0,1,0-.63l.49-.09c.48-.09.55-.26.55-1.93Z"/><rect class="cls-2" width="86" height="14"/></g></svg>