<svg xmlns="http://www.w3.org/2000/svg" viewBox="0 0 318 38"><defs><style>.cls-1{fill:#fff;}.cls-2{fill:none;opacity:0.1;}</style></defs><title>アートボード 18</title><g id="letter"><path class="cls-1" d="M5.47,29.1c0,5.63.06,6.33,1.93,6.7l.8.16a1.8,1.8,0,0,1-.06,1.34c-1.67-.1-2.64-.16-3.81-.16S2,37.2.75,37.3A1.74,1.74,0,0,1,.7,36l.61-.16c1.7-.43,1.76-1.07,1.76-6.7V9.32c0-4.56-.06-5.47-1.38-5.73l-1-.22A1.4,1.4,0,0,1,.7,2,25.17,25.17,0,0,1,6.5,1.6c2.43,0,4.24.59,5.62,2.15s2.35,4.34,2.35,8c0,4.93-1.67,7.4-2.93,8.52a6.37,6.37,0,0,1-4,1.61c-.2-.16-.2-1,0-1.07,3.17-1.07,4.31-4.35,4.31-9,0-5.2-1.67-8.58-4.72-8.58-1.55,0-1.58.22-1.58,1.93Z"/><path class="cls-1" d="M48.45,9.86c0-5.1-.09-6-1.29-6.27l-.94-.22a1.47,1.47,0,0,1,0-1.34,40,40,0,0,1,6.53-.43,6.51,6.51,0,0,1,4.9,1.61c1.4,1.34,2.43,3.75,2.43,7.51,0,5.09-2.2,7.87-3.66,9A2,2,0,0,0,56.59,21c2.35,6.92,3.9,11.21,5.89,14.26a3,3,0,0,0,2,1.5.67.67,0,0,1,0,.75,2.53,2.53,0,0,1-1.29.27c-2.49,0-4-1.34-6.06-6.75-.76-2-2-5.69-2.87-8.1-.44-1.18-.91-1.71-2.08-1.71s-1.38,0-1.38,1.18V29.1c0,5.63.06,6.27,1.76,6.7l.61.16a1.71,1.71,0,0,1-.06,1.34c-1.31-.1-2.31-.16-3.48-.16s-2.29.06-3.66.16A1.67,1.67,0,0,1,46,36l.73-.16c1.7-.37,1.76-1.07,1.76-6.7Zm2.4,7.66a7.35,7.35,0,0,0,.09,1.77c.09.16.53.27,2,.27a3.41,3.41,0,0,0,3-1.39c.79-1.13,1.46-3,1.46-6.65,0-4.23-1.43-8.26-4.69-8.26-1.81,0-1.9.22-1.9,1.72Z"/><path class="cls-1" d="M94.24,19.83C94.24,9.11,98.63.9,104.67.9c6.76,0,10.16,9,10.16,18.39,0,10.83-4.51,18.71-10.16,18.71C98.16,38,94.24,29.48,94.24,19.83ZM111.9,21c0-8.84-2.14-18.38-7.73-18.38-3,0-7,3.8-7,15.54,0,7.94,2.11,18.23,7.88,18.23C108.56,36.34,111.9,31.51,111.9,21Z"/><path class="cls-1" d="M149.23,8.73c0-3.75-.15-4.88-1.38-5.2l-.65-.16a1.25,1.25,0,0,1,0-1.34,67.27,67.27,0,0,1,7.36-.43A10.84,10.84,0,0,1,161,3.21C165,5.84,167,12,167,19c0,6.81-1.79,12.66-5.13,16a9.13,9.13,0,0,1-6.56,2.57c-1.88,0-3.75-.43-4.78-.43-1.23,0-2.28.06-3.66.16a1.78,1.78,0,0,1-.06-1.34l.68-.16c1.7-.43,1.76-1.07,1.76-6.7Zm2.4,19.14c0,2.84.09,4.56.58,5.84.65,1.66,1.76,2.2,3.61,2.2,5.68,0,8.23-6.81,8.23-16.78,0-5.89-1.55-15.87-9.23-15.87-1.73,0-2.67.43-2.9.75s-.29,1.67-.29,4.08Z"/><path class="cls-1" d="M215.35,15.22c0-3.33-.06-9.49-.56-11.1A1.66,1.66,0,0,0,213.32,3l-.73-.11a1.61,1.61,0,0,1,.06-1.29c1.11.11,2.2.16,3.34.16a26.7,26.7,0,0,0,3.08-.16,1.56,1.56,0,0,1,.06,1.29l-.71.11A1.7,1.7,0,0,0,217,4.28c-.41,1.77-.41,7.94-.41,10.94v6.06c0,4.66-.41,9.59-2.05,12.81A6.47,6.47,0,0,1,208.9,38a6.12,6.12,0,0,1-5.48-3c-1.55-2.36-2.28-6.27-2.28-12.65V9.75c0-5.57-.06-6.49-1.76-6.75l-.73-.11a1.6,1.6,0,0,1,.06-1.29c1.46.11,2.46.16,3.63.16s2.17-.05,3.6-.16A1.6,1.6,0,0,1,206,2.89l-.7.11c-1.7.26-1.76,1.18-1.76,6.75V21.33c0,8.63,1.46,14.31,6,14.31,4.24,0,5.86-6.11,5.86-14.26Z"/><path class="cls-1" d="M253.75,5.46c2.14-3,4.86-4.56,7.91-4.56a13.41,13.41,0,0,1,5.19,1.29,1.34,1.34,0,0,0,.82.22c0,1.23.17,4.61.41,7.88a.43.43,0,0,1-.79.1c-.44-3.64-1.76-7.82-6-7.82-4.48,0-8.29,5.2-8.29,16.29,0,11.26,3.9,17.48,8.7,17.48,3.78,0,5.45-4.5,6.12-7.67a.45.45,0,0,1,.77.22,32.41,32.41,0,0,1-1.41,7.34,4.24,4.24,0,0,0-1,.54A10.26,10.26,0,0,1,261.52,38a9,9,0,0,1-7.3-3.59c-2.34-2.95-4.16-7.83-4.16-14.74C250.06,13.72,251.52,8.63,253.75,5.46Z"/><path class="cls-1" d="M309.24,29.1c0,5.63.06,6.43,1.76,6.7l.93.16a1.72,1.72,0,0,1-.06,1.34c-1.67-.1-2.66-.16-3.83-.16s-2.2.06-4.08.16A1.57,1.57,0,0,1,304,36L305,35.8c1.67-.27,1.82-1.07,1.82-6.7v-24c0-1.66,0-1.71-.88-1.71h-1.61c-1.26,0-2.88.1-3.61,1.33a12.86,12.86,0,0,0-1.32,3.7c-.23.33-.64.06-.76-.37.47-2.41.91-5.84,1.12-8,.08-.11.46-.16.55,0,.18,1.72,1.14,1.66,2.49,1.66h11.87c1.58,0,1.84-.11,2.28-1.5a.37.37,0,0,1,.53.16,58.69,58.69,0,0,0-.44,8.15.4.4,0,0,1-.76.11c-.09-1.34-.29-3.33-.73-3.92a3.93,3.93,0,0,0-3.4-1.33h-2.08c-.88,0-.85,0-.85,1.82Z"/><rect class="cls-2" width="318" height="38"/></g></svg>