<svg xmlns="http://www.w3.org/2000/svg" viewBox="0 0 287 38"><defs><style>.cls-1{fill:#fff;}.cls-2{fill:none;opacity:0.1;}</style></defs><title>アートボード 19</title><g id="letter"><path class="cls-1" d="M5.85,38a6.19,6.19,0,0,1-4.56-2A45.4,45.4,0,0,1,.5,28.3c.15-.38.58-.49.7-.16.44,2.79,1.64,8.16,5,8.16,2.45,0,3.65-3,3.65-6.3a11.18,11.18,0,0,0-2.4-7.67L4.71,18.94A14.8,14.8,0,0,1,1.55,9.51c0-5.2,2.16-9.42,6-9.42A6.57,6.57,0,0,1,10.23.8a2.33,2.33,0,0,0,1,.33,44.16,44.16,0,0,1,.53,6.69c-.12.32-.59.49-.73.16-.38-2.63-1.17-6.19-4-6.19S3.6,5.35,3.6,7.87a10.35,10.35,0,0,0,2.48,6.74l2.34,2.74a15.22,15.22,0,0,1,3.65,10.52C12.07,33.89,9.64,38,5.85,38Z"/><path class="cls-1" d="M48.93,28.91c0,5.75.06,6.46,1.93,6.84l.79.17a1.88,1.88,0,0,1-.06,1.37c-1.67-.11-2.63-.17-3.8-.17s-2.28.06-3.56.17a1.77,1.77,0,0,1-.06-1.37l.61-.17c1.7-.43,1.76-1.09,1.76-6.84V8.69c0-4.65-.06-5.58-1.38-5.86l-1-.22a1.52,1.52,0,0,1,.06-1.37A25,25,0,0,1,50,.8c2.43,0,4.24.61,5.61,2.2s2.34,4.43,2.34,8.21c0,5-1.67,7.56-2.92,8.71a6.3,6.3,0,0,1-4,1.65,1.11,1.11,0,0,1,0-1.1c3.15-1.1,4.29-4.44,4.29-9.2,0-5.32-1.66-8.77-4.7-8.77-1.55,0-1.58.22-1.58,2Z"/><path class="cls-1" d="M91.78,9.19c0-5.7-.06-6.52-1.78-6.91l-.47-.1A1.92,1.92,0,0,1,89.59.8,34,34,0,0,0,93,1h5.49A20.26,20.26,0,0,0,102.47.8c.18.94.36,4.88.47,7.29-.11.33-.58.44-.73.11-.44-2.58-.7-4.49-2.22-5.2a7.47,7.47,0,0,0-2.83-.33H95.05c-.87,0-.87.11-.87,2.19v11c0,1.54.09,1.54,1,1.54h1.7A6,6,0,0,0,99.32,17c.35-.22.55-.55.7-1.92l.23-2.24a.41.41,0,0,1,.76.05c0,1.32-.11,3.45-.11,5.53s.11,4.06.11,5.26a.4.4,0,0,1-.76.06L100,21.62c-.12-1-.32-1.81-.9-2.08a5.37,5.37,0,0,0-2.25-.27h-1.7c-.87,0-1,.05-1,1.47v7.73c0,2.9.09,4.76.55,5.69.35.66,1,1.26,3.54,1.26,2.25,0,3.09-.21,3.74-.82s1.31-2.46,2.07-5.31c.21-.27.61-.11.73.38-.2,1.92-.93,6.14-1.31,7.62-2.63-.11-5.23-.17-7.83-.17H93c-1.26,0-2.25.06-4,.17A1.77,1.77,0,0,1,89,35.92l1-.17c1.67-.27,1.81-1.09,1.81-6.84Z"/><path class="cls-1" d="M139.28,4.75c2.13-3.12,4.85-4.66,7.89-4.66a13.05,13.05,0,0,1,5.17,1.32,1.34,1.34,0,0,0,.82.22c0,1.26.17,4.71.4,8.05a.42.42,0,0,1-.78.11c-.44-3.73-1.76-8-6-8-4.47,0-8.27,5.31-8.27,16.65,0,11.51,3.88,17.86,8.68,17.86,3.76,0,5.43-4.6,6.1-7.83.21-.28.64-.17.76.22a33.28,33.28,0,0,1-1.4,7.5,4.05,4.05,0,0,0-1,.55A10.12,10.12,0,0,1,147,38a8.9,8.9,0,0,1-7.27-3.67c-2.34-3-4.15-8-4.15-15.06C135.6,13.19,137.06,8,139.28,4.75Z"/><path class="cls-1" d="M187.59,9.3c0-5.81-.06-6.74-1.78-7l-.73-.1A1.87,1.87,0,0,1,185.14.8c1.46.12,2.45.17,3.68.17s2.16,0,3.62-.17a1.83,1.83,0,0,1,.06,1.38l-.73.1c-1.72.28-1.78,1.21-1.78,7V28.8c0,5.8.06,6.57,1.78,7l.73.17a1.8,1.8,0,0,1-.06,1.37c-1.46-.11-2.45-.17-3.62-.17s-2.22.06-3.68.17a1.81,1.81,0,0,1-.06-1.37l.73-.17c1.72-.38,1.78-1.15,1.78-6.95Z"/><path class="cls-1" d="M229.25,12.87c.2,1.21.32,1.37,1.19,1.37h4.41c.74,0,.91-.16,1.11-1.31l1-5.75a36.28,36.28,0,0,0,.64-4.55c0-.66-.15-1-.85-1.1l-1-.16A1.39,1.39,0,0,1,235.88,0c.76.11,1.66.11,3,.16,1,0,2-.1,2.8-.16a1.85,1.85,0,0,1,.06,1.37l-1,.16c-.7.11-1.34.72-1.75,2.69-.52,2.52-1.34,6.08-2.57,12.21l-3,14.79a14.22,14.22,0,0,0-.5,3.89,4.51,4.51,0,0,0-1.51,2.09c-.18,0-.38-.12-.44-.5-.38-2.41-.85-4.93-1.29-7.34l-4-22c-.85-4.71-1.23-5.53-2.48-5.81l-.79-.16a1.8,1.8,0,0,1,0-1.37c1.2.11,2.22.16,3.53.16s2.51-.1,3.36-.16a1.5,1.5,0,0,1,.06,1.37l-.85.16c-.61.11-1,.44-1,1a20.28,20.28,0,0,0,.38,2.9ZM235,17.75c.23-1.26.2-1.32-.61-1.32h-3.6c-.84,0-.9.22-.64,1.7l1.58,8.93c.23,1.32.5,2.8.67,3.45h.06c.09-.27.38-1.59.7-3.23Z"/><path class="cls-1" d="M274.08,9.1c0-5.75-.05-6.63-1.89-6.9l-.73-.11a1.84,1.84,0,0,1,.05-1.37c1.64.11,2.63.16,3.8.16s2.13-.05,3.6-.16a1.84,1.84,0,0,1,0,1.37l-.7.11c-1.72.27-1.78,1.15-1.78,6.9V28.16c0,3.45.09,4.88.61,5.92.32.6.88,1.26,3.19,1.26,2.48,0,3.09-.22,3.56-.71.59-.66,1.35-2.63,1.93-5.43.18-.27.73-.05.73.33a75.2,75.2,0,0,1-1.23,7.67C283.78,37.09,281,37,278,37h-2.69c-1.23,0-2.16.05-3.8.16a1.81,1.81,0,0,1-.05-1.37l.87-.16c1.7-.33,1.75-1.1,1.75-6.85Z"/><rect class="cls-2" width="287" height="38"/></g></svg>