<svg xmlns="http://www.w3.org/2000/svg" viewBox="0 0 199 38"><defs><style>.cls-1{fill:#fff;}.cls-2{fill:none;opacity:0.1;}</style></defs><title>アートボード 14</title><g id="letter"><path class="cls-1" d="M5.86,38a6.32,6.32,0,0,1-4.57-2A43.69,43.69,0,0,1,.5,28.51c.15-.37.59-.48.7-.16.44,2.73,1.64,8,5,8,2.46,0,3.66-3,3.66-6.17a10.71,10.71,0,0,0-2.4-7.5L4.72,19.35a14.24,14.24,0,0,1-3.17-9.22C1.55,5,3.72.91,7.53.91a6.71,6.71,0,0,1,2.72.69,2.29,2.29,0,0,0,1,.32,42.2,42.2,0,0,1,.53,6.54c-.12.33-.59.49-.74.16-.38-2.57-1.17-6-4-6S3.6,6.05,3.6,8.52a10,10,0,0,0,2.49,6.59l2.35,2.68A14.72,14.72,0,0,1,12.1,28.08C12.1,34,9.67,38,5.86,38Z"/><path class="cls-1" d="M53.68,29.1c0,5.63.06,6.43,1.76,6.7l.94.16a1.77,1.77,0,0,1-.06,1.34c-1.67-.1-2.67-.16-3.84-.16s-2.19.06-4.07.16a1.57,1.57,0,0,1,0-1.34l1.06-.16c1.66-.27,1.81-1.07,1.81-6.7v-24c0-1.66,0-1.72-.88-1.72H48.79c-1.26,0-2.87.11-3.6,1.35a12.41,12.41,0,0,0-1.32,3.69c-.23.33-.64.06-.76-.37.47-2.41.91-5.84,1.11-8,.09-.11.47-.16.56,0,.18,1.72,1.14,1.66,2.49,1.66H59.13c1.58,0,1.85-.1,2.29-1.5a.36.36,0,0,1,.52.16,60.28,60.28,0,0,0-.44,8.15.4.4,0,0,1-.76.11c-.09-1.34-.29-3.33-.73-3.91a3.9,3.9,0,0,0-3.4-1.35H54.53c-.88,0-.85.06-.85,1.83Z"/><path class="cls-1" d="M97.84,13.41c.21,1.18.33,1.34,1.2,1.34h4.43c.73,0,.9-.16,1.11-1.28l1-5.63a35.38,35.38,0,0,0,.65-4.45c0-.64-.15-1-.85-1.07l-1-.16a1.38,1.38,0,0,1,.06-1.34c.76.1,1.67.1,3.05.16,1,0,2-.11,2.81-.16a1.82,1.82,0,0,1,.06,1.34l-1,.16c-.7.1-1.35.69-1.76,2.62-.52,2.47-1.34,6-2.57,12l-3,14.47a13.21,13.21,0,0,0-.5,3.81,4.42,4.42,0,0,0-1.52,2c-.18,0-.38-.1-.44-.48-.38-2.36-.85-4.82-1.29-7.18L94.36,8c-.85-4.61-1.23-5.42-2.49-5.68l-.79-.16a1.73,1.73,0,0,1,0-1.34c1.2.1,2.22.16,3.54.16S97.14.87,98,.82a1.47,1.47,0,0,1,.06,1.34l-.85.16c-.62.1-1,.43-1,1a19.38,19.38,0,0,0,.38,2.84Zm5.8,4.77c.24-1.23.21-1.28-.61-1.28h-3.6c-.85,0-.91.21-.65,1.66l1.58,8.74c.24,1.28.5,2.73.68,3.37h0c.09-.27.39-1.55.71-3.16Z"/><path class="cls-1" d="M145.2,16.79c0,1.45.09,1.45,1,1.45h2a6.31,6.31,0,0,0,2.49-.32c.32-.21.55-.48.73-1.88l.26-2.14a.42.42,0,0,1,.76,0c0,1.29-.11,3.43-.11,5.41s.11,4,.11,5.2c-.11.32-.55.32-.76,0l-.29-2.09c-.15-1-.38-1.71-.94-2a5.46,5.46,0,0,0-2.25-.27h-2c-.88,0-1,.05-1,1.44V29c0,5.62.06,6.43,1.79,6.7l1,.16a1.72,1.72,0,0,1-.06,1.34c-1.72-.11-2.72-.16-3.89-.16s-2.29,0-3.66.16a1.69,1.69,0,0,1-.06-1.34l.73-.16c1.7-.38,1.76-1.08,1.76-6.7V9.72c0-5.63-.06-6.38-1.76-6.76l-.47-.1a1.82,1.82,0,0,1,.06-1.34c1.23.1,2.23.16,3.4.16h5.39a21.84,21.84,0,0,0,4-.16c0,2.46,0,5,.09,7.07-.09.32-.5.49-.7.16-.24-2.41-.59-4.39-2-5.09a7,7,0,0,0-2.84-.32h-1.79c-.88,0-.88.11-.88,2.14Z"/><path class="cls-1" d="M190.24,16.79c0,1.45.09,1.45,1,1.45h2a6.31,6.31,0,0,0,2.49-.32c.32-.21.56-.48.73-1.88l.26-2.14a.43.43,0,0,1,.77,0c0,1.29-.12,3.43-.12,5.41s.12,4,.12,5.2a.43.43,0,0,1-.77,0l-.29-2.09c-.14-1-.38-1.71-.94-2a5.46,5.46,0,0,0-2.25-.27h-2c-.88,0-1,.05-1,1.44V29c0,5.62.06,6.43,1.79,6.7l1,.16a1.72,1.72,0,0,1-.06,1.34c-1.72-.11-2.72-.16-3.89-.16s-2.28,0-3.66.16a1.69,1.69,0,0,1-.06-1.34l.73-.16c1.7-.38,1.76-1.08,1.76-6.7V9.72c0-5.63-.06-6.38-1.76-6.76l-.47-.1a1.82,1.82,0,0,1,.06-1.34c1.23.1,2.23.16,3.4.16h5.39a21.84,21.84,0,0,0,3.95-.16c0,2.46,0,5,.09,7.07-.09.32-.5.49-.7.16-.24-2.41-.59-4.39-2.05-5.09a7,7,0,0,0-2.84-.32h-1.79c-.88,0-.88.11-.88,2.14Z"/><rect class="cls-2" width="199" height="38"/></g></svg>