<?xml version="1.0" encoding="utf-8"?>
<!-- Generator: Adobe Illustrator 22.0.1, SVG Export Plug-In . SVG Version: 6.00 Build 0)  -->
<svg version="1.1" id="レイヤー_1" xmlns="http://www.w3.org/2000/svg" xmlns:xlink="http://www.w3.org/1999/xlink" x="0px"
	 y="0px" viewBox="0 0 20 671" style="enable-background:new 0 0 20 671;" xml:space="preserve">
<style type="text/css">
	.st0{fill:#FFFFFF;}
	.st1{fill:none;}
</style>
<title>アートボード 13</title>
<g>
	<path class="st0" d="M5.4,39.6c0,1.2,0.2,1.5,0.4,1.5s0.2,0,0.4-0.2c0.1,0,0.2,0.2,0.1,0.4s-0.6,1-1.1,1c-0.3,0-0.6-0.2-0.8-0.6
		c-0.1-0.1-0.1-0.1-0.2-0.1S4.1,41.7,4,41.8s-0.5,0.6-0.8,0.6c-0.6,0-1.1-0.6-1.1-1.9c-0.1-0.8,0.3-1.5,1-1.9L4,38.1
		c0.1-0.1,0.2-0.2,0.2-0.4c0-0.2,0-0.4,0-0.6c0-0.7-0.1-1.5-0.6-1.5c-0.2,0-0.4,0.2-0.5,1c0,0.2-0.1,0.4-0.2,0.6
		c-0.2,0.2-0.4,0.4-0.7,0.4c-0.2,0-0.2-0.2-0.2-0.5c0-0.5,0.2-1,0.5-1.4c0.3-0.6,0.9-1,1.6-1.1c0.8,0,1.3,0.8,1.2,2.6L5.4,39.6z
		 M4.2,39.2c0-0.3,0-0.3-0.1-0.3c-0.4,0.1-0.8,0.4-0.8,1.3c0,0.6,0.2,1.1,0.5,1.1s0.4-0.3,0.4-0.9L4.2,39.2z"/>
	<path class="st0" d="M3.7,210.2c0,0.3,0,0.4,0.1,0.4c0.3-0.3,0.6-0.5,1-0.5c1.1,0,1.8,1.6,1.8,3.6c0,2.6-1,4.1-2.4,4.1
		c-0.4,0-0.7-0.1-1-0.3c-0.1-0.1-0.2-0.1-0.3-0.2c-0.1,0-0.3,0.1-0.3,0.3s-0.1,0-0.2-0.1c0-0.2,0-0.9,0-1.8v-8.1
		c0-0.7,0-0.9-0.2-1.1L2,206.2c-0.1-0.2-0.1-0.4,0-0.5c0.5-0.3,1-0.6,1.5-1c0.1,0,0.1,0,0.2,0.1c0,0.7,0,1.5,0,2.6L3.7,210.2z
		 M3.7,215c0,0.5,0.1,0.9,0.2,1.4c0.1,0.4,0.3,0.6,0.6,0.6c0.6,0,0.8-1.3,0.8-2.7c0-1.8-0.5-3-1.1-3c-0.2,0-0.3,0.1-0.4,0.2
		c-0.1,0.3-0.1,0.5-0.1,0.8L3.7,215z"/>
	<path class="st0" d="M5.5,385.9c0.2,0.3,0.2,0.6,0.2,0.9c0,0.5-0.1,1-0.3,1c-0.1,0-0.1,0-0.2-0.1c-0.3-0.7-0.7-1.4-1-1.4
		c-0.6,0-1,1.3-1,2.6c0,1.4,0.5,2.9,1.4,2.9c0.4,0,0.7-0.2,0.9-0.9c0.1,0,0.2,0.1,0.2,0.4c-0.2,0.9-0.8,1.9-1.7,1.9
		c-1.2,0-2.1-1.5-2.1-3.6c0-2.6,1.1-4.1,2.4-4.1C4.8,385.5,5.2,385.7,5.5,385.9z"/>
	<rect x="11.5" y="3" class="st0" width="6.5" height="0.4"/>
	<rect x="11.5" y="38.1" class="st0" width="6.5" height="0.4"/>
	<rect x="11.5" y="73.3" class="st0" width="6.5" height="0.4"/>
	<rect x="11.5" y="108.5" class="st0" width="6.5" height="0.4"/>
	<rect x="11.5" y="143.7" class="st0" width="6.5" height="0.4"/>
	<rect x="11.5" y="178.8" class="st0" width="6.5" height="0.4"/>
	<rect x="11.5" y="214" class="st0" width="6.5" height="0.4"/>
	<rect x="11.5" y="249.2" class="st0" width="6.5" height="0.4"/>
	<rect x="11.5" y="284.3" class="st0" width="6.5" height="0.4"/>
	<rect x="11.5" y="319.5" class="st0" width="6.5" height="0.4"/>
	<rect x="11.5" y="354.7" class="st0" width="6.5" height="0.4"/>
	<rect x="11.5" y="389.9" class="st0" width="6.5" height="0.4"/>
	<rect x="11.5" y="425" class="st0" width="6.5" height="0.4"/>
	<rect x="11.5" y="460.2" class="st0" width="6.5" height="0.4"/>
	<rect x="11.5" y="495.4" class="st0" width="6.5" height="0.4"/>
	<rect x="11.5" y="530.6" class="st0" width="6.5" height="0.4"/>
	<rect x="11.5" y="565.7" class="st0" width="6.5" height="0.4"/>
	<rect x="11.5" y="600.9" class="st0" width="6.5" height="0.4"/>
	<rect x="11.5" y="636.1" class="st0" width="6.5" height="0.4"/>
	<ellipse class="st0" cx="5.8" cy="3.2" rx="1.7" ry="1.7"/>
</g>
<rect class="st1" width="20" height="671"/>
</svg>
