<svg xmlns="http://www.w3.org/2000/svg" viewBox="0 0 210 40"><defs><style>.cls-1{fill:#fff;}.cls-2{fill:none;opacity:0.26;}</style></defs><title>アートボード 73</title><g id="letter"><path class="cls-1" d="M5.84,38.68a6.26,6.26,0,0,1-4.55-2,43.56,43.56,0,0,1-.79-7.5c.15-.38.58-.48.7-.16.44,2.73,1.64,8,5,8,2.46,0,3.65-3,3.65-6.17a10.74,10.74,0,0,0-2.39-7.5L4.71,20A14.22,14.22,0,0,1,1.55,10.8c0-5.09,2.16-9.22,6-9.22a6.56,6.56,0,0,1,2.71.7,2.42,2.42,0,0,0,1,.32,42.37,42.37,0,0,1,.52,6.54c-.12.32-.58.48-.73.16-.38-2.57-1.17-6.06-4-6.06S3.6,6.73,3.6,9.19a10,10,0,0,0,2.48,6.6l2.33,2.68a14.72,14.72,0,0,1,3.65,10.29C12.06,34.66,9.64,38.68,5.84,38.68Z"/><path class="cls-1" d="M53.52,29.78c0,5.63.06,6.43,1.75,6.7l.94.16A1.82,1.82,0,0,1,56.15,38c-1.67-.11-2.66-.16-3.83-.16s-2.19,0-4.06.16a1.57,1.57,0,0,1,0-1.34l1.06-.16c1.66-.27,1.81-1.07,1.81-6.7v-24c0-1.66,0-1.72-.88-1.72H48.64c-1.25,0-2.86.11-3.59,1.34a12.55,12.55,0,0,0-1.31,3.7c-.23.32-.64,0-.76-.37.47-2.42.9-5.85,1.11-8,.09-.11.47-.16.55,0,.18,1.71,1.14,1.66,2.49,1.66H59c1.58,0,1.84-.11,2.28-1.5a.35.35,0,0,1,.52.16,60.28,60.28,0,0,0-.44,8.15.39.39,0,0,1-.75.1C60.47,8,60.26,6,59.83,5.44A3.91,3.91,0,0,0,56.44,4.1H54.37c-.88,0-.85.06-.85,1.82Z"/><path class="cls-1" d="M92.58,20.5C92.58,9.78,97,1.58,103,1.58c6.74,0,10.13,9,10.13,18.39,0,10.83-4.5,18.71-10.13,18.71C96.49,38.68,92.58,30.15,92.58,20.5Zm17.61,1.13c0-8.84-2.13-18.39-7.71-18.39-3,0-7,3.81-7,15.55,0,7.93,2.1,18.23,7.86,18.23C106.86,37,110.19,32.19,110.19,21.63Z"/><path class="cls-1" d="M147.38,10.53c0-5.09-.09-6-1.28-6.27l-.94-.21a1.47,1.47,0,0,1,0-1.34,39.86,39.86,0,0,1,6.51-.43,6.47,6.47,0,0,1,4.88,1.61C158,5.23,159,7.64,159,11.39c0,5.09-2.19,7.88-3.65,9a2.07,2.07,0,0,0,.15,1.29c2.33,6.92,3.88,11.2,5.87,14.26a3,3,0,0,0,2,1.5.67.67,0,0,1,0,.75,2.62,2.62,0,0,1-1.28.27c-2.49,0-4-1.34-6-6.76-.76-2-2-5.68-2.86-8.09-.44-1.18-.9-1.71-2.07-1.71-1.32,0-1.38,0-1.38,1.17v6.76c0,5.63.06,6.27,1.76,6.7l.61.16a1.71,1.71,0,0,1-.06,1.34c-1.31-.11-2.31-.16-3.47-.16s-2.28,0-3.65.16a1.67,1.67,0,0,1-.06-1.34l.73-.16c1.69-.38,1.75-1.07,1.75-6.7Zm2.39,7.67a7.45,7.45,0,0,0,.09,1.77c.09.16.53.27,2,.27a3.36,3.36,0,0,0,3-1.4c.79-1.12,1.46-3,1.46-6.64,0-4.24-1.43-8.26-4.67-8.26-1.81,0-1.9.22-1.9,1.72Z"/><path class="cls-1" d="M201.48,29.67c0,5.74.17,6.59,1.75,6.81l1.11.16a1.69,1.69,0,0,1-.06,1.34c-1.81-.11-2.8-.16-4-.16s-2.28,0-3.82.16a1.69,1.69,0,0,1-.06-1.34l.9-.16c1.7-.32,1.76-1.07,1.76-6.81V26.94a18.16,18.16,0,0,0-.94-6.65L194.71,8c-1-3.54-1.43-3.8-2.31-4.07l-.82-.27a1.65,1.65,0,0,1,.06-1.34,28.91,28.91,0,0,0,3.39.16,22.6,22.6,0,0,0,3.12-.16c.26.16.26,1,.09,1.34l-.38.11c-1,.26-1.23.53-1.23,1a40.72,40.72,0,0,0,.91,4.13c1.08,4,2.16,8.2,3.3,11.9.9-2.84,1.87-5.95,2.74-9.06a71.42,71.42,0,0,0,1.9-7.08c0-.32-.53-.69-1.23-.85l-.52-.11a1.39,1.39,0,0,1,.06-1.34,25.73,25.73,0,0,0,2.8.16,23.51,23.51,0,0,0,2.71-.16,1.41,1.41,0,0,1,.06,1.34l-.81.27c-1.52.48-2.4,3.86-3.86,8.47l-1.84,5.84a20.47,20.47,0,0,0-1.37,8.68Z"/><rect class="cls-2" width="210" height="40"/></g></svg>