<svg xmlns="http://www.w3.org/2000/svg" viewBox="0 0 57 14" preserveAspectRatio="none"><defs><style>.cls-1{fill:#fff;}.cls-2{fill:none;opacity:0.1;}</style></defs><title>アートボード 41</title><g id="letter"><path class="cls-1" d="M2.53,13.31a2.69,2.69,0,0,1-1.84-.68A9.47,9.47,0,0,1,.35,9.71a.21.21,0,0,1,.41-.05c.21,1.17.94,2.82,1.85,2.82s1.17-.92,1.17-1.82A3.61,3.61,0,0,0,2.31,7.8,4.37,4.37,0,0,1,.68,4.29c0-2,.94-3.44,2.51-3.44a2.74,2.74,0,0,1,1.23.29,1.54,1.54,0,0,0,.37.14A15.18,15.18,0,0,1,5,3.86a.23.23,0,0,1-.42.05C4.38,3,3.91,1.68,3.13,1.68S2,2.45,2,3.35A2.82,2.82,0,0,0,3,5.41L3.73,6A4.51,4.51,0,0,1,5.25,9.66C5.25,11.87,4.16,13.31,2.53,13.31Z"/><path class="cls-1" d="M13.72,2.49c0-.43,0-.52-.26-.52h-.67c-.79,0-1,.72-1.34,2a.24.24,0,0,1-.4-.16c.23-1.24.28-2.36.35-3.06a.24.24,0,0,1,.16-.09.21.21,0,0,1,.15.07c0,.31.08.38.9.38h4c.72,0,.88,0,1-.4a.2.2,0,0,1,.14-.05.22.22,0,0,1,.16.12,19.87,19.87,0,0,0-.16,3.1c-.06.16-.35.2-.4.06C17.16,2.81,17,2,16.2,2h-.65c-.26,0-.29.05-.29.52v7.94c0,1.67.07,1.82.55,1.93l.43.09a.86.86,0,0,1,0,.63C15.54,13,15,13,14.52,13s-1.08,0-1.84.06a.77.77,0,0,1,0-.63l.49-.09c.48-.09.55-.26.55-1.93Z"/><path class="cls-1" d="M31.41,7c0,3.92-1.58,6.28-3.9,6.28s-3.75-2.38-3.75-6.14c0-3.56,1.6-6.32,3.86-6.32S31.41,3.37,31.41,7ZM27.53,1.68c-1.33,0-2,2.07-2,5.08,0,2.19.46,5.72,2.22,5.72,1.42,0,2-2.3,2-5.22C29.68,4.18,28.87,1.68,27.53,1.68Z"/><path class="cls-1" d="M38.47,4.06c0-1.8,0-2-.48-2.11l-.29-.07a.6.6,0,0,1,0-.63,23.42,23.42,0,0,1,2.68-.16,3.08,3.08,0,0,1,2.12.64,3.6,3.6,0,0,1,.95,2.67,3.15,3.15,0,0,1-1.14,2.7c-.11.09-.11.2-.06.4A18.21,18.21,0,0,0,44,12a1.14,1.14,0,0,0,.72.5.49.49,0,0,1,0,.47,1.57,1.57,0,0,1-.85.16c-1,0-1.62-.59-2.1-1.89-.34-1-.59-1.84-.84-2.79-.13-.49-.3-.63-.57-.63s-.4,0-.4.4v2.21c0,1.66.06,1.78.55,1.93l.29.09a.86.86,0,0,1,0,.63c-.57,0-1.07-.06-1.59-.06s-1,0-1.57.06a.77.77,0,0,1,0-.63l.29-.09c.48-.15.55-.27.55-1.93ZM40,6.34C40,7,40,7,40.62,7a.87.87,0,0,0,.82-.51,3.78,3.78,0,0,0,.39-1.94c0-1.62-.57-2.67-1.42-2.67C40,1.91,40,2,40,2.83Z"/><path class="cls-1" d="M53.77,10.43c0,1.67.07,1.82.55,1.93l.44.09a1,1,0,0,1,0,.63C54.05,13,53.53,13,53,13s-1.06,0-1.7.06a.77.77,0,0,1,0-.63l.37-.09c.48-.13.55-.26.55-1.93v-.9a5.79,5.79,0,0,0-.29-2.14L50.65,3c-.21-.74-.31-1-.69-1.14l-.37-.1c-.09-.15-.08-.58,0-.63.48,0,.88,0,1.52,0s1.21,0,1.58,0a.72.72,0,0,1,0,.63l-.37.14c-.19.07-.26.14-.26.16a7.05,7.05,0,0,0,.28,1.26l.51,1.93c.16.59.41,1.42.54,1.87.31-.88.65-2,.93-3a10.92,10.92,0,0,0,.52-2c0-.11-.17-.22-.43-.29l-.21-.07a.7.7,0,0,1,0-.63c.43,0,.82,0,1.21,0s.75,0,1.06,0c.13.07.13.5,0,.63l-.28.09a.86.86,0,0,0-.56.43,25.68,25.68,0,0,0-.94,2.55l-.68,2.06a6.05,6.05,0,0,0-.36,2.32Z"/><rect class="cls-2" width="57" height="14"/></g></svg>