<svg xmlns="http://www.w3.org/2000/svg" viewBox="0 0 34 14" preserveAspectRatio="none"><defs><style>.cls-1{fill:#fff;}.cls-2{fill:none;opacity:0.1;}</style></defs><title>アートボード 37</title><g id="letter"><path class="cls-1" d="M3.46,2.49c0-.43,0-.52-.26-.52H2.53c-.79,0-1,.72-1.34,2a.24.24,0,0,1-.4-.16C1,2.6,1.07,1.48,1.15.78A.18.18,0,0,1,1.3.69a.21.21,0,0,1,.15.07c.05.31.08.38.9.38h4c.72,0,.88,0,1-.4A.2.2,0,0,1,7.49.69a.21.21,0,0,1,.16.13,19.66,19.66,0,0,0-.16,3.09c-.06.16-.35.2-.4.06C6.9,2.81,6.75,2,5.94,2H5.29C5,2,5,2,5,2.49v7.94c0,1.67.07,1.82.55,1.93l.43.09a.86.86,0,0,1,0,.63C5.28,13,4.74,13,4.26,13s-1.08,0-1.84.06a.77.77,0,0,1,0-.63l.49-.09c.48-.09.55-.26.55-1.93Z"/><path class="cls-1" d="M21.15,7c0,3.92-1.58,6.28-3.9,6.28-2.17,0-3.75-2.38-3.75-6.14,0-3.56,1.6-6.32,3.86-6.32S21.15,3.37,21.15,7ZM17.27,1.68c-1.33,0-2,2.07-2,5.08,0,2.19.46,5.72,2.22,5.72,1.42,0,2-2.3,2-5.22C19.42,4.18,18.61,1.68,17.27,1.68Z"/><path class="cls-1" d="M28.21,4.06c0-1.82,0-2-.48-2.13l-.33-.07a.61.61,0,0,1,0-.61,19.79,19.79,0,0,1,2.5-.17,3.61,3.61,0,0,1,2,.47,3.47,3.47,0,0,1,1.32,3.12c0,3-1.78,3.38-2.35,3.38h-.35a.5.5,0,0,1,0-.49c.89-.47,1.08-1.53,1.08-2.86s-.41-2.78-1.38-2.78c-.4,0-.43.2-.43.92v7.6c0,1.67.07,1.82.56,1.94l.34.09a.58.58,0,0,1,0,.62C30.05,13,29.52,13,29,13s-1,0-1.62.06a.58.58,0,0,1,0-.62l.3-.09c.48-.14.55-.27.55-1.94Z"/><rect class="cls-2" width="34" height="14"/></g></svg>