<svg xmlns="http://www.w3.org/2000/svg" viewBox="0 0 500 300"><defs><style>.cls-1,.cls-2{fill:none}.cls-1{opacity:.18}.cls-3{fill:#fff}</style></defs><title>アートボード 15</title><path class="cls-1" d="M0 0h500v300H0z" id="レイヤー_2" data-name="レイヤー 2"/><g id="レイヤー_3" data-name="レイヤー 3"><path class="cls-2" d="M338.12 291.29c.5 0 .56-2.11.56-3.09v-1.1h-1.07v1.05c-.05 1.03.01 3.14.51 3.14zm-23.51-.99l-.18-.94c0-.18-.09-.2-.32-.2h-.78c-.16 0-.18 0-.22.22l-.26 1.27a2.16 2.16 0 0 0-.05.4s0 .05.05.07h1.86a.29.29 0 0 0 0-.09 6.37 6.37 0 0 0-.1-.73zm-1.29-2.06c-.06.3 0 .33.14.33h.62c.15 0 .18 0 .13-.31l-.13-.7h-.62zm24.8-3.13c-.29 0-.43.73-.5 1.53l1 .05c-.06-.82-.2-1.58-.5-1.58zM293 286.9l1.56.08v-.16c-.5.03-1.02.04-1.56.08zm34.51.67h.49c.18 0 .28 0 .35-.12h-1c.01.11.05.12.16.12zm25.05-32.21h-2c-.49 0-.6.12-.43 1.16l.57 3.24c.3 1.72.69 3.88.88 4.72.18-.92.61-3.08.94-4.92l.54-3c.15-1.08.05-1.2-.5-1.2zm22.51 2.11a1.74 1.74 0 0 0 1.65-1.12 9.12 9.12 0 0 0 .78-4.32c0-3.6-1.15-5.92-2.84-5.92-.89 0-.93.12-.93 2V256a5 5 0 0 0 .06 1l.39.07-.35.05c.17.3.46.35 1.24.35zm1.31 31.08h.25a.35.35 0 0 0 .27-.1.49.49 0 0 0 0-.25c0-.36-.12-.6-.35-.6s-.51.44-.51.79c.04.15.13.16.34.16zm-21.46 1.1a.69.69 0 0 0-.56.77c0 .35.16.66.34.66s.25-.19.25-.54v-.69c.05-.18.05-.21-.03-.2z"/><path d="M265.26 260.24c-.26 1.2-.61 2.56-.79 3.24-.15-.68-.41-1.88-.71-3.36l-1.91-9c-.52-2.41-.87-4.09-.87-4.41a.75.75 0 0 1 .55-.76l.65-.24a2 2 0 0 0 0-1.36c-1.32.08-2.25.12-3.25.12s-1.84-.08-2.95-.12a1.66 1.66 0 0 0-.08 1.36l.86.4c.7.32.81.4 1.63 4.24l3.51 16.29c.31 1.37.67 3.49.91 4.57a.68.68 0 0 0 .59.32 1 1 0 0 0 .76-.32c.31-1.39.64-3.14 1.12-5.42v-5.55zm33.21 9.76a5.09 5.09 0 0 0 3.69 1.52c2.2 0 3.92-1.46 4.8-3.92q0-4.11.08-8.22a9.55 9.55 0 0 0-2.48-4l-1.43-1.4a6.52 6.52 0 0 1-2-4.57c0-2 .78-3.72 2.21-3.72s2.49 2.92 2.86 5a.44.44 0 0 0 .85-.12 35.59 35.59 0 0 0-.39-5.73 3.31 3.31 0 0 1-.74-.32 5.16 5.16 0 0 0-2.47-.64c-3.14 0-5.05 3.12-5 7.65a10.12 10.12 0 0 0 3.27 7.8 8.28 8.28 0 0 1 2.95 6.36c0 2-.74 4.05-2.34 4.05-1.84 0-3.3-3.69-3.73-6.29a.38.38 0 0 0-.69-.12v3.72a11.37 11.37 0 0 0 .56 2.95zm56.22-16c.58-2.88 1-4.81 1.36-6.41s.81-1.88 1.33-2l.58-.12a1.74 1.74 0 0 0-.06-1.4c-1 0-1.5.12-2.24.12-.91 0-1.69 0-2.45-.12a2 2 0 0 0 0 1.4l.65.2c.61.2.89.44.89.68a8.23 8.23 0 0 1-.15 1.44l-.85 4.65c-.13.76-.19.8-.71.8h-2.58c-.76 0-.94-.08-1-.72l-.59-3.45c-.26-1.48-.41-2.44-.41-2.72s.09-.52.58-.68l.7-.2a1.44 1.44 0 0 0-.05-1.4c-1 .08-1.84.12-2.92.12s-2.3 0-3.34-.12a2 2 0 0 0 0 1.4l.82.24c.8.24 1 1.16 1.45 3.56l2.85 15.73c.54 2.85.8 4.33 1 5.49.08.6.22.8.5.8 0 0 .84-2 1.88-2.4a25 25 0 0 1 .81-5.09zm-3.15 10.48c-.19-.84-.58-3-.88-4.72l-.57-3.24c-.17-1-.06-1.16.43-1.16h2c.55 0 .65.12.46 1.2l-.54 3c-.29 1.84-.72 4-.9 4.92zm20.36-7.83c.63.08 1.26.19 1.89.3a5 5 0 0 1-.06-1v-7.8c0-1.92 0-2 .93-2 1.69 0 2.84 2.32 2.84 5.92a9.12 9.12 0 0 1-.78 4.32 1.74 1.74 0 0 1-1.65 1.12c-.78 0-1.11-.05-1.24-.4-.65.12-1.3.23-1.95.32-.09 2.9-.17 5.81-.31 8.72-.14-2.89-.22-5.78-.31-8.66h-.5V265c0 3.68-.13 4-1.11 4.28l-.59.2a2 2 0 0 0 0 1.4c1.13-.08 2.09-.12 3.17-.12s2 0 3.19.12a2.23 2.23 0 0 0 0-1.4l-.59-.2c-1-.32-1.1-.6-1.1-4.28v-4.93c0-.8 0-.88.8-.88.54 0 .89.32 1.15 1.41.5 2.12 1 4.08 1.69 6.2.95 2.88 2.21 4.2 4.21 4.2a3 3 0 0 0 1.71-.36 1.22 1.22 0 0 0-.09-1 2.23 2.23 0 0 1-1.45-1.12c-1-1.64-1.93-4.64-3.36-10-.11-.44-.11-.68.11-.88 1-.92 2.29-2.44 2.29-6a8.5 8.5 0 0 0-1.9-5.92 5.78 5.78 0 0 0-4.25-1.44c-.89 0-1.69 0-2.46.08l-.18 9.26c0 1-.07 2.02-.1 3.03zm35.24-13.26a.38.38 0 0 0-.29.12c-.19.84-.51.88-2 .88h-8.06c-1.65 0-1.72-.16-1.82-.84a.37.37 0 0 0-.31-.16.41.41 0 0 0-.3.2c-.15 1.56-.26 4-.72 6.8.13.52.55.6.81.36.65-2.92 1.1-4.52 2.68-4.52h1.35c.52 0 .52.2.52 1.16V265c0 3.72-.13 4.08-1.11 4.28l-1 .2a1.88 1.88 0 0 0 0 1.4c1.52-.08 2.64-.12 3.68-.12s2.06 0 3.47.12a2.23 2.23 0 0 0 0-1.4l-.86-.2c-1-.24-1.11-.56-1.11-4.28v-17.61c0-1 .07-1.16.59-1.16H404c1.62 0 1.93 1.88 2.3 4.44.1.32.69.24.8-.12a51.83 51.83 0 0 1 .32-6.88.43.43 0 0 0-.28-.28zm-154.05 48.43h.59l1.38-7.61h-.59l-1.38 7.61zm11.19-4.44l-.44-.39a1.72 1.72 0 0 1-.6-1.25c0-.55.24-1 .68-1s.76.81.87 1.37a.13.13 0 0 0 .25 0 9.31 9.31 0 0 0-.11-1.57.84.84 0 0 1-.23-.09 1.69 1.69 0 0 0-.75-.17c-1 0-1.54.85-1.53 2.1a2.66 2.66 0 0 0 1 2.14 2.2 2.2 0 0 1 .9 1.75c0 .55-.22 1.11-.71 1.11s-1-1-1.14-1.72c0-.12-.2-.11-.25 0a5.77 5.77 0 0 0 .21 1.78 1.65 1.65 0 0 0 1.13.42 1.58 1.58 0 0 0 1.5-1.2v-2a2.67 2.67 0 0 0-.78-1.28zm30.31-.38l1.42.08-.07-.07-.23-.23-1.14.06c.01.03.01.09.02.16zm14.28 3.4v-.62c0-.59 0-.7.24-.75h.15a.5.5 0 0 0 0-.38h-1.98a.33.33 0 0 0 0 .38l.29.07c.31.07.35.14.35.73v.7c0 .66-.07.81-.39.83l1.49-.08a.22.22 0 0 0 0-.1c-.14-.1-.15-.32-.15-.78zm-4.07-3h1.03a3.6 3.6 0 0 1 .84-2.45v-.64a2.13 2.13 0 0 0-.76.45 4 4 0 0 0-1.11 2.64zm2.63 3.91a1.21 1.21 0 0 1-.87-.41l-.06-.09v.55zm4.65-.6a1.09 1.09 0 0 1-.2.42h.7a.1.1 0 0 1-.05-.07 1.52 1.52 0 0 1 .05-.4l.28-1.27c0-.21.06-.22.24-.22h.9c.25 0 .31 0 .35.2l.19.94a6.18 6.18 0 0 1 .14.75.16.16 0 0 1 0 .09h1.31c-.17-.12-.24-.38-.36-.91l-.61-2.69h-1l.15.7c.06.28 0 .31-.15.31h-.67c-.18 0-.22 0-.15-.33l.15-.69h-.37l-.34 1.4c-.3.8-.44 1.33-.56 1.77zm8.34-.65c0 1 0 1.12-.34 1.18l-.3.05v.06c.74 0 1.49.11 2.23.19a.45.45 0 0 0 0-.25l-.26-.05c-.3-.07-.34-.16-.34-1.18v-2.5h-.94zm7.58-2.49h-.46c-.11 0-.15 0-.17-.1h-1v2.57c0 1 0 1.08-.34 1.16l-.31.07a.53.53 0 0 0 0 .39h3.53a9.51 9.51 0 0 0 .27-1.76c0-.14-.19-.18-.24-.06-.36 1.24-.59 1.28-1.16 1.28s-.61-.09-.7-.29a3.2 3.2 0 0 1-.1-1v-1.33c0-.33 0-.34.18-.34h.5c.34 0 .42.08.49.61v.28a.13.13 0 0 0 .24 0v-1.59h-.4c-.08.09-.18.11-.33.11zm10.12-2.46c.3 0 .44.76.51 1.58l.9.05c-.2-1.17-.64-2.14-1.41-2.14s-1.17.89-1.38 2h.88c.07-.76.21-1.49.5-1.49zm.56 3.09c0 1-.06 3.09-.56 3.09s-.56-2.11-.56-3.09v-1.05l-.93.05a8.39 8.39 0 0 0-.06 1c0 1.77.45 3.6 1.52 3.6s1.53-1.83 1.53-3.6a11.09 11.09 0 0 0-.07-1.15l-.92.05c.05.41.05.81.05 1.1zm11.03-3.56a2.15 2.15 0 0 0-1.21-.29 11.32 11.32 0 0 0-1.53.1.38.38 0 0 0 0 .37l.2.05c.28.05.29.18.29 1.3v3.89c0 1 0 1.1-.33 1.19l-.19.05a.35.35 0 0 0 0 .38h2a.37.37 0 0 0 0-.38l-.21-.05c-.3-.08-.34-.17-.34-1.19v-4.64c0-.44 0-.56.26-.56.59 0 .84.88.84 1.69s-.11 1.46-.66 1.75a.35.35 0 0 0 0 .3h.21c.35 0 1.44-.27 1.44-2.07a2.1 2.1 0 0 0-.77-1.89zm6.35 6.44c-.14 0-.33-.19-.3-.94l.05-1.46c0-1.13-.3-1.59-.85-1.59a1.52 1.52 0 0 0-1.11.67 1.58 1.58 0 0 0-.32.85c0 .15 0 .27.15.27a.86.86 0 0 0 .48-.25.6.6 0 0 0 .11-.35c.05-.48.19-.63.35-.63s.38.53.38 1v.37a.24.24 0 0 1-.16.22l-.62.31a1.12 1.12 0 0 0-.69 1.14c0 .77.36 1.16.74 1.16a.83.83 0 0 0 .56-.35c.07-.08.11-.13.14-.13s.06 0 .11.09c.17.26.32.39.55.39s.69-.42.77-.6 0-.23-.08-.25-.18.08-.26.08zm-1.11-.54c0 .35 0 .54-.25.54s-.34-.31-.34-.66a.69.69 0 0 1 .56-.77c.05 0 .05 0 .05.2zm6.05-3.45c-.28 0-.47.36-.65.55-.05 0-.06-.06-.06-.13v-.48a.13.13 0 0 0-.12-.1 3.74 3.74 0 0 1-1 .67.38.38 0 0 0 0 .33l.09.09c.13.14.13.27.13.71v1.66c0 .77 0 .87-.25.9h-.12a.44.44 0 0 0 0 .39h1.68a.53.53 0 0 0 0-.39h-.21c-.22 0-.24-.12-.24-.89v-1.7c0-.42 0-.66.12-.66s.1 0 .25.22.17.19.26.19.42-.21.42-.71-.14-.65-.3-.65zm4.79 3.91c-.46 0-.46-.68-.46-1.3v-1.65c0-.24 0-.25.09-.25h.58a.68.68 0 0 0 .09-.39.38.38 0 0 0-.05-.21h-.59c-.12 0-.12 0-.12-.22v-.82a.14.14 0 0 0-.2-.06 3.22 3.22 0 0 1-.49.86 2.6 2.6 0 0 1-.55.5.34.34 0 0 0 0 .34h.2c.12 0 .13 0 .13.25v2.45c0 .73.19 1.26.74 1.26a1.16 1.16 0 0 0 1-.64.34.34 0 0 0-.09-.29.45.45 0 0 1-.28.17zm6.36.27c-.23 0-.26-.13-.26-.9v-1.89c0-.76-.28-1.39-.83-1.39a1.34 1.34 0 0 0-.76.44s-.1.09-.12.09 0 0 0-.09v-.5c0-.16-.07-.1-.12-.1a4.15 4.15 0 0 1-1 .64.38.38 0 0 0 0 .33l.09.1c.13.13.13.27.13.71v1.66c0 .77 0 .86-.27.9h-.1a.44.44 0 0 0 0 .39 6.46 6.46 0 0 1 .78 0 5 5 0 0 1 .74 0 .45.45 0 0 0 0-.39h-.1c-.17 0-.19-.13-.19-.74v-2a1 1 0 0 1 .05-.4.42.42 0 0 1 .37-.27c.33 0 .46.35.46.78v1.86c0 .61 0 .69-.18.73h-.12a.48.48 0 0 0 0 .39 5 5 0 0 1 .71 0 5.88 5.88 0 0 1 .8 0 .48.48 0 0 0 0-.39zm5.42-.98c-.18.51-.43.57-.61.57-.62 0-.93-.8-.93-1.63 0-.17 0-.19.16-.19h1.27c.21 0 .24-.16.24-.37 0-.84-.37-1.58-1.06-1.58s-1.43 1.08-1.43 2.46c0 1.2.49 2.25 1.38 2.25.39 0 .88-.32 1.15-1.26 0-.18-.09-.27-.17-.25zm-1-2.69c.23 0 .35.24.35.6a.49.49 0 0 1 0 .25.35.35 0 0 1-.27.1h-.25c-.21 0-.3 0-.3-.16-.02-.39.22-.79.49-.79zm5.95-.51c-.28 0-.47.36-.65.55-.05 0-.06-.06-.06-.13v-.48c0-.06-.07-.1-.12-.1a3.8 3.8 0 0 1-1 .67.38.38 0 0 0 0 .33l.09.09c.13.14.13.27.13.71v1.66c0 .77 0 .87-.25.9h-.12a.48.48 0 0 0 0 .39h1.67a.45.45 0 0 0 0-.39H382c-.22 0-.24-.12-.24-.89v-1.7c0-.42 0-.66.12-.66s.1 0 .25.22.17.19.26.19.43-.21.43-.71-.12-.65-.3-.65zm4.48 1.69a.88.88 0 0 1-.42-.7c0-.3.14-.48.33-.48s.38.23.51.86a.13.13 0 0 0 .23 0 4.68 4.68 0 0 0-.1-1.1 1 1 0 0 0-.7-.23c-.57 0-1 .46-1 1.42a1.65 1.65 0 0 0 .68 1.38 1 1 0 0 1 .43.83c0 .37-.14.57-.34.57s-.59-.65-.67-1.1a.12.12 0 0 0-.23 0 4.5 4.5 0 0 0 .11 1.25 1 1 0 0 0 .82.34c.62 0 1.12-.5 1.13-1.48a1.85 1.85 0 0 0-.78-1.56zm-29.39-144.41h12.16v-3.22l-.07-12.13h1.44a19.89 19.89 0 0 1 3.28-2.75 1.88 1.88 0 0 0 .26-.22 9.36 9.36 0 0 1 1.42-1.13 16.38 16.38 0 0 0 1.92-1.52 1.66 1.66 0 0 0 .31-.4 3 3 0 0 0 .67.38 1.88 1.88 0 0 0 .68.14h.17a1.85 1.85 0 0 0 1.08.33 2.17 2.17 0 0 0 1.44-.58l.14.07h.1a3.37 3.37 0 0 1 .35.22 4.08 4.08 0 0 0 1.32.66 7.43 7.43 0 0 0 1.93.22 9 9 0 0 0 3.94-.78c.38-.23.73-.44 1.06-.67a1.74 1.74 0 0 0 1.05.35 1.78 1.78 0 0 0 .86-.22 4.56 4.56 0 0 1 .81-.26c1-.27 2.93-.78 3.3-2.89a1.83 1.83 0 0 0 0-.66 3.5 3.5 0 0 0-.46-1.16v-.08h-.94l-28.57-.07h-9.54l-.13 23.16zm-12.37 5.06l-.24 33.76a2.64 2.64 0 0 0 1.2-.68 2.26 2.26 0 0 0 .4-.57 7.08 7.08 0 0 0 1.79.22 4.85 4.85 0 0 0 1.56-.23 3.42 3.42 0 0 0 1.41.3 3.09 3.09 0 0 0 3.2-2.81 1.74 1.74 0 0 0 .09-1.13 1.67 1.67 0 0 0-.05-.18h.23a.69.69 0 0 0 0 .13c.21 1.22.52 3.06 2 3.85a1.8 1.8 0 0 0 .84.21h.12v-9.69c-.91-.1-1.83-.21-2.74-.37.91-.17 1.82-.28 2.74-.38l-.15-27.41-12.36-.06zM449.86 131h-3.06c-1.16 0-2.16 0-3 .1a4.22 4.22 0 0 0-1.09.21 2.88 2.88 0 0 1-.45.09 22 22 0 0 1-2.9.16c-1.24 0-2.55-.07-3.82-.13s-2.51-.12-3.69-.12c-.78 0-1.45 0-2.12.08a4 4 0 0 1-.6-.07 6.34 6.34 0 0 0-1.48-.1 4.48 4.48 0 0 1-.64 0 6.42 6.42 0 0 0-1.24 0 8.12 8.12 0 0 0-1.3.29 4.13 4.13 0 0 1-.86.18h-.12a2 2 0 0 0-.85 0 2.88 2.88 0 0 0-.93.45 28.19 28.19 0 0 1-4.4 0 30.75 30.75 0 0 0-4.38 0 6.63 6.63 0 0 0-1.07.18c1.65.06 3.31.09 5 .1h.92l-.09 5v1.43c3.93.09 8.44.21 13 .41h22.83l.09-8.09c-1.33-.17-2.54-.17-3.75-.17zm-79.28 15a2 2 0 0 0 .68-.52 1.69 1.69 0 0 0 .41-.61c.1-.07.28-.17.41-.24l.37-.23h-2.68v2.09a6.12 6.12 0 0 0 .81-.49z"/><path d="M358.92 172.65l-.18 9.4a1.78 1.78 0 0 0 1.09-.14 3.07 3.07 0 0 0 1.31.29 7.16 7.16 0 0 0 .9-.08h.41a3.3 3.3 0 0 0 .95.13 4 4 0 0 0 1.37-.25 3.31 3.31 0 0 0 1.32.3 2.79 2.79 0 0 0 .64-.07 3.3 3.3 0 0 0 2.51-2.58 2.66 2.66 0 0 0 .26.6c0-1.82.06-3.64.08-5.46v-3.17c-1.52-.1-3-.16-4.56-.17-1.75 0-3.49.06-5.23.18v-.37c-.14-4.23-.23-8.46-.43-12.69-.19 4.23-.28 8.46-.42 12.69v.45l-1.18.12v.75c.39-.01.77.04 1.16.07zM342.43 83.4q-.12-8.06-.29-16.11c-.13 5.36-.22 10.72-.3 16.08h-1.07l-6.77-.23c-4.6-.14-9.14-.14-13.69-.14-3.11 0-6.23 0-9.34.08l-.21-10.31-.2 10.32c-1.3 0-2.59 0-3.89.07-2.28 0-4.56.11-6.84.2v-6.25l-.1-9.25-.13-6.53 2.91.15c1.6.06 3.2.07 4.81.08s3.21 0 4.81-.08l2.41-.11 1.21-.08a96.17 96.17 0 0 0-.2 3.79c-.07 1.67-.08 3.33-.09 5v2.08c-.25 0-.51.08-.76.14l.76.13c0 .88 0 1.76.07 2.64l.1 2.5c.06.84.1 1.67.18 2.5.09-.83.12-1.66.18-2.5l.11-2.5c0-.85.05-1.69.06-2.54.87.09 1.74.13 2.61.14a25.54 25.54 0 0 0 2.76-.16c.05.79.11 1.59.21 2.38q.13-1.22.21-2.43l.9-.16c-.3-.07-.59-.11-.88-.16.09-1.55.13-3.1.14-4.65 0-2-.07-4.08-.25-6.12a22.59 22.59 0 0 0 2.47.15c.6 0 1.21 0 1.82-.08v3.08-3.08a13 13 0 0 0 1.82-.29 12.72 12.72 0 0 0-1.82-.28l.15-14.48.1-18.14.05-19.92h-2.69c-2.13 0-4.24.07-6.27.2a9.41 9.41 0 0 0-2.69-.29 94 94 0 0 0-15.32 2c-2.46.61-4.82 1-7.1 1.32a57.84 57.84 0 0 0-9.36 2l-.21.08v.6c0 1.73 0 3.46.08 5.18l.11 2.59v.46c-.68-.06-1.37-.08-2.06-.09a23.68 23.68 0 0 0-2.91.18c0-1.29 0-2.59-.06-3.88 0 1.3 0 2.59-.05 3.89l-1.06.18c.36.08.71.14 1.06.19q-.17 10.83-.23 21.66l-.08 25.91.08 25.91.1 13v2.9l-1 .06h1l.13 9.94.14-9.92c1.68.1 3.37.16 5.05.21 2.09.07 4.19.08 6.29.09s4.2 0 6.29-.09l3.15-.1h.26v1.69c.06 6.17.13 12.34.29 18.51.15-6.17.22-12.34.28-18.51v-1.72c.76 0 1.53-.07 2.3-.13-.77-.06-1.54-.1-2.3-.14l.07-16.52.09-11.69c2.28.09 4.56.15 6.84.2 1.29 0 2.58 0 3.87.07l-.11 5.55-.19 17-.16 34.1v3.26l-5.27-.21-.05-22.27-.09-24-.09 24-.03 22.3h-.85l-7.11-.17-14.21-.13-14.21.14-3.81.08.07-12.13c-.07-11.18-.06-22.36-.2-33.54q-.17-13.87-.52-27.75c1.4-.13 2.81-.3 4.21-.56-1.41-.25-2.83-.42-4.24-.55 0-1.56-.07-3.11-.12-4.67-.05 1.55-.07 3.1-.11 4.65-2.29-.2-4.57-.28-6.85-.3-1.07 0-2.14 0-3.21.07-.08-3.79-.16-7.59-.28-11.39-.12 3.81-.2 7.61-.28 11.42a57 57 0 0 0-7.56.77 54.94 54.94 0 0 0 7.53.78c0 1.84-.07 3.69-.11 5.54l-.25 18.51-.2 37 .21 37q.12 11.28.34 22.56c-1.06.13-2.11.29-3.16.52a32 32 0 0 0 3.18.53c.09 4.35.17 8.71.29 13.06.09-2.24.41-6.84.88-12.92.79.07 1.59.12 2.38.15v10.61l1.12-.32c1.56-.4 3.7-1 5-3.34a1.8 1.8 0 0 0-.25-2.06 1.37 1.37 0 0 0-.25-.23 3.42 3.42 0 0 0 .19-.44 1.83 1.83 0 0 0 1.57.07l.35-.12a4.46 4.46 0 0 0 1.38-.63l.76-.3c.27-.1.71-.28.92-.34a1.83 1.83 0 0 0 1.29-.57 5.23 5.23 0 0 1 2-.81 14.07 14.07 0 0 0 2.4-.84l.12-.06a6.25 6.25 0 0 1 1.32-.46 8.65 8.65 0 0 0 2.23-.82 2 2 0 0 0 .66-.68 1.81 1.81 0 0 0 1-1.79.25.25 0 0 1 0-.08l.4-.16a1.8 1.8 0 0 0 .33-3.17l.05-.23a1.82 1.82 0 0 0-.24-1.17q2.33-1.29 4.65-2.61h.05a4.39 4.39 0 0 0 .69-.06h.11a2.93 2.93 0 0 0 1 .16 2.22 2.22 0 0 0 1.37 2.13 1.79 1.79 0 0 0 1.8 1.78 1.69 1.69 0 0 0 .58-.1l.31.05a1.06 1.06 0 0 0 .25 0 1.79 1.79 0 0 0 1.8-1.8 1.09 1.09 0 0 0 0-.18l.46-.29c.25-.15.5-.31.74-.48h.08a1.8 1.8 0 0 0 1.62-.65 5 5 0 0 0 2.55.66 3.59 3.59 0 0 0 2.74-1.05 2.43 2.43 0 0 0 .38 0 4.58 4.58 0 0 0 1.18-.16 2.72 2.72 0 0 0 .77-.34 4.53 4.53 0 0 0 1.83.34 8.64 8.64 0 0 0 1.15-.09v-12.09c1.34.05 2.67.08 4 .09h1.36v5q0 3.44.08 6.87a3.33 3.33 0 0 0 .83.12 2.83 2.83 0 0 0 1-.17 3.55 3.55 0 0 0 1.66.41 3.73 3.73 0 0 0 .94-.12 3.3 3.3 0 0 0 2.39-3.76 4.82 4.82 0 0 0-.15-.68h.07a.21.21 0 0 0 0 .08 1.79 1.79 0 0 0 .93 1.4 4.88 4.88 0 0 0 .21 1.24 1.58 1.58 0 0 0 .23.47 2.79 2.79 0 0 0 2.32 1.18 3.46 3.46 0 0 0 .92-.13 3.1 3.1 0 0 0 1.27.27 3.77 3.77 0 0 0 1.12-.17 3.3 3.3 0 0 0 .95.13 4 4 0 0 1 2.59 0 3.29 3.29 0 0 0 2.35-.9 2.81 2.81 0 0 0 .78-1.65h.45a1.83 1.83 0 0 0-.55 1.28 2.19 2.19 0 0 0 .65 1.56 3.32 3.32 0 0 0 2.33.85 3.07 3.07 0 0 0 2.25-.84 1.94 1.94 0 0 0 .45-.66 3.63 3.63 0 0 0 1.44.29 3.74 3.74 0 0 0 1.51-.32 3.26 3.26 0 0 0 1.65.45 2.09 2.09 0 0 0 .51-.08 2.51 2.51 0 0 0 .26.31 2.75 2.75 0 0 0 .92.6l.1-9.42.16-35.46-.16-35.46q-.09-9.42-.22-18.84l3-.15v-.22c-1-.02-1.99-.08-2.99-.12zm-37.59 67.77v-6.69l5.27-.21v6.66c-1.75.07-3.51.07-5.27.24zm66.73 14.93c.08 1.87.12 3.74.19 5.62 1.09.11 2.19.24 3.29.44-1.09.19-2.18.33-3.27.43.11 3.14.19 6.28.27 9.42a3.08 3.08 0 0 0 .61.06 3.38 3.38 0 0 0 .9-.13 1.82 1.82 0 0 0 1 .28 1.78 1.78 0 0 0 .71-.15.58.58 0 0 1 .25 0 3.74 3.74 0 0 1 .49 0h.68a3.14 3.14 0 0 0 .83-.12 4.52 4.52 0 0 0 1.27.22 2.39 2.39 0 0 0 .86-.15 1.29 1.29 0 0 0 .34 0h.71a4.54 4.54 0 0 0 .59 0v-21.46H380l-2.46-.07-2.46-.11 2.46-.12 2.46-.06h1.23v-9.95a1.58 1.58 0 0 0-.68-.16h-6.27a1.79 1.79 0 0 0-1.76 1.43 2.14 2.14 0 0 0-.19.82 2.31 2.31 0 0 0-1.05-1.15 3.27 3.27 0 0 0 0-.54 1.8 1.8 0 0 0-1.05-1.47l-.44-.16c0 7.52-.07 15-.15 22.55.6 0 1.19.06 1.78.11.03-1.86.07-3.68.15-5.58zM82.07 60.2a1.81 1.81 0 0 0-1.33-1 4 4 0 0 0-3.21.64 2.77 2.77 0 0 0-.3 0c0 1.44.08 2.89.13 4.33 1.1.13 2.2.28 3.29.51a36.7 36.7 0 0 1-3.26.5q.26 9.18.39 18.37a4.58 4.58 0 0 0 1.35.07 1.77 1.77 0 0 0 1.32.82h.34a2.62 2.62 0 0 0 1.41-.4 2 2 0 0 0 .37 0A1.94 1.94 0 0 0 83 84V60.7a4.69 4.69 0 0 0-.73-.43zM83.19 84l.28-.1a3.52 3.52 0 0 0 .67-.43v-1.11c.06-5.61.13-11.21.29-16.82.16 5.61.23 11.21.29 16.82v.51c.07-.07.13-.15.18-.21a2.43 2.43 0 0 1 .2-.25 1.74 1.74 0 0 0 .44-.69 2.93 2.93 0 0 0 1-1.91 1.87 1.87 0 0 0-.13-.87c0-.09.12-.18.17-.26a5 5 0 0 0 .9-2.27 6.18 6.18 0 0 0-.48-2.72 5.85 5.85 0 0 1-.28-.93 1.8 1.8 0 0 0-1.35-1.45v-.23a8.51 8.51 0 0 0-.14-.89 7.1 7.1 0 0 0 .23-2.51v-.52a7.37 7.37 0 0 0 .75-4.25 1.79 1.79 0 0 0-1.53-1.61c-.16 0-.3-.08-.44-.12a6.53 6.53 0 0 0-1-.24v8.15zM64.54 64.11v-.52c0-.9 0-1.8.07-2.7a1.87 1.87 0 0 0-.53.39h-.38a1.81 1.81 0 0 0-1.4.72 1.8 1.8 0 0 0-1.41-.68h-.19v3.38c1.3-.3 2.56-.46 3.84-.59zM105 85.82h5.21v-4.25a1.87 1.87 0 0 0-.32.31 4.23 4.23 0 0 0-.86 1.65h-.05a2.28 2.28 0 0 0-.45-1.26 2.33 2.33 0 0 0-1.66-.88 13.18 13.18 0 0 0-.19-1.75 1.79 1.79 0 0 0-1.77-1.48h-.85c0 2.53 0 5.07-.06 7.61zM65.41 64c1.74-.14 3.49-.2 5.23-.21 2.11 0 4.23.1 6.34.32 0-1.43.09-2.87.13-4.31h-.19a2.41 2.41 0 0 0-1.2.33 1.58 1.58 0 0 0-.31-.26 4.21 4.21 0 0 0-1.63-.64 3.65 3.65 0 0 0-2.34-1.14 1.82 1.82 0 0 0-2 1.76 1 1 0 0 1-.05.23 7.11 7.11 0 0 0-.14.7 31.38 31.38 0 0 0-3.91-.06c0 1 0 1.91.07 2.87zm16.75 61.76v-.09l.74-.38a1.79 1.79 0 0 0 .93-1.07 1.81 1.81 0 0 1 .37-.64l-.05-7.58-.09-16.82v-5a5.76 5.76 0 0 0-.91-.94L83.08 117 83 93.11a4.39 4.39 0 0 0-.93-.52 2.37 2.37 0 0 0-1.31-1.25 2.33 2.33 0 0 0-.68-.63 6 6 0 0 0-1.5-.59c-.23-.07-.48-.14-.65-.21.09 8.44.1 16.88.16 25.33q0 5.34-.05 10.68c1.34-.09 2.73-.12 4.12-.16z"/><path d="M345.44 75.17v8.38c.73 0 1.46.06 2.18.11-.72 0-1.45.07-2.18.11l-.09 34.33 12.4-.06.07-13.86q.13-11.27.35-22.55a31.09 31.09 0 0 1-3.17-.53 29.25 29.25 0 0 1 3.18-.52c.09-4.47.17-8.94.3-13.41.06 2.09.39 6.86.89 13.27.79-.07 1.59-.12 2.38-.15v-19c-1.63 0-3.25 0-4.88-.07h-.61c0 1.71 0 3.42-.06 5.14 0-1.72-.05-3.43-.07-5.15l-1.95-.06c-.9-.06-1.79-.09-2.69-.17.9-.08 1.79-.11 2.69-.16l1.94-.07q-.12-9.37-.18-18.75l-.08-24.36v-5.65a1.42 1.42 0 0 0-.22-.07l-.11-.07a3.64 3.64 0 0 0-1.3-.52 1.81 1.81 0 0 0-1.08.17 1.72 1.72 0 0 0-1.67 0l-.17.08a2 2 0 0 0-1.12.14 1.76 1.76 0 0 0-1 1.11q-2-.66-4-1.26zm-86.18-52.59l-.11.05.06 5.47zM78 126.6v2.53a2.26 2.26 0 0 0 1.1.3h.21a1.83 1.83 0 0 0 .87-.31 5.18 5.18 0 0 0 1.92-3L78 126v.45l.93.08zm32.16 12.25v-5.73c-.77 0-1.57 0-2.39-.05s-1.67 0-2.49 0H87.67q.12 3 .19 6.07h2.87a2.37 2.37 0 0 0 1.45-.17 4.66 4.66 0 0 0 1 0h.22a1.29 1.29 0 0 0 .44 0 2 2 0 0 0 .86-.27c4.54.15 9.53.17 15.46.15zm-1.37 10.72a.66.66 0 0 0 0 .14 1.18 1.18 0 0 0-.14.22 2 2 0 0 0-.31-.53 2 2 0 0 0-.91-.64 2.18 2.18 0 0 0-.44-.71 2.08 2.08 0 0 0-1.52-.63 1.67 1.67 0 0 0-.37 0 1.75 1.75 0 0 0-.62.21l-.25.18a4.3 4.3 0 0 0-1.73-.32 9.71 9.71 0 0 0-1.9.21 1.86 1.86 0 0 0-.25.1c1 .12 2 .26 3 .46-1.09.23-2.18.38-3.27.51 0 .89 0 1.78.07 2.67l.13.08-.13.1.09 3.45a5.42 5.42 0 0 0 2.38.5 3.77 3.77 0 0 0 2.06-.5 3 3 0 0 0 1.32.31 3.14 3.14 0 0 0 2.89-1.78 2.38 2.38 0 0 0 1.48 1.69l-.09-7.53a2.08 2.08 0 0 0-1.49 1.81zm322.96 19.36a3.44 3.44 0 0 0 .77-.09 3 3 0 0 0 .6-.21 10.31 10.31 0 0 0 2.42.26 18.07 18.07 0 0 0 3.16-.3 1.8 1.8 0 0 0 1.47-1.77v-.67a1.8 1.8 0 0 0-.54-1.28 2.16 2.16 0 0 0-.81-.5 3 3 0 0 0-.31-1.16 1.79 1.79 0 0 0-.94-.86 1.82 1.82 0 0 0-1.34-.22 4.45 4.45 0 0 1-1.36.07 8.54 8.54 0 0 0-1.68 0h-.16a3.54 3.54 0 0 0-2.27-.14s0-.08-.05-.11a2.63 2.63 0 0 0-2.37-1.16 2.89 2.89 0 0 0-1.69.49 1.67 1.67 0 0 0-.53.62 1.84 1.84 0 0 0-.87.07h-.73a3.74 3.74 0 0 0-.52 0 1.82 1.82 0 0 0-.36-.51 1.72 1.72 0 0 0-1-.5 2.64 2.64 0 0 0-1.52-.11 1.83 1.83 0 0 0-.88.49 2.32 2.32 0 0 0-.43.64h-2.44v6.75a1.83 1.83 0 0 0 .46.07 1.73 1.73 0 0 0 .83-.21h.18a1.73 1.73 0 0 0 1.16-.18h.07a9.9 9.9 0 0 0 2 .23 4.68 4.68 0 0 0 1-.09 1.71 1.71 0 0 0 .45 0h1.07a4.41 4.41 0 0 0 1.72-.31 4.34 4.34 0 0 0 1.89.4 4.93 4.93 0 0 0 1.91-.38 3.24 3.24 0 0 0 1.64.67zm-21.58-36.43h-.26v6.14h.24zm54.69-49.6h.19v-9.49h-.11v8.27zm-71.17-9.41v-1.71h-.01l.01 1.71zM416.15 168a2.88 2.88 0 0 0 .51.47v-6.36h-.07a1.79 1.79 0 0 0-1 .38c-.06 1.87-.11 3.73-.16 5.6.21-.04.47-.09.72-.09z"/><path d="M386.46 56.34l-.29-.42-.26-.35a5.17 5.17 0 0 1-.6-.93 1.93 1.93 0 0 0-.37-.71 2.74 2.74 0 0 0-.73-1 2.1 2.1 0 0 0 .15-.3 1.79 1.79 0 0 0 1-1.32c.09-.57.18-1.18.26-1.77l.1-.71a1.77 1.77 0 0 0-.34-1.35A1.77 1.77 0 0 0 386 46a1.81 1.81 0 0 0-.27-.93 1.79 1.79 0 0 0-.37-1 .61.61 0 0 0 0-.14 2.45 2.45 0 0 0-.06-.5h-4.63V31.04h-.75a2.62 2.62 0 0 0-1.34-.83h-.07a3.55 3.55 0 0 0-.43-.28 1.56 1.56 0 0 0-.16-.2 1.6 1.6 0 0 0-.28-.4 2.3 2.3 0 0 0-.65-1.82 1.82 1.82 0 0 0-.26-1 1.64 1.64 0 0 0-.47-.54v17.55h-2.69v11.9h-2.84l-5.73.18-5.67.26 5.67.26 5.66.15h2.84v35.71h.08V56.3l8.27.09z"/><path d="M372.07 20.94a2 2 0 0 0-.9.06 2.51 2.51 0 0 1-.53.13v.15l-.08 22.26h3V22a2.16 2.16 0 0 0-1.49-1.06zM442 106.43a1.68 1.68 0 0 0 .49-.17 4.33 4.33 0 0 0 .82 0h.05a2 2 0 0 0 1.36-.54 7.09 7.09 0 0 0 2.34-.47l.29-.09a5.09 5.09 0 0 0 1.06.15 2.26 2.26 0 0 0 1.68-.68 2.28 2.28 0 0 0 .53-1q1.64.07 3.33.12a1.76 1.76 0 0 0 .42.92 1.81 1.81 0 0 0 1.33.58 3.84 3.84 0 0 0 1.07.35h.15a7.9 7.9 0 0 0 .85.07 2.35 2.35 0 0 0 2.49-2l-3.47-.08-14.21-.14-14.21.14-3.81.09.07-12.14v-1.42a4.65 4.65 0 0 0-1.8.82v5.73c-.29 2.14-.47 4.29-.6 6.43-.52 0-1-.09-1.55-.12 0 .2-.09.42-.16.65a6 6 0 0 0-.32 2 2.29 2.29 0 0 0-.41 1.55A4.46 4.46 0 0 0 421 110a1.67 1.67 0 0 0 .11.73 2.16 2.16 0 0 1 .05.27 2.67 2.67 0 0 0 2.07 2.55 1.73 1.73 0 0 0 .32 0v.1c.11.32.22.63.35.92.25.56.56 1.1.85 1.61s.46.81.67 1.25a1.79 1.79 0 0 0 .43.56 4.47 4.47 0 0 0 .35.29 2.8 2.8 0 0 0 1 1 7 7 0 0 0 1.8 1.5 2.36 2.36 0 0 0 .65.65 1.82 1.82 0 0 0 1.74.92 5.43 5.43 0 0 1 1.21.06 5.27 5.27 0 0 0 1.53 0l.14.06a1.81 1.81 0 0 0 .9.24 1.85 1.85 0 0 0 .86-.21 2.15 2.15 0 0 0 .46-.33 2 2 0 0 0 1.07-.53l.06-.06a2.54 2.54 0 0 0 1.45-.75 2.29 2.29 0 0 0 2.38-1 1.85 1.85 0 0 0 .27-.85 2 2 0 0 0 .15-.69 4.84 4.84 0 0 0 .24-.46 1.8 1.8 0 0 0-.16-1.67 1.22 1.22 0 0 0-.19-.38 3.9 3.9 0 0 0-1.9-1.41 2.7 2.7 0 0 0-.47-.53 1.78 1.78 0 0 0 1-1.45 13.92 13.92 0 0 0-.47-4.64 2.25 2.25 0 0 0 .66-.31 1.8 1.8 0 0 0 1.42-1.01zm-68.33-7.31h-.05v9.1zm44.24 25.44v-1.62 1.66zm-36.72 13.79v.65a2.35 2.35 0 0 0 .5-.05h1.82c.44 0 1.16.12 1.77.2.77.1 1.56.21 2.41.24s1.54 0 2.31 0v-7l-8.82-.19zm81.5-34.35a1.87 1.87 0 0 0 .71-.14h-1.84a3.31 3.31 0 0 0 1.12.19zM410 162.1v6.48-6.47zm-13.95-6.61a4.17 4.17 0 0 0 2.19-.51 3 3 0 0 0 1.49.41 3 3 0 0 0 1-.19 3.34 3.34 0 0 0 1.4.3 3.7 3.7 0 0 0 1.2-.22 2.86 2.86 0 0 0 .72.19V154l-11.47-.22 11.46-.21c0-1 0-2-.05-3v-1.3a3.54 3.54 0 0 0-1.8-.49 3.67 3.67 0 0 0-.94.12 2.52 2.52 0 0 0-.33-.14 2.24 2.24 0 0 0-.42-.65 2.22 2.22 0 0 0-1.55-.68 1.5 1.5 0 0 0-.37 0 2 2 0 0 0-1.12.62 2.27 2.27 0 0 0-1.43-.51 2.42 2.42 0 0 0-2.06 1.19 2.69 2.69 0 0 0-.82-.14h-.21a2.94 2.94 0 0 0-.65.16 2.59 2.59 0 0 0-1-.16 2.33 2.33 0 0 0-1.29-1v7.8h2.41a2 2 0 0 0 .35 0 1.78 1.78 0 0 0 .4 0h.71a3.65 3.65 0 0 0 .88-.1 5.66 5.66 0 0 0 1.3.2zm-.62-6.85v.11h-.18a.93.93 0 0 1 .18-.11zm8.37-22.38a5.45 5.45 0 0 0 1.75.38c.31 0 .6.06.85.11a7.16 7.16 0 0 1 .75.23 7.45 7.45 0 0 0 1.55.37 10.29 10.29 0 0 0 1.09.05h.39v-5.62c2.06.18 4.13.25 6.19.27 1.34 0 2.67-.06 4-.12a3.85 3.85 0 0 0 .26-1.47 1.92 1.92 0 0 0-1-1.59 4.15 4.15 0 0 0-2.05-.66 2.61 2.61 0 0 0-1.76.67 4.53 4.53 0 0 0-1.18.68 1.54 1.54 0 0 1-.46.29 6.33 6.33 0 0 1-2.06-.18l-.5-.09c-1.09-2-1-5.73-.92-9.16a1.93 1.93 0 0 0 .61-.14 3.74 3.74 0 0 0 1.84-3.37 3.31 3.31 0 0 0-.81-2.3 1.72 1.72 0 0 0 .24-.87 1.86 1.86 0 0 0-.05-.42 2.53 2.53 0 0 0 .17-.4c-.83 0-1.66 0-2.49.06V72.63l-.12.05a6 6 0 0 1-2.4.35 2.31 2.31 0 0 0-1.61-.62 2.79 2.79 0 0 0-.64.07 1.78 1.78 0 0 0-1.05.72h-.21l-.19 13-.2 32.05h-5a10.11 10.11 0 0 0 1.42 4.23c.79 1.09 2.2 3.16 3.59 3.78zm4.93-45.46l.21-.12c.11.22.22.47.33.74h-.22a1.65 1.65 0 0 0-.66.13 1.6 1.6 0 0 0-.44-.29zm-3.31-3.52l.22.12c-.29.2-.59.4-.9.59a7.6 7.6 0 0 0 .68-.71zM495 132.59h-1.28a2 2 0 0 0-.36-.27c0 .72 0 1.45-.05 2.17s-.05 1.43-.07 2.15h.43a3.45 3.45 0 0 0 2.83-1.23 1.79 1.79 0 0 0-1.5-2.79zm-7.65-1.15a2.12 2.12 0 0 0-1.47-.59 8 8 0 0 0-1.65-.09v2.83c0 1.25 0 2.51.05 3.77h-.79 2.26a2.12 2.12 0 0 0 .77-.26h.31a2.1 2.1 0 0 0 .94-.23c0-1.85 0-3.71-.06-5.56h-.41zm-64.52-53.65v4.27a5.75 5.75 0 0 1 .85-.3 1.8 1.8 0 0 0 .95-.57v-8.83l-.16-.06a7.41 7.41 0 0 0-1.58-.45zm-17.59 102.36v-.67a1.79 1.79 0 0 0-.3-1c-.09 1.14-.16 2.1-.2 2.89a1.84 1.84 0 0 0 .5-1.22zM249.63 43.77c.3-2.19.48-4.38.61-6.57 1-.1 1.92-.23 2.87-.39q-1.41-.24-2.82-.39c.14-2.63.2-5.26.21-7.89v-2.11c-2.5 1.11-5.22 2.35-7.79 3.68q0 3.76.12 7.53c2.08 0 4.15-.12 6.23-.31.09 2.15.28 4.3.57 6.45zm-6.1 116.72l-.26-.05v.1zm-44.45-49.06l.06-20.2-.06-20.23-.08-10.06v-.5c.7 0 1.4-.07 2.09-.13-.7-.06-1.4-.09-2.1-.13l-.07-5.71-.1.12-.08 5.58-2.1-.07c-1.49-.05-3-.06-4.46-.07h-1.29a2.18 2.18 0 0 0-1.2 1.28l-.22.19-.11.09a1.81 1.81 0 0 0-1.21.82 1.59 1.59 0 0 0-.14.26c-.3.29-.56.58-.79.85l-.15.16v2.61l-.07 9.34-.06 18.66L187 113c0 3.06.07 6.13.1 9.2 4 0 7.95-.06 11.93-.17-.03-3.56.03-7.03.05-10.6zm44.12-64.72q-.21-3.19-.34-6.39c0-.9-.05-1.79-.07-2.69h-1.87c-2.76 0-5.52-.11-8.28-.37-.11 1-.25 2-.43 3-.19-1-.33-2-.44-3.06-.21 0-.42-.06-.63-.09a42.16 42.16 0 0 0-3.41 2.57c-.79.64-1.55 1.25-2.28 1.77s-1.41.92-2.15 1.37l.78-.61a1.8 1.8 0 0 0-1.35-3.2 2.13 2.13 0 0 0-.54.14 1.76 1.76 0 0 0-.51 0v7.35c2.62-.07 5.25-.1 7.88-.11 4.57.01 9.11.09 13.64.32zm-76.7 31.98c1.72-.07 3.43-.14 5.15-.26-1.72-.11-3.44-.18-5.16-.26-.08-5.37-.17-10.74-.3-16.1q-.18 8-.29 16.08l-1.07-.05-6.83-.19h-1.42q-3.32-.07-6.63-.1v1.81l-.25 14.92c-.13 9.94-.13 19.89-.2 29.83.06 7.52.08 15 .14 22.56H146l-.16-8.27-.15 8.28c-1.73 0-3.47.05-5.2.12l.12-6.47.15-15.69v-6.16a24.65 24.65 0 0 1-4.57-1.8 5.06 5.06 0 0 0-1.58-1.54c-.07-.13-.15-.24-.23-.36 2.13.05 4.27.11 6.4.19l.09-21.71-.07-15.69h-3.57v-2.36h-2.79l-.2.15a6.13 6.13 0 0 0-2 1.1l-.29.21a1.52 1.52 0 0 0-.21 0 2.05 2.05 0 0 0-1.21.45h-.07a1.81 1.81 0 0 0-1.11.24l-1.09.64c-.9.54-1.83 1.1-2.66 1.51a1.76 1.76 0 0 0-.4.27 12.88 12.88 0 0 1-2.72 1.81l.07 20 .1 11.26.1 7c-1 0-2 .08-3.07.13a1.28 1.28 0 0 0 .11.2c1 0 2 .1 3 .13v3.32l.05-3.33h.61c1.79.06 3.59.07 5.38.07s3.57 0 5.35-.07l-.07 15.26.16 34.1c0 3.91.09 7.82.13 11.73-2.6-.09-5.19-.12-7.79-.13h-3.77l-.33-17.08-.32 17.1c-.74 0-1.47.05-2.21.07v1.12c.73 0 1.46.06 2.19.07l-.17 16.69v14.17c4.14 2.1 9.16 2.6 13.67 2.6.94 0 1.86 0 2.75-.06a7 7 0 0 0 2.19.32 24.24 24.24 0 0 0 5.15-.79h.57l.09-19.82-.13-28.63-.15-14.31-.09-5h3.6c0 2.07 0 4.15.06 6.22.14 10 .31 19.89.66 29.84.22-6.06.36-12.12.48-18.18a26.16 26.16 0 0 0 6.49.76 26.72 26.72 0 0 0 6.5-.76v1.3c.15 2.43.23 4.86.43 7.29.2-2.43.28-4.86.43-7.29l.24-7.29c.16-4.87.18-9.73.2-14.59s0-9.73-.2-14.59c-.09-3-.2-6-.35-8.94l2.23.08-.1-24.27q-.09-9.44-.22-18.86z"/><path d="M150 77.78v-.14a43.37 43.37 0 0 1-6.59-.77 44 44 0 0 1 6.59-.77c.09-3.77.18-7.54.33-11.3l-3 1.5a1.85 1.85 0 0 0-1.21.17L144 67.59a1.78 1.78 0 0 0-.36.25 1.61 1.61 0 0 0-.34.4 1.72 1.72 0 0 0-1 .26 1.87 1.87 0 0 0-.51.46h-.1a2.05 2.05 0 0 0-.7.41l-.22.19v6h.08c1.65.1 3.3.15 5 .27-1.65.13-3.3.18-5 .27h-.07v1.65h3.56zm-30 103.76l.08-15.4c0-3.15.07-6.31.1-9.47-2.09.08-4.19.11-6.29.11h-1.18c-.23.3-.47.59-.72.89-.39.48-.79 1-1.19 1.48l-.21 11.41-.21-10.85c-.1.13-.2.25-.29.39l-.07.09v.06a1.83 1.83 0 0 0-.39.79 2.13 2.13 0 0 0-.89 1 2.27 2.27 0 0 0-.52.32 3.34 3.34 0 0 0-1.49-.36 3 3 0 0 0-1.67.5 3.48 3.48 0 0 0-.69-.29 1.72 1.72 0 0 0-.47-.6 2.82 2.82 0 0 0-1.82-.58 3.45 3.45 0 0 0-1.16.2 1.85 1.85 0 0 0-.57-.26q.08 3.88.14 7.78l.44-.1a2.75 2.75 0 0 0 1.17.24 6.8 6.8 0 0 0 .86-.07h.52a2 2 0 0 0-.43.34 1.78 1.78 0 0 0-.69.52 1.89 1.89 0 0 0-.77.81 1.53 1.53 0 0 0-.37.39 2 2 0 0 0-.23.47 1.9 1.9 0 0 0-.46.15c.12 9.12.12 18.24.19 27.36v.48l.14.19a1.6 1.6 0 0 0 .49.32 1.45 1.45 0 0 0 .24.35 1.83 1.83 0 0 0 .74 1.16 2.06 2.06 0 0 0 .57.25l.17.15a2.08 2.08 0 0 0 .52.25 1.58 1.58 0 0 0 .52.09 2 2 0 0 0 .31.79 1.79 1.79 0 0 0 1.48.77h.25a1.86 1.86 0 0 0 .66.88 1.73 1.73 0 0 0 1.49.25 1.72 1.72 0 0 0 .71.17 1.7 1.7 0 0 0 .54-.09l.27-.08a1.88 1.88 0 0 0 .75-.46l.11-.11a1.85 1.85 0 0 0 .34-.5c.83.85 1.65 1.74 2.51 2.7a38.07 38.07 0 0 0 6.55 6.19l-.08-18.94.05-11c-3.25-.09-6.5-.24-9.74-.56 3.21-.33 6.46-.48 9.69-.57zm19.87-111.39l-.17.1a7.78 7.78 0 0 0-2.41 1.75l-.07.06v3.39l2.62.08zm79.42 122.78v-1.17c0-1.8 0-3.6-.07-5.4 0 1.8-.06 3.6-.08 5.4v1.17h-5.8v2.77c-.06 3.41-.07 6.83-.09 10.24h5.96l2.11-.07c-.7 0-1.4-.06-2.11-.08V193.2c.74 0 1.48 0 2.21-.07zm10.06 15.18l.09.1a1.73 1.73 0 0 0 1.31.84h.12a4.73 4.73 0 0 0 .8.17 2.18 2.18 0 0 0 .65.53 1.78 1.78 0 0 0 .74.23h1a5.46 5.46 0 0 0 2.28-.45 1.82 1.82 0 0 0 1-1.29l.72-.13a1.79 1.79 0 0 0 1.93.63 28.09 28.09 0 0 0 2.66-.94c0-8.63.07-17.26.13-25.88q.17-10.74.45-21.47c-.68.14-1.36.27-2 .37-.09 3.35-.17 6.69-.31 10-.14-3.32-.22-6.64-.31-10a51.48 51.48 0 0 1-5.94.37v3.71l-.15 6.42c1 .1 2 .2 3 .33-1 .14-2 .23-3 .33l-.07 3.26c-.15 3.45-.23 6.9-.43 10.35-.2-3.45-.28-6.9-.43-10.35l-.07-3.16c-3.75.33-7.51.42-11.26.44h-1c.08 3.49.16 7 .19 10.47l.13 9.86.09 6.42v8.31c1.07-.25 2.12-.54 3.15-.86a3.53 3.53 0 0 0 1.56.32 10.05 10.05 0 0 0 2.07-.28 1.82 1.82 0 0 0 .9 1.35zm-62.96-14.43l-.2 10.24-.19-10.24c-2.14 0-4.29-.07-6.43-.16l.14 8 .12 12.08.3-.06a1.84 1.84 0 0 0 .81-.35l3.89-.84 5.07-.92a1.79 1.79 0 0 0 .75.17 1.76 1.76 0 0 0 .39-.06l2.36.22a1.8 1.8 0 0 0 1.49.82 2 2 0 0 0 .34 0l.29-.06a2.78 2.78 0 0 0 1-.33l.82.13v-3.92l.08-15c-3.29.19-6.58.26-9.86.27z"/><path d="M207 171.81c2.24-.3 4.49-.49 6.73-.62 0-1.43 0-2.85.07-4.28l-5.06-.06 5.06-.06c.06-2.39.1-4.78.16-7.16 0-1 0-2-.08-3.06-1.42-.09-2.85-.19-4.27-.32 1.42-.14 2.84-.24 4.25-.33-.27-9.62-.44-19.23-.56-28.85v-5.69c-4.27.29-8.54.46-12.8.58h-1.44v5l1.61.06c.74 0 1.48.07 2.23.13-.75.07-1.49.09-2.23.14l-1.62.06v4.26c0-1.42 0-2.84-.06-4.26h-.5c-1.49.05-3 .06-4.46.06s-3 0-4.45-.06l-2.17-.08-.06 4.32c0-1.44 0-2.88-.06-4.33-.73 0-1.45-.07-2.17-.13q1.08-.07 2.16-.12v-4.88h-1c-4.8 0-9.59 0-14.38-.2l-4.85-.16.05 11.19-.15 35.47-.19 17.73-.12 6.15h1.15c3.29 0 6.57.08 9.86.27l.12-21.22.24-18.51.12-5.55a53.39 53.39 0 0 1-7.53-.77 53.81 53.81 0 0 1 7.56-.77c.07-3.81.15-7.61.28-11.42.12 3.8.2 7.59.27 11.39 1.07 0 2.14-.06 3.21-.07 2.28 0 4.57.1 6.85.3.05-1.55.07-3.1.12-4.65.05 1.55.07 3.11.11 4.67 1.42.13 2.83.29 4.24.55-1.4.26-2.8.42-4.21.55.25 9.26.41 18.51.53 27.76.14 11.18.13 22.36.2 33.53v5.39l1.41-.09c.76-.05 1.44-.1 2-.11a1.79 1.79 0 0 0 1.62-1.15l.92-.37 5.66-.86c0-.73 0-1.47.06-2.2v2.18l6.78-1v-4.36h-.89.89v-12.71c-.64 0-1.29 0-1.93-.06.65 0 1.29 0 1.93-.07v-2.15 2.15h5.25q.12-10.22.33-20.44c-2.37-.22-4.6-.41-6.79-.71z"/><path d="M214 156.59c0 1 0 2.1-.08 3.15.06 2.35.1 4.7.16 7h.25c-.07-1.8-.16-3.61-.21-5.42-.05-1.55-.07-3.14-.12-4.73zm181.94 25.64a3.77 3.77 0 0 0 1.12-.17 3.32 3.32 0 0 0 1 .13 4 4 0 0 0 1.73-.39 2.84 2.84 0 0 0 1.25.29 3.38 3.38 0 0 0 .93-.14 2.54 2.54 0 0 0 1 .21 2.64 2.64 0 0 0 1.66-.6l.06-.07c0-1.14-.07-2.29-.1-3.43a2.62 2.62 0 0 0-.6-.31 2 2 0 0 0-1.28-2.27 1.74 1.74 0 0 0-.44-.69 1.81 1.81 0 0 0-.87-.49 1.83 1.83 0 0 0-1.13-.14 2 2 0 0 0-1.53 1.29 2.19 2.19 0 0 0-.34.21c-.1 0-.19-.07-.29-.09a1.76 1.76 0 0 0-.29-.44 2.48 2.48 0 0 0 .45-.35 2.36 2.36 0 0 0 .67-1.71 1.77 1.77 0 0 0-.41-1.09 2 2 0 0 0-.42-.57 1.78 1.78 0 0 0-1-.47H397a6.22 6.22 0 0 0-.23-1.94 1.67 1.67 0 0 0-.37-.63 3 3 0 0 0 .72-.47 2.47 2.47 0 0 0 2.09 1 6.8 6.8 0 0 0 .86-.07h.42a3 3 0 0 0 .83.11 6.31 6.31 0 0 0 .84-.07h.22a1.76 1.76 0 0 0 .45.12 4.18 4.18 0 0 0 .59 0 4.09 4.09 0 0 0 1-.14c-.05-2.25-.08-4.5-.12-6.76a4.21 4.21 0 0 0-.5 0 3.08 3.08 0 0 0-1.68.5 3.16 3.16 0 0 0-.68-.29 1.72 1.72 0 0 0-.47-.6 2.82 2.82 0 0 0-1.82-.58 2.89 2.89 0 0 0-1.83.57 1.83 1.83 0 0 0-.57.89 2.12 2.12 0 0 0 0 1.14 1.71 1.71 0 0 0-.58-.85 3.44 3.44 0 0 0-2.12-.66 4.1 4.1 0 0 0-1 .11 5.57 5.57 0 0 0-1.12-.13 3 3 0 0 0-1.09.19 1.57 1.57 0 0 0-.23-.09 2.59 2.59 0 0 0-.54-.11v6-6a3.31 3.31 0 0 0-2 .35 1.72 1.72 0 0 0-.49-.24 2 2 0 0 0-.35-.06l.05-.06a2.32 2.32 0 0 0 1.45-1.45h-7.27v21.46a2.46 2.46 0 0 0 1.19-.49 1.78 1.78 0 0 0 .54-.79h.17a1.21 1.21 0 0 0 .09.2 3 3 0 0 0 2.75 1.19 4.61 4.61 0 0 0 1.73-.28h.09a9.9 9.9 0 0 0 2 .23s.06.09.1.13a4.63 4.63 0 0 0 3.12 1.08 3.59 3.59 0 0 0 2.8-1.11zm8.18-2.4a.07.07 0 0 0 0-.05 1.25 1.25 0 0 1-.24.89 1.2 1.2 0 0 1-.37.31 2.41 2.41 0 0 0 .61-1.15zm-7.37-15.89h-.05a1.65 1.65 0 0 0-.07-.32c.04.13.08.23.12.32zm-175.7 2.76h-.17l-6.55.07c.06 1.45.1 2.9.18 4.35l-.83.06v1.24l.92.07c.07 1.22.12 2.44.21 3.67.09-1.22.14-2.44.2-3.66 2.07.1 4.13.14 6.19.16-.05-1.94-.09-3.88-.13-5.82zm-6.69-42.36l-.24 7.41c-.16 4.93-.18 9.87-.2 14.8 0 3.35 0 6.69.1 10 4.9.31 9.8.4 14.7.41q6.32 0 12.62-.32a.41.41 0 0 1 0-.11l.24-14.37c.14-9.58.13-19.16.2-28.75s-.06-19.16-.2-28.74c-.11-7.09-.25-14.18-.46-21.27 1.09-.13 2.18-.28 3.27-.5-1.1-.23-2.2-.38-3.29-.51-.07-2.15-.11-4.31-.19-6.46-.08 2.14-.12 4.28-.19 6.42a64.086 64.086 0 0 0-11.57-.11v-.43c-.14-4.87-.23-9.73-.43-14.59-.19 4.86-.28 9.72-.42 14.59v.52a37.78 37.78 0 0 0-3.92.57c1.3.26 2.6.43 3.9.56l-.22 12.94c-.13 9.72-.13 19.45-.2 29.18-2.24 0-4.48.09-6.73.28.06-2.42.12-4.83.19-7.25l.25-14.81c.13-9.87.13-19.74.2-29.61v-7.74c-2.45.06-4.9.15-7.34.3v-2.33a2.56 2.56 0 0 0-.59.43l-.09.06-.18.1v1.8l-3 .22a2.81 2.81 0 0 0-.4.08c1.13.09 2.25.17 3.38.24l-.2 13.74-.2 33 .17 27.26 1.3-.07c-.15 1.04-.2 2.05-.26 3.06zm28.91 36.1c0-1.28.06-2.57.1-3.85l-2 .09-.09 3.39c.65.1 1.32.23 1.99.37zM39.15 128.66h.33a1.8 1.8 0 0 0 1.76.72 3.1 3.1 0 0 0 1.58-.8 1.92 1.92 0 0 0 1.1-.34 1.94 1.94 0 0 0 .6 0v-2.55c1.88 0 3.75-.06 5.62-.12-1.87-.06-3.75-.09-5.62-.12v-1.89c0-2.9-.08-5.8-.17-8.7-.1 2.9-.14 5.8-.17 8.7v1.88h-6.94a4.31 4.31 0 0 0 .72 2.42 1.81 1.81 0 0 0 1.19.8zM153.38 76h1.7-.08a2.25 2.25 0 0 0 .24-.21 5.1 5.1 0 0 1 .65-.51 5.17 5.17 0 0 0 2-2.23q-.12-5.94-.21-11.88c-2.33 1.07-4.64 2.25-6.88 3.41l-.44.22c.15 3.76.23 7.52.33 11.28.88-.08 1.79-.08 2.69-.08zM44.59 132.34v-.07h-.19a2 2 0 0 0-.8-.18 1.92 1.92 0 0 0-.58.11c-1 0-1.94-.09-3-.15a53.4 53.4 0 0 0-7.59-.1 11.42 11.42 0 0 0-1.51.27 7.91 7.91 0 0 1-.79.16v2.44c-3.21.06-6.42.19-9.63.51 3.21.31 6.43.45 9.64.51l.06 3.25h.41l.06-3.24h3c2.1 0 4.19 0 6.29-.11v3.33l1.51.06c.95.05 1.95.08 3 .06zm-25.88 6.75v-6.66a21.94 21.94 0 0 1-5.24-.07 5.14 5.14 0 0 0-1.76-.08 1.89 1.89 0 0 0-.91-.19 2.24 2.24 0 0 0-.44.07 8.52 8.52 0 0 1-2.29 0 9.75 9.75 0 0 0-3.71.22 1.79 1.79 0 0 0-.78 2.87 4.25 4.25 0 0 0 1 .82l.15.09a2 2 0 0 0 .36.41 2 2 0 0 0 1 .46 2 2 0 0 0 1.27.46c.55.52.62.59 7 1.29l2.11.23a1.87 1.87 0 0 0 .58 0 14.39 14.39 0 0 1 1.66.08zM182.56 193c-1.71-.18-3.43-.31-5.14-.41v.82c1.71-.09 3.43-.21 5.14-.41zm-95.15-53.83c.06-2 .12-4 .2-6.06-1.32 0-2.66 0-4-.09-1.88-.06-3.78-.09-5.67-.11v6.22h5zm-21.68 23.68h.47v-1.27a1.77 1.77 0 0 0-.47 1.27zM66 133h-1.7v5.95h1.69zm-5.38-29l-.14 14.38a2 2 0 0 0 .77.19l.29.19.25.16h-1.32v.76l-.11 6.47c1.29-.06 2.58-.07 3.87-.09q-.06-9.33-.11-18.66c.06-9.73.06-19.45.2-29.18l.21-12.93a38.46 38.46 0 0 1-3.81-.56v7.88zm1.77 3zm146.46 98.82h-.72v4.34l1.27-.19a1.84 1.84 0 0 0 1.1.37 2.07 2.07 0 0 0 .35 0l.28-.05a3.16 3.16 0 0 0 1-.3 6.5 6.5 0 0 0 1.1-.28v-3.77h-2.56zm-122.67-37h.71c0-2.33 0-4.66.06-7v-.74a1.69 1.69 0 0 0-.71-.17 2.07 2.07 0 0 0-1.11.33 3.21 3.21 0 0 0-1.41-.32 3.58 3.58 0 0 0-2.72 1.21 1.81 1.81 0 0 0-1.41 1.49 2.45 2.45 0 0 0 0 .67h-.07a3.05 3.05 0 0 0-1.41-1.77c-.21 0-.43.09-.65.12 0 2-.11 4-.17 6a3.17 3.17 0 0 0 1.75-1 2.52 2.52 0 0 0 .39-.72h.15v.23a1.78 1.78 0 0 0 1.06 1.29 4.82 4.82 0 0 0 1.91.31 6.25 6.25 0 0 0 1.92-.26 4.19 4.19 0 0 0 1.71.33zm-21.37-37.88a1.91 1.91 0 0 1 .33-.2 2 2 0 0 0 .86.26l-.07-3.89h.92c3.73 0 7.45-.11 11.18-.47v-.16c-3.73-.36-7.45-.46-11.18-.47h-.94l-.16-8.11-.16 8.1h-1.32v5.19a1.66 1.66 0 0 0 .54-.25zm12.05 31.78a51.92 51.92 0 0 1-6.22.38c-1.48 0-3-.09-4.44-.21v2.66a.94.94 0 0 0 .09.12 2.43 2.43 0 0 0-.13.38v1.14a1.76 1.76 0 0 0 .65.92 3.58 3.58 0 0 0 2.16.61 8.81 8.81 0 0 0 1.36-.12h.13a2.86 2.86 0 0 0 1.16.23 6.8 6.8 0 0 0 .86-.07H73a3 3 0 0 0 .83.11 6.31 6.31 0 0 0 .84-.07h.22a1.82 1.82 0 0 0 .52-.08 3.75 3.75 0 0 0 1 .15 3.39 3.39 0 0 0 .64-.07q-.11-3.06-.19-6.08zM60.71 64.69h-.09z"/></g></svg>