<svg xmlns="http://www.w3.org/2000/svg" viewBox="0 0 500 300"><defs><style>.cls-1{fill:#fff}.cls-2{fill:none;opacity:.18}</style></defs><title>アートボード 16</title><g id="レイヤー_3" data-name="レイヤー 3"><path class="cls-1" d="M317.11 246.77c0-1 0-1.16-.52-1.16h-1.35c-1.58 0-2 1.6-2.68 4.52-.26.24-.68.16-.81-.36.46-2.76.57-5.24.72-6.8a.41.41 0 0 1 .3-.2.37.37 0 0 1 .31.16c.11.68.17.84 1.82.84h8.1c1.44 0 1.76 0 2-.88a.35.35 0 0 1 .28-.12.43.43 0 0 1 .32.28 51.83 51.83 0 0 0-.32 6.88c-.11.36-.7.44-.8.12-.37-2.56-.68-4.44-2.3-4.44h-1.3c-.52 0-.59.12-.59 1.16v17.65c0 3.72.13 4 1.11 4.28l.86.2a2.1 2.1 0 0 1 0 1.4c-1.41-.08-2.49-.12-3.47-.12s-2.16 0-3.68.12a1.88 1.88 0 0 1 0-1.4l1-.2c1-.2 1.11-.56 1.11-4.28zm-54.9 37.74c0-.27 0-.32-.15-.32h-.41c-.49 0-.63.44-.82 1.24a.15.15 0 0 1-.25-.1c.14-.76.17-1.44.22-1.87a.14.14 0 0 1 .09 0 .13.13 0 0 1 .1 0c0 .19.05.23.55.23H264c.43 0 .53 0 .59-.24a.14.14 0 0 1 .09 0 .14.14 0 0 1 .1.07 11.56 11.56 0 0 0-.1 1.89c0 .1-.21.13-.25 0-.11-.71-.2-1.22-.7-1.22h-.39c-.16 0-.18 0-.18.32v4.85c0 1 0 1.11.34 1.17l.26.06a.5.5 0 0 1 0 .38h-2.18a.5.5 0 0 1 0-.38l.3-.06c.29 0 .33-.15.33-1.17zm6.91 2.03c0 .31 0 .33.19.33h.45c.35 0 .43-.08.49-.6v-.28a.14.14 0 0 1 .24 0v2.33a.13.13 0 0 1-.24 0v-.27c-.06-.53-.14-.62-.49-.62h-.45c-.18 0-.19 0-.19.34v1.31a3.15 3.15 0 0 0 .11 1c.09.2.21.29.69.29s.8 0 1.17-1.28c.05-.12.21-.08.24 0a9.13 9.13 0 0 1-.28 1.76h-3.52a.5.5 0 0 1 0-.38l.31-.08c.3-.07.34-.14.34-1.15v-4.11c0-1 0-1.06-.34-1.16l-.16-.06a.39.39 0 0 1 0-.38H270a7.73 7.73 0 0 0 .89 0c0 .17.05 1 .08 1.7a.13.13 0 0 1-.24 0 3.49 3.49 0 0 0-.25-.87.7.7 0 0 0-.65-.34h-.53c-.22 0-.22 0-.22.43zm6.56 2.79c0 1 0 1.12.34 1.2l.19.06a.5.5 0 0 1 0 .38h-2a.5.5 0 0 1 0-.38l.19-.06c.3-.08.34-.16.34-1.2v-4c0-1 0-1.11-.34-1.2l-.19-.06a.5.5 0 0 1 0-.38h2a.5.5 0 0 1 0 .38l-.19.06c-.3.09-.34.16-.34 1.2zm7.7-.26v1.77a.46.46 0 0 1-.39.26s-.23-.57-.54-1.2l-1.52-3.15c-.38-.78-.6-1.24-.72-1.41a2.69 2.69 0 0 0 0 .71v2.13a12.89 12.89 0 0 0 .1 2 .45.45 0 0 0 .39.35h.18a.5.5 0 0 1 0 .38h-1.62a.5.5 0 0 1 0-.38h.11a.46.46 0 0 0 .36-.37 12 12 0 0 0 .09-2v-2.79a4.31 4.31 0 0 0 0-.94.46.46 0 0 0-.38-.37l-.18-.05c-.05-.09 0-.35 0-.38h.92a4.11 4.11 0 0 0 .55 0 11.74 11.74 0 0 0 1.09 2.51l.55 1.08c.3.58.49 1 .64 1.21a2.23 2.23 0 0 0 0-.49v-1.52a13 13 0 0 0-.1-2 .45.45 0 0 0-.39-.35l-.18-.05a.61.61 0 0 1 0-.38h1.63a.55.55 0 0 1 0 .38h-.12a.42.42 0 0 0-.35.36 11.8 11.8 0 0 0-.1 2zm10.69 1.44a1.9 1.9 0 0 1-1.08 1.93c-.12 0-.15-.28-.08-.35a1.27 1.27 0 0 0 .59-1.07.69.69 0 0 0-.38-.72.54.54 0 0 1-.21-.49c0-.4.22-.72.48-.72s.68.4.68 1.42zm-1.12-3c0-.54.24-.94.53-.94s.54.44.54.94-.22.86-.54.86-.48-.29-.48-.82zm-29.04-43.86a15.79 15.79 0 0 1-2 .12c-.83 0-1.65 0-2.67-.12-.26.2-.26 1-.09 1.36l.7.28c.52.24.69.4.69.68a8.9 8.9 0 0 1-.21 1.44c-.26 1.36-1.2 5.84-1.74 8.37l-.82 3.76v5.59a2 2 0 0 0-.05.24c.3-1.45.65-3.12 1.1-5.07l1.58-6.93a68.72 68.72 0 0 1 1.76-6.8 1.75 1.75 0 0 1 1.25-1.32l.57-.2a2 2 0 0 0-.07-1.4zm36.2 19.05a13.08 13.08 0 0 0-.58-4c0 2.74 0 5.48-.08 8.22a12.44 12.44 0 0 0 .66-4.22zm-9.18-.22h-.08zm-.2-.06a.3.3 0 0 0-.13 0 .3.3 0 0 1 .13 0zm-.31 3.88v-3.72a.53.53 0 0 1 .15-.12.53.53 0 0 0-.28.36 36.69 36.69 0 0 0 .25 4.4c-.06-.29-.09-.6-.12-.92zm76.07-9.7zm.51.15zm-4.71-11.27c.91.24 1 .68 1 4.69v6.61h.5c.09 2.89.17 5.78.31 8.67.14-2.91.22-5.82.31-8.73.65-.08 1.3-.19 1.95-.31a.84.84 0 0 0 0-.12c-.63-.11-1.26-.22-1.89-.3 0-1 .06-2 .1-3l.18-9.25c.37 0 .75-.05 1.15-.06-1.49 0-2.8.18-4.07.33a1.45 1.45 0 0 0 0 1.4zm3.94 10.37zm.51.86h-.07zm-109.2 33.21a3.29 3.29 0 0 0 .16-1 3.21 3.21 0 0 0-.13-.93zm30.67-3.87a1.64 1.64 0 0 1-.38-1c0-.55.24-1 .67-1s.76.8.87 1.36a.14.14 0 0 0 .26 0 8 8 0 0 0-.12-1.57 1 1 0 0 1-.22-.09 1.78 1.78 0 0 0-.76-.18c-.95 0-1.54.86-1.53 2.11a2.63 2.63 0 0 0 .06.5zm.65.62l-.43-.38.07.06-1.42-.07v-.1a2.71 2.71 0 0 0 .93 1.57 2.2 2.2 0 0 1 .9 1.75c0 .55-.23 1.11-.72 1.11s-1-1-1.13-1.73c-.06-.12-.21-.11-.25 0a5.51 5.51 0 0 0 .21 1.78 1.62 1.62 0 0 0 1.12.42c1 0 1.67-.88 1.67-2.24a2.77 2.77 0 0 0-.95-2.17zm16.74 2c0-.2.06-.22.22-.22h-.23c-.18 0-.2 0-.24.22l-.28 1.28a1.52 1.52 0 0 0-.05.4l.05.07h-.36a.38.38 0 0 1-.23.14h-.17c-.05.09-.06.32 0 .38h1.43c.07-.05.06-.3 0-.38l-.2-.06c-.19 0-.27-.12-.27-.18a1.89 1.89 0 0 1 0-.4zm.13-1.82l-.15.69c-.07.3 0 .33.15.33h.27c-.16 0-.2 0-.14-.33l.17-.82c.1-.51.23-1.1.28-1.36.06.23.18.83.27 1.3v.19h.86l.61 2.68a2.09 2.09 0 0 0 .29.84 2.41 2.41 0 0 1-.26-.84l-.9-4.31c-.16-.78-.24-1.19-.29-1.51 0-.16-.07-.22-.16-.22s-.25.54-.57.66a6.15 6.15 0 0 1-.24 1.4l-.29 1.29zm3.04 3.74l-.26-.07a.39.39 0 0 1-.11-.06h-1.2a.3.3 0 0 1-.15.09l-.21.06a.35.35 0 0 0 0 .38h1.89a.5.5 0 0 0 .04-.4zm5.71.24l-2.23-.19v-.05a.5.5 0 0 0 0 .38h2.18a.53.53 0 0 0 0-.27.29.29 0 0 1 .05.13zm.89-7.42a.1.1 0 0 0-.08 0c-.06.23-.16.24-.6.24h-2.46c-.5 0-.52 0-.55-.23a.12.12 0 0 0-.09 0 .14.14 0 0 0-.1 0c0 .43-.08 1.11-.21 1.87 0 .14.16.17.24.1.2-.8.34-1.24.82-1.24h.41c.16 0 .16.05.16.32v2.35h.94v-2.34c0-.29 0-.32.18-.32h.4c.49 0 .58.51.7 1.22 0 .09.21.06.24 0a14.35 14.35 0 0 1 .1-1.89.13.13 0 0 0-.1-.08zm-.89 7.28a.15.15 0 0 0 0-.1.15.15 0 0 1 0 .1zM321 286v.28a1 1 0 0 1-.14.48h.4v-.74a.15.15 0 0 0-.26-.02z"/><path class="cls-1" d="M318.54 284.09c.29.1.33.16.33 1.16v1.54h1a1.35 1.35 0 0 1 0-.23v-1.93c0-.4 0-.42.22-.42h.52a.68.68 0 0 1 .65.34 3.1 3.1 0 0 1 .25.87.14.14 0 0 0 .25 0c0-.74-.08-1.53-.09-1.7a7.51 7.51 0 0 1-.88 0h-2.36a.42.42 0 0 0 0 .38zm13.31 1.22a5.2 5.2 0 0 1 .17.73l-.9-.05c.05.55.06 1.12.06 1.51 0 1-.06 3.09-.57 3.09s-.56-2.11-.56-3.09v-1.56h-.87a4.62 4.62 0 0 1 .29-1 7 7 0 0 0-.44 2.61c0 1.77.45 3.6 1.52 3.6s1.53-1.83 1.53-3.6a7.68 7.68 0 0 0-.23-2.24zm-32.67-1.68v.65a1.06 1.06 0 0 1 .7-.27c.62 0 1 .52 1.24 1.55a.13.13 0 0 0 .25 0c-.06-.67-.07-1.44-.09-1.77a5.13 5.13 0 0 0-1.31-.27 2.27 2.27 0 0 0-1.16.31 2.32 2.32 0 0 1 .37-.2zm1.05 6.92zm1.27-.13a.28.28 0 0 1 0 .1.28.28 0 0 0 0-.1zm-1.5.18h-.1l-.95.05v-.55a4.75 4.75 0 0 1-.69-2.91v-.47h-1.03c0 .23-.05.47-.05.71a3.94 3.94 0 0 0 1.31 3.32 2.16 2.16 0 0 0 1.3.39 3.25 3.25 0 0 0 1.17-.27 1.81 1.81 0 0 1 .46-.16.34.34 0 0 0 0-.17zM402.72 78.64v23.63c.82 0 1.65 0 2.48-.06a2.18 2.18 0 0 1-.11.27 2.66 2.66 0 0 0 .28-1 .46.46 0 0 1 .07-.07h.2a1.79 1.79 0 0 0 1.36-1.1 1.81 1.81 0 0 0 .65-1 .41.41 0 0 0 0-.11 12.28 12.28 0 0 0 2.26.22c1.92 0 3.3-.47 4.11-1.4a1.81 1.81 0 0 0 .42-1.32l.09.17v.46a4.36 4.36 0 0 0 .38 2.85 1.21 1.21 0 0 0 .1.14 1.8 1.8 0 0 0-1.15.52 1.84 1.84 0 0 0-.51 1.3 1.77 1.77 0 0 1-.05.29l1.55.13c.13-2.15.31-4.29.6-6.43V90.4a3.66 3.66 0 0 0-.91 1 1.91 1.91 0 0 0-.23 1 4.66 4.66 0 0 0 .63 2v.06s0 .07-.05.1a1.76 1.76 0 0 0-.33.43c.06-1.29 0-3.5-2.24-3.91a1.45 1.45 0 0 0-.36 0 1.78 1.78 0 0 0-1.09-.38h-3.16a2.57 2.57 0 0 0-.2-.5 1.94 1.94 0 0 0-.88-.77 2.71 2.71 0 0 0-.81-.64 2.31 2.31 0 0 0-.18-.23 2.74 2.74 0 0 0-1.64-.84V84a1.74 1.74 0 0 0-.1-.56 1.8 1.8 0 0 0 .1-.57v-.38a1.84 1.84 0 0 0-.07-.47h.09a3 3 0 0 0 2.33-.92A2.87 2.87 0 0 0 407 79a4.28 4.28 0 0 0 1.81.41 3.66 3.66 0 0 0 1.88-.5 1.72 1.72 0 0 0 .37.22 3.75 3.75 0 0 0-.38.69 1.81 1.81 0 0 0 .24 1.78 1.84 1.84 0 0 0 1.43.7h.24a8 8 0 0 0 2.44-.78l.35-.16V71.15h.23a4.49 4.49 0 0 0-.83-.09 3.43 3.43 0 0 0-1.6.38 1.82 1.82 0 0 0-.95 1.33 2.15 2.15 0 0 0 .06 1l-.06.07a7.41 7.41 0 0 0-.72 1 3.22 3.22 0 0 0-2.36-1H409a2.55 2.55 0 0 0-.29-1.81 3.37 3.37 0 0 0-3-1.53 1.79 1.79 0 0 0-1.3.58 2.55 2.55 0 0 0-1.3.67 1.63 1.63 0 0 0-.47.16zm3.21-2.7a3.22 3.22 0 0 0-.18.86l-.36-.24c.2-.19.37-.4.54-.62zm9.95-4.68l.24.06zM373 30.31zm.18 12.41h4.63a2 2 0 0 0-.48-.88 2.7 2.7 0 0 0-.35-1.24 1.82 1.82 0 0 0 0-.74 2 2 0 0 0-1.6-1.69 4.13 4.13 0 0 0 0-1.25.64.64 0 0 1 0-.24 1.71 1.71 0 0 0 .18-1.44 1.15 1.15 0 0 0 .14-.17 2 2 0 0 0-.85-3.05 1.78 1.78 0 0 0-.13-.49 1.89 1.89 0 0 0-1.63-1.16zm18.27 75.82q-.1-.53-.18-1.08.08.54.18 1.08zm25.13-47.07l-.19-.07zm.36.13l.13.05-.13-.05zm12.34 66.77zm13.07-8.1zm4.12-27.13q-1.7 0-3.33-.12 1.64.08 3.33.12zM75.72 60.22a4.77 4.77 0 0 0-1-.65 5.18 5.18 0 0 1 .72.43v23.36h.19a2.08 2.08 0 0 0 .37-.16 1.72 1.72 0 0 1-.29.11v-15zm.92 21.45v1.1a4.21 4.21 0 0 0 .6-.59v-.51c-.06-5.61-.13-11.22-.29-16.82-.18 5.6-.25 11.21-.31 16.82zM60.3 138.25c1.05.05 2.13.1 3.25.05 3.73.14 7.74.17 11.84.09h-5l.06-6.22H58.48l.06 5.95zm12.94-47.61a2.23 2.23 0 0 1 1 .78 2.23 2.23 0 0 0-1-.78 2.33 2.33 0 0 0-.68-.63 2.33 2.33 0 0 1 .68.63zm19.6 56.49h.11a1.78 1.78 0 0 0-1.28 1.7v.4a1.84 1.84 0 0 0 .39 1.12 2 2 0 0 0 .66.54l-.13-.09c0-.89 0-1.78-.07-2.66 1.09-.13 2.18-.28 3.27-.51-.98-.24-1.97-.38-2.95-.5zm-12.71-14.72c-.08 2-.14 4-.2 6.07h-2.07 2.49q-.1-3.04-.22-6.07zm-5.57-40.52c.17.07.33.15.48.23-.15-.12-.31-.12-.48-.23zm72.94-16.6h.05-.05l.07-.06zm-14.22 39.18c1.81.07 3.61.16 5.36.28-.7 1-1.4 2-2.08 3a1.78 1.78 0 0 0-.26.62h-.4a10.75 10.75 0 0 1-2.63-.36v6.17l-.15 15.69-.11 6.47c1.73-.07 3.46-.11 5.19-.13l.15-8.27.16 8.27h3.62c-.06-7.52-.09-15-.14-22.56.06-9.94.06-19.89.2-29.83l.24-14.92v-1.81h-9.15l.07 15.69z"/><path class="cls-1" d="M149 76.82a1.8 1.8 0 0 0-.77-1 2.06 2.06 0 0 0-.67-.49h-1.71l-2.71.06c-.09-3.76-.18-7.51-.33-11.27l.27-.14-2 1c.59-.3 1.18-.59 1.76-.9-.15 3.77-.23 7.54-.33 11.31a42.78 42.78 0 0 0-6.63.77 43.51 43.51 0 0 0 6.59.77v.14q3.3 0 6.62.1a1.42 1.42 0 0 0-.09-.35zm54-30.44a.76.76 0 0 0-.16 0 .76.76 0 0 1 .16 0zm3-.23v-1.8a3.84 3.84 0 0 0-.56.37 2.78 2.78 0 0 0-2.44 1.65z"/><path class="cls-1" d="M133.3 77.08v-1.66h.07c1.65-.09 3.3-.14 4.95-.27-1.65-.12-3.3-.18-4.95-.27h-.08v-6a7.54 7.54 0 0 1-.91.57v5.4l-2.62-.08v2.34zm50.09-17.74h1.28c1.49 0 3 0 4.46.06l2.1.08.08-5.58a1 1 0 0 0-.13.16 2.52 2.52 0 0 0-.42 2 2.69 2.69 0 0 0-.88.18 1.8 1.8 0 0 0-1.07 2c0 .06 0 .11-.05.16a2.08 2.08 0 0 0-.89-.21 1.88 1.88 0 0 0-1.34.6 1.85 1.85 0 0 0-1.21-.47 2.11 2.11 0 0 0-1.67.94 2.3 2.3 0 0 0-1.32 1.06 2.35 2.35 0 0 1 1.06-.98zm-3.68 3.49c.24-.27.5-.56.79-.86 0 0 .05-.09.07-.13s0 .08-.07.13c-.29.3-.55.59-.79.86l-.13.14zm2.47-2.21l-.13.11zm-57.95 15.5a1.55 1.55 0 0 1 .21 0l.29-.21a6.25 6.25 0 0 1 2-1.11l.21-.14h2.78v-3.28a1.88 1.88 0 0 0-.66.75l-.11.08a2.08 2.08 0 0 0-.47.67l-.22.12-.12.07a1.8 1.8 0 0 0-1.14 1.3v.3c0 .1-.16.11-.24.17a6.25 6.25 0 0 0-2 1.11l-.29.21a1.55 1.55 0 0 0-.21 0 1.82 1.82 0 0 0-1 .32 1.82 1.82 0 0 1 .97-.36zM129 72.3a2 2 0 0 0-.09.33l-.22.18a1.67 1.67 0 0 1 .31-.51zM79.16 90.91c-.63 1.37.28 2.77.88 3.49a1.77 1.77 0 0 0 2.09.49 2.76 2.76 0 0 1 .7 0h.28l.09.08a1.89 1.89 0 0 0 1.4.48c.07.24.16.48.24.71a3 3 0 0 0 0 1.76v.12a4.75 4.75 0 0 0-.34 1.15 6.58 6.58 0 0 0-.06 1.07 12.32 12.32 0 0 0-1.72-.12 3.52 3.52 0 0 0-2.45-2.26 2 2 0 0 0-.6 0c-.09-.19-.17-.39-.27-.57a7.46 7.46 0 0 0-1.15-1.53c-.18-.2-.35-.39-.51-.6s-.38-.53-.55-.78a6.88 6.88 0 0 0-2.15-2.24l.41.27.09 23.87.09-23.73a6.34 6.34 0 0 1 .92 1v5l.09 16.82.09 7.57a4 4 0 0 1 .6-.53 4.23 4.23 0 0 0 .6 0 1.78 1.78 0 0 0 1.52-.52 7.7 7.7 0 0 0 2.29-4.44h.12a.83.83 0 0 1 .22-.08 1.81 1.81 0 0 0 1.43-1.39 8.62 8.62 0 0 0 .27-3.08v.11a2.37 2.37 0 0 0 .55 1 1.84 1.84 0 0 0 .51 1 1.76 1.76 0 0 0 .78.45v1.29a1.79 1.79 0 0 0 .42 1.15l.68.81a54.77 54.77 0 0 0 3.79 4.27 2 2 0 0 0 .75.44 2.76 2.76 0 0 0 .63.1 4.27 4.27 0 0 0 1.71 1.11 2 2 0 0 0 1 .26 1.94 1.94 0 0 0 .33 0 2.27 2.27 0 0 0 .81.16 2.45 2.45 0 0 0 .75-.12 2 2 0 0 0 .57-.31 3.94 3.94 0 0 0 .71 0 2.27 2.27 0 0 0 1.88.92h.13a1.67 1.67 0 0 0 .31 0 2.68 2.68 0 0 0 1.89-1.66 5.78 5.78 0 0 0 1.34-.38 2 2 0 0 1 .59-.17 1.81 1.81 0 0 0 1.63-1.23 1.89 1.89 0 0 1 .52-.54 4.79 4.79 0 0 0 1.54-2.07 1.83 1.83 0 0 0-.09-1.4 3.46 3.46 0 0 0 1-2.59l.66.51c1.33 1 2.48 1.92 3 3.31 0 0 .06.09.08.14 1-.06 2-.1 3.07-.14l-.1-7L115 101l-.06-20c-.14.06-.26.14-.4.2a2.93 2.93 0 0 0-1.2 3.07 2.14 2.14 0 0 0-.2-.32 1.8 1.8 0 0 0-1.3-.68h-.13l-.06-.11a1.74 1.74 0 0 0-1.66-1 3.83 3.83 0 0 0-.82-.28 8.28 8.28 0 0 0-5.18-1.39h-.13a1.86 1.86 0 0 0-1.09.39v4.24h-6.16v-7.61h-1a1.78 1.78 0 0 0-1.29.55 1.82 1.82 0 0 0-.51 1.32v.79a1.81 1.81 0 0 0-1.57.75c-.29.42-.59.81-.9 1.2s-.81 1-1.2 1.62A5.82 5.82 0 0 0 88.16 85l-.32.28h-.09a3.22 3.22 0 0 0-.83.34 1.85 1.85 0 0 0-.53.45l-.17.08a7.24 7.24 0 0 1-.89.39 7.27 7.27 0 0 0-1.78.93 1.79 1.79 0 0 0-.72.19 3.09 3.09 0 0 0-1.57 1.88 2.42 2.42 0 0 0-2.1 1.37zm24.15 6.65a7.2 7.2 0 0 0 1.11-.29 2.26 2.26 0 0 0 .5.17 1.75 1.75 0 0 0 .88 0l.81-.2a11.07 11.07 0 0 0 2.11-.65 5.44 5.44 0 0 0 2-.36 1.53 1.53 0 0 0 .56.27l.26.06a3.79 3.79 0 0 0-1.17 1.73 4 4 0 0 0-.58.51 1.75 1.75 0 0 0-.56.06 7.3 7.3 0 0 0-2.48 1.09l-1.37.09c-.55 0-1.07.08-1.61.1a3.28 3.28 0 0 0-1-1.49 2 2 0 0 0 .54-1.09zm27.51 19.59l.2.09zm-1.1-.48l.23.1zm-1.81-1.41a3.27 3.27 0 0 1 .45.46 3.27 3.27 0 0 0-.45-.46zm-1.03-.98a.21.21 0 0 1 0 .06.21.21 0 0 0 0-.06zm258 40.44zm1.46.01h.01-.01zm-5.49 5.6a2.23 2.23 0 0 0 .21-.44 2.23 2.23 0 0 1-.21.44zM410.09 138v-1.42l.09-5h-.92c-1.65 0-3.31 0-5-.09l.39-.08c-.29.05-.56.12-.8.18a5.84 5.84 0 0 1-.72.15 27.18 27.18 0 0 1-4.06 0c-1.09 0-2.15-.1-3.18 0a11.35 11.35 0 0 0-1.58.21l-11.86-.31v7.05h4.29a47.16 47.16 0 0 0 6.29-.28h.44a2.14 2.14 0 0 0 1.64-.68l.54-.06.18.06a6.8 6.8 0 0 0 1.86.23c.56 0 1.13 0 1.67-.09s.93-.07 1.43-.07c.47 0 1 .07 1.48.13a14.13 14.13 0 0 0 2 .16 5 5 0 0 0 1.27-.2h1.16a5.09 5.09 0 0 0 .55 0h2.83zm-7.44 0h-.24v-6.13h.26zm-5.01 40.24a1.79 1.79 0 0 0-.62-.89c0 1.15.07 2.3.1 3.44a2.11 2.11 0 0 0 .31-.36 2.43 2.43 0 0 1-.2.25c0-.79.11-1.74.2-2.88a2 2 0 0 1 .21.44zm59.87-105.53v9.47a2.11 2.11 0 0 0 .78-.24 2 2 0 0 0 .6-.44h1.87a6.36 6.36 0 0 0 .91.06 5.63 5.63 0 0 0 1.53-.18 1.77 1.77 0 0 0 1.31-.58 1.82 1.82 0 0 0 .47-1.37v-.13a3 3 0 0 0-.21-.93 5.3 5.3 0 0 1 .35-1 2.44 2.44 0 0 0 1.31-1.37 1.81 1.81 0 0 0-.42-2 7 7 0 0 1-.75-.88 1.82 1.82 0 0 0-1.48-.77h-.61a1.81 1.81 0 0 0-1.17.44 7.56 7.56 0 0 1-2.27.28 5.71 5.71 0 0 1-1.56-.16 2 2 0 0 0-.7-.24zm-40.37 7.78a1.9 1.9 0 0 0 .34-.54 2.39 2.39 0 0 1 .56-.56c.18-.15.35-.29.52-.45a1.78 1.78 0 0 0 .52-1s0-.06.17-.13a2.46 2.46 0 0 0 .51-.39h.51a4.14 4.14 0 0 0 1.24 1.36l.16.12a1.78 1.78 0 0 0 1.12.39 1.88 1.88 0 0 0 .57-.09 15.86 15.86 0 0 1 4.21-.35 25.53 25.53 0 0 0 3.84-.19 4.33 4.33 0 0 0-.12 1.4 1.83 1.83 0 0 0 .52 1.13.23.23 0 0 1 .05.07 2.32 2.32 0 0 0 1.79 1.06h.33c2 0 2.56-1.6 2.78-2.82a2.7 2.7 0 0 0 .87.22h.42a2.81 2.81 0 0 0 2-.77 3.25 3.25 0 0 0 2.13.66h.6a1.79 1.79 0 0 0 1.12-.47 1.94 1.94 0 0 1 .26-.16 1.68 1.68 0 0 0 .4-.3 2.92 2.92 0 0 0 1.12.54 3.59 3.59 0 0 0 .61 1.8 1.81 1.81 0 0 0 1.5.88c.59 0 1.09.06 1.58.11s1 .1 1.5.1a6.17 6.17 0 0 0 3.23-.88 1.85 1.85 0 0 0 .68-.71 2.89 2.89 0 0 0 1.74 1.48 1.78 1.78 0 0 0 .84.22v-9.5h-.17a2.12 2.12 0 0 0-1.49-1.5 4.42 4.42 0 0 0-2.15-.29 1.93 1.93 0 0 0-.93.3h-.4a1.8 1.8 0 0 0-1.36.62 1.92 1.92 0 0 0-.36-.14l-.27-.08a5.28 5.28 0 0 0-1.66-.26 2 2 0 0 0-1.24.48 1.8 1.8 0 0 0-1.25 1.15 1.83 1.83 0 0 0-.07 1 2.33 2.33 0 0 0-.38 0h-.15a1.79 1.79 0 0 0-1.35.63l-.14-.07a5.29 5.29 0 0 0-2.18-.42 1.84 1.84 0 0 0-1.26.52l-.39.41-.25.26A4.24 4.24 0 0 0 438 74.3a3.48 3.48 0 0 0 .09-1 1.79 1.79 0 0 0-.7-1.34 4.74 4.74 0 0 0-2.69-.92 2.78 2.78 0 0 0-2.63 1.61 1.79 1.79 0 0 0 .37 2l.1.09c0 .19-.08.38-.13.57a2.78 2.78 0 0 0-2.41-1.13 8 8 0 0 0-1.51.18c-.28 0-.56.09-.81.11a14.89 14.89 0 0 1-2.09-.08c-.66 0-1.35-.11-2-.1l-.2-.12a2.14 2.14 0 0 0 .13-1.31 2.78 2.78 0 0 0-2.83-2.07 2.86 2.86 0 0 0-1.4.36 2.69 2.69 0 0 0-1.58.44 1.44 1.44 0 0 0-.27.22l-.24-.12h-.08q0 4.38.02 8.8zM457 101.47a5 5 0 0 0-.93-2.8 2.16 2.16 0 0 0-.2-1.17 5.09 5.09 0 0 0-1.11-1.41l-.15-.14a2.12 2.12 0 0 0-2-1.53 2.19 2.19 0 0 0-.36 0h-.39a2 2 0 0 0-.24 0 23.35 23.35 0 0 0-4.42-5.07l-.13-.12a1.79 1.79 0 0 0-1.23-.48h-.6a1.77 1.77 0 0 0-1.33-.75 2.51 2.51 0 0 1-1.93-1 1.79 1.79 0 0 0-1.16-.66 38 38 0 0 0-8.5-.39 20.24 20.24 0 0 0-5.43 1.45 2.79 2.79 0 0 1-.35.11 5.91 5.91 0 0 0-.85.3 1.81 1.81 0 0 0-.76.67c-.36.18-.7.36-1.05.56a1.7 1.7 0 0 0-.9-.44 2.58 2.58 0 0 0-1.52.18 3.34 3.34 0 0 0-1.65-.06.92.92 0 0 1-.36 0 1.78 1.78 0 0 0-1.43.54l-.06.06a7.8 7.8 0 0 0-1.12.26l.41-.12v1.43l-.07 12.13 3.81-.08 14.21-.14 14.21.13 3.47.08v-.36h.29a.81.81 0 0 1 .21.1 4.07 4.07 0 0 0 1.14.43 2.33 2.33 0 0 1-.42-.11h1.83a1.74 1.74 0 0 0 .58-.39 1.78 1.78 0 0 0 .49-1.21zm-22.21-3.82a2.72 2.72 0 0 0 0-.28 1.89 1.89 0 0 0-1.87-1.6 3.76 3.76 0 0 1-1.3-.18 2.57 2.57 0 0 0 .18-1.52 1.8 1.8 0 0 0-1.33-1.42 4 4 0 0 1 .77-.76 5.73 5.73 0 0 1 2.54-1c1.74-.17 2.94.5 4.53 1.39l.82.46a12.06 12.06 0 0 1 1.9 4.7c-2.03.14-4.18.19-6.26.21zM389.56 118a3.87 3.87 0 0 0-.26-.5 3.87 3.87 0 0 1 .26.5z"/><path class="cls-1" d="M381.06 159.88a2.65 2.65 0 0 0 .15-.81 2 2 0 0 0 0-.34 2.28 2.28 0 0 0-1.2-1.59 2.77 2.77 0 0 0 0-.54 1.82 1.82 0 0 0-.66-1.22 3.16 3.16 0 0 0-1.56-.61 9.94 9.94 0 0 0 1.89-.23 1.66 1.66 0 0 0 .37-.14 7.48 7.48 0 0 0 2.48.36V147a2.18 2.18 0 0 0-.63-.09 2.44 2.44 0 0 0-.89.18 1.79 1.79 0 0 0-.89-.19H378a6.37 6.37 0 0 0-1.91.23 1.8 1.8 0 0 0-1.26 1.72v.4a1.74 1.74 0 0 0 .38 1.11h-.64a1.79 1.79 0 0 0-.86-.77v10h-1.24l-2.46.06-2.46.11 2.46.12 2.46.06h1.24v21.45a1.76 1.76 0 0 0 .37-.08 1.76 1.76 0 0 1-.37.08v-21.45h3.59zm24.31-28.56l1-.05-1 .05zm1.04-.06h2.23c-.76.01-1.52-.01-2.23 0zm-3.74-4.71v.13a13.56 13.56 0 0 0 6.1-1.92l.13-.06c.44-.23.94-.49 1.44-.8v-1.67 1.63a5.26 5.26 0 0 0 2.67-3.31 4.11 4.11 0 0 1-.19.65c-1.33.07-2.66.12-4 .13-2.06 0-4.13-.09-6.19-.27zm-6.8 28.03zm2.65-.38a1.83 1.83 0 0 0 .68-1.41v-.67a1.79 1.79 0 0 0-.75-1.46 2.32 2.32 0 0 0-.56-.3 2.93 2.93 0 0 0-.67-1.22 3.19 3.19 0 0 0-1.42-.89 3.82 3.82 0 0 1 .68.31v1.3c0 1 0 2 .05 3l-11.46.22 11.47.22v1.47h.29a2.61 2.61 0 0 0 1.69-.57zm-1.94.57l-.27-.05zm-93.99-11.2l-5.27.21v6.69c1.76-.15 3.53-.21 5.29-.24zm.22 37.64c0-2.29-.06-4.57-.08-6.86v-5h-1.36c-1.34 0-2.67 0-4-.09v12.09c.33 0 .65-.1.92-.15a1.81 1.81 0 0 0 1.41-1.29 2.17 2.17 0 0 0 0-1.33 1.55 1.55 0 0 0 .31 0 3.07 3.07 0 0 0 .53 0 3.4 3.4 0 0 0 .44 1.21 3.27 3.27 0 0 0 2 1.45zm-95.98-15.13h-.26c0-2.34-.09-4.69-.15-7 0-1 .05-2.1.08-3.16 0-3.34-.09-6.69-.1-10 0-4.94 0-9.87.2-14.81l.24-7.4c.06-1 .11-2 .16-3l-1.3.07v5.69c.12 9.62.29 19.23.57 28.85-1.42.09-2.84.19-4.26.32 1.43.14 2.85.24 4.27.33 0 1 .05 2 .08 3-.06 2.39-.1 4.78-.15 7.17l-5.07.06 5.06.06c0 1.42 0 2.85-.07 4.28.28 0 .55-.05.83-.06-.04-1.48-.07-2.95-.13-4.4z"/><path class="cls-1" d="M248.89 202.57v-10.61c-.79 0-1.59-.09-2.38-.16-.47 6.09-.79 10.68-.87 12.93-.13-4.36-.21-8.71-.3-13.06a32 32 0 0 1-3.18-.53 31.52 31.52 0 0 1 3.16-.52q-.21-11.28-.34-22.56l-.21-37 .2-37 .25-18.51c0-1.85.08-3.7.11-5.55a53.1 53.1 0 0 1-7.52-.77 53.81 53.81 0 0 1 7.56-.77c.07-3.81.15-7.62.27-11.42.13 3.8.21 7.59.28 11.39 1.07 0 2.14-.06 3.21-.07 2.28 0 4.57.1 6.85.3 0-1.55.07-3.1.12-4.65.05 1.55.07 3.11.11 4.67 1.41.13 2.83.29 4.24.55-1.4.26-2.81.42-4.21.55q.38 13.88.52 27.76c.15 11.18.13 22.35.21 33.53l-.08 12.14 3.81-.09 14.21-.13 14.21.13 7.11.16h.85v-22.26l.09-24 .09 24 .05 22.27 5.27.21v-3.26l.16-34.1.19-17.05.11-5.55-3.87-.07c-2.28-.06-4.56-.12-6.84-.2l.06 11.62-.08 16.52c.77 0 1.53.07 2.3.13-.77.07-1.54.1-2.3.14v1.72c-.06 6.16-.13 12.33-.28 18.5-.16-6.17-.23-12.34-.29-18.5v-1.69h-.27l-3.15.1c-2.09.07-4.19.08-6.29.08s-4.19 0-6.29-.08c-1.68 0-3.36-.12-5-.22l-.14 9.93-.14-9.94c-.33 0-.65 0-1-.06h1v-2.91l-.1-13-.08-25.92.08-25.91q.08-10.83.23-21.65c-.35-.05-.7-.11-1.05-.19q.52-.11 1.05-.18c0-1.3 0-2.59.06-3.89v3.88a23.68 23.68 0 0 1 2.91-.18c.69 0 1.38 0 2.07.09v-.46l-.11-2.59c-.06-1.73-.07-3.45-.08-5.18v-.61c-7.25 2.38-14.88 5.3-23.67 9.06h.08l-.06 5.51v-5.46q-2.28 1-4.66 2l-1.71.75c-1.29.56-2.68 1.17-4.12 1.82l1.8-.8v2.11c0 2.63-.06 5.26-.2 7.88.94.11 1.88.24 2.81.39-.95.17-1.91.29-2.87.4-.13 2.19-.31 4.38-.61 6.57-.29-2.15-.47-4.3-.6-6.46-2.08.2-4.16.28-6.24.32 0 .9 0 1.79.08 2.69q.12 3.2.33 6.38c-4.53-.23-9.07-.31-13.6-.32-2.63 0-5.26 0-7.88.11v7.73c-.07 9.88-.06 19.75-.2 29.62l-.25 14.8c-.07 2.42-.12 4.84-.19 7.26 2.25-.19 4.49-.27 6.74-.29.06-9.72.06-19.45.2-29.18l.21-12.93a37.41 37.41 0 0 1-3.9-.57c1.31-.26 2.61-.43 3.92-.56v-.52c.14-4.87.23-9.73.43-14.59.19 4.86.28 9.72.42 14.59v.42c1.74-.14 3.49-.19 5.23-.21 2.11 0 4.23.11 6.34.33.07-2.14.11-4.28.19-6.42.08 2.15.12 4.3.19 6.46 1.1.12 2.2.28 3.29.5-1.09.23-2.17.38-3.26.51q.3 10.63.45 21.27c.14 9.58.13 19.16.2 28.74s-.06 19.16-.2 28.74l-.24 14.38a.34.34 0 0 1 0 .1c.68 0 1.36 0 2-.08 0 1.28-.06 2.56-.1 3.85h.26-.26q-.28 10.74-.45 21.47c-.06 8.63-.12 17.26-.13 25.88l-.5.2 1.09-.44a1.74 1.74 0 0 0 .51 0h.18a1.94 1.94 0 0 0 1.39-1c.17-.07.38-.15.55-.2l.37-.14a1.75 1.75 0 0 0 1.11.07c.59-.15 1.15-.35 1.7-.54 1.32-.46 2.52-.84 3.51-.44a1.81 1.81 0 0 0 2.27-.85 2.31 2.31 0 0 1 1.52-1.2z"/><path class="cls-1" d="M227.3 34.37a2 2 0 0 0-.94.61 16.25 16.25 0 0 0-2.73 1.46l.63.09c.11 1 .25 2 .44 3.06.18-1 .32-2 .44-3 2.75.27 5.51.36 8.27.37h1.87c-.07-2.51-.1-5-.12-7.53a42.48 42.48 0 0 0-7.86 4.94zm-21.56 26.08l.2-13.73c-1.13-.07-2.25-.15-3.38-.25a1.79 1.79 0 0 0-.83.51l-.08.06a2.75 2.75 0 0 0-1.06 1.47l-.14.17v.06a1.92 1.92 0 0 0-.63.3 2.78 2.78 0 0 0-.77.86 2.9 2.9 0 0 0-1.36 1.26 2.15 2.15 0 0 0-.14.26h-.09a1.8 1.8 0 0 0-1.48.14l-.21.11-.11.06a2 2 0 0 0-2.54.14 1.82 1.82 0 0 0-.62 1.13l-.53.33a1.7 1.7 0 0 0-.62.51l.06-.08.07 5.72c.71 0 1.41.07 2.11.13-.7.06-1.4.09-2.1.13v.49l.08 10.1.07 20.2-.07 20.19c0 3.52-.06 7-.1 10.57h1.44c4.27-.13 8.53-.29 12.8-.58l-.17-27.27zm.08 131.72h-5.25v-2.14 2.15l-1.93.06 1.93.07V205h-.9.9v4.37l-3.82.58 3.95-.6v-4.34h5.07c0-3.42 0-6.83.09-10.24-.07-.77-.05-1.68-.04-2.6zm8.86-153.69h.15-.15a1.81 1.81 0 0 0-1.6.39 4.41 4.41 0 0 0-.35.37 3.08 3.08 0 0 1-.44.31 4.83 4.83 0 0 0-1.22 1 1.94 1.94 0 0 0-1 .89 1.81 1.81 0 0 0-1.34.71 2 2 0 0 0-.77.73 1.93 1.93 0 0 0-.94.85 2.19 2.19 0 0 0-.72.51 1.91 1.91 0 0 1 .58-.43v2.3c2.44-.14 4.89-.23 7.34-.29v-7.35a1.76 1.76 0 0 1 .46.01zm-2.88 157.98v8.51c.71 0 1.41 0 2.12.08l-2.12.07h-5.95v3.76a2.88 2.88 0 0 1-.47.15 4.81 4.81 0 0 0 2.19-1.24 1.68 1.68 0 0 1 1.1-.55 1.78 1.78 0 0 0 .86-.39 2.06 2.06 0 0 0 .29.3 1.75 1.75 0 0 0 1.44.42 41.64 41.64 0 0 0 6.19-1.45c-1 .32-2.08.61-3.15.86v-8.31l-.08-6.42-2.22.07c-.21 1.42-.21 2.78-.2 4.14zm21.94-37.09l.09-3.4c-4.2.22-8.41.31-12.61.33-4.9 0-9.8-.11-14.71-.42 0 1.6.05 3.19.1 4.78 0 1.8.14 3.61.22 5.42l6.54-.08h.17v.15c0 1.94.09 3.88.13 5.82h1c3.76 0 7.51-.12 11.26-.44l.08 3.16c.14 3.45.22 6.9.42 10.34.2-3.44.28-6.89.43-10.34l.08-3.26c1-.1 2-.2 3-.33-1-.13-2-.23-3-.33l.15-6.42v-3.71a53.81 53.81 0 0 0 5.94-.37c.09 3.32.17 6.64.31 10 .14-3.34.22-6.69.31-10 .68-.1 1.36-.23 2-.38v-.09c-.56-.21-1.23-.34-1.91-.43z"/><path class="cls-1" d="M207.28 175.46c-.09-1.22-.14-2.44-.21-3.67l-.92-.06q-.19 10.22-.33 20.44h5.8v-1.16c0-1.8 0-3.6.07-5.41 0 1.81.06 3.61.08 5.41v1.17c.74 0 1.48 0 2.22.07l-.14-9.86c0-3.49-.11-7-.19-10.47-2.06 0-4.12-.06-6.18-.16-.06 1.24-.11 2.49-.2 3.7zm-7.84-4.35c2.24.3 4.48.49 6.71.62v-1.24c-2.22.13-4.46.31-6.71.62zm-20.06-77.52l.06-18.66.08-9.33v-2.62a7.38 7.38 0 0 1-.84.84l-.47.31a1.72 1.72 0 0 0-.58.59 1.91 1.91 0 0 0-.5.19 11.26 11.26 0 0 0-1.1.77h-.15a2.55 2.55 0 0 0-1.8 1l-.18.17a1.8 1.8 0 0 0-.69.92l-.21.17a10.57 10.57 0 0 1-2.31 1.64V69l.13-.05a1.79 1.79 0 0 0 1-1.33 2.73 2.73 0 0 0-.17-1.47 1.74 1.74 0 0 0-.13-.78 3.5 3.5 0 0 0 .31-2 1.78 1.78 0 0 0-.72-1.27 2.76 2.76 0 0 0-1.71-.62h-.94a1.78 1.78 0 0 0-1.72 1.67 5.68 5.68 0 0 0 0 1.28h-.22a3.46 3.46 0 0 0-.78.09 1.62 1.62 0 0 0-.44 0 .6.6 0 0 1-.23 0 1.7 1.7 0 0 0-.69-.58 3.6 3.6 0 0 0-1.45-.34 1.83 1.83 0 0 0-1.06-.34 2.36 2.36 0 0 0-.55.07 2.15 2.15 0 0 0-1.42-.5 1.76 1.76 0 0 0 .35-1 .42.42 0 0 1 .07-.24 2 2 0 0 0 1.28-.48 1.83 1.83 0 0 0 .8-.21 1.7 1.7 0 0 0 .79-.84 2.32 2.32 0 0 0 .75-1.21 1.83 1.83 0 0 0 .69-.8l.49-.28.77-.44c.38-.18.74-.36 1.07-.55a1.8 1.8 0 0 0-1.62-3.21c-.35.16-.7.34-1 .53a9.7 9.7 0 0 1-1.31.51l-.19.07a1.83 1.83 0 0 0-1.24.29 20.56 20.56 0 0 1-2.6 1.35l-1.35.65a2 2 0 0 0-.93.17 1.78 1.78 0 0 0-1 .41l-.15.09a3.17 3.17 0 0 0-1 .83l-.4.2a10.7 10.7 0 0 0-1.41.78 1.91 1.91 0 0 0-.51.13c-1.82.76-3.62 1.62-5.4 2.51 1.1-.55 2.2-1.09 3.31-1.59q.09 5.94.21 11.88a1.4 1.4 0 0 1 .09-.17 10.48 10.48 0 0 0 .91-1.13l.13-.18a18.43 18.43 0 0 1 2.5-1.98l1.1-.79a2.08 2.08 0 0 0-.71 2.2 1.48 1.48 0 0 0 .13.35l.12.26a1.79 1.79 0 0 0 0 1.25 1.88 1.88 0 0 0 .47.71 1.28 1.28 0 0 0 .12.41l-1.49.94-4.58 2.91h1.35l6.82.19h1.07q.12-8 .29-16.08c.13 5.37.22 10.74.3 16.11 1.72.07 3.44.14 5.16.26-1.72.12-3.43.19-5.15.26q.13 9.42.22 18.84l.11 24.27 4.85.16c4.79.16 9.58.18 14.37.2h1c0-3.06-.07-6.13-.09-9.19zm-16.19-33.5a1.28 1.28 0 0 1-.13.21l-.08-.07a1.1 1.1 0 0 0 .21-.14zm5.42 3.22a1 1 0 0 1 .66-.29v.23c-.16.01-.36.05-.66.06zm1.31.1a.88.88 0 0 0-.64-.16V63a1.17 1.17 0 0 1 .83.41zm44.33 128.89zm-34.66-65.97l-2.16.13c.72.06 1.44.1 2.17.13 0 1.44 0 2.89.06 4.33 0-1.44 0-2.88.06-4.32l2.17.07c1.48.06 3 .06 4.45.07s3 0 4.46-.06h.5c0 1.42 0 2.84.06 4.26v-4.27l1.62-.05c.74 0 1.49-.08 2.23-.14-.74-.06-1.49-.09-2.23-.14h-1.61c0-1.66 0-3.32.05-5-4 .11-7.95.15-11.93.16.07 1.58.08 3.21.1 4.83zM157.43 130c.16 4.87.18 9.73.2 14.59s0 9.73-.2 14.59l-.24 7.3c-.15 2.43-.23 4.86-.43 7.29-.2-2.43-.28-4.86-.42-7.29l-.05-1.3a26.65 26.65 0 0 1-6.5.75 26.14 26.14 0 0 1-6.49-.75c-.12 6.06-.25 12.11-.47 18.17-.36-9.94-.53-19.89-.67-29.83v-6.23h-3.61l.09 5 .16 14.31.12 28.63-.14 19.77h.43c2.12-.18 4.13-.34 6.06-.44a1.82 1.82 0 0 0 1.12-.49c.87-.13 1.94-.36 2.75-.55h.07a10 10 0 0 0 2.38-.39l.73-.16-.12-12.09-.14-8c2.14.09 4.29.13 6.43.15l.19 10.25.2-10.24h1.17c3.29 0 6.57-.08 9.86-.27v-.82c-3.28-.19-6.57-.26-9.86-.27h-1.15l.12-6.15.19-17.73.16-35.47-.05-11.19-2.24-.08c.15 2.94.26 5.94.35 8.94z"/><path class="cls-1" d="M169.91 192.72l-.08 15v3.91h-.31l.71.11 4.65.59c.95.62 2.38.9 4.63.9 1.29 0 2.65-.09 3.85-.17l-1.39.08v-5.38c-.07-11.18-.06-22.35-.2-33.53-.12-9.25-.28-18.51-.53-27.76 1.41-.13 2.81-.29 4.22-.55-1.42-.26-2.83-.42-4.24-.55-.05-1.56-.07-3.12-.12-4.68-.05 1.55-.07 3.1-.12 4.65-2.28-.2-4.56-.28-6.85-.29-1.07 0-2.14 0-3.2.07-.08-3.8-.16-7.6-.28-11.39-.12 3.8-.2 7.61-.28 11.42a53.81 53.81 0 0 0-7.56.77 53.39 53.39 0 0 0 7.53.77l-.12 5.54-.22 18.44-.12 21.23c1.72.1 3.43.22 5.14.41-1.68.18-3.4.31-5.11.41zm232.6-24.84v-6.49a3.15 3.15 0 0 0-1-.17 2.92 2.92 0 0 0-1.08.2 4.23 4.23 0 0 0-1.1-.16 2.68 2.68 0 0 0-1.51.43 3.37 3.37 0 0 0-1.62-.42 3.44 3.44 0 0 0-.46 0 3.44 3.44 0 0 1 .46 0 4.21 4.21 0 0 1 .5 0c0 2.25.07 4.51.12 6.76l-.47.1a5.2 5.2 0 0 0 .65-.13 2.76 2.76 0 0 0 .77.11 2.66 2.66 0 0 0 1.52-.5 3 3 0 0 0 1.06.48 1.51 1.51 0 0 0 .42.05 1.8 1.8 0 0 0 1.14-.4l.19-.17a2.7 2.7 0 0 0 .4.25h.08zm74.28-31.15h-.8.8q0-1.89-.06-3.78v-2.82h.76a13.72 13.72 0 0 0-1.56 0 4.83 4.83 0 0 1-.95.05c-.33 0-.64 0-1-.07a9.81 9.81 0 0 0-1.92-.07 8.29 8.29 0 0 0-1.62.36 4.31 4.31 0 0 1-.9.22 9.81 9.81 0 0 1-1.63 0 11.53 11.53 0 0 0-3.05.07 1.69 1.69 0 0 0-.54.21c-1.6 0-5.15-.35-8-.66h-.05a4.71 4.71 0 0 0-1.46.11l-.37.06c-.82-.08-1.75-.12-2.92-.12h-5.6l-.09 8.09h-3.42c7.39 0 16-.06 24.35-.55h.11a25.33 25.33 0 0 1 2.72-.12A14.16 14.16 0 0 0 475 137a1.9 1.9 0 0 0 .4-.25h1.36zm9.02-2.95c0-.72 0-1.45.05-2.18a2.14 2.14 0 0 1 .36.28h1.28a1.83 1.83 0 0 1 1.3.54 1.83 1.83 0 0 0-1.3-.54h-1.28a2.14 2.14 0 0 0-1.57-.6h-.42c-.42 0-.89-.07-1.35-.09h-.4a1.87 1.87 0 0 0-.28-.16 5.06 5.06 0 0 0-2.31-.31h.41c0 1.85.06 3.71.06 5.56a2.07 2.07 0 0 1-.94.22 2.08 2.08 0 0 0 1-.24 17.22 17.22 0 0 0 2.57.09h.01a1.94 1.94 0 0 0 .91-.25l.12-.06.24-.13h1.41c.08-.7.11-1.41.13-2.13z"/><path class="cls-1" d="M408 161.77a1.77 1.77 0 0 0-.34.33 1.91 1.91 0 0 0-.23.45 8.11 8.11 0 0 0-.86 0 2.68 2.68 0 0 0-1.47-1.13 3.36 3.36 0 0 0-2.24.06l-.31-.1v6.46a3.37 3.37 0 0 0 1.43.31 3.17 3.17 0 0 0 2.31-.92 7.38 7.38 0 0 0 1.17.1h.41c.06-1.83.13-3.69.13-5.56zm1.87 6.35v-6.75h-.82.07v6.37a3 3 0 0 1-.52-.47 2.92 2.92 0 0 0 .85.7 1.82 1.82 0 0 0 .84.2 1.82 1.82 0 0 1-.42-.05zm-59.54 13.38a1.75 1.75 0 0 0 .71-.19h.18l.18-9.4-1.16-.12v5.69zm14.58-37.77a5 5 0 0 0 .77-.55 1.79 1.79 0 0 0 .35-.43 1.81 1.81 0 0 0 1.51 0 4.62 4.62 0 0 0 .64-.39 1.8 1.8 0 0 0 .64-.18 1.86 1.86 0 0 0 .9-.87 6.29 6.29 0 0 0 1.68-1.22l.25-.23A3.89 3.89 0 0 1 373 139a2.07 2.07 0 0 0 .52-.65h.12v-6.85l4.3.09c-3.95-.09-8-.17-12-.23h-.09l-3.28-.05a1.79 1.79 0 0 0 .16-1.62 1.08 1.08 0 0 0 .08-.19 7.53 7.53 0 0 1 .81-1h-1.44l.07 12.14v3.22H365z"/><path class="cls-1" d="M350.25 171.83v-.75c-.91.1-1.83.21-2.74.37.91.17 1.83.28 2.74.38zm14.29 9.48q-.1-4.71-.26-9.42c1.09-.11 2.18-.24 3.26-.44a45.57 45.57 0 0 0-3.29-.44c-.07-1.87-.11-3.74-.19-5.62-.08 1.86-.12 3.73-.19 5.59l-1.77-.12v3.17c0 1.82-.06 3.65-.08 5.47a3.61 3.61 0 0 0 3.16 1.86 4.18 4.18 0 0 1-.64-.05zm-26.63-98.46v.22c.72 0 1.45-.06 2.17-.11-.72-.05-1.45-.08-2.17-.11zm-.16-72.09c-1.42-.44-2.86-.85-4.32-1.26a66 66 0 0 0-17.13-1.94c-2.13 0-4.24.07-6.27.21a3.89 3.89 0 0 0-.4-.1 3.89 3.89 0 0 1 .4.1c2-.14 4.14-.21 6.27-.21h2.69l-.05 19.92-.1 18.14-.14 14.48a14.19 14.19 0 0 1 1.81.29 14.35 14.35 0 0 1-1.82.29v3.08-3.08c-.61.05-1.21.07-1.82.08a22.74 22.74 0 0 1-2.47-.15c.18 2 .24 4.07.25 6.11 0 1.56 0 3.11-.14 4.66.29 0 .59.09.88.16q-.45.09-.9.15c-.05.81-.12 1.63-.21 2.44-.1-.8-.16-1.59-.21-2.38a23.34 23.34 0 0 1-5.37 0q0 1.28-.06 2.55l-.1 2.5c-.07.83-.1 1.67-.19 2.5-.08-.83-.12-1.67-.18-2.5l-.1-2.5c0-.88-.05-1.76-.07-2.64l-.76-.13c.26-.06.51-.1.76-.14V69.3c0-1.66 0-3.33.09-5 .05-1.27.11-2.53.2-3.79l-1.21.08-2.41.1c-1.6.07-3.21.08-4.81.09s-3.21 0-4.81-.09c-1 0-1.94-.08-2.91-.14l.13 6.52.1 9.26v6.24c2.28-.08 4.56-.14 6.84-.2l3.89-.06.2-10.33.21 10.32c3.11 0 6.23-.07 9.34-.08 4.55 0 9.1 0 13.64.15l6.82.19h1.07c.08-5.36.17-10.72.3-16.08q.18 8.05.29 16.11c1 0 2 .1 3 .15v-8.38z"/><path class="cls-1" d="M360.11 148.12a3.92 3.92 0 0 1-1.13 0 1.82 1.82 0 0 0-1.32.24 3.09 3.09 0 0 0-.66-.25 1.4 1.4 0 0 0 .34-.26 9 9 0 0 1 1.11-.91 1.71 1.71 0 0 0 .82-.2l.09-.05a2 2 0 0 0 .87-.36h.16a4.43 4.43 0 0 0 2.65-1 2.57 2.57 0 0 0 .35-.2 2.57 2.57 0 0 1-.35.2 6.55 6.55 0 0 1-.82.5v-2.09H362l-11.86-.05.15 27.41 1.18-.12v-.45c.14-4.23.23-8.46.43-12.69.19 4.23.28 8.46.42 12.69v.37c1.74-.12 3.49-.17 5.23-.18 1.52 0 3 .07 4.57.16.07-7.51.1-15 .14-22.54a5.53 5.53 0 0 0-2.15-.22zm8.61-105.37V25.2a1.71 1.71 0 0 0-.63-.32 9 9 0 0 0-.66-1 3.28 3.28 0 0 0-.52-1.11 1.74 1.74 0 0 0-.47-.6 2.62 2.62 0 0 0-.28-.44 2.09 2.09 0 0 0-.55-.93 1.91 1.91 0 0 1 .37.49v21.48h1.05z"/><path class="cls-1" d="M388.38 117.42h.94a5.31 5.31 0 0 0-.44-3c0-.11-.09-.22-.12-.31a1.77 1.77 0 0 0-1.93-1.22 2.3 2.3 0 0 0-1.37.44 1.78 1.78 0 0 0-1.14.05 4.28 4.28 0 0 0-.77.41l-.25-.17a4.63 4.63 0 0 0-.22-2.1 3.3 3.3 0 0 0 1-1.31 2.53 2.53 0 0 0-.15-2.24 1.75 1.75 0 0 0-1.5-.91l.28-.18c.31-.2.32-.2.45-.2a1.8 1.8 0 0 0 1.94-1.79V104a1.8 1.8 0 0 0-1.08-1.65 2.18 2.18 0 0 0 .48-.58 2.34 2.34 0 0 0 .15-1.85 1.78 1.78 0 0 0-1.4-1.27 4.28 4.28 0 0 0-.46-.05 2.86 2.86 0 0 1 0-.52 3.88 3.88 0 0 1 .38-.93 4.25 4.25 0 0 0 .45-3.81 1.83 1.83 0 0 0-1.09-1 2.71 2.71 0 0 0-.88-.15 2.35 2.35 0 0 0-1.1.26c0-.12-.07-.24-.11-.35a1.8 1.8 0 0 0 .49-1.06 10.38 10.38 0 0 0-.09-2.5 8.62 8.62 0 0 1-.09-1.52 1.79 1.79 0 0 0-1.39-1.85 2.69 2.69 0 0 0-.92-.07 5 5 0 0 0-.45-.29 1.78 1.78 0 0 0-1.48-.16 8.42 8.42 0 0 1-1 .21 6 6 0 0 0-2.91 1 1.69 1.69 0 0 0-.46.6 25.43 25.43 0 0 0-4.68-.11 9.08 9.08 0 0 0 1-2.86 1.83 1.83 0 0 0 .58-1 1.73 1.73 0 0 0 .16-.3h.29a9 9 0 0 0 3.45-.91 16.38 16.38 0 0 0 1.91-1 3.75 3.75 0 0 0 1.87.18 1.84 1.84 0 0 0 1.2-.67l.06-.07a6.83 6.83 0 0 0 2.33-.46 4.16 4.16 0 0 0 .28 1.74 1.8 1.8 0 0 0 1.53 1.14h.36a3 3 0 0 0 2.28-.92 4.36 4.36 0 0 0 1-3.24 6 6 0 0 0 .31-1.1l.39-.24a2.55 2.55 0 0 1 .28-.18l.19-.06.46-.18a1.81 1.81 0 0 0-1.12 1.43 3.38 3.38 0 0 0 2.83 4.15h.32a1.82 1.82 0 0 0 .79-.18l.49-.24a16.73 16.73 0 0 1 3.13-1.31 1.86 1.86 0 0 0 .5-.22 1.79 1.79 0 0 0 .09.94 1.76 1.76 0 0 0 1.25 1.21 1.92 1.92 0 0 0-.24.72 3.37 3.37 0 0 0 0 .63 1.25 1.25 0 0 0-.16.24h-.09a1.77 1.77 0 0 0-.85 1.81 3.1 3.1 0 0 1 0 .42 5.62 5.62 0 0 0 0 .93 2.56 2.56 0 0 0-.39 0 2.06 2.06 0 0 0-.34 0 1.82 1.82 0 0 0-1 .45 5.8 5.8 0 0 0-1.37-.08 1.81 1.81 0 0 0-1.64 1.48 3.9 3.9 0 0 0-.05.81 3.88 3.88 0 0 0-.41.66v.09a1.79 1.79 0 0 0-.43 1.4 1.11 1.11 0 0 0-.19.09l-.21.1a5.37 5.37 0 0 0-1.86 1.42 1.83 1.83 0 0 0-1.44.37 2.87 2.87 0 0 0-.82 3.25 3.42 3.42 0 0 0 3 2.34 2.45 2.45 0 0 0 .9-.18 3.51 3.51 0 0 0 1.25.69.86.86 0 0 0 .14.18 2.45 2.45 0 0 0 0 1 2.83 2.83 0 0 0 1.94 2.22c0 .81-.07 1.61-.11 2.41-.11 2.42-.22 4.7-.21 7v1.29a28.36 28.36 0 0 0 .18 3.71l5 .06.2-32.05.19-12.95a1.75 1.75 0 0 0-1.22.6 2 2 0 0 0-.9.89l-.16.18-.11.13h-.13l-.22.08a4 4 0 0 0-.12-.56 1.81 1.81 0 0 0-.71-.92 8.31 8.31 0 0 0-4.05-1.06 1.91 1.91 0 0 0-.82.13 3.69 3.69 0 0 0-2.62-1 3.91 3.91 0 0 0-1.2.18 1.79 1.79 0 0 0-1.18 1.24 2.25 2.25 0 0 0-.08.58c-.57.38-1.18.72-1.78 1-.4.22-.82.41-1.23.6l-.37.18a.6.6 0 0 0 0-.19 1.58 1.58 0 0 0 0-.38A2.68 2.68 0 0 0 377 72.2a4.65 4.65 0 0 0-.66 0 1.77 1.77 0 0 0-.51-.43 6.09 6.09 0 0 0-2.08-.81 2.19 2.19 0 0 0 .34-.34 4.63 4.63 0 0 0 .69.29 1.91 1.91 0 0 0 .58.1 2.85 2.85 0 0 0 2.94-1.8 1.8 1.8 0 0 0-.44-2.17 2.9 2.9 0 0 0-.31-.52 5.75 5.75 0 0 0-.75-1.6 2.09 2.09 0 0 0-.33-.93 1.89 1.89 0 0 0 .16-.84 2.92 2.92 0 0 0 .29-.38 1.78 1.78 0 0 0 .47-.79 1.86 1.86 0 0 0 .8.2 2.09 2.09 0 0 0 .35 0 1.81 1.81 0 0 0 1.16-2.91 1.45 1.45 0 0 0-.21-.22v-.07c0-.09 0-.19.09-.35a4.16 4.16 0 0 0-1-3.42c.08.12.18.26.28.42h-4.44l-8.26-.09v35.81h.73a1.83 1.83 0 0 0-.27.75 3.77 3.77 0 0 0 .74 2.91v2.91a1.79 1.79 0 0 0-.8.49h-.39v9.11-9.1a1.8 1.8 0 0 0-1.6 1.78v.19a1.81 1.81 0 0 0-.52.91 2.37 2.37 0 0 0-1.9 2.49h-.06l-.38.17c-.35.15-.81.32-1.23.47s-.95.35-1.24.48a13.74 13.74 0 0 1-1.84.66l-.12.05a1.86 1.86 0 0 0 .22-.35 6.19 6.19 0 0 1 1.4-2.22 1.81 1.81 0 0 0 .66-1.08 1.78 1.78 0 0 0 .42-.44 3.75 3.75 0 0 0 .49-1.12 1.76 1.76 0 0 0 .93-1.35c0-.16.05-.33.08-.49a2.33 2.33 0 0 1 .19-.23 1.83 1.83 0 0 0 .49-.85l.06-.07a1.67 1.67 0 0 0 .25-.58 1.55 1.55 0 0 0 .33-.62 28.77 28.77 0 0 1 1.77-4.49 1.81 1.81 0 0 0 .14-.45 11.17 11.17 0 0 1 1.43 0v-9.56L366 56v-.4h-2.84l-5.66-.15-5.66-.26 5.66-.27 5.66-.15H366V42.78l-3 .06.07-22.26v-.15H363l-.15-.08-.09-.13a2 2 0 0 0-1.44-.76 1.27 1.27 0 0 0-.21-.25 2.06 2.06 0 0 0-1.7-1.26 2.14 2.14 0 0 0-.35-.16l-.05-.05a3.15 3.15 0 0 0-2.28-1.85 4.38 4.38 0 0 0-1.17-.09l-.2-.12a2.19 2.19 0 0 0-2-1.93 1.9 1.9 0 0 0-1.16.4l-.1-.1a3.46 3.46 0 0 0-.87-1.49 2.28 2.28 0 0 0-1.87-.94h-.3a1.75 1.75 0 0 0-.84-.44l.16.05v5.65l.08 24.36q.06 9.38.18 18.75l-1.94.06c-.89.06-1.79.09-2.69.17.9.07 1.8.11 2.69.16l1.95.07c0 1.71 0 3.43.07 5.14 0-1.71 0-3.42.07-5.13h.6c1.63.05 3.26.06 4.89.07v19c-.79 0-1.59.08-2.38.15-.5-6.41-.83-11.18-.89-13.28-.13 4.47-.21 8.94-.3 13.41a32 32 0 0 0-3.18.53 28.5 28.5 0 0 0 3.16.52q-.22 11.28-.34 22.56l-.08 13.86h9.54zm-.17-41.69c.11.08.21.16.31.22a2.24 2.24 0 0 0 .13.27 2.49 2.49 0 0 0-.64-.08 1.9 1.9 0 0 0-.63.11 3.06 3.06 0 0 0 .83-.52zm-2-4.65zm-36 46.26h-12.4l.1-34.32-3 .15q.13 9.42.22 18.83l.16 35.47-.14 35.53-.1 9.41a3.92 3.92 0 0 0 1.41.25 3.34 3.34 0 0 0 1.68-.41 2.7 2.7 0 0 1-.63.26l.22-33.77v-5.11l12.36.06v-3.17zm-273.69 5.83zM57 64.54l-.2 12.94c-.14 9.72-.13 19.45-.2 29.17q.06 9.33.11 18.66h1.33l.15-8.1.16 8.11h.94c3.73 0 7.46.11 11.18.46v-.45l4.08.12c0-.12.07-.24.1-.36-1.39 0-2.78.07-4.17.12v-10.69c-.06-8.44-.07-16.88-.16-25.32a3.25 3.25 0 0 0-.7-.51 23.44 23.44 0 0 0-2.35-1.06l-.8-.32c-1.47-.7-3.05-1.31-4.7-1.81a1.78 1.78 0 0 0 .39-1.11 2.11 2.11 0 0 0-.09-.56 3.8 3.8 0 0 0-.46-1.1l-.06-.11a1.8 1.8 0 0 0-.4-1.46 1.82 1.82 0 0 0-1.38-.64h-.1v-1.97a1.82 1.82 0 0 0 0-.33 4.8 4.8 0 0 0 .59-.88.3.3 0 0 0 .08-.08 1.81 1.81 0 0 0 1.24-1.61 2.82 2.82 0 0 0 .71-2.47 1.72 1.72 0 0 0-.5-1 2.13 2.13 0 0 0-.33-.28 1.61 1.61 0 0 0 .17-.4 2.73 2.73 0 0 0 .1-.41 3.08 3.08 0 0 0 2.26 1 5.66 5.66 0 0 0 .37 2.4A2.12 2.12 0 0 0 64 76a4.35 4.35 0 0 0 1.49 3.58 1.85 1.85 0 0 1 .46.59A1.79 1.79 0 0 0 67 81.36a1.93 1.93 0 0 0 .56.48 2.94 2.94 0 0 0 1.25.35 3.44 3.44 0 0 0 2.09.74 6 6 0 0 1-.63-.09q-.15-9.18-.4-18.36c1.09-.13 2.18-.28 3.27-.5-1.1-.23-2.2-.38-3.3-.51 0-1.45-.08-2.89-.13-4.34h-.11l-.12 4.31a64.287 64.287 0 0 0-11.58-.11v-.43c0-1-.06-1.92-.08-2.88h2.31-2.32a1.78 1.78 0 0 0-1.23.57h-.38a1.77 1.77 0 0 0-1.12.39 1.77 1.77 0 0 1 1.12-.39h.38a1.65 1.65 0 0 1 .53-.39c0 .9 0 1.8-.07 2.7v.52a36.41 36.41 0 0 0-3.84.58 35.67 35.67 0 0 0 3.8.54zm.37 49.51a2.1 2.1 0 0 0 .31-2.07 1 1 0 0 0-.07-.15 4.3 4.3 0 0 0-.11-.79 1.6 1.6 0 0 0 1.05-.34A2.06 2.06 0 0 0 60 109a1.71 1.71 0 0 0 0-.78 2.05 2.05 0 0 0 1.61-.76h.07a.69.69 0 0 1 0 .17 1.8 1.8 0 0 0 1.32 1.43 1.68 1.68 0 0 0 .86.07 1.53 1.53 0 0 0 .34.46 1.62 1.62 0 0 0 .43.31 3.68 3.68 0 0 0 0 .76 2 2 0 0 0 .22.76 11.64 11.64 0 0 1 1.02 2.58 1.79 1.79 0 0 0-1.07 2 .77.77 0 0 1-.07.16l-.08.2a4.44 4.44 0 0 0-1.54 1.22 3.32 3.32 0 0 1-.25.27h-.56a1.8 1.8 0 0 0-1.59-.94h-1.5a1.8 1.8 0 0 0-1.62 1h-.21a.64.64 0 0 0 .08-.14 1.73 1.73 0 0 0 .18-.79 1.81 1.81 0 0 0-.16-.73V116a3.46 3.46 0 0 0-.15-1.33 3.46 3.46 0 0 0 .05-.62z"/><path class="cls-1" d="M27.31 81.76a5 5 0 0 0-.3 2.65 4.08 4.08 0 0 0 1.59 2.74 2.82 2.82 0 0 0 .38.21 1.8 1.8 0 0 0 .65 1.64 2.5 2.5 0 0 0 1.65.6 2.45 2.45 0 0 0 .48 0 2.84 2.84 0 0 0 .53.43 5.66 5.66 0 0 0 .61 1.54c.07.13.13.25.19.39a1.67 1.67 0 0 0 1.08 1l.12.08a3.69 3.69 0 0 0 .73.38l.21.25A1.82 1.82 0 0 0 36.59 95a3.12 3.12 0 0 0 .52.08l.17.23.2.25a1.81 1.81 0 0 0 1.91 1.56h.27c.81 0 1 .26 1.15.63a1.79 1.79 0 0 0 1.48 1.07h.18l.19.17a1.81 1.81 0 0 0 1.32.38 1.88 1.88 0 0 0 .46.66 1.76 1.76 0 0 0 .4.27c0 .12-.07.23-.09.34a2.16 2.16 0 0 0-1.58.66 2.34 2.34 0 0 0-.63 1.8v.22a.19.19 0 0 0 0 .08 3 3 0 0 0-1.85-.52h-.47a3.45 3.45 0 0 1-.45 0 1.68 1.68 0 0 0-1.08.26 1.76 1.76 0 0 0-.8-.26h-.25a1.82 1.82 0 0 0-1.46-1.47 1.87 1.87 0 0 1-.43-.18 4.41 4.41 0 0 0-2.44-.6 1.76 1.76 0 0 0-.71.2 2 2 0 0 0-.6.45 1.83 1.83 0 0 0-1.3 2 3.17 3.17 0 0 0-.77 1.84 1.8 1.8 0 0 0 0 .52l.16.72a22.93 22.93 0 0 0 1.43 4.84 27.23 27.23 0 0 0 0 4.33c0 .27 0 .55.05.82a.86.86 0 0 0-.13.14 2.06 2.06 0 0 0-.37 1.75 2.29 2.29 0 0 0 .17.46 2.18 2.18 0 0 1 .23 1.41 4.59 4.59 0 0 0-.67.76 1.79 1.79 0 0 0-1 1.7v1.15a9.34 9.34 0 0 0 0 1.49v-.55h6.94v-1.88c0-2.9.08-5.81.17-8.71.09 2.9.13 5.81.17 8.71v1.88c1.88 0 3.75.07 5.62.13-1.87 0-3.74.09-5.62.12v2.54h-.24a2 2 0 0 0 .61-.07 1.66 1.66 0 0 0 .37-.14l.23.08a4 4 0 0 0 1.42.3h.32c.23.12.44.21.63.29l.22.09a1.84 1.84 0 0 0 1.39.76h.25l.22.09.09.1a1.81 1.81 0 0 0 1.33.93 5.13 5.13 0 0 0 .65.05 3.82 3.82 0 0 0 1.52-.31 2.11 2.11 0 0 0 1.24-.08 3.7 3.7 0 0 0 1.81 0h.15a3.79 3.79 0 0 0 .92.14 2 2 0 0 0 1.67-.84 2 2 0 0 0 .34-1h.32a2.06 2.06 0 0 0 0 .35 1.8 1.8 0 0 0 1.65 1.49 1.48 1.48 0 0 1 .36.18 4.94 4.94 0 0 0 1.18.52 1.76 1.76 0 0 0 1.27.02 1.53 1.53 0 0 1-.27.11v-5.2c-1.29 0-2.58 0-3.87.1l.12-6.47v-.76c-.31 0-.63 0-.94-.05A1.85 1.85 0 0 0 50.4 117a2.25 2.25 0 0 1-.32-.28 4.14 4.14 0 0 0-2-1.16.24.24 0 0 1 0-.19 1.79 1.79 0 0 0-1.24-1.86c-.15 0-.41-.77-.56-1.18a1.84 1.84 0 0 0-1.28-1.07 4.14 4.14 0 0 0-.58-1.6 4.74 4.74 0 0 0-.2-2.16 2.82 2.82 0 0 1-.15-.71A1.94 1.94 0 0 0 44 106a3.2 3.2 0 0 0 1.63 0 3.59 3.59 0 0 0 .55.26 1.79 1.79 0 0 0 .64 1 1.67 1.67 0 0 0 .28.18v.09a1.77 1.77 0 0 0 1.15 1.35l.17.41c.1.24.2.49.32.73s.22.41.35.63a3.91 3.91 0 0 1 .24.42 1.8 1.8 0 0 0 .67 1.65 5.74 5.74 0 0 1 1.26 2.22 17.87 17.87 0 0 0 .94 2 1.83 1.83 0 0 0 .77.69l.14-14.38.13-31.38V64h-.09.09v-3.42h.19a1.89 1.89 0 0 1 .78.17 1.89 1.89 0 0 0-.78-.17H53a1.75 1.75 0 0 0-.72.15 2.17 2.17 0 0 0-.88.36l-.13.1a1.91 1.91 0 0 0-.77-.19 13.87 13.87 0 0 0-1.54 0 1.8 1.8 0 0 0-.73-1.5 1.78 1.78 0 0 0-1-.68 1.83 1.83 0 0 0-1.49-.61h-.06a1.81 1.81 0 0 0-1.56-.33 1.76 1.76 0 0 0-1.22 1 5.83 5.83 0 0 0-.25.7 2.07 2.07 0 0 0-1.81-.22 1.83 1.83 0 0 0-.76.45 2.3 2.3 0 0 0-1.26-1.16A1.81 1.81 0 0 0 36.35 60v.11a4.86 4.86 0 0 0-.64.08 2.16 2.16 0 0 0-.84 0 1.79 1.79 0 0 0-1.48 1.31 1.81 1.81 0 0 0-1.54 1.5 3.18 3.18 0 0 0-.06.8 1.84 1.84 0 0 0-.69 1.07 3.32 3.32 0 0 0-.06.44 1.74 1.74 0 0 0-.48.53 2.43 2.43 0 0 0-1.94 2.36 1.78 1.78 0 0 0 1.08 1.71 1.79 1.79 0 0 0 .27.44 1.69 1.69 0 0 0-.25.2 1.8 1.8 0 0 0-.54 1.35 5.58 5.58 0 0 1-.06 1.34 1.81 1.81 0 0 0-1.62 1.57c-.09.69-.14 1.29-.19 1.86a14.93 14.93 0 0 1-.5 3.12 1.8 1.8 0 0 0 .06 1.21 5.28 5.28 0 0 0 .44.76zm44.09 44.06l-.93-.09v.17z"/><path class="cls-1" d="M54.16 60.75a1.79 1.79 0 0 1 .34.22 1.79 1.79 0 0 0-.34-.22zm4.21 65.61l.07 3.88a2.32 2.32 0 0 0 .59-.05l.26-.07a1.81 1.81 0 0 0 1.24.49H61a2.3 2.3 0 0 0 .34.25 2.88 2.88 0 0 0 .26.35 2.21 2.21 0 0 0 1.68.72h.45a3.33 3.33 0 0 0 2.52-2.44 2.77 2.77 0 0 0 .83-.54 2.77 2.77 0 0 0 .75 0 1.87 1.87 0 0 0 .52-.17 3 3 0 0 1 1-.27c.25 0 .54-.09.85-.17a2 2 0 0 0 .77.36 2.78 2.78 0 0 1-.5-.21v-2.53c-3.72.35-7.45.45-11.18.47zm-4.63-8.55l.3.19a2 2 0 0 0 .24.16A2 2 0 0 1 54 118zm-.74-.19a1.66 1.66 0 0 0 .37.14 1.66 1.66 0 0 1-.37-.14zm50.09 52.22l.22-11.41c-.25.31-.49.62-.72.95l-.06.1.06-.1c.1-.13.2-.25.29-.38zM92.35 154.2a2.3 2.3 0 0 0 .33.21c0-1.14-.05-2.29-.08-3.44l.06-.05a2 2 0 0 0-.5.41 2.12 2.12 0 0 0-.47 1.73 1.83 1.83 0 0 0 .66 1.14zm.33.21zm.5 44.18v-.48c-.07-9.12-.07-18.24-.19-27.36a2.51 2.51 0 0 1 .46-.16 1.85 1.85 0 0 0-.87.44 1.69 1.69 0 0 0-.29.41 1.77 1.77 0 0 0-.51 2.15 2.26 2.26 0 0 0-.16.26 1.75 1.75 0 0 0-.76.67l-.21.35a1.79 1.79 0 0 0-.94 1.56 2 2 0 0 0 0 .35 5.64 5.64 0 0 1-.78 1.34 1.6 1.6 0 0 0-.28.4 8.35 8.35 0 0 0-.36.85c-.06.17-.16.43-.22.55a1.77 1.77 0 0 0-.72 1.57c0 .12 0 .16-.25.58a5 5 0 0 0-.66 1.4 6.35 6.35 0 0 0-.84 2.79 5.9 5.9 0 0 1-.17 1 1.79 1.79 0 0 0-.08.65 1.91 1.91 0 0 0 1.54 2.27 1.83 1.83 0 0 0-.15.45v.28a2.18 2.18 0 0 0 .25 2 2.4 2.4 0 0 0 .4.38 1.86 1.86 0 0 0 1.37.6h.23a7 7 0 0 0-.22 1.48 4.93 4.93 0 0 0 .66 2.27 1.81 1.81 0 0 0 2.06.82 5.32 5.32 0 0 0 .83-.32 1.7 1.7 0 0 0 .7.23 1.87 1.87 0 0 0 .32.42 1.18 1.18 0 0 1-.16-.2zm-5.11-30.89a1.84 1.84 0 0 0 .82-1 4.64 4.64 0 0 0 1.33.19 2.71 2.71 0 0 0 2.24 1.12 2.32 2.32 0 0 0 .46 0q-.06-3.88-.14-7.77a1.81 1.81 0 0 0-1.12-.15 2 2 0 0 0-1.53 1.27 2.26 2.26 0 0 0-1.37 1.77 3.53 3.53 0 0 0-.52.22 3 3 0 0 0-2.07-1.84 1.83 1.83 0 0 0-.48-.63 3.21 3.21 0 0 0-3.65 0 1.83 1.83 0 0 0-.37.46 3.42 3.42 0 0 0-.44 0 3.32 3.32 0 0 0-.81.1 1.79 1.79 0 0 0-1-1v.73c0 2.33 0 4.66-.06 7h-.57a7.64 7.64 0 0 0 1.44-.18 4.23 4.23 0 0 0 1.3.2 4.41 4.41 0 0 0 1.24-.19 3.16 3.16 0 0 0 1.17.21 7.33 7.33 0 0 0 .9-.07 1.76 1.76 0 0 1 .31 0h.1a3.3 3.3 0 0 0 1 .13 4 4 0 0 0 1.82-.57zm-18.27.3q.09-3 .17-6c.22 0 .44-.08.65-.12a3.22 3.22 0 0 0-1.59-.42 3.58 3.58 0 0 0-1.74.45 3.08 3.08 0 0 0-.85-.38 1.85 1.85 0 0 0-.47-.61 2.86 2.86 0 0 0-1.82-.57h-.31a1.62 1.62 0 0 0-.72-.13 9.94 9.94 0 0 1-1.11 0 6.57 6.57 0 0 0-2.6.25 1.8 1.8 0 0 0-1.17 2 2.46 2.46 0 0 1 0 .26 2.87 2.87 0 0 0 .51 2.22v-2.66h-.47a1.82 1.82 0 0 1 .46-1.24v1.28c1.48.12 3 .2 4.44.21a51.92 51.92 0 0 0 6.22-.38c.06 2 .11 4 .18 6a4.48 4.48 0 0 1-.64.06 3.73 3.73 0 0 1-.68-.07 3.73 3.73 0 0 0 .68.07 3.57 3.57 0 0 0 1.7-.42 3 3 0 0 1-.84.2zm44.71 30.79l.18-16.76c-.73 0-1.46-.05-2.19-.07v11l.09 18.86c.22.15.44.31.67.45.4.25.82.46 1.24.67zm.49-35.13l.32 17.09h3.77c2.6 0 5.2 0 7.8.14q-.08-5.86-.14-11.73l-.16-34.1.07-15.27c-1.78.06-3.57.07-5.35.08s-3.58 0-5.38-.08h-.61v3.33-3.31c-1 0-2-.08-3-.13a1.88 1.88 0 0 0 .51.54c.29.2.58.44.89.69l.19.15a3.06 3.06 0 0 0 1.09 1.34 1.71 1.71 0 0 0 .58 1 1.73 1.73 0 0 0 1.3.4 2.84 2.84 0 0 0 1.36.38 1.79 1.79 0 0 0 1.21-.48 2.53 2.53 0 0 0 .55.44 19 19 0 0 0 5.12 1.88c-.33.34-.64.67-.92 1a11.26 11.26 0 0 1-1.05 1.11 1.82 1.82 0 0 0-.38.45 2 2 0 0 0-.63 1.94 1.59 1.59 0 0 0 .07.2l-.24.17.03.11h-2.15c-1.49 0-3-.06-4.44 0a8.53 8.53 0 0 0-1.14.18 4.93 4.93 0 0 1-.67.11 11.59 11.59 0 0 1-1.18 0 11.34 11.34 0 0 0-1.54 0 6 6 0 0 0-1.27.27 4.56 4.56 0 0 1-.7.16h-.56a6.45 6.45 0 0 0-1.31 0 7.61 7.61 0 0 0-1.39.35 5 5 0 0 1-.87.22c-.67.06-1.38.08-2.13.08v5.73h1.51c2.8 0 5.7.11 8.5.18l2.59.07a1.66 1.66 0 0 0-.29.42.27.27 0 0 0-.06.1 1.23 1.23 0 0 0-.13.24l-.22.26-.17.2a1.77 1.77 0 0 0-.55.47l-.07.1a1.15 1.15 0 0 0-.14.17 1.73 1.73 0 0 0-.77.79 1.22 1.22 0 0 0-.07.17 4.07 4.07 0 0 0-.21.37 1.76 1.76 0 0 0-.21 1l-.06.06-.18.19a1.82 1.82 0 0 0-.89.65 2.48 2.48 0 0 0-1 1.43c-.31.31-.58.62-.84.91a7.58 7.58 0 0 1-.88.9 1.85 1.85 0 0 0-.64 1.19 3.14 3.14 0 0 0-1.16.41 3.52 3.52 0 0 0-.68-.26 1.87 1.87 0 0 0-.58-.7 3.24 3.24 0 0 0-1.79-.5 2.55 2.55 0 0 0-1.51.44 2 2 0 0 1 .57-.29l.08 7.53a2.52 2.52 0 0 1-.94-.65 2.74 2.74 0 0 0 2.1.88 3.75 3.75 0 0 0 1.11-.17 3.37 3.37 0 0 0 1 .13h.12c-.3.42-.62.84-1 1.25h1.18c2.1 0 4.2 0 6.3-.11 0 3.16-.08 6.31-.11 9.47l-.07 15.4 2.2-.08zm7.15-32.86l-.13.09zm-19.39 50.6c3.25.32 6.49.46 9.74.56v-1.12c-3.24.09-6.5.24-9.74.56zM56.8 135.83v-3.56h1.3c-6.19.06-12.08.1-17.89-.21a4.42 4.42 0 0 0-1.29-.41 7.56 7.56 0 0 0-1.41-.05h-.35v6.95c-1.07 0-2.06 0-3-.06 1.09 0 2.22.11 3.48.06a1.75 1.75 0 0 0 .68-.17 3.79 3.79 0 0 1 1.4.1l1 .15a1.82 1.82 0 0 0 .33 0c3.3-.28 6.49-.29 9.87-.3 2 0 4 0 6.06-.08-.15-.82-.17-1.62-.18-2.42zm-34.04 2.56l-.07-3.25c-3.21-.06-6.43-.2-9.64-.51 3.21-.32 6.42-.46 9.63-.51v-2.44h-.06a6.45 6.45 0 0 1-1.32-.11 7.74 7.74 0 0 0-2.34-.11 1.56 1.56 0 0 0-.37.1 4 4 0 0 1-1.51.32 1.88 1.88 0 0 1-1-.17l-.29-.13a1.82 1.82 0 0 0-.8-.13c-.46 0-1 .07-1.6.11l-2.11.16v6.66h11.58zm9.76.01v-3.33c-2.09.07-4.19.1-6.29.11h-3l-.06 3.24h5.88a1.84 1.84 0 0 0 .47-.06h.12a4.87 4.87 0 0 0 .5-.1 2 2 0 0 1 .59.07 2.05 2.05 0 0 0 .64.11h1.16zM58.83 165a.56.56 0 0 0 0 .12.56.56 0 0 1 0-.12zm.11 2a1.65 1.65 0 0 1-.23-.46v-1.15a2.74 2.74 0 0 0-.09.64 1.74 1.74 0 0 0 .32.97z"/><path class="cls-2" d="M0 0h500v300H0z"/></g></svg>